%TF.GenerationSoftware,KiCad,Pcbnew,10.0.1*%
%TF.CreationDate,2026-09-15T07:22:38+02:00*%
%TF.ProjectId,PowerArm,506f7765-7241-4726-9d2e-6b696361645f,rev?*%
%TF.SameCoordinates,Original*%
%TF.FileFunction,Legend,Bot*%
%TF.FilePolarity,Positive*%
%FSLAX46Y46*%
G04 Gerber Fmt 4.6, Leading zero omitted, Abs format (unit mm)*
G04 Created by KiCad (PCBNEW 10.0.1) date 2026-09-15 07:22:38*
%MOMM*%
%LPD*%
G01*
G04 APERTURE LIST*
%ADD10C,0.000000*%
G04 APERTURE END LIST*
D10*
%TO.C,G\u002A\u002A\u002A*%
G36*
X145502845Y-25114178D02*
G01*
X145657211Y-25114827D01*
X145789934Y-25116985D01*
X145907142Y-25121160D01*
X146014966Y-25127856D01*
X146119532Y-25137580D01*
X146226970Y-25150839D01*
X146343409Y-25168137D01*
X146474977Y-25189982D01*
X146524125Y-25198514D01*
X146912552Y-25280467D01*
X147293563Y-25388626D01*
X147665888Y-25522098D01*
X148028259Y-25679988D01*
X148379405Y-25861401D01*
X148718058Y-26065443D01*
X149042949Y-26291220D01*
X149352807Y-26537836D01*
X149646365Y-26804397D01*
X149922353Y-27090009D01*
X150179501Y-27393777D01*
X150416541Y-27714806D01*
X150632203Y-28052203D01*
X150673444Y-28122936D01*
X150759058Y-28278109D01*
X150842768Y-28441117D01*
X150922375Y-28607007D01*
X150995681Y-28770827D01*
X151060487Y-28927621D01*
X151114595Y-29072438D01*
X151155808Y-29200323D01*
X151163109Y-29226367D01*
X151184061Y-29302619D01*
X151208081Y-29388542D01*
X151230414Y-29467142D01*
X151233101Y-29476477D01*
X151249344Y-29537934D01*
X151269120Y-29621008D01*
X151291539Y-29721197D01*
X151315708Y-29834003D01*
X151340735Y-29954926D01*
X151365728Y-30079466D01*
X151389796Y-30203123D01*
X151412048Y-30321399D01*
X151431590Y-30429793D01*
X151447532Y-30523805D01*
X151458982Y-30598937D01*
X151464426Y-30643654D01*
X151476357Y-30765986D01*
X151487009Y-30868619D01*
X151497374Y-30959551D01*
X151508445Y-31046781D01*
X151521215Y-31138305D01*
X151536675Y-31242122D01*
X151547187Y-31310612D01*
X151580287Y-31525149D01*
X151609548Y-31715853D01*
X151635483Y-31886339D01*
X151658611Y-32040222D01*
X151679446Y-32181114D01*
X151698503Y-32312632D01*
X151716300Y-32438388D01*
X151733351Y-32561998D01*
X151750172Y-32687075D01*
X151767280Y-32817234D01*
X151785190Y-32956088D01*
X151804417Y-33107253D01*
X151810910Y-33158643D01*
X151843427Y-33411241D01*
X151874557Y-33641136D01*
X151905189Y-33853046D01*
X151936215Y-34051690D01*
X151968525Y-34241789D01*
X152003009Y-34428061D01*
X152040558Y-34615225D01*
X152082061Y-34808001D01*
X152128410Y-35011109D01*
X152180494Y-35229266D01*
X152239205Y-35467194D01*
X152268363Y-35583315D01*
X152345502Y-35881442D01*
X152420688Y-36155074D01*
X152495203Y-36407314D01*
X152570328Y-36641269D01*
X152647344Y-36860043D01*
X152727533Y-37066741D01*
X152812175Y-37264468D01*
X152902553Y-37456330D01*
X152999947Y-37645431D01*
X153105639Y-37834877D01*
X153220910Y-38027772D01*
X153347041Y-38227222D01*
X153380726Y-38278938D01*
X153422999Y-38343767D01*
X153474744Y-38423538D01*
X153530475Y-38509772D01*
X153584707Y-38593990D01*
X153605456Y-38626313D01*
X153713859Y-38793039D01*
X153811488Y-38937843D01*
X153900498Y-39063404D01*
X153983042Y-39172400D01*
X154061276Y-39267509D01*
X154137354Y-39351410D01*
X154213429Y-39426779D01*
X154291656Y-39496296D01*
X154331987Y-39529485D01*
X154400820Y-39584928D01*
X154450754Y-39626141D01*
X154484508Y-39656361D01*
X154504801Y-39678821D01*
X154514350Y-39696757D01*
X154515875Y-39713402D01*
X154512094Y-39731992D01*
X154509656Y-39740874D01*
X154490016Y-39782765D01*
X154458493Y-39824250D01*
X154449145Y-39833422D01*
X154415971Y-39857788D01*
X154379895Y-39869780D01*
X154333584Y-39870323D01*
X154269707Y-39860341D01*
X154256674Y-39857685D01*
X154196465Y-39848633D01*
X154117530Y-39841660D01*
X154028291Y-39837019D01*
X153937168Y-39834960D01*
X153852581Y-39835735D01*
X153782950Y-39839595D01*
X153756455Y-39842748D01*
X153712054Y-39848562D01*
X153658089Y-39854305D01*
X153638348Y-39856084D01*
X153589746Y-39860995D01*
X153547318Y-39866636D01*
X153534136Y-39868936D01*
X153495354Y-39875850D01*
X153450832Y-39882653D01*
X153450766Y-39882662D01*
X153406244Y-39889633D01*
X153367432Y-39896956D01*
X153367396Y-39896964D01*
X153333918Y-39903774D01*
X153286291Y-39912907D01*
X153256162Y-39918485D01*
X153202605Y-39929337D01*
X153151839Y-39941364D01*
X153131107Y-39947091D01*
X153086175Y-39959122D01*
X153045129Y-39967809D01*
X153044338Y-39967938D01*
X152985540Y-39977530D01*
X152946512Y-39984136D01*
X152919572Y-39989103D01*
X152897331Y-39993713D01*
X152861176Y-40002505D01*
X152841751Y-40008011D01*
X152812791Y-40014560D01*
X152772182Y-40021102D01*
X152766063Y-40021902D01*
X152729061Y-40027920D01*
X152704708Y-40034318D01*
X152702366Y-40035460D01*
X152682005Y-40042236D01*
X152647417Y-40049461D01*
X152643688Y-40050080D01*
X152598998Y-40058115D01*
X152546806Y-40068548D01*
X152533698Y-40071344D01*
X152487033Y-40081260D01*
X152446087Y-40089614D01*
X152436433Y-40091486D01*
X152403704Y-40098430D01*
X152356404Y-40109315D01*
X152321800Y-40117635D01*
X152279474Y-40127150D01*
X152250508Y-40132021D01*
X152241904Y-40131604D01*
X152231601Y-40132840D01*
X152212834Y-40141549D01*
X152177550Y-40155103D01*
X152139885Y-40163919D01*
X152098052Y-40170371D01*
X152065537Y-40175329D01*
X152034339Y-40182959D01*
X152020430Y-40188974D01*
X151995156Y-40199463D01*
X151977951Y-40204179D01*
X151903610Y-40222024D01*
X151870213Y-40230772D01*
X151844624Y-40238682D01*
X151802771Y-40252611D01*
X151762527Y-40266477D01*
X151715453Y-40282560D01*
X151677061Y-40294986D01*
X151658315Y-40300377D01*
X151634096Y-40308393D01*
X151595275Y-40323631D01*
X151570319Y-40334147D01*
X151529177Y-40350735D01*
X151497424Y-40361391D01*
X151486950Y-40363489D01*
X151465040Y-40369087D01*
X151429464Y-40382764D01*
X151415153Y-40389044D01*
X151379899Y-40404279D01*
X151356561Y-40412917D01*
X151352626Y-40413691D01*
X151336890Y-40419219D01*
X151307721Y-40433515D01*
X151303993Y-40435502D01*
X151268397Y-40453552D01*
X151223705Y-40474759D01*
X151177354Y-40495790D01*
X151136782Y-40513314D01*
X151109425Y-40524000D01*
X151102516Y-40525751D01*
X151086600Y-40531391D01*
X151060831Y-40544451D01*
X151033416Y-40558724D01*
X151019146Y-40564661D01*
X151003250Y-40571528D01*
X150977462Y-40585327D01*
X150946197Y-40600829D01*
X150925857Y-40607848D01*
X150904013Y-40617323D01*
X150872262Y-40636912D01*
X150866803Y-40640726D01*
X150839858Y-40657710D01*
X150825398Y-40662534D01*
X150824617Y-40661273D01*
X150814757Y-40661126D01*
X150790927Y-40673861D01*
X150789880Y-40674543D01*
X150765659Y-40688073D01*
X150755155Y-40689303D01*
X150755142Y-40689089D01*
X150745333Y-40690796D01*
X150721007Y-40705318D01*
X150713457Y-40710558D01*
X150686680Y-40727612D01*
X150672467Y-40732740D01*
X150671772Y-40731679D01*
X150661557Y-40734032D01*
X150635192Y-40749062D01*
X150609245Y-40766138D01*
X150575102Y-40788220D01*
X150552391Y-40800210D01*
X150546718Y-40800534D01*
X150537353Y-40802155D01*
X150514384Y-40817403D01*
X150510106Y-40820709D01*
X150481307Y-40840479D01*
X150460992Y-40849458D01*
X150460145Y-40849507D01*
X150441040Y-40856963D01*
X150410603Y-40875417D01*
X150402965Y-40880717D01*
X150374013Y-40899364D01*
X150356225Y-40907131D01*
X150354402Y-40906720D01*
X150341618Y-40911307D01*
X150313393Y-40928546D01*
X150284927Y-40948235D01*
X150236743Y-40980471D01*
X150189822Y-41007637D01*
X150152142Y-41025351D01*
X150136655Y-41029694D01*
X150122406Y-41036977D01*
X150091761Y-41055298D01*
X150055197Y-41078254D01*
X150015588Y-41101753D01*
X149985654Y-41116100D01*
X149972549Y-41118300D01*
X149957192Y-41120070D01*
X149929887Y-41134697D01*
X149925718Y-41137513D01*
X149901821Y-41152120D01*
X149857695Y-41177249D01*
X149797707Y-41210486D01*
X149726224Y-41249417D01*
X149647612Y-41291627D01*
X149629650Y-41301191D01*
X149537574Y-41350530D01*
X149439934Y-41403526D01*
X149344486Y-41455925D01*
X149258983Y-41503472D01*
X149197441Y-41538314D01*
X149136591Y-41573977D01*
X149061280Y-41619307D01*
X148975095Y-41672037D01*
X148881620Y-41729901D01*
X148784441Y-41790632D01*
X148687144Y-41851964D01*
X148593314Y-41911630D01*
X148506538Y-41967364D01*
X148430400Y-42016899D01*
X148368486Y-42057968D01*
X148324382Y-42088306D01*
X148306969Y-42101193D01*
X148274933Y-42125171D01*
X148252208Y-42139721D01*
X148246937Y-42141739D01*
X148231136Y-42149984D01*
X148196616Y-42173202D01*
X148146446Y-42209115D01*
X148083696Y-42255446D01*
X148011435Y-42309920D01*
X147932733Y-42370259D01*
X147850659Y-42434186D01*
X147818264Y-42459705D01*
X147722505Y-42534728D01*
X147621217Y-42612898D01*
X147517370Y-42692022D01*
X147413931Y-42769909D01*
X147313867Y-42844368D01*
X147220149Y-42913207D01*
X147135743Y-42974235D01*
X147063618Y-43025260D01*
X147006741Y-43064091D01*
X146968082Y-43088537D01*
X146961816Y-43092035D01*
X146924456Y-43116250D01*
X146875068Y-43155838D01*
X146812111Y-43212179D01*
X146734043Y-43286657D01*
X146639322Y-43380652D01*
X146635284Y-43384717D01*
X146557800Y-43461780D01*
X146477786Y-43539615D01*
X146400070Y-43613649D01*
X146329482Y-43679308D01*
X146270849Y-43732021D01*
X146246225Y-43753186D01*
X146179514Y-43809733D01*
X146107022Y-43872144D01*
X146038519Y-43931963D01*
X145993865Y-43971628D01*
X145948012Y-44011178D01*
X145910104Y-44040762D01*
X145884440Y-44057229D01*
X145875428Y-44058450D01*
X145863425Y-44060695D01*
X145834430Y-44077912D01*
X145792769Y-44107248D01*
X145742767Y-44145848D01*
X145741835Y-44146596D01*
X145678275Y-44194881D01*
X145609430Y-44242746D01*
X145545113Y-44283562D01*
X145508977Y-44303905D01*
X145449494Y-44337657D01*
X145390080Y-44376123D01*
X145342717Y-44411500D01*
X145339132Y-44414544D01*
X145295141Y-44448363D01*
X145237217Y-44487371D01*
X145176271Y-44524313D01*
X145162418Y-44532059D01*
X145086686Y-44574547D01*
X144995253Y-44627342D01*
X144895881Y-44685860D01*
X144796334Y-44745516D01*
X144704372Y-44801726D01*
X144676094Y-44819311D01*
X144635790Y-44843256D01*
X144584675Y-44871876D01*
X144529105Y-44901830D01*
X144475436Y-44929779D01*
X144430025Y-44952384D01*
X144399225Y-44966305D01*
X144391247Y-44968975D01*
X144375115Y-44976056D01*
X144353036Y-44987715D01*
X144329957Y-44997996D01*
X144321772Y-44997324D01*
X144311884Y-44998348D01*
X144288074Y-45011647D01*
X144287767Y-45011848D01*
X144260947Y-45027424D01*
X144245937Y-45032729D01*
X144229466Y-45037543D01*
X144199819Y-45051147D01*
X144196572Y-45052810D01*
X144168849Y-45065188D01*
X144155300Y-45067393D01*
X144155033Y-45066666D01*
X144145141Y-45067785D01*
X144121323Y-45081130D01*
X144121028Y-45081323D01*
X144092911Y-45097666D01*
X144075869Y-45104254D01*
X144053029Y-45109348D01*
X144050820Y-45110140D01*
X144009628Y-45125319D01*
X143957566Y-45144041D01*
X143901719Y-45163817D01*
X143849169Y-45182161D01*
X143806998Y-45196585D01*
X143782291Y-45204604D01*
X143779869Y-45205270D01*
X143756311Y-45211925D01*
X143715596Y-45224237D01*
X143672183Y-45237768D01*
X143628197Y-45250829D01*
X143596956Y-45258523D01*
X143585339Y-45259214D01*
X143575082Y-45260096D01*
X143557188Y-45268300D01*
X143523890Y-45280479D01*
X143481624Y-45289424D01*
X143479266Y-45289738D01*
X143441560Y-45296650D01*
X143415362Y-45305096D01*
X143413626Y-45306073D01*
X143388087Y-45315505D01*
X143363020Y-45320385D01*
X143324171Y-45327918D01*
X143284182Y-45338833D01*
X143239381Y-45351223D01*
X143200813Y-45359437D01*
X143156238Y-45367470D01*
X143119858Y-45374687D01*
X143078782Y-45382368D01*
X143047997Y-45386954D01*
X143011027Y-45392683D01*
X142978522Y-45399046D01*
X142934805Y-45407542D01*
X142894064Y-45414284D01*
X142845194Y-45421678D01*
X142803747Y-45428149D01*
X142758327Y-45434567D01*
X142707817Y-45440613D01*
X142703009Y-45441121D01*
X142649185Y-45447189D01*
X142594563Y-45454020D01*
X142591849Y-45454384D01*
X142545858Y-45460134D01*
X142488194Y-45466759D01*
X142452899Y-45470562D01*
X142419708Y-45472801D01*
X142365871Y-45475001D01*
X142295478Y-45477109D01*
X142212617Y-45479072D01*
X142121377Y-45480837D01*
X142025848Y-45482352D01*
X141930119Y-45483563D01*
X141838278Y-45484419D01*
X141754416Y-45484866D01*
X141682621Y-45484851D01*
X141626983Y-45484322D01*
X141591590Y-45483225D01*
X141580491Y-45481822D01*
X141565145Y-45478587D01*
X141529066Y-45474647D01*
X141479273Y-45470734D01*
X141465241Y-45469829D01*
X141407910Y-45465672D01*
X141357471Y-45460921D01*
X141323604Y-45456507D01*
X141320459Y-45455912D01*
X141282216Y-45449739D01*
X141225150Y-45442522D01*
X141158151Y-45435291D01*
X141090110Y-45429073D01*
X141084245Y-45428599D01*
X141038593Y-45423353D01*
X140985806Y-45415164D01*
X140973085Y-45412847D01*
X140932425Y-45405393D01*
X140903011Y-45400472D01*
X140896663Y-45399624D01*
X140874061Y-45395697D01*
X140841083Y-45388532D01*
X140755094Y-45370067D01*
X140681291Y-45357501D01*
X140642202Y-45350041D01*
X140613143Y-45341901D01*
X140611816Y-45341366D01*
X140579673Y-45331121D01*
X140570131Y-45329129D01*
X140539108Y-45322497D01*
X140521499Y-45317961D01*
X140492735Y-45310191D01*
X140448763Y-45298520D01*
X140417287Y-45290242D01*
X140365174Y-45276197D01*
X140316500Y-45262443D01*
X140295706Y-45256239D01*
X140265606Y-45248576D01*
X140250850Y-45248069D01*
X140250547Y-45248723D01*
X140240285Y-45248177D01*
X140221855Y-45239834D01*
X140186442Y-45224556D01*
X140166275Y-45218503D01*
X140124817Y-45208826D01*
X140083212Y-45198455D01*
X140062965Y-45193007D01*
X140041332Y-45184966D01*
X140008358Y-45171095D01*
X140007385Y-45170668D01*
X139976765Y-45157531D01*
X139959179Y-45150604D01*
X139958753Y-45150481D01*
X139917330Y-45138095D01*
X139873224Y-45123084D01*
X139854540Y-45115924D01*
X139778827Y-45084939D01*
X139709816Y-45057277D01*
X139652172Y-45034758D01*
X139610560Y-45019203D01*
X139589644Y-45012432D01*
X139589149Y-45012345D01*
X139567396Y-45003573D01*
X139537532Y-44986225D01*
X139507454Y-44969348D01*
X139486624Y-44962418D01*
X139462943Y-44956304D01*
X139447924Y-44949409D01*
X139423015Y-44937005D01*
X139382186Y-44917665D01*
X139340427Y-44898394D01*
X139293926Y-44876022D01*
X139255766Y-44855566D01*
X139236214Y-44842919D01*
X139214044Y-44827532D01*
X139205204Y-44823892D01*
X139184672Y-44816681D01*
X139148796Y-44800921D01*
X139106856Y-44780942D01*
X139068133Y-44761074D01*
X139055580Y-44754102D01*
X139028287Y-44739452D01*
X139013895Y-44733475D01*
X138999588Y-44725832D01*
X138969866Y-44706775D01*
X138941916Y-44687824D01*
X138905054Y-44663320D01*
X138877707Y-44646979D01*
X138867998Y-44642833D01*
X138852594Y-44635526D01*
X138822087Y-44616653D01*
X138794079Y-44597843D01*
X138757585Y-44573251D01*
X138731061Y-44556593D01*
X138722101Y-44552093D01*
X138705068Y-44543869D01*
X138671684Y-44523433D01*
X138628080Y-44494906D01*
X138580389Y-44462409D01*
X138534742Y-44430064D01*
X138497272Y-44401991D01*
X138489360Y-44395684D01*
X138457215Y-44371232D01*
X138435766Y-44358121D01*
X138430306Y-44358001D01*
X138420765Y-44354965D01*
X138395657Y-44337285D01*
X138360254Y-44308701D01*
X138357358Y-44306245D01*
X138318346Y-44274155D01*
X138286354Y-44249820D01*
X138268394Y-44238556D01*
X138248814Y-44226108D01*
X138213259Y-44198337D01*
X138166047Y-44158909D01*
X138111496Y-44111489D01*
X138053922Y-44059742D01*
X138012251Y-44021137D01*
X137974632Y-43987459D01*
X137944989Y-43964041D01*
X137928675Y-43955034D01*
X137927419Y-43955385D01*
X137916205Y-43947917D01*
X137888950Y-43922950D01*
X137848542Y-43883333D01*
X137797864Y-43831914D01*
X137739805Y-43771543D01*
X137719749Y-43750386D01*
X137631539Y-43656955D01*
X137560320Y-43581348D01*
X137503957Y-43521228D01*
X137460314Y-43474259D01*
X137427255Y-43438104D01*
X137402645Y-43410426D01*
X137384347Y-43388890D01*
X137370227Y-43371158D01*
X137358148Y-43354895D01*
X137357800Y-43354413D01*
X137334588Y-43323451D01*
X137299890Y-43278635D01*
X137259722Y-43227699D01*
X137242287Y-43205868D01*
X137182108Y-43130170D01*
X137130524Y-43063970D01*
X137089643Y-43010062D01*
X137061576Y-42971243D01*
X137048431Y-42950309D01*
X137047712Y-42948004D01*
X137039984Y-42933541D01*
X137020519Y-42905485D01*
X137009500Y-42890756D01*
X136986511Y-42858671D01*
X136972915Y-42835829D01*
X136971335Y-42830960D01*
X136963382Y-42814995D01*
X136943367Y-42786419D01*
X136933123Y-42773219D01*
X136909802Y-42741863D01*
X136896178Y-42719430D01*
X136894744Y-42714908D01*
X136887318Y-42698620D01*
X136868321Y-42667465D01*
X136849585Y-42639455D01*
X136825073Y-42602520D01*
X136808732Y-42575019D01*
X136804595Y-42565177D01*
X136797259Y-42548719D01*
X136779258Y-42520413D01*
X136775859Y-42515575D01*
X136759615Y-42489358D01*
X136755921Y-42475753D01*
X136757170Y-42475219D01*
X136757509Y-42466543D01*
X136746647Y-42450902D01*
X136733754Y-42430349D01*
X136711570Y-42389580D01*
X136682536Y-42333572D01*
X136649094Y-42267300D01*
X136613685Y-42195740D01*
X136578749Y-42123869D01*
X136546730Y-42056663D01*
X136520068Y-41999098D01*
X136501204Y-41956150D01*
X136492704Y-41933315D01*
X136485347Y-41917169D01*
X136473608Y-41895104D01*
X136463754Y-41872060D01*
X136465278Y-41863840D01*
X136465102Y-41853967D01*
X136452208Y-41830111D01*
X136451551Y-41829103D01*
X136437846Y-41804865D01*
X136436227Y-41794376D01*
X136436415Y-41794365D01*
X136435660Y-41783676D01*
X136424210Y-41757188D01*
X136420098Y-41749206D01*
X136403822Y-41715714D01*
X136395004Y-41692220D01*
X136394631Y-41690153D01*
X136388047Y-41665729D01*
X136383974Y-41655415D01*
X136360998Y-41596357D01*
X136337299Y-41525027D01*
X136317710Y-41456382D01*
X136312111Y-41433044D01*
X136303001Y-41403265D01*
X136297429Y-41391411D01*
X136287419Y-41366975D01*
X136282746Y-41349778D01*
X136271989Y-41302995D01*
X136263162Y-41270965D01*
X136252718Y-41241195D01*
X136249653Y-41233197D01*
X136236421Y-41190343D01*
X136226245Y-41143253D01*
X136226185Y-41142879D01*
X136217562Y-41102762D01*
X136207196Y-41072141D01*
X136206208Y-41070180D01*
X136199256Y-41048040D01*
X136201042Y-41040843D01*
X136201542Y-41024445D01*
X136193302Y-40995630D01*
X136181026Y-40953657D01*
X136172504Y-40908746D01*
X136166393Y-40868958D01*
X136160049Y-40838663D01*
X136159721Y-40837499D01*
X136153105Y-40808428D01*
X136145982Y-40768786D01*
X136145564Y-40766138D01*
X136138394Y-40721702D01*
X136131771Y-40682914D01*
X136131745Y-40682768D01*
X136119839Y-40613964D01*
X136110441Y-40552584D01*
X136102170Y-40488432D01*
X136093645Y-40411314D01*
X136089405Y-40370131D01*
X136080179Y-40262049D01*
X136072660Y-40139667D01*
X136066975Y-40009071D01*
X136063256Y-39876347D01*
X136061630Y-39747582D01*
X136062228Y-39628862D01*
X136065179Y-39526273D01*
X136069925Y-39453063D01*
X136081179Y-39331854D01*
X136092023Y-39217463D01*
X136101473Y-39120283D01*
X136101542Y-39119584D01*
X136106712Y-39078163D01*
X136114240Y-39028787D01*
X136115933Y-39018808D01*
X136123622Y-38973784D01*
X136129942Y-38935516D01*
X136131054Y-38928491D01*
X136136986Y-38891924D01*
X136143721Y-38852106D01*
X136151476Y-38806650D01*
X136157810Y-38768736D01*
X136169408Y-38706913D01*
X136184951Y-38643213D01*
X136190706Y-38622034D01*
X136197981Y-38588138D01*
X136198527Y-38567530D01*
X136197659Y-38565912D01*
X136197884Y-38549965D01*
X136204609Y-38533712D01*
X136217162Y-38501056D01*
X136225661Y-38466521D01*
X136235416Y-38423173D01*
X136248596Y-38376824D01*
X136248796Y-38376203D01*
X136261972Y-38330057D01*
X136271812Y-38286606D01*
X136271912Y-38286047D01*
X136279082Y-38260342D01*
X138029106Y-38260342D01*
X138035493Y-38301464D01*
X138053244Y-38334384D01*
X138085335Y-38361257D01*
X138134742Y-38384237D01*
X138204440Y-38405477D01*
X138297406Y-38427131D01*
X138346936Y-38437444D01*
X138471341Y-38464334D01*
X138606405Y-38496275D01*
X138747751Y-38532017D01*
X138891005Y-38570309D01*
X139031788Y-38609899D01*
X139165725Y-38649538D01*
X139288440Y-38687973D01*
X139395556Y-38723955D01*
X139482697Y-38756232D01*
X139526411Y-38774569D01*
X139586212Y-38799657D01*
X139653079Y-38825115D01*
X139687801Y-38837196D01*
X139758805Y-38864133D01*
X139848244Y-38903514D01*
X139951159Y-38952784D01*
X140062591Y-39009388D01*
X140177579Y-39070772D01*
X140291165Y-39134379D01*
X140398388Y-39197656D01*
X140452024Y-39230869D01*
X140542119Y-39287374D01*
X140647103Y-39352597D01*
X140758004Y-39421003D01*
X140865855Y-39487058D01*
X140952243Y-39539526D01*
X141406296Y-39824066D01*
X141852373Y-40123857D01*
X142286225Y-40435774D01*
X142703603Y-40756695D01*
X143100260Y-41083497D01*
X143349125Y-41301328D01*
X143462325Y-41403892D01*
X143557990Y-41493072D01*
X143640064Y-41573112D01*
X143712494Y-41648256D01*
X143779228Y-41722749D01*
X143844210Y-41800835D01*
X143911388Y-41886758D01*
X143984708Y-41984764D01*
X143985160Y-41985377D01*
X144020424Y-42031189D01*
X144056750Y-42073217D01*
X144097726Y-42114656D01*
X144146939Y-42158699D01*
X144207977Y-42208541D01*
X144284429Y-42267376D01*
X144379882Y-42338399D01*
X144390251Y-42346030D01*
X144432134Y-42374882D01*
X144464721Y-42393662D01*
X144482512Y-42399325D01*
X144484136Y-42398029D01*
X144497486Y-42398798D01*
X144530953Y-42410378D01*
X144579916Y-42430921D01*
X144639751Y-42458581D01*
X144659131Y-42467990D01*
X144743328Y-42509044D01*
X144839068Y-42555302D01*
X144933320Y-42600486D01*
X144998600Y-42631505D01*
X145095474Y-42681328D01*
X145185821Y-42735452D01*
X145265511Y-42790841D01*
X145330419Y-42844461D01*
X145376416Y-42893279D01*
X145395211Y-42923095D01*
X145408583Y-42954308D01*
X145428919Y-43004209D01*
X145453285Y-43065519D01*
X145475042Y-43121335D01*
X145502321Y-43189705D01*
X145537393Y-43274273D01*
X145576433Y-43365989D01*
X145615618Y-43455805D01*
X145630646Y-43489551D01*
X145666494Y-43569920D01*
X145701812Y-43649871D01*
X145733518Y-43722373D01*
X145758530Y-43780396D01*
X145768203Y-43803316D01*
X145792934Y-43857942D01*
X145815108Y-43888882D01*
X145840257Y-43897402D01*
X145873913Y-43884766D01*
X145921607Y-43852241D01*
X145935729Y-43841638D01*
X145983022Y-43804174D01*
X146039430Y-43757071D01*
X146093783Y-43709684D01*
X146100675Y-43703486D01*
X146148354Y-43660771D01*
X146194077Y-43620439D01*
X146229621Y-43589730D01*
X146236136Y-43584251D01*
X146280934Y-43546949D01*
X146238027Y-43431407D01*
X146168719Y-43240512D01*
X146109221Y-43067678D01*
X146059958Y-42914292D01*
X146021355Y-42781739D01*
X145993836Y-42671405D01*
X145977825Y-42584677D01*
X145977176Y-42579757D01*
X145969569Y-42536877D01*
X145957984Y-42513797D01*
X145937987Y-42502534D01*
X145933588Y-42501263D01*
X145867081Y-42482319D01*
X145782210Y-42456526D01*
X145683086Y-42425272D01*
X145573820Y-42389945D01*
X145458521Y-42351935D01*
X145341301Y-42312630D01*
X145226268Y-42273418D01*
X145117534Y-42235688D01*
X145019208Y-42200830D01*
X144935401Y-42170230D01*
X144870223Y-42145278D01*
X144830270Y-42128516D01*
X144752526Y-42091987D01*
X144661033Y-42047584D01*
X144560710Y-41997826D01*
X144456476Y-41945233D01*
X144353249Y-41892323D01*
X144255950Y-41841615D01*
X144169496Y-41795629D01*
X144098807Y-41756884D01*
X144053119Y-41730520D01*
X143991429Y-41695441D01*
X143941909Y-41671503D01*
X143908855Y-41660673D01*
X143900377Y-41660630D01*
X143883581Y-41656767D01*
X143854607Y-41638319D01*
X143811675Y-41603865D01*
X143753004Y-41551987D01*
X143684164Y-41488182D01*
X143558585Y-41372395D01*
X143446195Y-41273961D01*
X143342270Y-41188990D01*
X143242087Y-41113588D01*
X143161543Y-41057598D01*
X143108475Y-41019961D01*
X143042307Y-40970059D01*
X142970850Y-40913928D01*
X142901913Y-40857608D01*
X142890591Y-40848099D01*
X142727028Y-40711395D01*
X142578651Y-40590408D01*
X142440706Y-40481494D01*
X142308444Y-40381009D01*
X142177113Y-40285309D01*
X142041960Y-40190750D01*
X141966575Y-40139459D01*
X141842523Y-40055611D01*
X141738594Y-39984901D01*
X141651731Y-39925146D01*
X141578874Y-39874159D01*
X141516964Y-39829757D01*
X141462942Y-39789754D01*
X141413749Y-39751966D01*
X141366326Y-39714207D01*
X141332702Y-39686754D01*
X141279364Y-39645561D01*
X141210561Y-39596334D01*
X141134851Y-39545015D01*
X141060791Y-39497543D01*
X141054803Y-39493849D01*
X140975014Y-39443631D01*
X140883806Y-39384376D01*
X140792250Y-39323371D01*
X140711415Y-39267903D01*
X140709081Y-39266267D01*
X140627466Y-39209238D01*
X140562022Y-39164386D01*
X140506280Y-39127773D01*
X140453770Y-39095462D01*
X140398024Y-39063513D01*
X140332573Y-39027990D01*
X140250947Y-38984953D01*
X140222757Y-38970207D01*
X140026705Y-38870965D01*
X139821496Y-38773033D01*
X139613400Y-38679149D01*
X139408686Y-38592048D01*
X139213626Y-38514468D01*
X139034488Y-38449146D01*
X139009462Y-38440602D01*
X138841806Y-38391670D01*
X138648070Y-38349312D01*
X138429220Y-38313725D01*
X138316235Y-38299190D01*
X138268134Y-38290981D01*
X138228833Y-38279888D01*
X138212795Y-38272145D01*
X138197565Y-38258177D01*
X138198046Y-38242779D01*
X138213856Y-38216106D01*
X138289612Y-38125661D01*
X138387508Y-38051058D01*
X138506308Y-37993110D01*
X138597046Y-37963990D01*
X138646387Y-37955084D01*
X138716463Y-37947855D01*
X138800332Y-37942479D01*
X138891052Y-37939130D01*
X138981681Y-37937983D01*
X139065277Y-37939212D01*
X139134897Y-37942993D01*
X139182446Y-37949251D01*
X139255574Y-37976230D01*
X139331316Y-38024058D01*
X139402767Y-38087477D01*
X139463026Y-38161225D01*
X139465565Y-38165005D01*
X139498694Y-38217344D01*
X139518934Y-38258604D01*
X139530315Y-38299752D01*
X139536869Y-38351755D01*
X139537691Y-38361250D01*
X139546951Y-38430285D01*
X139563083Y-38476586D01*
X139589242Y-38504959D01*
X139628583Y-38520212D01*
X139643865Y-38523015D01*
X139689386Y-38534683D01*
X139754306Y-38557742D01*
X139833816Y-38589941D01*
X139923108Y-38629024D01*
X140017371Y-38672738D01*
X140111797Y-38718829D01*
X140201576Y-38765044D01*
X140281899Y-38809129D01*
X140347956Y-38848829D01*
X140369328Y-38862991D01*
X140419883Y-38891898D01*
X140460900Y-38903837D01*
X140487863Y-38897725D01*
X140492334Y-38892541D01*
X140496994Y-38874407D01*
X140503536Y-38835390D01*
X140510895Y-38782239D01*
X140514824Y-38750118D01*
X140531262Y-38653992D01*
X140555791Y-38570440D01*
X140586597Y-38504079D01*
X140621863Y-38459527D01*
X140632182Y-38451660D01*
X140669109Y-38439789D01*
X140721030Y-38443891D01*
X140789853Y-38464436D01*
X140877486Y-38501896D01*
X140920396Y-38522805D01*
X141022340Y-38575400D01*
X141100751Y-38620500D01*
X141157791Y-38661193D01*
X141195620Y-38700571D01*
X141216399Y-38741726D01*
X141222291Y-38787748D01*
X141215455Y-38841727D01*
X141198053Y-38906756D01*
X141195225Y-38915871D01*
X141176693Y-38995754D01*
X141167823Y-39080886D01*
X141168634Y-39163012D01*
X141179149Y-39233880D01*
X141194318Y-39276456D01*
X141206804Y-39296758D01*
X141226156Y-39321788D01*
X141253756Y-39352838D01*
X141290987Y-39391198D01*
X141339233Y-39438157D01*
X141399875Y-39495007D01*
X141474298Y-39563037D01*
X141563884Y-39643537D01*
X141670015Y-39737799D01*
X141794075Y-39847112D01*
X141937447Y-39972766D01*
X141987475Y-40016501D01*
X142101827Y-40114890D01*
X142215401Y-40209261D01*
X142331488Y-40302080D01*
X142453381Y-40395808D01*
X142584371Y-40492909D01*
X142727750Y-40595847D01*
X142886810Y-40707084D01*
X143064842Y-40829085D01*
X143154595Y-40889891D01*
X143311165Y-40995533D01*
X143447444Y-41087160D01*
X143566098Y-41166419D01*
X143669792Y-41234960D01*
X143761190Y-41294429D01*
X143842958Y-41346477D01*
X143917760Y-41392750D01*
X143988260Y-41434897D01*
X144057125Y-41474566D01*
X144127018Y-41513406D01*
X144200605Y-41553065D01*
X144280550Y-41595191D01*
X144369518Y-41641432D01*
X144370405Y-41641891D01*
X144448299Y-41682253D01*
X144523397Y-41721245D01*
X144589850Y-41755825D01*
X144641810Y-41782950D01*
X144667564Y-41796473D01*
X144725586Y-41824207D01*
X144806182Y-41858548D01*
X144905315Y-41898089D01*
X145018949Y-41941423D01*
X145143048Y-41987142D01*
X145273576Y-42033841D01*
X145406498Y-42080111D01*
X145537776Y-42124546D01*
X145663376Y-42165739D01*
X145779260Y-42202283D01*
X145881394Y-42232770D01*
X145965740Y-42255795D01*
X146022734Y-42268900D01*
X146094675Y-42291034D01*
X146149473Y-42324459D01*
X146183824Y-42366183D01*
X146194421Y-42413217D01*
X146193355Y-42423276D01*
X146193872Y-42451991D01*
X146202390Y-42498941D01*
X146219424Y-42566218D01*
X146245486Y-42655918D01*
X146269095Y-42732275D01*
X146311719Y-42867504D01*
X146347014Y-42978929D01*
X146375878Y-43069290D01*
X146399212Y-43141327D01*
X146417918Y-43197778D01*
X146432896Y-43241384D01*
X146445046Y-43274884D01*
X146455269Y-43301017D01*
X146459104Y-43310217D01*
X146483203Y-43366961D01*
X146593981Y-43271842D01*
X146629880Y-43241130D01*
X146678614Y-43199598D01*
X146736467Y-43150395D01*
X146799724Y-43096672D01*
X146864668Y-43041577D01*
X146927585Y-42988263D01*
X146984757Y-42939878D01*
X147032471Y-42899573D01*
X147067010Y-42870498D01*
X147084658Y-42855804D01*
X147085623Y-42855031D01*
X147086170Y-42838776D01*
X147077355Y-42803511D01*
X147061282Y-42755538D01*
X147040056Y-42701163D01*
X147016837Y-42648906D01*
X146987843Y-42595877D01*
X146954081Y-42545379D01*
X146930618Y-42516903D01*
X146874571Y-42453955D01*
X146819876Y-42384785D01*
X146772002Y-42316880D01*
X146736417Y-42257723D01*
X146726664Y-42237768D01*
X146709358Y-42189629D01*
X146692615Y-42128395D01*
X146681719Y-42076201D01*
X146677228Y-42028679D01*
X146881441Y-42028679D01*
X146883240Y-42073444D01*
X146884376Y-42083882D01*
X146899307Y-42158366D01*
X146924009Y-42215546D01*
X146956348Y-42250577D01*
X146958342Y-42251786D01*
X147001454Y-42264784D01*
X147056260Y-42266018D01*
X147109753Y-42256387D01*
X147146532Y-42238776D01*
X147187029Y-42197304D01*
X147219914Y-42146419D01*
X147238390Y-42097224D01*
X147239989Y-42086159D01*
X147241965Y-42027094D01*
X147233918Y-41984285D01*
X147212019Y-41946898D01*
X147177425Y-41909053D01*
X147141808Y-41875036D01*
X147116424Y-41857521D01*
X147092707Y-41852546D01*
X147062792Y-41856024D01*
X146994242Y-41879771D01*
X146936728Y-41926304D01*
X146908430Y-41962382D01*
X146888997Y-41995904D01*
X146881441Y-42028679D01*
X146677228Y-42028679D01*
X146674009Y-41994615D01*
X146683721Y-41926820D01*
X146713426Y-41865946D01*
X146765694Y-41805125D01*
X146792482Y-41780174D01*
X146880419Y-41717955D01*
X146973350Y-41681073D01*
X147067690Y-41668934D01*
X147159855Y-41680943D01*
X147246260Y-41716503D01*
X147323322Y-41775021D01*
X147387455Y-41855901D01*
X147402037Y-41881396D01*
X147419396Y-41938315D01*
X147422970Y-42011992D01*
X147413778Y-42095667D01*
X147392841Y-42182580D01*
X147361177Y-42265971D01*
X147337101Y-42312102D01*
X147322482Y-42340356D01*
X147313856Y-42369333D01*
X147310132Y-42406764D01*
X147310219Y-42460382D01*
X147311321Y-42494877D01*
X147314480Y-42552873D01*
X147318970Y-42600143D01*
X147324058Y-42629956D01*
X147326767Y-42636401D01*
X147342151Y-42634202D01*
X147368737Y-42616378D01*
X147382347Y-42604378D01*
X147406806Y-42583489D01*
X147449652Y-42549302D01*
X147506848Y-42504938D01*
X147574358Y-42453518D01*
X147648146Y-42398160D01*
X147673030Y-42379676D01*
X147918762Y-42197601D01*
X147858876Y-42052675D01*
X147831753Y-41989629D01*
X147805165Y-41932294D01*
X147782596Y-41887952D01*
X147770181Y-41867290D01*
X147748542Y-41830894D01*
X147724603Y-41781902D01*
X147711767Y-41751545D01*
X147687900Y-41697274D01*
X147660636Y-41651557D01*
X147625426Y-41609339D01*
X147577719Y-41565564D01*
X147512966Y-41515177D01*
X147472554Y-41485766D01*
X147411401Y-41440672D01*
X147336493Y-41383586D01*
X147255377Y-41320363D01*
X147175601Y-41256857D01*
X147135503Y-41224317D01*
X146995014Y-41109585D01*
X146872498Y-41010126D01*
X146764599Y-40923399D01*
X146667963Y-40846861D01*
X146579234Y-40777972D01*
X146495057Y-40714189D01*
X146412077Y-40652971D01*
X146326938Y-40591775D01*
X146236285Y-40528060D01*
X146136762Y-40459284D01*
X146025016Y-40382905D01*
X146022998Y-40381531D01*
X145947090Y-40328929D01*
X145867697Y-40272366D01*
X145792839Y-40217651D01*
X145730538Y-40170595D01*
X145714426Y-40157995D01*
X145649725Y-40107288D01*
X145578285Y-40052097D01*
X145511567Y-40001248D01*
X145484635Y-39981013D01*
X145435393Y-39942021D01*
X145393524Y-39904760D01*
X145365143Y-39874866D01*
X145357755Y-39864122D01*
X145347300Y-39838641D01*
X145330629Y-39792169D01*
X145309656Y-39730286D01*
X145286294Y-39658577D01*
X145274009Y-39619803D01*
X145154135Y-39241453D01*
X145035381Y-38873950D01*
X144918979Y-38521022D01*
X144806163Y-38186394D01*
X144698167Y-37873794D01*
X144662655Y-37772878D01*
X144627326Y-37670960D01*
X144587523Y-37552810D01*
X144546684Y-37428837D01*
X144508244Y-37309447D01*
X144481465Y-37224027D01*
X144453051Y-37132275D01*
X144425181Y-37042928D01*
X144399672Y-36961762D01*
X144378340Y-36894555D01*
X144363004Y-36847082D01*
X144360987Y-36840978D01*
X144328720Y-36743883D01*
X144255441Y-36733359D01*
X144175683Y-36712460D01*
X144089138Y-36674329D01*
X144005268Y-36624281D01*
X143933538Y-36567626D01*
X143902316Y-36535133D01*
X143879106Y-36495876D01*
X143856436Y-36437681D01*
X143836782Y-36369332D01*
X143822623Y-36299614D01*
X143816433Y-36237310D01*
X143816343Y-36230213D01*
X143818726Y-36204338D01*
X144149236Y-36204338D01*
X144157322Y-36216951D01*
X144163335Y-36234371D01*
X144161750Y-36266985D01*
X144160817Y-36272431D01*
X144160346Y-36327588D01*
X144177302Y-36376674D01*
X144208194Y-36410557D01*
X144215075Y-36414390D01*
X144271815Y-36428614D01*
X144337764Y-36425157D01*
X144401444Y-36404895D01*
X144412090Y-36399358D01*
X144461706Y-36358908D01*
X144498870Y-36303917D01*
X144521779Y-36241215D01*
X144528632Y-36177632D01*
X144517629Y-36119999D01*
X144495403Y-36083471D01*
X144450782Y-36053357D01*
X144391989Y-36040062D01*
X144326575Y-36043070D01*
X144262087Y-36061867D01*
X144206076Y-36095935D01*
X144197285Y-36103833D01*
X144169131Y-36138626D01*
X144152171Y-36174800D01*
X144149236Y-36204338D01*
X143818726Y-36204338D01*
X143823546Y-36151987D01*
X143848051Y-36078681D01*
X143852201Y-36069631D01*
X143891005Y-36002079D01*
X143941881Y-35934668D01*
X143998186Y-35874943D01*
X144053275Y-35830446D01*
X144073163Y-35818764D01*
X144106307Y-35797188D01*
X144125405Y-35775717D01*
X144127243Y-35769075D01*
X144124902Y-35747817D01*
X144118484Y-35704928D01*
X144108898Y-35646118D01*
X144097051Y-35577094D01*
X144093585Y-35557459D01*
X144079058Y-35466406D01*
X144064816Y-35361049D01*
X144052552Y-35254841D01*
X144044357Y-35166466D01*
X144038899Y-35096934D01*
X144033600Y-35032372D01*
X144028051Y-34968486D01*
X144021840Y-34900984D01*
X144014557Y-34825573D01*
X144005790Y-34737960D01*
X143995129Y-34633854D01*
X143982162Y-34508960D01*
X143973191Y-34423085D01*
X143962655Y-34312625D01*
X143952823Y-34188633D01*
X143943562Y-34048717D01*
X143934737Y-33890487D01*
X143926215Y-33711553D01*
X143917863Y-33509524D01*
X143909846Y-33290645D01*
X143908796Y-33214933D01*
X143910014Y-33123210D01*
X143913186Y-33020966D01*
X143917997Y-32913695D01*
X143924131Y-32806890D01*
X143931276Y-32706043D01*
X143939115Y-32616647D01*
X143947335Y-32544195D01*
X143955411Y-32495129D01*
X143957713Y-32468707D01*
X143945602Y-32451815D01*
X143913943Y-32436075D01*
X143865503Y-32423632D01*
X143795426Y-32416602D01*
X143741286Y-32415262D01*
X143668427Y-32413914D01*
X143618994Y-32407515D01*
X143588664Y-32392536D01*
X143573115Y-32365446D01*
X143568025Y-32322715D01*
X143568599Y-32274231D01*
X143572750Y-32180927D01*
X143578705Y-32111391D01*
X143587226Y-32061622D01*
X143599075Y-32027617D01*
X143615016Y-32005375D01*
X143620760Y-32000358D01*
X143648476Y-31986638D01*
X143695541Y-31971254D01*
X143753828Y-31956694D01*
X143782390Y-31950916D01*
X143854880Y-31937274D01*
X143904433Y-31926988D01*
X143935412Y-31918221D01*
X143952180Y-31909137D01*
X143959098Y-31897898D01*
X143960532Y-31882666D01*
X143960545Y-31875896D01*
X143963141Y-31846517D01*
X143970089Y-31797845D01*
X143980187Y-31737813D01*
X143987251Y-31699671D01*
X143999114Y-31631411D01*
X144012131Y-31546009D01*
X144024784Y-31453988D01*
X144035559Y-31365866D01*
X144036301Y-31359245D01*
X144047801Y-31266949D01*
X144063082Y-31160013D01*
X144080248Y-31051001D01*
X144097398Y-30952478D01*
X144099282Y-30942396D01*
X144132504Y-30763724D01*
X144160037Y-30610272D01*
X144182207Y-30480127D01*
X144199342Y-30371377D01*
X144210841Y-30289332D01*
X144219224Y-30231387D01*
X144231923Y-30152255D01*
X144247854Y-30058009D01*
X144265929Y-29954720D01*
X144285063Y-29848461D01*
X144304171Y-29745306D01*
X144322166Y-29651325D01*
X144337964Y-29572593D01*
X144344582Y-29541378D01*
X144354593Y-29483805D01*
X144359720Y-29429910D01*
X144358883Y-29391162D01*
X144358786Y-29390546D01*
X144360809Y-29334255D01*
X144372547Y-29308418D01*
X144386281Y-29284114D01*
X144382514Y-29272325D01*
X144368436Y-29266082D01*
X144334951Y-29248746D01*
X144321499Y-29238893D01*
X144299097Y-29225163D01*
X144258742Y-29204975D01*
X144208278Y-29182199D01*
X144196444Y-29177160D01*
X144134095Y-29150389D01*
X144093924Y-29129459D01*
X144072552Y-29109299D01*
X144066598Y-29084837D01*
X144072684Y-29051001D01*
X144085114Y-29010086D01*
X144101961Y-28948786D01*
X144115976Y-28884094D01*
X144122257Y-28844256D01*
X144134388Y-28786610D01*
X144158192Y-28710972D01*
X144191223Y-28623283D01*
X144231034Y-28529488D01*
X144275179Y-28435528D01*
X144321212Y-28347348D01*
X144341287Y-28312161D01*
X144410320Y-28207287D01*
X144484487Y-28120645D01*
X144514596Y-28091427D01*
X144580641Y-28036024D01*
X144655489Y-27982551D01*
X144732827Y-27934736D01*
X144806344Y-27896309D01*
X144869728Y-27870997D01*
X144900139Y-27863676D01*
X144970812Y-27863953D01*
X145042707Y-27882739D01*
X145109692Y-27916364D01*
X145165635Y-27961157D01*
X145204404Y-28013450D01*
X145218310Y-28054090D01*
X145220247Y-28104466D01*
X145213746Y-28175807D01*
X145199679Y-28262895D01*
X145178916Y-28360510D01*
X145152328Y-28463432D01*
X145146739Y-28482987D01*
X145131155Y-28541339D01*
X145112636Y-28617942D01*
X145093282Y-28703717D01*
X145075196Y-28789586D01*
X145071626Y-28807433D01*
X145052618Y-28897875D01*
X145031350Y-28989663D01*
X145009095Y-29078157D01*
X144987127Y-29158719D01*
X144966718Y-29226713D01*
X144949143Y-29277498D01*
X144935674Y-29306438D01*
X144933991Y-29308724D01*
X144911240Y-29317339D01*
X144861109Y-29321369D01*
X144787128Y-29320919D01*
X144724943Y-29319471D01*
X144683958Y-29320432D01*
X144657604Y-29325085D01*
X144639313Y-29334711D01*
X144622517Y-29350591D01*
X144619724Y-29353588D01*
X144592514Y-29398069D01*
X144585574Y-29433347D01*
X144580735Y-29473839D01*
X144568884Y-29522712D01*
X144564028Y-29537771D01*
X144554483Y-29571353D01*
X144541240Y-29626503D01*
X144525579Y-29697449D01*
X144508781Y-29778420D01*
X144494643Y-29850408D01*
X144476971Y-29940894D01*
X144458602Y-30031541D01*
X144441081Y-30114950D01*
X144425954Y-30183725D01*
X144417455Y-30219857D01*
X144375627Y-30412791D01*
X144342663Y-30618342D01*
X144317484Y-30843353D01*
X144315331Y-30867436D01*
X144307611Y-30952895D01*
X144297744Y-31057907D01*
X144286513Y-31174391D01*
X144274699Y-31294266D01*
X144263085Y-31409450D01*
X144259681Y-31442615D01*
X144244466Y-31598035D01*
X144233655Y-31726936D01*
X144227222Y-31830232D01*
X144225136Y-31908836D01*
X144227369Y-31963663D01*
X144233892Y-31995627D01*
X144241876Y-32005254D01*
X144262794Y-32009318D01*
X144304040Y-32015132D01*
X144358289Y-32021706D01*
X144384867Y-32024634D01*
X144472007Y-32036044D01*
X144534417Y-32050976D01*
X144575155Y-32072674D01*
X144597282Y-32104384D01*
X144603854Y-32149351D01*
X144597930Y-32210822D01*
X144592052Y-32244475D01*
X144576330Y-32320578D01*
X144561459Y-32373961D01*
X144545522Y-32409554D01*
X144526601Y-32432288D01*
X144516009Y-32440011D01*
X144491054Y-32448668D01*
X144445757Y-32458297D01*
X144387463Y-32467488D01*
X144346225Y-32472545D01*
X144266793Y-32481220D01*
X144210936Y-32489337D01*
X144174716Y-32500232D01*
X144154193Y-32517242D01*
X144145427Y-32543704D01*
X144144479Y-32582954D01*
X144147410Y-32638330D01*
X144147546Y-32640824D01*
X144149260Y-32683021D01*
X144151204Y-32749227D01*
X144153298Y-32835666D01*
X144155466Y-32938560D01*
X144157629Y-33054131D01*
X144159710Y-33178600D01*
X144161630Y-33308191D01*
X144162238Y-33353173D01*
X144164228Y-33483466D01*
X144166671Y-33609778D01*
X144169458Y-33728359D01*
X144172479Y-33835458D01*
X144175626Y-33927325D01*
X144178789Y-34000211D01*
X144181859Y-34050365D01*
X144182888Y-34061816D01*
X144204036Y-34267628D01*
X144222135Y-34447541D01*
X144237352Y-34603258D01*
X144249856Y-34736485D01*
X144252937Y-34770459D01*
X144259336Y-34838425D01*
X144265305Y-34895967D01*
X144270239Y-34937649D01*
X144273535Y-34958034D01*
X144273900Y-34959011D01*
X144277132Y-34975259D01*
X144282247Y-35013188D01*
X144288493Y-35066814D01*
X144293982Y-35118803D01*
X144302667Y-35193951D01*
X144313388Y-35271042D01*
X144324462Y-35338513D01*
X144330224Y-35367943D01*
X144353653Y-35476296D01*
X144372303Y-35560469D01*
X144386982Y-35623504D01*
X144398503Y-35668444D01*
X144407674Y-35698331D01*
X144415306Y-35716206D01*
X144422209Y-35725113D01*
X144425925Y-35727266D01*
X144449303Y-35732664D01*
X144490446Y-35739186D01*
X144529653Y-35744150D01*
X144614245Y-35762197D01*
X144681926Y-35797253D01*
X144737336Y-35852800D01*
X144785116Y-35932319D01*
X144787771Y-35937781D01*
X144811942Y-35992261D01*
X144828793Y-36043033D01*
X144840806Y-36099842D01*
X144850461Y-36172435D01*
X144852620Y-36192487D01*
X144859853Y-36287506D01*
X144858350Y-36361041D01*
X144847025Y-36418323D01*
X144824795Y-36464583D01*
X144790575Y-36505054D01*
X144787172Y-36508307D01*
X144727237Y-36580339D01*
X144693489Y-36657984D01*
X144686672Y-36739487D01*
X144687137Y-36744479D01*
X144693435Y-36775467D01*
X144707716Y-36828806D01*
X144728794Y-36900609D01*
X144755486Y-36986992D01*
X144786606Y-37084071D01*
X144820969Y-37187961D01*
X144835702Y-37231567D01*
X144905566Y-37437151D01*
X144967163Y-37618627D01*
X145021218Y-37778180D01*
X145068455Y-37917998D01*
X145109598Y-38040268D01*
X145145373Y-38147174D01*
X145176504Y-38240906D01*
X145203715Y-38323648D01*
X145227731Y-38397587D01*
X145249276Y-38464911D01*
X145269075Y-38527805D01*
X145287852Y-38588457D01*
X145306332Y-38649052D01*
X145316253Y-38681892D01*
X145386392Y-38904116D01*
X145456552Y-39104237D01*
X145528893Y-39287860D01*
X145605573Y-39460590D01*
X145656493Y-39565172D01*
X145753938Y-39758752D01*
X145895870Y-39881541D01*
X145958023Y-39933587D01*
X146034951Y-39995388D01*
X146118706Y-40060703D01*
X146201341Y-40123288D01*
X146239278Y-40151258D01*
X146316617Y-40207905D01*
X146397633Y-40267668D01*
X146474953Y-40325081D01*
X146541202Y-40374675D01*
X146570310Y-40396686D01*
X146692353Y-40489057D01*
X146809987Y-40577294D01*
X146919250Y-40658459D01*
X147016180Y-40729616D01*
X147096814Y-40787829D01*
X147124588Y-40807514D01*
X147186906Y-40852654D01*
X147257976Y-40906103D01*
X147325221Y-40958353D01*
X147343928Y-40973308D01*
X147408096Y-41022790D01*
X147483158Y-41077250D01*
X147556167Y-41127384D01*
X147580142Y-41143022D01*
X147643620Y-41184313D01*
X147709131Y-41228023D01*
X147766419Y-41267269D01*
X147788567Y-41282918D01*
X147832491Y-41313585D01*
X147869813Y-41338089D01*
X147892941Y-41351462D01*
X147893924Y-41351891D01*
X147908336Y-41369725D01*
X147926738Y-41410708D01*
X147947419Y-41470787D01*
X147955521Y-41497788D01*
X147970576Y-41542693D01*
X147993566Y-41602691D01*
X148022158Y-41672516D01*
X148054015Y-41746899D01*
X148086806Y-41820574D01*
X148118194Y-41888274D01*
X148145847Y-41944730D01*
X148167430Y-41984676D01*
X148178471Y-42000899D01*
X148190158Y-41994589D01*
X148220056Y-41975366D01*
X148263660Y-41946326D01*
X148316465Y-41910566D01*
X148373967Y-41871181D01*
X148431660Y-41831269D01*
X148485040Y-41793925D01*
X148529603Y-41762245D01*
X148560843Y-41739326D01*
X148572349Y-41730174D01*
X148568725Y-41716553D01*
X148554924Y-41682510D01*
X148532922Y-41632613D01*
X148527416Y-41620678D01*
X148740372Y-41620678D01*
X148747319Y-41627626D01*
X148754267Y-41620678D01*
X148747319Y-41613731D01*
X148740372Y-41620678D01*
X148527416Y-41620678D01*
X148504699Y-41571432D01*
X148492095Y-41544789D01*
X148453611Y-41461400D01*
X148412929Y-41368908D01*
X148374980Y-41278759D01*
X148345532Y-41204608D01*
X148318443Y-41135048D01*
X148296406Y-41085085D01*
X148275406Y-41048047D01*
X148251429Y-41017260D01*
X148220459Y-40986054D01*
X148205913Y-40972599D01*
X148153164Y-40926907D01*
X148094326Y-40879690D01*
X148048069Y-40845426D01*
X147996818Y-40807787D01*
X147945410Y-40767015D01*
X147913621Y-40739657D01*
X147877554Y-40709808D01*
X147826222Y-40671246D01*
X147767883Y-40630056D01*
X147734616Y-40607707D01*
X147667442Y-40562522D01*
X147594203Y-40511671D01*
X147527232Y-40463762D01*
X147505349Y-40447640D01*
X147453869Y-40409922D01*
X147387276Y-40362075D01*
X147313386Y-40309670D01*
X147240014Y-40258277D01*
X147224251Y-40247335D01*
X147162821Y-40203445D01*
X147085474Y-40146120D01*
X146997748Y-40079585D01*
X146905180Y-40008065D01*
X146813311Y-39935785D01*
X146760698Y-39893705D01*
X146681970Y-39830484D01*
X146608690Y-39772003D01*
X146544142Y-39720853D01*
X146491609Y-39679626D01*
X146454372Y-39650912D01*
X146436451Y-39637777D01*
X146409818Y-39610593D01*
X146384091Y-39569317D01*
X146375076Y-39549345D01*
X146356580Y-39495862D01*
X146333645Y-39419273D01*
X146307313Y-39323716D01*
X146278630Y-39213326D01*
X146248639Y-39092242D01*
X146218384Y-38964601D01*
X146188908Y-38834539D01*
X146161257Y-38706195D01*
X146156202Y-38681892D01*
X146134686Y-38577992D01*
X146112651Y-38471920D01*
X146091503Y-38370421D01*
X146072648Y-38280239D01*
X146057493Y-38208120D01*
X146053241Y-38188009D01*
X146038410Y-38113271D01*
X146021592Y-38020855D01*
X146004503Y-37920625D01*
X145988855Y-37822447D01*
X145983251Y-37785055D01*
X145968989Y-37688157D01*
X145953377Y-37582779D01*
X145938007Y-37479619D01*
X145924468Y-37389375D01*
X145920313Y-37361871D01*
X145908942Y-37278293D01*
X145897271Y-37177894D01*
X145886463Y-37071601D01*
X145877680Y-36970343D01*
X145875440Y-36940126D01*
X145868781Y-36851521D01*
X145862746Y-36787065D01*
X145856763Y-36743145D01*
X145850259Y-36716147D01*
X145842661Y-36702455D01*
X145837230Y-36699090D01*
X145742457Y-36664183D01*
X145669670Y-36624538D01*
X145613064Y-36575640D01*
X145566834Y-36512975D01*
X145543553Y-36470659D01*
X145507407Y-36383731D01*
X145492681Y-36303873D01*
X145497266Y-36236852D01*
X145750249Y-36236852D01*
X145750682Y-36298893D01*
X145772728Y-36357545D01*
X145815626Y-36406951D01*
X145857166Y-36432674D01*
X145921287Y-36450982D01*
X145978205Y-36442604D01*
X146029156Y-36407330D01*
X146033582Y-36402732D01*
X146061418Y-36362474D01*
X146079378Y-36317680D01*
X146080305Y-36313322D01*
X146084363Y-36263990D01*
X146080919Y-36210731D01*
X146071396Y-36163172D01*
X146057216Y-36130940D01*
X146052615Y-36125981D01*
X146029643Y-36116689D01*
X145988485Y-36107959D01*
X145945610Y-36102482D01*
X145894596Y-36099162D01*
X145861271Y-36101953D01*
X145835869Y-36112645D01*
X145817271Y-36126030D01*
X145772191Y-36177279D01*
X145750249Y-36236852D01*
X145497266Y-36236852D01*
X145498292Y-36221849D01*
X145508866Y-36175352D01*
X145548538Y-36079638D01*
X145610336Y-35999233D01*
X145691679Y-35936730D01*
X145787691Y-35895398D01*
X145843271Y-35878876D01*
X145846467Y-35658147D01*
X145847037Y-35609631D01*
X145847723Y-35535911D01*
X145848506Y-35439571D01*
X145849370Y-35323198D01*
X145850297Y-35189377D01*
X145851270Y-35040691D01*
X145852272Y-34879728D01*
X145853285Y-34709072D01*
X145854293Y-34531308D01*
X145855278Y-34349022D01*
X145855653Y-34277188D01*
X145856712Y-34051246D01*
X145857399Y-33850931D01*
X145857696Y-33674079D01*
X145857580Y-33518530D01*
X145857030Y-33382120D01*
X145856026Y-33262689D01*
X145854546Y-33158075D01*
X145852570Y-33066115D01*
X145850077Y-32984648D01*
X145847045Y-32911512D01*
X145843453Y-32844545D01*
X145841423Y-32812423D01*
X145835103Y-32722746D01*
X145828730Y-32642145D01*
X145822694Y-32574846D01*
X145817386Y-32525079D01*
X145813197Y-32497071D01*
X145811881Y-32492838D01*
X145804151Y-32470158D01*
X145796641Y-32432731D01*
X145795126Y-32422349D01*
X145787691Y-32366909D01*
X145704322Y-32365031D01*
X145646139Y-32366751D01*
X145588312Y-32373203D01*
X145560457Y-32378772D01*
X145512042Y-32400799D01*
X145472973Y-32441102D01*
X145441292Y-32502638D01*
X145415042Y-32588366D01*
X145411324Y-32604051D01*
X145397024Y-32663784D01*
X145382728Y-32716324D01*
X145366199Y-32768199D01*
X145345202Y-32825941D01*
X145317501Y-32896080D01*
X145280941Y-32984956D01*
X145219015Y-33147991D01*
X145170868Y-33308171D01*
X145135459Y-33471372D01*
X145111747Y-33643473D01*
X145098693Y-33830350D01*
X145095239Y-34034026D01*
X145096485Y-34133495D01*
X145099254Y-34236829D01*
X145103225Y-34335779D01*
X145108074Y-34422097D01*
X145112579Y-34478665D01*
X145116627Y-34529917D01*
X145120817Y-34600287D01*
X145125049Y-34686221D01*
X145129223Y-34784166D01*
X145133239Y-34890571D01*
X145136998Y-35001882D01*
X145140400Y-35114548D01*
X145143345Y-35225014D01*
X145145733Y-35329729D01*
X145147465Y-35425140D01*
X145148440Y-35507694D01*
X145148558Y-35573838D01*
X145147721Y-35620021D01*
X145145827Y-35642689D01*
X145145323Y-35644072D01*
X145137450Y-35638335D01*
X145123700Y-35611264D01*
X145106539Y-35568031D01*
X145099347Y-35547593D01*
X145076435Y-35480382D01*
X145049590Y-35401753D01*
X145023887Y-35326575D01*
X145019002Y-35312302D01*
X144996712Y-35243557D01*
X144978490Y-35177658D01*
X144963860Y-35110576D01*
X144952349Y-35038283D01*
X144943481Y-34956748D01*
X144936781Y-34861943D01*
X144931774Y-34749839D01*
X144927986Y-34616406D01*
X144926092Y-34523979D01*
X144923550Y-34396381D01*
X144920305Y-34249525D01*
X144916565Y-34091927D01*
X144912540Y-33932103D01*
X144908438Y-33778570D01*
X144904467Y-33639845D01*
X144904367Y-33636492D01*
X144899496Y-33393038D01*
X144898612Y-33125700D01*
X144901621Y-32838082D01*
X144908435Y-32533790D01*
X144915622Y-32317089D01*
X146086433Y-32317089D01*
X146089129Y-32336248D01*
X146096235Y-32374655D01*
X146106279Y-32424398D01*
X146107459Y-32430030D01*
X146115028Y-32483226D01*
X146120997Y-32561558D01*
X146125351Y-32662421D01*
X146128072Y-32783206D01*
X146129144Y-32921305D01*
X146128551Y-33074112D01*
X146126277Y-33239019D01*
X146122305Y-33413418D01*
X146116619Y-33594701D01*
X146115033Y-33638019D01*
X146112845Y-33709409D01*
X146110864Y-33800251D01*
X146109091Y-33908024D01*
X146107529Y-34030206D01*
X146106181Y-34164272D01*
X146105049Y-34307701D01*
X146104135Y-34457970D01*
X146103443Y-34612556D01*
X146102975Y-34768937D01*
X146102734Y-34924590D01*
X146102721Y-35076991D01*
X146102941Y-35223620D01*
X146103394Y-35361952D01*
X146104085Y-35489465D01*
X146105015Y-35603637D01*
X146106187Y-35701944D01*
X146107603Y-35781865D01*
X146109267Y-35840876D01*
X146111180Y-35876455D01*
X146112730Y-35886171D01*
X146129384Y-35898628D01*
X146163301Y-35916649D01*
X146192486Y-35929953D01*
X146274916Y-35978625D01*
X146336244Y-36045114D01*
X146376608Y-36129658D01*
X146396149Y-36232494D01*
X146398160Y-36278063D01*
X146396942Y-36338163D01*
X146390001Y-36384418D01*
X146374279Y-36430130D01*
X146352420Y-36477095D01*
X146304692Y-36559801D01*
X146253591Y-36622428D01*
X146201762Y-36662109D01*
X146170784Y-36673854D01*
X146139526Y-36683093D01*
X146123237Y-36692389D01*
X146123167Y-36692507D01*
X146120238Y-36714376D01*
X146121193Y-36758883D01*
X146125520Y-36821229D01*
X146132708Y-36896612D01*
X146142244Y-36980232D01*
X146153616Y-37067288D01*
X146166312Y-37152979D01*
X146179820Y-37232505D01*
X146182021Y-37244328D01*
X146198222Y-37334991D01*
X146213816Y-37430881D01*
X146227306Y-37522210D01*
X146237195Y-37599188D01*
X146239327Y-37618928D01*
X146255366Y-37752498D01*
X146278192Y-37906381D01*
X146306651Y-38074257D01*
X146339585Y-38249809D01*
X146375841Y-38426718D01*
X146414261Y-38598666D01*
X146432487Y-38674945D01*
X146457317Y-38777380D01*
X146481858Y-38880161D01*
X146504686Y-38977204D01*
X146524374Y-39062424D01*
X146539496Y-39129736D01*
X146544804Y-39154321D01*
X146561977Y-39231736D01*
X146579441Y-39296710D01*
X146599778Y-39352472D01*
X146625574Y-39402252D01*
X146659412Y-39449280D01*
X146703876Y-39496784D01*
X146761550Y-39547993D01*
X146835017Y-39606139D01*
X146926862Y-39674448D01*
X147008150Y-39733421D01*
X147082670Y-39787933D01*
X147154337Y-39841666D01*
X147218179Y-39890792D01*
X147269223Y-39931485D01*
X147302243Y-39959686D01*
X147348166Y-39999265D01*
X147395939Y-40036093D01*
X147427297Y-40057207D01*
X147474559Y-40088473D01*
X147523332Y-40124904D01*
X147534767Y-40134254D01*
X147577953Y-40166514D01*
X147630852Y-40200633D01*
X147659822Y-40217203D01*
X147696266Y-40239162D01*
X147749069Y-40274099D01*
X147812526Y-40318093D01*
X147880936Y-40367222D01*
X147920569Y-40396476D01*
X147992046Y-40449404D01*
X148064363Y-40502250D01*
X148130934Y-40550246D01*
X148185170Y-40588625D01*
X148205416Y-40602591D01*
X148292016Y-40661619D01*
X148358642Y-40707745D01*
X148408324Y-40743653D01*
X148444095Y-40772028D01*
X148468985Y-40795556D01*
X148486026Y-40816923D01*
X148498251Y-40838812D01*
X148508689Y-40863909D01*
X148512837Y-40874898D01*
X148527395Y-40909958D01*
X148552112Y-40965268D01*
X148584824Y-41036170D01*
X148623368Y-41118004D01*
X148665580Y-41206112D01*
X148690112Y-41256655D01*
X148837864Y-41559590D01*
X148896804Y-41523822D01*
X148931600Y-41503272D01*
X148983837Y-41473117D01*
X149046676Y-41437276D01*
X149113283Y-41399668D01*
X149119010Y-41396453D01*
X149178801Y-41362667D01*
X149228762Y-41333980D01*
X149264461Y-41312971D01*
X149281464Y-41302220D01*
X149282276Y-41301423D01*
X149276030Y-41288568D01*
X149259458Y-41257520D01*
X149235806Y-41214335D01*
X149229127Y-41202280D01*
X149203432Y-41155997D01*
X149168119Y-41092380D01*
X149127055Y-41018395D01*
X149084106Y-40941007D01*
X149064173Y-40905087D01*
X149025825Y-40835044D01*
X148991830Y-40771188D01*
X148964741Y-40718452D01*
X148947111Y-40681770D01*
X148941933Y-40668873D01*
X148929489Y-40636526D01*
X148919544Y-40619104D01*
X148916570Y-40599398D01*
X148918734Y-40560384D01*
X148924845Y-40509813D01*
X148933712Y-40455438D01*
X148944145Y-40405009D01*
X148954953Y-40366279D01*
X148960392Y-40353209D01*
X148969506Y-40327968D01*
X148981463Y-40284312D01*
X148993860Y-40231116D01*
X148995321Y-40224234D01*
X149004974Y-40179227D01*
X149019474Y-40112879D01*
X149037546Y-40030955D01*
X149057918Y-39939223D01*
X149079317Y-39843448D01*
X149085849Y-39814332D01*
X149108297Y-39711856D01*
X149130633Y-39605382D01*
X149151354Y-39502399D01*
X149168961Y-39410394D01*
X149181949Y-39336852D01*
X149183386Y-39328008D01*
X149211222Y-39153410D01*
X149234945Y-39003355D01*
X149254986Y-38874971D01*
X149271778Y-38765385D01*
X149285755Y-38671725D01*
X149297349Y-38591120D01*
X149306994Y-38520696D01*
X149315122Y-38457581D01*
X149317441Y-38438731D01*
X149323942Y-38387303D01*
X149330911Y-38337339D01*
X149338988Y-38285390D01*
X149348816Y-38228008D01*
X149361036Y-38161744D01*
X149376290Y-38083148D01*
X149395220Y-37988774D01*
X149418468Y-37875171D01*
X149446676Y-37738892D01*
X149456378Y-37692220D01*
X149468958Y-37625581D01*
X149483391Y-37539056D01*
X149498490Y-37440381D01*
X149513072Y-37337291D01*
X149525572Y-37240633D01*
X149538176Y-37140822D01*
X149551849Y-37038084D01*
X149565519Y-36940106D01*
X149578114Y-36854573D01*
X149588313Y-36790633D01*
X149602043Y-36708379D01*
X149610751Y-36649560D01*
X149614332Y-36610259D01*
X149612681Y-36586561D01*
X149605693Y-36574548D01*
X149593263Y-36570305D01*
X149582397Y-36569857D01*
X149545365Y-36562648D01*
X149494183Y-36543612D01*
X149437622Y-36516636D01*
X149384453Y-36485605D01*
X149369977Y-36475731D01*
X149339660Y-36445786D01*
X149307317Y-36401209D01*
X149286607Y-36364571D01*
X149267167Y-36321515D01*
X149255554Y-36283371D01*
X149249935Y-36240274D01*
X149248475Y-36182354D01*
X149248565Y-36162908D01*
X149466545Y-36162908D01*
X149475708Y-36189057D01*
X149500141Y-36221651D01*
X149513601Y-36236877D01*
X149551306Y-36273803D01*
X149589614Y-36303839D01*
X149608807Y-36315006D01*
X149663967Y-36327174D01*
X149726043Y-36322017D01*
X149781497Y-36301022D01*
X149790608Y-36295049D01*
X149826304Y-36256616D01*
X149857245Y-36200963D01*
X149878552Y-36138660D01*
X149885421Y-36089648D01*
X149875187Y-36030279D01*
X149843674Y-35985733D01*
X149793969Y-35957469D01*
X149729158Y-35946945D01*
X149652327Y-35955621D01*
X149620294Y-35964358D01*
X149550412Y-35999703D01*
X149499803Y-36054641D01*
X149470265Y-36127154D01*
X149468744Y-36134260D01*
X149466545Y-36162908D01*
X149248565Y-36162908D01*
X149248579Y-36159956D01*
X149258003Y-36042638D01*
X149285074Y-35943560D01*
X149331186Y-35858422D01*
X149357018Y-35825258D01*
X149407824Y-35777893D01*
X149468327Y-35739359D01*
X149529291Y-35714708D01*
X149570612Y-35708370D01*
X149587856Y-35707759D01*
X149601239Y-35703693D01*
X149611601Y-35692817D01*
X149619783Y-35671777D01*
X149626627Y-35637220D01*
X149632973Y-35585791D01*
X149639663Y-35514137D01*
X149647538Y-35418903D01*
X149649596Y-35393424D01*
X149660044Y-35262238D01*
X149668200Y-35153827D01*
X149674205Y-35063279D01*
X149678199Y-34985686D01*
X149680320Y-34916137D01*
X149680710Y-34849723D01*
X149679507Y-34781534D01*
X149676851Y-34706660D01*
X149672882Y-34620192D01*
X149672074Y-34603720D01*
X149666927Y-34498095D01*
X149661517Y-34384782D01*
X149656275Y-34272923D01*
X149651628Y-34171662D01*
X149648384Y-34098837D01*
X149644657Y-34012376D01*
X149639940Y-33949768D01*
X149630894Y-33907176D01*
X149614180Y-33880764D01*
X149586459Y-33866693D01*
X149544394Y-33861129D01*
X149484644Y-33860232D01*
X149440865Y-33860339D01*
X149387388Y-33860354D01*
X149347945Y-33857939D01*
X149320080Y-33849403D01*
X149301335Y-33831055D01*
X149289252Y-33799204D01*
X149281373Y-33750161D01*
X149275241Y-33680234D01*
X149269687Y-33603282D01*
X149263436Y-33488489D01*
X149262121Y-33387278D01*
X149265605Y-33303182D01*
X149273752Y-33239736D01*
X149285255Y-33202625D01*
X149316154Y-33171674D01*
X149371985Y-33150744D01*
X149453168Y-33139716D01*
X149517224Y-33137801D01*
X149573210Y-33136661D01*
X149617806Y-33133612D01*
X149644345Y-33129207D01*
X149648655Y-33126879D01*
X149650185Y-33110024D01*
X149650172Y-33070216D01*
X149648727Y-33012241D01*
X149645958Y-32940887D01*
X149643014Y-32880243D01*
X149638177Y-32792438D01*
X149633195Y-32712518D01*
X149627586Y-32634656D01*
X149620867Y-32553030D01*
X149612556Y-32461814D01*
X149602171Y-32355185D01*
X149589231Y-32227318D01*
X149587844Y-32213785D01*
X149567309Y-32011990D01*
X149549756Y-31835928D01*
X149535012Y-31683719D01*
X149522906Y-31553486D01*
X149513265Y-31443351D01*
X149505920Y-31351435D01*
X149500697Y-31275860D01*
X149498339Y-31234190D01*
X149493949Y-31145254D01*
X149489836Y-31080281D01*
X149484119Y-31035528D01*
X149474917Y-31007252D01*
X149460348Y-30991710D01*
X149438534Y-30985159D01*
X149407593Y-30983857D01*
X149372674Y-30984081D01*
X149270752Y-30984081D01*
X149259784Y-30876395D01*
X149256777Y-30832932D01*
X149254036Y-30766765D01*
X149251681Y-30682982D01*
X149249835Y-30586669D01*
X149248620Y-30482912D01*
X149248177Y-30393545D01*
X149248211Y-30269608D01*
X149249261Y-30170159D01*
X149252046Y-30091899D01*
X149257284Y-30031527D01*
X149265695Y-29985742D01*
X149277999Y-29951245D01*
X149294913Y-29924735D01*
X149317158Y-29902913D01*
X149345452Y-29882478D01*
X149361846Y-29871906D01*
X149412377Y-29844662D01*
X149458463Y-29832800D01*
X149505725Y-29837191D01*
X149559782Y-29858708D01*
X149626253Y-29898225D01*
X149654883Y-29917421D01*
X149677976Y-29934892D01*
X149698628Y-29955597D01*
X149719472Y-29983672D01*
X149743139Y-30023251D01*
X149772259Y-30078472D01*
X149809465Y-30153470D01*
X149823811Y-30182945D01*
X149892561Y-30329319D01*
X149946564Y-30455253D01*
X149986688Y-30563294D01*
X150013802Y-30655991D01*
X150028774Y-30735890D01*
X150032604Y-30795159D01*
X150032604Y-30895342D01*
X149935439Y-30942348D01*
X149882908Y-30970803D01*
X149845732Y-30997116D01*
X149829575Y-31016758D01*
X149826750Y-31042536D01*
X149826273Y-31090281D01*
X149827868Y-31154298D01*
X149831255Y-31228889D01*
X149836158Y-31308358D01*
X149842299Y-31387006D01*
X149849399Y-31459137D01*
X149852372Y-31484299D01*
X149858395Y-31536432D01*
X149864823Y-31600435D01*
X149871862Y-31678807D01*
X149879713Y-31774049D01*
X149888580Y-31888658D01*
X149898667Y-32025133D01*
X149910177Y-32185974D01*
X149914575Y-32248424D01*
X149922854Y-32357990D01*
X149932911Y-32477987D01*
X149943857Y-32598564D01*
X149954802Y-32709874D01*
X149963684Y-32791969D01*
X149972757Y-32876257D01*
X149980144Y-32955362D01*
X149985374Y-33023326D01*
X149987975Y-33074196D01*
X149987903Y-33097757D01*
X149983971Y-33158643D01*
X150115974Y-33154772D01*
X150175422Y-33153620D01*
X150222158Y-33156028D01*
X150257825Y-33164955D01*
X150284063Y-33183363D01*
X150302513Y-33214210D01*
X150314818Y-33260456D01*
X150322617Y-33325062D01*
X150327553Y-33410986D01*
X150331267Y-33521189D01*
X150331944Y-33544235D01*
X150334506Y-33646291D01*
X150335370Y-33724130D01*
X150334421Y-33781279D01*
X150331544Y-33821266D01*
X150326623Y-33847619D01*
X150321641Y-33860339D01*
X150290068Y-33892405D01*
X150235558Y-33917738D01*
X150162435Y-33934985D01*
X150075028Y-33942794D01*
X150056920Y-33943100D01*
X149949234Y-33943709D01*
X149950340Y-34072237D01*
X149951463Y-34135197D01*
X149953748Y-34216241D01*
X149956884Y-34305705D01*
X149960556Y-34393921D01*
X149961262Y-34409190D01*
X149964130Y-34499798D01*
X149965383Y-34610055D01*
X149965150Y-34734497D01*
X149963558Y-34867661D01*
X149960738Y-35004084D01*
X149956817Y-35138301D01*
X149951924Y-35264851D01*
X149946188Y-35378268D01*
X149939738Y-35473089D01*
X149934995Y-35524296D01*
X149927696Y-35602621D01*
X149926188Y-35657524D01*
X149931439Y-35692954D01*
X149944419Y-35712858D01*
X149966096Y-35721184D01*
X149983588Y-35722264D01*
X150027310Y-35734175D01*
X150075362Y-35766188D01*
X150121454Y-35812727D01*
X150159293Y-35868216D01*
X150168127Y-35885843D01*
X150201587Y-35984103D01*
X150211177Y-36084441D01*
X150199783Y-36184198D01*
X150164613Y-36306635D01*
X150111272Y-36412383D01*
X150041483Y-36498081D01*
X150035975Y-36503290D01*
X149990974Y-36542307D01*
X149953310Y-36565918D01*
X149912101Y-36579702D01*
X149872914Y-36586856D01*
X149853440Y-36597155D01*
X149841031Y-36624969D01*
X149835378Y-36653398D01*
X149811499Y-36805141D01*
X149791706Y-36932321D01*
X149775589Y-37037798D01*
X149762739Y-37124433D01*
X149752748Y-37195086D01*
X149745206Y-37252618D01*
X149739705Y-37299890D01*
X149735835Y-37339763D01*
X149734087Y-37361871D01*
X149728148Y-37433054D01*
X149720555Y-37508939D01*
X149712891Y-37573811D01*
X149712432Y-37577243D01*
X149705568Y-37632995D01*
X149697571Y-37705525D01*
X149689610Y-37783913D01*
X149684876Y-37834299D01*
X149676399Y-37915500D01*
X149664625Y-38010618D01*
X149650499Y-38113459D01*
X149634968Y-38217828D01*
X149618978Y-38317531D01*
X149603476Y-38406373D01*
X149589408Y-38478160D01*
X149580856Y-38515196D01*
X149570952Y-38559007D01*
X149558485Y-38621921D01*
X149545043Y-38695562D01*
X149532214Y-38771554D01*
X149532101Y-38772253D01*
X149519313Y-38848220D01*
X149505943Y-38921908D01*
X149493566Y-38984946D01*
X149483762Y-39028962D01*
X149483685Y-39029267D01*
X149473622Y-39073746D01*
X149460860Y-39136942D01*
X149447100Y-39210133D01*
X149435090Y-39278395D01*
X149423401Y-39342692D01*
X149406797Y-39427566D01*
X149386615Y-39526517D01*
X149364191Y-39633045D01*
X149340863Y-39740650D01*
X149329349Y-39792509D01*
X149307110Y-39891873D01*
X149285751Y-39987446D01*
X149266390Y-40074220D01*
X149250144Y-40147184D01*
X149238129Y-40201331D01*
X149233080Y-40224234D01*
X149224911Y-40276814D01*
X149218813Y-40346195D01*
X149214897Y-40425296D01*
X149213276Y-40507038D01*
X149214062Y-40584342D01*
X149217367Y-40650126D01*
X149223304Y-40697311D01*
X149225442Y-40706185D01*
X149235212Y-40727002D01*
X149256940Y-40766537D01*
X149287740Y-40820014D01*
X149324726Y-40882657D01*
X149365011Y-40949690D01*
X149405711Y-41016337D01*
X149443939Y-41077823D01*
X149476810Y-41129372D01*
X149501437Y-41166207D01*
X149511995Y-41180405D01*
X149524698Y-41175663D01*
X149556375Y-41159473D01*
X149602045Y-41134474D01*
X149649090Y-41107727D01*
X149710180Y-41072811D01*
X149768700Y-41039977D01*
X149816678Y-41013668D01*
X149839394Y-41001679D01*
X149873226Y-40983055D01*
X149885766Y-40969935D01*
X149881024Y-40956323D01*
X149874715Y-40948875D01*
X149865188Y-40935119D01*
X149862382Y-40917654D01*
X149867116Y-40890367D01*
X149880206Y-40847145D01*
X149893659Y-40807397D01*
X149922517Y-40715803D01*
X149944803Y-40625634D01*
X149961316Y-40531139D01*
X149972854Y-40426569D01*
X149980218Y-40306173D01*
X149984207Y-40164201D01*
X149984358Y-40154759D01*
X149987007Y-40050957D01*
X149991623Y-39940225D01*
X149997707Y-39831631D01*
X150004763Y-39734240D01*
X150010999Y-39668435D01*
X150020269Y-39573440D01*
X150029008Y-39464233D01*
X150036226Y-39354388D01*
X150040894Y-39258534D01*
X150045018Y-39176217D01*
X150051008Y-39095401D01*
X150058144Y-39024104D01*
X150065703Y-38970346D01*
X150067781Y-38959608D01*
X150081892Y-38887058D01*
X150098542Y-38791084D01*
X150117115Y-38675873D01*
X150136994Y-38545613D01*
X150157564Y-38404489D01*
X150178208Y-38256688D01*
X150198311Y-38106398D01*
X150217256Y-37957805D01*
X150227238Y-37875984D01*
X150238727Y-37784222D01*
X150253292Y-37674107D01*
X150269684Y-37554738D01*
X150286653Y-37435215D01*
X150302948Y-37324636D01*
X150303619Y-37320186D01*
X150328165Y-37144666D01*
X150352088Y-36948906D01*
X150374659Y-36740458D01*
X150395148Y-36526871D01*
X150412826Y-36315695D01*
X150426961Y-36114482D01*
X150435898Y-35951531D01*
X150445082Y-35747743D01*
X150452662Y-35569084D01*
X150458695Y-35412946D01*
X150463239Y-35276717D01*
X150466351Y-35157788D01*
X150468089Y-35053549D01*
X150468510Y-34961390D01*
X150467671Y-34878701D01*
X150465630Y-34802870D01*
X150462669Y-34735550D01*
X150458753Y-34653919D01*
X150454222Y-34547400D01*
X150449067Y-34415698D01*
X150443278Y-34258516D01*
X150436844Y-34075558D01*
X150429756Y-33866526D01*
X150422003Y-33631125D01*
X150413575Y-33369058D01*
X150404463Y-33080027D01*
X150394655Y-32763737D01*
X150386750Y-32505580D01*
X150382216Y-32363932D01*
X150377437Y-32227581D01*
X150372552Y-32099667D01*
X150367698Y-31983328D01*
X150363015Y-31881704D01*
X150358640Y-31797934D01*
X150354713Y-31735155D01*
X150351372Y-31696508D01*
X150350894Y-31692724D01*
X150343448Y-31632497D01*
X150335196Y-31556577D01*
X150327408Y-31476983D01*
X150323755Y-31435667D01*
X150298173Y-31186591D01*
X150264149Y-30953138D01*
X150219879Y-30723945D01*
X150190374Y-30595022D01*
X150171485Y-30522363D01*
X150147298Y-30437947D01*
X150119731Y-30347653D01*
X150090701Y-30257360D01*
X150062125Y-30172949D01*
X150035920Y-30100301D01*
X150014003Y-30045294D01*
X150004307Y-30024365D01*
X149967485Y-29963544D01*
X149916780Y-29895373D01*
X149857028Y-29824960D01*
X149793067Y-29757414D01*
X149729734Y-29697843D01*
X149671867Y-29651355D01*
X149624302Y-29623060D01*
X149624283Y-29623051D01*
X149534670Y-29597934D01*
X149447800Y-29600320D01*
X149364139Y-29630019D01*
X149284155Y-29686836D01*
X149208314Y-29770580D01*
X149183916Y-29804621D01*
X149089244Y-29965890D01*
X149011583Y-30143411D01*
X148953595Y-30329637D01*
X148917945Y-30517020D01*
X148911698Y-30575891D01*
X148910648Y-30604174D01*
X148909940Y-30659896D01*
X148909571Y-30742708D01*
X148909539Y-30852261D01*
X148909841Y-30988205D01*
X148910475Y-31150192D01*
X148911438Y-31337873D01*
X148912728Y-31550898D01*
X148914343Y-31788919D01*
X148916280Y-32051586D01*
X148918537Y-32338551D01*
X148921111Y-32649465D01*
X148923999Y-32983978D01*
X148927200Y-33341742D01*
X148930711Y-33722407D01*
X148934530Y-34125624D01*
X148938654Y-34551045D01*
X148941135Y-34802846D01*
X148942459Y-34940467D01*
X148943366Y-35052991D01*
X148943749Y-35143113D01*
X148943503Y-35213524D01*
X148942521Y-35266916D01*
X148940697Y-35305981D01*
X148937923Y-35333414D01*
X148934095Y-35351905D01*
X148929105Y-35364147D01*
X148922847Y-35372832D01*
X148918436Y-35377461D01*
X148880086Y-35398576D01*
X148834331Y-35393503D01*
X148782188Y-35362536D01*
X148743846Y-35327091D01*
X148709846Y-35288725D01*
X148692008Y-35258208D01*
X148685412Y-35225280D01*
X148684792Y-35203909D01*
X148681941Y-35150422D01*
X148674817Y-35091442D01*
X148671918Y-35074571D01*
X148666095Y-35039636D01*
X148657529Y-34982696D01*
X148647015Y-34909312D01*
X148635349Y-34825042D01*
X148623326Y-34735446D01*
X148622446Y-34728774D01*
X148599171Y-34557380D01*
X148577424Y-34409846D01*
X148556387Y-34282340D01*
X148535240Y-34171030D01*
X148513165Y-34072086D01*
X148489345Y-33981676D01*
X148462959Y-33895968D01*
X148433191Y-33811133D01*
X148417624Y-33770022D01*
X148392241Y-33700633D01*
X148363956Y-33617489D01*
X148337141Y-33533654D01*
X148324643Y-33492122D01*
X148298594Y-33412483D01*
X148264636Y-33321884D01*
X148228007Y-33233850D01*
X148206228Y-33186433D01*
X148148574Y-33067234D01*
X148101309Y-32970295D01*
X148062911Y-32892765D01*
X148031857Y-32831798D01*
X148006626Y-32784543D01*
X147985695Y-32748151D01*
X147967544Y-32719775D01*
X147950649Y-32696564D01*
X147933489Y-32675670D01*
X147933184Y-32675316D01*
X147880564Y-32620500D01*
X147829362Y-32583548D01*
X147772203Y-32561457D01*
X147701713Y-32551225D01*
X147624444Y-32549626D01*
X147565500Y-32551173D01*
X147517474Y-32553982D01*
X147486823Y-32557593D01*
X147479400Y-32560005D01*
X147480133Y-32576258D01*
X147491387Y-32608603D01*
X147503139Y-32634413D01*
X147542489Y-32717438D01*
X147579043Y-32800775D01*
X147610443Y-32878518D01*
X147634326Y-32944758D01*
X147648332Y-32993585D01*
X147649906Y-33001721D01*
X147655772Y-33029137D01*
X147667923Y-33079800D01*
X147685448Y-33150116D01*
X147707433Y-33236489D01*
X147732966Y-33335327D01*
X147761133Y-33443034D01*
X147783276Y-33526860D01*
X147827638Y-33697314D01*
X147863987Y-33844690D01*
X147892945Y-33972322D01*
X147915134Y-34083547D01*
X147931178Y-34181700D01*
X147941699Y-34270117D01*
X147947318Y-34352133D01*
X147948698Y-34413375D01*
X147950679Y-34474729D01*
X147955552Y-34533679D01*
X147962275Y-34577687D01*
X147962448Y-34578446D01*
X147976028Y-34653747D01*
X147987763Y-34754247D01*
X147997687Y-34880464D01*
X148005836Y-35032918D01*
X148012244Y-35212128D01*
X148016532Y-35395733D01*
X148024781Y-35840372D01*
X148087934Y-35840748D01*
X148148377Y-35850365D01*
X148216825Y-35875175D01*
X148282355Y-35910057D01*
X148334043Y-35949888D01*
X148344305Y-35960942D01*
X148369493Y-36004629D01*
X148390145Y-36065899D01*
X148403442Y-36134601D01*
X148406893Y-36186207D01*
X148401108Y-36242452D01*
X148385540Y-36314305D01*
X148362864Y-36392534D01*
X148335758Y-36467907D01*
X148306898Y-36531191D01*
X148306833Y-36531313D01*
X148251835Y-36612515D01*
X148196123Y-36665901D01*
X148130576Y-36715755D01*
X148127569Y-36882494D01*
X148127008Y-36929696D01*
X148126550Y-37001227D01*
X148126201Y-37093624D01*
X148125966Y-37203426D01*
X148125849Y-37327171D01*
X148125855Y-37461399D01*
X148125990Y-37602647D01*
X148126258Y-37747454D01*
X148126299Y-37764825D01*
X148126493Y-37951246D01*
X148126071Y-38112454D01*
X148124981Y-38251019D01*
X148123172Y-38369509D01*
X148120592Y-38470497D01*
X148117189Y-38556552D01*
X148112912Y-38630245D01*
X148107711Y-38694145D01*
X148107673Y-38694545D01*
X148097291Y-38810173D01*
X148090705Y-38902468D01*
X148088035Y-38975644D01*
X148089398Y-39033915D01*
X148094915Y-39081494D01*
X148104705Y-39122595D01*
X148118887Y-39161431D01*
X148121037Y-39166479D01*
X148138739Y-39212528D01*
X148160355Y-39276222D01*
X148182850Y-39348299D01*
X148199003Y-39404211D01*
X148218948Y-39479532D01*
X148231391Y-39537610D01*
X148237587Y-39587577D01*
X148238792Y-39638567D01*
X148237220Y-39682111D01*
X148222182Y-39795905D01*
X148189222Y-39889450D01*
X148137574Y-39964358D01*
X148079734Y-40013690D01*
X148036822Y-40040393D01*
X148004156Y-40052788D01*
X147970528Y-40054231D01*
X147951412Y-40052109D01*
X147871158Y-40031390D01*
X147790399Y-39993528D01*
X147715946Y-39943231D01*
X147654609Y-39885207D01*
X147613196Y-39824164D01*
X147609368Y-39815625D01*
X147596878Y-39778631D01*
X147582291Y-39724954D01*
X147568466Y-39665255D01*
X147566569Y-39656118D01*
X147545011Y-39550420D01*
X147758188Y-39550420D01*
X147759171Y-39620272D01*
X147784018Y-39695270D01*
X147790562Y-39708902D01*
X147832543Y-39770399D01*
X147883327Y-39806606D01*
X147940650Y-39816799D01*
X148002249Y-39800252D01*
X148028689Y-39785260D01*
X148060732Y-39751784D01*
X148086669Y-39702986D01*
X148100378Y-39651332D01*
X148101192Y-39637618D01*
X148094833Y-39606739D01*
X148078525Y-39561915D01*
X148056402Y-39512096D01*
X148032598Y-39466229D01*
X148011248Y-39433264D01*
X148002665Y-39424326D01*
X147977150Y-39411025D01*
X147938356Y-39396613D01*
X147927977Y-39393438D01*
X147875848Y-39386839D01*
X147834216Y-39402561D01*
X147799434Y-39442709D01*
X147780760Y-39478463D01*
X147758188Y-39550420D01*
X147545011Y-39550420D01*
X147543826Y-39544611D01*
X147586714Y-39384986D01*
X147610792Y-39301230D01*
X147640156Y-39207681D01*
X147670192Y-39118740D01*
X147685492Y-39076565D01*
X147714904Y-38992665D01*
X147734463Y-38920525D01*
X147747163Y-38847262D01*
X147754280Y-38780515D01*
X147762425Y-38698742D01*
X147773262Y-38605042D01*
X147784953Y-38514905D01*
X147789887Y-38480415D01*
X147797460Y-38423335D01*
X147802809Y-38366214D01*
X147806078Y-38303896D01*
X147807410Y-38231224D01*
X147806949Y-38143041D01*
X147804840Y-38034191D01*
X147803657Y-37987144D01*
X147797870Y-37772366D01*
X147792461Y-37583792D01*
X147787360Y-37419838D01*
X147782502Y-37278923D01*
X147777817Y-37159464D01*
X147773239Y-37059878D01*
X147768700Y-36978582D01*
X147764131Y-36913994D01*
X147759466Y-36864531D01*
X147754636Y-36828611D01*
X147753917Y-36824426D01*
X147736187Y-36724672D01*
X147649758Y-36682123D01*
X147553918Y-36622780D01*
X147480177Y-36548661D01*
X147425595Y-36456324D01*
X147400704Y-36390380D01*
X147377076Y-36296237D01*
X147375477Y-36283432D01*
X147649645Y-36283432D01*
X147660756Y-36326707D01*
X147694250Y-36371534D01*
X147736119Y-36409628D01*
X147780227Y-36443894D01*
X147813749Y-36462999D01*
X147846054Y-36471129D01*
X147877006Y-36472541D01*
X147943183Y-36463216D01*
X147987378Y-36444464D01*
X148028381Y-36406429D01*
X148062247Y-36351626D01*
X148083129Y-36291045D01*
X148086991Y-36257221D01*
X148075759Y-36219246D01*
X148046001Y-36176493D01*
X148004320Y-36136044D01*
X147957323Y-36104982D01*
X147936778Y-36096153D01*
X147878460Y-36089248D01*
X147814301Y-36102831D01*
X147751885Y-36133057D01*
X147698793Y-36176082D01*
X147662609Y-36228059D01*
X147658846Y-36237082D01*
X147649645Y-36283432D01*
X147375477Y-36283432D01*
X147365843Y-36206308D01*
X147367473Y-36127563D01*
X147379549Y-36074017D01*
X147416932Y-36011305D01*
X147474171Y-35958659D01*
X147543797Y-35921079D01*
X147618341Y-35903564D01*
X147635168Y-35902899D01*
X147698249Y-35902899D01*
X147698046Y-35760476D01*
X147695410Y-35627855D01*
X147688160Y-35473384D01*
X147676770Y-35302534D01*
X147661716Y-35120773D01*
X147643470Y-34933572D01*
X147622508Y-34746401D01*
X147599303Y-34564730D01*
X147586543Y-34474488D01*
X147568066Y-34351942D01*
X147547596Y-34222271D01*
X147525697Y-34088572D01*
X147502935Y-33953943D01*
X147479873Y-33821482D01*
X147457079Y-33694285D01*
X147435115Y-33575452D01*
X147414547Y-33468079D01*
X147395941Y-33375263D01*
X147379860Y-33300103D01*
X147366871Y-33245695D01*
X147357537Y-33215138D01*
X147356400Y-33212628D01*
X147345990Y-33187218D01*
X147328725Y-33139676D01*
X147306108Y-33074377D01*
X147279639Y-32995691D01*
X147250819Y-32907994D01*
X147234768Y-32858306D01*
X147206028Y-32769475D01*
X147179586Y-32689042D01*
X147156770Y-32620946D01*
X147138908Y-32569121D01*
X147127329Y-32537505D01*
X147123964Y-32529896D01*
X147104070Y-32518686D01*
X147068576Y-32512791D01*
X147059036Y-32512527D01*
X147018964Y-32516453D01*
X146984968Y-32530047D01*
X146955506Y-32556031D01*
X146929033Y-32597129D01*
X146904005Y-32656061D01*
X146878878Y-32735553D01*
X146852108Y-32838325D01*
X146836184Y-32905502D01*
X146815220Y-33001551D01*
X146802290Y-33077252D01*
X146797150Y-33138785D01*
X146799555Y-33192330D01*
X146809263Y-33244069D01*
X146821174Y-33285361D01*
X146834903Y-33334375D01*
X146850870Y-33400604D01*
X146866706Y-33473859D01*
X146875713Y-33519912D01*
X146889543Y-33597253D01*
X146901312Y-33670993D01*
X146911178Y-33744147D01*
X146919302Y-33819730D01*
X146925843Y-33900756D01*
X146930960Y-33990239D01*
X146934812Y-34091195D01*
X146937560Y-34206637D01*
X146939361Y-34339581D01*
X146940377Y-34493040D01*
X146940765Y-34670030D01*
X146940780Y-34750516D01*
X146940688Y-34912353D01*
X146940450Y-35048722D01*
X146939990Y-35161944D01*
X146939232Y-35254342D01*
X146938099Y-35328236D01*
X146936516Y-35385949D01*
X146934406Y-35429802D01*
X146931693Y-35462117D01*
X146928302Y-35485216D01*
X146924157Y-35501420D01*
X146919180Y-35513050D01*
X146915591Y-35519063D01*
X146890769Y-35545323D01*
X146867148Y-35552721D01*
X146862250Y-35550123D01*
X146858032Y-35542980D01*
X146854414Y-35529235D01*
X146851321Y-35506830D01*
X146848675Y-35473706D01*
X146846397Y-35427807D01*
X146844412Y-35367074D01*
X146842641Y-35289449D01*
X146841007Y-35192876D01*
X146839432Y-35075295D01*
X146837840Y-34934650D01*
X146836152Y-34768883D01*
X146835623Y-34714699D01*
X146833787Y-34533772D01*
X146831951Y-34377816D01*
X146829967Y-34244011D01*
X146827690Y-34129537D01*
X146824972Y-34031576D01*
X146821665Y-33947308D01*
X146817623Y-33873914D01*
X146812698Y-33808575D01*
X146806744Y-33748471D01*
X146799613Y-33690784D01*
X146791159Y-33632693D01*
X146781234Y-33571380D01*
X146773647Y-33526860D01*
X146762759Y-33467018D01*
X146751488Y-33414498D01*
X146738060Y-33363548D01*
X146720698Y-33308418D01*
X146697628Y-33243358D01*
X146667074Y-33162617D01*
X146638514Y-33089168D01*
X146608479Y-33011783D01*
X146579142Y-32935110D01*
X146553417Y-32866833D01*
X146534217Y-32814641D01*
X146530536Y-32804321D01*
X146511650Y-32755115D01*
X146493326Y-32714472D01*
X146480132Y-32692068D01*
X146464398Y-32660633D01*
X146461597Y-32643043D01*
X146454125Y-32609198D01*
X146434449Y-32560600D01*
X146406679Y-32504992D01*
X146374928Y-32450120D01*
X146343305Y-32403725D01*
X146320845Y-32377903D01*
X146282972Y-32346979D01*
X146245071Y-32323390D01*
X146234899Y-32318850D01*
X146198403Y-32309539D01*
X146156607Y-32304976D01*
X146118348Y-32305267D01*
X146092461Y-32310515D01*
X146086433Y-32317089D01*
X144915622Y-32317089D01*
X144918961Y-32216429D01*
X144933109Y-31889603D01*
X144950788Y-31556917D01*
X144961079Y-31387035D01*
X144967011Y-31292179D01*
X144973836Y-31181664D01*
X144980814Y-31067572D01*
X144987202Y-30961985D01*
X144988793Y-30935448D01*
X145035708Y-30337602D01*
X145105406Y-29729332D01*
X145197325Y-29115297D01*
X145231751Y-28916051D01*
X145255480Y-28785884D01*
X145281299Y-28649184D01*
X145308242Y-28510710D01*
X145335342Y-28375217D01*
X145361632Y-28247462D01*
X145386147Y-28132202D01*
X145407919Y-28034195D01*
X145425982Y-27958195D01*
X145427972Y-27950321D01*
X145439801Y-27875616D01*
X145431349Y-27816254D01*
X145401030Y-27767020D01*
X145361823Y-27732755D01*
X145286083Y-27687541D01*
X145192735Y-27646508D01*
X145091959Y-27613476D01*
X144993933Y-27592269D01*
X144983763Y-27590823D01*
X144921875Y-27583699D01*
X144876535Y-27582424D01*
X144837013Y-27587542D01*
X144792577Y-27599597D01*
X144789052Y-27600699D01*
X144676525Y-27650347D01*
X144567367Y-27727219D01*
X144461719Y-27830942D01*
X144359722Y-27961138D01*
X144261519Y-28117431D01*
X144167250Y-28299446D01*
X144077058Y-28506806D01*
X143991084Y-28739134D01*
X143909470Y-28996055D01*
X143832358Y-29277193D01*
X143759888Y-29582171D01*
X143692204Y-29910613D01*
X143629446Y-30262144D01*
X143571757Y-30636386D01*
X143530548Y-30942396D01*
X143508635Y-31122043D01*
X143488618Y-31300953D01*
X143470171Y-31482993D01*
X143452969Y-31672025D01*
X143436686Y-31871916D01*
X143420997Y-32086528D01*
X143405574Y-32319728D01*
X143390093Y-32575379D01*
X143384124Y-32679267D01*
X143374032Y-32885817D01*
X143365754Y-33115181D01*
X143359368Y-33362437D01*
X143354954Y-33622663D01*
X143352591Y-33890937D01*
X143352359Y-34162338D01*
X143354337Y-34431942D01*
X143355010Y-34485612D01*
X143356983Y-34626498D01*
X143359016Y-34760892D01*
X143361054Y-34885855D01*
X143363042Y-34998450D01*
X143364926Y-35095739D01*
X143366650Y-35174783D01*
X143368160Y-35232644D01*
X143369400Y-35266384D01*
X143369660Y-35270678D01*
X143371869Y-35308233D01*
X143374725Y-35367107D01*
X143377941Y-35440841D01*
X143381230Y-35522981D01*
X143383219Y-35576367D01*
X143387018Y-35665869D01*
X143391841Y-35756199D01*
X143397186Y-35839213D01*
X143402554Y-35906766D01*
X143405151Y-35932751D01*
X143409360Y-35982912D01*
X143410074Y-36032811D01*
X143406653Y-36086130D01*
X143398461Y-36146549D01*
X143384857Y-36217748D01*
X143365205Y-36303409D01*
X143338866Y-36407212D01*
X143305202Y-36532838D01*
X143294001Y-36573791D01*
X143269735Y-36665547D01*
X143246476Y-36759512D01*
X143226027Y-36847962D01*
X143210191Y-36923177D01*
X143202487Y-36965864D01*
X143193388Y-37043619D01*
X143186753Y-37142719D01*
X143182637Y-37256826D01*
X143181091Y-37379600D01*
X143182172Y-37504701D01*
X143185931Y-37625790D01*
X143192424Y-37736528D01*
X143195619Y-37774579D01*
X143205578Y-37894673D01*
X143210767Y-37990509D01*
X143211140Y-38065214D01*
X143206651Y-38121914D01*
X143197255Y-38163737D01*
X143189589Y-38182309D01*
X143166171Y-38216709D01*
X143126065Y-38263615D01*
X143074294Y-38318186D01*
X143015886Y-38375585D01*
X142955865Y-38430974D01*
X142899256Y-38479513D01*
X142851085Y-38516364D01*
X142826609Y-38531796D01*
X142767831Y-38557422D01*
X142695667Y-38579803D01*
X142619356Y-38596934D01*
X142548141Y-38606806D01*
X142491261Y-38607412D01*
X142483269Y-38606383D01*
X142444217Y-38596192D01*
X142396942Y-38578333D01*
X142348431Y-38556233D01*
X142305676Y-38533318D01*
X142275664Y-38513017D01*
X142265317Y-38499513D01*
X142255119Y-38482707D01*
X142226584Y-38451104D01*
X142182807Y-38407601D01*
X142126880Y-38355096D01*
X142061894Y-38296487D01*
X141990944Y-38234673D01*
X141917120Y-38172550D01*
X141910995Y-38167499D01*
X141817763Y-38094607D01*
X141707309Y-38014472D01*
X141587300Y-37932218D01*
X141465402Y-37852972D01*
X141349281Y-37781855D01*
X141250985Y-37726324D01*
X140981917Y-37595337D01*
X140708202Y-37486600D01*
X140432035Y-37400454D01*
X140155609Y-37337243D01*
X139881116Y-37297309D01*
X139610751Y-37280996D01*
X139346706Y-37288646D01*
X139091175Y-37320602D01*
X138908456Y-37360202D01*
X138775747Y-37404764D01*
X138639096Y-37469073D01*
X138505617Y-37548673D01*
X138382424Y-37639111D01*
X138276630Y-37735932D01*
X138235709Y-37781455D01*
X138181177Y-37855466D01*
X138130173Y-37940654D01*
X138086226Y-38029646D01*
X138052865Y-38115072D01*
X138033618Y-38189560D01*
X138031106Y-38208866D01*
X138029106Y-38260342D01*
X136279082Y-38260342D01*
X136284381Y-38241347D01*
X136299142Y-38206151D01*
X136311138Y-38179702D01*
X136313200Y-38167828D01*
X136312919Y-38167779D01*
X136314350Y-38155877D01*
X136323745Y-38124483D01*
X136339145Y-38080058D01*
X136341366Y-38073988D01*
X136359249Y-38024056D01*
X136373367Y-37982191D01*
X136380747Y-37957216D01*
X136380841Y-37956782D01*
X136391316Y-37926519D01*
X136403475Y-37901202D01*
X136418112Y-37871790D01*
X136424477Y-37855142D01*
X136430034Y-37831106D01*
X136434570Y-37811015D01*
X136447287Y-37776875D01*
X136464770Y-37745014D01*
X136478415Y-37720373D01*
X136479609Y-37709292D01*
X136479173Y-37709245D01*
X136478174Y-37699054D01*
X136487503Y-37677981D01*
X136501010Y-37651922D01*
X136505943Y-37639770D01*
X136512703Y-37624262D01*
X136528204Y-37594230D01*
X136533643Y-37584190D01*
X136550773Y-37551763D01*
X136560567Y-37531042D01*
X136561343Y-37528610D01*
X136568191Y-37512490D01*
X136579783Y-37490399D01*
X136590113Y-37467316D01*
X136589538Y-37459135D01*
X136591687Y-37448728D01*
X136605669Y-37422229D01*
X136617013Y-37403556D01*
X136635876Y-37371283D01*
X136644690Y-37351232D01*
X136644031Y-37347976D01*
X136645833Y-37338163D01*
X136660410Y-37313829D01*
X136665645Y-37306291D01*
X136682700Y-37279513D01*
X136687828Y-37265300D01*
X136686766Y-37264606D01*
X136689281Y-37254372D01*
X136704536Y-37227830D01*
X136723863Y-37198605D01*
X136748638Y-37161835D01*
X136765489Y-37135001D01*
X136770182Y-37125656D01*
X136776850Y-37109798D01*
X136790700Y-37083971D01*
X136805335Y-37055176D01*
X136811050Y-37038306D01*
X136821243Y-37020946D01*
X136825438Y-37017463D01*
X136842334Y-36998578D01*
X136858008Y-36974382D01*
X136877334Y-36940001D01*
X136900802Y-36898182D01*
X136904822Y-36891012D01*
X136932417Y-36846697D01*
X136965456Y-36799938D01*
X136972990Y-36790177D01*
X136996842Y-36757934D01*
X137011166Y-36734566D01*
X137013020Y-36729081D01*
X137021174Y-36713396D01*
X137042209Y-36683925D01*
X137062582Y-36658132D01*
X137087859Y-36625553D01*
X137102179Y-36603595D01*
X137103193Y-36597647D01*
X137107056Y-36587978D01*
X137125812Y-36561884D01*
X137155923Y-36523740D01*
X137193849Y-36477919D01*
X137236052Y-36428797D01*
X137276288Y-36383708D01*
X137299701Y-36356194D01*
X137308966Y-36341290D01*
X137304814Y-36341012D01*
X137299344Y-36343195D01*
X137299831Y-36339745D01*
X137308104Y-36328582D01*
X137325990Y-36307628D01*
X137355320Y-36274803D01*
X137397921Y-36228028D01*
X137455623Y-36165225D01*
X137530253Y-36084314D01*
X137537388Y-36076586D01*
X137579468Y-36032074D01*
X137630105Y-35980176D01*
X137686378Y-35923699D01*
X137745367Y-35865452D01*
X137804154Y-35808240D01*
X137859817Y-35754871D01*
X137909438Y-35708154D01*
X137950096Y-35670894D01*
X137978871Y-35645899D01*
X137992844Y-35635977D01*
X137992632Y-35638895D01*
X137996860Y-35638785D01*
X138017913Y-35622632D01*
X138052263Y-35593314D01*
X138090538Y-35559046D01*
X138136720Y-35517917D01*
X138175792Y-35484891D01*
X138203015Y-35463867D01*
X138213006Y-35458308D01*
X138229203Y-35449975D01*
X138259356Y-35428339D01*
X138291357Y-35402680D01*
X138327590Y-35373590D01*
X138355495Y-35353471D01*
X138367737Y-35347100D01*
X138382553Y-35339007D01*
X138413074Y-35317503D01*
X138453480Y-35286749D01*
X138465964Y-35276893D01*
X138507780Y-35244473D01*
X138541016Y-35220297D01*
X138560017Y-35208425D01*
X138562066Y-35207865D01*
X138576994Y-35200940D01*
X138604888Y-35182181D01*
X138616067Y-35173860D01*
X138647357Y-35151889D01*
X138669666Y-35139610D01*
X138673468Y-35138676D01*
X138690653Y-35130920D01*
X138720038Y-35111514D01*
X138731210Y-35103231D01*
X138759502Y-35083383D01*
X138775972Y-35075180D01*
X138777680Y-35076109D01*
X138788010Y-35074014D01*
X138814505Y-35059657D01*
X138836963Y-35045552D01*
X138889598Y-35011218D01*
X138926673Y-34987804D01*
X138955777Y-34970852D01*
X138984499Y-34955905D01*
X139013895Y-34941632D01*
X139051234Y-34924058D01*
X139077093Y-34912470D01*
X139083370Y-34910052D01*
X139099244Y-34902641D01*
X139125055Y-34888458D01*
X139162359Y-34868441D01*
X139203214Y-34848570D01*
X139239061Y-34832769D01*
X139261342Y-34824962D01*
X139264004Y-34824746D01*
X139278642Y-34818201D01*
X139306563Y-34800439D01*
X139316110Y-34793775D01*
X139344178Y-34775859D01*
X139359989Y-34769781D01*
X139361269Y-34771111D01*
X139371129Y-34771259D01*
X139394959Y-34758524D01*
X139396006Y-34757842D01*
X139420222Y-34744367D01*
X139430731Y-34743260D01*
X139430744Y-34743482D01*
X139441093Y-34742252D01*
X139467074Y-34729156D01*
X139479376Y-34721827D01*
X139509248Y-34705420D01*
X139526400Y-34699978D01*
X139528009Y-34701449D01*
X139537864Y-34701729D01*
X139561683Y-34689059D01*
X139562746Y-34688367D01*
X139587008Y-34674408D01*
X139597474Y-34672227D01*
X139597483Y-34672380D01*
X139608894Y-34671241D01*
X139638186Y-34661032D01*
X139663485Y-34650612D01*
X139705549Y-34633192D01*
X139739243Y-34620588D01*
X139750328Y-34617212D01*
X139773847Y-34610133D01*
X139814043Y-34596610D01*
X139854540Y-34582314D01*
X139901533Y-34565824D01*
X139939892Y-34553156D01*
X139958753Y-34547708D01*
X139982288Y-34540824D01*
X140022512Y-34527515D01*
X140062965Y-34513405D01*
X140113543Y-34496641D01*
X140159024Y-34483726D01*
X140183769Y-34478450D01*
X140222850Y-34468180D01*
X140264734Y-34450723D01*
X140265195Y-34450486D01*
X140291636Y-34439340D01*
X140300258Y-34441415D01*
X140299032Y-34444166D01*
X140296936Y-34453826D01*
X140314787Y-34446751D01*
X140314871Y-34446706D01*
X140346383Y-34435005D01*
X140387697Y-34425407D01*
X140390694Y-34424914D01*
X140429639Y-34417712D01*
X140458283Y-34410663D01*
X140460169Y-34410029D01*
X140496967Y-34400166D01*
X140554711Y-34388621D01*
X140611816Y-34379040D01*
X140652880Y-34369896D01*
X140685444Y-34358188D01*
X140686441Y-34357672D01*
X140704339Y-34350627D01*
X140702297Y-34360292D01*
X140702133Y-34360558D01*
X140699568Y-34370180D01*
X140715717Y-34364356D01*
X140722556Y-34360782D01*
X140759335Y-34347237D01*
X140797181Y-34339818D01*
X140880624Y-34330868D01*
X140946714Y-34323049D01*
X140992160Y-34316781D01*
X141013674Y-34312484D01*
X141014588Y-34312064D01*
X141032171Y-34308205D01*
X141069421Y-34303343D01*
X141118270Y-34298227D01*
X141170651Y-34293608D01*
X141218498Y-34290234D01*
X141253741Y-34288855D01*
X141262518Y-34289031D01*
X141275354Y-34290243D01*
X141283816Y-34290135D01*
X141286041Y-34285664D01*
X141280166Y-34273786D01*
X141264325Y-34251458D01*
X141236656Y-34215634D01*
X141195294Y-34163271D01*
X141152084Y-34108681D01*
X140943615Y-33824733D01*
X140750054Y-33520390D01*
X140573387Y-33199864D01*
X140415602Y-32867363D01*
X140278688Y-32527098D01*
X140164631Y-32183279D01*
X140075419Y-31840115D01*
X140070494Y-31817779D01*
X140001334Y-31439097D01*
X139957653Y-31056230D01*
X139939475Y-30672076D01*
X139946823Y-30289528D01*
X139979722Y-29911485D01*
X140038196Y-29540841D01*
X140051160Y-29476477D01*
X140143927Y-29097698D01*
X140261964Y-28729580D01*
X140404494Y-28373142D01*
X140570737Y-28029400D01*
X140759917Y-27699373D01*
X140971256Y-27384076D01*
X141203975Y-27084529D01*
X141457297Y-26801748D01*
X141730443Y-26536751D01*
X142022637Y-26290555D01*
X142333100Y-26064177D01*
X142661055Y-25858636D01*
X142927806Y-25713786D01*
X143208939Y-25581939D01*
X143507473Y-25462387D01*
X143814586Y-25358236D01*
X144121452Y-25272591D01*
X144293982Y-25233011D01*
X144456043Y-25200228D01*
X144602275Y-25173782D01*
X144738854Y-25153065D01*
X144871957Y-25137471D01*
X145007760Y-25126393D01*
X145152439Y-25119222D01*
X145312171Y-25115353D01*
X145493131Y-25114177D01*
X145502845Y-25114178D01*
G37*
%TD*%
M02*
