%TF.GenerationSoftware,KiCad,Pcbnew,10.0.2*%
%TF.CreationDate,2026-09-16T19:35:23+02:00*%
%TF.ProjectId,PowerArm,506f7765-7241-4726-9d2e-6b696361645f,rev?*%
%TF.SameCoordinates,Original*%
%TF.FileFunction,Soldermask,Bot*%
%TF.FilePolarity,Negative*%
%FSLAX46Y46*%
G04 Gerber Fmt 4.6, Leading zero omitted, Abs format (unit mm)*
G04 Created by KiCad (PCBNEW 10.0.2) date 2026-09-16 19:35:23*
%MOMM*%
%LPD*%
G01*
G04 APERTURE LIST*
G04 Aperture macros list*
%AMRoundRect*
0 Rectangle with rounded corners*
0 $1 Rounding radius*
0 $2 $3 $4 $5 $6 $7 $8 $9 X,Y pos of 4 corners*
0 Add a 4 corners polygon primitive as box body*
4,1,4,$2,$3,$4,$5,$6,$7,$8,$9,$2,$3,0*
0 Add four circle primitives for the rounded corners*
1,1,$1+$1,$2,$3*
1,1,$1+$1,$4,$5*
1,1,$1+$1,$6,$7*
1,1,$1+$1,$8,$9*
0 Add four rect primitives between the rounded corners*
20,1,$1+$1,$2,$3,$4,$5,0*
20,1,$1+$1,$4,$5,$6,$7,0*
20,1,$1+$1,$6,$7,$8,$9,0*
20,1,$1+$1,$8,$9,$2,$3,0*%
G04 Aperture macros list end*
%ADD10O,1.700000X1.950000*%
%ADD11RoundRect,0.250000X-0.600000X-0.725000X0.600000X-0.725000X0.600000X0.725000X-0.600000X0.725000X0*%
%ADD12C,1.200000*%
%ADD13C,1.000000*%
%ADD14R,1.700000X1.700000*%
%ADD15O,1.700000X1.700000*%
%ADD16R,1.600000X1.600000*%
%ADD17C,1.600000*%
%ADD18C,2.300000*%
%ADD19C,1.900000*%
%ADD20C,1.800000*%
%ADD21C,0.650000*%
%ADD22O,2.304000X1.204000*%
%ADD23O,2.004000X1.204000*%
G04 APERTURE END LIST*
D10*
%TO.C,J3*%
X130100000Y-54875000D03*
X127600000Y-54875000D03*
X125100000Y-54875000D03*
D11*
X122600000Y-54875000D03*
D12*
X121000000Y-56875000D03*
%TD*%
D13*
%TO.C,REF\u002A\u002A*%
X121000000Y-25000000D03*
%TD*%
%TO.C,REF\u002A\u002A*%
X169000000Y-25000000D03*
%TD*%
%TO.C,REF\u002A\u002A*%
X144000000Y-99000000D03*
%TD*%
D14*
%TO.C,J6*%
X168425000Y-57850001D03*
D15*
X168425000Y-60390001D03*
X168425000Y-62930001D03*
X168425000Y-65470001D03*
X168425000Y-68010001D03*
X168425000Y-70550001D03*
%TD*%
D13*
%TO.C,REF\u002A\u002A*%
X112875000Y-24975000D03*
%TD*%
%TO.C,REF\u002A\u002A*%
X168000000Y-91000000D03*
%TD*%
%TO.C,REF\u002A\u002A*%
X140000000Y-99000000D03*
%TD*%
%TO.C,REF\u002A\u002A*%
X113000000Y-40000000D03*
%TD*%
D16*
%TO.C,U5*%
X151735000Y-79450000D03*
D17*
X149195000Y-79450000D03*
X146655000Y-79450000D03*
X144115000Y-79450000D03*
%TD*%
D13*
%TO.C,REF\u002A\u002A*%
X131000000Y-25000000D03*
%TD*%
%TO.C,REF\u002A\u002A*%
X169000000Y-29000000D03*
%TD*%
D18*
%TO.C,J4*%
X131635007Y-92110007D03*
D19*
X127825000Y-88300000D03*
X131635007Y-88300000D03*
D20*
X127825000Y-81314986D03*
D18*
X131635007Y-84489992D03*
X123379991Y-84489992D03*
X118299981Y-92110007D03*
D19*
X121474987Y-96555016D03*
%TD*%
D13*
%TO.C,REF\u002A\u002A*%
X113000000Y-48000000D03*
%TD*%
%TO.C,REF\u002A\u002A*%
X113000000Y-44000000D03*
%TD*%
%TO.C,REF\u002A\u002A*%
X113000000Y-71000000D03*
%TD*%
%TO.C,REF\u002A\u002A*%
X168000000Y-99000000D03*
%TD*%
D21*
%TO.C,J2*%
X117647500Y-61125000D03*
X117647500Y-66905000D03*
D22*
X118147500Y-59695000D03*
D23*
X113967500Y-59695000D03*
D22*
X118147500Y-68335000D03*
D23*
X113967500Y-68335000D03*
%TD*%
D21*
%TO.C,J5*%
X117420000Y-29690000D03*
X117420000Y-35470000D03*
D22*
X117920000Y-28260000D03*
D23*
X113740000Y-28260000D03*
D22*
X117920000Y-36900000D03*
D23*
X113740000Y-36900000D03*
%TD*%
D13*
%TO.C,REF\u002A\u002A*%
X168000000Y-95000000D03*
%TD*%
M02*
