%TF.GenerationSoftware,KiCad,Pcbnew,10.0.2*%
%TF.CreationDate,2026-09-30T17:53:20+02:00*%
%TF.ProjectId,HandFPC,48616e64-4650-4432-9e6b-696361645f70,rev?*%
%TF.SameCoordinates,Original*%
%TF.FileFunction,Drillmap*%
%TF.FilePolarity,Positive*%
%FSLAX45Y45*%
G04 Gerber Fmt 4.5, Leading zero omitted, Abs format (unit mm)*
G04 Created by KiCad (PCBNEW 10.0.2) date 2026-09-30 17:53:20*
%MOMM*%
%LPD*%
G01*
G04 APERTURE LIST*
%ADD10C,0.200000*%
%ADD11C,0.100000*%
G04 APERTURE END LIST*
D10*
X2764723Y-11797657D02*
X2789090Y-11209546D01*
X2789090Y-11209546D02*
X2878135Y-10684559D01*
X2801089Y-12440092D02*
X2764723Y-11797657D01*
X2878135Y-10684559D02*
X2948145Y-10448489D01*
X2894242Y-13128047D02*
X2801089Y-12440092D01*
X2948145Y-10448489D02*
X3035804Y-10285000D01*
X3035804Y-10285000D02*
X3149155Y-10177033D01*
X3040236Y-13852720D02*
X2894242Y-13128047D01*
X3149155Y-10177033D02*
X3469463Y-10058314D01*
X3235125Y-14605309D02*
X3040236Y-13852720D01*
X3469463Y-10058314D02*
X3760156Y-10006617D01*
X3474963Y-15377011D02*
X3235125Y-14605309D01*
X3755804Y-16159024D02*
X3474963Y-15377011D01*
X3760156Y-10006617D02*
X4021235Y-10021944D01*
X4021235Y-10021944D02*
X4252698Y-10104294D01*
X4073702Y-16942546D02*
X3755804Y-16159024D01*
X4252698Y-10104294D02*
X4454547Y-10253668D01*
X4424712Y-17718774D02*
X4073702Y-16942546D01*
X4454547Y-10253668D02*
X4626781Y-10470064D01*
X4626781Y-10470064D02*
X4769400Y-10753484D01*
X4715815Y-12915122D02*
G75*
G02*
X4711917Y-12850192I92445J38132D01*
G01*
X4715815Y-12915122D02*
X4739818Y-13019706D01*
X4724700Y-12729660D02*
X4711916Y-12850192D01*
X4724700Y-12729660D02*
G75*
G02*
X4739523Y-12672763I99910J4350D01*
G01*
X4764799Y-13080120D02*
G75*
G02*
X4739817Y-13019706I74841J66320D01*
G01*
X4769400Y-10753484D02*
X4882404Y-11103926D01*
X4804887Y-18478905D02*
X4424712Y-17718774D01*
X4825017Y-12472812D02*
X4739523Y-12672763D01*
X4825017Y-12472812D02*
G75*
G02*
X4847258Y-12433737I95793J-28658D01*
G01*
X4828253Y-13181646D02*
X4764799Y-13080120D01*
X4867061Y-13226817D02*
G75*
G02*
X4828254Y-13181646I53009J84797D01*
G01*
X4867061Y-13226817D02*
X5029839Y-13366688D01*
X4882404Y-11103926D02*
X4987009Y-11675441D01*
X4885858Y-9137009D02*
X4899862Y-8889689D01*
X4899862Y-8889689D02*
X4942240Y-8724086D01*
X4933628Y-9839226D02*
X4885858Y-9137009D01*
X4942240Y-8724086D02*
X5225833Y-8406289D01*
X4987009Y-11675441D02*
X5030911Y-12182271D01*
X5030911Y-12182271D02*
X4847257Y-12433736D01*
X5066862Y-10755585D02*
X4933628Y-9839226D01*
X5067677Y-13392278D02*
G75*
G02*
X5029839Y-13366688I35633J93458D01*
G01*
X5210282Y-19214138D02*
X4804887Y-18478905D01*
X5225833Y-8406289D02*
X5437120Y-8258041D01*
X5266875Y-11810935D02*
X5066862Y-10755585D01*
X5341261Y-13534509D02*
X5067677Y-13392278D01*
X5341261Y-13534509D02*
X5585108Y-13977866D01*
X5437120Y-8258041D02*
X5586493Y-8208683D01*
X5514980Y-12930125D02*
X5266875Y-11810935D01*
X5585108Y-13977866D02*
X5773534Y-14443391D01*
X5586493Y-8208683D02*
X5728073Y-8212320D01*
X5636950Y-19915670D02*
X5210282Y-19214138D01*
X5728073Y-8212320D02*
X5861859Y-8268952D01*
X5773534Y-14443391D02*
X5906541Y-14931084D01*
X5792490Y-14038004D02*
X5514980Y-12930125D01*
X5836280Y-16312548D02*
G75*
G02*
X5836034Y-16276245I98210J18818D01*
G01*
X5861859Y-8268952D02*
X6028118Y-8426898D01*
X5869044Y-15886468D02*
X5836034Y-16276245D01*
X5869044Y-15886468D02*
G75*
G02*
X5875000Y-15852178I99976J298D01*
G01*
X5874316Y-16699241D02*
X5836280Y-16312548D01*
X5880928Y-16734132D02*
G75*
G02*
X5874316Y-16699241I93352J35762D01*
G01*
X5880928Y-16734132D02*
X5990733Y-17121003D01*
X5906541Y-14931084D02*
X5984129Y-15440945D01*
X5984129Y-15440945D02*
X5874999Y-15852177D01*
X6002213Y-17151625D02*
G75*
G02*
X5990733Y-17121003I86617J49935D01*
G01*
X6002213Y-17151625D02*
X6185809Y-17540797D01*
X6028118Y-8426898D02*
X6180522Y-8679057D01*
X6080720Y-15059421D02*
X5792490Y-14038004D01*
X6080947Y-20574698D02*
X5636950Y-19915670D01*
X6180522Y-8679057D02*
X6351544Y-9126744D01*
X6199902Y-17565824D02*
G75*
G02*
X6185808Y-17540797I79178J61074D01*
G01*
X6199902Y-17565824D02*
X6459514Y-17957864D01*
X6272311Y-5177230D02*
X6334658Y-4783751D01*
X6273697Y-5626129D02*
X6272311Y-5177230D01*
X6334658Y-4783751D02*
X6460738Y-4445691D01*
X6338815Y-6130448D02*
X6273697Y-5626129D01*
X6338815Y-6130448D02*
X6492987Y-6265605D01*
X6338815Y-6928490D02*
X6498840Y-6761531D01*
X6351544Y-9126744D02*
X6383151Y-9233946D01*
X6360983Y-15919225D02*
X6080720Y-15059421D01*
X6383151Y-9233946D02*
X6433028Y-10209332D01*
X6395711Y-13388538D02*
G75*
G02*
X6395023Y-13371430I99129J12558D01*
G01*
X6395711Y-13388538D02*
X6510276Y-14763737D01*
X6397795Y-12298654D02*
X6395022Y-13371430D01*
X6397795Y-12298654D02*
G75*
G02*
X6397802Y-12296132I63125J1094D01*
G01*
X6427486Y-11229053D02*
X6397802Y-12296132D01*
X6433028Y-10209332D02*
X6427486Y-11229053D01*
X6460738Y-4445691D02*
X6597122Y-4228515D01*
X6474244Y-17977393D02*
G75*
G02*
X6459514Y-17957863I71866J69523D01*
G01*
X6474244Y-17977393D02*
X6811523Y-18371771D01*
X6492987Y-6265605D02*
G75*
G02*
X6537687Y-6322493I-50957J-86045D01*
G01*
X6502526Y-16146750D02*
X6360983Y-15919225D01*
X6514248Y-14790050D02*
G75*
G02*
X6510276Y-14763737I96012J27950D01*
G01*
X6514248Y-14790050D02*
X6610517Y-15227603D01*
X6534307Y-6710335D02*
G75*
G02*
X6498838Y-6761529I-95837J28515D01*
G01*
X6538325Y-21182420D02*
X6080947Y-20574698D01*
X6573447Y-6391039D02*
X6537684Y-6322494D01*
X6573447Y-6391039D02*
G75*
G02*
X6595481Y-6480892I-75087J-66041D01*
G01*
X6576273Y-6622906D02*
X6534307Y-6710335D01*
X6595477Y-6538518D02*
G75*
G02*
X6576274Y-6622908I-97507J-22192D01*
G01*
X6595477Y-6538518D02*
X6595477Y-6480891D01*
X6597122Y-4228515D02*
X6769356Y-4042513D01*
X6617587Y-15252137D02*
G75*
G02*
X6610517Y-15227603I91853J39757D01*
G01*
X6617587Y-15252137D02*
X6704779Y-15495087D01*
X6661344Y-16317996D02*
X6502526Y-16146750D01*
X6737836Y-9189611D02*
X6338815Y-6928490D01*
X6737836Y-9189611D02*
X6894046Y-9327013D01*
X6738253Y-21374618D02*
X6538325Y-21182420D01*
X6752297Y-15568924D02*
G75*
G02*
X6704778Y-15495087I51783J85534D01*
G01*
X6752297Y-15568924D02*
X6762587Y-15578936D01*
X6769356Y-4042513D02*
X6977439Y-3887684D01*
X6804340Y-9987654D02*
X6935911Y-9823583D01*
X6825629Y-18386646D02*
G75*
G02*
X6811523Y-18371771I65151J75906D01*
G01*
X6837586Y-15624380D02*
G75*
G02*
X6762589Y-15578935I9074J99580D01*
G01*
X6848675Y-12714300D02*
X7054816Y-12592513D01*
X6852865Y-16430759D02*
X6661344Y-16317996D01*
X6865043Y-15633413D02*
X6837586Y-15624380D01*
X6893011Y-12004929D02*
X6804340Y-9987654D01*
X6893011Y-12004929D02*
X6954449Y-12045415D01*
X6894046Y-9327013D02*
G75*
G02*
X6935480Y-9378050I-52596J-85037D01*
G01*
X6954449Y-12045415D02*
G75*
G02*
X6980231Y-12065632I-47979J-87735D01*
G01*
X6967623Y-9766988D02*
G75*
G02*
X6935911Y-9823584I-98373J17938D01*
G01*
X6967623Y-9766988D02*
X6998186Y-9682088D01*
X6977439Y-3887684D02*
X7310650Y-3729739D01*
X6979068Y-9455169D02*
X6935479Y-9378050D01*
X6979068Y-9455169D02*
G75*
G02*
X7003683Y-9535078I-74518J-66701D01*
G01*
X6998744Y-15626880D02*
G75*
G02*
X6865045Y-15633411I-70474J70941D01*
G01*
X7009063Y-9599666D02*
G75*
G02*
X6998187Y-9682088I-95593J-29314D01*
G01*
X7009063Y-9599666D02*
X7003681Y-9535077D01*
X7010137Y-15621855D02*
X6998744Y-15626880D01*
X7010137Y-15621855D02*
X7040558Y-15565832D01*
X7053479Y-15536701D02*
G75*
G02*
X7040558Y-15565833I-96709J25461D01*
G01*
X7060189Y-21605968D02*
X6738253Y-21374618D01*
X7092522Y-16482834D02*
X6852865Y-16430759D01*
X7092522Y-13988950D02*
X6848675Y-12714300D01*
X7108131Y-12546330D02*
G75*
G02*
X7054815Y-12592511I-87941J47660D01*
G01*
X7108131Y-12546330D02*
X7153156Y-12490279D01*
X7120157Y-12195260D02*
X6980232Y-12065631D01*
X7120157Y-12195260D02*
G75*
G02*
X7165751Y-12258745I-51957J-85430D01*
G01*
X7178963Y-12288167D02*
X7165751Y-12258745D01*
X7178963Y-12288167D02*
G75*
G02*
X7194467Y-12390349I-76883J-63933D01*
G01*
X7181193Y-14155209D02*
X7092522Y-13988950D01*
X7188092Y-16462257D02*
X7092522Y-16482834D01*
X7194135Y-12393043D02*
G75*
G02*
X7153155Y-12490277I-98766J-15627D01*
G01*
X7194135Y-12393043D02*
X7194463Y-12390348D01*
X7226637Y-18768250D02*
X6825629Y-18386646D01*
X7273629Y-18801427D02*
G75*
G02*
X7226637Y-18768250I31741J94827D01*
G01*
X7310650Y-3729739D02*
X7602382Y-3647648D01*
X7314201Y-14254965D02*
X7181193Y-14155209D01*
X7314201Y-14254965D02*
X7340642Y-14259922D01*
X7327283Y-16387875D02*
X7188092Y-16462257D01*
X7354926Y-14251668D02*
X7340642Y-14259922D01*
X7354926Y-14251668D02*
G75*
G02*
X7454994Y-14424832I50034J-86582D01*
G01*
X7408576Y-21768986D02*
X7060189Y-21605968D01*
X7440711Y-14433088D02*
X7053479Y-15536701D01*
X7454995Y-14424833D02*
X7440711Y-14433088D01*
X7455873Y-16260346D02*
X7327283Y-16387875D01*
X7548009Y-18940412D02*
X7273629Y-18801427D01*
X7567557Y-16078630D02*
X7455873Y-16260346D01*
X7595140Y-18957214D02*
G75*
G02*
X7548008Y-18940413I8930J99564D01*
G01*
X7595140Y-18957214D02*
X7797034Y-19001514D01*
X7602382Y-3647648D02*
X7909961Y-3748789D01*
X7679273Y-15750249D02*
X7567557Y-16078630D01*
X7679273Y-15750249D02*
X7706416Y-15660854D01*
X7706416Y-15660854D02*
G75*
G02*
X7757208Y-15577818I99934J-4076D01*
G01*
X7783415Y-21863669D02*
X7408576Y-21768986D01*
X7810902Y-15525987D02*
X7757206Y-15577815D01*
X7810902Y-15525987D02*
G75*
G02*
X7881690Y-15482273I83178J-55523D01*
G01*
X7854695Y-19005523D02*
G75*
G02*
X7797033Y-19001516I-22195J97503D01*
G01*
X7881690Y-15482274D02*
X7956421Y-15455950D01*
X7909961Y-3748789D02*
X8178747Y-3902578D01*
X7956421Y-15455950D02*
G75*
G02*
X8032105Y-15445089I50969J-86040D01*
G01*
X7976793Y-18996080D02*
X7854695Y-19005523D01*
X8032105Y-15445089D02*
X8143522Y-15451067D01*
X8041939Y-18979546D02*
G75*
G02*
X7976792Y-18996081I-55749J83046D01*
G01*
X8041939Y-18979546D02*
X8137221Y-18937006D01*
X8078894Y-16256129D02*
X8083698Y-15980696D01*
X8083698Y-15980696D02*
X8262912Y-15838890D01*
X8119458Y-16675250D02*
X8078894Y-16256129D01*
X8119458Y-16675250D02*
X8439562Y-18209182D01*
X8143522Y-15451067D02*
G75*
G02*
X8221016Y-15471671I15208J-98833D01*
G01*
X8178747Y-3902578D02*
X8408738Y-4109016D01*
X8184705Y-21890020D02*
X7783415Y-21863669D01*
X8198199Y-18894336D02*
G75*
G02*
X8137221Y-18937005I-83719J54736D01*
G01*
X8198199Y-18894336D02*
X8278190Y-18811774D01*
X8256850Y-15489699D02*
X8221016Y-15471671D01*
X8256850Y-15489699D02*
G75*
G02*
X8333658Y-15559750I-19150J-98131D01*
G01*
X8307431Y-15789297D02*
G75*
G02*
X8262912Y-15838890I-92421J38188D01*
G01*
X8307431Y-15789297D02*
X8333497Y-15747877D01*
X8315866Y-18756627D02*
G75*
G02*
X8278190Y-18811774I-96666J25597D01*
G01*
X8315866Y-18756627D02*
X8383022Y-18609849D01*
X8362574Y-15661960D02*
G75*
G02*
X8333497Y-15747877I-98954J-14390D01*
G01*
X8367023Y-15613197D02*
X8333658Y-15559750D01*
X8367023Y-15613197D02*
X8362574Y-15661960D01*
X8398107Y-18561097D02*
G75*
G02*
X8383022Y-18609849I-99917J4207D01*
G01*
X8408738Y-4109016D02*
X8599936Y-4368103D01*
X8438740Y-18325921D02*
X8398107Y-18561097D01*
X8439562Y-18209182D02*
G75*
G02*
X8443502Y-18259512I-94512J-32718D01*
G01*
X8441410Y-18301800D02*
G75*
G02*
X8438740Y-18325921I-99970J-1140D01*
G01*
X8441410Y-18301800D02*
X8443503Y-18259512D01*
X8599936Y-4368103D02*
X8752340Y-4679839D01*
X8602429Y-21855797D02*
X8184705Y-21890020D01*
X8602429Y-21855797D02*
X9630398Y-21662503D01*
X8682373Y-6260684D02*
X8683700Y-6223511D01*
X8682373Y-6260684D02*
X8746406Y-6346062D01*
X8683700Y-6223511D02*
G75*
G02*
X8721746Y-6115822I96420J26501D01*
G01*
X8721745Y-6115821D02*
X8736460Y-6096201D01*
X8736460Y-6096201D02*
G75*
G02*
X8789868Y-6047241I89690J-44229D01*
G01*
X8752340Y-4679839D02*
X8888291Y-5143545D01*
X8802952Y-6396900D02*
G75*
G02*
X8746408Y-6346061I33568J94200D01*
G01*
X8888291Y-5143545D02*
X8963627Y-5689515D01*
X8963627Y-5689515D02*
X8976789Y-5930937D01*
X8976789Y-5930937D02*
X8789869Y-6047243D01*
X8986365Y-6506167D02*
X8802952Y-6396900D01*
X9009551Y-6518004D02*
G75*
G02*
X8986365Y-6506167I33489J94224D01*
G01*
X9087628Y-6551637D02*
X9009551Y-6518004D01*
X9087628Y-6551637D02*
X9331475Y-9034436D01*
X9101137Y-9216282D02*
X9106275Y-9245395D01*
X9101137Y-9216282D02*
X9128076Y-9174553D01*
X9128076Y-9174553D02*
G75*
G02*
X9196005Y-9110644I94574J-32467D01*
G01*
X9159241Y-9347124D02*
G75*
G02*
X9106273Y-9245394I46189J88704D01*
G01*
X9159241Y-9347124D02*
X9227946Y-9415829D01*
X9263710Y-9444180D02*
G75*
G02*
X9227947Y-9415828I42610J90480D01*
G01*
X9309307Y-6130447D02*
X9435853Y-5935906D01*
X9317966Y-4432527D02*
X9353989Y-4027964D01*
X9331474Y-5132893D02*
X9317966Y-4432527D01*
X9331474Y-5132893D02*
X9457277Y-5294045D01*
X9331475Y-9034436D02*
X9196004Y-9110639D01*
X9353643Y-9499961D02*
X9263710Y-9444180D01*
X9353643Y-9499961D02*
X9708328Y-11495068D01*
X9353989Y-4027964D02*
X9426034Y-3673278D01*
X9426034Y-3673278D02*
X9534102Y-3368470D01*
X9456387Y-5894464D02*
G75*
G02*
X9435852Y-5935905I-97437J22474D01*
G01*
X9456387Y-5894464D02*
X9521433Y-5712523D01*
X9457277Y-5294045D02*
G75*
G02*
X9488894Y-5353001I-67257J-74025D01*
G01*
X9488897Y-5353001D02*
X9525530Y-5462901D01*
X9525530Y-5462901D02*
G75*
G02*
X9535591Y-5529591I-88060J-47389D01*
G01*
X9532908Y-5650446D02*
G75*
G02*
X9521433Y-5712523I-99028J-13794D01*
G01*
X9534102Y-3368470D02*
X9678193Y-3113540D01*
X9535594Y-5529592D02*
X9532908Y-5650446D01*
X9553153Y-8635415D02*
X9309307Y-6130447D01*
X9553153Y-8635415D02*
X9597865Y-8648321D01*
X9597865Y-8648321D02*
G75*
G02*
X9635090Y-8663275I-17905J-98379D01*
G01*
X9617268Y-11711003D02*
X9613483Y-11781664D01*
X9617268Y-11711003D02*
G75*
G02*
X9638273Y-11632724I98772J15453D01*
G01*
X9627282Y-11864912D02*
G75*
G02*
X9613480Y-11781663I82539J56452D01*
G01*
X9630398Y-21662503D02*
G75*
G02*
X9657917Y-21659286I25252J-96707D01*
G01*
X9635090Y-8663276D02*
X9750305Y-8723693D01*
X9641825Y-9233946D02*
X9776812Y-9113091D01*
X9678193Y-3113540D02*
X9858307Y-2908487D01*
X9681312Y-11999386D02*
X9627282Y-11864912D01*
X9681312Y-11999386D02*
X9699264Y-12021727D01*
X9708328Y-11495068D02*
X9638272Y-11632723D01*
X9750305Y-8723693D02*
G75*
G02*
X9817124Y-8781288I-25185J-96777D01*
G01*
X9820827Y-9055907D02*
G75*
G02*
X9776814Y-9113094I-95937J28307D01*
G01*
X9820827Y-9055907D02*
X9849648Y-8999371D01*
X9858307Y-2908487D02*
X10074444Y-2753313D01*
X9867202Y-8849821D02*
X9817126Y-8781288D01*
X9867202Y-8849821D02*
X9870318Y-8899735D01*
X9870318Y-8899735D02*
G75*
G02*
X9849650Y-8999372I-94618J-32335D01*
G01*
X9885671Y-11428564D02*
X9641825Y-9233946D01*
X9885671Y-11428564D02*
X9987576Y-11603655D01*
X9885896Y-12068661D02*
G75*
G02*
X9699264Y-12021727I-86676J49871D01*
G01*
X9885896Y-12068661D02*
X9908233Y-12059187D01*
X9980454Y-12006151D02*
G75*
G02*
X9908233Y-12059187I-89034J45551D01*
G01*
X9980454Y-12006151D02*
X9998846Y-11984540D01*
X9987576Y-11603655D02*
G75*
G02*
X10006786Y-11648645I-79576J-60575D01*
G01*
X10042319Y-11890374D02*
G75*
G02*
X9998848Y-11984543I-99369J-11246D01*
G01*
X10042319Y-11890374D02*
X10047579Y-11857763D01*
X10042469Y-11772746D02*
X10006785Y-11648645D01*
X10042469Y-11772746D02*
G75*
G02*
X10047576Y-11857761I-87769J-47934D01*
G01*
X10044122Y-21641164D02*
X9657917Y-21659286D01*
X10044122Y-21641164D02*
G75*
G02*
X10075845Y-21642204I12629J-99136D01*
G01*
X10074444Y-2753313D02*
X10196021Y-2694429D01*
X10196021Y-2694429D02*
X11237911Y-2760933D01*
X10345577Y-21672677D02*
X10075844Y-21642205D01*
X10345577Y-21672677D02*
G75*
G02*
X10373535Y-21677875I-4127J-99973D01*
G01*
X10373535Y-21677875D02*
X11412000Y-21860000D01*
X11237911Y-2760933D02*
X11537387Y-3032237D01*
X11412000Y-21860000D02*
X11992500Y-22155000D01*
X11537387Y-3032237D02*
X11779382Y-3341650D01*
X11779382Y-3341650D02*
X11966408Y-3701370D01*
X11966408Y-3701370D02*
X12100975Y-4123595D01*
X11992500Y-22690000D02*
X11992500Y-22155000D01*
X12043786Y-5719273D02*
G75*
G02*
X12037106Y-5629106I85614J51673D01*
G01*
X12048879Y-5556386D02*
X12037102Y-5629105D01*
X12048879Y-5556386D02*
X12073424Y-5531009D01*
X12071394Y-5805897D02*
X12043786Y-5719273D01*
X12073424Y-5531009D02*
G75*
G02*
X12169736Y-5477161I88856J-45871D01*
G01*
X12100975Y-4123595D02*
X12196748Y-4729947D01*
X12104112Y-5867672D02*
G75*
G02*
X12071395Y-5805897I66428J74732D01*
G01*
X12104112Y-5867672D02*
X12195883Y-5984559D01*
X12104157Y-8348937D02*
X12127933Y-8417014D01*
X12104157Y-8348937D02*
X12128365Y-8290106D01*
X12128365Y-8290106D02*
G75*
G02*
X12190639Y-8209467I99255J-12284D01*
G01*
X12179299Y-8495428D02*
G75*
G02*
X12127933Y-8417014I48221J87618D01*
G01*
X12179299Y-8495428D02*
X12279887Y-8588567D01*
X12196748Y-4729947D02*
X12224937Y-5464950D01*
X12224867Y-6014425D02*
G75*
G02*
X12195883Y-5984559I55703J83055D01*
G01*
X12224937Y-5464950D02*
X12169736Y-5477157D01*
X12257632Y-6041775D02*
X12224867Y-6014425D01*
X12257632Y-6041775D02*
X12301968Y-8125554D01*
X12301968Y-8125554D02*
X12190640Y-8209471D01*
X12306015Y-8608999D02*
G75*
G02*
X12279888Y-8588567I47685J87899D01*
G01*
X12346304Y-8635415D02*
X12306015Y-8608999D01*
X12346304Y-8635415D02*
X12523646Y-11229053D01*
X12386628Y-5331961D02*
X12425725Y-4934208D01*
X12390639Y-5775760D02*
X12386628Y-5331961D01*
X12390639Y-5775760D02*
X12478104Y-5807564D01*
X12425725Y-4934208D02*
X12507927Y-4582500D01*
X12434176Y-11482258D02*
X12431385Y-11567598D01*
X12434176Y-11482258D02*
G75*
G02*
X12448457Y-11414816I98964J14278D01*
G01*
X12434975Y-6507300D02*
X12614783Y-6309707D01*
X12449506Y-11656165D02*
G75*
G02*
X12431384Y-11567598I78334J62165D01*
G01*
X12478104Y-5807564D02*
G75*
G02*
X12517123Y-5826817I-23684J-97166D01*
G01*
X12479311Y-8790589D02*
X12602627Y-8688469D01*
X12480428Y-11722481D02*
X12449506Y-11656165D01*
X12507927Y-4582500D02*
X12633236Y-4276837D01*
X12517864Y-11776711D02*
G75*
G02*
X12480430Y-11722480I58986J80751D01*
G01*
X12523646Y-8347232D02*
X12434975Y-6507300D01*
X12523646Y-8347232D02*
X12613420Y-8426948D01*
X12523646Y-11229053D02*
X12448456Y-11414815D01*
X12545815Y-11805417D02*
X12517864Y-11776711D01*
X12545815Y-11805417D02*
X12692315Y-11740784D01*
X12612349Y-5887594D02*
X12517122Y-5826818D01*
X12612349Y-5887594D02*
G75*
G02*
X12673743Y-5950164I-33449J-94226D01*
G01*
X12613420Y-8426948D02*
G75*
G02*
X12671569Y-8521916I-41770J-90862D01*
G01*
X12633236Y-4276837D02*
X12801651Y-4017220D01*
X12646750Y-6262308D02*
G75*
G02*
X12614783Y-6309707I-95410J29869D01*
G01*
X12646750Y-6262308D02*
X12692254Y-6167725D01*
X12656101Y-8618202D02*
G75*
G02*
X12602625Y-8688467I-98131J19202D01*
G01*
X12681741Y-8561073D02*
X12656101Y-8618202D01*
X12681741Y-8561073D02*
X12671569Y-8521916D01*
X12683044Y-5965372D02*
X12673740Y-5950165D01*
X12683044Y-5965372D02*
G75*
G02*
X12711366Y-6064363I-68264J-73078D01*
G01*
X12700989Y-11273389D02*
X12479311Y-8790589D01*
X12700989Y-11273389D02*
X12726470Y-11306966D01*
X12711364Y-6064362D02*
X12711507Y-6081660D01*
X12711507Y-6081660D02*
G75*
G02*
X12692255Y-6167726I-97217J-23440D01*
G01*
X12726470Y-11306966D02*
G75*
G02*
X12746510Y-11339416I-73500J-67804D01*
G01*
X12746509Y-11339416D02*
X12801662Y-11451501D01*
X12763514Y-11687031D02*
G75*
G02*
X12692315Y-11740784I-89524J44551D01*
G01*
X12763514Y-11687031D02*
X12777103Y-11670665D01*
X12801651Y-4017220D02*
X13013173Y-3803648D01*
X12801662Y-11451501D02*
G75*
G02*
X12821272Y-11547213I-75672J-65369D01*
G01*
X12820621Y-11559461D02*
G75*
G02*
X12777103Y-11670666I-96461J-26369D01*
G01*
X12820621Y-11559461D02*
X12821272Y-11547213D01*
X13013173Y-3803648D02*
X13267801Y-3636121D01*
X13259000Y-22689000D02*
X11992500Y-22690000D01*
X13259000Y-22689000D02*
X13260000Y-22176000D01*
X13267801Y-3636121D02*
X13565535Y-3514640D01*
X13565535Y-3514640D02*
X13856690Y-3533772D01*
X13782000Y-21673000D02*
X13260000Y-22176000D01*
X13782000Y-21673000D02*
X14409202Y-21477047D01*
X13856690Y-3533772D02*
X14114535Y-3623442D01*
X14114535Y-3623442D02*
X14339071Y-3783649D01*
X14339071Y-3783649D02*
X14530298Y-4014395D01*
X14530298Y-4014395D02*
X14688215Y-4315678D01*
X14647219Y-8858251D02*
X14640365Y-8899051D01*
X14647219Y-8858251D02*
X14722653Y-8782775D01*
X14655517Y-9011199D02*
G75*
G02*
X14640369Y-8899053I74123J67109D01*
G01*
X14655517Y-9011199D02*
X14677861Y-9059279D01*
X14683674Y-12108544D02*
X14680630Y-12170015D01*
X14683674Y-12108544D02*
X14723482Y-12061532D01*
X14688215Y-4315678D02*
X14838770Y-4791475D01*
X14700227Y-12264961D02*
G75*
G02*
X14680634Y-12170016I75873J65151D01*
G01*
X14719985Y-9118236D02*
G75*
G02*
X14677861Y-9059279I54765J83656D01*
G01*
X14719985Y-9118236D02*
X14872249Y-9264423D01*
X14722653Y-8782775D02*
G75*
G02*
X14785849Y-8740410I83087J-55625D01*
G01*
X14723482Y-12061532D02*
G75*
G02*
X14800928Y-12006217I89838J-43908D01*
G01*
X14743516Y-5840132D02*
X14760460Y-5902803D01*
X14743516Y-5840132D02*
X14772320Y-5787347D01*
X14749679Y-12365640D02*
X14700227Y-12264961D01*
X14772320Y-5787347D02*
G75*
G02*
X14842677Y-5714165I97290J-23123D01*
G01*
X14800045Y-12429689D02*
G75*
G02*
X14749678Y-12365640I46605J88479D01*
G01*
X14808339Y-5987028D02*
G75*
G02*
X14760461Y-5902803I52101J85338D01*
G01*
X14808339Y-5987028D02*
X14899073Y-6080647D01*
X14838770Y-4791475D02*
X14937279Y-5377488D01*
X14877251Y-12494011D02*
X14800045Y-12429689D01*
X14890571Y-9280005D02*
G75*
G02*
X14872249Y-9264423I55149J83405D01*
G01*
X14917774Y-9300449D02*
X14890571Y-9280005D01*
X14917774Y-9300449D02*
X14917774Y-11960592D01*
X14917774Y-11960592D02*
X14800928Y-12006216D01*
X14924104Y-6102494D02*
G75*
G02*
X14899073Y-6080647I52316J85204D01*
G01*
X14937279Y-5377488D02*
X14962109Y-5642753D01*
X14958869Y-12534285D02*
G75*
G02*
X14877251Y-12494011I-1409J99985D01*
G01*
X14962109Y-5642753D02*
X14842677Y-5714165D01*
X14962109Y-6130446D02*
X14924104Y-6102494D01*
X14962109Y-6130446D02*
X14984277Y-8657582D01*
X14984277Y-8657582D02*
X14785849Y-8740410D01*
X15015999Y-12547190D02*
X14958869Y-12534285D01*
X15015999Y-12547190D02*
X15025993Y-12540031D01*
X15072949Y-10187164D02*
X15245031Y-9995390D01*
X15095116Y-9256114D02*
X15139452Y-7527022D01*
X15095116Y-9256114D02*
X15253657Y-9423578D01*
X15096923Y-12441078D02*
G75*
G02*
X15025995Y-12540038I-99963J-3252D01*
G01*
X15096923Y-12441078D02*
X15111120Y-12394302D01*
X15112337Y-12019143D02*
X15072949Y-10187164D01*
X15112337Y-12019143D02*
X15119579Y-12332384D01*
X15119579Y-12332384D02*
G75*
G02*
X15111120Y-12394302I-98379J-18096D01*
G01*
X15139452Y-7527022D02*
X15301682Y-7451194D01*
X15154897Y-6761674D02*
X15157586Y-5649247D01*
X15154897Y-6761674D02*
X15211503Y-6827184D01*
X15157586Y-5649247D02*
X15329051Y-5317449D01*
X15211503Y-6827184D02*
G75*
G02*
X15223201Y-6842099I-72483J-68896D01*
G01*
X15223202Y-6842099D02*
X15378680Y-7060946D01*
X15253657Y-9423578D02*
G75*
G02*
X15291619Y-9481323I-59447J-80432D01*
G01*
X15277880Y-9945127D02*
G75*
G02*
X15245030Y-9995389I-96290J27067D01*
G01*
X15277880Y-9945127D02*
X15330085Y-9830210D01*
X15329051Y-5317449D02*
X15516190Y-5087539D01*
X15333996Y-9580102D02*
X15291623Y-9481322D01*
X15333996Y-9580102D02*
G75*
G02*
X15349768Y-9661792I-81427J-58088D01*
G01*
X15347576Y-9753824D02*
G75*
G02*
X15330084Y-9830209I-98426J-17656D01*
G01*
X15349767Y-9661792D02*
X15347576Y-9753824D01*
X15360478Y-7409010D02*
G75*
G02*
X15301682Y-7451193I-83738J54651D01*
G01*
X15378680Y-7060946D02*
G75*
G02*
X15405892Y-7115481I-71600J-69784D01*
G01*
X15384322Y-7384090D02*
X15360478Y-7409010D01*
X15429338Y-7189168D02*
X15405894Y-7115481D01*
X15429338Y-7189168D02*
G75*
G02*
X15434001Y-7288874I-84238J-53902D01*
G01*
X15433327Y-7291977D02*
G75*
G02*
X15384320Y-7384086I-99818J-5983D01*
G01*
X15433327Y-7291977D02*
X15434003Y-7288875D01*
X15516190Y-5087539D02*
X15692796Y-4969948D01*
X15692796Y-4969948D02*
X15881403Y-4930364D01*
X15881403Y-4930364D02*
X16161171Y-4929350D01*
X16114842Y-20982907D02*
X14409202Y-21477047D01*
X16161171Y-4929350D02*
X16362531Y-4985639D01*
X16321787Y-20917125D02*
X16114842Y-20982907D01*
X16362531Y-4985639D02*
X16577232Y-5119676D01*
X16502280Y-20789622D02*
X16321787Y-20917125D01*
X16577232Y-5119676D02*
X16765481Y-5311026D01*
X16656321Y-20600398D02*
X16502280Y-20789622D01*
X16708195Y-13247028D02*
G75*
G02*
X16702056Y-13180543I90785J41908D01*
G01*
X16708195Y-13247028D02*
X16735818Y-13349941D01*
X16710619Y-13071210D02*
X16702058Y-13180543D01*
X16710619Y-13071210D02*
G75*
G02*
X16727287Y-13005921I99581J9350D01*
G01*
X16765481Y-5311026D02*
X16980690Y-5627451D01*
X16767464Y-13415646D02*
G75*
G02*
X16735818Y-13349941I68066J73256D01*
G01*
X16767464Y-13415646D02*
X16831305Y-13502205D01*
X16770580Y-12909440D02*
X16727288Y-13005921D01*
X16770580Y-12909440D02*
G75*
G02*
X16813219Y-12848684I97320J-22960D01*
G01*
X16783911Y-20349453D02*
X16656321Y-20600398D01*
X16882087Y-13550174D02*
G75*
G02*
X16831304Y-13502205I38953J92104D01*
G01*
X16891034Y-12773408D02*
X16813217Y-12848681D01*
X16891034Y-12773408D02*
G75*
G02*
X16949440Y-12734363I81236J-58312D01*
G01*
X16912885Y-19918851D02*
X16783911Y-20349453D01*
X16913529Y-7304931D02*
X16924791Y-7355680D01*
X16913529Y-7304931D02*
X16947449Y-7227225D01*
X16930026Y-9789763D02*
G75*
G02*
X16959835Y-9680207I94344J33163D01*
G01*
X16932031Y-9845148D02*
X16930026Y-9789763D01*
X16932031Y-9845148D02*
X16991027Y-9931259D01*
X16947449Y-7227225D02*
G75*
G02*
X16990801Y-7164746I97661J-21485D01*
G01*
X16947599Y-13592956D02*
X16882087Y-13550174D01*
X16973957Y-7447408D02*
G75*
G02*
X16924789Y-7355680I50683J86208D01*
G01*
X16977006Y-9653271D02*
X16959835Y-9680207D01*
X16977006Y-9653271D02*
G75*
G02*
X17031973Y-9596622I93414J-35650D01*
G01*
X16980690Y-5627451D02*
X17028867Y-5713522D01*
X17002500Y-19135000D02*
X16912885Y-19918851D01*
X17002544Y-13617845D02*
G75*
G02*
X16947598Y-13592957I11866J99295D01*
G01*
X17024548Y-12701729D02*
X16949440Y-12734360D01*
X17024548Y-12701729D02*
G75*
G02*
X17081860Y-12686524I53142J-84691D01*
G01*
X17028867Y-5713522D02*
X17151117Y-7009554D01*
X17040243Y-9981059D02*
G75*
G02*
X16991025Y-9931260I42017J90749D01*
G01*
X17069827Y-18351700D02*
X17002500Y-19135000D01*
X17070103Y-7547426D02*
X16973957Y-7447408D01*
X17085398Y-7558283D02*
G75*
G02*
X17070102Y-7547427I24342J50503D01*
G01*
X17129186Y-13653187D02*
X17002544Y-13617845D01*
X17129186Y-13653187D02*
X17160343Y-15220338D01*
X17146435Y-16786019D02*
X17069827Y-18351700D01*
X17151117Y-7009554D02*
X16990802Y-7164747D01*
X17160343Y-15220338D02*
X17146435Y-16786019D01*
X17175977Y-9498616D02*
X17031974Y-9596624D01*
X17177318Y-7623531D02*
X17085398Y-7558283D01*
X17177318Y-7623531D02*
X17175977Y-9498616D01*
X17198145Y-10092000D02*
X17040243Y-9981059D01*
X17198145Y-10092000D02*
X17218970Y-12671539D01*
X17218970Y-12671539D02*
X17081860Y-12686523D01*
D11*
X3043000Y-11741000D02*
X3143000Y-11841000D01*
X3143000Y-11741000D02*
X3043000Y-11841000D01*
X3083000Y-12139000D02*
X3183000Y-12239000D01*
X3183000Y-12139000D02*
X3083000Y-12239000D01*
X3093000Y-11250000D02*
X3193000Y-11350000D01*
X3193000Y-11250000D02*
X3093000Y-11350000D01*
X4432000Y-10805000D02*
X4532000Y-10905000D01*
X4532000Y-10805000D02*
X4432000Y-10905000D01*
X5145000Y-9151000D02*
X5245000Y-9251000D01*
X5245000Y-9151000D02*
X5145000Y-9251000D01*
X5957054Y-8779928D02*
X6057054Y-8879928D01*
X6057054Y-8779928D02*
X5957054Y-8879928D01*
X6782000Y-4565000D02*
X6882000Y-4665000D01*
X6882000Y-4565000D02*
X6782000Y-4665000D01*
X7322000Y-10835000D02*
X7422000Y-10935000D01*
X7422000Y-10835000D02*
X7322000Y-10935000D01*
X8125000Y-4344000D02*
X8225000Y-4444000D01*
X8225000Y-4344000D02*
X8125000Y-4444000D01*
X8401000Y-4831000D02*
X8501000Y-4931000D01*
X8501000Y-4831000D02*
X8401000Y-4931000D01*
X9096000Y-10489000D02*
X9196000Y-10589000D01*
X9196000Y-10489000D02*
X9096000Y-10589000D01*
X9724000Y-4049000D02*
X9824000Y-4149000D01*
X9824000Y-4049000D02*
X9724000Y-4149000D01*
X9732000Y-4560000D02*
X9832000Y-4660000D01*
X9832000Y-4560000D02*
X9732000Y-4660000D01*
X9890000Y-3492000D02*
X9990000Y-3592000D01*
X9990000Y-3492000D02*
X9890000Y-3592000D01*
X9980000Y-14088000D02*
X10080000Y-14188000D01*
X10080000Y-14088000D02*
X9980000Y-14188000D01*
X10247000Y-10211000D02*
X10347000Y-10311000D01*
X10347000Y-10211000D02*
X10247000Y-10311000D01*
X11210000Y-18788000D02*
X11310000Y-18888000D01*
X11310000Y-18788000D02*
X11210000Y-18888000D01*
X11405000Y-21094000D02*
X11505000Y-21194000D01*
X11505000Y-21094000D02*
X11405000Y-21194000D01*
X11559000Y-3568000D02*
X11659000Y-3668000D01*
X11659000Y-3568000D02*
X11559000Y-3668000D01*
X12032000Y-9940000D02*
X12132000Y-10040000D01*
X12132000Y-9940000D02*
X12032000Y-10040000D01*
X12701838Y-5381480D02*
X12801838Y-5481480D01*
X12801838Y-5381480D02*
X12701838Y-5481480D01*
X12782000Y-4659000D02*
X12882000Y-4759000D01*
X12882000Y-4659000D02*
X12782000Y-4759000D01*
X13059000Y-9978000D02*
X13159000Y-10078000D01*
X13159000Y-9978000D02*
X13059000Y-10078000D01*
X13093000Y-4058000D02*
X13193000Y-4158000D01*
X13193000Y-4058000D02*
X13093000Y-4158000D01*
X13563000Y-20444000D02*
X13663000Y-20544000D01*
X13663000Y-20444000D02*
X13563000Y-20544000D01*
X14286000Y-16309000D02*
X14386000Y-16409000D01*
X14386000Y-16309000D02*
X14286000Y-16409000D01*
X14482000Y-4469000D02*
X14582000Y-4569000D01*
X14582000Y-4469000D02*
X14482000Y-4569000D01*
X14639000Y-10628000D02*
X14739000Y-10728000D01*
X14739000Y-10628000D02*
X14639000Y-10728000D01*
X15406000Y-10625000D02*
X15506000Y-10725000D01*
X15506000Y-10625000D02*
X15406000Y-10725000D01*
X15509000Y-6348000D02*
X15609000Y-6448000D01*
X15609000Y-6348000D02*
X15509000Y-6448000D01*
X15529000Y-5651000D02*
X15629000Y-5751000D01*
X15629000Y-5651000D02*
X15529000Y-5751000D01*
X16396000Y-15278000D02*
X16496000Y-15378000D01*
X16496000Y-15278000D02*
X16396000Y-15378000D01*
X16663000Y-5906000D02*
X16763000Y-6006000D01*
X16763000Y-5906000D02*
X16663000Y-6006000D01*
X16775000Y-11310000D02*
X16875000Y-11410000D01*
X16875000Y-11310000D02*
X16775000Y-11410000D01*
D10*
X3015500Y-23011484D02*
X3015500Y-22811484D01*
X3015500Y-22811484D02*
X3063119Y-22811484D01*
X3063119Y-22811484D02*
X3091690Y-22821008D01*
X3091690Y-22821008D02*
X3110738Y-22840055D01*
X3110738Y-22840055D02*
X3120262Y-22859103D01*
X3120262Y-22859103D02*
X3129786Y-22897198D01*
X3129786Y-22897198D02*
X3129786Y-22925769D01*
X3129786Y-22925769D02*
X3120262Y-22963865D01*
X3120262Y-22963865D02*
X3110738Y-22982912D01*
X3110738Y-22982912D02*
X3091690Y-23001960D01*
X3091690Y-23001960D02*
X3063119Y-23011484D01*
X3063119Y-23011484D02*
X3015500Y-23011484D01*
X3215500Y-23011484D02*
X3215500Y-22878150D01*
X3215500Y-22916246D02*
X3225024Y-22897198D01*
X3225024Y-22897198D02*
X3234548Y-22887674D01*
X3234548Y-22887674D02*
X3253595Y-22878150D01*
X3253595Y-22878150D02*
X3272643Y-22878150D01*
X3339309Y-23011484D02*
X3339309Y-22878150D01*
X3339309Y-22811484D02*
X3329786Y-22821008D01*
X3329786Y-22821008D02*
X3339309Y-22830531D01*
X3339309Y-22830531D02*
X3348833Y-22821008D01*
X3348833Y-22821008D02*
X3339309Y-22811484D01*
X3339309Y-22811484D02*
X3339309Y-22830531D01*
X3463119Y-23011484D02*
X3444071Y-23001960D01*
X3444071Y-23001960D02*
X3434548Y-22982912D01*
X3434548Y-22982912D02*
X3434548Y-22811484D01*
X3567881Y-23011484D02*
X3548833Y-23001960D01*
X3548833Y-23001960D02*
X3539309Y-22982912D01*
X3539309Y-22982912D02*
X3539309Y-22811484D01*
X3796452Y-23011484D02*
X3796452Y-22811484D01*
X3796452Y-22811484D02*
X3863119Y-22954341D01*
X3863119Y-22954341D02*
X3929786Y-22811484D01*
X3929786Y-22811484D02*
X3929786Y-23011484D01*
X4110738Y-23011484D02*
X4110738Y-22906722D01*
X4110738Y-22906722D02*
X4101214Y-22887674D01*
X4101214Y-22887674D02*
X4082167Y-22878150D01*
X4082167Y-22878150D02*
X4044071Y-22878150D01*
X4044071Y-22878150D02*
X4025024Y-22887674D01*
X4110738Y-23001960D02*
X4091690Y-23011484D01*
X4091690Y-23011484D02*
X4044071Y-23011484D01*
X4044071Y-23011484D02*
X4025024Y-23001960D01*
X4025024Y-23001960D02*
X4015500Y-22982912D01*
X4015500Y-22982912D02*
X4015500Y-22963865D01*
X4015500Y-22963865D02*
X4025024Y-22944817D01*
X4025024Y-22944817D02*
X4044071Y-22935293D01*
X4044071Y-22935293D02*
X4091690Y-22935293D01*
X4091690Y-22935293D02*
X4110738Y-22925769D01*
X4205976Y-22878150D02*
X4205976Y-23078150D01*
X4205976Y-22887674D02*
X4225024Y-22878150D01*
X4225024Y-22878150D02*
X4263119Y-22878150D01*
X4263119Y-22878150D02*
X4282167Y-22887674D01*
X4282167Y-22887674D02*
X4291691Y-22897198D01*
X4291691Y-22897198D02*
X4301214Y-22916246D01*
X4301214Y-22916246D02*
X4301214Y-22973388D01*
X4301214Y-22973388D02*
X4291691Y-22992436D01*
X4291691Y-22992436D02*
X4282167Y-23001960D01*
X4282167Y-23001960D02*
X4263119Y-23011484D01*
X4263119Y-23011484D02*
X4225024Y-23011484D01*
X4225024Y-23011484D02*
X4205976Y-23001960D01*
X4386929Y-22992436D02*
X4396452Y-23001960D01*
X4396452Y-23001960D02*
X4386929Y-23011484D01*
X4386929Y-23011484D02*
X4377405Y-23001960D01*
X4377405Y-23001960D02*
X4386929Y-22992436D01*
X4386929Y-22992436D02*
X4386929Y-23011484D01*
X4386929Y-22887674D02*
X4396452Y-22897198D01*
X4396452Y-22897198D02*
X4386929Y-22906722D01*
X4386929Y-22906722D02*
X4377405Y-22897198D01*
X4377405Y-22897198D02*
X4386929Y-22887674D01*
X4386929Y-22887674D02*
X4386929Y-22906722D01*
D11*
X2654723Y-23290000D02*
X2754723Y-23390000D01*
X2754723Y-23290000D02*
X2654723Y-23390000D01*
D10*
X3120262Y-23431484D02*
X3005976Y-23431484D01*
X3063119Y-23431484D02*
X3063119Y-23231484D01*
X3063119Y-23231484D02*
X3044071Y-23260055D01*
X3044071Y-23260055D02*
X3025024Y-23279103D01*
X3025024Y-23279103D02*
X3005976Y-23288627D01*
X3205976Y-23412436D02*
X3215500Y-23421960D01*
X3215500Y-23421960D02*
X3205976Y-23431484D01*
X3205976Y-23431484D02*
X3196452Y-23421960D01*
X3196452Y-23421960D02*
X3205976Y-23412436D01*
X3205976Y-23412436D02*
X3205976Y-23431484D01*
X3339309Y-23231484D02*
X3358357Y-23231484D01*
X3358357Y-23231484D02*
X3377405Y-23241008D01*
X3377405Y-23241008D02*
X3386929Y-23250531D01*
X3386929Y-23250531D02*
X3396452Y-23269579D01*
X3396452Y-23269579D02*
X3405976Y-23307674D01*
X3405976Y-23307674D02*
X3405976Y-23355293D01*
X3405976Y-23355293D02*
X3396452Y-23393388D01*
X3396452Y-23393388D02*
X3386929Y-23412436D01*
X3386929Y-23412436D02*
X3377405Y-23421960D01*
X3377405Y-23421960D02*
X3358357Y-23431484D01*
X3358357Y-23431484D02*
X3339309Y-23431484D01*
X3339309Y-23431484D02*
X3320262Y-23421960D01*
X3320262Y-23421960D02*
X3310738Y-23412436D01*
X3310738Y-23412436D02*
X3301214Y-23393388D01*
X3301214Y-23393388D02*
X3291690Y-23355293D01*
X3291690Y-23355293D02*
X3291690Y-23307674D01*
X3291690Y-23307674D02*
X3301214Y-23269579D01*
X3301214Y-23269579D02*
X3310738Y-23250531D01*
X3310738Y-23250531D02*
X3320262Y-23241008D01*
X3320262Y-23241008D02*
X3339309Y-23231484D01*
X3529786Y-23231484D02*
X3548833Y-23231484D01*
X3548833Y-23231484D02*
X3567881Y-23241008D01*
X3567881Y-23241008D02*
X3577405Y-23250531D01*
X3577405Y-23250531D02*
X3586929Y-23269579D01*
X3586929Y-23269579D02*
X3596452Y-23307674D01*
X3596452Y-23307674D02*
X3596452Y-23355293D01*
X3596452Y-23355293D02*
X3586929Y-23393388D01*
X3586929Y-23393388D02*
X3577405Y-23412436D01*
X3577405Y-23412436D02*
X3567881Y-23421960D01*
X3567881Y-23421960D02*
X3548833Y-23431484D01*
X3548833Y-23431484D02*
X3529786Y-23431484D01*
X3529786Y-23431484D02*
X3510738Y-23421960D01*
X3510738Y-23421960D02*
X3501214Y-23412436D01*
X3501214Y-23412436D02*
X3491690Y-23393388D01*
X3491690Y-23393388D02*
X3482167Y-23355293D01*
X3482167Y-23355293D02*
X3482167Y-23307674D01*
X3482167Y-23307674D02*
X3491690Y-23269579D01*
X3491690Y-23269579D02*
X3501214Y-23250531D01*
X3501214Y-23250531D02*
X3510738Y-23241008D01*
X3510738Y-23241008D02*
X3529786Y-23231484D01*
X3720262Y-23231484D02*
X3739310Y-23231484D01*
X3739310Y-23231484D02*
X3758357Y-23241008D01*
X3758357Y-23241008D02*
X3767881Y-23250531D01*
X3767881Y-23250531D02*
X3777405Y-23269579D01*
X3777405Y-23269579D02*
X3786929Y-23307674D01*
X3786929Y-23307674D02*
X3786929Y-23355293D01*
X3786929Y-23355293D02*
X3777405Y-23393388D01*
X3777405Y-23393388D02*
X3767881Y-23412436D01*
X3767881Y-23412436D02*
X3758357Y-23421960D01*
X3758357Y-23421960D02*
X3739310Y-23431484D01*
X3739310Y-23431484D02*
X3720262Y-23431484D01*
X3720262Y-23431484D02*
X3701214Y-23421960D01*
X3701214Y-23421960D02*
X3691690Y-23412436D01*
X3691690Y-23412436D02*
X3682167Y-23393388D01*
X3682167Y-23393388D02*
X3672643Y-23355293D01*
X3672643Y-23355293D02*
X3672643Y-23307674D01*
X3672643Y-23307674D02*
X3682167Y-23269579D01*
X3682167Y-23269579D02*
X3691690Y-23250531D01*
X3691690Y-23250531D02*
X3701214Y-23241008D01*
X3701214Y-23241008D02*
X3720262Y-23231484D01*
X3872643Y-23431484D02*
X3872643Y-23298150D01*
X3872643Y-23317198D02*
X3882167Y-23307674D01*
X3882167Y-23307674D02*
X3901214Y-23298150D01*
X3901214Y-23298150D02*
X3929786Y-23298150D01*
X3929786Y-23298150D02*
X3948833Y-23307674D01*
X3948833Y-23307674D02*
X3958357Y-23326722D01*
X3958357Y-23326722D02*
X3958357Y-23431484D01*
X3958357Y-23326722D02*
X3967881Y-23307674D01*
X3967881Y-23307674D02*
X3986929Y-23298150D01*
X3986929Y-23298150D02*
X4015500Y-23298150D01*
X4015500Y-23298150D02*
X4034548Y-23307674D01*
X4034548Y-23307674D02*
X4044071Y-23326722D01*
X4044071Y-23326722D02*
X4044071Y-23431484D01*
X4139310Y-23431484D02*
X4139310Y-23298150D01*
X4139310Y-23317198D02*
X4148833Y-23307674D01*
X4148833Y-23307674D02*
X4167881Y-23298150D01*
X4167881Y-23298150D02*
X4196453Y-23298150D01*
X4196453Y-23298150D02*
X4215500Y-23307674D01*
X4215500Y-23307674D02*
X4225024Y-23326722D01*
X4225024Y-23326722D02*
X4225024Y-23431484D01*
X4225024Y-23326722D02*
X4234548Y-23307674D01*
X4234548Y-23307674D02*
X4253595Y-23298150D01*
X4253595Y-23298150D02*
X4282167Y-23298150D01*
X4282167Y-23298150D02*
X4301214Y-23307674D01*
X4301214Y-23307674D02*
X4310738Y-23326722D01*
X4310738Y-23326722D02*
X4310738Y-23431484D01*
X4701214Y-23221960D02*
X4529786Y-23479103D01*
X4958357Y-23231484D02*
X4977405Y-23231484D01*
X4977405Y-23231484D02*
X4996453Y-23241008D01*
X4996453Y-23241008D02*
X5005976Y-23250531D01*
X5005976Y-23250531D02*
X5015500Y-23269579D01*
X5015500Y-23269579D02*
X5025024Y-23307674D01*
X5025024Y-23307674D02*
X5025024Y-23355293D01*
X5025024Y-23355293D02*
X5015500Y-23393388D01*
X5015500Y-23393388D02*
X5005976Y-23412436D01*
X5005976Y-23412436D02*
X4996453Y-23421960D01*
X4996453Y-23421960D02*
X4977405Y-23431484D01*
X4977405Y-23431484D02*
X4958357Y-23431484D01*
X4958357Y-23431484D02*
X4939310Y-23421960D01*
X4939310Y-23421960D02*
X4929786Y-23412436D01*
X4929786Y-23412436D02*
X4920262Y-23393388D01*
X4920262Y-23393388D02*
X4910738Y-23355293D01*
X4910738Y-23355293D02*
X4910738Y-23307674D01*
X4910738Y-23307674D02*
X4920262Y-23269579D01*
X4920262Y-23269579D02*
X4929786Y-23250531D01*
X4929786Y-23250531D02*
X4939310Y-23241008D01*
X4939310Y-23241008D02*
X4958357Y-23231484D01*
X5110738Y-23412436D02*
X5120262Y-23421960D01*
X5120262Y-23421960D02*
X5110738Y-23431484D01*
X5110738Y-23431484D02*
X5101215Y-23421960D01*
X5101215Y-23421960D02*
X5110738Y-23412436D01*
X5110738Y-23412436D02*
X5110738Y-23431484D01*
X5244072Y-23231484D02*
X5263119Y-23231484D01*
X5263119Y-23231484D02*
X5282167Y-23241008D01*
X5282167Y-23241008D02*
X5291691Y-23250531D01*
X5291691Y-23250531D02*
X5301215Y-23269579D01*
X5301215Y-23269579D02*
X5310738Y-23307674D01*
X5310738Y-23307674D02*
X5310738Y-23355293D01*
X5310738Y-23355293D02*
X5301215Y-23393388D01*
X5301215Y-23393388D02*
X5291691Y-23412436D01*
X5291691Y-23412436D02*
X5282167Y-23421960D01*
X5282167Y-23421960D02*
X5263119Y-23431484D01*
X5263119Y-23431484D02*
X5244072Y-23431484D01*
X5244072Y-23431484D02*
X5225024Y-23421960D01*
X5225024Y-23421960D02*
X5215500Y-23412436D01*
X5215500Y-23412436D02*
X5205976Y-23393388D01*
X5205976Y-23393388D02*
X5196453Y-23355293D01*
X5196453Y-23355293D02*
X5196453Y-23307674D01*
X5196453Y-23307674D02*
X5205976Y-23269579D01*
X5205976Y-23269579D02*
X5215500Y-23250531D01*
X5215500Y-23250531D02*
X5225024Y-23241008D01*
X5225024Y-23241008D02*
X5244072Y-23231484D01*
X5377405Y-23231484D02*
X5501215Y-23231484D01*
X5501215Y-23231484D02*
X5434548Y-23307674D01*
X5434548Y-23307674D02*
X5463119Y-23307674D01*
X5463119Y-23307674D02*
X5482167Y-23317198D01*
X5482167Y-23317198D02*
X5491691Y-23326722D01*
X5491691Y-23326722D02*
X5501215Y-23345769D01*
X5501215Y-23345769D02*
X5501215Y-23393388D01*
X5501215Y-23393388D02*
X5491691Y-23412436D01*
X5491691Y-23412436D02*
X5482167Y-23421960D01*
X5482167Y-23421960D02*
X5463119Y-23431484D01*
X5463119Y-23431484D02*
X5405976Y-23431484D01*
X5405976Y-23431484D02*
X5386929Y-23421960D01*
X5386929Y-23421960D02*
X5377405Y-23412436D01*
X5596453Y-23431484D02*
X5634548Y-23431484D01*
X5634548Y-23431484D02*
X5653595Y-23421960D01*
X5653595Y-23421960D02*
X5663119Y-23412436D01*
X5663119Y-23412436D02*
X5682167Y-23383865D01*
X5682167Y-23383865D02*
X5691691Y-23345769D01*
X5691691Y-23345769D02*
X5691691Y-23269579D01*
X5691691Y-23269579D02*
X5682167Y-23250531D01*
X5682167Y-23250531D02*
X5672643Y-23241008D01*
X5672643Y-23241008D02*
X5653595Y-23231484D01*
X5653595Y-23231484D02*
X5615500Y-23231484D01*
X5615500Y-23231484D02*
X5596453Y-23241008D01*
X5596453Y-23241008D02*
X5586929Y-23250531D01*
X5586929Y-23250531D02*
X5577405Y-23269579D01*
X5577405Y-23269579D02*
X5577405Y-23317198D01*
X5577405Y-23317198D02*
X5586929Y-23336246D01*
X5586929Y-23336246D02*
X5596453Y-23345769D01*
X5596453Y-23345769D02*
X5615500Y-23355293D01*
X5615500Y-23355293D02*
X5653595Y-23355293D01*
X5653595Y-23355293D02*
X5672643Y-23345769D01*
X5672643Y-23345769D02*
X5682167Y-23336246D01*
X5682167Y-23336246D02*
X5691691Y-23317198D01*
X5863119Y-23298150D02*
X5863119Y-23431484D01*
X5815500Y-23221960D02*
X5767881Y-23364817D01*
X5767881Y-23364817D02*
X5891691Y-23364817D01*
X5958357Y-23231484D02*
X5958357Y-23269579D01*
X6034548Y-23231484D02*
X6034548Y-23269579D01*
X6329786Y-23507674D02*
X6320262Y-23498150D01*
X6320262Y-23498150D02*
X6301215Y-23469579D01*
X6301215Y-23469579D02*
X6291691Y-23450531D01*
X6291691Y-23450531D02*
X6282167Y-23421960D01*
X6282167Y-23421960D02*
X6272643Y-23374341D01*
X6272643Y-23374341D02*
X6272643Y-23336246D01*
X6272643Y-23336246D02*
X6282167Y-23288627D01*
X6282167Y-23288627D02*
X6291691Y-23260055D01*
X6291691Y-23260055D02*
X6301215Y-23241008D01*
X6301215Y-23241008D02*
X6320262Y-23212436D01*
X6320262Y-23212436D02*
X6329786Y-23202912D01*
X6386929Y-23231484D02*
X6510738Y-23231484D01*
X6510738Y-23231484D02*
X6444072Y-23307674D01*
X6444072Y-23307674D02*
X6472643Y-23307674D01*
X6472643Y-23307674D02*
X6491691Y-23317198D01*
X6491691Y-23317198D02*
X6501215Y-23326722D01*
X6501215Y-23326722D02*
X6510738Y-23345769D01*
X6510738Y-23345769D02*
X6510738Y-23393388D01*
X6510738Y-23393388D02*
X6501215Y-23412436D01*
X6501215Y-23412436D02*
X6491691Y-23421960D01*
X6491691Y-23421960D02*
X6472643Y-23431484D01*
X6472643Y-23431484D02*
X6415500Y-23431484D01*
X6415500Y-23431484D02*
X6396453Y-23421960D01*
X6396453Y-23421960D02*
X6386929Y-23412436D01*
X6682167Y-23298150D02*
X6682167Y-23431484D01*
X6634548Y-23221960D02*
X6586929Y-23364817D01*
X6586929Y-23364817D02*
X6710738Y-23364817D01*
X6939310Y-23431484D02*
X6939310Y-23231484D01*
X7025024Y-23431484D02*
X7025024Y-23326722D01*
X7025024Y-23326722D02*
X7015500Y-23307674D01*
X7015500Y-23307674D02*
X6996453Y-23298150D01*
X6996453Y-23298150D02*
X6967881Y-23298150D01*
X6967881Y-23298150D02*
X6948834Y-23307674D01*
X6948834Y-23307674D02*
X6939310Y-23317198D01*
X7148834Y-23431484D02*
X7129786Y-23421960D01*
X7129786Y-23421960D02*
X7120262Y-23412436D01*
X7120262Y-23412436D02*
X7110738Y-23393388D01*
X7110738Y-23393388D02*
X7110738Y-23336246D01*
X7110738Y-23336246D02*
X7120262Y-23317198D01*
X7120262Y-23317198D02*
X7129786Y-23307674D01*
X7129786Y-23307674D02*
X7148834Y-23298150D01*
X7148834Y-23298150D02*
X7177405Y-23298150D01*
X7177405Y-23298150D02*
X7196453Y-23307674D01*
X7196453Y-23307674D02*
X7205977Y-23317198D01*
X7205977Y-23317198D02*
X7215500Y-23336246D01*
X7215500Y-23336246D02*
X7215500Y-23393388D01*
X7215500Y-23393388D02*
X7205977Y-23412436D01*
X7205977Y-23412436D02*
X7196453Y-23421960D01*
X7196453Y-23421960D02*
X7177405Y-23431484D01*
X7177405Y-23431484D02*
X7148834Y-23431484D01*
X7329786Y-23431484D02*
X7310738Y-23421960D01*
X7310738Y-23421960D02*
X7301215Y-23402912D01*
X7301215Y-23402912D02*
X7301215Y-23231484D01*
X7482167Y-23421960D02*
X7463119Y-23431484D01*
X7463119Y-23431484D02*
X7425024Y-23431484D01*
X7425024Y-23431484D02*
X7405977Y-23421960D01*
X7405977Y-23421960D02*
X7396453Y-23402912D01*
X7396453Y-23402912D02*
X7396453Y-23326722D01*
X7396453Y-23326722D02*
X7405977Y-23307674D01*
X7405977Y-23307674D02*
X7425024Y-23298150D01*
X7425024Y-23298150D02*
X7463119Y-23298150D01*
X7463119Y-23298150D02*
X7482167Y-23307674D01*
X7482167Y-23307674D02*
X7491691Y-23326722D01*
X7491691Y-23326722D02*
X7491691Y-23345769D01*
X7491691Y-23345769D02*
X7396453Y-23364817D01*
X7567881Y-23421960D02*
X7586929Y-23431484D01*
X7586929Y-23431484D02*
X7625024Y-23431484D01*
X7625024Y-23431484D02*
X7644072Y-23421960D01*
X7644072Y-23421960D02*
X7653596Y-23402912D01*
X7653596Y-23402912D02*
X7653596Y-23393388D01*
X7653596Y-23393388D02*
X7644072Y-23374341D01*
X7644072Y-23374341D02*
X7625024Y-23364817D01*
X7625024Y-23364817D02*
X7596453Y-23364817D01*
X7596453Y-23364817D02*
X7577405Y-23355293D01*
X7577405Y-23355293D02*
X7567881Y-23336246D01*
X7567881Y-23336246D02*
X7567881Y-23326722D01*
X7567881Y-23326722D02*
X7577405Y-23307674D01*
X7577405Y-23307674D02*
X7596453Y-23298150D01*
X7596453Y-23298150D02*
X7625024Y-23298150D01*
X7625024Y-23298150D02*
X7644072Y-23307674D01*
X7720262Y-23507674D02*
X7729786Y-23498150D01*
X7729786Y-23498150D02*
X7748834Y-23469579D01*
X7748834Y-23469579D02*
X7758358Y-23450531D01*
X7758358Y-23450531D02*
X7767881Y-23421960D01*
X7767881Y-23421960D02*
X7777405Y-23374341D01*
X7777405Y-23374341D02*
X7777405Y-23336246D01*
X7777405Y-23336246D02*
X7767881Y-23288627D01*
X7767881Y-23288627D02*
X7758358Y-23260055D01*
X7758358Y-23260055D02*
X7748834Y-23241008D01*
X7748834Y-23241008D02*
X7729786Y-23212436D01*
X7729786Y-23212436D02*
X7720262Y-23202912D01*
X8082167Y-23507674D02*
X8072643Y-23498150D01*
X8072643Y-23498150D02*
X8053596Y-23469579D01*
X8053596Y-23469579D02*
X8044072Y-23450531D01*
X8044072Y-23450531D02*
X8034548Y-23421960D01*
X8034548Y-23421960D02*
X8025024Y-23374341D01*
X8025024Y-23374341D02*
X8025024Y-23336246D01*
X8025024Y-23336246D02*
X8034548Y-23288627D01*
X8034548Y-23288627D02*
X8044072Y-23260055D01*
X8044072Y-23260055D02*
X8053596Y-23241008D01*
X8053596Y-23241008D02*
X8072643Y-23212436D01*
X8072643Y-23212436D02*
X8082167Y-23202912D01*
X8158358Y-23298150D02*
X8158358Y-23431484D01*
X8158358Y-23317198D02*
X8167881Y-23307674D01*
X8167881Y-23307674D02*
X8186929Y-23298150D01*
X8186929Y-23298150D02*
X8215500Y-23298150D01*
X8215500Y-23298150D02*
X8234548Y-23307674D01*
X8234548Y-23307674D02*
X8244072Y-23326722D01*
X8244072Y-23326722D02*
X8244072Y-23431484D01*
X8367881Y-23431484D02*
X8348834Y-23421960D01*
X8348834Y-23421960D02*
X8339310Y-23412436D01*
X8339310Y-23412436D02*
X8329786Y-23393388D01*
X8329786Y-23393388D02*
X8329786Y-23336246D01*
X8329786Y-23336246D02*
X8339310Y-23317198D01*
X8339310Y-23317198D02*
X8348834Y-23307674D01*
X8348834Y-23307674D02*
X8367881Y-23298150D01*
X8367881Y-23298150D02*
X8396453Y-23298150D01*
X8396453Y-23298150D02*
X8415501Y-23307674D01*
X8415501Y-23307674D02*
X8425024Y-23317198D01*
X8425024Y-23317198D02*
X8434548Y-23336246D01*
X8434548Y-23336246D02*
X8434548Y-23393388D01*
X8434548Y-23393388D02*
X8425024Y-23412436D01*
X8425024Y-23412436D02*
X8415501Y-23421960D01*
X8415501Y-23421960D02*
X8396453Y-23431484D01*
X8396453Y-23431484D02*
X8367881Y-23431484D01*
X8491691Y-23298150D02*
X8567881Y-23298150D01*
X8520262Y-23231484D02*
X8520262Y-23402912D01*
X8520262Y-23402912D02*
X8529786Y-23421960D01*
X8529786Y-23421960D02*
X8548834Y-23431484D01*
X8548834Y-23431484D02*
X8567881Y-23431484D01*
X8786929Y-23298150D02*
X8786929Y-23498150D01*
X8786929Y-23307674D02*
X8805977Y-23298150D01*
X8805977Y-23298150D02*
X8844072Y-23298150D01*
X8844072Y-23298150D02*
X8863120Y-23307674D01*
X8863120Y-23307674D02*
X8872643Y-23317198D01*
X8872643Y-23317198D02*
X8882167Y-23336246D01*
X8882167Y-23336246D02*
X8882167Y-23393388D01*
X8882167Y-23393388D02*
X8872643Y-23412436D01*
X8872643Y-23412436D02*
X8863120Y-23421960D01*
X8863120Y-23421960D02*
X8844072Y-23431484D01*
X8844072Y-23431484D02*
X8805977Y-23431484D01*
X8805977Y-23431484D02*
X8786929Y-23421960D01*
X8996453Y-23431484D02*
X8977405Y-23421960D01*
X8977405Y-23421960D02*
X8967882Y-23402912D01*
X8967882Y-23402912D02*
X8967882Y-23231484D01*
X9158358Y-23431484D02*
X9158358Y-23326722D01*
X9158358Y-23326722D02*
X9148834Y-23307674D01*
X9148834Y-23307674D02*
X9129786Y-23298150D01*
X9129786Y-23298150D02*
X9091691Y-23298150D01*
X9091691Y-23298150D02*
X9072643Y-23307674D01*
X9158358Y-23421960D02*
X9139310Y-23431484D01*
X9139310Y-23431484D02*
X9091691Y-23431484D01*
X9091691Y-23431484D02*
X9072643Y-23421960D01*
X9072643Y-23421960D02*
X9063120Y-23402912D01*
X9063120Y-23402912D02*
X9063120Y-23383865D01*
X9063120Y-23383865D02*
X9072643Y-23364817D01*
X9072643Y-23364817D02*
X9091691Y-23355293D01*
X9091691Y-23355293D02*
X9139310Y-23355293D01*
X9139310Y-23355293D02*
X9158358Y-23345769D01*
X9225024Y-23298150D02*
X9301215Y-23298150D01*
X9253596Y-23231484D02*
X9253596Y-23402912D01*
X9253596Y-23402912D02*
X9263120Y-23421960D01*
X9263120Y-23421960D02*
X9282167Y-23431484D01*
X9282167Y-23431484D02*
X9301215Y-23431484D01*
X9444072Y-23421960D02*
X9425024Y-23431484D01*
X9425024Y-23431484D02*
X9386929Y-23431484D01*
X9386929Y-23431484D02*
X9367882Y-23421960D01*
X9367882Y-23421960D02*
X9358358Y-23402912D01*
X9358358Y-23402912D02*
X9358358Y-23326722D01*
X9358358Y-23326722D02*
X9367882Y-23307674D01*
X9367882Y-23307674D02*
X9386929Y-23298150D01*
X9386929Y-23298150D02*
X9425024Y-23298150D01*
X9425024Y-23298150D02*
X9444072Y-23307674D01*
X9444072Y-23307674D02*
X9453596Y-23326722D01*
X9453596Y-23326722D02*
X9453596Y-23345769D01*
X9453596Y-23345769D02*
X9358358Y-23364817D01*
X9625024Y-23431484D02*
X9625024Y-23231484D01*
X9625024Y-23421960D02*
X9605977Y-23431484D01*
X9605977Y-23431484D02*
X9567882Y-23431484D01*
X9567882Y-23431484D02*
X9548834Y-23421960D01*
X9548834Y-23421960D02*
X9539310Y-23412436D01*
X9539310Y-23412436D02*
X9529786Y-23393388D01*
X9529786Y-23393388D02*
X9529786Y-23336246D01*
X9529786Y-23336246D02*
X9539310Y-23317198D01*
X9539310Y-23317198D02*
X9548834Y-23307674D01*
X9548834Y-23307674D02*
X9567882Y-23298150D01*
X9567882Y-23298150D02*
X9605977Y-23298150D01*
X9605977Y-23298150D02*
X9625024Y-23307674D01*
X9701215Y-23507674D02*
X9710739Y-23498150D01*
X9710739Y-23498150D02*
X9729786Y-23469579D01*
X9729786Y-23469579D02*
X9739310Y-23450531D01*
X9739310Y-23450531D02*
X9748834Y-23421960D01*
X9748834Y-23421960D02*
X9758358Y-23374341D01*
X9758358Y-23374341D02*
X9758358Y-23336246D01*
X9758358Y-23336246D02*
X9748834Y-23288627D01*
X9748834Y-23288627D02*
X9739310Y-23260055D01*
X9739310Y-23260055D02*
X9729786Y-23241008D01*
X9729786Y-23241008D02*
X9710739Y-23212436D01*
X9710739Y-23212436D02*
X9701215Y-23202912D01*
M02*
