%TF.GenerationSoftware,KiCad,Pcbnew,10.0.2*%
%TF.CreationDate,2026-09-30T17:53:06+02:00*%
%TF.ProjectId,HandFPC,48616e64-4650-4432-9e6b-696361645f70,rev?*%
%TF.SameCoordinates,Original*%
%TF.FileFunction,Paste,Top*%
%TF.FilePolarity,Positive*%
%FSLAX46Y46*%
G04 Gerber Fmt 4.6, Leading zero omitted, Abs format (unit mm)*
G04 Created by KiCad (PCBNEW 10.0.2) date 2026-09-30 17:53:06*
%MOMM*%
%LPD*%
G01*
G04 APERTURE LIST*
G04 Aperture macros list*
%AMRoundRect*
0 Rectangle with rounded corners*
0 $1 Rounding radius*
0 $2 $3 $4 $5 $6 $7 $8 $9 X,Y pos of 4 corners*
0 Add a 4 corners polygon primitive as box body*
4,1,4,$2,$3,$4,$5,$6,$7,$8,$9,$2,$3,0*
0 Add four circle primitives for the rounded corners*
1,1,$1+$1,$2,$3*
1,1,$1+$1,$4,$5*
1,1,$1+$1,$6,$7*
1,1,$1+$1,$8,$9*
0 Add four rect primitives between the rounded corners*
20,1,$1+$1,$2,$3,$4,$5,0*
20,1,$1+$1,$4,$5,$6,$7,0*
20,1,$1+$1,$6,$7,$8,$9,0*
20,1,$1+$1,$8,$9,$2,$3,0*%
G04 Aperture macros list end*
%ADD10RoundRect,0.180000X0.420000X0.720000X-0.420000X0.720000X-0.420000X-0.720000X0.420000X-0.720000X0*%
%ADD11RoundRect,0.090000X0.210000X0.685000X-0.210000X0.685000X-0.210000X-0.685000X0.210000X-0.685000X0*%
%ADD12RoundRect,0.079157X0.184698X0.698922X-0.184698X0.698922X-0.184698X-0.698922X0.184698X-0.698922X0*%
%ADD13RoundRect,0.250000X-0.350000X-0.650000X0.350000X-0.650000X0.350000X0.650000X-0.350000X0.650000X0*%
%ADD14RoundRect,0.150000X-0.150000X-0.625000X0.150000X-0.625000X0.150000X0.625000X-0.150000X0.625000X0*%
%ADD15RoundRect,0.189612X-0.284417X0.310623X-0.284417X-0.310623X0.284417X-0.310623X0.284417X0.310623X0*%
%ADD16RoundRect,0.194158X-0.291238X0.333110X-0.291238X-0.333110X0.291238X-0.333110X0.291238X0.333110X0*%
%ADD17RoundRect,0.200000X0.777817X-0.353553X-0.353553X0.777817X-0.777817X0.353553X0.353553X-0.777817X0*%
%ADD18C,1.020000*%
%ADD19RoundRect,0.150000X-0.150000X0.512500X-0.150000X-0.512500X0.150000X-0.512500X0.150000X0.512500X0*%
%ADD20RoundRect,0.200000X-0.353553X-0.777817X0.777817X0.353553X0.353553X0.777817X-0.777817X-0.353553X0*%
%ADD21RoundRect,0.180000X-0.212132X0.806102X-0.806102X0.212132X0.212132X-0.806102X0.806102X-0.212132X0*%
%ADD22RoundRect,0.090000X-0.335876X0.632861X-0.632861X0.335876X0.335876X-0.632861X0.632861X-0.335876X0*%
%ADD23RoundRect,0.079157X-0.363611X0.624814X-0.624814X0.363611X0.363611X-0.624814X0.624814X-0.363611X0*%
%ADD24RoundRect,0.180000X-0.720000X0.420000X-0.720000X-0.420000X0.720000X-0.420000X0.720000X0.420000X0*%
%ADD25RoundRect,0.090000X-0.685000X0.210000X-0.685000X-0.210000X0.685000X-0.210000X0.685000X0.210000X0*%
%ADD26RoundRect,0.079157X-0.698922X0.184698X-0.698922X-0.184698X0.698922X-0.184698X0.698922X0.184698X0*%
%ADD27RoundRect,0.200000X0.353553X0.777817X-0.777817X-0.353553X-0.353553X-0.777817X0.777817X0.353553X0*%
%ADD28RoundRect,0.084771X0.282767X0.084771X-0.282767X0.084771X-0.282767X-0.084771X0.282767X-0.084771X0*%
%ADD29RoundRect,0.087500X0.277500X0.087500X-0.277500X0.087500X-0.277500X-0.087500X0.277500X-0.087500X0*%
%ADD30RoundRect,0.087500X-0.087500X0.277500X-0.087500X-0.277500X0.087500X-0.277500X0.087500X0.277500X0*%
%ADD31RoundRect,0.087500X0.087500X-0.277500X0.087500X0.277500X-0.087500X0.277500X-0.087500X-0.277500X0*%
%ADD32RoundRect,0.087500X-0.277500X-0.087500X0.277500X-0.087500X0.277500X0.087500X-0.277500X0.087500X0*%
%ADD33RoundRect,0.189612X0.310623X0.284417X-0.310623X0.284417X-0.310623X-0.284417X0.310623X-0.284417X0*%
%ADD34RoundRect,0.194158X0.333110X0.291238X-0.333110X0.291238X-0.333110X-0.291238X0.333110X-0.291238X0*%
%ADD35RoundRect,0.180000X0.806102X0.212132X0.212132X0.806102X-0.806102X-0.212132X-0.212132X-0.806102X0*%
%ADD36RoundRect,0.090000X0.632861X0.335876X0.335876X0.632861X-0.632861X-0.335876X-0.335876X-0.632861X0*%
%ADD37RoundRect,0.079157X0.624814X0.363611X0.363611X0.624814X-0.624814X-0.363611X-0.363611X-0.624814X0*%
%ADD38RoundRect,0.189612X0.284417X-0.310623X0.284417X0.310623X-0.284417X0.310623X-0.284417X-0.310623X0*%
%ADD39RoundRect,0.194158X0.291238X-0.333110X0.291238X0.333110X-0.291238X0.333110X-0.291238X-0.333110X0*%
G04 APERTURE END LIST*
D10*
%TO.C,J6*%
X123880000Y-190280000D03*
D11*
X122580000Y-194180000D03*
D12*
X121572551Y-194176921D03*
D11*
X120580000Y-194180000D03*
X119580000Y-194180000D03*
D10*
X118280000Y-190305000D03*
%TD*%
D13*
%TO.C,J9*%
X105030000Y-34680000D03*
D14*
X106330000Y-30805000D03*
X107330000Y-30805000D03*
D13*
X108630000Y-34675000D03*
X108630000Y-34680000D03*
%TD*%
D15*
%TO.C,C1*%
X118794029Y-153030000D03*
D16*
X118800000Y-154750000D03*
%TD*%
D17*
%TO.C,FSR3*%
X103523259Y-44462599D03*
X102441386Y-45544472D03*
%TD*%
D18*
%TO.C,TP9*%
X121500000Y-142750000D03*
%TD*%
%TO.C,TP3*%
X124340000Y-154800000D03*
%TD*%
%TO.C,TP5*%
X118000000Y-161750000D03*
%TD*%
D13*
%TO.C,J11*%
X159820000Y-57100000D03*
D14*
X161120000Y-53225000D03*
X162120000Y-53225000D03*
D13*
X163420000Y-57095000D03*
X163420000Y-57100000D03*
%TD*%
%TO.C,J8*%
X72820000Y-44315000D03*
D14*
X74120000Y-40440000D03*
X75120000Y-40440000D03*
D13*
X76420000Y-44310000D03*
X76420000Y-44315000D03*
%TD*%
D19*
%TO.C,U2*%
X57710000Y-92812500D03*
X55810000Y-92812500D03*
X56760000Y-95087500D03*
%TD*%
D20*
%TO.C,FSR1*%
X40384785Y-120254369D03*
X39302912Y-119172496D03*
%TD*%
D21*
%TO.C,J5*%
X108451174Y-192283396D03*
D22*
X110289651Y-195960351D03*
D23*
X109575100Y-196670548D03*
D22*
X108875438Y-197374564D03*
X108168331Y-198081671D03*
D21*
X104509053Y-196260871D03*
%TD*%
D18*
%TO.C,TP2*%
X131500000Y-206750000D03*
%TD*%
%TO.C,TP7*%
X121140000Y-205100000D03*
%TD*%
D24*
%TO.C,J4*%
X108410000Y-202290000D03*
D25*
X112310000Y-203590000D03*
D26*
X112306921Y-204597449D03*
D25*
X112310000Y-205590000D03*
X112310000Y-206590000D03*
D24*
X108435000Y-207890000D03*
%TD*%
D18*
%TO.C,TP8*%
X37000000Y-124000000D03*
%TD*%
D13*
%TO.C,J7*%
X35460000Y-107330000D03*
D14*
X36760000Y-103455000D03*
X37760000Y-103455000D03*
D13*
X39060000Y-107325000D03*
X39060000Y-107330000D03*
%TD*%
D18*
%TO.C,GND*%
X112670000Y-162020000D03*
%TD*%
D20*
%TO.C,FSR4*%
X140784785Y-53744369D03*
X139702912Y-52662496D03*
%TD*%
D27*
%TO.C,FSR5*%
X164032599Y-63376741D03*
X165114472Y-64458614D03*
%TD*%
D18*
%TO.C,TP1*%
X117920000Y-206870000D03*
%TD*%
D28*
%TO.C,U1*%
X118536944Y-157066346D03*
D29*
X118534406Y-158061804D03*
X118534406Y-157561804D03*
X118534406Y-156561804D03*
D30*
X117804406Y-156331804D03*
D31*
X117794406Y-158301804D03*
D30*
X117304406Y-156321804D03*
D31*
X117299406Y-158306804D03*
X116794406Y-158301804D03*
D30*
X116794406Y-156331804D03*
D32*
X116064406Y-158061804D03*
X116064406Y-157551804D03*
X116064406Y-157061804D03*
X116064406Y-156531804D03*
%TD*%
D27*
%TO.C,FSR2*%
X79461781Y-53336665D03*
X80543654Y-54418538D03*
%TD*%
D18*
%TO.C,TP6*%
X99000000Y-201750000D03*
%TD*%
D33*
%TO.C,C4*%
X57710000Y-90624029D03*
D34*
X55990000Y-90630000D03*
%TD*%
D35*
%TO.C,J2*%
X147414062Y-200118630D03*
D36*
X143737107Y-201957107D03*
D37*
X143026910Y-201242556D03*
D36*
X142322894Y-200542894D03*
X141615787Y-199835787D03*
D35*
X143436587Y-196176509D03*
%TD*%
D10*
%TO.C,J3*%
X136310000Y-190840000D03*
D11*
X135010000Y-194740000D03*
D12*
X134002551Y-194736921D03*
D11*
X133010000Y-194740000D03*
X132010000Y-194740000D03*
D10*
X130710000Y-190865000D03*
%TD*%
D18*
%TO.C,TP10*%
X122000000Y-162250000D03*
%TD*%
D38*
%TO.C,C2*%
X112105971Y-155270000D03*
D39*
X112100000Y-153550000D03*
%TD*%
D38*
%TO.C,C3*%
X114105971Y-155970000D03*
D39*
X114100000Y-154250000D03*
%TD*%
D13*
%TO.C,J10*%
X136230000Y-42400000D03*
D14*
X137530000Y-38525000D03*
X138530000Y-38525000D03*
D13*
X139830000Y-42395000D03*
X139830000Y-42400000D03*
%TD*%
D18*
%TO.C,TP4*%
X116320000Y-203480000D03*
%TD*%
M02*
