%TF.GenerationSoftware,KiCad,Pcbnew,10.0.1*%
%TF.CreationDate,2026-09-15T10:36:35+02:00*%
%TF.ProjectId,HandFPC,48616e64-4650-4432-9e6b-696361645f70,rev?*%
%TF.SameCoordinates,Original*%
%TF.FileFunction,Other,User*%
%FSLAX46Y46*%
G04 Gerber Fmt 4.6, Leading zero omitted, Abs format (unit mm)*
G04 Created by KiCad (PCBNEW 10.0.1) date 2026-09-15 10:36:35*
%MOMM*%
%LPD*%
G01*
G04 APERTURE LIST*
%ADD10C,0.150000*%
%ADD11C,0.100000*%
G04 APERTURE END LIST*
D10*
X110829160Y-217652200D02*
X110972017Y-217699819D01*
X110972017Y-217699819D02*
X111210112Y-217699819D01*
X111210112Y-217699819D02*
X111305350Y-217652200D01*
X111305350Y-217652200D02*
X111352969Y-217604580D01*
X111352969Y-217604580D02*
X111400588Y-217509342D01*
X111400588Y-217509342D02*
X111400588Y-217414104D01*
X111400588Y-217414104D02*
X111352969Y-217318866D01*
X111352969Y-217318866D02*
X111305350Y-217271247D01*
X111305350Y-217271247D02*
X111210112Y-217223628D01*
X111210112Y-217223628D02*
X111019636Y-217176009D01*
X111019636Y-217176009D02*
X110924398Y-217128390D01*
X110924398Y-217128390D02*
X110876779Y-217080771D01*
X110876779Y-217080771D02*
X110829160Y-216985533D01*
X110829160Y-216985533D02*
X110829160Y-216890295D01*
X110829160Y-216890295D02*
X110876779Y-216795057D01*
X110876779Y-216795057D02*
X110924398Y-216747438D01*
X110924398Y-216747438D02*
X111019636Y-216699819D01*
X111019636Y-216699819D02*
X111257731Y-216699819D01*
X111257731Y-216699819D02*
X111400588Y-216747438D01*
X111686303Y-216699819D02*
X112257731Y-216699819D01*
X111972017Y-217699819D02*
X111972017Y-216699819D01*
X112591065Y-217699819D02*
X112591065Y-216699819D01*
X113400588Y-217176009D02*
X113067255Y-217176009D01*
X113067255Y-217699819D02*
X113067255Y-216699819D01*
X113067255Y-216699819D02*
X113543445Y-216699819D01*
X114257731Y-217176009D02*
X113924398Y-217176009D01*
X113924398Y-217699819D02*
X113924398Y-216699819D01*
X113924398Y-216699819D02*
X114400588Y-216699819D01*
X114781541Y-217176009D02*
X115114874Y-217176009D01*
X115257731Y-217699819D02*
X114781541Y-217699819D01*
X114781541Y-217699819D02*
X114781541Y-216699819D01*
X114781541Y-216699819D02*
X115257731Y-216699819D01*
X115686303Y-217699819D02*
X115686303Y-216699819D01*
X115686303Y-216699819D02*
X116257731Y-217699819D01*
X116257731Y-217699819D02*
X116257731Y-216699819D01*
X116733922Y-217176009D02*
X117067255Y-217176009D01*
X117210112Y-217699819D02*
X116733922Y-217699819D01*
X116733922Y-217699819D02*
X116733922Y-216699819D01*
X116733922Y-216699819D02*
X117210112Y-216699819D01*
X118210112Y-217699819D02*
X117876779Y-217223628D01*
X117638684Y-217699819D02*
X117638684Y-216699819D01*
X117638684Y-216699819D02*
X118019636Y-216699819D01*
X118019636Y-216699819D02*
X118114874Y-216747438D01*
X118114874Y-216747438D02*
X118162493Y-216795057D01*
X118162493Y-216795057D02*
X118210112Y-216890295D01*
X118210112Y-216890295D02*
X118210112Y-217033152D01*
X118210112Y-217033152D02*
X118162493Y-217128390D01*
X118162493Y-217128390D02*
X118114874Y-217176009D01*
X118114874Y-217176009D02*
X118019636Y-217223628D01*
X118019636Y-217223628D02*
X117638684Y-217223628D01*
X52767800Y-90869160D02*
X52720180Y-91012017D01*
X52720180Y-91012017D02*
X52720180Y-91250112D01*
X52720180Y-91250112D02*
X52767800Y-91345350D01*
X52767800Y-91345350D02*
X52815419Y-91392969D01*
X52815419Y-91392969D02*
X52910657Y-91440588D01*
X52910657Y-91440588D02*
X53005895Y-91440588D01*
X53005895Y-91440588D02*
X53101133Y-91392969D01*
X53101133Y-91392969D02*
X53148752Y-91345350D01*
X53148752Y-91345350D02*
X53196371Y-91250112D01*
X53196371Y-91250112D02*
X53243990Y-91059636D01*
X53243990Y-91059636D02*
X53291609Y-90964398D01*
X53291609Y-90964398D02*
X53339228Y-90916779D01*
X53339228Y-90916779D02*
X53434466Y-90869160D01*
X53434466Y-90869160D02*
X53529704Y-90869160D01*
X53529704Y-90869160D02*
X53624942Y-90916779D01*
X53624942Y-90916779D02*
X53672561Y-90964398D01*
X53672561Y-90964398D02*
X53720180Y-91059636D01*
X53720180Y-91059636D02*
X53720180Y-91297731D01*
X53720180Y-91297731D02*
X53672561Y-91440588D01*
X53720180Y-91726303D02*
X53720180Y-92297731D01*
X52720180Y-92012017D02*
X53720180Y-92012017D01*
X52720180Y-92631065D02*
X53720180Y-92631065D01*
X53243990Y-93440588D02*
X53243990Y-93107255D01*
X52720180Y-93107255D02*
X53720180Y-93107255D01*
X53720180Y-93107255D02*
X53720180Y-93583445D01*
X53243990Y-94297731D02*
X53243990Y-93964398D01*
X52720180Y-93964398D02*
X53720180Y-93964398D01*
X53720180Y-93964398D02*
X53720180Y-94440588D01*
X53243990Y-94821541D02*
X53243990Y-95154874D01*
X52720180Y-95297731D02*
X52720180Y-94821541D01*
X52720180Y-94821541D02*
X53720180Y-94821541D01*
X53720180Y-94821541D02*
X53720180Y-95297731D01*
X52720180Y-95726303D02*
X53720180Y-95726303D01*
X53720180Y-95726303D02*
X52720180Y-96297731D01*
X52720180Y-96297731D02*
X53720180Y-96297731D01*
X53243990Y-96773922D02*
X53243990Y-97107255D01*
X52720180Y-97250112D02*
X52720180Y-96773922D01*
X52720180Y-96773922D02*
X53720180Y-96773922D01*
X53720180Y-96773922D02*
X53720180Y-97250112D01*
X52720180Y-98250112D02*
X53196371Y-97916779D01*
X52720180Y-97678684D02*
X53720180Y-97678684D01*
X53720180Y-97678684D02*
X53720180Y-98059636D01*
X53720180Y-98059636D02*
X53672561Y-98154874D01*
X53672561Y-98154874D02*
X53624942Y-98202493D01*
X53624942Y-98202493D02*
X53529704Y-98250112D01*
X53529704Y-98250112D02*
X53386847Y-98250112D01*
X53386847Y-98250112D02*
X53291609Y-98202493D01*
X53291609Y-98202493D02*
X53243990Y-98154874D01*
X53243990Y-98154874D02*
X53196371Y-98059636D01*
X53196371Y-98059636D02*
X53196371Y-97678684D01*
X117245300Y-204161660D02*
X117197680Y-204304517D01*
X117197680Y-204304517D02*
X117197680Y-204542612D01*
X117197680Y-204542612D02*
X117245300Y-204637850D01*
X117245300Y-204637850D02*
X117292919Y-204685469D01*
X117292919Y-204685469D02*
X117388157Y-204733088D01*
X117388157Y-204733088D02*
X117483395Y-204733088D01*
X117483395Y-204733088D02*
X117578633Y-204685469D01*
X117578633Y-204685469D02*
X117626252Y-204637850D01*
X117626252Y-204637850D02*
X117673871Y-204542612D01*
X117673871Y-204542612D02*
X117721490Y-204352136D01*
X117721490Y-204352136D02*
X117769109Y-204256898D01*
X117769109Y-204256898D02*
X117816728Y-204209279D01*
X117816728Y-204209279D02*
X117911966Y-204161660D01*
X117911966Y-204161660D02*
X118007204Y-204161660D01*
X118007204Y-204161660D02*
X118102442Y-204209279D01*
X118102442Y-204209279D02*
X118150061Y-204256898D01*
X118150061Y-204256898D02*
X118197680Y-204352136D01*
X118197680Y-204352136D02*
X118197680Y-204590231D01*
X118197680Y-204590231D02*
X118150061Y-204733088D01*
X118197680Y-205018803D02*
X118197680Y-205590231D01*
X117197680Y-205304517D02*
X118197680Y-205304517D01*
X117197680Y-205923565D02*
X118197680Y-205923565D01*
X117721490Y-206733088D02*
X117721490Y-206399755D01*
X117197680Y-206399755D02*
X118197680Y-206399755D01*
X118197680Y-206399755D02*
X118197680Y-206875945D01*
X117721490Y-207590231D02*
X117721490Y-207256898D01*
X117197680Y-207256898D02*
X118197680Y-207256898D01*
X118197680Y-207256898D02*
X118197680Y-207733088D01*
X117721490Y-208114041D02*
X117721490Y-208447374D01*
X117197680Y-208590231D02*
X117197680Y-208114041D01*
X117197680Y-208114041D02*
X118197680Y-208114041D01*
X118197680Y-208114041D02*
X118197680Y-208590231D01*
X117197680Y-209018803D02*
X118197680Y-209018803D01*
X118197680Y-209018803D02*
X117197680Y-209590231D01*
X117197680Y-209590231D02*
X118197680Y-209590231D01*
X117721490Y-210066422D02*
X117721490Y-210399755D01*
X117197680Y-210542612D02*
X117197680Y-210066422D01*
X117197680Y-210066422D02*
X118197680Y-210066422D01*
X118197680Y-210066422D02*
X118197680Y-210542612D01*
X117197680Y-211542612D02*
X117673871Y-211209279D01*
X117197680Y-210971184D02*
X118197680Y-210971184D01*
X118197680Y-210971184D02*
X118197680Y-211352136D01*
X118197680Y-211352136D02*
X118150061Y-211447374D01*
X118150061Y-211447374D02*
X118102442Y-211494993D01*
X118102442Y-211494993D02*
X118007204Y-211542612D01*
X118007204Y-211542612D02*
X117864347Y-211542612D01*
X117864347Y-211542612D02*
X117769109Y-211494993D01*
X117769109Y-211494993D02*
X117721490Y-211447374D01*
X117721490Y-211447374D02*
X117673871Y-211352136D01*
X117673871Y-211352136D02*
X117673871Y-210971184D01*
X119760839Y-225602548D02*
X119617982Y-225554928D01*
X119617982Y-225554928D02*
X119379887Y-225554928D01*
X119379887Y-225554928D02*
X119284649Y-225602548D01*
X119284649Y-225602548D02*
X119237030Y-225650167D01*
X119237030Y-225650167D02*
X119189411Y-225745405D01*
X119189411Y-225745405D02*
X119189411Y-225840643D01*
X119189411Y-225840643D02*
X119237030Y-225935881D01*
X119237030Y-225935881D02*
X119284649Y-225983500D01*
X119284649Y-225983500D02*
X119379887Y-226031119D01*
X119379887Y-226031119D02*
X119570363Y-226078738D01*
X119570363Y-226078738D02*
X119665601Y-226126357D01*
X119665601Y-226126357D02*
X119713220Y-226173976D01*
X119713220Y-226173976D02*
X119760839Y-226269214D01*
X119760839Y-226269214D02*
X119760839Y-226364452D01*
X119760839Y-226364452D02*
X119713220Y-226459690D01*
X119713220Y-226459690D02*
X119665601Y-226507309D01*
X119665601Y-226507309D02*
X119570363Y-226554928D01*
X119570363Y-226554928D02*
X119332268Y-226554928D01*
X119332268Y-226554928D02*
X119189411Y-226507309D01*
X118903696Y-226554928D02*
X118332268Y-226554928D01*
X118617982Y-225554928D02*
X118617982Y-226554928D01*
X117998934Y-225554928D02*
X117998934Y-226554928D01*
X117189411Y-226078738D02*
X117522744Y-226078738D01*
X117522744Y-225554928D02*
X117522744Y-226554928D01*
X117522744Y-226554928D02*
X117046554Y-226554928D01*
X116332268Y-226078738D02*
X116665601Y-226078738D01*
X116665601Y-225554928D02*
X116665601Y-226554928D01*
X116665601Y-226554928D02*
X116189411Y-226554928D01*
X115808458Y-226078738D02*
X115475125Y-226078738D01*
X115332268Y-225554928D02*
X115808458Y-225554928D01*
X115808458Y-225554928D02*
X115808458Y-226554928D01*
X115808458Y-226554928D02*
X115332268Y-226554928D01*
X114903696Y-225554928D02*
X114903696Y-226554928D01*
X114903696Y-226554928D02*
X114332268Y-225554928D01*
X114332268Y-225554928D02*
X114332268Y-226554928D01*
X113856077Y-226078738D02*
X113522744Y-226078738D01*
X113379887Y-225554928D02*
X113856077Y-225554928D01*
X113856077Y-225554928D02*
X113856077Y-226554928D01*
X113856077Y-226554928D02*
X113379887Y-226554928D01*
X112379887Y-225554928D02*
X112713220Y-226031119D01*
X112951315Y-225554928D02*
X112951315Y-226554928D01*
X112951315Y-226554928D02*
X112570363Y-226554928D01*
X112570363Y-226554928D02*
X112475125Y-226507309D01*
X112475125Y-226507309D02*
X112427506Y-226459690D01*
X112427506Y-226459690D02*
X112379887Y-226364452D01*
X112379887Y-226364452D02*
X112379887Y-226221595D01*
X112379887Y-226221595D02*
X112427506Y-226126357D01*
X112427506Y-226126357D02*
X112475125Y-226078738D01*
X112475125Y-226078738D02*
X112570363Y-226031119D01*
X112570363Y-226031119D02*
X112951315Y-226031119D01*
X79289160Y-120322200D02*
X79432017Y-120369819D01*
X79432017Y-120369819D02*
X79670112Y-120369819D01*
X79670112Y-120369819D02*
X79765350Y-120322200D01*
X79765350Y-120322200D02*
X79812969Y-120274580D01*
X79812969Y-120274580D02*
X79860588Y-120179342D01*
X79860588Y-120179342D02*
X79860588Y-120084104D01*
X79860588Y-120084104D02*
X79812969Y-119988866D01*
X79812969Y-119988866D02*
X79765350Y-119941247D01*
X79765350Y-119941247D02*
X79670112Y-119893628D01*
X79670112Y-119893628D02*
X79479636Y-119846009D01*
X79479636Y-119846009D02*
X79384398Y-119798390D01*
X79384398Y-119798390D02*
X79336779Y-119750771D01*
X79336779Y-119750771D02*
X79289160Y-119655533D01*
X79289160Y-119655533D02*
X79289160Y-119560295D01*
X79289160Y-119560295D02*
X79336779Y-119465057D01*
X79336779Y-119465057D02*
X79384398Y-119417438D01*
X79384398Y-119417438D02*
X79479636Y-119369819D01*
X79479636Y-119369819D02*
X79717731Y-119369819D01*
X79717731Y-119369819D02*
X79860588Y-119417438D01*
X80146303Y-119369819D02*
X80717731Y-119369819D01*
X80432017Y-120369819D02*
X80432017Y-119369819D01*
X81051065Y-120369819D02*
X81051065Y-119369819D01*
X81860588Y-119846009D02*
X81527255Y-119846009D01*
X81527255Y-120369819D02*
X81527255Y-119369819D01*
X81527255Y-119369819D02*
X82003445Y-119369819D01*
X82717731Y-119846009D02*
X82384398Y-119846009D01*
X82384398Y-120369819D02*
X82384398Y-119369819D01*
X82384398Y-119369819D02*
X82860588Y-119369819D01*
X83241541Y-119846009D02*
X83574874Y-119846009D01*
X83717731Y-120369819D02*
X83241541Y-120369819D01*
X83241541Y-120369819D02*
X83241541Y-119369819D01*
X83241541Y-119369819D02*
X83717731Y-119369819D01*
X84146303Y-120369819D02*
X84146303Y-119369819D01*
X84146303Y-119369819D02*
X84717731Y-120369819D01*
X84717731Y-120369819D02*
X84717731Y-119369819D01*
X85193922Y-119846009D02*
X85527255Y-119846009D01*
X85670112Y-120369819D02*
X85193922Y-120369819D01*
X85193922Y-120369819D02*
X85193922Y-119369819D01*
X85193922Y-119369819D02*
X85670112Y-119369819D01*
X86670112Y-120369819D02*
X86336779Y-119893628D01*
X86098684Y-120369819D02*
X86098684Y-119369819D01*
X86098684Y-119369819D02*
X86479636Y-119369819D01*
X86479636Y-119369819D02*
X86574874Y-119417438D01*
X86574874Y-119417438D02*
X86622493Y-119465057D01*
X86622493Y-119465057D02*
X86670112Y-119560295D01*
X86670112Y-119560295D02*
X86670112Y-119703152D01*
X86670112Y-119703152D02*
X86622493Y-119798390D01*
X86622493Y-119798390D02*
X86574874Y-119846009D01*
X86574874Y-119846009D02*
X86479636Y-119893628D01*
X86479636Y-119893628D02*
X86098684Y-119893628D01*
X123698339Y-196775300D02*
X123555482Y-196727680D01*
X123555482Y-196727680D02*
X123317387Y-196727680D01*
X123317387Y-196727680D02*
X123222149Y-196775300D01*
X123222149Y-196775300D02*
X123174530Y-196822919D01*
X123174530Y-196822919D02*
X123126911Y-196918157D01*
X123126911Y-196918157D02*
X123126911Y-197013395D01*
X123126911Y-197013395D02*
X123174530Y-197108633D01*
X123174530Y-197108633D02*
X123222149Y-197156252D01*
X123222149Y-197156252D02*
X123317387Y-197203871D01*
X123317387Y-197203871D02*
X123507863Y-197251490D01*
X123507863Y-197251490D02*
X123603101Y-197299109D01*
X123603101Y-197299109D02*
X123650720Y-197346728D01*
X123650720Y-197346728D02*
X123698339Y-197441966D01*
X123698339Y-197441966D02*
X123698339Y-197537204D01*
X123698339Y-197537204D02*
X123650720Y-197632442D01*
X123650720Y-197632442D02*
X123603101Y-197680061D01*
X123603101Y-197680061D02*
X123507863Y-197727680D01*
X123507863Y-197727680D02*
X123269768Y-197727680D01*
X123269768Y-197727680D02*
X123126911Y-197680061D01*
X122841196Y-197727680D02*
X122269768Y-197727680D01*
X122555482Y-196727680D02*
X122555482Y-197727680D01*
X121936434Y-196727680D02*
X121936434Y-197727680D01*
X121126911Y-197251490D02*
X121460244Y-197251490D01*
X121460244Y-196727680D02*
X121460244Y-197727680D01*
X121460244Y-197727680D02*
X120984054Y-197727680D01*
X120269768Y-197251490D02*
X120603101Y-197251490D01*
X120603101Y-196727680D02*
X120603101Y-197727680D01*
X120603101Y-197727680D02*
X120126911Y-197727680D01*
X119745958Y-197251490D02*
X119412625Y-197251490D01*
X119269768Y-196727680D02*
X119745958Y-196727680D01*
X119745958Y-196727680D02*
X119745958Y-197727680D01*
X119745958Y-197727680D02*
X119269768Y-197727680D01*
X118841196Y-196727680D02*
X118841196Y-197727680D01*
X118841196Y-197727680D02*
X118269768Y-196727680D01*
X118269768Y-196727680D02*
X118269768Y-197727680D01*
X117793577Y-197251490D02*
X117460244Y-197251490D01*
X117317387Y-196727680D02*
X117793577Y-196727680D01*
X117793577Y-196727680D02*
X117793577Y-197727680D01*
X117793577Y-197727680D02*
X117317387Y-197727680D01*
X116317387Y-196727680D02*
X116650720Y-197203871D01*
X116888815Y-196727680D02*
X116888815Y-197727680D01*
X116888815Y-197727680D02*
X116507863Y-197727680D01*
X116507863Y-197727680D02*
X116412625Y-197680061D01*
X116412625Y-197680061D02*
X116365006Y-197632442D01*
X116365006Y-197632442D02*
X116317387Y-197537204D01*
X116317387Y-197537204D02*
X116317387Y-197394347D01*
X116317387Y-197394347D02*
X116365006Y-197299109D01*
X116365006Y-197299109D02*
X116412625Y-197251490D01*
X116412625Y-197251490D02*
X116507863Y-197203871D01*
X116507863Y-197203871D02*
X116888815Y-197203871D01*
X58240600Y-189160679D02*
X58353268Y-189060771D01*
X58353268Y-189060771D02*
X58472316Y-188854575D01*
X58472316Y-188854575D02*
X58478696Y-188748286D01*
X58478696Y-188748286D02*
X58461266Y-188683238D01*
X58461266Y-188683238D02*
X58402597Y-188594379D01*
X58402597Y-188594379D02*
X58320118Y-188546760D01*
X58320118Y-188546760D02*
X58213830Y-188540380D01*
X58213830Y-188540380D02*
X58148781Y-188557810D01*
X58148781Y-188557810D02*
X58059923Y-188616479D01*
X58059923Y-188616479D02*
X57923445Y-188757627D01*
X57923445Y-188757627D02*
X57834587Y-188816296D01*
X57834587Y-188816296D02*
X57769538Y-188833726D01*
X57769538Y-188833726D02*
X57663250Y-188827346D01*
X57663250Y-188827346D02*
X57580771Y-188779727D01*
X57580771Y-188779727D02*
X57522102Y-188690869D01*
X57522102Y-188690869D02*
X57504673Y-188625820D01*
X57504673Y-188625820D02*
X57511052Y-188519532D01*
X57511052Y-188519532D02*
X57630100Y-188313335D01*
X57630100Y-188313335D02*
X57742768Y-188213427D01*
X57844386Y-187942181D02*
X58130100Y-187447310D01*
X58853268Y-188194746D02*
X57987243Y-187694746D01*
X59162792Y-187658634D02*
X58296767Y-187158634D01*
X59113921Y-186695662D02*
X58947255Y-186984337D01*
X59400887Y-187246242D02*
X58534862Y-186746242D01*
X58534862Y-186746242D02*
X58772957Y-186333849D01*
X59542493Y-185953354D02*
X59375826Y-186242029D01*
X59829459Y-186503934D02*
X58963433Y-186003934D01*
X58963433Y-186003934D02*
X59201528Y-185591541D01*
X59804398Y-185499722D02*
X59971064Y-185211047D01*
X60496125Y-185349234D02*
X60258030Y-185761627D01*
X60258030Y-185761627D02*
X59392005Y-185261627D01*
X59392005Y-185261627D02*
X59630100Y-184849234D01*
X60710411Y-184978080D02*
X59844386Y-184478080D01*
X59844386Y-184478080D02*
X60996125Y-184483208D01*
X60996125Y-184483208D02*
X60130100Y-183983208D01*
X60780588Y-183808910D02*
X60947255Y-183520235D01*
X61472316Y-183658422D02*
X61234221Y-184070815D01*
X61234221Y-184070815D02*
X60368195Y-183570815D01*
X60368195Y-183570815D02*
X60606290Y-183158422D01*
X61972316Y-182792396D02*
X61393256Y-182842976D01*
X61686602Y-183287268D02*
X60820576Y-182787268D01*
X60820576Y-182787268D02*
X61011052Y-182457354D01*
X61011052Y-182457354D02*
X61099911Y-182398685D01*
X61099911Y-182398685D02*
X61164960Y-182381255D01*
X61164960Y-182381255D02*
X61271248Y-182387635D01*
X61271248Y-182387635D02*
X61394966Y-182459063D01*
X61394966Y-182459063D02*
X61453635Y-182547922D01*
X61453635Y-182547922D02*
X61471064Y-182612970D01*
X61471064Y-182612970D02*
X61464685Y-182719258D01*
X61464685Y-182719258D02*
X61274209Y-183049173D01*
X104539160Y-91822200D02*
X104682017Y-91869819D01*
X104682017Y-91869819D02*
X104920112Y-91869819D01*
X104920112Y-91869819D02*
X105015350Y-91822200D01*
X105015350Y-91822200D02*
X105062969Y-91774580D01*
X105062969Y-91774580D02*
X105110588Y-91679342D01*
X105110588Y-91679342D02*
X105110588Y-91584104D01*
X105110588Y-91584104D02*
X105062969Y-91488866D01*
X105062969Y-91488866D02*
X105015350Y-91441247D01*
X105015350Y-91441247D02*
X104920112Y-91393628D01*
X104920112Y-91393628D02*
X104729636Y-91346009D01*
X104729636Y-91346009D02*
X104634398Y-91298390D01*
X104634398Y-91298390D02*
X104586779Y-91250771D01*
X104586779Y-91250771D02*
X104539160Y-91155533D01*
X104539160Y-91155533D02*
X104539160Y-91060295D01*
X104539160Y-91060295D02*
X104586779Y-90965057D01*
X104586779Y-90965057D02*
X104634398Y-90917438D01*
X104634398Y-90917438D02*
X104729636Y-90869819D01*
X104729636Y-90869819D02*
X104967731Y-90869819D01*
X104967731Y-90869819D02*
X105110588Y-90917438D01*
X105396303Y-90869819D02*
X105967731Y-90869819D01*
X105682017Y-91869819D02*
X105682017Y-90869819D01*
X106301065Y-91869819D02*
X106301065Y-90869819D01*
X107110588Y-91346009D02*
X106777255Y-91346009D01*
X106777255Y-91869819D02*
X106777255Y-90869819D01*
X106777255Y-90869819D02*
X107253445Y-90869819D01*
X107967731Y-91346009D02*
X107634398Y-91346009D01*
X107634398Y-91869819D02*
X107634398Y-90869819D01*
X107634398Y-90869819D02*
X108110588Y-90869819D01*
X108491541Y-91346009D02*
X108824874Y-91346009D01*
X108967731Y-91869819D02*
X108491541Y-91869819D01*
X108491541Y-91869819D02*
X108491541Y-90869819D01*
X108491541Y-90869819D02*
X108967731Y-90869819D01*
X109396303Y-91869819D02*
X109396303Y-90869819D01*
X109396303Y-90869819D02*
X109967731Y-91869819D01*
X109967731Y-91869819D02*
X109967731Y-90869819D01*
X110443922Y-91346009D02*
X110777255Y-91346009D01*
X110920112Y-91869819D02*
X110443922Y-91869819D01*
X110443922Y-91869819D02*
X110443922Y-90869819D01*
X110443922Y-90869819D02*
X110920112Y-90869819D01*
X111920112Y-91869819D02*
X111586779Y-91393628D01*
X111348684Y-91869819D02*
X111348684Y-90869819D01*
X111348684Y-90869819D02*
X111729636Y-90869819D01*
X111729636Y-90869819D02*
X111824874Y-90917438D01*
X111824874Y-90917438D02*
X111872493Y-90965057D01*
X111872493Y-90965057D02*
X111920112Y-91060295D01*
X111920112Y-91060295D02*
X111920112Y-91203152D01*
X111920112Y-91203152D02*
X111872493Y-91298390D01*
X111872493Y-91298390D02*
X111824874Y-91346009D01*
X111824874Y-91346009D02*
X111729636Y-91393628D01*
X111729636Y-91393628D02*
X111348684Y-91393628D01*
X104039160Y-55822200D02*
X104182017Y-55869819D01*
X104182017Y-55869819D02*
X104420112Y-55869819D01*
X104420112Y-55869819D02*
X104515350Y-55822200D01*
X104515350Y-55822200D02*
X104562969Y-55774580D01*
X104562969Y-55774580D02*
X104610588Y-55679342D01*
X104610588Y-55679342D02*
X104610588Y-55584104D01*
X104610588Y-55584104D02*
X104562969Y-55488866D01*
X104562969Y-55488866D02*
X104515350Y-55441247D01*
X104515350Y-55441247D02*
X104420112Y-55393628D01*
X104420112Y-55393628D02*
X104229636Y-55346009D01*
X104229636Y-55346009D02*
X104134398Y-55298390D01*
X104134398Y-55298390D02*
X104086779Y-55250771D01*
X104086779Y-55250771D02*
X104039160Y-55155533D01*
X104039160Y-55155533D02*
X104039160Y-55060295D01*
X104039160Y-55060295D02*
X104086779Y-54965057D01*
X104086779Y-54965057D02*
X104134398Y-54917438D01*
X104134398Y-54917438D02*
X104229636Y-54869819D01*
X104229636Y-54869819D02*
X104467731Y-54869819D01*
X104467731Y-54869819D02*
X104610588Y-54917438D01*
X104896303Y-54869819D02*
X105467731Y-54869819D01*
X105182017Y-55869819D02*
X105182017Y-54869819D01*
X105801065Y-55869819D02*
X105801065Y-54869819D01*
X106610588Y-55346009D02*
X106277255Y-55346009D01*
X106277255Y-55869819D02*
X106277255Y-54869819D01*
X106277255Y-54869819D02*
X106753445Y-54869819D01*
X107467731Y-55346009D02*
X107134398Y-55346009D01*
X107134398Y-55869819D02*
X107134398Y-54869819D01*
X107134398Y-54869819D02*
X107610588Y-54869819D01*
X107991541Y-55346009D02*
X108324874Y-55346009D01*
X108467731Y-55869819D02*
X107991541Y-55869819D01*
X107991541Y-55869819D02*
X107991541Y-54869819D01*
X107991541Y-54869819D02*
X108467731Y-54869819D01*
X108896303Y-55869819D02*
X108896303Y-54869819D01*
X108896303Y-54869819D02*
X109467731Y-55869819D01*
X109467731Y-55869819D02*
X109467731Y-54869819D01*
X109943922Y-55346009D02*
X110277255Y-55346009D01*
X110420112Y-55869819D02*
X109943922Y-55869819D01*
X109943922Y-55869819D02*
X109943922Y-54869819D01*
X109943922Y-54869819D02*
X110420112Y-54869819D01*
X111420112Y-55869819D02*
X111086779Y-55393628D01*
X110848684Y-55869819D02*
X110848684Y-54869819D01*
X110848684Y-54869819D02*
X111229636Y-54869819D01*
X111229636Y-54869819D02*
X111324874Y-54917438D01*
X111324874Y-54917438D02*
X111372493Y-54965057D01*
X111372493Y-54965057D02*
X111420112Y-55060295D01*
X111420112Y-55060295D02*
X111420112Y-55203152D01*
X111420112Y-55203152D02*
X111372493Y-55298390D01*
X111372493Y-55298390D02*
X111324874Y-55346009D01*
X111324874Y-55346009D02*
X111229636Y-55393628D01*
X111229636Y-55393628D02*
X110848684Y-55393628D01*
X116617800Y-151399160D02*
X116570180Y-151542017D01*
X116570180Y-151542017D02*
X116570180Y-151780112D01*
X116570180Y-151780112D02*
X116617800Y-151875350D01*
X116617800Y-151875350D02*
X116665419Y-151922969D01*
X116665419Y-151922969D02*
X116760657Y-151970588D01*
X116760657Y-151970588D02*
X116855895Y-151970588D01*
X116855895Y-151970588D02*
X116951133Y-151922969D01*
X116951133Y-151922969D02*
X116998752Y-151875350D01*
X116998752Y-151875350D02*
X117046371Y-151780112D01*
X117046371Y-151780112D02*
X117093990Y-151589636D01*
X117093990Y-151589636D02*
X117141609Y-151494398D01*
X117141609Y-151494398D02*
X117189228Y-151446779D01*
X117189228Y-151446779D02*
X117284466Y-151399160D01*
X117284466Y-151399160D02*
X117379704Y-151399160D01*
X117379704Y-151399160D02*
X117474942Y-151446779D01*
X117474942Y-151446779D02*
X117522561Y-151494398D01*
X117522561Y-151494398D02*
X117570180Y-151589636D01*
X117570180Y-151589636D02*
X117570180Y-151827731D01*
X117570180Y-151827731D02*
X117522561Y-151970588D01*
X117570180Y-152256303D02*
X117570180Y-152827731D01*
X116570180Y-152542017D02*
X117570180Y-152542017D01*
X116570180Y-153161065D02*
X117570180Y-153161065D01*
X117093990Y-153970588D02*
X117093990Y-153637255D01*
X116570180Y-153637255D02*
X117570180Y-153637255D01*
X117570180Y-153637255D02*
X117570180Y-154113445D01*
X117093990Y-154827731D02*
X117093990Y-154494398D01*
X116570180Y-154494398D02*
X117570180Y-154494398D01*
X117570180Y-154494398D02*
X117570180Y-154970588D01*
X117093990Y-155351541D02*
X117093990Y-155684874D01*
X116570180Y-155827731D02*
X116570180Y-155351541D01*
X116570180Y-155351541D02*
X117570180Y-155351541D01*
X117570180Y-155351541D02*
X117570180Y-155827731D01*
X116570180Y-156256303D02*
X117570180Y-156256303D01*
X117570180Y-156256303D02*
X116570180Y-156827731D01*
X116570180Y-156827731D02*
X117570180Y-156827731D01*
X117093990Y-157303922D02*
X117093990Y-157637255D01*
X116570180Y-157780112D02*
X116570180Y-157303922D01*
X116570180Y-157303922D02*
X117570180Y-157303922D01*
X117570180Y-157303922D02*
X117570180Y-157780112D01*
X116570180Y-158780112D02*
X117046371Y-158446779D01*
X116570180Y-158208684D02*
X117570180Y-158208684D01*
X117570180Y-158208684D02*
X117570180Y-158589636D01*
X117570180Y-158589636D02*
X117522561Y-158684874D01*
X117522561Y-158684874D02*
X117474942Y-158732493D01*
X117474942Y-158732493D02*
X117379704Y-158780112D01*
X117379704Y-158780112D02*
X117236847Y-158780112D01*
X117236847Y-158780112D02*
X117141609Y-158732493D01*
X117141609Y-158732493D02*
X117093990Y-158684874D01*
X117093990Y-158684874D02*
X117046371Y-158589636D01*
X117046371Y-158589636D02*
X117046371Y-158208684D01*
X107852030Y-40644958D02*
X107919374Y-40779645D01*
X107919374Y-40779645D02*
X108087732Y-40948004D01*
X108087732Y-40948004D02*
X108188748Y-40981676D01*
X108188748Y-40981676D02*
X108256091Y-40981676D01*
X108256091Y-40981676D02*
X108357106Y-40948004D01*
X108357106Y-40948004D02*
X108424450Y-40880660D01*
X108424450Y-40880660D02*
X108458122Y-40779645D01*
X108458122Y-40779645D02*
X108458122Y-40712302D01*
X108458122Y-40712302D02*
X108424450Y-40611286D01*
X108424450Y-40611286D02*
X108323435Y-40442928D01*
X108323435Y-40442928D02*
X108289763Y-40341912D01*
X108289763Y-40341912D02*
X108289763Y-40274569D01*
X108289763Y-40274569D02*
X108323435Y-40173554D01*
X108323435Y-40173554D02*
X108390778Y-40106210D01*
X108390778Y-40106210D02*
X108491793Y-40072538D01*
X108491793Y-40072538D02*
X108559137Y-40072538D01*
X108559137Y-40072538D02*
X108660152Y-40106210D01*
X108660152Y-40106210D02*
X108828511Y-40274569D01*
X108828511Y-40274569D02*
X108895855Y-40409256D01*
X109131557Y-40577615D02*
X109535618Y-40981676D01*
X108626481Y-41486752D02*
X109333587Y-40779645D01*
X109064213Y-41924485D02*
X109771320Y-41217378D01*
X110007022Y-42126515D02*
X109771320Y-41890813D01*
X109400931Y-42261202D02*
X110108037Y-41554095D01*
X110108037Y-41554095D02*
X110444755Y-41890813D01*
X110613114Y-42732607D02*
X110377412Y-42496904D01*
X110007022Y-42867294D02*
X110714129Y-42160187D01*
X110714129Y-42160187D02*
X111050847Y-42496904D01*
X110983503Y-43102996D02*
X111219205Y-43338698D01*
X110949831Y-43810103D02*
X110613114Y-43473385D01*
X110613114Y-43473385D02*
X111320221Y-42766278D01*
X111320221Y-42766278D02*
X111656938Y-43102996D01*
X111252877Y-44113149D02*
X111959984Y-43406042D01*
X111959984Y-43406042D02*
X111656938Y-44517210D01*
X111656938Y-44517210D02*
X112364045Y-43810103D01*
X112364045Y-44483538D02*
X112599747Y-44719240D01*
X112330373Y-45190645D02*
X111993656Y-44853927D01*
X111993656Y-44853927D02*
X112700763Y-44146820D01*
X112700763Y-44146820D02*
X113037480Y-44483538D01*
X113037480Y-45897751D02*
X113138495Y-45325332D01*
X112633419Y-45493690D02*
X113340526Y-44786584D01*
X113340526Y-44786584D02*
X113609900Y-45055958D01*
X113609900Y-45055958D02*
X113643572Y-45156973D01*
X113643572Y-45156973D02*
X113643572Y-45224316D01*
X113643572Y-45224316D02*
X113609900Y-45325332D01*
X113609900Y-45325332D02*
X113508885Y-45426347D01*
X113508885Y-45426347D02*
X113407869Y-45460019D01*
X113407869Y-45460019D02*
X113340526Y-45460019D01*
X113340526Y-45460019D02*
X113239511Y-45426347D01*
X113239511Y-45426347D02*
X112970137Y-45156973D01*
X158789160Y-72572200D02*
X158932017Y-72619819D01*
X158932017Y-72619819D02*
X159170112Y-72619819D01*
X159170112Y-72619819D02*
X159265350Y-72572200D01*
X159265350Y-72572200D02*
X159312969Y-72524580D01*
X159312969Y-72524580D02*
X159360588Y-72429342D01*
X159360588Y-72429342D02*
X159360588Y-72334104D01*
X159360588Y-72334104D02*
X159312969Y-72238866D01*
X159312969Y-72238866D02*
X159265350Y-72191247D01*
X159265350Y-72191247D02*
X159170112Y-72143628D01*
X159170112Y-72143628D02*
X158979636Y-72096009D01*
X158979636Y-72096009D02*
X158884398Y-72048390D01*
X158884398Y-72048390D02*
X158836779Y-72000771D01*
X158836779Y-72000771D02*
X158789160Y-71905533D01*
X158789160Y-71905533D02*
X158789160Y-71810295D01*
X158789160Y-71810295D02*
X158836779Y-71715057D01*
X158836779Y-71715057D02*
X158884398Y-71667438D01*
X158884398Y-71667438D02*
X158979636Y-71619819D01*
X158979636Y-71619819D02*
X159217731Y-71619819D01*
X159217731Y-71619819D02*
X159360588Y-71667438D01*
X159646303Y-71619819D02*
X160217731Y-71619819D01*
X159932017Y-72619819D02*
X159932017Y-71619819D01*
X160551065Y-72619819D02*
X160551065Y-71619819D01*
X161360588Y-72096009D02*
X161027255Y-72096009D01*
X161027255Y-72619819D02*
X161027255Y-71619819D01*
X161027255Y-71619819D02*
X161503445Y-71619819D01*
X162217731Y-72096009D02*
X161884398Y-72096009D01*
X161884398Y-72619819D02*
X161884398Y-71619819D01*
X161884398Y-71619819D02*
X162360588Y-71619819D01*
X162741541Y-72096009D02*
X163074874Y-72096009D01*
X163217731Y-72619819D02*
X162741541Y-72619819D01*
X162741541Y-72619819D02*
X162741541Y-71619819D01*
X162741541Y-71619819D02*
X163217731Y-71619819D01*
X163646303Y-72619819D02*
X163646303Y-71619819D01*
X163646303Y-71619819D02*
X164217731Y-72619819D01*
X164217731Y-72619819D02*
X164217731Y-71619819D01*
X164693922Y-72096009D02*
X165027255Y-72096009D01*
X165170112Y-72619819D02*
X164693922Y-72619819D01*
X164693922Y-72619819D02*
X164693922Y-71619819D01*
X164693922Y-71619819D02*
X165170112Y-71619819D01*
X166170112Y-72619819D02*
X165836779Y-72143628D01*
X165598684Y-72619819D02*
X165598684Y-71619819D01*
X165598684Y-71619819D02*
X165979636Y-71619819D01*
X165979636Y-71619819D02*
X166074874Y-71667438D01*
X166074874Y-71667438D02*
X166122493Y-71715057D01*
X166122493Y-71715057D02*
X166170112Y-71810295D01*
X166170112Y-71810295D02*
X166170112Y-71953152D01*
X166170112Y-71953152D02*
X166122493Y-72048390D01*
X166122493Y-72048390D02*
X166074874Y-72096009D01*
X166074874Y-72096009D02*
X165979636Y-72143628D01*
X165979636Y-72143628D02*
X165598684Y-72143628D01*
X73039160Y-63072200D02*
X73182017Y-63119819D01*
X73182017Y-63119819D02*
X73420112Y-63119819D01*
X73420112Y-63119819D02*
X73515350Y-63072200D01*
X73515350Y-63072200D02*
X73562969Y-63024580D01*
X73562969Y-63024580D02*
X73610588Y-62929342D01*
X73610588Y-62929342D02*
X73610588Y-62834104D01*
X73610588Y-62834104D02*
X73562969Y-62738866D01*
X73562969Y-62738866D02*
X73515350Y-62691247D01*
X73515350Y-62691247D02*
X73420112Y-62643628D01*
X73420112Y-62643628D02*
X73229636Y-62596009D01*
X73229636Y-62596009D02*
X73134398Y-62548390D01*
X73134398Y-62548390D02*
X73086779Y-62500771D01*
X73086779Y-62500771D02*
X73039160Y-62405533D01*
X73039160Y-62405533D02*
X73039160Y-62310295D01*
X73039160Y-62310295D02*
X73086779Y-62215057D01*
X73086779Y-62215057D02*
X73134398Y-62167438D01*
X73134398Y-62167438D02*
X73229636Y-62119819D01*
X73229636Y-62119819D02*
X73467731Y-62119819D01*
X73467731Y-62119819D02*
X73610588Y-62167438D01*
X73896303Y-62119819D02*
X74467731Y-62119819D01*
X74182017Y-63119819D02*
X74182017Y-62119819D01*
X74801065Y-63119819D02*
X74801065Y-62119819D01*
X75610588Y-62596009D02*
X75277255Y-62596009D01*
X75277255Y-63119819D02*
X75277255Y-62119819D01*
X75277255Y-62119819D02*
X75753445Y-62119819D01*
X76467731Y-62596009D02*
X76134398Y-62596009D01*
X76134398Y-63119819D02*
X76134398Y-62119819D01*
X76134398Y-62119819D02*
X76610588Y-62119819D01*
X76991541Y-62596009D02*
X77324874Y-62596009D01*
X77467731Y-63119819D02*
X76991541Y-63119819D01*
X76991541Y-63119819D02*
X76991541Y-62119819D01*
X76991541Y-62119819D02*
X77467731Y-62119819D01*
X77896303Y-63119819D02*
X77896303Y-62119819D01*
X77896303Y-62119819D02*
X78467731Y-63119819D01*
X78467731Y-63119819D02*
X78467731Y-62119819D01*
X78943922Y-62596009D02*
X79277255Y-62596009D01*
X79420112Y-63119819D02*
X78943922Y-63119819D01*
X78943922Y-63119819D02*
X78943922Y-62119819D01*
X78943922Y-62119819D02*
X79420112Y-62119819D01*
X80420112Y-63119819D02*
X80086779Y-62643628D01*
X79848684Y-63119819D02*
X79848684Y-62119819D01*
X79848684Y-62119819D02*
X80229636Y-62119819D01*
X80229636Y-62119819D02*
X80324874Y-62167438D01*
X80324874Y-62167438D02*
X80372493Y-62215057D01*
X80372493Y-62215057D02*
X80420112Y-62310295D01*
X80420112Y-62310295D02*
X80420112Y-62453152D01*
X80420112Y-62453152D02*
X80372493Y-62548390D01*
X80372493Y-62548390D02*
X80324874Y-62596009D01*
X80324874Y-62596009D02*
X80229636Y-62643628D01*
X80229636Y-62643628D02*
X79848684Y-62643628D01*
X112784441Y-197835203D02*
X112649754Y-197902547D01*
X112649754Y-197902547D02*
X112481395Y-198070905D01*
X112481395Y-198070905D02*
X112447723Y-198171921D01*
X112447723Y-198171921D02*
X112447723Y-198239264D01*
X112447723Y-198239264D02*
X112481395Y-198340279D01*
X112481395Y-198340279D02*
X112548739Y-198407623D01*
X112548739Y-198407623D02*
X112649754Y-198441295D01*
X112649754Y-198441295D02*
X112717097Y-198441295D01*
X112717097Y-198441295D02*
X112818113Y-198407623D01*
X112818113Y-198407623D02*
X112986471Y-198306608D01*
X112986471Y-198306608D02*
X113087487Y-198272936D01*
X113087487Y-198272936D02*
X113154830Y-198272936D01*
X113154830Y-198272936D02*
X113255845Y-198306608D01*
X113255845Y-198306608D02*
X113323189Y-198373951D01*
X113323189Y-198373951D02*
X113356861Y-198474966D01*
X113356861Y-198474966D02*
X113356861Y-198542310D01*
X113356861Y-198542310D02*
X113323189Y-198643325D01*
X113323189Y-198643325D02*
X113154830Y-198811684D01*
X113154830Y-198811684D02*
X113020143Y-198879028D01*
X112851784Y-199114730D02*
X112447723Y-199518791D01*
X111942647Y-198609654D02*
X112649754Y-199316760D01*
X111504914Y-199047386D02*
X112212021Y-199754493D01*
X111302884Y-199990195D02*
X111538586Y-199754493D01*
X111168197Y-199384104D02*
X111875304Y-200091210D01*
X111875304Y-200091210D02*
X111538586Y-200427928D01*
X110696792Y-200596287D02*
X110932495Y-200360585D01*
X110562105Y-199990195D02*
X111269212Y-200697302D01*
X111269212Y-200697302D02*
X110932495Y-201034020D01*
X110326403Y-200966676D02*
X110090701Y-201202378D01*
X109619296Y-200933004D02*
X109956014Y-200596287D01*
X109956014Y-200596287D02*
X110663121Y-201303394D01*
X110663121Y-201303394D02*
X110326403Y-201640111D01*
X109316250Y-201236050D02*
X110023357Y-201943157D01*
X110023357Y-201943157D02*
X108912189Y-201640111D01*
X108912189Y-201640111D02*
X109619296Y-202347218D01*
X108945861Y-202347218D02*
X108710159Y-202582920D01*
X108238754Y-202313546D02*
X108575472Y-201976829D01*
X108575472Y-201976829D02*
X109282579Y-202683936D01*
X109282579Y-202683936D02*
X108945861Y-203020653D01*
X107531648Y-203020653D02*
X108104067Y-203121668D01*
X107935709Y-202616592D02*
X108642815Y-203323699D01*
X108642815Y-203323699D02*
X108373441Y-203593073D01*
X108373441Y-203593073D02*
X108272426Y-203626745D01*
X108272426Y-203626745D02*
X108205083Y-203626745D01*
X108205083Y-203626745D02*
X108104067Y-203593073D01*
X108104067Y-203593073D02*
X108003052Y-203492058D01*
X108003052Y-203492058D02*
X107969380Y-203391042D01*
X107969380Y-203391042D02*
X107969380Y-203323699D01*
X107969380Y-203323699D02*
X108003052Y-203222684D01*
X108003052Y-203222684D02*
X108272426Y-202953310D01*
X39580190Y-114828743D02*
X39647534Y-114963430D01*
X39647534Y-114963430D02*
X39815892Y-115131789D01*
X39815892Y-115131789D02*
X39916908Y-115165461D01*
X39916908Y-115165461D02*
X39984251Y-115165461D01*
X39984251Y-115165461D02*
X40085266Y-115131789D01*
X40085266Y-115131789D02*
X40152610Y-115064445D01*
X40152610Y-115064445D02*
X40186282Y-114963430D01*
X40186282Y-114963430D02*
X40186282Y-114896087D01*
X40186282Y-114896087D02*
X40152610Y-114795071D01*
X40152610Y-114795071D02*
X40051595Y-114626713D01*
X40051595Y-114626713D02*
X40017923Y-114525697D01*
X40017923Y-114525697D02*
X40017923Y-114458354D01*
X40017923Y-114458354D02*
X40051595Y-114357339D01*
X40051595Y-114357339D02*
X40118938Y-114289995D01*
X40118938Y-114289995D02*
X40219953Y-114256323D01*
X40219953Y-114256323D02*
X40287297Y-114256323D01*
X40287297Y-114256323D02*
X40388312Y-114289995D01*
X40388312Y-114289995D02*
X40556671Y-114458354D01*
X40556671Y-114458354D02*
X40624015Y-114593041D01*
X40859717Y-114761400D02*
X41263778Y-115165461D01*
X40354641Y-115670537D02*
X41061747Y-114963430D01*
X40792373Y-116108270D02*
X41499480Y-115401163D01*
X41735182Y-116310300D02*
X41499480Y-116074598D01*
X41129091Y-116444987D02*
X41836197Y-115737880D01*
X41836197Y-115737880D02*
X42172915Y-116074598D01*
X42341274Y-116916392D02*
X42105572Y-116680689D01*
X41735182Y-117051079D02*
X42442289Y-116343972D01*
X42442289Y-116343972D02*
X42779007Y-116680689D01*
X42711663Y-117286781D02*
X42947365Y-117522483D01*
X42677991Y-117993888D02*
X42341274Y-117657170D01*
X42341274Y-117657170D02*
X43048381Y-116950063D01*
X43048381Y-116950063D02*
X43385098Y-117286781D01*
X42981037Y-118296934D02*
X43688144Y-117589827D01*
X43688144Y-117589827D02*
X43385098Y-118700995D01*
X43385098Y-118700995D02*
X44092205Y-117993888D01*
X44092205Y-118667323D02*
X44327907Y-118903025D01*
X44058533Y-119374430D02*
X43721816Y-119037712D01*
X43721816Y-119037712D02*
X44428923Y-118330605D01*
X44428923Y-118330605D02*
X44765640Y-118667323D01*
X44765640Y-120081536D02*
X44866655Y-119509117D01*
X44361579Y-119677475D02*
X45068686Y-118970369D01*
X45068686Y-118970369D02*
X45338060Y-119239743D01*
X45338060Y-119239743D02*
X45371732Y-119340758D01*
X45371732Y-119340758D02*
X45371732Y-119408101D01*
X45371732Y-119408101D02*
X45338060Y-119509117D01*
X45338060Y-119509117D02*
X45237045Y-119610132D01*
X45237045Y-119610132D02*
X45136029Y-119643804D01*
X45136029Y-119643804D02*
X45068686Y-119643804D01*
X45068686Y-119643804D02*
X44967671Y-119610132D01*
X44967671Y-119610132D02*
X44698297Y-119340758D01*
X33039160Y-125322200D02*
X33182017Y-125369819D01*
X33182017Y-125369819D02*
X33420112Y-125369819D01*
X33420112Y-125369819D02*
X33515350Y-125322200D01*
X33515350Y-125322200D02*
X33562969Y-125274580D01*
X33562969Y-125274580D02*
X33610588Y-125179342D01*
X33610588Y-125179342D02*
X33610588Y-125084104D01*
X33610588Y-125084104D02*
X33562969Y-124988866D01*
X33562969Y-124988866D02*
X33515350Y-124941247D01*
X33515350Y-124941247D02*
X33420112Y-124893628D01*
X33420112Y-124893628D02*
X33229636Y-124846009D01*
X33229636Y-124846009D02*
X33134398Y-124798390D01*
X33134398Y-124798390D02*
X33086779Y-124750771D01*
X33086779Y-124750771D02*
X33039160Y-124655533D01*
X33039160Y-124655533D02*
X33039160Y-124560295D01*
X33039160Y-124560295D02*
X33086779Y-124465057D01*
X33086779Y-124465057D02*
X33134398Y-124417438D01*
X33134398Y-124417438D02*
X33229636Y-124369819D01*
X33229636Y-124369819D02*
X33467731Y-124369819D01*
X33467731Y-124369819D02*
X33610588Y-124417438D01*
X33896303Y-124369819D02*
X34467731Y-124369819D01*
X34182017Y-125369819D02*
X34182017Y-124369819D01*
X34801065Y-125369819D02*
X34801065Y-124369819D01*
X35610588Y-124846009D02*
X35277255Y-124846009D01*
X35277255Y-125369819D02*
X35277255Y-124369819D01*
X35277255Y-124369819D02*
X35753445Y-124369819D01*
X36467731Y-124846009D02*
X36134398Y-124846009D01*
X36134398Y-125369819D02*
X36134398Y-124369819D01*
X36134398Y-124369819D02*
X36610588Y-124369819D01*
X36991541Y-124846009D02*
X37324874Y-124846009D01*
X37467731Y-125369819D02*
X36991541Y-125369819D01*
X36991541Y-125369819D02*
X36991541Y-124369819D01*
X36991541Y-124369819D02*
X37467731Y-124369819D01*
X37896303Y-125369819D02*
X37896303Y-124369819D01*
X37896303Y-124369819D02*
X38467731Y-125369819D01*
X38467731Y-125369819D02*
X38467731Y-124369819D01*
X38943922Y-124846009D02*
X39277255Y-124846009D01*
X39420112Y-125369819D02*
X38943922Y-125369819D01*
X38943922Y-125369819D02*
X38943922Y-124369819D01*
X38943922Y-124369819D02*
X39420112Y-124369819D01*
X40420112Y-125369819D02*
X40086779Y-124893628D01*
X39848684Y-125369819D02*
X39848684Y-124369819D01*
X39848684Y-124369819D02*
X40229636Y-124369819D01*
X40229636Y-124369819D02*
X40324874Y-124417438D01*
X40324874Y-124417438D02*
X40372493Y-124465057D01*
X40372493Y-124465057D02*
X40420112Y-124560295D01*
X40420112Y-124560295D02*
X40420112Y-124703152D01*
X40420112Y-124703152D02*
X40372493Y-124798390D01*
X40372493Y-124798390D02*
X40324874Y-124846009D01*
X40324874Y-124846009D02*
X40229636Y-124893628D01*
X40229636Y-124893628D02*
X39848684Y-124893628D01*
X139771472Y-49014786D02*
X139838816Y-49149473D01*
X139838816Y-49149473D02*
X140007174Y-49317832D01*
X140007174Y-49317832D02*
X140108190Y-49351504D01*
X140108190Y-49351504D02*
X140175533Y-49351504D01*
X140175533Y-49351504D02*
X140276548Y-49317832D01*
X140276548Y-49317832D02*
X140343892Y-49250488D01*
X140343892Y-49250488D02*
X140377564Y-49149473D01*
X140377564Y-49149473D02*
X140377564Y-49082130D01*
X140377564Y-49082130D02*
X140343892Y-48981114D01*
X140343892Y-48981114D02*
X140242877Y-48812756D01*
X140242877Y-48812756D02*
X140209205Y-48711740D01*
X140209205Y-48711740D02*
X140209205Y-48644397D01*
X140209205Y-48644397D02*
X140242877Y-48543382D01*
X140242877Y-48543382D02*
X140310220Y-48476038D01*
X140310220Y-48476038D02*
X140411235Y-48442366D01*
X140411235Y-48442366D02*
X140478579Y-48442366D01*
X140478579Y-48442366D02*
X140579594Y-48476038D01*
X140579594Y-48476038D02*
X140747953Y-48644397D01*
X140747953Y-48644397D02*
X140815297Y-48779084D01*
X141050999Y-48947443D02*
X141455060Y-49351504D01*
X140545923Y-49856580D02*
X141253029Y-49149473D01*
X140983655Y-50294313D02*
X141690762Y-49587206D01*
X141926464Y-50496343D02*
X141690762Y-50260641D01*
X141320373Y-50631030D02*
X142027479Y-49923923D01*
X142027479Y-49923923D02*
X142364197Y-50260641D01*
X142532556Y-51102435D02*
X142296854Y-50866732D01*
X141926464Y-51237122D02*
X142633571Y-50530015D01*
X142633571Y-50530015D02*
X142970289Y-50866732D01*
X142902945Y-51472824D02*
X143138647Y-51708526D01*
X142869273Y-52179931D02*
X142532556Y-51843213D01*
X142532556Y-51843213D02*
X143239663Y-51136106D01*
X143239663Y-51136106D02*
X143576380Y-51472824D01*
X143172319Y-52482977D02*
X143879426Y-51775870D01*
X143879426Y-51775870D02*
X143576380Y-52887038D01*
X143576380Y-52887038D02*
X144283487Y-52179931D01*
X144283487Y-52853366D02*
X144519189Y-53089068D01*
X144249815Y-53560473D02*
X143913098Y-53223755D01*
X143913098Y-53223755D02*
X144620205Y-52516648D01*
X144620205Y-52516648D02*
X144956922Y-52853366D01*
X144956922Y-54267579D02*
X145057937Y-53695160D01*
X144552861Y-53863518D02*
X145259968Y-53156412D01*
X145259968Y-53156412D02*
X145529342Y-53425786D01*
X145529342Y-53425786D02*
X145563014Y-53526801D01*
X145563014Y-53526801D02*
X145563014Y-53594144D01*
X145563014Y-53594144D02*
X145529342Y-53695160D01*
X145529342Y-53695160D02*
X145428327Y-53796175D01*
X145428327Y-53796175D02*
X145327311Y-53829847D01*
X145327311Y-53829847D02*
X145259968Y-53829847D01*
X145259968Y-53829847D02*
X145158953Y-53796175D01*
X145158953Y-53796175D02*
X144889579Y-53526801D01*
X164161472Y-63114786D02*
X164228816Y-63249473D01*
X164228816Y-63249473D02*
X164397174Y-63417832D01*
X164397174Y-63417832D02*
X164498190Y-63451504D01*
X164498190Y-63451504D02*
X164565533Y-63451504D01*
X164565533Y-63451504D02*
X164666548Y-63417832D01*
X164666548Y-63417832D02*
X164733892Y-63350488D01*
X164733892Y-63350488D02*
X164767564Y-63249473D01*
X164767564Y-63249473D02*
X164767564Y-63182130D01*
X164767564Y-63182130D02*
X164733892Y-63081114D01*
X164733892Y-63081114D02*
X164632877Y-62912756D01*
X164632877Y-62912756D02*
X164599205Y-62811740D01*
X164599205Y-62811740D02*
X164599205Y-62744397D01*
X164599205Y-62744397D02*
X164632877Y-62643382D01*
X164632877Y-62643382D02*
X164700220Y-62576038D01*
X164700220Y-62576038D02*
X164801235Y-62542366D01*
X164801235Y-62542366D02*
X164868579Y-62542366D01*
X164868579Y-62542366D02*
X164969594Y-62576038D01*
X164969594Y-62576038D02*
X165137953Y-62744397D01*
X165137953Y-62744397D02*
X165205297Y-62879084D01*
X165440999Y-63047443D02*
X165845060Y-63451504D01*
X164935923Y-63956580D02*
X165643029Y-63249473D01*
X165373655Y-64394313D02*
X166080762Y-63687206D01*
X166316464Y-64596343D02*
X166080762Y-64360641D01*
X165710373Y-64731030D02*
X166417479Y-64023923D01*
X166417479Y-64023923D02*
X166754197Y-64360641D01*
X166922556Y-65202435D02*
X166686854Y-64966732D01*
X166316464Y-65337122D02*
X167023571Y-64630015D01*
X167023571Y-64630015D02*
X167360289Y-64966732D01*
X167292945Y-65572824D02*
X167528647Y-65808526D01*
X167259273Y-66279931D02*
X166922556Y-65943213D01*
X166922556Y-65943213D02*
X167629663Y-65236106D01*
X167629663Y-65236106D02*
X167966380Y-65572824D01*
X167562319Y-66582977D02*
X168269426Y-65875870D01*
X168269426Y-65875870D02*
X167966380Y-66987038D01*
X167966380Y-66987038D02*
X168673487Y-66279931D01*
X168673487Y-66953366D02*
X168909189Y-67189068D01*
X168639815Y-67660473D02*
X168303098Y-67323755D01*
X168303098Y-67323755D02*
X169010205Y-66616648D01*
X169010205Y-66616648D02*
X169346922Y-66953366D01*
X169346922Y-68367579D02*
X169447937Y-67795160D01*
X168942861Y-67963518D02*
X169649968Y-67256412D01*
X169649968Y-67256412D02*
X169919342Y-67525786D01*
X169919342Y-67525786D02*
X169953014Y-67626801D01*
X169953014Y-67626801D02*
X169953014Y-67694144D01*
X169953014Y-67694144D02*
X169919342Y-67795160D01*
X169919342Y-67795160D02*
X169818327Y-67896175D01*
X169818327Y-67896175D02*
X169717311Y-67929847D01*
X169717311Y-67929847D02*
X169649968Y-67929847D01*
X169649968Y-67929847D02*
X169548953Y-67896175D01*
X169548953Y-67896175D02*
X169279579Y-67626801D01*
X120705245Y-153939604D02*
X120562388Y-153891984D01*
X120562388Y-153891984D02*
X120324293Y-153891984D01*
X120324293Y-153891984D02*
X120229055Y-153939604D01*
X120229055Y-153939604D02*
X120181436Y-153987223D01*
X120181436Y-153987223D02*
X120133817Y-154082461D01*
X120133817Y-154082461D02*
X120133817Y-154177699D01*
X120133817Y-154177699D02*
X120181436Y-154272937D01*
X120181436Y-154272937D02*
X120229055Y-154320556D01*
X120229055Y-154320556D02*
X120324293Y-154368175D01*
X120324293Y-154368175D02*
X120514769Y-154415794D01*
X120514769Y-154415794D02*
X120610007Y-154463413D01*
X120610007Y-154463413D02*
X120657626Y-154511032D01*
X120657626Y-154511032D02*
X120705245Y-154606270D01*
X120705245Y-154606270D02*
X120705245Y-154701508D01*
X120705245Y-154701508D02*
X120657626Y-154796746D01*
X120657626Y-154796746D02*
X120610007Y-154844365D01*
X120610007Y-154844365D02*
X120514769Y-154891984D01*
X120514769Y-154891984D02*
X120276674Y-154891984D01*
X120276674Y-154891984D02*
X120133817Y-154844365D01*
X119848102Y-154891984D02*
X119276674Y-154891984D01*
X119562388Y-153891984D02*
X119562388Y-154891984D01*
X118943340Y-153891984D02*
X118943340Y-154891984D01*
X118133817Y-154415794D02*
X118467150Y-154415794D01*
X118467150Y-153891984D02*
X118467150Y-154891984D01*
X118467150Y-154891984D02*
X117990960Y-154891984D01*
X117276674Y-154415794D02*
X117610007Y-154415794D01*
X117610007Y-153891984D02*
X117610007Y-154891984D01*
X117610007Y-154891984D02*
X117133817Y-154891984D01*
X116752864Y-154415794D02*
X116419531Y-154415794D01*
X116276674Y-153891984D02*
X116752864Y-153891984D01*
X116752864Y-153891984D02*
X116752864Y-154891984D01*
X116752864Y-154891984D02*
X116276674Y-154891984D01*
X115848102Y-153891984D02*
X115848102Y-154891984D01*
X115848102Y-154891984D02*
X115276674Y-153891984D01*
X115276674Y-153891984D02*
X115276674Y-154891984D01*
X114800483Y-154415794D02*
X114467150Y-154415794D01*
X114324293Y-153891984D02*
X114800483Y-153891984D01*
X114800483Y-153891984D02*
X114800483Y-154891984D01*
X114800483Y-154891984D02*
X114324293Y-154891984D01*
X113324293Y-153891984D02*
X113657626Y-154368175D01*
X113895721Y-153891984D02*
X113895721Y-154891984D01*
X113895721Y-154891984D02*
X113514769Y-154891984D01*
X113514769Y-154891984D02*
X113419531Y-154844365D01*
X113419531Y-154844365D02*
X113371912Y-154796746D01*
X113371912Y-154796746D02*
X113324293Y-154701508D01*
X113324293Y-154701508D02*
X113324293Y-154558651D01*
X113324293Y-154558651D02*
X113371912Y-154463413D01*
X113371912Y-154463413D02*
X113419531Y-154415794D01*
X113419531Y-154415794D02*
X113514769Y-154368175D01*
X113514769Y-154368175D02*
X113895721Y-154368175D01*
X79578905Y-53008493D02*
X79646249Y-53143180D01*
X79646249Y-53143180D02*
X79814607Y-53311539D01*
X79814607Y-53311539D02*
X79915623Y-53345211D01*
X79915623Y-53345211D02*
X79982966Y-53345211D01*
X79982966Y-53345211D02*
X80083981Y-53311539D01*
X80083981Y-53311539D02*
X80151325Y-53244195D01*
X80151325Y-53244195D02*
X80184997Y-53143180D01*
X80184997Y-53143180D02*
X80184997Y-53075837D01*
X80184997Y-53075837D02*
X80151325Y-52974821D01*
X80151325Y-52974821D02*
X80050310Y-52806463D01*
X80050310Y-52806463D02*
X80016638Y-52705447D01*
X80016638Y-52705447D02*
X80016638Y-52638104D01*
X80016638Y-52638104D02*
X80050310Y-52537089D01*
X80050310Y-52537089D02*
X80117653Y-52469745D01*
X80117653Y-52469745D02*
X80218668Y-52436073D01*
X80218668Y-52436073D02*
X80286012Y-52436073D01*
X80286012Y-52436073D02*
X80387027Y-52469745D01*
X80387027Y-52469745D02*
X80555386Y-52638104D01*
X80555386Y-52638104D02*
X80622730Y-52772791D01*
X80858432Y-52941150D02*
X81262493Y-53345211D01*
X80353356Y-53850287D02*
X81060462Y-53143180D01*
X80791088Y-54288020D02*
X81498195Y-53580913D01*
X81733897Y-54490050D02*
X81498195Y-54254348D01*
X81127806Y-54624737D02*
X81834912Y-53917630D01*
X81834912Y-53917630D02*
X82171630Y-54254348D01*
X82339989Y-55096142D02*
X82104287Y-54860439D01*
X81733897Y-55230829D02*
X82441004Y-54523722D01*
X82441004Y-54523722D02*
X82777722Y-54860439D01*
X82710378Y-55466531D02*
X82946080Y-55702233D01*
X82676706Y-56173638D02*
X82339989Y-55836920D01*
X82339989Y-55836920D02*
X83047096Y-55129813D01*
X83047096Y-55129813D02*
X83383813Y-55466531D01*
X82979752Y-56476684D02*
X83686859Y-55769577D01*
X83686859Y-55769577D02*
X83383813Y-56880745D01*
X83383813Y-56880745D02*
X84090920Y-56173638D01*
X84090920Y-56847073D02*
X84326622Y-57082775D01*
X84057248Y-57554180D02*
X83720531Y-57217462D01*
X83720531Y-57217462D02*
X84427638Y-56510355D01*
X84427638Y-56510355D02*
X84764355Y-56847073D01*
X84764355Y-58261286D02*
X84865370Y-57688867D01*
X84360294Y-57857225D02*
X85067401Y-57150119D01*
X85067401Y-57150119D02*
X85336775Y-57419493D01*
X85336775Y-57419493D02*
X85370447Y-57520508D01*
X85370447Y-57520508D02*
X85370447Y-57587851D01*
X85370447Y-57587851D02*
X85336775Y-57688867D01*
X85336775Y-57688867D02*
X85235760Y-57789882D01*
X85235760Y-57789882D02*
X85134744Y-57823554D01*
X85134744Y-57823554D02*
X85067401Y-57823554D01*
X85067401Y-57823554D02*
X84966386Y-57789882D01*
X84966386Y-57789882D02*
X84697012Y-57520508D01*
X55539160Y-101072200D02*
X55682017Y-101119819D01*
X55682017Y-101119819D02*
X55920112Y-101119819D01*
X55920112Y-101119819D02*
X56015350Y-101072200D01*
X56015350Y-101072200D02*
X56062969Y-101024580D01*
X56062969Y-101024580D02*
X56110588Y-100929342D01*
X56110588Y-100929342D02*
X56110588Y-100834104D01*
X56110588Y-100834104D02*
X56062969Y-100738866D01*
X56062969Y-100738866D02*
X56015350Y-100691247D01*
X56015350Y-100691247D02*
X55920112Y-100643628D01*
X55920112Y-100643628D02*
X55729636Y-100596009D01*
X55729636Y-100596009D02*
X55634398Y-100548390D01*
X55634398Y-100548390D02*
X55586779Y-100500771D01*
X55586779Y-100500771D02*
X55539160Y-100405533D01*
X55539160Y-100405533D02*
X55539160Y-100310295D01*
X55539160Y-100310295D02*
X55586779Y-100215057D01*
X55586779Y-100215057D02*
X55634398Y-100167438D01*
X55634398Y-100167438D02*
X55729636Y-100119819D01*
X55729636Y-100119819D02*
X55967731Y-100119819D01*
X55967731Y-100119819D02*
X56110588Y-100167438D01*
X56396303Y-100119819D02*
X56967731Y-100119819D01*
X56682017Y-101119819D02*
X56682017Y-100119819D01*
X57301065Y-101119819D02*
X57301065Y-100119819D01*
X58110588Y-100596009D02*
X57777255Y-100596009D01*
X57777255Y-101119819D02*
X57777255Y-100119819D01*
X57777255Y-100119819D02*
X58253445Y-100119819D01*
X58967731Y-100596009D02*
X58634398Y-100596009D01*
X58634398Y-101119819D02*
X58634398Y-100119819D01*
X58634398Y-100119819D02*
X59110588Y-100119819D01*
X59491541Y-100596009D02*
X59824874Y-100596009D01*
X59967731Y-101119819D02*
X59491541Y-101119819D01*
X59491541Y-101119819D02*
X59491541Y-100119819D01*
X59491541Y-100119819D02*
X59967731Y-100119819D01*
X60396303Y-101119819D02*
X60396303Y-100119819D01*
X60396303Y-100119819D02*
X60967731Y-101119819D01*
X60967731Y-101119819D02*
X60967731Y-100119819D01*
X61443922Y-100596009D02*
X61777255Y-100596009D01*
X61920112Y-101119819D02*
X61443922Y-101119819D01*
X61443922Y-101119819D02*
X61443922Y-100119819D01*
X61443922Y-100119819D02*
X61920112Y-100119819D01*
X62920112Y-101119819D02*
X62586779Y-100643628D01*
X62348684Y-101119819D02*
X62348684Y-100119819D01*
X62348684Y-100119819D02*
X62729636Y-100119819D01*
X62729636Y-100119819D02*
X62824874Y-100167438D01*
X62824874Y-100167438D02*
X62872493Y-100215057D01*
X62872493Y-100215057D02*
X62920112Y-100310295D01*
X62920112Y-100310295D02*
X62920112Y-100453152D01*
X62920112Y-100453152D02*
X62872493Y-100548390D01*
X62872493Y-100548390D02*
X62824874Y-100596009D01*
X62824874Y-100596009D02*
X62729636Y-100643628D01*
X62729636Y-100643628D02*
X62348684Y-100643628D01*
X144134797Y-204294441D02*
X144067453Y-204159754D01*
X144067453Y-204159754D02*
X143899095Y-203991395D01*
X143899095Y-203991395D02*
X143798079Y-203957723D01*
X143798079Y-203957723D02*
X143730736Y-203957723D01*
X143730736Y-203957723D02*
X143629721Y-203991395D01*
X143629721Y-203991395D02*
X143562377Y-204058739D01*
X143562377Y-204058739D02*
X143528705Y-204159754D01*
X143528705Y-204159754D02*
X143528705Y-204227097D01*
X143528705Y-204227097D02*
X143562377Y-204328113D01*
X143562377Y-204328113D02*
X143663392Y-204496471D01*
X143663392Y-204496471D02*
X143697064Y-204597487D01*
X143697064Y-204597487D02*
X143697064Y-204664830D01*
X143697064Y-204664830D02*
X143663392Y-204765845D01*
X143663392Y-204765845D02*
X143596049Y-204833189D01*
X143596049Y-204833189D02*
X143495034Y-204866861D01*
X143495034Y-204866861D02*
X143427690Y-204866861D01*
X143427690Y-204866861D02*
X143326675Y-204833189D01*
X143326675Y-204833189D02*
X143158316Y-204664830D01*
X143158316Y-204664830D02*
X143090972Y-204530143D01*
X142855270Y-204361784D02*
X142451209Y-203957723D01*
X143360346Y-203452647D02*
X142653240Y-204159754D01*
X142922614Y-203014914D02*
X142215507Y-203722021D01*
X141979805Y-202812884D02*
X142215507Y-203048586D01*
X142585896Y-202678197D02*
X141878790Y-203385304D01*
X141878790Y-203385304D02*
X141542072Y-203048586D01*
X141373713Y-202206792D02*
X141609415Y-202442495D01*
X141979805Y-202072105D02*
X141272698Y-202779212D01*
X141272698Y-202779212D02*
X140935980Y-202442495D01*
X141003324Y-201836403D02*
X140767622Y-201600701D01*
X141036996Y-201129296D02*
X141373713Y-201466014D01*
X141373713Y-201466014D02*
X140666606Y-202173121D01*
X140666606Y-202173121D02*
X140329889Y-201836403D01*
X140733950Y-200826250D02*
X140026843Y-201533357D01*
X140026843Y-201533357D02*
X140329889Y-200422189D01*
X140329889Y-200422189D02*
X139622782Y-201129296D01*
X139622782Y-200455861D02*
X139387080Y-200220159D01*
X139656454Y-199748754D02*
X139993171Y-200085472D01*
X139993171Y-200085472D02*
X139286064Y-200792579D01*
X139286064Y-200792579D02*
X138949347Y-200455861D01*
X138949347Y-199041648D02*
X138848332Y-199614067D01*
X139353408Y-199445709D02*
X138646301Y-200152815D01*
X138646301Y-200152815D02*
X138376927Y-199883441D01*
X138376927Y-199883441D02*
X138343255Y-199782426D01*
X138343255Y-199782426D02*
X138343255Y-199715083D01*
X138343255Y-199715083D02*
X138376927Y-199614067D01*
X138376927Y-199614067D02*
X138477942Y-199513052D01*
X138477942Y-199513052D02*
X138578958Y-199479380D01*
X138578958Y-199479380D02*
X138646301Y-199479380D01*
X138646301Y-199479380D02*
X138747316Y-199513052D01*
X138747316Y-199513052D02*
X139016690Y-199782426D01*
X136128339Y-196995300D02*
X135985482Y-196947680D01*
X135985482Y-196947680D02*
X135747387Y-196947680D01*
X135747387Y-196947680D02*
X135652149Y-196995300D01*
X135652149Y-196995300D02*
X135604530Y-197042919D01*
X135604530Y-197042919D02*
X135556911Y-197138157D01*
X135556911Y-197138157D02*
X135556911Y-197233395D01*
X135556911Y-197233395D02*
X135604530Y-197328633D01*
X135604530Y-197328633D02*
X135652149Y-197376252D01*
X135652149Y-197376252D02*
X135747387Y-197423871D01*
X135747387Y-197423871D02*
X135937863Y-197471490D01*
X135937863Y-197471490D02*
X136033101Y-197519109D01*
X136033101Y-197519109D02*
X136080720Y-197566728D01*
X136080720Y-197566728D02*
X136128339Y-197661966D01*
X136128339Y-197661966D02*
X136128339Y-197757204D01*
X136128339Y-197757204D02*
X136080720Y-197852442D01*
X136080720Y-197852442D02*
X136033101Y-197900061D01*
X136033101Y-197900061D02*
X135937863Y-197947680D01*
X135937863Y-197947680D02*
X135699768Y-197947680D01*
X135699768Y-197947680D02*
X135556911Y-197900061D01*
X135271196Y-197947680D02*
X134699768Y-197947680D01*
X134985482Y-196947680D02*
X134985482Y-197947680D01*
X134366434Y-196947680D02*
X134366434Y-197947680D01*
X133556911Y-197471490D02*
X133890244Y-197471490D01*
X133890244Y-196947680D02*
X133890244Y-197947680D01*
X133890244Y-197947680D02*
X133414054Y-197947680D01*
X132699768Y-197471490D02*
X133033101Y-197471490D01*
X133033101Y-196947680D02*
X133033101Y-197947680D01*
X133033101Y-197947680D02*
X132556911Y-197947680D01*
X132175958Y-197471490D02*
X131842625Y-197471490D01*
X131699768Y-196947680D02*
X132175958Y-196947680D01*
X132175958Y-196947680D02*
X132175958Y-197947680D01*
X132175958Y-197947680D02*
X131699768Y-197947680D01*
X131271196Y-196947680D02*
X131271196Y-197947680D01*
X131271196Y-197947680D02*
X130699768Y-196947680D01*
X130699768Y-196947680D02*
X130699768Y-197947680D01*
X130223577Y-197471490D02*
X129890244Y-197471490D01*
X129747387Y-196947680D02*
X130223577Y-196947680D01*
X130223577Y-196947680D02*
X130223577Y-197947680D01*
X130223577Y-197947680D02*
X129747387Y-197947680D01*
X128747387Y-196947680D02*
X129080720Y-197423871D01*
X129318815Y-196947680D02*
X129318815Y-197947680D01*
X129318815Y-197947680D02*
X128937863Y-197947680D01*
X128937863Y-197947680D02*
X128842625Y-197900061D01*
X128842625Y-197900061D02*
X128795006Y-197852442D01*
X128795006Y-197852442D02*
X128747387Y-197757204D01*
X128747387Y-197757204D02*
X128747387Y-197614347D01*
X128747387Y-197614347D02*
X128795006Y-197519109D01*
X128795006Y-197519109D02*
X128842625Y-197471490D01*
X128842625Y-197471490D02*
X128937863Y-197423871D01*
X128937863Y-197423871D02*
X129318815Y-197423871D01*
X157039160Y-102572200D02*
X157182017Y-102619819D01*
X157182017Y-102619819D02*
X157420112Y-102619819D01*
X157420112Y-102619819D02*
X157515350Y-102572200D01*
X157515350Y-102572200D02*
X157562969Y-102524580D01*
X157562969Y-102524580D02*
X157610588Y-102429342D01*
X157610588Y-102429342D02*
X157610588Y-102334104D01*
X157610588Y-102334104D02*
X157562969Y-102238866D01*
X157562969Y-102238866D02*
X157515350Y-102191247D01*
X157515350Y-102191247D02*
X157420112Y-102143628D01*
X157420112Y-102143628D02*
X157229636Y-102096009D01*
X157229636Y-102096009D02*
X157134398Y-102048390D01*
X157134398Y-102048390D02*
X157086779Y-102000771D01*
X157086779Y-102000771D02*
X157039160Y-101905533D01*
X157039160Y-101905533D02*
X157039160Y-101810295D01*
X157039160Y-101810295D02*
X157086779Y-101715057D01*
X157086779Y-101715057D02*
X157134398Y-101667438D01*
X157134398Y-101667438D02*
X157229636Y-101619819D01*
X157229636Y-101619819D02*
X157467731Y-101619819D01*
X157467731Y-101619819D02*
X157610588Y-101667438D01*
X157896303Y-101619819D02*
X158467731Y-101619819D01*
X158182017Y-102619819D02*
X158182017Y-101619819D01*
X158801065Y-102619819D02*
X158801065Y-101619819D01*
X159610588Y-102096009D02*
X159277255Y-102096009D01*
X159277255Y-102619819D02*
X159277255Y-101619819D01*
X159277255Y-101619819D02*
X159753445Y-101619819D01*
X160467731Y-102096009D02*
X160134398Y-102096009D01*
X160134398Y-102619819D02*
X160134398Y-101619819D01*
X160134398Y-101619819D02*
X160610588Y-101619819D01*
X160991541Y-102096009D02*
X161324874Y-102096009D01*
X161467731Y-102619819D02*
X160991541Y-102619819D01*
X160991541Y-102619819D02*
X160991541Y-101619819D01*
X160991541Y-101619819D02*
X161467731Y-101619819D01*
X161896303Y-102619819D02*
X161896303Y-101619819D01*
X161896303Y-101619819D02*
X162467731Y-102619819D01*
X162467731Y-102619819D02*
X162467731Y-101619819D01*
X162943922Y-102096009D02*
X163277255Y-102096009D01*
X163420112Y-102619819D02*
X162943922Y-102619819D01*
X162943922Y-102619819D02*
X162943922Y-101619819D01*
X162943922Y-101619819D02*
X163420112Y-101619819D01*
X164420112Y-102619819D02*
X164086779Y-102143628D01*
X163848684Y-102619819D02*
X163848684Y-101619819D01*
X163848684Y-101619819D02*
X164229636Y-101619819D01*
X164229636Y-101619819D02*
X164324874Y-101667438D01*
X164324874Y-101667438D02*
X164372493Y-101715057D01*
X164372493Y-101715057D02*
X164420112Y-101810295D01*
X164420112Y-101810295D02*
X164420112Y-101953152D01*
X164420112Y-101953152D02*
X164372493Y-102048390D01*
X164372493Y-102048390D02*
X164324874Y-102096009D01*
X164324874Y-102096009D02*
X164229636Y-102143628D01*
X164229636Y-102143628D02*
X163848684Y-102143628D01*
X133789160Y-94322200D02*
X133932017Y-94369819D01*
X133932017Y-94369819D02*
X134170112Y-94369819D01*
X134170112Y-94369819D02*
X134265350Y-94322200D01*
X134265350Y-94322200D02*
X134312969Y-94274580D01*
X134312969Y-94274580D02*
X134360588Y-94179342D01*
X134360588Y-94179342D02*
X134360588Y-94084104D01*
X134360588Y-94084104D02*
X134312969Y-93988866D01*
X134312969Y-93988866D02*
X134265350Y-93941247D01*
X134265350Y-93941247D02*
X134170112Y-93893628D01*
X134170112Y-93893628D02*
X133979636Y-93846009D01*
X133979636Y-93846009D02*
X133884398Y-93798390D01*
X133884398Y-93798390D02*
X133836779Y-93750771D01*
X133836779Y-93750771D02*
X133789160Y-93655533D01*
X133789160Y-93655533D02*
X133789160Y-93560295D01*
X133789160Y-93560295D02*
X133836779Y-93465057D01*
X133836779Y-93465057D02*
X133884398Y-93417438D01*
X133884398Y-93417438D02*
X133979636Y-93369819D01*
X133979636Y-93369819D02*
X134217731Y-93369819D01*
X134217731Y-93369819D02*
X134360588Y-93417438D01*
X134646303Y-93369819D02*
X135217731Y-93369819D01*
X134932017Y-94369819D02*
X134932017Y-93369819D01*
X135551065Y-94369819D02*
X135551065Y-93369819D01*
X136360588Y-93846009D02*
X136027255Y-93846009D01*
X136027255Y-94369819D02*
X136027255Y-93369819D01*
X136027255Y-93369819D02*
X136503445Y-93369819D01*
X137217731Y-93846009D02*
X136884398Y-93846009D01*
X136884398Y-94369819D02*
X136884398Y-93369819D01*
X136884398Y-93369819D02*
X137360588Y-93369819D01*
X137741541Y-93846009D02*
X138074874Y-93846009D01*
X138217731Y-94369819D02*
X137741541Y-94369819D01*
X137741541Y-94369819D02*
X137741541Y-93369819D01*
X137741541Y-93369819D02*
X138217731Y-93369819D01*
X138646303Y-94369819D02*
X138646303Y-93369819D01*
X138646303Y-93369819D02*
X139217731Y-94369819D01*
X139217731Y-94369819D02*
X139217731Y-93369819D01*
X139693922Y-93846009D02*
X140027255Y-93846009D01*
X140170112Y-94369819D02*
X139693922Y-94369819D01*
X139693922Y-94369819D02*
X139693922Y-93369819D01*
X139693922Y-93369819D02*
X140170112Y-93369819D01*
X141170112Y-94369819D02*
X140836779Y-93893628D01*
X140598684Y-94369819D02*
X140598684Y-93369819D01*
X140598684Y-93369819D02*
X140979636Y-93369819D01*
X140979636Y-93369819D02*
X141074874Y-93417438D01*
X141074874Y-93417438D02*
X141122493Y-93465057D01*
X141122493Y-93465057D02*
X141170112Y-93560295D01*
X141170112Y-93560295D02*
X141170112Y-93703152D01*
X141170112Y-93703152D02*
X141122493Y-93798390D01*
X141122493Y-93798390D02*
X141074874Y-93846009D01*
X141074874Y-93846009D02*
X140979636Y-93893628D01*
X140979636Y-93893628D02*
X140598684Y-93893628D01*
X114282200Y-156900839D02*
X114329819Y-156757982D01*
X114329819Y-156757982D02*
X114329819Y-156519887D01*
X114329819Y-156519887D02*
X114282200Y-156424649D01*
X114282200Y-156424649D02*
X114234580Y-156377030D01*
X114234580Y-156377030D02*
X114139342Y-156329411D01*
X114139342Y-156329411D02*
X114044104Y-156329411D01*
X114044104Y-156329411D02*
X113948866Y-156377030D01*
X113948866Y-156377030D02*
X113901247Y-156424649D01*
X113901247Y-156424649D02*
X113853628Y-156519887D01*
X113853628Y-156519887D02*
X113806009Y-156710363D01*
X113806009Y-156710363D02*
X113758390Y-156805601D01*
X113758390Y-156805601D02*
X113710771Y-156853220D01*
X113710771Y-156853220D02*
X113615533Y-156900839D01*
X113615533Y-156900839D02*
X113520295Y-156900839D01*
X113520295Y-156900839D02*
X113425057Y-156853220D01*
X113425057Y-156853220D02*
X113377438Y-156805601D01*
X113377438Y-156805601D02*
X113329819Y-156710363D01*
X113329819Y-156710363D02*
X113329819Y-156472268D01*
X113329819Y-156472268D02*
X113377438Y-156329411D01*
X113329819Y-156043696D02*
X113329819Y-155472268D01*
X114329819Y-155757982D02*
X113329819Y-155757982D01*
X114329819Y-155138934D02*
X113329819Y-155138934D01*
X113806009Y-154329411D02*
X113806009Y-154662744D01*
X114329819Y-154662744D02*
X113329819Y-154662744D01*
X113329819Y-154662744D02*
X113329819Y-154186554D01*
X113806009Y-153472268D02*
X113806009Y-153805601D01*
X114329819Y-153805601D02*
X113329819Y-153805601D01*
X113329819Y-153805601D02*
X113329819Y-153329411D01*
X113806009Y-152948458D02*
X113806009Y-152615125D01*
X114329819Y-152472268D02*
X114329819Y-152948458D01*
X114329819Y-152948458D02*
X113329819Y-152948458D01*
X113329819Y-152948458D02*
X113329819Y-152472268D01*
X114329819Y-152043696D02*
X113329819Y-152043696D01*
X113329819Y-152043696D02*
X114329819Y-151472268D01*
X114329819Y-151472268D02*
X113329819Y-151472268D01*
X113806009Y-150996077D02*
X113806009Y-150662744D01*
X114329819Y-150519887D02*
X114329819Y-150996077D01*
X114329819Y-150996077D02*
X113329819Y-150996077D01*
X113329819Y-150996077D02*
X113329819Y-150519887D01*
X114329819Y-149519887D02*
X113853628Y-149853220D01*
X114329819Y-150091315D02*
X113329819Y-150091315D01*
X113329819Y-150091315D02*
X113329819Y-149710363D01*
X113329819Y-149710363D02*
X113377438Y-149615125D01*
X113377438Y-149615125D02*
X113425057Y-149567506D01*
X113425057Y-149567506D02*
X113520295Y-149519887D01*
X113520295Y-149519887D02*
X113663152Y-149519887D01*
X113663152Y-149519887D02*
X113758390Y-149567506D01*
X113758390Y-149567506D02*
X113806009Y-149615125D01*
X113806009Y-149615125D02*
X113853628Y-149710363D01*
X113853628Y-149710363D02*
X113853628Y-150091315D01*
X115289160Y-166822200D02*
X115432017Y-166869819D01*
X115432017Y-166869819D02*
X115670112Y-166869819D01*
X115670112Y-166869819D02*
X115765350Y-166822200D01*
X115765350Y-166822200D02*
X115812969Y-166774580D01*
X115812969Y-166774580D02*
X115860588Y-166679342D01*
X115860588Y-166679342D02*
X115860588Y-166584104D01*
X115860588Y-166584104D02*
X115812969Y-166488866D01*
X115812969Y-166488866D02*
X115765350Y-166441247D01*
X115765350Y-166441247D02*
X115670112Y-166393628D01*
X115670112Y-166393628D02*
X115479636Y-166346009D01*
X115479636Y-166346009D02*
X115384398Y-166298390D01*
X115384398Y-166298390D02*
X115336779Y-166250771D01*
X115336779Y-166250771D02*
X115289160Y-166155533D01*
X115289160Y-166155533D02*
X115289160Y-166060295D01*
X115289160Y-166060295D02*
X115336779Y-165965057D01*
X115336779Y-165965057D02*
X115384398Y-165917438D01*
X115384398Y-165917438D02*
X115479636Y-165869819D01*
X115479636Y-165869819D02*
X115717731Y-165869819D01*
X115717731Y-165869819D02*
X115860588Y-165917438D01*
X116146303Y-165869819D02*
X116717731Y-165869819D01*
X116432017Y-166869819D02*
X116432017Y-165869819D01*
X117051065Y-166869819D02*
X117051065Y-165869819D01*
X117860588Y-166346009D02*
X117527255Y-166346009D01*
X117527255Y-166869819D02*
X117527255Y-165869819D01*
X117527255Y-165869819D02*
X118003445Y-165869819D01*
X118717731Y-166346009D02*
X118384398Y-166346009D01*
X118384398Y-166869819D02*
X118384398Y-165869819D01*
X118384398Y-165869819D02*
X118860588Y-165869819D01*
X119241541Y-166346009D02*
X119574874Y-166346009D01*
X119717731Y-166869819D02*
X119241541Y-166869819D01*
X119241541Y-166869819D02*
X119241541Y-165869819D01*
X119241541Y-165869819D02*
X119717731Y-165869819D01*
X120146303Y-166869819D02*
X120146303Y-165869819D01*
X120146303Y-165869819D02*
X120717731Y-166869819D01*
X120717731Y-166869819D02*
X120717731Y-165869819D01*
X121193922Y-166346009D02*
X121527255Y-166346009D01*
X121670112Y-166869819D02*
X121193922Y-166869819D01*
X121193922Y-166869819D02*
X121193922Y-165869819D01*
X121193922Y-165869819D02*
X121670112Y-165869819D01*
X122670112Y-166869819D02*
X122336779Y-166393628D01*
X122098684Y-166869819D02*
X122098684Y-165869819D01*
X122098684Y-165869819D02*
X122479636Y-165869819D01*
X122479636Y-165869819D02*
X122574874Y-165917438D01*
X122574874Y-165917438D02*
X122622493Y-165965057D01*
X122622493Y-165965057D02*
X122670112Y-166060295D01*
X122670112Y-166060295D02*
X122670112Y-166203152D01*
X122670112Y-166203152D02*
X122622493Y-166298390D01*
X122622493Y-166298390D02*
X122574874Y-166346009D01*
X122574874Y-166346009D02*
X122479636Y-166393628D01*
X122479636Y-166393628D02*
X122098684Y-166393628D01*
X133289160Y-61572200D02*
X133432017Y-61619819D01*
X133432017Y-61619819D02*
X133670112Y-61619819D01*
X133670112Y-61619819D02*
X133765350Y-61572200D01*
X133765350Y-61572200D02*
X133812969Y-61524580D01*
X133812969Y-61524580D02*
X133860588Y-61429342D01*
X133860588Y-61429342D02*
X133860588Y-61334104D01*
X133860588Y-61334104D02*
X133812969Y-61238866D01*
X133812969Y-61238866D02*
X133765350Y-61191247D01*
X133765350Y-61191247D02*
X133670112Y-61143628D01*
X133670112Y-61143628D02*
X133479636Y-61096009D01*
X133479636Y-61096009D02*
X133384398Y-61048390D01*
X133384398Y-61048390D02*
X133336779Y-61000771D01*
X133336779Y-61000771D02*
X133289160Y-60905533D01*
X133289160Y-60905533D02*
X133289160Y-60810295D01*
X133289160Y-60810295D02*
X133336779Y-60715057D01*
X133336779Y-60715057D02*
X133384398Y-60667438D01*
X133384398Y-60667438D02*
X133479636Y-60619819D01*
X133479636Y-60619819D02*
X133717731Y-60619819D01*
X133717731Y-60619819D02*
X133860588Y-60667438D01*
X134146303Y-60619819D02*
X134717731Y-60619819D01*
X134432017Y-61619819D02*
X134432017Y-60619819D01*
X135051065Y-61619819D02*
X135051065Y-60619819D01*
X135860588Y-61096009D02*
X135527255Y-61096009D01*
X135527255Y-61619819D02*
X135527255Y-60619819D01*
X135527255Y-60619819D02*
X136003445Y-60619819D01*
X136717731Y-61096009D02*
X136384398Y-61096009D01*
X136384398Y-61619819D02*
X136384398Y-60619819D01*
X136384398Y-60619819D02*
X136860588Y-60619819D01*
X137241541Y-61096009D02*
X137574874Y-61096009D01*
X137717731Y-61619819D02*
X137241541Y-61619819D01*
X137241541Y-61619819D02*
X137241541Y-60619819D01*
X137241541Y-60619819D02*
X137717731Y-60619819D01*
X138146303Y-61619819D02*
X138146303Y-60619819D01*
X138146303Y-60619819D02*
X138717731Y-61619819D01*
X138717731Y-61619819D02*
X138717731Y-60619819D01*
X139193922Y-61096009D02*
X139527255Y-61096009D01*
X139670112Y-61619819D02*
X139193922Y-61619819D01*
X139193922Y-61619819D02*
X139193922Y-60619819D01*
X139193922Y-60619819D02*
X139670112Y-60619819D01*
X140670112Y-61619819D02*
X140336779Y-61143628D01*
X140098684Y-61619819D02*
X140098684Y-60619819D01*
X140098684Y-60619819D02*
X140479636Y-60619819D01*
X140479636Y-60619819D02*
X140574874Y-60667438D01*
X140574874Y-60667438D02*
X140622493Y-60715057D01*
X140622493Y-60715057D02*
X140670112Y-60810295D01*
X140670112Y-60810295D02*
X140670112Y-60953152D01*
X140670112Y-60953152D02*
X140622493Y-61048390D01*
X140622493Y-61048390D02*
X140574874Y-61096009D01*
X140574874Y-61096009D02*
X140479636Y-61143628D01*
X140479636Y-61143628D02*
X140098684Y-61143628D01*
%TO.C,U2*%
D11*
X54140000Y-91700000D02*
X58800000Y-91700000D01*
X58800000Y-96450000D01*
X54140000Y-96450000D01*
X54140000Y-91700000D01*
G36*
X54140000Y-91700000D02*
G01*
X58800000Y-91700000D01*
X58800000Y-96450000D01*
X54140000Y-96450000D01*
X54140000Y-91700000D01*
G37*
%TO.C,J4*%
X109867500Y-202722500D02*
X116817500Y-202722500D01*
X116817500Y-213192500D01*
X109867500Y-213192500D01*
X109867500Y-202722500D01*
G36*
X109867500Y-202722500D02*
G01*
X116817500Y-202722500D01*
X116817500Y-213192500D01*
X109867500Y-213192500D01*
X109867500Y-202722500D01*
G37*
%TO.C,J1*%
X119850000Y-221724748D02*
X132850000Y-221724748D01*
X132850000Y-226689748D01*
X119850000Y-226689748D01*
X119850000Y-221724748D01*
G36*
X119850000Y-221724748D02*
G01*
X132850000Y-221724748D01*
X132850000Y-226689748D01*
X119850000Y-226689748D01*
X119850000Y-221724748D01*
G37*
%TO.C,FS2*%
X80930000Y-109310000D02*
X85680000Y-109310000D01*
X85680000Y-113970000D01*
X80930000Y-113970000D01*
X80930000Y-109310000D01*
G36*
X80930000Y-109310000D02*
G01*
X85680000Y-109310000D01*
X85680000Y-113970000D01*
X80930000Y-113970000D01*
X80930000Y-109310000D01*
G37*
%TO.C,J6*%
X114667500Y-189397500D02*
X125137500Y-189397500D01*
X125137500Y-196347500D01*
X114667500Y-196347500D01*
X114667500Y-189397500D01*
G36*
X114667500Y-189397500D02*
G01*
X125137500Y-189397500D01*
X125137500Y-196347500D01*
X114667500Y-196347500D01*
X114667500Y-189397500D01*
G37*
%TO.C,FS1*%
X56061141Y-176103360D02*
X53686140Y-180216980D01*
X49650461Y-177886980D01*
X52025462Y-173773360D01*
X56061141Y-176103360D01*
G36*
X56061141Y-176103360D02*
G01*
X53686140Y-180216980D01*
X49650461Y-177886980D01*
X52025462Y-173773360D01*
X56061141Y-176103360D01*
G37*
%TO.C,FS3*%
X111100000Y-101040000D02*
X115850000Y-101040000D01*
X115850000Y-105700000D01*
X111100000Y-105700000D01*
X111100000Y-101040000D01*
G36*
X111100000Y-101040000D02*
G01*
X115850000Y-101040000D01*
X115850000Y-105700000D01*
X111100000Y-105700000D01*
X111100000Y-101040000D01*
G37*
%TO.C,J9*%
X103035000Y-29642500D02*
X110645000Y-29642500D01*
X110645000Y-36592500D01*
X103035000Y-36592500D01*
X103035000Y-29642500D01*
G36*
X103035000Y-29642500D02*
G01*
X110645000Y-29642500D01*
X110645000Y-36592500D01*
X103035000Y-36592500D01*
X103035000Y-29642500D01*
G37*
%TO.C,C1*%
X117910000Y-151875000D02*
X119790000Y-151875000D01*
X119790000Y-155680000D01*
X117910000Y-155680000D01*
X117910000Y-151875000D01*
G36*
X117910000Y-151875000D02*
G01*
X119790000Y-151875000D01*
X119790000Y-155680000D01*
X117910000Y-155680000D01*
X117910000Y-151875000D01*
G37*
%TO.C,FSR3*%
X111784371Y-45245528D02*
X108489254Y-48540645D01*
X105130496Y-45181888D01*
X108425614Y-41886770D01*
X111784371Y-45245528D01*
G36*
X111784371Y-45245528D02*
G01*
X108489254Y-48540645D01*
X105130496Y-45181888D01*
X108425614Y-41886770D01*
X111784371Y-45245528D01*
G37*
%TO.C,J11*%
X158075000Y-51512500D02*
X165685000Y-51512500D01*
X165685000Y-58462500D01*
X158075000Y-58462500D01*
X158075000Y-51512500D01*
G36*
X158075000Y-51512500D02*
G01*
X165685000Y-51512500D01*
X165685000Y-58462500D01*
X158075000Y-58462500D01*
X158075000Y-51512500D01*
G37*
%TO.C,J8*%
X70775000Y-39052500D02*
X78385000Y-39052500D01*
X78385000Y-46002500D01*
X70775000Y-46002500D01*
X70775000Y-39052500D01*
G36*
X70775000Y-39052500D02*
G01*
X78385000Y-39052500D01*
X78385000Y-46002500D01*
X70775000Y-46002500D01*
X70775000Y-39052500D01*
G37*
%TO.C,J5*%
X113499581Y-196515064D02*
X106096173Y-203918472D01*
X101181781Y-199004079D01*
X108585189Y-191600671D01*
X113499581Y-196515064D01*
G36*
X113499581Y-196515064D02*
G01*
X106096173Y-203918472D01*
X101181781Y-199004079D01*
X108585189Y-191600671D01*
X113499581Y-196515064D01*
G37*
%TO.C,FSR1*%
X43361705Y-119724039D02*
X40066587Y-123019157D01*
X36707830Y-119660399D01*
X40002947Y-116365282D01*
X43361705Y-119724039D01*
G36*
X43361705Y-119724039D02*
G01*
X40066587Y-123019157D01*
X36707830Y-119660399D01*
X40002947Y-116365282D01*
X43361705Y-119724039D01*
G37*
%TO.C,J7*%
X33353865Y-101990700D02*
X40963865Y-101990700D01*
X40963865Y-108940700D01*
X33353865Y-108940700D01*
X33353865Y-101990700D01*
G36*
X33353865Y-101990700D02*
G01*
X40963865Y-101990700D01*
X40963865Y-108940700D01*
X33353865Y-108940700D01*
X33353865Y-101990700D01*
G37*
%TO.C,FSR4*%
X143386938Y-53291821D02*
X140091821Y-56586938D01*
X136733063Y-53228181D01*
X140028181Y-49933063D01*
X143386938Y-53291821D01*
G36*
X143386938Y-53291821D02*
G01*
X140091821Y-56586938D01*
X136733063Y-53228181D01*
X140028181Y-49933063D01*
X143386938Y-53291821D01*
G37*
%TO.C,FSR5*%
X167776938Y-67391821D02*
X164481821Y-70686938D01*
X161123063Y-67328181D01*
X164418181Y-64033063D01*
X167776938Y-67391821D01*
G36*
X167776938Y-67391821D02*
G01*
X164481821Y-70686938D01*
X161123063Y-67328181D01*
X164418181Y-64033063D01*
X167776938Y-67391821D01*
G37*
%TO.C,U1*%
X115041589Y-155271804D02*
X119547222Y-155271804D01*
X119547222Y-159352348D01*
X115041589Y-159352348D01*
X115041589Y-155271804D01*
G36*
X115041589Y-155271804D02*
G01*
X119547222Y-155271804D01*
X119547222Y-159352348D01*
X115041589Y-159352348D01*
X115041589Y-155271804D01*
G37*
%TO.C,FSR2*%
X83194371Y-57285528D02*
X79899254Y-60580645D01*
X76540496Y-57221888D01*
X79835614Y-53926770D01*
X83194371Y-57285528D01*
G36*
X83194371Y-57285528D02*
G01*
X79899254Y-60580645D01*
X76540496Y-57221888D01*
X79835614Y-53926770D01*
X83194371Y-57285528D01*
G37*
%TO.C,C4*%
X55060000Y-89740000D02*
X58865000Y-89740000D01*
X58865000Y-91620000D01*
X55060000Y-91620000D01*
X55060000Y-89740000D01*
G36*
X55060000Y-89740000D02*
G01*
X58865000Y-89740000D01*
X58865000Y-91620000D01*
X55060000Y-91620000D01*
X55060000Y-89740000D01*
G37*
%TO.C,J2*%
X150369330Y-200095189D02*
X145454937Y-205009581D01*
X138051529Y-197606173D01*
X142965922Y-192691781D01*
X150369330Y-200095189D01*
G36*
X150369330Y-200095189D02*
G01*
X145454937Y-205009581D01*
X138051529Y-197606173D01*
X142965922Y-192691781D01*
X150369330Y-200095189D01*
G37*
%TO.C,J3*%
X127097500Y-189617500D02*
X137567500Y-189617500D01*
X137567500Y-196567500D01*
X127097500Y-196567500D01*
X127097500Y-189617500D01*
G36*
X127097500Y-189617500D02*
G01*
X137567500Y-189617500D01*
X137567500Y-196567500D01*
X127097500Y-196567500D01*
X127097500Y-189617500D01*
G37*
%TO.C,FS5*%
X160075000Y-116700000D02*
X164825000Y-116700000D01*
X164825000Y-121360000D01*
X160075000Y-121360000D01*
X160075000Y-116700000D01*
G36*
X160075000Y-116700000D02*
G01*
X164825000Y-116700000D01*
X164825000Y-121360000D01*
X160075000Y-121360000D01*
X160075000Y-116700000D01*
G37*
%TO.C,FS4*%
X136520000Y-105890000D02*
X141270000Y-105890000D01*
X141270000Y-110550000D01*
X136520000Y-110550000D01*
X136520000Y-105890000D01*
G36*
X136520000Y-105890000D02*
G01*
X141270000Y-105890000D01*
X141270000Y-110550000D01*
X136520000Y-110550000D01*
X136520000Y-105890000D01*
G37*
%TO.C,C2*%
X111110000Y-152620000D02*
X112990000Y-152620000D01*
X112990000Y-156425000D01*
X111110000Y-156425000D01*
X111110000Y-152620000D01*
G36*
X111110000Y-152620000D02*
G01*
X112990000Y-152620000D01*
X112990000Y-156425000D01*
X111110000Y-156425000D01*
X111110000Y-152620000D01*
G37*
%TO.C,C3*%
X113110000Y-153320000D02*
X114990000Y-153320000D01*
X114990000Y-157125000D01*
X113110000Y-157125000D01*
X113110000Y-153320000D01*
G36*
X113110000Y-153320000D02*
G01*
X114990000Y-153320000D01*
X114990000Y-157125000D01*
X113110000Y-157125000D01*
X113110000Y-153320000D01*
G37*
%TO.C,J10*%
X134150000Y-37035000D02*
X141760000Y-37035000D01*
X141760000Y-43985000D01*
X134150000Y-43985000D01*
X134150000Y-37035000D01*
G36*
X134150000Y-37035000D02*
G01*
X141760000Y-37035000D01*
X141760000Y-43985000D01*
X134150000Y-43985000D01*
X134150000Y-37035000D01*
G37*
%TD*%
G36*
X78288229Y-39052700D02*
G01*
X78617705Y-39071432D01*
X78631691Y-39073027D01*
X78953433Y-39128382D01*
X78967149Y-39131553D01*
X79280562Y-39223025D01*
X79293829Y-39227730D01*
X79594836Y-39354127D01*
X79607485Y-39360305D01*
X79892241Y-39520012D01*
X79904109Y-39527584D01*
X80168922Y-39718534D01*
X80179854Y-39727402D01*
X80421316Y-39947134D01*
X80431174Y-39957185D01*
X80648505Y-40205533D01*
X80652989Y-40210961D01*
X85226087Y-46077863D01*
X85230140Y-46083369D01*
X85412904Y-46346568D01*
X85420070Y-46358208D01*
X85571127Y-46636920D01*
X85576968Y-46649278D01*
X85696426Y-46942912D01*
X85700871Y-46955838D01*
X85787286Y-47260839D01*
X85790282Y-47274176D01*
X85843167Y-47590216D01*
X85844109Y-47596987D01*
X86735857Y-55622710D01*
X86736430Y-55629635D01*
X86754204Y-55954724D01*
X86754185Y-55968611D01*
X86735694Y-56290198D01*
X86734121Y-56303998D01*
X86679784Y-56621486D01*
X86676678Y-56635023D01*
X86587176Y-56944443D01*
X86582576Y-56957548D01*
X86459031Y-57255026D01*
X86452994Y-57267534D01*
X86296960Y-57549323D01*
X86289562Y-57561078D01*
X86102989Y-57823656D01*
X86094323Y-57834509D01*
X85879558Y-58074575D01*
X85869732Y-58084391D01*
X85629476Y-58298926D01*
X85618615Y-58307583D01*
X85355866Y-58493909D01*
X85344105Y-58501295D01*
X85062171Y-58657069D01*
X85049656Y-58663095D01*
X84748833Y-58787702D01*
X84742343Y-58790179D01*
X77751793Y-61236871D01*
X77744157Y-61239271D01*
X77382836Y-61340091D01*
X77367178Y-61343388D01*
X76999871Y-61396266D01*
X76983918Y-61397519D01*
X76612866Y-61402655D01*
X76596886Y-61401844D01*
X76224270Y-61358695D01*
X76216352Y-61357518D01*
X68314363Y-59920793D01*
X68307647Y-59919379D01*
X67994841Y-59844416D01*
X67981696Y-59840485D01*
X67682326Y-59732590D01*
X67669694Y-59727230D01*
X67384078Y-59586919D01*
X67372117Y-59580197D01*
X67103758Y-59409193D01*
X67092612Y-59401191D01*
X66844778Y-59201575D01*
X66834584Y-59192390D01*
X66610332Y-58966625D01*
X66601216Y-58956370D01*
X66403273Y-58707201D01*
X66395346Y-58696002D01*
X66226147Y-58426495D01*
X66219505Y-58414488D01*
X66081116Y-58127931D01*
X66075842Y-58115264D01*
X65969961Y-57815175D01*
X65966119Y-57802003D01*
X65894045Y-57492062D01*
X65891681Y-57478547D01*
X65853885Y-57159120D01*
X65853267Y-57152284D01*
X65515680Y-51750893D01*
X65515466Y-51745767D01*
X65510406Y-51505335D01*
X65510615Y-51495079D01*
X65525444Y-51255067D01*
X65525866Y-51249955D01*
X66151870Y-45198582D01*
X66152884Y-45191046D01*
X66211201Y-44839544D01*
X66214603Y-44824731D01*
X66314406Y-44486658D01*
X66319595Y-44472372D01*
X66460004Y-44149060D01*
X66466901Y-44135515D01*
X66645824Y-43831791D01*
X66654327Y-43819193D01*
X66871372Y-43536635D01*
X66876186Y-43530750D01*
X69875686Y-40085468D01*
X69880827Y-40079915D01*
X70129550Y-39827167D01*
X70140798Y-39817053D01*
X70415470Y-39598835D01*
X70427865Y-39590165D01*
X70727078Y-39407006D01*
X70740438Y-39399910D01*
X71059719Y-39254551D01*
X71073842Y-39249135D01*
X71408449Y-39143732D01*
X71423127Y-39140076D01*
X71768074Y-39076201D01*
X71783089Y-39074359D01*
X72137034Y-39052731D01*
X72144597Y-39052500D01*
X78281190Y-39052500D01*
X78288229Y-39052700D01*
G37*
G36*
X109711050Y-28692950D02*
G01*
X110045317Y-28712233D01*
X110059506Y-28713875D01*
X110385822Y-28770855D01*
X110399727Y-28774119D01*
X110717327Y-28868247D01*
X110730765Y-28873087D01*
X111035428Y-29003110D01*
X111048220Y-29009463D01*
X111335909Y-29173656D01*
X111347885Y-29181439D01*
X111614789Y-29377630D01*
X111625791Y-29386738D01*
X111870977Y-29614750D01*
X111876067Y-29619764D01*
X117077499Y-35048154D01*
X117082677Y-35053908D01*
X117316799Y-35330959D01*
X117326030Y-35343378D01*
X117521715Y-35644187D01*
X117529327Y-35657658D01*
X117686028Y-35980501D01*
X117691903Y-35994817D01*
X117807172Y-36334657D01*
X117811218Y-36349591D01*
X117884043Y-36704933D01*
X117885360Y-36712561D01*
X119595079Y-48870563D01*
X119595885Y-48877855D01*
X119623543Y-49220513D01*
X119623856Y-49235174D01*
X119611008Y-49575020D01*
X119609589Y-49589616D01*
X119556706Y-49925588D01*
X119553573Y-49939913D01*
X119461402Y-50267275D01*
X119456600Y-50281131D01*
X119326423Y-50595331D01*
X119320019Y-50608524D01*
X119153659Y-50905159D01*
X119145742Y-50917503D01*
X118945525Y-51192423D01*
X118936206Y-51203745D01*
X118704931Y-51453110D01*
X118694340Y-51463254D01*
X118435259Y-51683557D01*
X118423546Y-51692380D01*
X118140242Y-51880575D01*
X118127568Y-51887952D01*
X117824057Y-52041371D01*
X117810601Y-52047202D01*
X117491074Y-52163725D01*
X117477024Y-52167925D01*
X117142412Y-52246751D01*
X117135225Y-52248221D01*
X109038966Y-53656266D01*
X109031637Y-53657317D01*
X108686802Y-53696264D01*
X108672019Y-53697044D01*
X108328728Y-53694647D01*
X108313959Y-53693660D01*
X107969731Y-53649907D01*
X107962416Y-53648755D01*
X97645431Y-51705735D01*
X97638578Y-51704242D01*
X97319527Y-51625244D01*
X97306129Y-51621110D01*
X97001319Y-51507819D01*
X96988474Y-51502199D01*
X96698408Y-51355224D01*
X96686279Y-51348190D01*
X96414655Y-51169404D01*
X96403397Y-51161045D01*
X96153691Y-50952735D01*
X96143450Y-50943159D01*
X95918863Y-50707998D01*
X95909767Y-50697326D01*
X95713164Y-50438311D01*
X95705332Y-50426682D01*
X95539221Y-50147121D01*
X95532752Y-50134681D01*
X95399272Y-49838168D01*
X95394248Y-49825078D01*
X95295089Y-49515373D01*
X95291576Y-49501799D01*
X95228018Y-49182897D01*
X95226059Y-49169013D01*
X95198617Y-48841469D01*
X95198229Y-48834466D01*
X95014133Y-42022944D01*
X95014144Y-42015856D01*
X95024156Y-41683839D01*
X95025392Y-41669725D01*
X95072702Y-41344542D01*
X95075540Y-41330659D01*
X95160549Y-41009559D01*
X95162558Y-41002762D01*
X97297370Y-34472750D01*
X97300201Y-34464977D01*
X97444957Y-34105374D01*
X97452141Y-34090480D01*
X97641413Y-33756942D01*
X97650515Y-33743136D01*
X97884995Y-33434443D01*
X97890216Y-33428026D01*
X101113491Y-29725712D01*
X101118632Y-29720159D01*
X101367355Y-29467411D01*
X101378603Y-29457297D01*
X101653275Y-29239079D01*
X101665670Y-29230409D01*
X101964883Y-29047250D01*
X101978243Y-29040154D01*
X102297524Y-28894795D01*
X102311647Y-28889379D01*
X102646254Y-28783976D01*
X102660932Y-28780320D01*
X103005879Y-28716445D01*
X103020894Y-28714603D01*
X103374839Y-28692975D01*
X103382402Y-28692744D01*
X109703909Y-28692744D01*
X109711050Y-28692950D01*
G37*
G36*
X135406361Y-36392057D02*
G01*
X135413312Y-36392309D01*
X140028831Y-36689596D01*
X140035906Y-36690256D01*
X140366452Y-36730661D01*
X140380431Y-36733190D01*
X140700718Y-36810300D01*
X140714315Y-36814410D01*
X141023696Y-36927648D01*
X141036734Y-36933287D01*
X141331124Y-37081163D01*
X141343432Y-37088256D01*
X141618980Y-37268832D01*
X141630396Y-37277286D01*
X141883483Y-37488193D01*
X141893857Y-37497897D01*
X142121161Y-37736364D01*
X142130357Y-37747190D01*
X142331048Y-38012937D01*
X142335166Y-38018728D01*
X146456658Y-44180884D01*
X146460597Y-44187173D01*
X146636307Y-44487301D01*
X146643023Y-44500530D01*
X146780146Y-44816079D01*
X146785234Y-44830014D01*
X146883692Y-45159682D01*
X146887080Y-45174126D01*
X146946094Y-45516860D01*
X146947134Y-45524207D01*
X147851711Y-53665393D01*
X147852284Y-53672318D01*
X147870058Y-53997407D01*
X147870039Y-54011294D01*
X147851548Y-54332881D01*
X147849975Y-54346681D01*
X147795638Y-54664169D01*
X147792532Y-54677706D01*
X147703030Y-54987126D01*
X147698430Y-55000231D01*
X147574885Y-55297709D01*
X147568848Y-55310217D01*
X147412814Y-55592006D01*
X147405416Y-55603761D01*
X147218843Y-55866339D01*
X147210177Y-55877192D01*
X146995412Y-56117258D01*
X146985586Y-56127074D01*
X146745330Y-56341609D01*
X146734469Y-56350266D01*
X146471720Y-56536592D01*
X146459959Y-56543978D01*
X146178025Y-56699752D01*
X146165510Y-56705778D01*
X145864687Y-56830385D01*
X145858197Y-56832862D01*
X138895887Y-59269671D01*
X138889564Y-59271696D01*
X138590737Y-59358635D01*
X138577810Y-59361656D01*
X138274683Y-59415567D01*
X138261506Y-59417189D01*
X137954341Y-59438384D01*
X137941068Y-59438587D01*
X137633418Y-59426825D01*
X137620198Y-59425609D01*
X137312264Y-59380540D01*
X137305722Y-59379403D01*
X127910759Y-57485880D01*
X127903854Y-57484282D01*
X127582521Y-57400160D01*
X127569042Y-57395794D01*
X127262729Y-57276855D01*
X127249835Y-57270980D01*
X126959086Y-57117873D01*
X126946947Y-57110566D01*
X126675561Y-56925289D01*
X126664335Y-56916645D01*
X126415853Y-56701617D01*
X126405686Y-56691748D01*
X126183362Y-56449782D01*
X126174388Y-56438818D01*
X125981114Y-56173065D01*
X125973448Y-56161149D01*
X125811754Y-55875086D01*
X125805498Y-55862373D01*
X125677492Y-55559731D01*
X125672727Y-55546387D01*
X125580081Y-55231114D01*
X125576870Y-55217315D01*
X125520794Y-54893535D01*
X125519178Y-54879458D01*
X125500203Y-54547862D01*
X125500000Y-54540778D01*
X125500000Y-50361638D01*
X125500219Y-50354279D01*
X125520693Y-50009886D01*
X125522436Y-49995273D01*
X125583573Y-49655710D01*
X125585092Y-49648506D01*
X127141881Y-43217852D01*
X127143892Y-43210533D01*
X127248577Y-42870593D01*
X127253922Y-42856392D01*
X127397788Y-42535255D01*
X127404827Y-42521814D01*
X127586831Y-42220662D01*
X127595459Y-42208180D01*
X127812896Y-41931494D01*
X127822983Y-41920160D01*
X128075275Y-41669428D01*
X128080820Y-41664245D01*
X133233825Y-37134886D01*
X133239176Y-37130442D01*
X133495687Y-36929310D01*
X133507093Y-36921357D01*
X133781569Y-36752023D01*
X133793795Y-36745397D01*
X134085493Y-36607865D01*
X134098383Y-36602650D01*
X134403640Y-36498646D01*
X134417033Y-36494906D01*
X134732030Y-36425729D01*
X134745758Y-36423513D01*
X135066503Y-36390043D01*
X135080392Y-36389377D01*
X135406361Y-36392057D01*
G37*
G36*
X163783918Y-51512698D02*
G01*
X164112085Y-51531281D01*
X164126016Y-51532864D01*
X164446517Y-51587779D01*
X164460181Y-51590925D01*
X164772422Y-51681669D01*
X164785643Y-51686336D01*
X165085665Y-51811758D01*
X165098274Y-51817888D01*
X165382201Y-51976365D01*
X165394039Y-51983881D01*
X165658268Y-52173406D01*
X165669180Y-52182208D01*
X165910325Y-52400349D01*
X165920175Y-52410328D01*
X166135152Y-52654298D01*
X166143812Y-52665325D01*
X166329875Y-52932009D01*
X166337234Y-52943943D01*
X166493664Y-53232996D01*
X166496827Y-53239256D01*
X168322007Y-57121409D01*
X168325358Y-57129223D01*
X168469757Y-57500529D01*
X168474817Y-57516754D01*
X168567090Y-57904322D01*
X168568775Y-57912656D01*
X169891169Y-65847014D01*
X169892133Y-65854028D01*
X169927915Y-66183933D01*
X169928636Y-66198071D01*
X169926605Y-66526370D01*
X169925709Y-66540496D01*
X169886279Y-66866406D01*
X169883780Y-66880340D01*
X169807457Y-67199650D01*
X169803385Y-67213208D01*
X169691171Y-67521727D01*
X169685581Y-67534732D01*
X169538932Y-67828457D01*
X169531897Y-67840740D01*
X169352732Y-68115831D01*
X169344342Y-68127233D01*
X169134986Y-68380118D01*
X169125351Y-68390488D01*
X168888543Y-68617859D01*
X168877789Y-68627065D01*
X168616599Y-68825973D01*
X168604866Y-68833892D01*
X168319676Y-69003539D01*
X168313490Y-69006984D01*
X165152391Y-70650756D01*
X165145892Y-70653899D01*
X164837150Y-70792254D01*
X164823659Y-70797379D01*
X164504392Y-70897836D01*
X164490397Y-70901359D01*
X164161619Y-70964042D01*
X164147309Y-70965915D01*
X163813478Y-70989972D01*
X163799047Y-70990170D01*
X163464678Y-70975277D01*
X163450323Y-70973797D01*
X163119950Y-70920156D01*
X163105863Y-70917018D01*
X162780483Y-70824364D01*
X162773601Y-70822186D01*
X155265179Y-68202969D01*
X155258673Y-68200493D01*
X154957142Y-68075919D01*
X154944599Y-68069891D01*
X154662007Y-67914014D01*
X154650218Y-67906620D01*
X154386855Y-67720048D01*
X154375968Y-67711379D01*
X154135175Y-67496476D01*
X154125329Y-67486641D01*
X153910133Y-67246111D01*
X153901451Y-67235236D01*
X153714560Y-66972106D01*
X153707151Y-66960326D01*
X153550922Y-66677914D01*
X153544879Y-66665378D01*
X153421277Y-66367233D01*
X153416678Y-66354099D01*
X153327263Y-66043988D01*
X153324164Y-66030421D01*
X153270062Y-65712249D01*
X153268502Y-65698420D01*
X153250195Y-65372688D01*
X153250000Y-65365730D01*
X153250000Y-62560614D01*
X153250006Y-62559377D01*
X153250586Y-62501231D01*
X153250636Y-62498749D01*
X153252377Y-62440722D01*
X153252420Y-62439485D01*
X153454170Y-57395733D01*
X153454698Y-57388230D01*
X153490113Y-57037537D01*
X153492528Y-57022697D01*
X153569294Y-56682556D01*
X153573487Y-56668117D01*
X153690861Y-56339754D01*
X153696772Y-56325928D01*
X153853014Y-56014211D01*
X153860553Y-56001203D01*
X154053389Y-55710664D01*
X154062448Y-55698664D01*
X154291471Y-55430744D01*
X154296529Y-55425178D01*
X157187937Y-52431070D01*
X157193021Y-52426099D01*
X157437844Y-52200072D01*
X157448823Y-52191045D01*
X157715041Y-51996612D01*
X157726981Y-51988900D01*
X158013688Y-51826218D01*
X158026433Y-51819923D01*
X158329876Y-51691120D01*
X158343256Y-51686326D01*
X158659450Y-51593094D01*
X158673292Y-51589861D01*
X158998082Y-51533427D01*
X159012203Y-51531801D01*
X159344862Y-51512704D01*
X159351969Y-51512500D01*
X163776908Y-51512500D01*
X163783918Y-51512698D01*
G37*
G36*
X39778265Y-101990880D02*
G01*
X40091045Y-102007755D01*
X40104330Y-102009193D01*
X40410160Y-102059085D01*
X40423212Y-102061943D01*
X40721917Y-102144456D01*
X40734586Y-102148703D01*
X41022667Y-102262873D01*
X41034805Y-102268458D01*
X41308925Y-102412960D01*
X41320392Y-102419818D01*
X41577387Y-102592985D01*
X41588049Y-102601038D01*
X41827456Y-102802992D01*
X41832447Y-102807437D01*
X45464865Y-106223041D01*
X45470228Y-106228403D01*
X45713775Y-106487236D01*
X45723471Y-106498892D01*
X45931377Y-106782468D01*
X45939577Y-106795221D01*
X46111315Y-107102041D01*
X46117897Y-107115698D01*
X46250907Y-107441180D01*
X46255774Y-107455539D01*
X46349068Y-107798497D01*
X46350834Y-107805873D01*
X48508777Y-118214428D01*
X48510034Y-118221521D01*
X48559257Y-118555510D01*
X48560526Y-118569855D01*
X48570585Y-118903691D01*
X48570182Y-118918086D01*
X48541470Y-119250832D01*
X48539401Y-119265084D01*
X48472301Y-119592264D01*
X48468593Y-119606180D01*
X48364014Y-119923369D01*
X48358718Y-119936760D01*
X48218070Y-120239683D01*
X48211257Y-120252371D01*
X48034549Y-120540016D01*
X48030602Y-120546042D01*
X46053679Y-123380692D01*
X46049321Y-123386564D01*
X45837020Y-123655652D01*
X45827302Y-123666577D01*
X45587397Y-123906214D01*
X45576461Y-123915920D01*
X45310026Y-124125644D01*
X45298025Y-124133993D01*
X45008736Y-124310913D01*
X44995834Y-124317793D01*
X44687742Y-124459426D01*
X44674121Y-124464739D01*
X44351505Y-124569122D01*
X44337353Y-124572795D01*
X44004690Y-124638478D01*
X43990204Y-124640460D01*
X43652120Y-124666531D01*
X43637502Y-124666794D01*
X43298696Y-124652890D01*
X43284147Y-124651430D01*
X42949340Y-124597742D01*
X42935065Y-124594580D01*
X42605369Y-124500853D01*
X42598396Y-124498646D01*
X31164829Y-120505972D01*
X31157968Y-120503346D01*
X30840195Y-120370778D01*
X30826998Y-120364330D01*
X30530338Y-120196929D01*
X30517997Y-120188966D01*
X30243219Y-119987670D01*
X30231905Y-119978304D01*
X29982842Y-119745916D01*
X29972716Y-119735277D01*
X29752892Y-119475087D01*
X29744094Y-119463326D01*
X29556570Y-119178959D01*
X29549225Y-119166241D01*
X29396640Y-118861698D01*
X29390850Y-118848199D01*
X29275347Y-118527756D01*
X29271193Y-118513669D01*
X29194385Y-118181802D01*
X29191927Y-118167321D01*
X29154900Y-117828715D01*
X29154171Y-117814046D01*
X29157476Y-117469753D01*
X29157764Y-117462412D01*
X29495640Y-112563213D01*
X29495736Y-112561921D01*
X29500549Y-112501356D01*
X29500781Y-112498774D01*
X29506855Y-112438365D01*
X29506991Y-112437077D01*
X29932666Y-108605998D01*
X29933847Y-108597850D01*
X30001786Y-108218159D01*
X30005752Y-108202190D01*
X30122112Y-107838752D01*
X30128158Y-107823448D01*
X30293385Y-107474885D01*
X30297156Y-107467568D01*
X32493731Y-103531847D01*
X32497482Y-103525569D01*
X32681861Y-103236665D01*
X32690439Y-103224826D01*
X32905221Y-102962463D01*
X32915133Y-102951716D01*
X33159300Y-102716459D01*
X33170408Y-102706953D01*
X33440570Y-102502067D01*
X33452719Y-102493935D01*
X33745118Y-102322270D01*
X33758141Y-102315624D01*
X34068709Y-102179569D01*
X34082423Y-102174502D01*
X34406845Y-102075946D01*
X34421060Y-102072528D01*
X34754838Y-102012839D01*
X34769356Y-102011119D01*
X35111478Y-101990916D01*
X35118788Y-101990700D01*
X39771585Y-101990700D01*
X39778265Y-101990880D01*
G37*
G36*
X155749268Y-103840886D02*
G01*
X166651365Y-104171253D01*
X166658722Y-104171695D01*
X167002735Y-104202650D01*
X167017305Y-104204840D01*
X167351604Y-104275615D01*
X167365812Y-104279518D01*
X167689352Y-104389445D01*
X167702996Y-104395005D01*
X168011219Y-104542534D01*
X168024108Y-104549674D01*
X168312646Y-104732714D01*
X168324597Y-104741331D01*
X168589403Y-104957316D01*
X168600247Y-104967291D01*
X168837554Y-105213151D01*
X168847139Y-105224342D01*
X169053613Y-105496618D01*
X169061802Y-105508866D01*
X169234520Y-105803705D01*
X169241199Y-105816838D01*
X169377728Y-106130087D01*
X169382802Y-106143920D01*
X169481210Y-106471145D01*
X169484608Y-106485482D01*
X169544147Y-106825718D01*
X169545201Y-106833012D01*
X170230396Y-112828468D01*
X170230747Y-112831978D01*
X170244845Y-112996762D01*
X170245246Y-113003805D01*
X170249950Y-113169114D01*
X170250000Y-113172641D01*
X170250000Y-120718349D01*
X170249795Y-120725471D01*
X170230619Y-121058800D01*
X170228986Y-121072948D01*
X170172325Y-121398372D01*
X170169080Y-121412240D01*
X170075475Y-121729022D01*
X170070661Y-121742428D01*
X169941349Y-122046380D01*
X169935030Y-122059143D01*
X169771718Y-122346261D01*
X169763977Y-122358217D01*
X169568809Y-122624724D01*
X169559748Y-122635713D01*
X169335317Y-122878071D01*
X169325055Y-122887948D01*
X169074307Y-123102977D01*
X169062980Y-123111613D01*
X168789229Y-123296468D01*
X168776988Y-123303747D01*
X168483852Y-123455988D01*
X168470856Y-123461816D01*
X168162183Y-123579443D01*
X168148604Y-123583742D01*
X167828491Y-123665194D01*
X167814509Y-123667908D01*
X167483616Y-123712593D01*
X167476531Y-123713343D01*
X164443240Y-123946673D01*
X164436224Y-123947013D01*
X164107076Y-123953635D01*
X164093042Y-123953122D01*
X163768755Y-123922810D01*
X163754868Y-123920713D01*
X163436093Y-123853928D01*
X163422534Y-123850275D01*
X163110008Y-123746766D01*
X163103404Y-123744369D01*
X153702981Y-120027923D01*
X153691827Y-120022863D01*
X153512971Y-119930813D01*
X153492429Y-119917527D01*
X153339935Y-119795987D01*
X153322401Y-119778925D01*
X153196745Y-119629818D01*
X153182902Y-119609647D01*
X153088964Y-119438769D01*
X153079350Y-119416271D01*
X153020791Y-119230272D01*
X153015782Y-119206326D01*
X152994219Y-119006318D01*
X152993510Y-118994090D01*
X152987980Y-118349849D01*
X152985482Y-118250534D01*
X152979698Y-118151346D01*
X152512019Y-111910394D01*
X152511817Y-111907114D01*
X152504379Y-111753208D01*
X152504235Y-111746635D01*
X152504965Y-111592482D01*
X152505025Y-111589196D01*
X152656274Y-106749190D01*
X152656685Y-106742251D01*
X152685094Y-106417691D01*
X152687080Y-106403936D01*
X152750933Y-106088028D01*
X152754445Y-106074582D01*
X152853249Y-105767793D01*
X152858244Y-105754825D01*
X152990752Y-105461031D01*
X152997166Y-105448703D01*
X153161722Y-105171569D01*
X153169476Y-105160036D01*
X153364007Y-104903061D01*
X153373003Y-104892468D01*
X153595062Y-104658879D01*
X153605186Y-104649359D01*
X153851997Y-104442078D01*
X153863123Y-104433751D01*
X154131573Y-104255392D01*
X154143561Y-104248362D01*
X154430286Y-104101160D01*
X154442985Y-104095516D01*
X154744378Y-103981324D01*
X154757630Y-103977136D01*
X155069905Y-103897387D01*
X155083541Y-103894708D01*
X155402785Y-103850402D01*
X155416635Y-103849266D01*
X155742316Y-103840870D01*
X155749268Y-103840886D01*
G37*
G36*
X132249268Y-95590886D02*
G01*
X143151365Y-95921253D01*
X143158722Y-95921695D01*
X143502735Y-95952650D01*
X143517305Y-95954840D01*
X143851604Y-96025615D01*
X143865812Y-96029518D01*
X144189352Y-96139445D01*
X144202996Y-96145005D01*
X144511219Y-96292534D01*
X144524108Y-96299674D01*
X144812646Y-96482714D01*
X144824597Y-96491331D01*
X145089403Y-96707316D01*
X145100247Y-96717291D01*
X145337554Y-96963151D01*
X145347139Y-96974342D01*
X145553613Y-97246618D01*
X145561802Y-97258866D01*
X145734520Y-97553705D01*
X145741199Y-97566838D01*
X145877728Y-97880087D01*
X145882802Y-97893920D01*
X145981210Y-98221145D01*
X145984608Y-98235482D01*
X146044147Y-98575718D01*
X146045201Y-98583012D01*
X146730396Y-104578468D01*
X146730747Y-104581978D01*
X146744845Y-104746762D01*
X146745246Y-104753805D01*
X146749950Y-104919114D01*
X146750000Y-104922641D01*
X146750000Y-112468349D01*
X146749795Y-112475471D01*
X146730619Y-112808800D01*
X146728986Y-112822948D01*
X146672325Y-113148372D01*
X146669080Y-113162240D01*
X146575475Y-113479022D01*
X146570661Y-113492428D01*
X146441349Y-113796380D01*
X146435030Y-113809143D01*
X146271718Y-114096261D01*
X146263977Y-114108217D01*
X146068809Y-114374724D01*
X146059748Y-114385713D01*
X145835317Y-114628071D01*
X145825055Y-114637948D01*
X145574307Y-114852977D01*
X145562980Y-114861613D01*
X145289229Y-115046468D01*
X145276988Y-115053747D01*
X144983852Y-115205988D01*
X144970856Y-115211816D01*
X144662183Y-115329443D01*
X144648604Y-115333742D01*
X144328491Y-115415194D01*
X144314509Y-115417908D01*
X143983616Y-115462593D01*
X143976531Y-115463343D01*
X140943240Y-115696673D01*
X140936224Y-115697013D01*
X140607076Y-115703635D01*
X140593042Y-115703122D01*
X140268755Y-115672810D01*
X140254868Y-115670713D01*
X139936093Y-115603928D01*
X139922534Y-115600275D01*
X139610008Y-115496766D01*
X139603404Y-115494369D01*
X130202981Y-111777923D01*
X130191827Y-111772863D01*
X130012971Y-111680813D01*
X129992429Y-111667527D01*
X129839935Y-111545987D01*
X129822401Y-111528925D01*
X129696745Y-111379818D01*
X129682902Y-111359647D01*
X129588964Y-111188769D01*
X129579350Y-111166271D01*
X129520791Y-110980272D01*
X129515782Y-110956326D01*
X129494219Y-110756318D01*
X129493510Y-110744090D01*
X129487980Y-110099849D01*
X129485482Y-110000534D01*
X129479698Y-109901346D01*
X129012019Y-103660394D01*
X129011817Y-103657114D01*
X129004379Y-103503208D01*
X129004235Y-103496635D01*
X129004965Y-103342482D01*
X129005025Y-103339196D01*
X129156274Y-98499190D01*
X129156685Y-98492251D01*
X129185094Y-98167691D01*
X129187080Y-98153936D01*
X129250933Y-97838028D01*
X129254445Y-97824582D01*
X129353249Y-97517793D01*
X129358244Y-97504825D01*
X129490752Y-97211031D01*
X129497166Y-97198703D01*
X129661722Y-96921569D01*
X129669476Y-96910036D01*
X129864007Y-96653061D01*
X129873003Y-96642468D01*
X130095062Y-96408879D01*
X130105186Y-96399359D01*
X130351997Y-96192078D01*
X130363123Y-96183751D01*
X130631573Y-96005392D01*
X130643561Y-95998362D01*
X130930286Y-95851160D01*
X130942985Y-95845516D01*
X131244378Y-95731324D01*
X131257630Y-95727136D01*
X131569905Y-95647387D01*
X131583541Y-95644708D01*
X131902785Y-95600402D01*
X131916635Y-95599266D01*
X132242316Y-95590870D01*
X132249268Y-95590886D01*
G37*
G36*
X119252292Y-91438632D02*
G01*
X119266774Y-91439981D01*
X119600229Y-91490895D01*
X119614454Y-91493930D01*
X119939652Y-91583540D01*
X119953424Y-91588219D01*
X120265902Y-91715298D01*
X120279031Y-91721558D01*
X120574483Y-91884353D01*
X120586788Y-91892108D01*
X120861131Y-92088371D01*
X120872444Y-92097513D01*
X121121923Y-92324553D01*
X121132088Y-92334957D01*
X121353267Y-92589652D01*
X121362143Y-92601174D01*
X121551977Y-92880016D01*
X121559443Y-92892499D01*
X121715317Y-93191648D01*
X121721270Y-93204919D01*
X121841043Y-93520264D01*
X121845401Y-93534140D01*
X121927424Y-93861335D01*
X121930128Y-93875627D01*
X121973741Y-94213811D01*
X121974459Y-94221051D01*
X122403277Y-100374701D01*
X122403344Y-100375716D01*
X122406270Y-100423337D01*
X122406377Y-100425364D01*
X122408523Y-100473023D01*
X122408565Y-100474040D01*
X122660395Y-107315665D01*
X122660454Y-107322704D01*
X122653862Y-107652534D01*
X122652783Y-107666565D01*
X122609330Y-107990034D01*
X122606668Y-108003853D01*
X122526843Y-108320319D01*
X122522633Y-108333746D01*
X122407467Y-108639124D01*
X122401761Y-108651990D01*
X122252736Y-108942346D01*
X122245611Y-108954480D01*
X122064638Y-109226097D01*
X122056183Y-109237347D01*
X121845609Y-109486697D01*
X121835933Y-109496916D01*
X121598456Y-109720805D01*
X121587685Y-109729862D01*
X121326380Y-109925394D01*
X121314653Y-109933173D01*
X121032855Y-110097851D01*
X121020321Y-110104250D01*
X120721695Y-110235930D01*
X120708517Y-110240868D01*
X120393533Y-110338909D01*
X120386755Y-110340810D01*
X115017173Y-111683206D01*
X115011694Y-111684444D01*
X114753610Y-111736671D01*
X114742511Y-111738398D01*
X114480751Y-111767058D01*
X114475154Y-111767543D01*
X105641347Y-112331403D01*
X105634463Y-112331651D01*
X105311628Y-112334293D01*
X105297872Y-112333641D01*
X104980167Y-112300823D01*
X104966568Y-112298649D01*
X104654471Y-112230804D01*
X104641197Y-112227136D01*
X104338541Y-112125099D01*
X104325755Y-112119981D01*
X104036289Y-111985016D01*
X104024150Y-111978513D01*
X103751423Y-111812275D01*
X103740080Y-111804465D01*
X103487479Y-111609015D01*
X103477072Y-111599996D01*
X103247699Y-111377738D01*
X103238356Y-111367620D01*
X103035040Y-111121295D01*
X103026877Y-111110203D01*
X102852137Y-110842860D01*
X102845254Y-110830932D01*
X102701234Y-110545856D01*
X102695716Y-110533238D01*
X102584194Y-110233943D01*
X102580110Y-110220792D01*
X102501627Y-109907636D01*
X102500139Y-109900910D01*
X101761784Y-106061737D01*
X101761549Y-106060484D01*
X101750850Y-106001597D01*
X101750420Y-105999081D01*
X101740945Y-105940046D01*
X101740750Y-105938789D01*
X101025471Y-101169826D01*
X101024999Y-101166349D01*
X101005209Y-101003030D01*
X101004563Y-100996044D01*
X100994046Y-100831918D01*
X100993871Y-100828414D01*
X100846391Y-96698979D01*
X100846338Y-96691995D01*
X100853091Y-96364734D01*
X100854165Y-96350812D01*
X100897200Y-96029868D01*
X100899832Y-96016156D01*
X100978676Y-95702085D01*
X100982832Y-95688756D01*
X101096487Y-95385531D01*
X101102116Y-95372753D01*
X101249139Y-95084231D01*
X101256169Y-95072167D01*
X101434698Y-94802001D01*
X101443040Y-94790804D01*
X101650805Y-94542429D01*
X101660352Y-94532241D01*
X101894723Y-94308797D01*
X101905355Y-94299746D01*
X102163365Y-94104064D01*
X102174947Y-94096266D01*
X102453325Y-93930828D01*
X102465711Y-93924382D01*
X102760912Y-93791295D01*
X102773943Y-93786282D01*
X103082244Y-93687221D01*
X103095757Y-93683705D01*
X103416668Y-93619245D01*
X103423552Y-93618063D01*
X118553599Y-91456628D01*
X118560829Y-91455811D01*
X118900615Y-91427471D01*
X118915155Y-91427114D01*
X119252292Y-91438632D01*
G37*
G36*
X89945535Y-97662534D02*
G01*
X89960128Y-97663920D01*
X90296079Y-97716007D01*
X90310408Y-97719105D01*
X90637879Y-97810479D01*
X90651741Y-97815247D01*
X90966122Y-97944620D01*
X90979324Y-97950990D01*
X91276246Y-98116562D01*
X91288605Y-98124445D01*
X91563924Y-98323908D01*
X91575266Y-98333196D01*
X91825111Y-98563746D01*
X91835278Y-98574306D01*
X92056171Y-98832732D01*
X92065020Y-98844419D01*
X92253876Y-99127111D01*
X92261284Y-99139760D01*
X92415456Y-99442758D01*
X92421320Y-99456193D01*
X92538660Y-99775275D01*
X92542897Y-99789308D01*
X92622611Y-100123565D01*
X92624101Y-100130745D01*
X93703727Y-106238230D01*
X93704554Y-106243590D01*
X93737818Y-106495630D01*
X93738765Y-106506433D01*
X93749881Y-106760398D01*
X93750000Y-106765820D01*
X93750000Y-112479652D01*
X93749783Y-112486987D01*
X93729442Y-112830264D01*
X93727710Y-112844830D01*
X93667622Y-113179691D01*
X93664181Y-113193951D01*
X93564973Y-113519359D01*
X93559873Y-113533113D01*
X93422927Y-113844540D01*
X93416238Y-113857595D01*
X93243478Y-114150660D01*
X93235295Y-114162834D01*
X93029128Y-114433459D01*
X93019563Y-114444582D01*
X92782884Y-114688960D01*
X92772073Y-114698875D01*
X92508196Y-114913589D01*
X92496291Y-114922158D01*
X92208894Y-115104216D01*
X92196059Y-115111319D01*
X91885864Y-115259746D01*
X91879154Y-115262716D01*
X85613437Y-117817162D01*
X85606654Y-117819699D01*
X85285432Y-117929261D01*
X85271480Y-117933127D01*
X84943218Y-118003739D01*
X84928910Y-118005952D01*
X84591057Y-118038164D01*
X84583831Y-118038641D01*
X74672392Y-118402022D01*
X74665455Y-118402082D01*
X74340385Y-118395806D01*
X74326555Y-118394763D01*
X74007665Y-118352677D01*
X73994038Y-118350096D01*
X73681848Y-118272665D01*
X73668594Y-118268579D01*
X73366993Y-118156763D01*
X73354279Y-118151222D01*
X73067058Y-118006429D01*
X73055042Y-117999503D01*
X72785781Y-117823537D01*
X72774614Y-117815312D01*
X72526697Y-117610385D01*
X72516517Y-117600965D01*
X72293034Y-117369630D01*
X72283971Y-117359132D01*
X72087711Y-117104279D01*
X72079877Y-117092834D01*
X71913315Y-116817669D01*
X71906808Y-116805421D01*
X71772011Y-116513369D01*
X71766912Y-116500471D01*
X71665576Y-116195203D01*
X71661949Y-116181817D01*
X71594615Y-115863727D01*
X71593369Y-115856902D01*
X71053310Y-112346522D01*
X71052428Y-112339437D01*
X71020669Y-112006366D01*
X71020134Y-111992104D01*
X71026858Y-111657586D01*
X71027207Y-111650455D01*
X71355024Y-107438782D01*
X71363410Y-107268964D01*
X71363411Y-107268939D01*
X71362160Y-107098896D01*
X71214628Y-102968028D01*
X71214575Y-102961044D01*
X71221328Y-102633783D01*
X71222402Y-102619861D01*
X71265437Y-102298917D01*
X71268069Y-102285205D01*
X71346913Y-101971134D01*
X71351069Y-101957805D01*
X71464724Y-101654580D01*
X71470353Y-101641802D01*
X71617376Y-101353280D01*
X71624406Y-101341216D01*
X71802935Y-101071050D01*
X71811277Y-101059853D01*
X72019042Y-100811478D01*
X72028589Y-100801290D01*
X72262960Y-100577846D01*
X72273592Y-100568795D01*
X72531602Y-100373113D01*
X72543184Y-100365315D01*
X72821562Y-100199877D01*
X72833948Y-100193431D01*
X73129149Y-100060344D01*
X73142180Y-100055331D01*
X73450481Y-99956270D01*
X73463994Y-99952754D01*
X73784905Y-99888294D01*
X73791789Y-99887112D01*
X89241368Y-97680030D01*
X89248654Y-97679208D01*
X89591125Y-97650802D01*
X89605780Y-97650456D01*
X89945535Y-97662534D01*
G37*
G36*
X142753227Y-132313986D02*
G01*
X143380744Y-132341216D01*
X143388608Y-132341808D01*
X144013145Y-132408876D01*
X144020956Y-132409967D01*
X144639960Y-132516600D01*
X144647686Y-132518185D01*
X145258674Y-132663956D01*
X145266283Y-132666030D01*
X145866739Y-132850337D01*
X145874201Y-132852889D01*
X146461759Y-133075005D01*
X146469043Y-133078027D01*
X147041275Y-133337037D01*
X147048353Y-133340516D01*
X147604725Y-133636316D01*
X147608177Y-133638223D01*
X160342267Y-140937031D01*
X160345695Y-140939069D01*
X160888071Y-141273564D01*
X160894722Y-141277967D01*
X161412836Y-141645475D01*
X161419189Y-141650296D01*
X161912597Y-142050347D01*
X161918627Y-142055567D01*
X162385301Y-142486511D01*
X162390984Y-142492107D01*
X162828994Y-142952166D01*
X162834305Y-142958117D01*
X163241824Y-143445374D01*
X163246741Y-143451653D01*
X163622091Y-143964094D01*
X163626595Y-143970676D01*
X163968240Y-144506210D01*
X163972311Y-144513069D01*
X164278807Y-145069431D01*
X164282429Y-145076536D01*
X164552540Y-145651483D01*
X164555697Y-145658807D01*
X164788275Y-146249896D01*
X164790955Y-146257409D01*
X164985056Y-146862241D01*
X164987248Y-146869909D01*
X165142068Y-147485971D01*
X165143762Y-147493764D01*
X165258659Y-148118512D01*
X165259848Y-148126399D01*
X165334341Y-148757221D01*
X165335021Y-148765168D01*
X165368912Y-149401444D01*
X165369061Y-149405429D01*
X165530943Y-157094831D01*
X165530962Y-157098825D01*
X165523841Y-157736868D01*
X165523495Y-157744847D01*
X165475462Y-158379142D01*
X165474603Y-158387083D01*
X165385833Y-159016982D01*
X165384464Y-159024850D01*
X165255334Y-159647702D01*
X165253462Y-159655467D01*
X165084492Y-160268748D01*
X165082123Y-160276375D01*
X164874038Y-160877465D01*
X164871184Y-160884925D01*
X164624819Y-161471407D01*
X164621490Y-161478667D01*
X164337891Y-162048050D01*
X164334102Y-162055081D01*
X164014427Y-162605041D01*
X164010193Y-162611813D01*
X163655786Y-163140040D01*
X163651124Y-163146526D01*
X163263437Y-163650852D01*
X163258369Y-163657024D01*
X162839024Y-164135343D01*
X162833568Y-164141176D01*
X162384297Y-164591509D01*
X162378477Y-164596978D01*
X161901152Y-165017449D01*
X161894992Y-165022533D01*
X161391590Y-165411403D01*
X161385115Y-165416079D01*
X160857726Y-165771732D01*
X160850963Y-165775983D01*
X160301754Y-166096956D01*
X160294733Y-166100761D01*
X159726019Y-166385704D01*
X159718767Y-166389050D01*
X159132876Y-166636796D01*
X159125423Y-166639668D01*
X158524816Y-166849174D01*
X158517194Y-166851561D01*
X157904314Y-167021978D01*
X157896554Y-167023868D01*
X157274017Y-167154467D01*
X157266152Y-167155855D01*
X156636463Y-167246111D01*
X156628524Y-167246989D01*
X155994342Y-167296519D01*
X155986364Y-167296884D01*
X155348292Y-167305512D01*
X155344298Y-167305501D01*
X139471121Y-167008805D01*
X139468212Y-167008717D01*
X139003623Y-166989120D01*
X138997816Y-166988738D01*
X138534696Y-166947366D01*
X138531800Y-166947073D01*
X112027701Y-163950957D01*
X112024076Y-163950493D01*
X111446026Y-163867829D01*
X111438824Y-163866582D01*
X110868415Y-163750365D01*
X110861300Y-163748695D01*
X110298752Y-163599080D01*
X110291747Y-163596994D01*
X109738986Y-163414494D01*
X109732116Y-163411999D01*
X109191072Y-163197250D01*
X109184361Y-163194355D01*
X108655226Y-162947317D01*
X108651938Y-162945722D01*
X86504096Y-151799085D01*
X86498227Y-151795931D01*
X86177349Y-151612206D01*
X86166162Y-151604976D01*
X85869555Y-151389858D01*
X85859207Y-151381470D01*
X85587371Y-151135762D01*
X85577984Y-151126312D01*
X85334085Y-150852880D01*
X85325765Y-150842478D01*
X85112597Y-150544450D01*
X85105441Y-150533215D01*
X84925477Y-150214052D01*
X84919567Y-150202115D01*
X84774871Y-149865476D01*
X84770276Y-149852973D01*
X84662530Y-149502769D01*
X84659302Y-149489846D01*
X84589740Y-149130096D01*
X84587917Y-149116901D01*
X84557345Y-148751757D01*
X84556949Y-148738442D01*
X84565802Y-148368813D01*
X84566140Y-148362160D01*
X84705960Y-146565787D01*
X84733913Y-145999679D01*
X84733914Y-145999653D01*
X84729744Y-145432850D01*
X84625110Y-142503082D01*
X84625043Y-142496921D01*
X84630188Y-142129267D01*
X84630972Y-142116972D01*
X84672224Y-141754711D01*
X84674224Y-141742556D01*
X84751218Y-141386171D01*
X84754415Y-141374273D01*
X84866390Y-141027294D01*
X84870751Y-141015773D01*
X85016603Y-140681614D01*
X85022085Y-140670583D01*
X85200373Y-140352547D01*
X85206924Y-140342113D01*
X85415890Y-140043337D01*
X85423443Y-140033605D01*
X85661031Y-139757031D01*
X85669513Y-139748097D01*
X85933358Y-139496474D01*
X85942684Y-139488425D01*
X86230209Y-139264213D01*
X86240288Y-139257130D01*
X86548626Y-139062564D01*
X86559358Y-139056515D01*
X86885490Y-138893499D01*
X86896770Y-138888545D01*
X87237472Y-138758693D01*
X87249187Y-138754883D01*
X87601081Y-138659481D01*
X87613116Y-138656852D01*
X87975810Y-138596324D01*
X87981911Y-138595462D01*
X141477641Y-132380191D01*
X141481565Y-132379798D01*
X142109446Y-132327021D01*
X142117322Y-132326610D01*
X142745341Y-132313894D01*
X142753227Y-132313986D01*
G37*
G36*
X56445837Y-84297324D02*
G01*
X56460973Y-84298611D01*
X56745203Y-84340441D01*
X56760067Y-84343570D01*
X57037033Y-84419835D01*
X57051404Y-84424757D01*
X57316975Y-84534318D01*
X57330637Y-84540960D01*
X57580819Y-84682173D01*
X57593565Y-84690436D01*
X57827672Y-84863448D01*
X57833642Y-84868150D01*
X60381352Y-87004195D01*
X60386601Y-87008855D01*
X60626332Y-87234142D01*
X60635998Y-87244315D01*
X60846456Y-87492552D01*
X60854910Y-87503752D01*
X61035979Y-87774190D01*
X61043114Y-87786274D01*
X61192465Y-88075434D01*
X61198189Y-88088247D01*
X61315162Y-88395716D01*
X61317471Y-88402344D01*
X63108851Y-94054636D01*
X63110612Y-94060729D01*
X63185813Y-94348318D01*
X63188390Y-94360734D01*
X63233343Y-94651367D01*
X63234638Y-94663981D01*
X63249838Y-94960856D01*
X63250000Y-94967196D01*
X63250000Y-96746110D01*
X63249756Y-96753884D01*
X63231609Y-97042762D01*
X63229663Y-97058189D01*
X63176237Y-97338691D01*
X63172376Y-97353752D01*
X63084266Y-97625368D01*
X63078551Y-97639827D01*
X62957146Y-97898276D01*
X62949666Y-97911908D01*
X62796865Y-98153141D01*
X62787738Y-98165728D01*
X62605952Y-98385940D01*
X62595321Y-98397286D01*
X62387417Y-98593009D01*
X62375450Y-98602937D01*
X62144672Y-98771113D01*
X62131557Y-98779464D01*
X61881552Y-98917434D01*
X61867495Y-98924078D01*
X61602190Y-99029677D01*
X61587411Y-99034510D01*
X61310983Y-99106076D01*
X61295717Y-99109022D01*
X61008623Y-99145932D01*
X61000881Y-99146681D01*
X54375431Y-99578776D01*
X54368004Y-99579037D01*
X54019753Y-99580843D01*
X54004919Y-99580030D01*
X53662652Y-99540602D01*
X53648023Y-99538021D01*
X53312921Y-99457943D01*
X53298705Y-99453631D01*
X52975592Y-99334056D01*
X52961993Y-99328075D01*
X52655492Y-99170712D01*
X52642706Y-99163147D01*
X52357228Y-98970262D01*
X52345439Y-98961223D01*
X52085073Y-98735580D01*
X52074449Y-98725195D01*
X51842939Y-98470036D01*
X51833634Y-98458456D01*
X51634302Y-98177444D01*
X51626448Y-98164834D01*
X51462147Y-97861992D01*
X51455858Y-97848532D01*
X51328960Y-97528227D01*
X51324325Y-97514114D01*
X51235689Y-97177316D01*
X51234014Y-97170075D01*
X50342789Y-92713945D01*
X50341693Y-92707618D01*
X50298025Y-92409828D01*
X50296822Y-92397046D01*
X50284313Y-92099541D01*
X50284439Y-92086703D01*
X50302957Y-91786302D01*
X50303518Y-91779905D01*
X50630358Y-88909013D01*
X50631338Y-88902127D01*
X50686315Y-88580810D01*
X50689425Y-88567256D01*
X50779061Y-88257472D01*
X50783669Y-88244352D01*
X50907430Y-87946545D01*
X50913478Y-87934024D01*
X51069803Y-87651947D01*
X51077215Y-87640182D01*
X51264133Y-87377391D01*
X51272815Y-87366529D01*
X51487991Y-87126307D01*
X51497835Y-87116486D01*
X51741148Y-86899555D01*
X51746468Y-86895073D01*
X53328963Y-85636073D01*
X53332504Y-85633359D01*
X53500814Y-85509074D01*
X53508180Y-85504034D01*
X53684952Y-85392205D01*
X53688765Y-85389887D01*
X54996715Y-84626915D01*
X55003393Y-84623289D01*
X55263347Y-84492292D01*
X55277305Y-84486300D01*
X55547739Y-84389356D01*
X55562326Y-84385116D01*
X55842582Y-84321968D01*
X55857577Y-84319543D01*
X56143446Y-84291136D01*
X56158627Y-84290562D01*
X56445837Y-84297324D01*
G37*
G36*
X113506584Y-185271186D02*
G01*
X113844330Y-185301366D01*
X113851515Y-185302220D01*
X141593693Y-189423546D01*
X141600730Y-189424800D01*
X141928700Y-189493037D01*
X141942500Y-189496749D01*
X142257048Y-189601141D01*
X142270329Y-189606416D01*
X142570786Y-189746309D01*
X142583372Y-189753078D01*
X142865723Y-189926600D01*
X142877447Y-189934771D01*
X143137973Y-190139638D01*
X143148678Y-190149104D01*
X143383898Y-190382579D01*
X143393444Y-190393214D01*
X143602466Y-190654989D01*
X143606763Y-190660701D01*
X153604607Y-204779455D01*
X153608486Y-204785275D01*
X153782548Y-205063066D01*
X153789294Y-205075316D01*
X153929455Y-205367775D01*
X153934777Y-205380705D01*
X154041118Y-205687082D01*
X154044951Y-205700530D01*
X154116118Y-206016924D01*
X154118413Y-206030718D01*
X154153506Y-206353126D01*
X154154233Y-206367092D01*
X154152801Y-206691398D01*
X154151951Y-206705355D01*
X154114015Y-207027436D01*
X154111599Y-207041209D01*
X154037640Y-207356974D01*
X154033688Y-207370388D01*
X153924647Y-207675817D01*
X153919210Y-207688701D01*
X153776476Y-207979904D01*
X153769623Y-207992093D01*
X153595008Y-208265377D01*
X153586827Y-208276717D01*
X153380343Y-208531329D01*
X153375786Y-208536635D01*
X150769309Y-211403759D01*
X150764096Y-211409156D01*
X150512269Y-211654550D01*
X150500912Y-211664350D01*
X150224268Y-211875276D01*
X150211812Y-211883632D01*
X149911734Y-212059606D01*
X149898359Y-212066398D01*
X149579219Y-212204855D01*
X149565122Y-212209982D01*
X149231615Y-212308886D01*
X149217004Y-212312273D01*
X148870260Y-212370816D01*
X148862826Y-212371840D01*
X144356030Y-212854710D01*
X143995661Y-212915712D01*
X143645385Y-213020084D01*
X143310413Y-213166270D01*
X143310409Y-213166272D01*
X142995697Y-213352108D01*
X142705916Y-213574838D01*
X142705907Y-213574846D01*
X142445367Y-213831156D01*
X142217920Y-214117257D01*
X138338517Y-219659261D01*
X138334472Y-219664715D01*
X138137983Y-219915038D01*
X138129029Y-219925242D01*
X137908728Y-220150162D01*
X137898713Y-220159325D01*
X137655150Y-220358813D01*
X137644193Y-220366827D01*
X137380278Y-220538498D01*
X137368510Y-220545266D01*
X137087414Y-220687058D01*
X137074977Y-220692499D01*
X136776899Y-220803898D01*
X136770476Y-220806101D01*
X134192646Y-221611672D01*
X134186591Y-221613396D01*
X133900820Y-221687006D01*
X133888484Y-221689524D01*
X133599808Y-221733310D01*
X133587283Y-221734563D01*
X133292536Y-221749008D01*
X133286241Y-221749157D01*
X119968349Y-221724963D01*
X119965929Y-221724935D01*
X119852501Y-221722515D01*
X119847666Y-221722317D01*
X119734464Y-221715476D01*
X119732051Y-221715307D01*
X112187870Y-221111471D01*
X112180184Y-221110614D01*
X111821469Y-221059243D01*
X111806334Y-221056102D01*
X111460538Y-220961523D01*
X111445910Y-220956523D01*
X111114572Y-220819654D01*
X111100681Y-220812874D01*
X110788936Y-220635840D01*
X110775996Y-220627383D01*
X110488707Y-220412941D01*
X110476920Y-220402940D01*
X110215754Y-220151738D01*
X110210351Y-220146207D01*
X97693094Y-206505311D01*
X97688646Y-206500189D01*
X97486839Y-206254556D01*
X97478816Y-206243623D01*
X97306892Y-205980258D01*
X97300111Y-205968514D01*
X97157975Y-205687951D01*
X97152517Y-205675536D01*
X97041871Y-205381136D01*
X97037801Y-205368200D01*
X96959962Y-205063464D01*
X96957330Y-205050162D01*
X96912758Y-204735401D01*
X96911991Y-204728661D01*
X95626016Y-189804802D01*
X95625613Y-189797858D01*
X95615881Y-189472014D01*
X95616246Y-189458113D01*
X95642772Y-189136711D01*
X95644691Y-189122939D01*
X95707034Y-188806527D01*
X95710483Y-188793056D01*
X95807862Y-188485614D01*
X95812798Y-188472613D01*
X95943985Y-188178013D01*
X95950344Y-188165648D01*
X96113698Y-187887575D01*
X96121403Y-187875999D01*
X96314854Y-187617979D01*
X96323806Y-187607338D01*
X96544943Y-187372586D01*
X96555030Y-187363015D01*
X96801043Y-187154512D01*
X96812139Y-187146130D01*
X97079968Y-186966472D01*
X97091932Y-186959386D01*
X97378179Y-186810852D01*
X97390862Y-186805149D01*
X97691951Y-186689594D01*
X97705192Y-186685348D01*
X98017309Y-186604234D01*
X98030942Y-186601496D01*
X98353648Y-186555342D01*
X98360558Y-186554551D01*
X113145933Y-185280509D01*
X113153157Y-185280098D01*
X113492126Y-185270741D01*
X113506584Y-185271186D01*
G37*
G36*
X55376682Y-171826253D02*
G01*
X55595558Y-171852290D01*
X55614269Y-171855993D01*
X55826569Y-171915291D01*
X55844492Y-171921821D01*
X56045174Y-172012975D01*
X56061882Y-172022175D01*
X56246223Y-172143037D01*
X56261323Y-172154692D01*
X56424939Y-172302390D01*
X56438074Y-172316223D01*
X56577100Y-172487268D01*
X56587956Y-172502951D01*
X56701522Y-172697434D01*
X56706015Y-172705855D01*
X57342844Y-174019040D01*
X57343247Y-174019880D01*
X57361993Y-174059287D01*
X57362781Y-174060977D01*
X57380932Y-174100661D01*
X57381317Y-174101509D01*
X59552184Y-178943548D01*
X59554905Y-178950116D01*
X59673566Y-179261462D01*
X59677858Y-179275012D01*
X59759232Y-179594447D01*
X59761946Y-179608400D01*
X59806230Y-179935054D01*
X59807329Y-179949224D01*
X59813942Y-180278800D01*
X59813412Y-180293005D01*
X59782265Y-180621169D01*
X59780113Y-180635218D01*
X59711617Y-180957658D01*
X59707872Y-180971369D01*
X59602926Y-181283861D01*
X59597636Y-181297054D01*
X59457618Y-181595482D01*
X59450853Y-181607983D01*
X59275737Y-181891447D01*
X59271829Y-181897385D01*
X57854651Y-183921927D01*
X57850435Y-183927599D01*
X57645366Y-184187655D01*
X57636001Y-184198232D01*
X57405175Y-184430765D01*
X57394667Y-184440208D01*
X57138890Y-184644976D01*
X57127376Y-184653162D01*
X56849978Y-184827501D01*
X56837608Y-184834325D01*
X56542175Y-184975982D01*
X56529109Y-184981355D01*
X56219471Y-185088491D01*
X56205879Y-185092342D01*
X55886072Y-185163561D01*
X55872130Y-185165841D01*
X55546302Y-185200222D01*
X55532191Y-185200902D01*
X55204558Y-185197997D01*
X55190461Y-185197067D01*
X54861787Y-185156483D01*
X54854801Y-185155418D01*
X52729334Y-184768969D01*
X52722305Y-184767479D01*
X52395036Y-184688150D01*
X52381295Y-184683963D01*
X52068770Y-184568563D01*
X52055604Y-184562815D01*
X51758522Y-184412044D01*
X51746111Y-184404812D01*
X51468457Y-184220694D01*
X51456965Y-184212075D01*
X51202470Y-183997082D01*
X51192052Y-183987192D01*
X50964130Y-183744210D01*
X50954925Y-183733181D01*
X50756629Y-183465463D01*
X50748762Y-183453444D01*
X50580968Y-183161472D01*
X50577570Y-183155140D01*
X48152370Y-178304740D01*
X48149360Y-178298259D01*
X48017088Y-177990573D01*
X48012211Y-177977145D01*
X47917232Y-177659710D01*
X47913932Y-177645809D01*
X47856099Y-177319568D01*
X47854419Y-177305380D01*
X47834495Y-176974634D01*
X47834459Y-176960348D01*
X47852710Y-176629511D01*
X47854318Y-176615315D01*
X47910499Y-176288787D01*
X47913728Y-176274870D01*
X48007101Y-175956955D01*
X48011910Y-175943502D01*
X48141229Y-175638441D01*
X48147554Y-175625630D01*
X48311102Y-175337473D01*
X48318858Y-175325475D01*
X48514469Y-175058037D01*
X48523554Y-175047011D01*
X48748622Y-174803856D01*
X48758914Y-174793947D01*
X49010461Y-174578291D01*
X49021825Y-174569633D01*
X49296513Y-174384339D01*
X49308798Y-174377045D01*
X49606152Y-174222931D01*
X49612589Y-174219827D01*
X54662604Y-171961420D01*
X54671460Y-171957862D01*
X54883508Y-171882007D01*
X54901908Y-171876982D01*
X55118384Y-171835447D01*
X55137339Y-171833304D01*
X55357624Y-171825463D01*
X55376682Y-171826253D01*
G37*
M02*
