%TF.GenerationSoftware,KiCad,Pcbnew,10.0.2*%
%TF.CreationDate,2026-09-22T16:59:26+02:00*%
%TF.ProjectId,HandFPC,48616e64-4650-4432-9e6b-696361645f70,rev?*%
%TF.SameCoordinates,Original*%
%TF.FileFunction,Legend,Bot*%
%TF.FilePolarity,Positive*%
%FSLAX46Y46*%
G04 Gerber Fmt 4.6, Leading zero omitted, Abs format (unit mm)*
G04 Created by KiCad (PCBNEW 10.0.2) date 2026-09-22 16:59:26*
%MOMM*%
%LPD*%
G01*
G04 APERTURE LIST*
%ADD10C,0.100000*%
%ADD11C,0.000000*%
G04 APERTURE END LIST*
D10*
X129633809Y-195400094D02*
X129729047Y-195352475D01*
X129729047Y-195352475D02*
X129871904Y-195352475D01*
X129871904Y-195352475D02*
X130014761Y-195400094D01*
X130014761Y-195400094D02*
X130109999Y-195495332D01*
X130109999Y-195495332D02*
X130157618Y-195590570D01*
X130157618Y-195590570D02*
X130205237Y-195781046D01*
X130205237Y-195781046D02*
X130205237Y-195923903D01*
X130205237Y-195923903D02*
X130157618Y-196114379D01*
X130157618Y-196114379D02*
X130109999Y-196209617D01*
X130109999Y-196209617D02*
X130014761Y-196304856D01*
X130014761Y-196304856D02*
X129871904Y-196352475D01*
X129871904Y-196352475D02*
X129776666Y-196352475D01*
X129776666Y-196352475D02*
X129633809Y-196304856D01*
X129633809Y-196304856D02*
X129586190Y-196257236D01*
X129586190Y-196257236D02*
X129586190Y-195923903D01*
X129586190Y-195923903D02*
X129776666Y-195923903D01*
X129157618Y-195971522D02*
X128395714Y-195971522D01*
X127443333Y-196352475D02*
X127919523Y-196352475D01*
X127919523Y-196352475D02*
X127919523Y-195352475D01*
X126967142Y-196352475D02*
X127062380Y-196304856D01*
X127062380Y-196304856D02*
X127109999Y-196257236D01*
X127109999Y-196257236D02*
X127157618Y-196161998D01*
X127157618Y-196161998D02*
X127157618Y-195876284D01*
X127157618Y-195876284D02*
X127109999Y-195781046D01*
X127109999Y-195781046D02*
X127062380Y-195733427D01*
X127062380Y-195733427D02*
X126967142Y-195685808D01*
X126967142Y-195685808D02*
X126824285Y-195685808D01*
X126824285Y-195685808D02*
X126729047Y-195733427D01*
X126729047Y-195733427D02*
X126681428Y-195781046D01*
X126681428Y-195781046D02*
X126633809Y-195876284D01*
X126633809Y-195876284D02*
X126633809Y-196161998D01*
X126633809Y-196161998D02*
X126681428Y-196257236D01*
X126681428Y-196257236D02*
X126729047Y-196304856D01*
X126729047Y-196304856D02*
X126824285Y-196352475D01*
X126824285Y-196352475D02*
X126967142Y-196352475D01*
X126300475Y-195685808D02*
X126062380Y-196352475D01*
X126062380Y-196352475D02*
X125824285Y-195685808D01*
X125062380Y-196304856D02*
X125157618Y-196352475D01*
X125157618Y-196352475D02*
X125348094Y-196352475D01*
X125348094Y-196352475D02*
X125443332Y-196304856D01*
X125443332Y-196304856D02*
X125490951Y-196209617D01*
X125490951Y-196209617D02*
X125490951Y-195828665D01*
X125490951Y-195828665D02*
X125443332Y-195733427D01*
X125443332Y-195733427D02*
X125348094Y-195685808D01*
X125348094Y-195685808D02*
X125157618Y-195685808D01*
X125157618Y-195685808D02*
X125062380Y-195733427D01*
X125062380Y-195733427D02*
X125014761Y-195828665D01*
X125014761Y-195828665D02*
X125014761Y-195923903D01*
X125014761Y-195923903D02*
X125490951Y-196019141D01*
X131967142Y-197962419D02*
X131967142Y-196962419D01*
X131967142Y-197438609D02*
X131395714Y-197438609D01*
X131395714Y-197962419D02*
X131395714Y-196962419D01*
X130490952Y-197962419D02*
X130490952Y-197438609D01*
X130490952Y-197438609D02*
X130538571Y-197343371D01*
X130538571Y-197343371D02*
X130633809Y-197295752D01*
X130633809Y-197295752D02*
X130824285Y-197295752D01*
X130824285Y-197295752D02*
X130919523Y-197343371D01*
X130490952Y-197914800D02*
X130586190Y-197962419D01*
X130586190Y-197962419D02*
X130824285Y-197962419D01*
X130824285Y-197962419D02*
X130919523Y-197914800D01*
X130919523Y-197914800D02*
X130967142Y-197819561D01*
X130967142Y-197819561D02*
X130967142Y-197724323D01*
X130967142Y-197724323D02*
X130919523Y-197629085D01*
X130919523Y-197629085D02*
X130824285Y-197581466D01*
X130824285Y-197581466D02*
X130586190Y-197581466D01*
X130586190Y-197581466D02*
X130490952Y-197533847D01*
X130014761Y-197295752D02*
X130014761Y-197962419D01*
X130014761Y-197390990D02*
X129967142Y-197343371D01*
X129967142Y-197343371D02*
X129871904Y-197295752D01*
X129871904Y-197295752D02*
X129729047Y-197295752D01*
X129729047Y-197295752D02*
X129633809Y-197343371D01*
X129633809Y-197343371D02*
X129586190Y-197438609D01*
X129586190Y-197438609D02*
X129586190Y-197962419D01*
X128681428Y-197962419D02*
X128681428Y-196962419D01*
X128681428Y-197914800D02*
X128776666Y-197962419D01*
X128776666Y-197962419D02*
X128967142Y-197962419D01*
X128967142Y-197962419D02*
X129062380Y-197914800D01*
X129062380Y-197914800D02*
X129109999Y-197867180D01*
X129109999Y-197867180D02*
X129157618Y-197771942D01*
X129157618Y-197771942D02*
X129157618Y-197486228D01*
X129157618Y-197486228D02*
X129109999Y-197390990D01*
X129109999Y-197390990D02*
X129062380Y-197343371D01*
X129062380Y-197343371D02*
X128967142Y-197295752D01*
X128967142Y-197295752D02*
X128776666Y-197295752D01*
X128776666Y-197295752D02*
X128681428Y-197343371D01*
X127871904Y-197438609D02*
X128205237Y-197438609D01*
X128205237Y-197962419D02*
X128205237Y-196962419D01*
X128205237Y-196962419D02*
X127729047Y-196962419D01*
X127348094Y-197962419D02*
X127348094Y-196962419D01*
X127348094Y-196962419D02*
X126967142Y-196962419D01*
X126967142Y-196962419D02*
X126871904Y-197010038D01*
X126871904Y-197010038D02*
X126824285Y-197057657D01*
X126824285Y-197057657D02*
X126776666Y-197152895D01*
X126776666Y-197152895D02*
X126776666Y-197295752D01*
X126776666Y-197295752D02*
X126824285Y-197390990D01*
X126824285Y-197390990D02*
X126871904Y-197438609D01*
X126871904Y-197438609D02*
X126967142Y-197486228D01*
X126967142Y-197486228D02*
X127348094Y-197486228D01*
X125776666Y-197867180D02*
X125824285Y-197914800D01*
X125824285Y-197914800D02*
X125967142Y-197962419D01*
X125967142Y-197962419D02*
X126062380Y-197962419D01*
X126062380Y-197962419D02*
X126205237Y-197914800D01*
X126205237Y-197914800D02*
X126300475Y-197819561D01*
X126300475Y-197819561D02*
X126348094Y-197724323D01*
X126348094Y-197724323D02*
X126395713Y-197533847D01*
X126395713Y-197533847D02*
X126395713Y-197390990D01*
X126395713Y-197390990D02*
X126348094Y-197200514D01*
X126348094Y-197200514D02*
X126300475Y-197105276D01*
X126300475Y-197105276D02*
X126205237Y-197010038D01*
X126205237Y-197010038D02*
X126062380Y-196962419D01*
X126062380Y-196962419D02*
X125967142Y-196962419D01*
X125967142Y-196962419D02*
X125824285Y-197010038D01*
X125824285Y-197010038D02*
X125776666Y-197057657D01*
X124729046Y-196962419D02*
X124395713Y-197962419D01*
X124395713Y-197962419D02*
X124062380Y-196962419D01*
X123205237Y-197962419D02*
X123776665Y-197962419D01*
X123490951Y-197962419D02*
X123490951Y-196962419D01*
X123490951Y-196962419D02*
X123586189Y-197105276D01*
X123586189Y-197105276D02*
X123681427Y-197200514D01*
X123681427Y-197200514D02*
X123776665Y-197248133D01*
X165520411Y-61224921D02*
X165284709Y-60989218D01*
X165655098Y-60618829D02*
X164947992Y-61325936D01*
X164947992Y-61325936D02*
X165284709Y-61662654D01*
X166193847Y-61224921D02*
X166328534Y-61292264D01*
X166328534Y-61292264D02*
X166496892Y-61460623D01*
X166496892Y-61460623D02*
X166530564Y-61561638D01*
X166530564Y-61561638D02*
X166530564Y-61628982D01*
X166530564Y-61628982D02*
X166496892Y-61729997D01*
X166496892Y-61729997D02*
X166429549Y-61797341D01*
X166429549Y-61797341D02*
X166328534Y-61831012D01*
X166328534Y-61831012D02*
X166261190Y-61831012D01*
X166261190Y-61831012D02*
X166160175Y-61797341D01*
X166160175Y-61797341D02*
X165991816Y-61696325D01*
X165991816Y-61696325D02*
X165890801Y-61662654D01*
X165890801Y-61662654D02*
X165823457Y-61662654D01*
X165823457Y-61662654D02*
X165722442Y-61696325D01*
X165722442Y-61696325D02*
X165655099Y-61763669D01*
X165655099Y-61763669D02*
X165621427Y-61864684D01*
X165621427Y-61864684D02*
X165621427Y-61932028D01*
X165621427Y-61932028D02*
X165655099Y-62033043D01*
X165655099Y-62033043D02*
X165823457Y-62201402D01*
X165823457Y-62201402D02*
X165958144Y-62268745D01*
X167338686Y-62302417D02*
X166766266Y-62403432D01*
X166934625Y-61898356D02*
X166227518Y-62605463D01*
X166227518Y-62605463D02*
X166496892Y-62874837D01*
X166496892Y-62874837D02*
X166597908Y-62908508D01*
X166597908Y-62908508D02*
X166665251Y-62908508D01*
X166665251Y-62908508D02*
X166766266Y-62874837D01*
X166766266Y-62874837D02*
X166867282Y-62773821D01*
X166867282Y-62773821D02*
X166900953Y-62672806D01*
X166900953Y-62672806D02*
X166900953Y-62605463D01*
X166900953Y-62605463D02*
X166867282Y-62504447D01*
X166867282Y-62504447D02*
X166597908Y-62235073D01*
X167271343Y-63649287D02*
X166934625Y-63312569D01*
X166934625Y-63312569D02*
X167237671Y-62942180D01*
X167237671Y-62942180D02*
X167237671Y-63009524D01*
X167237671Y-63009524D02*
X167271343Y-63110539D01*
X167271343Y-63110539D02*
X167439701Y-63278898D01*
X167439701Y-63278898D02*
X167540717Y-63312569D01*
X167540717Y-63312569D02*
X167608060Y-63312569D01*
X167608060Y-63312569D02*
X167709075Y-63278898D01*
X167709075Y-63278898D02*
X167877434Y-63110539D01*
X167877434Y-63110539D02*
X167911106Y-63009524D01*
X167911106Y-63009524D02*
X167911106Y-62942180D01*
X167911106Y-62942180D02*
X167877434Y-62841165D01*
X167877434Y-62841165D02*
X167709075Y-62672806D01*
X167709075Y-62672806D02*
X167608060Y-62639134D01*
X167608060Y-62639134D02*
X167540717Y-62639134D01*
X84029523Y-115013609D02*
X84362856Y-115013609D01*
X84362856Y-115537419D02*
X84362856Y-114537419D01*
X84362856Y-114537419D02*
X83886666Y-114537419D01*
X83553332Y-115489800D02*
X83410475Y-115537419D01*
X83410475Y-115537419D02*
X83172380Y-115537419D01*
X83172380Y-115537419D02*
X83077142Y-115489800D01*
X83077142Y-115489800D02*
X83029523Y-115442180D01*
X83029523Y-115442180D02*
X82981904Y-115346942D01*
X82981904Y-115346942D02*
X82981904Y-115251704D01*
X82981904Y-115251704D02*
X83029523Y-115156466D01*
X83029523Y-115156466D02*
X83077142Y-115108847D01*
X83077142Y-115108847D02*
X83172380Y-115061228D01*
X83172380Y-115061228D02*
X83362856Y-115013609D01*
X83362856Y-115013609D02*
X83458094Y-114965990D01*
X83458094Y-114965990D02*
X83505713Y-114918371D01*
X83505713Y-114918371D02*
X83553332Y-114823133D01*
X83553332Y-114823133D02*
X83553332Y-114727895D01*
X83553332Y-114727895D02*
X83505713Y-114632657D01*
X83505713Y-114632657D02*
X83458094Y-114585038D01*
X83458094Y-114585038D02*
X83362856Y-114537419D01*
X83362856Y-114537419D02*
X83124761Y-114537419D01*
X83124761Y-114537419D02*
X82981904Y-114585038D01*
X82600951Y-114632657D02*
X82553332Y-114585038D01*
X82553332Y-114585038D02*
X82458094Y-114537419D01*
X82458094Y-114537419D02*
X82219999Y-114537419D01*
X82219999Y-114537419D02*
X82124761Y-114585038D01*
X82124761Y-114585038D02*
X82077142Y-114632657D01*
X82077142Y-114632657D02*
X82029523Y-114727895D01*
X82029523Y-114727895D02*
X82029523Y-114823133D01*
X82029523Y-114823133D02*
X82077142Y-114965990D01*
X82077142Y-114965990D02*
X82648570Y-115537419D01*
X82648570Y-115537419D02*
X82029523Y-115537419D01*
X56537265Y-177716699D02*
X56703932Y-177428024D01*
X57157564Y-177689929D02*
X56291539Y-177189929D01*
X56291539Y-177189929D02*
X56053444Y-177602322D01*
X56711563Y-178367188D02*
X56681374Y-178514715D01*
X56681374Y-178514715D02*
X56562326Y-178720912D01*
X56562326Y-178720912D02*
X56473468Y-178779581D01*
X56473468Y-178779581D02*
X56408419Y-178797011D01*
X56408419Y-178797011D02*
X56302131Y-178790631D01*
X56302131Y-178790631D02*
X56219652Y-178743012D01*
X56219652Y-178743012D02*
X56160983Y-178654154D01*
X56160983Y-178654154D02*
X56143553Y-178589105D01*
X56143553Y-178589105D02*
X56149933Y-178482817D01*
X56149933Y-178482817D02*
X56203932Y-178294050D01*
X56203932Y-178294050D02*
X56210312Y-178187762D01*
X56210312Y-178187762D02*
X56192882Y-178122713D01*
X56192882Y-178122713D02*
X56134213Y-178033854D01*
X56134213Y-178033854D02*
X56051734Y-177986235D01*
X56051734Y-177986235D02*
X55945446Y-177979856D01*
X55945446Y-177979856D02*
X55880397Y-177997285D01*
X55880397Y-177997285D02*
X55791539Y-178055955D01*
X55791539Y-178055955D02*
X55672491Y-178262151D01*
X55672491Y-178262151D02*
X55642302Y-178409679D01*
X55990898Y-179710655D02*
X56276612Y-179215783D01*
X56133755Y-179463219D02*
X55267729Y-178963219D01*
X55267729Y-178963219D02*
X55439066Y-178952169D01*
X55439066Y-178952169D02*
X55569164Y-178917310D01*
X55569164Y-178917310D02*
X55658022Y-178858641D01*
X114199523Y-106233609D02*
X114532856Y-106233609D01*
X114532856Y-106757419D02*
X114532856Y-105757419D01*
X114532856Y-105757419D02*
X114056666Y-105757419D01*
X113723332Y-106709800D02*
X113580475Y-106757419D01*
X113580475Y-106757419D02*
X113342380Y-106757419D01*
X113342380Y-106757419D02*
X113247142Y-106709800D01*
X113247142Y-106709800D02*
X113199523Y-106662180D01*
X113199523Y-106662180D02*
X113151904Y-106566942D01*
X113151904Y-106566942D02*
X113151904Y-106471704D01*
X113151904Y-106471704D02*
X113199523Y-106376466D01*
X113199523Y-106376466D02*
X113247142Y-106328847D01*
X113247142Y-106328847D02*
X113342380Y-106281228D01*
X113342380Y-106281228D02*
X113532856Y-106233609D01*
X113532856Y-106233609D02*
X113628094Y-106185990D01*
X113628094Y-106185990D02*
X113675713Y-106138371D01*
X113675713Y-106138371D02*
X113723332Y-106043133D01*
X113723332Y-106043133D02*
X113723332Y-105947895D01*
X113723332Y-105947895D02*
X113675713Y-105852657D01*
X113675713Y-105852657D02*
X113628094Y-105805038D01*
X113628094Y-105805038D02*
X113532856Y-105757419D01*
X113532856Y-105757419D02*
X113294761Y-105757419D01*
X113294761Y-105757419D02*
X113151904Y-105805038D01*
X112818570Y-105757419D02*
X112199523Y-105757419D01*
X112199523Y-105757419D02*
X112532856Y-106138371D01*
X112532856Y-106138371D02*
X112389999Y-106138371D01*
X112389999Y-106138371D02*
X112294761Y-106185990D01*
X112294761Y-106185990D02*
X112247142Y-106233609D01*
X112247142Y-106233609D02*
X112199523Y-106328847D01*
X112199523Y-106328847D02*
X112199523Y-106566942D01*
X112199523Y-106566942D02*
X112247142Y-106662180D01*
X112247142Y-106662180D02*
X112294761Y-106709800D01*
X112294761Y-106709800D02*
X112389999Y-106757419D01*
X112389999Y-106757419D02*
X112675713Y-106757419D01*
X112675713Y-106757419D02*
X112770951Y-106709800D01*
X112770951Y-106709800D02*
X112818570Y-106662180D01*
X111029981Y-45524188D02*
X111265684Y-45288486D01*
X111636073Y-45658875D02*
X110928966Y-44951769D01*
X110928966Y-44951769D02*
X110592248Y-45288486D01*
X111029981Y-46197624D02*
X110962638Y-46332311D01*
X110962638Y-46332311D02*
X110794279Y-46500669D01*
X110794279Y-46500669D02*
X110693264Y-46534341D01*
X110693264Y-46534341D02*
X110625920Y-46534341D01*
X110625920Y-46534341D02*
X110524905Y-46500669D01*
X110524905Y-46500669D02*
X110457561Y-46433326D01*
X110457561Y-46433326D02*
X110423890Y-46332311D01*
X110423890Y-46332311D02*
X110423890Y-46264967D01*
X110423890Y-46264967D02*
X110457561Y-46163952D01*
X110457561Y-46163952D02*
X110558577Y-45995593D01*
X110558577Y-45995593D02*
X110592248Y-45894578D01*
X110592248Y-45894578D02*
X110592248Y-45827234D01*
X110592248Y-45827234D02*
X110558577Y-45726219D01*
X110558577Y-45726219D02*
X110491233Y-45658876D01*
X110491233Y-45658876D02*
X110390218Y-45625204D01*
X110390218Y-45625204D02*
X110322874Y-45625204D01*
X110322874Y-45625204D02*
X110221859Y-45658876D01*
X110221859Y-45658876D02*
X110053500Y-45827234D01*
X110053500Y-45827234D02*
X109986157Y-45961921D01*
X109952485Y-47342463D02*
X109851470Y-46770043D01*
X110356546Y-46938402D02*
X109649439Y-46231295D01*
X109649439Y-46231295D02*
X109380065Y-46500669D01*
X109380065Y-46500669D02*
X109346394Y-46601685D01*
X109346394Y-46601685D02*
X109346394Y-46669028D01*
X109346394Y-46669028D02*
X109380065Y-46770043D01*
X109380065Y-46770043D02*
X109481081Y-46871059D01*
X109481081Y-46871059D02*
X109582096Y-46904730D01*
X109582096Y-46904730D02*
X109649439Y-46904730D01*
X109649439Y-46904730D02*
X109750455Y-46871059D01*
X109750455Y-46871059D02*
X110019829Y-46601685D01*
X109009676Y-46871059D02*
X108571943Y-47308791D01*
X108571943Y-47308791D02*
X109077020Y-47342463D01*
X109077020Y-47342463D02*
X108976004Y-47443478D01*
X108976004Y-47443478D02*
X108942333Y-47544494D01*
X108942333Y-47544494D02*
X108942333Y-47611837D01*
X108942333Y-47611837D02*
X108976004Y-47712852D01*
X108976004Y-47712852D02*
X109144363Y-47881211D01*
X109144363Y-47881211D02*
X109245378Y-47914883D01*
X109245378Y-47914883D02*
X109312722Y-47914883D01*
X109312722Y-47914883D02*
X109413737Y-47881211D01*
X109413737Y-47881211D02*
X109615768Y-47679181D01*
X109615768Y-47679181D02*
X109649439Y-47578165D01*
X109649439Y-47578165D02*
X109649439Y-47510822D01*
X38896972Y-122406188D02*
X39132674Y-122641891D01*
X38762285Y-123012280D02*
X39469391Y-122305173D01*
X39469391Y-122305173D02*
X39132674Y-121968455D01*
X38223536Y-122406188D02*
X38088849Y-122338845D01*
X38088849Y-122338845D02*
X37920491Y-122170486D01*
X37920491Y-122170486D02*
X37886819Y-122069471D01*
X37886819Y-122069471D02*
X37886819Y-122002127D01*
X37886819Y-122002127D02*
X37920491Y-121901112D01*
X37920491Y-121901112D02*
X37987834Y-121833768D01*
X37987834Y-121833768D02*
X38088849Y-121800097D01*
X38088849Y-121800097D02*
X38156193Y-121800097D01*
X38156193Y-121800097D02*
X38257208Y-121833768D01*
X38257208Y-121833768D02*
X38425567Y-121934784D01*
X38425567Y-121934784D02*
X38526582Y-121968455D01*
X38526582Y-121968455D02*
X38593926Y-121968455D01*
X38593926Y-121968455D02*
X38694941Y-121934784D01*
X38694941Y-121934784D02*
X38762284Y-121867440D01*
X38762284Y-121867440D02*
X38795956Y-121766425D01*
X38795956Y-121766425D02*
X38795956Y-121699081D01*
X38795956Y-121699081D02*
X38762284Y-121598066D01*
X38762284Y-121598066D02*
X38593926Y-121429707D01*
X38593926Y-121429707D02*
X38459239Y-121362364D01*
X37078697Y-121328692D02*
X37651117Y-121227677D01*
X37482758Y-121732753D02*
X38189865Y-121025646D01*
X38189865Y-121025646D02*
X37920491Y-120756272D01*
X37920491Y-120756272D02*
X37819475Y-120722601D01*
X37819475Y-120722601D02*
X37752132Y-120722601D01*
X37752132Y-120722601D02*
X37651117Y-120756272D01*
X37651117Y-120756272D02*
X37550101Y-120857288D01*
X37550101Y-120857288D02*
X37516430Y-120958303D01*
X37516430Y-120958303D02*
X37516430Y-121025646D01*
X37516430Y-121025646D02*
X37550101Y-121126662D01*
X37550101Y-121126662D02*
X37819475Y-121396036D01*
X36405262Y-120655257D02*
X36809323Y-121059318D01*
X36607292Y-120857288D02*
X37314399Y-120150181D01*
X37314399Y-120150181D02*
X37280727Y-120318540D01*
X37280727Y-120318540D02*
X37280727Y-120453227D01*
X37280727Y-120453227D02*
X37314399Y-120554242D01*
X139296972Y-55896188D02*
X139532674Y-56131891D01*
X139162285Y-56502280D02*
X139869391Y-55795173D01*
X139869391Y-55795173D02*
X139532674Y-55458455D01*
X138623536Y-55896188D02*
X138488849Y-55828845D01*
X138488849Y-55828845D02*
X138320491Y-55660486D01*
X138320491Y-55660486D02*
X138286819Y-55559471D01*
X138286819Y-55559471D02*
X138286819Y-55492127D01*
X138286819Y-55492127D02*
X138320491Y-55391112D01*
X138320491Y-55391112D02*
X138387834Y-55323768D01*
X138387834Y-55323768D02*
X138488849Y-55290097D01*
X138488849Y-55290097D02*
X138556193Y-55290097D01*
X138556193Y-55290097D02*
X138657208Y-55323768D01*
X138657208Y-55323768D02*
X138825567Y-55424784D01*
X138825567Y-55424784D02*
X138926582Y-55458455D01*
X138926582Y-55458455D02*
X138993926Y-55458455D01*
X138993926Y-55458455D02*
X139094941Y-55424784D01*
X139094941Y-55424784D02*
X139162284Y-55357440D01*
X139162284Y-55357440D02*
X139195956Y-55256425D01*
X139195956Y-55256425D02*
X139195956Y-55189081D01*
X139195956Y-55189081D02*
X139162284Y-55088066D01*
X139162284Y-55088066D02*
X138993926Y-54919707D01*
X138993926Y-54919707D02*
X138859239Y-54852364D01*
X137478697Y-54818692D02*
X138051117Y-54717677D01*
X137882758Y-55222753D02*
X138589865Y-54515646D01*
X138589865Y-54515646D02*
X138320491Y-54246272D01*
X138320491Y-54246272D02*
X138219475Y-54212601D01*
X138219475Y-54212601D02*
X138152132Y-54212601D01*
X138152132Y-54212601D02*
X138051117Y-54246272D01*
X138051117Y-54246272D02*
X137950101Y-54347288D01*
X137950101Y-54347288D02*
X137916430Y-54448303D01*
X137916430Y-54448303D02*
X137916430Y-54515646D01*
X137916430Y-54515646D02*
X137950101Y-54616662D01*
X137950101Y-54616662D02*
X138219475Y-54886036D01*
X137344010Y-53741196D02*
X136872605Y-54212601D01*
X137781743Y-53640181D02*
X137445025Y-54313616D01*
X137445025Y-54313616D02*
X137007292Y-53875883D01*
X80949593Y-51184845D02*
X80713891Y-50949142D01*
X81084280Y-50578753D02*
X80377174Y-51285860D01*
X80377174Y-51285860D02*
X80713891Y-51622578D01*
X81623029Y-51184845D02*
X81757716Y-51252188D01*
X81757716Y-51252188D02*
X81926074Y-51420547D01*
X81926074Y-51420547D02*
X81959746Y-51521562D01*
X81959746Y-51521562D02*
X81959746Y-51588906D01*
X81959746Y-51588906D02*
X81926074Y-51689921D01*
X81926074Y-51689921D02*
X81858731Y-51757265D01*
X81858731Y-51757265D02*
X81757716Y-51790936D01*
X81757716Y-51790936D02*
X81690372Y-51790936D01*
X81690372Y-51790936D02*
X81589357Y-51757265D01*
X81589357Y-51757265D02*
X81420998Y-51656249D01*
X81420998Y-51656249D02*
X81319983Y-51622578D01*
X81319983Y-51622578D02*
X81252639Y-51622578D01*
X81252639Y-51622578D02*
X81151624Y-51656249D01*
X81151624Y-51656249D02*
X81084281Y-51723593D01*
X81084281Y-51723593D02*
X81050609Y-51824608D01*
X81050609Y-51824608D02*
X81050609Y-51891952D01*
X81050609Y-51891952D02*
X81084281Y-51992967D01*
X81084281Y-51992967D02*
X81252639Y-52161326D01*
X81252639Y-52161326D02*
X81387326Y-52228669D01*
X82767868Y-52262341D02*
X82195448Y-52363356D01*
X82363807Y-51858280D02*
X81656700Y-52565387D01*
X81656700Y-52565387D02*
X81926074Y-52834761D01*
X81926074Y-52834761D02*
X82027090Y-52868432D01*
X82027090Y-52868432D02*
X82094433Y-52868432D01*
X82094433Y-52868432D02*
X82195448Y-52834761D01*
X82195448Y-52834761D02*
X82296464Y-52733745D01*
X82296464Y-52733745D02*
X82330135Y-52632730D01*
X82330135Y-52632730D02*
X82330135Y-52565387D01*
X82330135Y-52565387D02*
X82296464Y-52464371D01*
X82296464Y-52464371D02*
X82027090Y-52194997D01*
X82397479Y-53171478D02*
X82397479Y-53238822D01*
X82397479Y-53238822D02*
X82431151Y-53339837D01*
X82431151Y-53339837D02*
X82599509Y-53508196D01*
X82599509Y-53508196D02*
X82700525Y-53541867D01*
X82700525Y-53541867D02*
X82767868Y-53541867D01*
X82767868Y-53541867D02*
X82868883Y-53508196D01*
X82868883Y-53508196D02*
X82936227Y-53440852D01*
X82936227Y-53440852D02*
X83003570Y-53306165D01*
X83003570Y-53306165D02*
X83003570Y-52498043D01*
X83003570Y-52498043D02*
X83441303Y-52935776D01*
X163239523Y-122153609D02*
X163572856Y-122153609D01*
X163572856Y-122677419D02*
X163572856Y-121677419D01*
X163572856Y-121677419D02*
X163096666Y-121677419D01*
X162763332Y-122629800D02*
X162620475Y-122677419D01*
X162620475Y-122677419D02*
X162382380Y-122677419D01*
X162382380Y-122677419D02*
X162287142Y-122629800D01*
X162287142Y-122629800D02*
X162239523Y-122582180D01*
X162239523Y-122582180D02*
X162191904Y-122486942D01*
X162191904Y-122486942D02*
X162191904Y-122391704D01*
X162191904Y-122391704D02*
X162239523Y-122296466D01*
X162239523Y-122296466D02*
X162287142Y-122248847D01*
X162287142Y-122248847D02*
X162382380Y-122201228D01*
X162382380Y-122201228D02*
X162572856Y-122153609D01*
X162572856Y-122153609D02*
X162668094Y-122105990D01*
X162668094Y-122105990D02*
X162715713Y-122058371D01*
X162715713Y-122058371D02*
X162763332Y-121963133D01*
X162763332Y-121963133D02*
X162763332Y-121867895D01*
X162763332Y-121867895D02*
X162715713Y-121772657D01*
X162715713Y-121772657D02*
X162668094Y-121725038D01*
X162668094Y-121725038D02*
X162572856Y-121677419D01*
X162572856Y-121677419D02*
X162334761Y-121677419D01*
X162334761Y-121677419D02*
X162191904Y-121725038D01*
X161287142Y-121677419D02*
X161763332Y-121677419D01*
X161763332Y-121677419D02*
X161810951Y-122153609D01*
X161810951Y-122153609D02*
X161763332Y-122105990D01*
X161763332Y-122105990D02*
X161668094Y-122058371D01*
X161668094Y-122058371D02*
X161429999Y-122058371D01*
X161429999Y-122058371D02*
X161334761Y-122105990D01*
X161334761Y-122105990D02*
X161287142Y-122153609D01*
X161287142Y-122153609D02*
X161239523Y-122248847D01*
X161239523Y-122248847D02*
X161239523Y-122486942D01*
X161239523Y-122486942D02*
X161287142Y-122582180D01*
X161287142Y-122582180D02*
X161334761Y-122629800D01*
X161334761Y-122629800D02*
X161429999Y-122677419D01*
X161429999Y-122677419D02*
X161668094Y-122677419D01*
X161668094Y-122677419D02*
X161763332Y-122629800D01*
X161763332Y-122629800D02*
X161810951Y-122582180D01*
X139569523Y-111483609D02*
X139902856Y-111483609D01*
X139902856Y-112007419D02*
X139902856Y-111007419D01*
X139902856Y-111007419D02*
X139426666Y-111007419D01*
X139093332Y-111959800D02*
X138950475Y-112007419D01*
X138950475Y-112007419D02*
X138712380Y-112007419D01*
X138712380Y-112007419D02*
X138617142Y-111959800D01*
X138617142Y-111959800D02*
X138569523Y-111912180D01*
X138569523Y-111912180D02*
X138521904Y-111816942D01*
X138521904Y-111816942D02*
X138521904Y-111721704D01*
X138521904Y-111721704D02*
X138569523Y-111626466D01*
X138569523Y-111626466D02*
X138617142Y-111578847D01*
X138617142Y-111578847D02*
X138712380Y-111531228D01*
X138712380Y-111531228D02*
X138902856Y-111483609D01*
X138902856Y-111483609D02*
X138998094Y-111435990D01*
X138998094Y-111435990D02*
X139045713Y-111388371D01*
X139045713Y-111388371D02*
X139093332Y-111293133D01*
X139093332Y-111293133D02*
X139093332Y-111197895D01*
X139093332Y-111197895D02*
X139045713Y-111102657D01*
X139045713Y-111102657D02*
X138998094Y-111055038D01*
X138998094Y-111055038D02*
X138902856Y-111007419D01*
X138902856Y-111007419D02*
X138664761Y-111007419D01*
X138664761Y-111007419D02*
X138521904Y-111055038D01*
X137664761Y-111340752D02*
X137664761Y-112007419D01*
X137902856Y-110959800D02*
X138140951Y-111674085D01*
X138140951Y-111674085D02*
X137521904Y-111674085D01*
D11*
%TO.C,G\u002A\u002A\u002A*%
G36*
X128362845Y-199689178D02*
G01*
X128517211Y-199689827D01*
X128649934Y-199691985D01*
X128767142Y-199696160D01*
X128874966Y-199702856D01*
X128979532Y-199712580D01*
X129086970Y-199725839D01*
X129203409Y-199743137D01*
X129334977Y-199764982D01*
X129384125Y-199773514D01*
X129772552Y-199855467D01*
X130153563Y-199963626D01*
X130525888Y-200097098D01*
X130888259Y-200254988D01*
X131239405Y-200436401D01*
X131578058Y-200640443D01*
X131902949Y-200866220D01*
X132212807Y-201112836D01*
X132506365Y-201379397D01*
X132782353Y-201665009D01*
X133039501Y-201968777D01*
X133276541Y-202289806D01*
X133492203Y-202627203D01*
X133533444Y-202697936D01*
X133619058Y-202853109D01*
X133702768Y-203016117D01*
X133782375Y-203182007D01*
X133855681Y-203345827D01*
X133920487Y-203502621D01*
X133974595Y-203647438D01*
X134015808Y-203775323D01*
X134023109Y-203801367D01*
X134044061Y-203877619D01*
X134068081Y-203963542D01*
X134090414Y-204042142D01*
X134093101Y-204051477D01*
X134109344Y-204112934D01*
X134129120Y-204196008D01*
X134151539Y-204296197D01*
X134175708Y-204409003D01*
X134200735Y-204529926D01*
X134225728Y-204654466D01*
X134249796Y-204778123D01*
X134272048Y-204896399D01*
X134291590Y-205004793D01*
X134307532Y-205098805D01*
X134318982Y-205173937D01*
X134324426Y-205218654D01*
X134336357Y-205340986D01*
X134347009Y-205443619D01*
X134357374Y-205534551D01*
X134368445Y-205621781D01*
X134381215Y-205713305D01*
X134396675Y-205817122D01*
X134407187Y-205885612D01*
X134440287Y-206100149D01*
X134469548Y-206290853D01*
X134495483Y-206461339D01*
X134518611Y-206615222D01*
X134539446Y-206756114D01*
X134558503Y-206887632D01*
X134576300Y-207013388D01*
X134593351Y-207136998D01*
X134610172Y-207262075D01*
X134627280Y-207392234D01*
X134645190Y-207531088D01*
X134664417Y-207682253D01*
X134670910Y-207733643D01*
X134703427Y-207986241D01*
X134734557Y-208216136D01*
X134765189Y-208428046D01*
X134796215Y-208626690D01*
X134828525Y-208816789D01*
X134863009Y-209003061D01*
X134900558Y-209190225D01*
X134942061Y-209383001D01*
X134988410Y-209586109D01*
X135040494Y-209804266D01*
X135099205Y-210042194D01*
X135128363Y-210158315D01*
X135205502Y-210456442D01*
X135280688Y-210730074D01*
X135355203Y-210982314D01*
X135430328Y-211216269D01*
X135507344Y-211435043D01*
X135587533Y-211641741D01*
X135672175Y-211839468D01*
X135762553Y-212031330D01*
X135859947Y-212220431D01*
X135965639Y-212409877D01*
X136080910Y-212602772D01*
X136207041Y-212802222D01*
X136240726Y-212853938D01*
X136282999Y-212918767D01*
X136334744Y-212998538D01*
X136390475Y-213084772D01*
X136444707Y-213168990D01*
X136465456Y-213201313D01*
X136573859Y-213368039D01*
X136671488Y-213512843D01*
X136760498Y-213638404D01*
X136843042Y-213747400D01*
X136921276Y-213842509D01*
X136997354Y-213926410D01*
X137073429Y-214001779D01*
X137151656Y-214071296D01*
X137191987Y-214104485D01*
X137260820Y-214159928D01*
X137310754Y-214201141D01*
X137344508Y-214231361D01*
X137364801Y-214253821D01*
X137374350Y-214271757D01*
X137375875Y-214288402D01*
X137372094Y-214306992D01*
X137369656Y-214315874D01*
X137350016Y-214357765D01*
X137318493Y-214399250D01*
X137309145Y-214408422D01*
X137275971Y-214432788D01*
X137239895Y-214444780D01*
X137193584Y-214445323D01*
X137129707Y-214435341D01*
X137116674Y-214432685D01*
X137056465Y-214423633D01*
X136977530Y-214416660D01*
X136888291Y-214412019D01*
X136797168Y-214409960D01*
X136712581Y-214410735D01*
X136642950Y-214414595D01*
X136616455Y-214417748D01*
X136572054Y-214423562D01*
X136518089Y-214429305D01*
X136498348Y-214431084D01*
X136449746Y-214435995D01*
X136407318Y-214441636D01*
X136394136Y-214443936D01*
X136355354Y-214450850D01*
X136310832Y-214457653D01*
X136310766Y-214457662D01*
X136266244Y-214464633D01*
X136227432Y-214471956D01*
X136227396Y-214471964D01*
X136193918Y-214478774D01*
X136146291Y-214487907D01*
X136116162Y-214493485D01*
X136062605Y-214504337D01*
X136011839Y-214516364D01*
X135991107Y-214522091D01*
X135946175Y-214534122D01*
X135905129Y-214542809D01*
X135904338Y-214542938D01*
X135845540Y-214552530D01*
X135806512Y-214559136D01*
X135779572Y-214564103D01*
X135757331Y-214568713D01*
X135721176Y-214577505D01*
X135701751Y-214583011D01*
X135672791Y-214589560D01*
X135632182Y-214596102D01*
X135626063Y-214596902D01*
X135589061Y-214602920D01*
X135564708Y-214609318D01*
X135562366Y-214610460D01*
X135542005Y-214617236D01*
X135507417Y-214624461D01*
X135503688Y-214625080D01*
X135458998Y-214633115D01*
X135406806Y-214643548D01*
X135393698Y-214646344D01*
X135347033Y-214656260D01*
X135306087Y-214664614D01*
X135296433Y-214666486D01*
X135263704Y-214673430D01*
X135216404Y-214684315D01*
X135181800Y-214692635D01*
X135139474Y-214702150D01*
X135110508Y-214707021D01*
X135101904Y-214706604D01*
X135091601Y-214707840D01*
X135072834Y-214716549D01*
X135037550Y-214730103D01*
X134999885Y-214738919D01*
X134958052Y-214745371D01*
X134925537Y-214750329D01*
X134894339Y-214757959D01*
X134880430Y-214763974D01*
X134855156Y-214774463D01*
X134837951Y-214779179D01*
X134763610Y-214797024D01*
X134730213Y-214805772D01*
X134704624Y-214813682D01*
X134662771Y-214827611D01*
X134622527Y-214841477D01*
X134575453Y-214857560D01*
X134537061Y-214869986D01*
X134518315Y-214875377D01*
X134494096Y-214883393D01*
X134455275Y-214898631D01*
X134430319Y-214909147D01*
X134389177Y-214925735D01*
X134357424Y-214936391D01*
X134346950Y-214938489D01*
X134325040Y-214944087D01*
X134289464Y-214957764D01*
X134275153Y-214964044D01*
X134239899Y-214979279D01*
X134216561Y-214987917D01*
X134212626Y-214988691D01*
X134196890Y-214994219D01*
X134167721Y-215008515D01*
X134163993Y-215010502D01*
X134128397Y-215028552D01*
X134083705Y-215049759D01*
X134037354Y-215070790D01*
X133996782Y-215088314D01*
X133969425Y-215099000D01*
X133962516Y-215100751D01*
X133946600Y-215106391D01*
X133920831Y-215119451D01*
X133893416Y-215133724D01*
X133879146Y-215139661D01*
X133863250Y-215146528D01*
X133837462Y-215160327D01*
X133806197Y-215175829D01*
X133785857Y-215182848D01*
X133764013Y-215192323D01*
X133732262Y-215211912D01*
X133726803Y-215215726D01*
X133699858Y-215232710D01*
X133685398Y-215237534D01*
X133684617Y-215236273D01*
X133674757Y-215236126D01*
X133650927Y-215248861D01*
X133649880Y-215249543D01*
X133625659Y-215263073D01*
X133615155Y-215264303D01*
X133615142Y-215264089D01*
X133605333Y-215265796D01*
X133581007Y-215280318D01*
X133573457Y-215285558D01*
X133546680Y-215302612D01*
X133532467Y-215307740D01*
X133531772Y-215306679D01*
X133521557Y-215309032D01*
X133495192Y-215324062D01*
X133469245Y-215341138D01*
X133435102Y-215363220D01*
X133412391Y-215375210D01*
X133406718Y-215375534D01*
X133397353Y-215377155D01*
X133374384Y-215392403D01*
X133370106Y-215395709D01*
X133341307Y-215415479D01*
X133320992Y-215424458D01*
X133320145Y-215424507D01*
X133301040Y-215431963D01*
X133270603Y-215450417D01*
X133262965Y-215455717D01*
X133234013Y-215474364D01*
X133216225Y-215482131D01*
X133214402Y-215481720D01*
X133201618Y-215486307D01*
X133173393Y-215503546D01*
X133144927Y-215523235D01*
X133096743Y-215555471D01*
X133049822Y-215582637D01*
X133012142Y-215600351D01*
X132996655Y-215604694D01*
X132982406Y-215611977D01*
X132951761Y-215630298D01*
X132915197Y-215653254D01*
X132875588Y-215676753D01*
X132845654Y-215691100D01*
X132832549Y-215693300D01*
X132817192Y-215695070D01*
X132789887Y-215709697D01*
X132785718Y-215712513D01*
X132761821Y-215727120D01*
X132717695Y-215752249D01*
X132657707Y-215785486D01*
X132586224Y-215824417D01*
X132507612Y-215866627D01*
X132489650Y-215876191D01*
X132397574Y-215925530D01*
X132299934Y-215978526D01*
X132204486Y-216030925D01*
X132118983Y-216078472D01*
X132057441Y-216113314D01*
X131996591Y-216148977D01*
X131921280Y-216194307D01*
X131835095Y-216247037D01*
X131741620Y-216304901D01*
X131644441Y-216365632D01*
X131547144Y-216426964D01*
X131453314Y-216486630D01*
X131366538Y-216542364D01*
X131290400Y-216591899D01*
X131228486Y-216632968D01*
X131184382Y-216663306D01*
X131166969Y-216676193D01*
X131134933Y-216700171D01*
X131112208Y-216714721D01*
X131106937Y-216716739D01*
X131091136Y-216724984D01*
X131056616Y-216748202D01*
X131006446Y-216784115D01*
X130943696Y-216830446D01*
X130871435Y-216884920D01*
X130792733Y-216945259D01*
X130710659Y-217009186D01*
X130678264Y-217034705D01*
X130582505Y-217109728D01*
X130481217Y-217187898D01*
X130377370Y-217267022D01*
X130273931Y-217344909D01*
X130173867Y-217419368D01*
X130080149Y-217488207D01*
X129995743Y-217549235D01*
X129923618Y-217600260D01*
X129866741Y-217639091D01*
X129828082Y-217663537D01*
X129821816Y-217667035D01*
X129784456Y-217691250D01*
X129735068Y-217730838D01*
X129672111Y-217787179D01*
X129594043Y-217861657D01*
X129499322Y-217955652D01*
X129495284Y-217959717D01*
X129417800Y-218036780D01*
X129337786Y-218114615D01*
X129260070Y-218188649D01*
X129189482Y-218254308D01*
X129130849Y-218307021D01*
X129106225Y-218328186D01*
X129039514Y-218384733D01*
X128967022Y-218447144D01*
X128898519Y-218506963D01*
X128853865Y-218546628D01*
X128808012Y-218586178D01*
X128770104Y-218615762D01*
X128744440Y-218632229D01*
X128735428Y-218633450D01*
X128723425Y-218635695D01*
X128694430Y-218652912D01*
X128652769Y-218682248D01*
X128602767Y-218720848D01*
X128601835Y-218721596D01*
X128538275Y-218769881D01*
X128469430Y-218817746D01*
X128405113Y-218858562D01*
X128368977Y-218878905D01*
X128309494Y-218912657D01*
X128250080Y-218951123D01*
X128202717Y-218986500D01*
X128199132Y-218989544D01*
X128155141Y-219023363D01*
X128097217Y-219062371D01*
X128036271Y-219099313D01*
X128022418Y-219107059D01*
X127946686Y-219149547D01*
X127855253Y-219202342D01*
X127755881Y-219260860D01*
X127656334Y-219320516D01*
X127564372Y-219376726D01*
X127536094Y-219394311D01*
X127495790Y-219418256D01*
X127444675Y-219446876D01*
X127389105Y-219476830D01*
X127335436Y-219504779D01*
X127290025Y-219527384D01*
X127259225Y-219541305D01*
X127251247Y-219543975D01*
X127235115Y-219551056D01*
X127213036Y-219562715D01*
X127189957Y-219572996D01*
X127181772Y-219572324D01*
X127171884Y-219573348D01*
X127148074Y-219586647D01*
X127147767Y-219586848D01*
X127120947Y-219602424D01*
X127105937Y-219607729D01*
X127089466Y-219612543D01*
X127059819Y-219626147D01*
X127056572Y-219627810D01*
X127028849Y-219640188D01*
X127015300Y-219642393D01*
X127015033Y-219641666D01*
X127005141Y-219642785D01*
X126981323Y-219656130D01*
X126981028Y-219656323D01*
X126952911Y-219672666D01*
X126935869Y-219679254D01*
X126913029Y-219684348D01*
X126910820Y-219685140D01*
X126869628Y-219700319D01*
X126817566Y-219719041D01*
X126761719Y-219738817D01*
X126709169Y-219757161D01*
X126666998Y-219771585D01*
X126642291Y-219779604D01*
X126639869Y-219780270D01*
X126616311Y-219786925D01*
X126575596Y-219799237D01*
X126532183Y-219812768D01*
X126488197Y-219825829D01*
X126456956Y-219833523D01*
X126445339Y-219834214D01*
X126435082Y-219835096D01*
X126417188Y-219843300D01*
X126383890Y-219855479D01*
X126341624Y-219864424D01*
X126339266Y-219864738D01*
X126301560Y-219871650D01*
X126275362Y-219880096D01*
X126273626Y-219881073D01*
X126248087Y-219890505D01*
X126223020Y-219895385D01*
X126184171Y-219902918D01*
X126144182Y-219913833D01*
X126099381Y-219926223D01*
X126060813Y-219934437D01*
X126016238Y-219942470D01*
X125979858Y-219949687D01*
X125938782Y-219957368D01*
X125907997Y-219961954D01*
X125871027Y-219967683D01*
X125838522Y-219974046D01*
X125794805Y-219982542D01*
X125754064Y-219989284D01*
X125705194Y-219996678D01*
X125663747Y-220003149D01*
X125618327Y-220009567D01*
X125567817Y-220015613D01*
X125563009Y-220016121D01*
X125509185Y-220022189D01*
X125454563Y-220029020D01*
X125451849Y-220029384D01*
X125405858Y-220035134D01*
X125348194Y-220041759D01*
X125312899Y-220045562D01*
X125279708Y-220047801D01*
X125225871Y-220050001D01*
X125155478Y-220052109D01*
X125072617Y-220054072D01*
X124981377Y-220055837D01*
X124885848Y-220057352D01*
X124790119Y-220058563D01*
X124698278Y-220059419D01*
X124614416Y-220059866D01*
X124542621Y-220059851D01*
X124486983Y-220059322D01*
X124451590Y-220058225D01*
X124440491Y-220056822D01*
X124425145Y-220053587D01*
X124389066Y-220049647D01*
X124339273Y-220045734D01*
X124325241Y-220044829D01*
X124267910Y-220040672D01*
X124217471Y-220035921D01*
X124183604Y-220031507D01*
X124180459Y-220030912D01*
X124142216Y-220024739D01*
X124085150Y-220017522D01*
X124018151Y-220010291D01*
X123950110Y-220004073D01*
X123944245Y-220003599D01*
X123898593Y-219998353D01*
X123845806Y-219990164D01*
X123833085Y-219987847D01*
X123792425Y-219980393D01*
X123763011Y-219975472D01*
X123756663Y-219974624D01*
X123734061Y-219970697D01*
X123701083Y-219963532D01*
X123615094Y-219945067D01*
X123541291Y-219932501D01*
X123502202Y-219925041D01*
X123473143Y-219916901D01*
X123471816Y-219916366D01*
X123439673Y-219906121D01*
X123430131Y-219904129D01*
X123399108Y-219897497D01*
X123381499Y-219892961D01*
X123352735Y-219885191D01*
X123308763Y-219873520D01*
X123277287Y-219865242D01*
X123225174Y-219851197D01*
X123176500Y-219837443D01*
X123155706Y-219831239D01*
X123125606Y-219823576D01*
X123110850Y-219823069D01*
X123110547Y-219823723D01*
X123100285Y-219823177D01*
X123081855Y-219814834D01*
X123046442Y-219799556D01*
X123026275Y-219793503D01*
X122984817Y-219783826D01*
X122943212Y-219773455D01*
X122922965Y-219768007D01*
X122901332Y-219759966D01*
X122868358Y-219746095D01*
X122867385Y-219745668D01*
X122836765Y-219732531D01*
X122819179Y-219725604D01*
X122818753Y-219725481D01*
X122777330Y-219713095D01*
X122733224Y-219698084D01*
X122714540Y-219690924D01*
X122638827Y-219659939D01*
X122569816Y-219632277D01*
X122512172Y-219609758D01*
X122470560Y-219594203D01*
X122449644Y-219587432D01*
X122449149Y-219587345D01*
X122427396Y-219578573D01*
X122397532Y-219561225D01*
X122367454Y-219544348D01*
X122346624Y-219537418D01*
X122322943Y-219531304D01*
X122307924Y-219524409D01*
X122283015Y-219512005D01*
X122242186Y-219492665D01*
X122200427Y-219473394D01*
X122153926Y-219451022D01*
X122115766Y-219430566D01*
X122096214Y-219417919D01*
X122074044Y-219402532D01*
X122065204Y-219398892D01*
X122044672Y-219391681D01*
X122008796Y-219375921D01*
X121966856Y-219355942D01*
X121928133Y-219336074D01*
X121915580Y-219329102D01*
X121888287Y-219314452D01*
X121873895Y-219308475D01*
X121859588Y-219300832D01*
X121829866Y-219281775D01*
X121801916Y-219262824D01*
X121765054Y-219238320D01*
X121737707Y-219221979D01*
X121727998Y-219217833D01*
X121712594Y-219210526D01*
X121682087Y-219191653D01*
X121654079Y-219172843D01*
X121617585Y-219148251D01*
X121591061Y-219131593D01*
X121582101Y-219127093D01*
X121565068Y-219118869D01*
X121531684Y-219098433D01*
X121488080Y-219069906D01*
X121440389Y-219037409D01*
X121394742Y-219005064D01*
X121357272Y-218976991D01*
X121349360Y-218970684D01*
X121317215Y-218946232D01*
X121295766Y-218933121D01*
X121290306Y-218933001D01*
X121280765Y-218929965D01*
X121255657Y-218912285D01*
X121220254Y-218883701D01*
X121217358Y-218881245D01*
X121178346Y-218849155D01*
X121146354Y-218824820D01*
X121128394Y-218813556D01*
X121108814Y-218801108D01*
X121073259Y-218773337D01*
X121026047Y-218733909D01*
X120971496Y-218686489D01*
X120913922Y-218634742D01*
X120872251Y-218596137D01*
X120834632Y-218562459D01*
X120804989Y-218539041D01*
X120788675Y-218530034D01*
X120787419Y-218530385D01*
X120776205Y-218522917D01*
X120748950Y-218497950D01*
X120708542Y-218458333D01*
X120657864Y-218406914D01*
X120599805Y-218346543D01*
X120579749Y-218325386D01*
X120491539Y-218231955D01*
X120420320Y-218156348D01*
X120363957Y-218096228D01*
X120320314Y-218049259D01*
X120287255Y-218013104D01*
X120262645Y-217985426D01*
X120244347Y-217963890D01*
X120230227Y-217946158D01*
X120218148Y-217929895D01*
X120217800Y-217929413D01*
X120194588Y-217898451D01*
X120159890Y-217853635D01*
X120119722Y-217802699D01*
X120102287Y-217780868D01*
X120042108Y-217705170D01*
X119990524Y-217638970D01*
X119949643Y-217585062D01*
X119921576Y-217546243D01*
X119908431Y-217525309D01*
X119907712Y-217523004D01*
X119899984Y-217508541D01*
X119880519Y-217480485D01*
X119869500Y-217465756D01*
X119846511Y-217433671D01*
X119832915Y-217410829D01*
X119831335Y-217405960D01*
X119823382Y-217389995D01*
X119803367Y-217361419D01*
X119793123Y-217348219D01*
X119769802Y-217316863D01*
X119756178Y-217294430D01*
X119754744Y-217289908D01*
X119747318Y-217273620D01*
X119728321Y-217242465D01*
X119709585Y-217214455D01*
X119685073Y-217177520D01*
X119668732Y-217150019D01*
X119664595Y-217140177D01*
X119657259Y-217123719D01*
X119639258Y-217095413D01*
X119635859Y-217090575D01*
X119619615Y-217064358D01*
X119615921Y-217050753D01*
X119617170Y-217050219D01*
X119617509Y-217041543D01*
X119606647Y-217025902D01*
X119593754Y-217005349D01*
X119571570Y-216964580D01*
X119542536Y-216908572D01*
X119509094Y-216842300D01*
X119473685Y-216770740D01*
X119438749Y-216698869D01*
X119406730Y-216631663D01*
X119380068Y-216574098D01*
X119361204Y-216531150D01*
X119352704Y-216508315D01*
X119345347Y-216492169D01*
X119333608Y-216470104D01*
X119323754Y-216447060D01*
X119325278Y-216438840D01*
X119325102Y-216428967D01*
X119312208Y-216405111D01*
X119311551Y-216404103D01*
X119297846Y-216379865D01*
X119296227Y-216369376D01*
X119296415Y-216369365D01*
X119295660Y-216358676D01*
X119284210Y-216332188D01*
X119280098Y-216324206D01*
X119263822Y-216290714D01*
X119255004Y-216267220D01*
X119254631Y-216265153D01*
X119248047Y-216240729D01*
X119243974Y-216230415D01*
X119220998Y-216171357D01*
X119197299Y-216100027D01*
X119177710Y-216031382D01*
X119172111Y-216008044D01*
X119163001Y-215978265D01*
X119157429Y-215966411D01*
X119147419Y-215941975D01*
X119142746Y-215924778D01*
X119131989Y-215877995D01*
X119123162Y-215845965D01*
X119112718Y-215816195D01*
X119109653Y-215808197D01*
X119096421Y-215765343D01*
X119086245Y-215718253D01*
X119086185Y-215717879D01*
X119077562Y-215677762D01*
X119067196Y-215647141D01*
X119066208Y-215645180D01*
X119059256Y-215623040D01*
X119061042Y-215615843D01*
X119061542Y-215599445D01*
X119053302Y-215570630D01*
X119041026Y-215528657D01*
X119032504Y-215483746D01*
X119026393Y-215443958D01*
X119020049Y-215413663D01*
X119019721Y-215412499D01*
X119013105Y-215383428D01*
X119005982Y-215343786D01*
X119005564Y-215341138D01*
X118998394Y-215296702D01*
X118991771Y-215257914D01*
X118991745Y-215257768D01*
X118979839Y-215188964D01*
X118970441Y-215127584D01*
X118962170Y-215063432D01*
X118953645Y-214986314D01*
X118949405Y-214945131D01*
X118940179Y-214837049D01*
X118932660Y-214714667D01*
X118926975Y-214584071D01*
X118923256Y-214451347D01*
X118921630Y-214322582D01*
X118922228Y-214203862D01*
X118925179Y-214101273D01*
X118929925Y-214028063D01*
X118941179Y-213906854D01*
X118952023Y-213792463D01*
X118961473Y-213695283D01*
X118961542Y-213694584D01*
X118966712Y-213653163D01*
X118974240Y-213603787D01*
X118975933Y-213593808D01*
X118983622Y-213548784D01*
X118989942Y-213510516D01*
X118991054Y-213503491D01*
X118996986Y-213466924D01*
X119003721Y-213427106D01*
X119011476Y-213381650D01*
X119017810Y-213343736D01*
X119029408Y-213281913D01*
X119044951Y-213218213D01*
X119050706Y-213197034D01*
X119057981Y-213163138D01*
X119058527Y-213142530D01*
X119057659Y-213140912D01*
X119057884Y-213124965D01*
X119064609Y-213108712D01*
X119077162Y-213076056D01*
X119085661Y-213041521D01*
X119095416Y-212998173D01*
X119108596Y-212951824D01*
X119108796Y-212951203D01*
X119121972Y-212905057D01*
X119131812Y-212861606D01*
X119131912Y-212861047D01*
X119139082Y-212835342D01*
X120889106Y-212835342D01*
X120895493Y-212876464D01*
X120913244Y-212909384D01*
X120945335Y-212936257D01*
X120994742Y-212959237D01*
X121064440Y-212980477D01*
X121157406Y-213002131D01*
X121206936Y-213012444D01*
X121331341Y-213039334D01*
X121466405Y-213071275D01*
X121607751Y-213107017D01*
X121751005Y-213145309D01*
X121891788Y-213184899D01*
X122025725Y-213224538D01*
X122148440Y-213262973D01*
X122255556Y-213298955D01*
X122342697Y-213331232D01*
X122386411Y-213349569D01*
X122446212Y-213374657D01*
X122513079Y-213400115D01*
X122547801Y-213412196D01*
X122618805Y-213439133D01*
X122708244Y-213478514D01*
X122811159Y-213527784D01*
X122922591Y-213584388D01*
X123037579Y-213645772D01*
X123151165Y-213709379D01*
X123258388Y-213772656D01*
X123312024Y-213805869D01*
X123402119Y-213862374D01*
X123507103Y-213927597D01*
X123618004Y-213996003D01*
X123725855Y-214062058D01*
X123812243Y-214114526D01*
X124266296Y-214399066D01*
X124712373Y-214698857D01*
X125146225Y-215010774D01*
X125563603Y-215331695D01*
X125960260Y-215658497D01*
X126209125Y-215876328D01*
X126322325Y-215978892D01*
X126417990Y-216068072D01*
X126500064Y-216148112D01*
X126572494Y-216223256D01*
X126639228Y-216297749D01*
X126704210Y-216375835D01*
X126771388Y-216461758D01*
X126844708Y-216559764D01*
X126845160Y-216560377D01*
X126880424Y-216606189D01*
X126916750Y-216648217D01*
X126957726Y-216689656D01*
X127006939Y-216733699D01*
X127067977Y-216783541D01*
X127144429Y-216842376D01*
X127239882Y-216913399D01*
X127250251Y-216921030D01*
X127292134Y-216949882D01*
X127324721Y-216968662D01*
X127342512Y-216974325D01*
X127344136Y-216973029D01*
X127357486Y-216973798D01*
X127390953Y-216985378D01*
X127439916Y-217005921D01*
X127499751Y-217033581D01*
X127519131Y-217042990D01*
X127603328Y-217084044D01*
X127699068Y-217130302D01*
X127793320Y-217175486D01*
X127858600Y-217206505D01*
X127955474Y-217256328D01*
X128045821Y-217310452D01*
X128125511Y-217365841D01*
X128190419Y-217419461D01*
X128236416Y-217468279D01*
X128255211Y-217498095D01*
X128268583Y-217529308D01*
X128288919Y-217579209D01*
X128313285Y-217640519D01*
X128335042Y-217696335D01*
X128362321Y-217764705D01*
X128397393Y-217849273D01*
X128436433Y-217940989D01*
X128475618Y-218030805D01*
X128490646Y-218064551D01*
X128526494Y-218144920D01*
X128561812Y-218224871D01*
X128593518Y-218297373D01*
X128618530Y-218355396D01*
X128628203Y-218378316D01*
X128652934Y-218432942D01*
X128675108Y-218463882D01*
X128700257Y-218472402D01*
X128733913Y-218459766D01*
X128781607Y-218427241D01*
X128795729Y-218416638D01*
X128843022Y-218379174D01*
X128899430Y-218332071D01*
X128953783Y-218284684D01*
X128960675Y-218278486D01*
X129008354Y-218235771D01*
X129054077Y-218195439D01*
X129089621Y-218164730D01*
X129096136Y-218159251D01*
X129140934Y-218121949D01*
X129098027Y-218006407D01*
X129028719Y-217815512D01*
X128969221Y-217642678D01*
X128919958Y-217489292D01*
X128881355Y-217356739D01*
X128853836Y-217246405D01*
X128837825Y-217159677D01*
X128837176Y-217154757D01*
X128829569Y-217111877D01*
X128817984Y-217088797D01*
X128797987Y-217077534D01*
X128793588Y-217076263D01*
X128727081Y-217057319D01*
X128642210Y-217031526D01*
X128543086Y-217000272D01*
X128433820Y-216964945D01*
X128318521Y-216926935D01*
X128201301Y-216887630D01*
X128086268Y-216848418D01*
X127977534Y-216810688D01*
X127879208Y-216775830D01*
X127795401Y-216745230D01*
X127730223Y-216720278D01*
X127690270Y-216703516D01*
X127612526Y-216666987D01*
X127521033Y-216622584D01*
X127420710Y-216572826D01*
X127316476Y-216520233D01*
X127213249Y-216467323D01*
X127115950Y-216416615D01*
X127029496Y-216370629D01*
X126958807Y-216331884D01*
X126913119Y-216305520D01*
X126851429Y-216270441D01*
X126801909Y-216246503D01*
X126768855Y-216235673D01*
X126760377Y-216235630D01*
X126743581Y-216231767D01*
X126714607Y-216213319D01*
X126671675Y-216178865D01*
X126613004Y-216126987D01*
X126544164Y-216063182D01*
X126418585Y-215947395D01*
X126306195Y-215848961D01*
X126202270Y-215763990D01*
X126102087Y-215688588D01*
X126021543Y-215632598D01*
X125968475Y-215594961D01*
X125902307Y-215545059D01*
X125830850Y-215488928D01*
X125761913Y-215432608D01*
X125750591Y-215423099D01*
X125587028Y-215286395D01*
X125438651Y-215165408D01*
X125300706Y-215056494D01*
X125168444Y-214956009D01*
X125037113Y-214860309D01*
X124901960Y-214765750D01*
X124826575Y-214714459D01*
X124702523Y-214630611D01*
X124598594Y-214559901D01*
X124511731Y-214500146D01*
X124438874Y-214449159D01*
X124376964Y-214404757D01*
X124322942Y-214364754D01*
X124273749Y-214326966D01*
X124226326Y-214289207D01*
X124192702Y-214261754D01*
X124139364Y-214220561D01*
X124070561Y-214171334D01*
X123994851Y-214120015D01*
X123920791Y-214072543D01*
X123914803Y-214068849D01*
X123835014Y-214018631D01*
X123743806Y-213959376D01*
X123652250Y-213898371D01*
X123571415Y-213842903D01*
X123569081Y-213841267D01*
X123487466Y-213784238D01*
X123422022Y-213739386D01*
X123366280Y-213702773D01*
X123313770Y-213670462D01*
X123258024Y-213638513D01*
X123192573Y-213602990D01*
X123110947Y-213559953D01*
X123082757Y-213545207D01*
X122886705Y-213445965D01*
X122681496Y-213348033D01*
X122473400Y-213254149D01*
X122268686Y-213167048D01*
X122073626Y-213089468D01*
X121894488Y-213024146D01*
X121869462Y-213015602D01*
X121701806Y-212966670D01*
X121508070Y-212924312D01*
X121289220Y-212888725D01*
X121176235Y-212874190D01*
X121128134Y-212865981D01*
X121088833Y-212854888D01*
X121072795Y-212847145D01*
X121057565Y-212833177D01*
X121058046Y-212817779D01*
X121073856Y-212791106D01*
X121149612Y-212700661D01*
X121247508Y-212626058D01*
X121366308Y-212568110D01*
X121457046Y-212538990D01*
X121506387Y-212530084D01*
X121576463Y-212522855D01*
X121660332Y-212517479D01*
X121751052Y-212514130D01*
X121841681Y-212512983D01*
X121925277Y-212514212D01*
X121994897Y-212517993D01*
X122042446Y-212524251D01*
X122115574Y-212551230D01*
X122191316Y-212599058D01*
X122262767Y-212662477D01*
X122323026Y-212736225D01*
X122325565Y-212740005D01*
X122358694Y-212792344D01*
X122378934Y-212833604D01*
X122390315Y-212874752D01*
X122396869Y-212926755D01*
X122397691Y-212936250D01*
X122406951Y-213005285D01*
X122423083Y-213051586D01*
X122449242Y-213079959D01*
X122488583Y-213095212D01*
X122503865Y-213098015D01*
X122549386Y-213109683D01*
X122614306Y-213132742D01*
X122693816Y-213164941D01*
X122783108Y-213204024D01*
X122877371Y-213247738D01*
X122971797Y-213293829D01*
X123061576Y-213340044D01*
X123141899Y-213384129D01*
X123207956Y-213423829D01*
X123229328Y-213437991D01*
X123279883Y-213466898D01*
X123320900Y-213478837D01*
X123347863Y-213472725D01*
X123352334Y-213467541D01*
X123356994Y-213449407D01*
X123363536Y-213410390D01*
X123370895Y-213357239D01*
X123374824Y-213325118D01*
X123391262Y-213228992D01*
X123415791Y-213145440D01*
X123446597Y-213079079D01*
X123481863Y-213034527D01*
X123492182Y-213026660D01*
X123529109Y-213014789D01*
X123581030Y-213018891D01*
X123649853Y-213039436D01*
X123737486Y-213076896D01*
X123780396Y-213097805D01*
X123882340Y-213150400D01*
X123960751Y-213195500D01*
X124017791Y-213236193D01*
X124055620Y-213275571D01*
X124076399Y-213316726D01*
X124082291Y-213362748D01*
X124075455Y-213416727D01*
X124058053Y-213481756D01*
X124055225Y-213490871D01*
X124036693Y-213570754D01*
X124027823Y-213655886D01*
X124028634Y-213738012D01*
X124039149Y-213808880D01*
X124054318Y-213851456D01*
X124066804Y-213871758D01*
X124086156Y-213896788D01*
X124113756Y-213927838D01*
X124150987Y-213966198D01*
X124199233Y-214013157D01*
X124259875Y-214070007D01*
X124334298Y-214138037D01*
X124423884Y-214218537D01*
X124530015Y-214312799D01*
X124654075Y-214422112D01*
X124797447Y-214547766D01*
X124847475Y-214591501D01*
X124961827Y-214689890D01*
X125075401Y-214784261D01*
X125191488Y-214877080D01*
X125313381Y-214970808D01*
X125444371Y-215067909D01*
X125587750Y-215170847D01*
X125746810Y-215282084D01*
X125924842Y-215404085D01*
X126014595Y-215464891D01*
X126171165Y-215570533D01*
X126307444Y-215662160D01*
X126426098Y-215741419D01*
X126529792Y-215809960D01*
X126621190Y-215869429D01*
X126702958Y-215921477D01*
X126777760Y-215967750D01*
X126848260Y-216009897D01*
X126917125Y-216049566D01*
X126987018Y-216088406D01*
X127060605Y-216128065D01*
X127140550Y-216170191D01*
X127229518Y-216216432D01*
X127230405Y-216216891D01*
X127308299Y-216257253D01*
X127383397Y-216296245D01*
X127449850Y-216330825D01*
X127501810Y-216357950D01*
X127527564Y-216371473D01*
X127585586Y-216399207D01*
X127666182Y-216433548D01*
X127765315Y-216473089D01*
X127878949Y-216516423D01*
X128003048Y-216562142D01*
X128133576Y-216608841D01*
X128266498Y-216655111D01*
X128397776Y-216699546D01*
X128523376Y-216740739D01*
X128639260Y-216777283D01*
X128741394Y-216807770D01*
X128825740Y-216830795D01*
X128882734Y-216843900D01*
X128954675Y-216866034D01*
X129009473Y-216899459D01*
X129043824Y-216941183D01*
X129054421Y-216988217D01*
X129053355Y-216998276D01*
X129053872Y-217026991D01*
X129062390Y-217073941D01*
X129079424Y-217141218D01*
X129105486Y-217230918D01*
X129129095Y-217307275D01*
X129171719Y-217442504D01*
X129207014Y-217553929D01*
X129235878Y-217644290D01*
X129259212Y-217716327D01*
X129277918Y-217772778D01*
X129292896Y-217816384D01*
X129305046Y-217849884D01*
X129315269Y-217876017D01*
X129319104Y-217885217D01*
X129343203Y-217941961D01*
X129453981Y-217846842D01*
X129489880Y-217816130D01*
X129538614Y-217774598D01*
X129596467Y-217725395D01*
X129659724Y-217671672D01*
X129724668Y-217616577D01*
X129787585Y-217563263D01*
X129844757Y-217514878D01*
X129892471Y-217474573D01*
X129927010Y-217445498D01*
X129944658Y-217430804D01*
X129945623Y-217430031D01*
X129946170Y-217413776D01*
X129937355Y-217378511D01*
X129921282Y-217330538D01*
X129900056Y-217276163D01*
X129876837Y-217223906D01*
X129847843Y-217170877D01*
X129814081Y-217120379D01*
X129790618Y-217091903D01*
X129734571Y-217028955D01*
X129679876Y-216959785D01*
X129632002Y-216891880D01*
X129596417Y-216832723D01*
X129586664Y-216812768D01*
X129569358Y-216764629D01*
X129552615Y-216703395D01*
X129541719Y-216651201D01*
X129537228Y-216603679D01*
X129741441Y-216603679D01*
X129743240Y-216648444D01*
X129744376Y-216658882D01*
X129759307Y-216733366D01*
X129784009Y-216790546D01*
X129816348Y-216825577D01*
X129818342Y-216826786D01*
X129861454Y-216839784D01*
X129916260Y-216841018D01*
X129969753Y-216831387D01*
X130006532Y-216813776D01*
X130047029Y-216772304D01*
X130079914Y-216721419D01*
X130098390Y-216672224D01*
X130099989Y-216661159D01*
X130101965Y-216602094D01*
X130093918Y-216559285D01*
X130072019Y-216521898D01*
X130037425Y-216484053D01*
X130001808Y-216450036D01*
X129976424Y-216432521D01*
X129952707Y-216427546D01*
X129922792Y-216431024D01*
X129854242Y-216454771D01*
X129796728Y-216501304D01*
X129768430Y-216537382D01*
X129748997Y-216570904D01*
X129741441Y-216603679D01*
X129537228Y-216603679D01*
X129534009Y-216569615D01*
X129543721Y-216501820D01*
X129573426Y-216440946D01*
X129625694Y-216380125D01*
X129652482Y-216355174D01*
X129740419Y-216292955D01*
X129833350Y-216256073D01*
X129927690Y-216243934D01*
X130019855Y-216255943D01*
X130106260Y-216291503D01*
X130183322Y-216350021D01*
X130247455Y-216430901D01*
X130262037Y-216456396D01*
X130279396Y-216513315D01*
X130282970Y-216586992D01*
X130273778Y-216670667D01*
X130252841Y-216757580D01*
X130221177Y-216840971D01*
X130197101Y-216887102D01*
X130182482Y-216915356D01*
X130173856Y-216944333D01*
X130170132Y-216981764D01*
X130170219Y-217035382D01*
X130171321Y-217069877D01*
X130174480Y-217127873D01*
X130178970Y-217175143D01*
X130184058Y-217204956D01*
X130186767Y-217211401D01*
X130202151Y-217209202D01*
X130228737Y-217191378D01*
X130242347Y-217179378D01*
X130266806Y-217158489D01*
X130309652Y-217124302D01*
X130366848Y-217079938D01*
X130434358Y-217028518D01*
X130508146Y-216973160D01*
X130533030Y-216954676D01*
X130778762Y-216772601D01*
X130718876Y-216627675D01*
X130691753Y-216564629D01*
X130665165Y-216507294D01*
X130642596Y-216462952D01*
X130630181Y-216442290D01*
X130608542Y-216405894D01*
X130584603Y-216356902D01*
X130571767Y-216326545D01*
X130547900Y-216272274D01*
X130520636Y-216226557D01*
X130485426Y-216184339D01*
X130437719Y-216140564D01*
X130372966Y-216090177D01*
X130332554Y-216060766D01*
X130271401Y-216015672D01*
X130196493Y-215958586D01*
X130115377Y-215895363D01*
X130035601Y-215831857D01*
X129995503Y-215799317D01*
X129855014Y-215684585D01*
X129732498Y-215585126D01*
X129624599Y-215498399D01*
X129527963Y-215421861D01*
X129439234Y-215352972D01*
X129355057Y-215289189D01*
X129272077Y-215227971D01*
X129186938Y-215166775D01*
X129096285Y-215103060D01*
X128996762Y-215034284D01*
X128885016Y-214957905D01*
X128882998Y-214956531D01*
X128807090Y-214903929D01*
X128727697Y-214847366D01*
X128652839Y-214792651D01*
X128590538Y-214745595D01*
X128574426Y-214732995D01*
X128509725Y-214682288D01*
X128438285Y-214627097D01*
X128371567Y-214576248D01*
X128344635Y-214556013D01*
X128295393Y-214517021D01*
X128253524Y-214479760D01*
X128225143Y-214449866D01*
X128217755Y-214439122D01*
X128207300Y-214413641D01*
X128190629Y-214367169D01*
X128169656Y-214305286D01*
X128146294Y-214233577D01*
X128134009Y-214194803D01*
X128014135Y-213816453D01*
X127895381Y-213448950D01*
X127778979Y-213096022D01*
X127666163Y-212761394D01*
X127558167Y-212448794D01*
X127522655Y-212347878D01*
X127487326Y-212245960D01*
X127447523Y-212127810D01*
X127406684Y-212003837D01*
X127368244Y-211884447D01*
X127341465Y-211799027D01*
X127313051Y-211707275D01*
X127285181Y-211617928D01*
X127259672Y-211536762D01*
X127238340Y-211469555D01*
X127223004Y-211422082D01*
X127220987Y-211415978D01*
X127188720Y-211318883D01*
X127115441Y-211308359D01*
X127035683Y-211287460D01*
X126949138Y-211249329D01*
X126865268Y-211199281D01*
X126793538Y-211142626D01*
X126762316Y-211110133D01*
X126739106Y-211070876D01*
X126716436Y-211012681D01*
X126696782Y-210944332D01*
X126682623Y-210874614D01*
X126676433Y-210812310D01*
X126676343Y-210805213D01*
X126678726Y-210779338D01*
X127009236Y-210779338D01*
X127017322Y-210791951D01*
X127023335Y-210809371D01*
X127021750Y-210841985D01*
X127020817Y-210847431D01*
X127020346Y-210902588D01*
X127037302Y-210951674D01*
X127068194Y-210985557D01*
X127075075Y-210989390D01*
X127131815Y-211003614D01*
X127197764Y-211000157D01*
X127261444Y-210979895D01*
X127272090Y-210974358D01*
X127321706Y-210933908D01*
X127358870Y-210878917D01*
X127381779Y-210816215D01*
X127388632Y-210752632D01*
X127377629Y-210694999D01*
X127355403Y-210658471D01*
X127310782Y-210628357D01*
X127251989Y-210615062D01*
X127186575Y-210618070D01*
X127122087Y-210636867D01*
X127066076Y-210670935D01*
X127057285Y-210678833D01*
X127029131Y-210713626D01*
X127012171Y-210749800D01*
X127009236Y-210779338D01*
X126678726Y-210779338D01*
X126683546Y-210726987D01*
X126708051Y-210653681D01*
X126712201Y-210644631D01*
X126751005Y-210577079D01*
X126801881Y-210509668D01*
X126858186Y-210449943D01*
X126913275Y-210405446D01*
X126933163Y-210393764D01*
X126966307Y-210372188D01*
X126985405Y-210350717D01*
X126987243Y-210344075D01*
X126984902Y-210322817D01*
X126978484Y-210279928D01*
X126968898Y-210221118D01*
X126957051Y-210152094D01*
X126953585Y-210132459D01*
X126939058Y-210041406D01*
X126924816Y-209936049D01*
X126912552Y-209829841D01*
X126904357Y-209741466D01*
X126898899Y-209671934D01*
X126893600Y-209607372D01*
X126888051Y-209543486D01*
X126881840Y-209475984D01*
X126874557Y-209400573D01*
X126865790Y-209312960D01*
X126855129Y-209208854D01*
X126842162Y-209083960D01*
X126833191Y-208998085D01*
X126822655Y-208887625D01*
X126812823Y-208763633D01*
X126803562Y-208623717D01*
X126794737Y-208465487D01*
X126786215Y-208286553D01*
X126777863Y-208084524D01*
X126769846Y-207865645D01*
X126768796Y-207789933D01*
X126770014Y-207698210D01*
X126773186Y-207595966D01*
X126777997Y-207488695D01*
X126784131Y-207381890D01*
X126791276Y-207281043D01*
X126799115Y-207191647D01*
X126807335Y-207119195D01*
X126815411Y-207070129D01*
X126817713Y-207043707D01*
X126805602Y-207026815D01*
X126773943Y-207011075D01*
X126725503Y-206998632D01*
X126655426Y-206991602D01*
X126601286Y-206990262D01*
X126528427Y-206988914D01*
X126478994Y-206982515D01*
X126448664Y-206967536D01*
X126433115Y-206940446D01*
X126428025Y-206897715D01*
X126428599Y-206849231D01*
X126432750Y-206755927D01*
X126438705Y-206686391D01*
X126447226Y-206636622D01*
X126459075Y-206602617D01*
X126475016Y-206580375D01*
X126480760Y-206575358D01*
X126508476Y-206561638D01*
X126555541Y-206546254D01*
X126613828Y-206531694D01*
X126642390Y-206525916D01*
X126714880Y-206512274D01*
X126764433Y-206501988D01*
X126795412Y-206493221D01*
X126812180Y-206484137D01*
X126819098Y-206472898D01*
X126820532Y-206457666D01*
X126820545Y-206450896D01*
X126823141Y-206421517D01*
X126830089Y-206372845D01*
X126840187Y-206312813D01*
X126847251Y-206274671D01*
X126859114Y-206206411D01*
X126872131Y-206121009D01*
X126884784Y-206028988D01*
X126895559Y-205940866D01*
X126896301Y-205934245D01*
X126907801Y-205841949D01*
X126923082Y-205735013D01*
X126940248Y-205626001D01*
X126957398Y-205527478D01*
X126959282Y-205517396D01*
X126992504Y-205338724D01*
X127020037Y-205185272D01*
X127042207Y-205055127D01*
X127059342Y-204946377D01*
X127070841Y-204864332D01*
X127079224Y-204806387D01*
X127091923Y-204727255D01*
X127107854Y-204633009D01*
X127125929Y-204529720D01*
X127145063Y-204423461D01*
X127164171Y-204320306D01*
X127182166Y-204226325D01*
X127197964Y-204147593D01*
X127204582Y-204116378D01*
X127214593Y-204058805D01*
X127219720Y-204004910D01*
X127218883Y-203966162D01*
X127218786Y-203965546D01*
X127220809Y-203909255D01*
X127232547Y-203883418D01*
X127246281Y-203859114D01*
X127242514Y-203847325D01*
X127228436Y-203841082D01*
X127194951Y-203823746D01*
X127181499Y-203813893D01*
X127159097Y-203800163D01*
X127118742Y-203779975D01*
X127068278Y-203757199D01*
X127056444Y-203752160D01*
X126994095Y-203725389D01*
X126953924Y-203704459D01*
X126932552Y-203684299D01*
X126926598Y-203659837D01*
X126932684Y-203626001D01*
X126945114Y-203585086D01*
X126961961Y-203523786D01*
X126975976Y-203459094D01*
X126982257Y-203419256D01*
X126994388Y-203361610D01*
X127018192Y-203285972D01*
X127051223Y-203198283D01*
X127091034Y-203104488D01*
X127135179Y-203010528D01*
X127181212Y-202922348D01*
X127201287Y-202887161D01*
X127270320Y-202782287D01*
X127344487Y-202695645D01*
X127374596Y-202666427D01*
X127440641Y-202611024D01*
X127515489Y-202557551D01*
X127592827Y-202509736D01*
X127666344Y-202471309D01*
X127729728Y-202445997D01*
X127760139Y-202438676D01*
X127830812Y-202438953D01*
X127902707Y-202457739D01*
X127969692Y-202491364D01*
X128025635Y-202536157D01*
X128064404Y-202588450D01*
X128078310Y-202629090D01*
X128080247Y-202679466D01*
X128073746Y-202750807D01*
X128059679Y-202837895D01*
X128038916Y-202935510D01*
X128012328Y-203038432D01*
X128006739Y-203057987D01*
X127991155Y-203116339D01*
X127972636Y-203192942D01*
X127953282Y-203278717D01*
X127935196Y-203364586D01*
X127931626Y-203382433D01*
X127912618Y-203472875D01*
X127891350Y-203564663D01*
X127869095Y-203653157D01*
X127847127Y-203733719D01*
X127826718Y-203801713D01*
X127809143Y-203852498D01*
X127795674Y-203881438D01*
X127793991Y-203883724D01*
X127771240Y-203892339D01*
X127721109Y-203896369D01*
X127647128Y-203895919D01*
X127584943Y-203894471D01*
X127543958Y-203895432D01*
X127517604Y-203900085D01*
X127499313Y-203909711D01*
X127482517Y-203925591D01*
X127479724Y-203928588D01*
X127452514Y-203973069D01*
X127445574Y-204008347D01*
X127440735Y-204048839D01*
X127428884Y-204097712D01*
X127424028Y-204112771D01*
X127414483Y-204146353D01*
X127401240Y-204201503D01*
X127385579Y-204272449D01*
X127368781Y-204353420D01*
X127354643Y-204425408D01*
X127336971Y-204515894D01*
X127318602Y-204606541D01*
X127301081Y-204689950D01*
X127285954Y-204758725D01*
X127277455Y-204794857D01*
X127235627Y-204987791D01*
X127202663Y-205193342D01*
X127177484Y-205418353D01*
X127175331Y-205442436D01*
X127167611Y-205527895D01*
X127157744Y-205632907D01*
X127146513Y-205749391D01*
X127134699Y-205869266D01*
X127123085Y-205984450D01*
X127119681Y-206017615D01*
X127104466Y-206173035D01*
X127093655Y-206301936D01*
X127087222Y-206405232D01*
X127085136Y-206483836D01*
X127087369Y-206538663D01*
X127093892Y-206570627D01*
X127101876Y-206580254D01*
X127122794Y-206584318D01*
X127164040Y-206590132D01*
X127218289Y-206596706D01*
X127244867Y-206599634D01*
X127332007Y-206611044D01*
X127394417Y-206625976D01*
X127435155Y-206647674D01*
X127457282Y-206679384D01*
X127463854Y-206724351D01*
X127457930Y-206785822D01*
X127452052Y-206819475D01*
X127436330Y-206895578D01*
X127421459Y-206948961D01*
X127405522Y-206984554D01*
X127386601Y-207007288D01*
X127376009Y-207015011D01*
X127351054Y-207023668D01*
X127305757Y-207033297D01*
X127247463Y-207042488D01*
X127206225Y-207047545D01*
X127126793Y-207056220D01*
X127070936Y-207064337D01*
X127034716Y-207075232D01*
X127014193Y-207092242D01*
X127005427Y-207118704D01*
X127004479Y-207157954D01*
X127007410Y-207213330D01*
X127007546Y-207215824D01*
X127009260Y-207258021D01*
X127011204Y-207324227D01*
X127013298Y-207410666D01*
X127015466Y-207513560D01*
X127017629Y-207629131D01*
X127019710Y-207753600D01*
X127021630Y-207883191D01*
X127022238Y-207928173D01*
X127024228Y-208058466D01*
X127026671Y-208184778D01*
X127029458Y-208303359D01*
X127032479Y-208410458D01*
X127035626Y-208502325D01*
X127038789Y-208575211D01*
X127041859Y-208625365D01*
X127042888Y-208636816D01*
X127064036Y-208842628D01*
X127082135Y-209022541D01*
X127097352Y-209178258D01*
X127109856Y-209311485D01*
X127112937Y-209345459D01*
X127119336Y-209413425D01*
X127125305Y-209470967D01*
X127130239Y-209512649D01*
X127133535Y-209533034D01*
X127133900Y-209534011D01*
X127137132Y-209550259D01*
X127142247Y-209588188D01*
X127148493Y-209641814D01*
X127153982Y-209693803D01*
X127162667Y-209768951D01*
X127173388Y-209846042D01*
X127184462Y-209913513D01*
X127190224Y-209942943D01*
X127213653Y-210051296D01*
X127232303Y-210135469D01*
X127246982Y-210198504D01*
X127258503Y-210243444D01*
X127267674Y-210273331D01*
X127275306Y-210291206D01*
X127282209Y-210300113D01*
X127285925Y-210302266D01*
X127309303Y-210307664D01*
X127350446Y-210314186D01*
X127389653Y-210319150D01*
X127474245Y-210337197D01*
X127541926Y-210372253D01*
X127597336Y-210427800D01*
X127645116Y-210507319D01*
X127647771Y-210512781D01*
X127671942Y-210567261D01*
X127688793Y-210618033D01*
X127700806Y-210674842D01*
X127710461Y-210747435D01*
X127712620Y-210767487D01*
X127719853Y-210862506D01*
X127718350Y-210936041D01*
X127707025Y-210993323D01*
X127684795Y-211039583D01*
X127650575Y-211080054D01*
X127647172Y-211083307D01*
X127587237Y-211155339D01*
X127553489Y-211232984D01*
X127546672Y-211314487D01*
X127547137Y-211319479D01*
X127553435Y-211350467D01*
X127567716Y-211403806D01*
X127588794Y-211475609D01*
X127615486Y-211561992D01*
X127646606Y-211659071D01*
X127680969Y-211762961D01*
X127695702Y-211806567D01*
X127765566Y-212012151D01*
X127827163Y-212193627D01*
X127881218Y-212353180D01*
X127928455Y-212492998D01*
X127969598Y-212615268D01*
X128005373Y-212722174D01*
X128036504Y-212815906D01*
X128063715Y-212898648D01*
X128087731Y-212972587D01*
X128109276Y-213039911D01*
X128129075Y-213102805D01*
X128147852Y-213163457D01*
X128166332Y-213224052D01*
X128176253Y-213256892D01*
X128246392Y-213479116D01*
X128316552Y-213679237D01*
X128388893Y-213862860D01*
X128465573Y-214035590D01*
X128516493Y-214140172D01*
X128613938Y-214333752D01*
X128755870Y-214456541D01*
X128818023Y-214508587D01*
X128894951Y-214570388D01*
X128978706Y-214635703D01*
X129061341Y-214698288D01*
X129099278Y-214726258D01*
X129176617Y-214782905D01*
X129257633Y-214842668D01*
X129334953Y-214900081D01*
X129401202Y-214949675D01*
X129430310Y-214971686D01*
X129552353Y-215064057D01*
X129669987Y-215152294D01*
X129779250Y-215233459D01*
X129876180Y-215304616D01*
X129956814Y-215362829D01*
X129984588Y-215382514D01*
X130046906Y-215427654D01*
X130117976Y-215481103D01*
X130185221Y-215533353D01*
X130203928Y-215548308D01*
X130268096Y-215597790D01*
X130343158Y-215652250D01*
X130416167Y-215702384D01*
X130440142Y-215718022D01*
X130503620Y-215759313D01*
X130569131Y-215803023D01*
X130626419Y-215842269D01*
X130648567Y-215857918D01*
X130692491Y-215888585D01*
X130729813Y-215913089D01*
X130752941Y-215926462D01*
X130753924Y-215926891D01*
X130768336Y-215944725D01*
X130786738Y-215985708D01*
X130807419Y-216045787D01*
X130815521Y-216072788D01*
X130830576Y-216117693D01*
X130853566Y-216177691D01*
X130882158Y-216247516D01*
X130914015Y-216321899D01*
X130946806Y-216395574D01*
X130978194Y-216463274D01*
X131005847Y-216519730D01*
X131027430Y-216559676D01*
X131038471Y-216575899D01*
X131050158Y-216569589D01*
X131080056Y-216550366D01*
X131123660Y-216521326D01*
X131176465Y-216485566D01*
X131233967Y-216446181D01*
X131291660Y-216406269D01*
X131345040Y-216368925D01*
X131389603Y-216337245D01*
X131420843Y-216314326D01*
X131432349Y-216305174D01*
X131428725Y-216291553D01*
X131414924Y-216257510D01*
X131392922Y-216207613D01*
X131387416Y-216195678D01*
X131600372Y-216195678D01*
X131607319Y-216202626D01*
X131614267Y-216195678D01*
X131607319Y-216188731D01*
X131600372Y-216195678D01*
X131387416Y-216195678D01*
X131364699Y-216146432D01*
X131352095Y-216119789D01*
X131313611Y-216036400D01*
X131272929Y-215943908D01*
X131234980Y-215853759D01*
X131205532Y-215779608D01*
X131178443Y-215710048D01*
X131156406Y-215660085D01*
X131135406Y-215623047D01*
X131111429Y-215592260D01*
X131080459Y-215561054D01*
X131065913Y-215547599D01*
X131013164Y-215501907D01*
X130954326Y-215454690D01*
X130908069Y-215420426D01*
X130856818Y-215382787D01*
X130805410Y-215342015D01*
X130773621Y-215314657D01*
X130737554Y-215284808D01*
X130686222Y-215246246D01*
X130627883Y-215205056D01*
X130594616Y-215182707D01*
X130527442Y-215137522D01*
X130454203Y-215086671D01*
X130387232Y-215038762D01*
X130365349Y-215022640D01*
X130313869Y-214984922D01*
X130247276Y-214937075D01*
X130173386Y-214884670D01*
X130100014Y-214833277D01*
X130084251Y-214822335D01*
X130022821Y-214778445D01*
X129945474Y-214721120D01*
X129857748Y-214654585D01*
X129765180Y-214583065D01*
X129673311Y-214510785D01*
X129620698Y-214468705D01*
X129541970Y-214405484D01*
X129468690Y-214347003D01*
X129404142Y-214295853D01*
X129351609Y-214254626D01*
X129314372Y-214225912D01*
X129296451Y-214212777D01*
X129269818Y-214185593D01*
X129244091Y-214144317D01*
X129235076Y-214124345D01*
X129216580Y-214070862D01*
X129193645Y-213994273D01*
X129167313Y-213898716D01*
X129138630Y-213788326D01*
X129108639Y-213667242D01*
X129078384Y-213539601D01*
X129048908Y-213409539D01*
X129021257Y-213281195D01*
X129016202Y-213256892D01*
X128994686Y-213152992D01*
X128972651Y-213046920D01*
X128951503Y-212945421D01*
X128932648Y-212855239D01*
X128917493Y-212783120D01*
X128913241Y-212763009D01*
X128898410Y-212688271D01*
X128881592Y-212595855D01*
X128864503Y-212495625D01*
X128848855Y-212397447D01*
X128843251Y-212360055D01*
X128828989Y-212263157D01*
X128813377Y-212157779D01*
X128798007Y-212054619D01*
X128784468Y-211964375D01*
X128780313Y-211936871D01*
X128768942Y-211853293D01*
X128757271Y-211752894D01*
X128746463Y-211646601D01*
X128737680Y-211545343D01*
X128735440Y-211515126D01*
X128728781Y-211426521D01*
X128722746Y-211362065D01*
X128716763Y-211318145D01*
X128710259Y-211291147D01*
X128702661Y-211277455D01*
X128697230Y-211274090D01*
X128602457Y-211239183D01*
X128529670Y-211199538D01*
X128473064Y-211150640D01*
X128426834Y-211087975D01*
X128403553Y-211045659D01*
X128367407Y-210958731D01*
X128352681Y-210878873D01*
X128357266Y-210811852D01*
X128610249Y-210811852D01*
X128610682Y-210873893D01*
X128632728Y-210932545D01*
X128675626Y-210981951D01*
X128717166Y-211007674D01*
X128781287Y-211025982D01*
X128838205Y-211017604D01*
X128889156Y-210982330D01*
X128893582Y-210977732D01*
X128921418Y-210937474D01*
X128939378Y-210892680D01*
X128940305Y-210888322D01*
X128944363Y-210838990D01*
X128940919Y-210785731D01*
X128931396Y-210738172D01*
X128917216Y-210705940D01*
X128912615Y-210700981D01*
X128889643Y-210691689D01*
X128848485Y-210682959D01*
X128805610Y-210677482D01*
X128754596Y-210674162D01*
X128721271Y-210676953D01*
X128695869Y-210687645D01*
X128677271Y-210701030D01*
X128632191Y-210752279D01*
X128610249Y-210811852D01*
X128357266Y-210811852D01*
X128358292Y-210796849D01*
X128368866Y-210750352D01*
X128408538Y-210654638D01*
X128470336Y-210574233D01*
X128551679Y-210511730D01*
X128647691Y-210470398D01*
X128703271Y-210453876D01*
X128706467Y-210233147D01*
X128707037Y-210184631D01*
X128707723Y-210110911D01*
X128708506Y-210014571D01*
X128709370Y-209898198D01*
X128710297Y-209764377D01*
X128711270Y-209615691D01*
X128712272Y-209454728D01*
X128713285Y-209284072D01*
X128714293Y-209106308D01*
X128715278Y-208924022D01*
X128715653Y-208852188D01*
X128716712Y-208626246D01*
X128717399Y-208425931D01*
X128717696Y-208249079D01*
X128717580Y-208093530D01*
X128717030Y-207957120D01*
X128716026Y-207837689D01*
X128714546Y-207733075D01*
X128712570Y-207641115D01*
X128710077Y-207559648D01*
X128707045Y-207486512D01*
X128703453Y-207419545D01*
X128701423Y-207387423D01*
X128695103Y-207297746D01*
X128688730Y-207217145D01*
X128682694Y-207149846D01*
X128677386Y-207100079D01*
X128673197Y-207072071D01*
X128671881Y-207067838D01*
X128664151Y-207045158D01*
X128656641Y-207007731D01*
X128655126Y-206997349D01*
X128647691Y-206941909D01*
X128564322Y-206940031D01*
X128506139Y-206941751D01*
X128448312Y-206948203D01*
X128420457Y-206953772D01*
X128372042Y-206975799D01*
X128332973Y-207016102D01*
X128301292Y-207077638D01*
X128275042Y-207163366D01*
X128271324Y-207179051D01*
X128257024Y-207238784D01*
X128242728Y-207291324D01*
X128226199Y-207343199D01*
X128205202Y-207400941D01*
X128177501Y-207471080D01*
X128140941Y-207559956D01*
X128079015Y-207722991D01*
X128030868Y-207883171D01*
X127995459Y-208046372D01*
X127971747Y-208218473D01*
X127958693Y-208405350D01*
X127955239Y-208609026D01*
X127956485Y-208708495D01*
X127959254Y-208811829D01*
X127963225Y-208910779D01*
X127968074Y-208997097D01*
X127972579Y-209053665D01*
X127976627Y-209104917D01*
X127980817Y-209175287D01*
X127985049Y-209261221D01*
X127989223Y-209359166D01*
X127993239Y-209465571D01*
X127996998Y-209576882D01*
X128000400Y-209689548D01*
X128003345Y-209800014D01*
X128005733Y-209904729D01*
X128007465Y-210000140D01*
X128008440Y-210082694D01*
X128008558Y-210148838D01*
X128007721Y-210195021D01*
X128005827Y-210217689D01*
X128005323Y-210219072D01*
X127997450Y-210213335D01*
X127983700Y-210186264D01*
X127966539Y-210143031D01*
X127959347Y-210122593D01*
X127936435Y-210055382D01*
X127909590Y-209976753D01*
X127883887Y-209901575D01*
X127879002Y-209887302D01*
X127856712Y-209818557D01*
X127838490Y-209752658D01*
X127823860Y-209685576D01*
X127812349Y-209613283D01*
X127803481Y-209531748D01*
X127796781Y-209436943D01*
X127791774Y-209324839D01*
X127787986Y-209191406D01*
X127786092Y-209098979D01*
X127783550Y-208971381D01*
X127780305Y-208824525D01*
X127776565Y-208666927D01*
X127772540Y-208507103D01*
X127768438Y-208353570D01*
X127764467Y-208214845D01*
X127764367Y-208211492D01*
X127759496Y-207968038D01*
X127758612Y-207700700D01*
X127761621Y-207413082D01*
X127768435Y-207108790D01*
X127775622Y-206892089D01*
X128946433Y-206892089D01*
X128949129Y-206911248D01*
X128956235Y-206949655D01*
X128966279Y-206999398D01*
X128967459Y-207005030D01*
X128975028Y-207058226D01*
X128980997Y-207136558D01*
X128985351Y-207237421D01*
X128988072Y-207358206D01*
X128989144Y-207496305D01*
X128988551Y-207649112D01*
X128986277Y-207814019D01*
X128982305Y-207988418D01*
X128976619Y-208169701D01*
X128975033Y-208213019D01*
X128972845Y-208284409D01*
X128970864Y-208375251D01*
X128969091Y-208483024D01*
X128967529Y-208605206D01*
X128966181Y-208739272D01*
X128965049Y-208882701D01*
X128964135Y-209032970D01*
X128963443Y-209187556D01*
X128962975Y-209343937D01*
X128962734Y-209499590D01*
X128962721Y-209651991D01*
X128962941Y-209798620D01*
X128963394Y-209936952D01*
X128964085Y-210064465D01*
X128965015Y-210178637D01*
X128966187Y-210276944D01*
X128967603Y-210356865D01*
X128969267Y-210415876D01*
X128971180Y-210451455D01*
X128972730Y-210461171D01*
X128989384Y-210473628D01*
X129023301Y-210491649D01*
X129052486Y-210504953D01*
X129134916Y-210553625D01*
X129196244Y-210620114D01*
X129236608Y-210704658D01*
X129256149Y-210807494D01*
X129258160Y-210853063D01*
X129256942Y-210913163D01*
X129250001Y-210959418D01*
X129234279Y-211005130D01*
X129212420Y-211052095D01*
X129164692Y-211134801D01*
X129113591Y-211197428D01*
X129061762Y-211237109D01*
X129030784Y-211248854D01*
X128999526Y-211258093D01*
X128983237Y-211267389D01*
X128983167Y-211267507D01*
X128980238Y-211289376D01*
X128981193Y-211333883D01*
X128985520Y-211396229D01*
X128992708Y-211471612D01*
X129002244Y-211555232D01*
X129013616Y-211642288D01*
X129026312Y-211727979D01*
X129039820Y-211807505D01*
X129042021Y-211819328D01*
X129058222Y-211909991D01*
X129073816Y-212005881D01*
X129087306Y-212097210D01*
X129097195Y-212174188D01*
X129099327Y-212193928D01*
X129115366Y-212327498D01*
X129138192Y-212481381D01*
X129166651Y-212649257D01*
X129199585Y-212824809D01*
X129235841Y-213001718D01*
X129274261Y-213173666D01*
X129292487Y-213249945D01*
X129317317Y-213352380D01*
X129341858Y-213455161D01*
X129364686Y-213552204D01*
X129384374Y-213637424D01*
X129399496Y-213704736D01*
X129404804Y-213729321D01*
X129421977Y-213806736D01*
X129439441Y-213871710D01*
X129459778Y-213927472D01*
X129485574Y-213977252D01*
X129519412Y-214024280D01*
X129563876Y-214071784D01*
X129621550Y-214122993D01*
X129695017Y-214181139D01*
X129786862Y-214249448D01*
X129868150Y-214308421D01*
X129942670Y-214362933D01*
X130014337Y-214416666D01*
X130078179Y-214465792D01*
X130129223Y-214506485D01*
X130162243Y-214534686D01*
X130208166Y-214574265D01*
X130255939Y-214611093D01*
X130287297Y-214632207D01*
X130334559Y-214663473D01*
X130383332Y-214699904D01*
X130394767Y-214709254D01*
X130437953Y-214741514D01*
X130490852Y-214775633D01*
X130519822Y-214792203D01*
X130556266Y-214814162D01*
X130609069Y-214849099D01*
X130672526Y-214893093D01*
X130740936Y-214942222D01*
X130780569Y-214971476D01*
X130852046Y-215024404D01*
X130924363Y-215077250D01*
X130990934Y-215125246D01*
X131045170Y-215163625D01*
X131065416Y-215177591D01*
X131152016Y-215236619D01*
X131218642Y-215282745D01*
X131268324Y-215318653D01*
X131304095Y-215347028D01*
X131328985Y-215370556D01*
X131346026Y-215391923D01*
X131358251Y-215413812D01*
X131368689Y-215438909D01*
X131372837Y-215449898D01*
X131387395Y-215484958D01*
X131412112Y-215540268D01*
X131444824Y-215611170D01*
X131483368Y-215693004D01*
X131525580Y-215781112D01*
X131550112Y-215831655D01*
X131697864Y-216134590D01*
X131756804Y-216098822D01*
X131791600Y-216078272D01*
X131843837Y-216048117D01*
X131906676Y-216012276D01*
X131973283Y-215974668D01*
X131979010Y-215971453D01*
X132038801Y-215937667D01*
X132088762Y-215908980D01*
X132124461Y-215887971D01*
X132141464Y-215877220D01*
X132142276Y-215876423D01*
X132136030Y-215863568D01*
X132119458Y-215832520D01*
X132095806Y-215789335D01*
X132089127Y-215777280D01*
X132063432Y-215730997D01*
X132028119Y-215667380D01*
X131987055Y-215593395D01*
X131944106Y-215516007D01*
X131924173Y-215480087D01*
X131885825Y-215410044D01*
X131851830Y-215346188D01*
X131824741Y-215293452D01*
X131807111Y-215256770D01*
X131801933Y-215243873D01*
X131789489Y-215211526D01*
X131779544Y-215194104D01*
X131776570Y-215174398D01*
X131778734Y-215135384D01*
X131784845Y-215084813D01*
X131793712Y-215030438D01*
X131804145Y-214980009D01*
X131814953Y-214941279D01*
X131820392Y-214928209D01*
X131829506Y-214902968D01*
X131841463Y-214859312D01*
X131853860Y-214806116D01*
X131855321Y-214799234D01*
X131864974Y-214754227D01*
X131879474Y-214687879D01*
X131897546Y-214605955D01*
X131917918Y-214514223D01*
X131939317Y-214418448D01*
X131945849Y-214389332D01*
X131968297Y-214286856D01*
X131990633Y-214180382D01*
X132011354Y-214077399D01*
X132028961Y-213985394D01*
X132041949Y-213911852D01*
X132043386Y-213903008D01*
X132071222Y-213728410D01*
X132094945Y-213578355D01*
X132114986Y-213449971D01*
X132131778Y-213340385D01*
X132145755Y-213246725D01*
X132157349Y-213166120D01*
X132166994Y-213095696D01*
X132175122Y-213032581D01*
X132177441Y-213013731D01*
X132183942Y-212962303D01*
X132190911Y-212912339D01*
X132198988Y-212860390D01*
X132208816Y-212803008D01*
X132221036Y-212736744D01*
X132236290Y-212658148D01*
X132255220Y-212563774D01*
X132278468Y-212450171D01*
X132306676Y-212313892D01*
X132316378Y-212267220D01*
X132328958Y-212200581D01*
X132343391Y-212114056D01*
X132358490Y-212015381D01*
X132373072Y-211912291D01*
X132385572Y-211815633D01*
X132398176Y-211715822D01*
X132411849Y-211613084D01*
X132425519Y-211515106D01*
X132438114Y-211429573D01*
X132448313Y-211365633D01*
X132462043Y-211283379D01*
X132470751Y-211224560D01*
X132474332Y-211185259D01*
X132472681Y-211161561D01*
X132465693Y-211149548D01*
X132453263Y-211145305D01*
X132442397Y-211144857D01*
X132405365Y-211137648D01*
X132354183Y-211118612D01*
X132297622Y-211091636D01*
X132244453Y-211060605D01*
X132229977Y-211050731D01*
X132199660Y-211020786D01*
X132167317Y-210976209D01*
X132146607Y-210939571D01*
X132127167Y-210896515D01*
X132115554Y-210858371D01*
X132109935Y-210815274D01*
X132108475Y-210757354D01*
X132108565Y-210737908D01*
X132326545Y-210737908D01*
X132335708Y-210764057D01*
X132360141Y-210796651D01*
X132373601Y-210811877D01*
X132411306Y-210848803D01*
X132449614Y-210878839D01*
X132468807Y-210890006D01*
X132523967Y-210902174D01*
X132586043Y-210897017D01*
X132641497Y-210876022D01*
X132650608Y-210870049D01*
X132686304Y-210831616D01*
X132717245Y-210775963D01*
X132738552Y-210713660D01*
X132745421Y-210664648D01*
X132735187Y-210605279D01*
X132703674Y-210560733D01*
X132653969Y-210532469D01*
X132589158Y-210521945D01*
X132512327Y-210530621D01*
X132480294Y-210539358D01*
X132410412Y-210574703D01*
X132359803Y-210629641D01*
X132330265Y-210702154D01*
X132328744Y-210709260D01*
X132326545Y-210737908D01*
X132108565Y-210737908D01*
X132108579Y-210734956D01*
X132118003Y-210617638D01*
X132145074Y-210518560D01*
X132191186Y-210433422D01*
X132217018Y-210400258D01*
X132267824Y-210352893D01*
X132328327Y-210314359D01*
X132389291Y-210289708D01*
X132430612Y-210283370D01*
X132447856Y-210282759D01*
X132461239Y-210278693D01*
X132471601Y-210267817D01*
X132479783Y-210246777D01*
X132486627Y-210212220D01*
X132492973Y-210160791D01*
X132499663Y-210089137D01*
X132507538Y-209993903D01*
X132509596Y-209968424D01*
X132520044Y-209837238D01*
X132528200Y-209728827D01*
X132534205Y-209638279D01*
X132538199Y-209560686D01*
X132540320Y-209491137D01*
X132540710Y-209424723D01*
X132539507Y-209356534D01*
X132536851Y-209281660D01*
X132532882Y-209195192D01*
X132532074Y-209178720D01*
X132526927Y-209073095D01*
X132521517Y-208959782D01*
X132516275Y-208847923D01*
X132511628Y-208746662D01*
X132508384Y-208673837D01*
X132504657Y-208587376D01*
X132499940Y-208524768D01*
X132490894Y-208482176D01*
X132474180Y-208455764D01*
X132446459Y-208441693D01*
X132404394Y-208436129D01*
X132344644Y-208435232D01*
X132300865Y-208435339D01*
X132247388Y-208435354D01*
X132207945Y-208432939D01*
X132180080Y-208424403D01*
X132161335Y-208406055D01*
X132149252Y-208374204D01*
X132141373Y-208325161D01*
X132135241Y-208255234D01*
X132129687Y-208178282D01*
X132123436Y-208063489D01*
X132122121Y-207962278D01*
X132125605Y-207878182D01*
X132133752Y-207814736D01*
X132145255Y-207777625D01*
X132176154Y-207746674D01*
X132231985Y-207725744D01*
X132313168Y-207714716D01*
X132377224Y-207712801D01*
X132433210Y-207711661D01*
X132477806Y-207708612D01*
X132504345Y-207704207D01*
X132508655Y-207701879D01*
X132510185Y-207685024D01*
X132510172Y-207645216D01*
X132508727Y-207587241D01*
X132505958Y-207515887D01*
X132503014Y-207455243D01*
X132498177Y-207367438D01*
X132493195Y-207287518D01*
X132487586Y-207209656D01*
X132480867Y-207128030D01*
X132472556Y-207036814D01*
X132462171Y-206930185D01*
X132449231Y-206802318D01*
X132447844Y-206788785D01*
X132427309Y-206586990D01*
X132409756Y-206410928D01*
X132395012Y-206258719D01*
X132382906Y-206128486D01*
X132373265Y-206018351D01*
X132365920Y-205926435D01*
X132360697Y-205850860D01*
X132358339Y-205809190D01*
X132353949Y-205720254D01*
X132349836Y-205655281D01*
X132344119Y-205610528D01*
X132334917Y-205582252D01*
X132320348Y-205566710D01*
X132298534Y-205560159D01*
X132267593Y-205558857D01*
X132232674Y-205559081D01*
X132130752Y-205559081D01*
X132119784Y-205451395D01*
X132116777Y-205407932D01*
X132114036Y-205341765D01*
X132111681Y-205257982D01*
X132109835Y-205161669D01*
X132108620Y-205057912D01*
X132108177Y-204968545D01*
X132108211Y-204844608D01*
X132109261Y-204745159D01*
X132112046Y-204666899D01*
X132117284Y-204606527D01*
X132125695Y-204560742D01*
X132137999Y-204526245D01*
X132154913Y-204499735D01*
X132177158Y-204477913D01*
X132205452Y-204457478D01*
X132221846Y-204446906D01*
X132272377Y-204419662D01*
X132318463Y-204407800D01*
X132365725Y-204412191D01*
X132419782Y-204433708D01*
X132486253Y-204473225D01*
X132514883Y-204492421D01*
X132537976Y-204509892D01*
X132558628Y-204530597D01*
X132579472Y-204558672D01*
X132603139Y-204598251D01*
X132632259Y-204653472D01*
X132669465Y-204728470D01*
X132683811Y-204757945D01*
X132752561Y-204904319D01*
X132806564Y-205030253D01*
X132846688Y-205138294D01*
X132873802Y-205230991D01*
X132888774Y-205310890D01*
X132892604Y-205370159D01*
X132892604Y-205470342D01*
X132795439Y-205517348D01*
X132742908Y-205545803D01*
X132705732Y-205572116D01*
X132689575Y-205591758D01*
X132686750Y-205617536D01*
X132686273Y-205665281D01*
X132687868Y-205729298D01*
X132691255Y-205803889D01*
X132696158Y-205883358D01*
X132702299Y-205962006D01*
X132709399Y-206034137D01*
X132712372Y-206059299D01*
X132718395Y-206111432D01*
X132724823Y-206175435D01*
X132731862Y-206253807D01*
X132739713Y-206349049D01*
X132748580Y-206463658D01*
X132758667Y-206600133D01*
X132770177Y-206760974D01*
X132774575Y-206823424D01*
X132782854Y-206932990D01*
X132792911Y-207052987D01*
X132803857Y-207173564D01*
X132814802Y-207284874D01*
X132823684Y-207366969D01*
X132832757Y-207451257D01*
X132840144Y-207530362D01*
X132845374Y-207598326D01*
X132847975Y-207649196D01*
X132847903Y-207672757D01*
X132843971Y-207733643D01*
X132975974Y-207729772D01*
X133035422Y-207728620D01*
X133082158Y-207731028D01*
X133117825Y-207739955D01*
X133144063Y-207758363D01*
X133162513Y-207789210D01*
X133174818Y-207835456D01*
X133182617Y-207900062D01*
X133187553Y-207985986D01*
X133191267Y-208096189D01*
X133191944Y-208119235D01*
X133194506Y-208221291D01*
X133195370Y-208299130D01*
X133194421Y-208356279D01*
X133191544Y-208396266D01*
X133186623Y-208422619D01*
X133181641Y-208435339D01*
X133150068Y-208467405D01*
X133095558Y-208492738D01*
X133022435Y-208509985D01*
X132935028Y-208517794D01*
X132916920Y-208518100D01*
X132809234Y-208518709D01*
X132810340Y-208647237D01*
X132811463Y-208710197D01*
X132813748Y-208791241D01*
X132816884Y-208880705D01*
X132820556Y-208968921D01*
X132821262Y-208984190D01*
X132824130Y-209074798D01*
X132825383Y-209185055D01*
X132825150Y-209309497D01*
X132823558Y-209442661D01*
X132820738Y-209579084D01*
X132816817Y-209713301D01*
X132811924Y-209839851D01*
X132806188Y-209953268D01*
X132799738Y-210048089D01*
X132794995Y-210099296D01*
X132787696Y-210177621D01*
X132786188Y-210232524D01*
X132791439Y-210267954D01*
X132804419Y-210287858D01*
X132826096Y-210296184D01*
X132843588Y-210297264D01*
X132887310Y-210309175D01*
X132935362Y-210341188D01*
X132981454Y-210387727D01*
X133019293Y-210443216D01*
X133028127Y-210460843D01*
X133061587Y-210559103D01*
X133071177Y-210659441D01*
X133059783Y-210759198D01*
X133024613Y-210881635D01*
X132971272Y-210987383D01*
X132901483Y-211073081D01*
X132895975Y-211078290D01*
X132850974Y-211117307D01*
X132813310Y-211140918D01*
X132772101Y-211154702D01*
X132732914Y-211161856D01*
X132713440Y-211172155D01*
X132701031Y-211199969D01*
X132695378Y-211228398D01*
X132671499Y-211380141D01*
X132651706Y-211507321D01*
X132635589Y-211612798D01*
X132622739Y-211699433D01*
X132612748Y-211770086D01*
X132605206Y-211827618D01*
X132599705Y-211874890D01*
X132595835Y-211914763D01*
X132594087Y-211936871D01*
X132588148Y-212008054D01*
X132580555Y-212083939D01*
X132572891Y-212148811D01*
X132572432Y-212152243D01*
X132565568Y-212207995D01*
X132557571Y-212280525D01*
X132549610Y-212358913D01*
X132544876Y-212409299D01*
X132536399Y-212490500D01*
X132524625Y-212585618D01*
X132510499Y-212688459D01*
X132494968Y-212792828D01*
X132478978Y-212892531D01*
X132463476Y-212981373D01*
X132449408Y-213053160D01*
X132440856Y-213090196D01*
X132430952Y-213134007D01*
X132418485Y-213196921D01*
X132405043Y-213270562D01*
X132392214Y-213346554D01*
X132392101Y-213347253D01*
X132379313Y-213423220D01*
X132365943Y-213496908D01*
X132353566Y-213559946D01*
X132343762Y-213603962D01*
X132343685Y-213604267D01*
X132333622Y-213648746D01*
X132320860Y-213711942D01*
X132307100Y-213785133D01*
X132295090Y-213853395D01*
X132283401Y-213917692D01*
X132266797Y-214002566D01*
X132246615Y-214101517D01*
X132224191Y-214208045D01*
X132200863Y-214315650D01*
X132189349Y-214367509D01*
X132167110Y-214466873D01*
X132145751Y-214562446D01*
X132126390Y-214649220D01*
X132110144Y-214722184D01*
X132098129Y-214776331D01*
X132093080Y-214799234D01*
X132084911Y-214851814D01*
X132078813Y-214921195D01*
X132074897Y-215000296D01*
X132073276Y-215082038D01*
X132074062Y-215159342D01*
X132077367Y-215225126D01*
X132083304Y-215272311D01*
X132085442Y-215281185D01*
X132095212Y-215302002D01*
X132116940Y-215341537D01*
X132147740Y-215395014D01*
X132184726Y-215457657D01*
X132225011Y-215524690D01*
X132265711Y-215591337D01*
X132303939Y-215652823D01*
X132336810Y-215704372D01*
X132361437Y-215741207D01*
X132371995Y-215755405D01*
X132384698Y-215750663D01*
X132416375Y-215734473D01*
X132462045Y-215709474D01*
X132509090Y-215682727D01*
X132570180Y-215647811D01*
X132628700Y-215614977D01*
X132676678Y-215588668D01*
X132699394Y-215576679D01*
X132733226Y-215558055D01*
X132745766Y-215544935D01*
X132741024Y-215531323D01*
X132734715Y-215523875D01*
X132725188Y-215510119D01*
X132722382Y-215492654D01*
X132727116Y-215465367D01*
X132740206Y-215422145D01*
X132753659Y-215382397D01*
X132782517Y-215290803D01*
X132804803Y-215200634D01*
X132821316Y-215106139D01*
X132832854Y-215001569D01*
X132840218Y-214881173D01*
X132844207Y-214739201D01*
X132844358Y-214729759D01*
X132847007Y-214625957D01*
X132851623Y-214515225D01*
X132857707Y-214406631D01*
X132864763Y-214309240D01*
X132870999Y-214243435D01*
X132880269Y-214148440D01*
X132889008Y-214039233D01*
X132896226Y-213929388D01*
X132900894Y-213833534D01*
X132905018Y-213751217D01*
X132911008Y-213670401D01*
X132918144Y-213599104D01*
X132925703Y-213545346D01*
X132927781Y-213534608D01*
X132941892Y-213462058D01*
X132958542Y-213366084D01*
X132977115Y-213250873D01*
X132996994Y-213120613D01*
X133017564Y-212979489D01*
X133038208Y-212831688D01*
X133058311Y-212681398D01*
X133077256Y-212532805D01*
X133087238Y-212450984D01*
X133098727Y-212359222D01*
X133113292Y-212249107D01*
X133129684Y-212129738D01*
X133146653Y-212010215D01*
X133162948Y-211899636D01*
X133163619Y-211895186D01*
X133188165Y-211719666D01*
X133212088Y-211523906D01*
X133234659Y-211315458D01*
X133255148Y-211101871D01*
X133272826Y-210890695D01*
X133286961Y-210689482D01*
X133295898Y-210526531D01*
X133305082Y-210322743D01*
X133312662Y-210144084D01*
X133318695Y-209987946D01*
X133323239Y-209851717D01*
X133326351Y-209732788D01*
X133328089Y-209628549D01*
X133328510Y-209536390D01*
X133327671Y-209453701D01*
X133325630Y-209377870D01*
X133322669Y-209310550D01*
X133318753Y-209228919D01*
X133314222Y-209122400D01*
X133309067Y-208990698D01*
X133303278Y-208833516D01*
X133296844Y-208650558D01*
X133289756Y-208441526D01*
X133282003Y-208206125D01*
X133273575Y-207944058D01*
X133264463Y-207655027D01*
X133254655Y-207338737D01*
X133246750Y-207080580D01*
X133242216Y-206938932D01*
X133237437Y-206802581D01*
X133232552Y-206674667D01*
X133227698Y-206558328D01*
X133223015Y-206456704D01*
X133218640Y-206372934D01*
X133214713Y-206310155D01*
X133211372Y-206271508D01*
X133210894Y-206267724D01*
X133203448Y-206207497D01*
X133195196Y-206131577D01*
X133187408Y-206051983D01*
X133183755Y-206010667D01*
X133158173Y-205761591D01*
X133124149Y-205528138D01*
X133079879Y-205298945D01*
X133050374Y-205170022D01*
X133031485Y-205097363D01*
X133007298Y-205012947D01*
X132979731Y-204922653D01*
X132950701Y-204832360D01*
X132922125Y-204747949D01*
X132895920Y-204675301D01*
X132874003Y-204620294D01*
X132864307Y-204599365D01*
X132827485Y-204538544D01*
X132776780Y-204470373D01*
X132717028Y-204399960D01*
X132653067Y-204332414D01*
X132589734Y-204272843D01*
X132531867Y-204226355D01*
X132484302Y-204198060D01*
X132484283Y-204198051D01*
X132394670Y-204172934D01*
X132307800Y-204175320D01*
X132224139Y-204205019D01*
X132144155Y-204261836D01*
X132068314Y-204345580D01*
X132043916Y-204379621D01*
X131949244Y-204540890D01*
X131871583Y-204718411D01*
X131813595Y-204904637D01*
X131777945Y-205092020D01*
X131771698Y-205150891D01*
X131770648Y-205179174D01*
X131769940Y-205234896D01*
X131769571Y-205317708D01*
X131769539Y-205427261D01*
X131769841Y-205563205D01*
X131770475Y-205725192D01*
X131771438Y-205912873D01*
X131772728Y-206125898D01*
X131774343Y-206363919D01*
X131776280Y-206626586D01*
X131778537Y-206913551D01*
X131781111Y-207224465D01*
X131783999Y-207558978D01*
X131787200Y-207916742D01*
X131790711Y-208297407D01*
X131794530Y-208700624D01*
X131798654Y-209126045D01*
X131801135Y-209377846D01*
X131802459Y-209515467D01*
X131803366Y-209627991D01*
X131803749Y-209718113D01*
X131803503Y-209788524D01*
X131802521Y-209841916D01*
X131800697Y-209880981D01*
X131797923Y-209908414D01*
X131794095Y-209926905D01*
X131789105Y-209939147D01*
X131782847Y-209947832D01*
X131778436Y-209952461D01*
X131740086Y-209973576D01*
X131694331Y-209968503D01*
X131642188Y-209937536D01*
X131603846Y-209902091D01*
X131569846Y-209863725D01*
X131552008Y-209833208D01*
X131545412Y-209800280D01*
X131544792Y-209778909D01*
X131541941Y-209725422D01*
X131534817Y-209666442D01*
X131531918Y-209649571D01*
X131526095Y-209614636D01*
X131517529Y-209557696D01*
X131507015Y-209484312D01*
X131495349Y-209400042D01*
X131483326Y-209310446D01*
X131482446Y-209303774D01*
X131459171Y-209132380D01*
X131437424Y-208984846D01*
X131416387Y-208857340D01*
X131395240Y-208746030D01*
X131373165Y-208647086D01*
X131349345Y-208556676D01*
X131322959Y-208470968D01*
X131293191Y-208386133D01*
X131277624Y-208345022D01*
X131252241Y-208275633D01*
X131223956Y-208192489D01*
X131197141Y-208108654D01*
X131184643Y-208067122D01*
X131158594Y-207987483D01*
X131124636Y-207896884D01*
X131088007Y-207808850D01*
X131066228Y-207761433D01*
X131008574Y-207642234D01*
X130961309Y-207545295D01*
X130922911Y-207467765D01*
X130891857Y-207406798D01*
X130866626Y-207359543D01*
X130845695Y-207323151D01*
X130827544Y-207294775D01*
X130810649Y-207271564D01*
X130793489Y-207250670D01*
X130793184Y-207250316D01*
X130740564Y-207195500D01*
X130689362Y-207158548D01*
X130632203Y-207136457D01*
X130561713Y-207126225D01*
X130484444Y-207124626D01*
X130425500Y-207126173D01*
X130377474Y-207128982D01*
X130346823Y-207132593D01*
X130339400Y-207135005D01*
X130340133Y-207151258D01*
X130351387Y-207183603D01*
X130363139Y-207209413D01*
X130402489Y-207292438D01*
X130439043Y-207375775D01*
X130470443Y-207453518D01*
X130494326Y-207519758D01*
X130508332Y-207568585D01*
X130509906Y-207576721D01*
X130515772Y-207604137D01*
X130527923Y-207654800D01*
X130545448Y-207725116D01*
X130567433Y-207811489D01*
X130592966Y-207910327D01*
X130621133Y-208018034D01*
X130643276Y-208101860D01*
X130687638Y-208272314D01*
X130723987Y-208419690D01*
X130752945Y-208547322D01*
X130775134Y-208658547D01*
X130791178Y-208756700D01*
X130801699Y-208845117D01*
X130807318Y-208927133D01*
X130808698Y-208988375D01*
X130810679Y-209049729D01*
X130815552Y-209108679D01*
X130822275Y-209152687D01*
X130822448Y-209153446D01*
X130836028Y-209228747D01*
X130847763Y-209329247D01*
X130857687Y-209455464D01*
X130865836Y-209607918D01*
X130872244Y-209787128D01*
X130876532Y-209970733D01*
X130884781Y-210415372D01*
X130947934Y-210415748D01*
X131008377Y-210425365D01*
X131076825Y-210450175D01*
X131142355Y-210485057D01*
X131194043Y-210524888D01*
X131204305Y-210535942D01*
X131229493Y-210579629D01*
X131250145Y-210640899D01*
X131263442Y-210709601D01*
X131266893Y-210761207D01*
X131261108Y-210817452D01*
X131245540Y-210889305D01*
X131222864Y-210967534D01*
X131195758Y-211042907D01*
X131166898Y-211106191D01*
X131166833Y-211106313D01*
X131111835Y-211187515D01*
X131056123Y-211240901D01*
X130990576Y-211290755D01*
X130987569Y-211457494D01*
X130987008Y-211504696D01*
X130986550Y-211576227D01*
X130986201Y-211668624D01*
X130985966Y-211778426D01*
X130985849Y-211902171D01*
X130985855Y-212036399D01*
X130985990Y-212177647D01*
X130986258Y-212322454D01*
X130986299Y-212339825D01*
X130986493Y-212526246D01*
X130986071Y-212687454D01*
X130984981Y-212826019D01*
X130983172Y-212944509D01*
X130980592Y-213045497D01*
X130977189Y-213131552D01*
X130972912Y-213205245D01*
X130967711Y-213269145D01*
X130967673Y-213269545D01*
X130957291Y-213385173D01*
X130950705Y-213477468D01*
X130948035Y-213550644D01*
X130949398Y-213608915D01*
X130954915Y-213656494D01*
X130964705Y-213697595D01*
X130978887Y-213736431D01*
X130981037Y-213741479D01*
X130998739Y-213787528D01*
X131020355Y-213851222D01*
X131042850Y-213923299D01*
X131059003Y-213979211D01*
X131078948Y-214054532D01*
X131091391Y-214112610D01*
X131097587Y-214162577D01*
X131098792Y-214213567D01*
X131097220Y-214257111D01*
X131082182Y-214370905D01*
X131049222Y-214464450D01*
X130997574Y-214539358D01*
X130939734Y-214588690D01*
X130896822Y-214615393D01*
X130864156Y-214627788D01*
X130830528Y-214629231D01*
X130811412Y-214627109D01*
X130731158Y-214606390D01*
X130650399Y-214568528D01*
X130575946Y-214518231D01*
X130514609Y-214460207D01*
X130473196Y-214399164D01*
X130469368Y-214390625D01*
X130456878Y-214353631D01*
X130442291Y-214299954D01*
X130428466Y-214240255D01*
X130426569Y-214231118D01*
X130405011Y-214125420D01*
X130618188Y-214125420D01*
X130619171Y-214195272D01*
X130644018Y-214270270D01*
X130650562Y-214283902D01*
X130692543Y-214345399D01*
X130743327Y-214381606D01*
X130800650Y-214391799D01*
X130862249Y-214375252D01*
X130888689Y-214360260D01*
X130920732Y-214326784D01*
X130946669Y-214277986D01*
X130960378Y-214226332D01*
X130961192Y-214212618D01*
X130954833Y-214181739D01*
X130938525Y-214136915D01*
X130916402Y-214087096D01*
X130892598Y-214041229D01*
X130871248Y-214008264D01*
X130862665Y-213999326D01*
X130837150Y-213986025D01*
X130798356Y-213971613D01*
X130787977Y-213968438D01*
X130735848Y-213961839D01*
X130694216Y-213977561D01*
X130659434Y-214017709D01*
X130640760Y-214053463D01*
X130618188Y-214125420D01*
X130405011Y-214125420D01*
X130403826Y-214119611D01*
X130446714Y-213959986D01*
X130470792Y-213876230D01*
X130500156Y-213782681D01*
X130530192Y-213693740D01*
X130545492Y-213651565D01*
X130574904Y-213567665D01*
X130594463Y-213495525D01*
X130607163Y-213422262D01*
X130614280Y-213355515D01*
X130622425Y-213273742D01*
X130633262Y-213180042D01*
X130644953Y-213089905D01*
X130649887Y-213055415D01*
X130657460Y-212998335D01*
X130662809Y-212941214D01*
X130666078Y-212878896D01*
X130667410Y-212806224D01*
X130666949Y-212718041D01*
X130664840Y-212609191D01*
X130663657Y-212562144D01*
X130657870Y-212347366D01*
X130652461Y-212158792D01*
X130647360Y-211994838D01*
X130642502Y-211853923D01*
X130637817Y-211734464D01*
X130633239Y-211634878D01*
X130628700Y-211553582D01*
X130624131Y-211488994D01*
X130619466Y-211439531D01*
X130614636Y-211403611D01*
X130613917Y-211399426D01*
X130596187Y-211299672D01*
X130509758Y-211257123D01*
X130413918Y-211197780D01*
X130340177Y-211123661D01*
X130285595Y-211031324D01*
X130260704Y-210965380D01*
X130237076Y-210871237D01*
X130235477Y-210858432D01*
X130509645Y-210858432D01*
X130520756Y-210901707D01*
X130554250Y-210946534D01*
X130596119Y-210984628D01*
X130640227Y-211018894D01*
X130673749Y-211037999D01*
X130706054Y-211046129D01*
X130737006Y-211047541D01*
X130803183Y-211038216D01*
X130847378Y-211019464D01*
X130888381Y-210981429D01*
X130922247Y-210926626D01*
X130943129Y-210866045D01*
X130946991Y-210832221D01*
X130935759Y-210794246D01*
X130906001Y-210751493D01*
X130864320Y-210711044D01*
X130817323Y-210679982D01*
X130796778Y-210671153D01*
X130738460Y-210664248D01*
X130674301Y-210677831D01*
X130611885Y-210708057D01*
X130558793Y-210751082D01*
X130522609Y-210803059D01*
X130518846Y-210812082D01*
X130509645Y-210858432D01*
X130235477Y-210858432D01*
X130225843Y-210781308D01*
X130227473Y-210702563D01*
X130239549Y-210649017D01*
X130276932Y-210586305D01*
X130334171Y-210533659D01*
X130403797Y-210496079D01*
X130478341Y-210478564D01*
X130495168Y-210477899D01*
X130558249Y-210477899D01*
X130558046Y-210335476D01*
X130555410Y-210202855D01*
X130548160Y-210048384D01*
X130536770Y-209877534D01*
X130521716Y-209695773D01*
X130503470Y-209508572D01*
X130482508Y-209321401D01*
X130459303Y-209139730D01*
X130446543Y-209049488D01*
X130428066Y-208926942D01*
X130407596Y-208797271D01*
X130385697Y-208663572D01*
X130362935Y-208528943D01*
X130339873Y-208396482D01*
X130317079Y-208269285D01*
X130295115Y-208150452D01*
X130274547Y-208043079D01*
X130255941Y-207950263D01*
X130239860Y-207875103D01*
X130226871Y-207820695D01*
X130217537Y-207790138D01*
X130216400Y-207787628D01*
X130205990Y-207762218D01*
X130188725Y-207714676D01*
X130166108Y-207649377D01*
X130139639Y-207570691D01*
X130110819Y-207482994D01*
X130094768Y-207433306D01*
X130066028Y-207344475D01*
X130039586Y-207264042D01*
X130016770Y-207195946D01*
X129998908Y-207144121D01*
X129987329Y-207112505D01*
X129983964Y-207104896D01*
X129964070Y-207093686D01*
X129928576Y-207087791D01*
X129919036Y-207087527D01*
X129878964Y-207091453D01*
X129844968Y-207105047D01*
X129815506Y-207131031D01*
X129789033Y-207172129D01*
X129764005Y-207231061D01*
X129738878Y-207310553D01*
X129712108Y-207413325D01*
X129696184Y-207480502D01*
X129675220Y-207576551D01*
X129662290Y-207652252D01*
X129657150Y-207713785D01*
X129659555Y-207767330D01*
X129669263Y-207819069D01*
X129681174Y-207860361D01*
X129694903Y-207909375D01*
X129710870Y-207975604D01*
X129726706Y-208048859D01*
X129735713Y-208094912D01*
X129749543Y-208172253D01*
X129761312Y-208245993D01*
X129771178Y-208319147D01*
X129779302Y-208394730D01*
X129785843Y-208475756D01*
X129790960Y-208565239D01*
X129794812Y-208666195D01*
X129797560Y-208781637D01*
X129799361Y-208914581D01*
X129800377Y-209068040D01*
X129800765Y-209245030D01*
X129800780Y-209325516D01*
X129800688Y-209487353D01*
X129800450Y-209623722D01*
X129799990Y-209736944D01*
X129799232Y-209829342D01*
X129798099Y-209903236D01*
X129796516Y-209960949D01*
X129794406Y-210004802D01*
X129791693Y-210037117D01*
X129788302Y-210060216D01*
X129784157Y-210076420D01*
X129779180Y-210088050D01*
X129775591Y-210094063D01*
X129750769Y-210120323D01*
X129727148Y-210127721D01*
X129722250Y-210125123D01*
X129718032Y-210117980D01*
X129714414Y-210104235D01*
X129711321Y-210081830D01*
X129708675Y-210048706D01*
X129706397Y-210002807D01*
X129704412Y-209942074D01*
X129702641Y-209864449D01*
X129701007Y-209767876D01*
X129699432Y-209650295D01*
X129697840Y-209509650D01*
X129696152Y-209343883D01*
X129695623Y-209289699D01*
X129693787Y-209108772D01*
X129691951Y-208952816D01*
X129689967Y-208819011D01*
X129687690Y-208704537D01*
X129684972Y-208606576D01*
X129681665Y-208522308D01*
X129677623Y-208448914D01*
X129672698Y-208383575D01*
X129666744Y-208323471D01*
X129659613Y-208265784D01*
X129651159Y-208207693D01*
X129641234Y-208146380D01*
X129633647Y-208101860D01*
X129622759Y-208042018D01*
X129611488Y-207989498D01*
X129598060Y-207938548D01*
X129580698Y-207883418D01*
X129557628Y-207818358D01*
X129527074Y-207737617D01*
X129498514Y-207664168D01*
X129468479Y-207586783D01*
X129439142Y-207510110D01*
X129413417Y-207441833D01*
X129394217Y-207389641D01*
X129390536Y-207379321D01*
X129371650Y-207330115D01*
X129353326Y-207289472D01*
X129340132Y-207267068D01*
X129324398Y-207235633D01*
X129321597Y-207218043D01*
X129314125Y-207184198D01*
X129294449Y-207135600D01*
X129266679Y-207079992D01*
X129234928Y-207025120D01*
X129203305Y-206978725D01*
X129180845Y-206952903D01*
X129142972Y-206921979D01*
X129105071Y-206898390D01*
X129094899Y-206893850D01*
X129058403Y-206884539D01*
X129016607Y-206879976D01*
X128978348Y-206880267D01*
X128952461Y-206885515D01*
X128946433Y-206892089D01*
X127775622Y-206892089D01*
X127778961Y-206791429D01*
X127793109Y-206464603D01*
X127810788Y-206131917D01*
X127821079Y-205962035D01*
X127827011Y-205867179D01*
X127833836Y-205756664D01*
X127840814Y-205642572D01*
X127847202Y-205536985D01*
X127848793Y-205510448D01*
X127895708Y-204912602D01*
X127965406Y-204304332D01*
X128057325Y-203690297D01*
X128091751Y-203491051D01*
X128115480Y-203360884D01*
X128141299Y-203224184D01*
X128168242Y-203085710D01*
X128195342Y-202950217D01*
X128221632Y-202822462D01*
X128246147Y-202707202D01*
X128267919Y-202609195D01*
X128285982Y-202533195D01*
X128287972Y-202525321D01*
X128299801Y-202450616D01*
X128291349Y-202391254D01*
X128261030Y-202342020D01*
X128221823Y-202307755D01*
X128146083Y-202262541D01*
X128052735Y-202221508D01*
X127951959Y-202188476D01*
X127853933Y-202167269D01*
X127843763Y-202165823D01*
X127781875Y-202158699D01*
X127736535Y-202157424D01*
X127697013Y-202162542D01*
X127652577Y-202174597D01*
X127649052Y-202175699D01*
X127536525Y-202225347D01*
X127427367Y-202302219D01*
X127321719Y-202405942D01*
X127219722Y-202536138D01*
X127121519Y-202692431D01*
X127027250Y-202874446D01*
X126937058Y-203081806D01*
X126851084Y-203314134D01*
X126769470Y-203571055D01*
X126692358Y-203852193D01*
X126619888Y-204157171D01*
X126552204Y-204485613D01*
X126489446Y-204837144D01*
X126431757Y-205211386D01*
X126390548Y-205517396D01*
X126368635Y-205697043D01*
X126348618Y-205875953D01*
X126330171Y-206057993D01*
X126312969Y-206247025D01*
X126296686Y-206446916D01*
X126280997Y-206661528D01*
X126265574Y-206894728D01*
X126250093Y-207150379D01*
X126244124Y-207254267D01*
X126234032Y-207460817D01*
X126225754Y-207690181D01*
X126219368Y-207937437D01*
X126214954Y-208197663D01*
X126212591Y-208465937D01*
X126212359Y-208737338D01*
X126214337Y-209006942D01*
X126215010Y-209060612D01*
X126216983Y-209201498D01*
X126219016Y-209335892D01*
X126221054Y-209460855D01*
X126223042Y-209573450D01*
X126224926Y-209670739D01*
X126226650Y-209749783D01*
X126228160Y-209807644D01*
X126229400Y-209841384D01*
X126229660Y-209845678D01*
X126231869Y-209883233D01*
X126234725Y-209942107D01*
X126237941Y-210015841D01*
X126241230Y-210097981D01*
X126243219Y-210151367D01*
X126247018Y-210240869D01*
X126251841Y-210331199D01*
X126257186Y-210414213D01*
X126262554Y-210481766D01*
X126265151Y-210507751D01*
X126269360Y-210557912D01*
X126270074Y-210607811D01*
X126266653Y-210661130D01*
X126258461Y-210721549D01*
X126244857Y-210792748D01*
X126225205Y-210878409D01*
X126198866Y-210982212D01*
X126165202Y-211107838D01*
X126154001Y-211148791D01*
X126129735Y-211240547D01*
X126106476Y-211334512D01*
X126086027Y-211422962D01*
X126070191Y-211498177D01*
X126062487Y-211540864D01*
X126053388Y-211618619D01*
X126046753Y-211717719D01*
X126042637Y-211831826D01*
X126041091Y-211954600D01*
X126042172Y-212079701D01*
X126045931Y-212200790D01*
X126052424Y-212311528D01*
X126055619Y-212349579D01*
X126065578Y-212469673D01*
X126070767Y-212565509D01*
X126071140Y-212640214D01*
X126066651Y-212696914D01*
X126057255Y-212738737D01*
X126049589Y-212757309D01*
X126026171Y-212791709D01*
X125986065Y-212838615D01*
X125934294Y-212893186D01*
X125875886Y-212950585D01*
X125815865Y-213005974D01*
X125759256Y-213054513D01*
X125711085Y-213091364D01*
X125686609Y-213106796D01*
X125627831Y-213132422D01*
X125555667Y-213154803D01*
X125479356Y-213171934D01*
X125408141Y-213181806D01*
X125351261Y-213182412D01*
X125343269Y-213181383D01*
X125304217Y-213171192D01*
X125256942Y-213153333D01*
X125208431Y-213131233D01*
X125165676Y-213108318D01*
X125135664Y-213088017D01*
X125125317Y-213074513D01*
X125115119Y-213057707D01*
X125086584Y-213026104D01*
X125042807Y-212982601D01*
X124986880Y-212930096D01*
X124921894Y-212871487D01*
X124850944Y-212809673D01*
X124777120Y-212747550D01*
X124770995Y-212742499D01*
X124677763Y-212669607D01*
X124567309Y-212589472D01*
X124447300Y-212507218D01*
X124325402Y-212427972D01*
X124209281Y-212356855D01*
X124110985Y-212301324D01*
X123841917Y-212170337D01*
X123568202Y-212061600D01*
X123292035Y-211975454D01*
X123015609Y-211912243D01*
X122741116Y-211872309D01*
X122470751Y-211855996D01*
X122206706Y-211863646D01*
X121951175Y-211895602D01*
X121768456Y-211935202D01*
X121635747Y-211979764D01*
X121499096Y-212044073D01*
X121365617Y-212123673D01*
X121242424Y-212214111D01*
X121136630Y-212310932D01*
X121095709Y-212356455D01*
X121041177Y-212430466D01*
X120990173Y-212515654D01*
X120946226Y-212604646D01*
X120912865Y-212690072D01*
X120893618Y-212764560D01*
X120891106Y-212783866D01*
X120889106Y-212835342D01*
X119139082Y-212835342D01*
X119144381Y-212816347D01*
X119159142Y-212781151D01*
X119171138Y-212754702D01*
X119173200Y-212742828D01*
X119172919Y-212742779D01*
X119174350Y-212730877D01*
X119183745Y-212699483D01*
X119199145Y-212655058D01*
X119201366Y-212648988D01*
X119219249Y-212599056D01*
X119233367Y-212557191D01*
X119240747Y-212532216D01*
X119240841Y-212531782D01*
X119251316Y-212501519D01*
X119263475Y-212476202D01*
X119278112Y-212446790D01*
X119284477Y-212430142D01*
X119290034Y-212406106D01*
X119294570Y-212386015D01*
X119307287Y-212351875D01*
X119324770Y-212320014D01*
X119338415Y-212295373D01*
X119339609Y-212284292D01*
X119339173Y-212284245D01*
X119338174Y-212274054D01*
X119347503Y-212252981D01*
X119361010Y-212226922D01*
X119365943Y-212214770D01*
X119372703Y-212199262D01*
X119388204Y-212169230D01*
X119393643Y-212159190D01*
X119410773Y-212126763D01*
X119420567Y-212106042D01*
X119421343Y-212103610D01*
X119428191Y-212087490D01*
X119439783Y-212065399D01*
X119450113Y-212042316D01*
X119449538Y-212034135D01*
X119451687Y-212023728D01*
X119465669Y-211997229D01*
X119477013Y-211978556D01*
X119495876Y-211946283D01*
X119504690Y-211926232D01*
X119504031Y-211922976D01*
X119505833Y-211913163D01*
X119520410Y-211888829D01*
X119525645Y-211881291D01*
X119542700Y-211854513D01*
X119547828Y-211840300D01*
X119546766Y-211839606D01*
X119549281Y-211829372D01*
X119564536Y-211802830D01*
X119583863Y-211773605D01*
X119608638Y-211736835D01*
X119625489Y-211710001D01*
X119630182Y-211700656D01*
X119636850Y-211684798D01*
X119650700Y-211658971D01*
X119665335Y-211630176D01*
X119671050Y-211613306D01*
X119681243Y-211595946D01*
X119685438Y-211592463D01*
X119702334Y-211573578D01*
X119718008Y-211549382D01*
X119737334Y-211515001D01*
X119760802Y-211473182D01*
X119764822Y-211466012D01*
X119792417Y-211421697D01*
X119825456Y-211374938D01*
X119832990Y-211365177D01*
X119856842Y-211332934D01*
X119871166Y-211309566D01*
X119873020Y-211304081D01*
X119881174Y-211288396D01*
X119902209Y-211258925D01*
X119922582Y-211233132D01*
X119947859Y-211200553D01*
X119962179Y-211178595D01*
X119963193Y-211172647D01*
X119967056Y-211162978D01*
X119985812Y-211136884D01*
X120015923Y-211098740D01*
X120053849Y-211052919D01*
X120096052Y-211003797D01*
X120136288Y-210958708D01*
X120159701Y-210931194D01*
X120168966Y-210916290D01*
X120164814Y-210916012D01*
X120159344Y-210918195D01*
X120159831Y-210914745D01*
X120168104Y-210903582D01*
X120185990Y-210882628D01*
X120215320Y-210849803D01*
X120257921Y-210803028D01*
X120315623Y-210740225D01*
X120390253Y-210659314D01*
X120397388Y-210651586D01*
X120439468Y-210607074D01*
X120490105Y-210555176D01*
X120546378Y-210498699D01*
X120605367Y-210440452D01*
X120664154Y-210383240D01*
X120719817Y-210329871D01*
X120769438Y-210283154D01*
X120810096Y-210245894D01*
X120838871Y-210220899D01*
X120852844Y-210210977D01*
X120852632Y-210213895D01*
X120856860Y-210213785D01*
X120877913Y-210197632D01*
X120912263Y-210168314D01*
X120950538Y-210134046D01*
X120996720Y-210092917D01*
X121035792Y-210059891D01*
X121063015Y-210038867D01*
X121073006Y-210033308D01*
X121089203Y-210024975D01*
X121119356Y-210003339D01*
X121151357Y-209977680D01*
X121187590Y-209948590D01*
X121215495Y-209928471D01*
X121227737Y-209922100D01*
X121242553Y-209914007D01*
X121273074Y-209892503D01*
X121313480Y-209861749D01*
X121325964Y-209851893D01*
X121367780Y-209819473D01*
X121401016Y-209795297D01*
X121420017Y-209783425D01*
X121422066Y-209782865D01*
X121436994Y-209775940D01*
X121464888Y-209757181D01*
X121476067Y-209748860D01*
X121507357Y-209726889D01*
X121529666Y-209714610D01*
X121533468Y-209713676D01*
X121550653Y-209705920D01*
X121580038Y-209686514D01*
X121591210Y-209678231D01*
X121619502Y-209658383D01*
X121635972Y-209650180D01*
X121637680Y-209651109D01*
X121648010Y-209649014D01*
X121674505Y-209634657D01*
X121696963Y-209620552D01*
X121749598Y-209586218D01*
X121786673Y-209562804D01*
X121815777Y-209545852D01*
X121844499Y-209530905D01*
X121873895Y-209516632D01*
X121911234Y-209499058D01*
X121937093Y-209487470D01*
X121943370Y-209485052D01*
X121959244Y-209477641D01*
X121985055Y-209463458D01*
X122022359Y-209443441D01*
X122063214Y-209423570D01*
X122099061Y-209407769D01*
X122121342Y-209399962D01*
X122124004Y-209399746D01*
X122138642Y-209393201D01*
X122166563Y-209375439D01*
X122176110Y-209368775D01*
X122204178Y-209350859D01*
X122219989Y-209344781D01*
X122221269Y-209346111D01*
X122231129Y-209346259D01*
X122254959Y-209333524D01*
X122256006Y-209332842D01*
X122280222Y-209319367D01*
X122290731Y-209318260D01*
X122290744Y-209318482D01*
X122301093Y-209317252D01*
X122327074Y-209304156D01*
X122339376Y-209296827D01*
X122369248Y-209280420D01*
X122386400Y-209274978D01*
X122388009Y-209276449D01*
X122397864Y-209276729D01*
X122421683Y-209264059D01*
X122422746Y-209263367D01*
X122447008Y-209249408D01*
X122457474Y-209247227D01*
X122457483Y-209247380D01*
X122468894Y-209246241D01*
X122498186Y-209236032D01*
X122523485Y-209225612D01*
X122565549Y-209208192D01*
X122599243Y-209195588D01*
X122610328Y-209192212D01*
X122633847Y-209185133D01*
X122674043Y-209171610D01*
X122714540Y-209157314D01*
X122761533Y-209140824D01*
X122799892Y-209128156D01*
X122818753Y-209122708D01*
X122842288Y-209115824D01*
X122882512Y-209102515D01*
X122922965Y-209088405D01*
X122973543Y-209071641D01*
X123019024Y-209058726D01*
X123043769Y-209053450D01*
X123082850Y-209043180D01*
X123124734Y-209025723D01*
X123125195Y-209025486D01*
X123151636Y-209014340D01*
X123160258Y-209016415D01*
X123159032Y-209019166D01*
X123156936Y-209028826D01*
X123174787Y-209021751D01*
X123174871Y-209021706D01*
X123206383Y-209010005D01*
X123247697Y-209000407D01*
X123250694Y-208999914D01*
X123289639Y-208992712D01*
X123318283Y-208985663D01*
X123320169Y-208985029D01*
X123356967Y-208975166D01*
X123414711Y-208963621D01*
X123471816Y-208954040D01*
X123512880Y-208944896D01*
X123545444Y-208933188D01*
X123546441Y-208932672D01*
X123564339Y-208925627D01*
X123562297Y-208935292D01*
X123562133Y-208935558D01*
X123559568Y-208945180D01*
X123575717Y-208939356D01*
X123582556Y-208935782D01*
X123619335Y-208922237D01*
X123657181Y-208914818D01*
X123740624Y-208905868D01*
X123806714Y-208898049D01*
X123852160Y-208891781D01*
X123873674Y-208887484D01*
X123874588Y-208887064D01*
X123892171Y-208883205D01*
X123929421Y-208878343D01*
X123978270Y-208873227D01*
X124030651Y-208868608D01*
X124078498Y-208865234D01*
X124113741Y-208863855D01*
X124122518Y-208864031D01*
X124135354Y-208865243D01*
X124143816Y-208865135D01*
X124146041Y-208860664D01*
X124140166Y-208848786D01*
X124124325Y-208826458D01*
X124096656Y-208790634D01*
X124055294Y-208738271D01*
X124012084Y-208683681D01*
X123803615Y-208399733D01*
X123610054Y-208095390D01*
X123433387Y-207774864D01*
X123275602Y-207442363D01*
X123138688Y-207102098D01*
X123024631Y-206758279D01*
X122935419Y-206415115D01*
X122930494Y-206392779D01*
X122861334Y-206014097D01*
X122817653Y-205631230D01*
X122799475Y-205247076D01*
X122806823Y-204864528D01*
X122839722Y-204486485D01*
X122898196Y-204115841D01*
X122911160Y-204051477D01*
X123003927Y-203672698D01*
X123121964Y-203304580D01*
X123264494Y-202948142D01*
X123430737Y-202604400D01*
X123619917Y-202274373D01*
X123831256Y-201959076D01*
X124063975Y-201659529D01*
X124317297Y-201376748D01*
X124590443Y-201111751D01*
X124882637Y-200865555D01*
X125193100Y-200639177D01*
X125521055Y-200433636D01*
X125787806Y-200288786D01*
X126068939Y-200156939D01*
X126367473Y-200037387D01*
X126674586Y-199933236D01*
X126981452Y-199847591D01*
X127153982Y-199808011D01*
X127316043Y-199775228D01*
X127462275Y-199748782D01*
X127598854Y-199728065D01*
X127731957Y-199712471D01*
X127867760Y-199701393D01*
X128012439Y-199694222D01*
X128172171Y-199690353D01*
X128353131Y-199689177D01*
X128362845Y-199689178D01*
G37*
%TD*%
M02*
