%TF.GenerationSoftware,KiCad,Pcbnew,10.0.2*%
%TF.CreationDate,2026-09-22T16:59:26+02:00*%
%TF.ProjectId,HandFPC,48616e64-4650-4432-9e6b-696361645f70,rev?*%
%TF.SameCoordinates,Original*%
%TF.FileFunction,Soldermask,Bot*%
%TF.FilePolarity,Negative*%
%FSLAX46Y46*%
G04 Gerber Fmt 4.6, Leading zero omitted, Abs format (unit mm)*
G04 Created by KiCad (PCBNEW 10.0.2) date 2026-09-22 16:59:26*
%MOMM*%
%LPD*%
G01*
G04 APERTURE LIST*
G04 Aperture macros list*
%AMRoundRect*
0 Rectangle with rounded corners*
0 $1 Rounding radius*
0 $2 $3 $4 $5 $6 $7 $8 $9 X,Y pos of 4 corners*
0 Add a 4 corners polygon primitive as box body*
4,1,4,$2,$3,$4,$5,$6,$7,$8,$9,$2,$3,0*
0 Add four circle primitives for the rounded corners*
1,1,$1+$1,$2,$3*
1,1,$1+$1,$4,$5*
1,1,$1+$1,$6,$7*
1,1,$1+$1,$8,$9*
0 Add four rect primitives between the rounded corners*
20,1,$1+$1,$2,$3,$4,$5,0*
20,1,$1+$1,$4,$5,$6,$7,0*
20,1,$1+$1,$6,$7,$8,$9,0*
20,1,$1+$1,$8,$9,$2,$3,0*%
G04 Aperture macros list end*
%ADD10RoundRect,0.200000X-0.353553X-0.777817X0.777817X0.353553X0.353553X0.777817X-0.777817X-0.353553X0*%
%ADD11C,1.000000*%
%ADD12RoundRect,0.200000X-0.300000X0.800000X-0.300000X-0.800000X0.300000X-0.800000X0.300000X0.800000X0*%
%ADD13RoundRect,0.200000X-0.842820X0.140192X0.542820X-0.659808X0.842820X-0.140192X-0.542820X0.659808X0*%
%ADD14RoundRect,0.200000X-0.777817X0.353553X0.353553X-0.777817X0.777817X-0.353553X-0.353553X0.777817X0*%
%ADD15RoundRect,0.200000X0.353553X0.777817X-0.777817X-0.353553X-0.353553X-0.777817X0.777817X0.353553X0*%
G04 APERTURE END LIST*
D10*
%TO.C,FSR5*%
X164046741Y-63362599D03*
X165128614Y-64444472D03*
%TD*%
D11*
%TO.C,REF\u002A\u002A*%
X143360000Y-163590000D03*
%TD*%
%TO.C,REF\u002A\u002A*%
X100300000Y-141380000D03*
%TD*%
%TO.C,REF\u002A\u002A*%
X164460000Y-153280000D03*
%TD*%
%TO.C,REF\u002A\u002A*%
X112600000Y-188380000D03*
%TD*%
%TO.C,REF\u002A\u002A*%
X136130000Y-204940000D03*
%TD*%
%TO.C,REF\u002A\u002A*%
X114550000Y-211440000D03*
%TD*%
%TO.C,REF\u002A\u002A*%
X73720000Y-108850000D03*
%TD*%
%TO.C,REF\u002A\u002A*%
X91460000Y-105390000D03*
%TD*%
%TO.C,REF\u002A\u002A*%
X102970000Y-102610000D03*
%TD*%
%TO.C,REF\u002A\u002A*%
X120820000Y-99900000D03*
%TD*%
%TO.C,REF\u002A\u002A*%
X146890000Y-106780000D03*
%TD*%
%TO.C,REF\u002A\u002A*%
X131090000Y-100280000D03*
%TD*%
%TO.C,REF\u002A\u002A*%
X154560000Y-106750000D03*
%TD*%
%TO.C,REF\u002A\u002A*%
X168250000Y-113600000D03*
%TD*%
%TO.C,REF\u002A\u002A*%
X167130000Y-59560000D03*
%TD*%
%TO.C,REF\u002A\u002A*%
X155590000Y-63980000D03*
%TD*%
%TO.C,REF\u002A\u002A*%
X155790000Y-57010000D03*
%TD*%
%TO.C,REF\u002A\u002A*%
X145320000Y-45190000D03*
%TD*%
%TO.C,REF\u002A\u002A*%
X127518376Y-54314801D03*
%TD*%
%TO.C,REF\u002A\u002A*%
X128320000Y-47090000D03*
%TD*%
%TO.C,REF\u002A\u002A*%
X131430000Y-41080000D03*
%TD*%
%TO.C,REF\u002A\u002A*%
X116090000Y-36180000D03*
%TD*%
%TO.C,REF\u002A\u002A*%
X97820000Y-46100000D03*
%TD*%
%TO.C,REF\u002A\u002A*%
X97740000Y-40990000D03*
%TD*%
%TO.C,REF\u002A\u002A*%
X99400000Y-35420000D03*
%TD*%
%TO.C,REF\u002A\u002A*%
X84510000Y-48810000D03*
%TD*%
%TO.C,REF\u002A\u002A*%
X81750000Y-43940000D03*
%TD*%
%TO.C,REF\u002A\u002A*%
X68320000Y-46150000D03*
%TD*%
%TO.C,REF\u002A\u002A*%
X60070541Y-88299279D03*
%TD*%
%TO.C,REF\u002A\u002A*%
X51950000Y-92010000D03*
%TD*%
%TO.C,REF\u002A\u002A*%
X44820000Y-108550000D03*
%TD*%
%TO.C,REF\u002A\u002A*%
X31330000Y-121890000D03*
%TD*%
%TO.C,REF\u002A\u002A*%
X30930000Y-117910000D03*
%TD*%
%TO.C,REF\u002A\u002A*%
X31430000Y-113000000D03*
%TD*%
D12*
%TO.C,FS2*%
X82520000Y-111590000D03*
X84020000Y-111590000D03*
%TD*%
D13*
%TO.C,FS1*%
X52420000Y-177650000D03*
X53170000Y-176350962D03*
%TD*%
D12*
%TO.C,FS3*%
X112690000Y-103320000D03*
X114190000Y-103320000D03*
%TD*%
D14*
%TO.C,FSR3*%
X108100345Y-45733431D03*
X109182218Y-44651558D03*
%TD*%
D15*
%TO.C,FSR1*%
X39288770Y-119186638D03*
X40370643Y-120268511D03*
%TD*%
%TO.C,FSR4*%
X139688770Y-52676638D03*
X140770643Y-53758511D03*
%TD*%
D10*
%TO.C,FSR2*%
X80557796Y-54404396D03*
X79475923Y-53322523D03*
%TD*%
D12*
%TO.C,FS5*%
X161665000Y-118980000D03*
X163165000Y-118980000D03*
%TD*%
%TO.C,FS4*%
X138110000Y-108170000D03*
X139610000Y-108170000D03*
%TD*%
M02*
