%TF.GenerationSoftware,KiCad,Pcbnew,10.0.2*%
%TF.CreationDate,2026-09-22T16:59:26+02:00*%
%TF.ProjectId,HandFPC,48616e64-4650-4432-9e6b-696361645f70,rev?*%
%TF.SameCoordinates,Original*%
%TF.FileFunction,Legend,Top*%
%TF.FilePolarity,Positive*%
%FSLAX46Y46*%
G04 Gerber Fmt 4.6, Leading zero omitted, Abs format (unit mm)*
G04 Created by KiCad (PCBNEW 10.0.2) date 2026-09-22 16:59:26*
%MOMM*%
%LPD*%
G01*
G04 APERTURE LIST*
%ADD10C,0.150000*%
%ADD11C,0.100000*%
%ADD12C,0.175000*%
%ADD13C,0.191421*%
%ADD14C,0.120000*%
%ADD15C,0.000000*%
G04 APERTURE END LIST*
D10*
X131300588Y-204547438D02*
X131205350Y-204499819D01*
X131205350Y-204499819D02*
X131062493Y-204499819D01*
X131062493Y-204499819D02*
X130919636Y-204547438D01*
X130919636Y-204547438D02*
X130824398Y-204642676D01*
X130824398Y-204642676D02*
X130776779Y-204737914D01*
X130776779Y-204737914D02*
X130729160Y-204928390D01*
X130729160Y-204928390D02*
X130729160Y-205071247D01*
X130729160Y-205071247D02*
X130776779Y-205261723D01*
X130776779Y-205261723D02*
X130824398Y-205356961D01*
X130824398Y-205356961D02*
X130919636Y-205452200D01*
X130919636Y-205452200D02*
X131062493Y-205499819D01*
X131062493Y-205499819D02*
X131157731Y-205499819D01*
X131157731Y-205499819D02*
X131300588Y-205452200D01*
X131300588Y-205452200D02*
X131348207Y-205404580D01*
X131348207Y-205404580D02*
X131348207Y-205071247D01*
X131348207Y-205071247D02*
X131157731Y-205071247D01*
X131776779Y-205499819D02*
X131776779Y-204499819D01*
X131776779Y-204499819D02*
X132348207Y-205499819D01*
X132348207Y-205499819D02*
X132348207Y-204499819D01*
X132824398Y-205499819D02*
X132824398Y-204499819D01*
X132824398Y-204499819D02*
X133062493Y-204499819D01*
X133062493Y-204499819D02*
X133205350Y-204547438D01*
X133205350Y-204547438D02*
X133300588Y-204642676D01*
X133300588Y-204642676D02*
X133348207Y-204737914D01*
X133348207Y-204737914D02*
X133395826Y-204928390D01*
X133395826Y-204928390D02*
X133395826Y-205071247D01*
X133395826Y-205071247D02*
X133348207Y-205261723D01*
X133348207Y-205261723D02*
X133300588Y-205356961D01*
X133300588Y-205356961D02*
X133205350Y-205452200D01*
X133205350Y-205452200D02*
X133062493Y-205499819D01*
X133062493Y-205499819D02*
X132824398Y-205499819D01*
X116489160Y-165832200D02*
X116632017Y-165879819D01*
X116632017Y-165879819D02*
X116870112Y-165879819D01*
X116870112Y-165879819D02*
X116965350Y-165832200D01*
X116965350Y-165832200D02*
X117012969Y-165784580D01*
X117012969Y-165784580D02*
X117060588Y-165689342D01*
X117060588Y-165689342D02*
X117060588Y-165594104D01*
X117060588Y-165594104D02*
X117012969Y-165498866D01*
X117012969Y-165498866D02*
X116965350Y-165451247D01*
X116965350Y-165451247D02*
X116870112Y-165403628D01*
X116870112Y-165403628D02*
X116679636Y-165356009D01*
X116679636Y-165356009D02*
X116584398Y-165308390D01*
X116584398Y-165308390D02*
X116536779Y-165260771D01*
X116536779Y-165260771D02*
X116489160Y-165165533D01*
X116489160Y-165165533D02*
X116489160Y-165070295D01*
X116489160Y-165070295D02*
X116536779Y-164975057D01*
X116536779Y-164975057D02*
X116584398Y-164927438D01*
X116584398Y-164927438D02*
X116679636Y-164879819D01*
X116679636Y-164879819D02*
X116917731Y-164879819D01*
X116917731Y-164879819D02*
X117060588Y-164927438D01*
X118060588Y-165784580D02*
X118012969Y-165832200D01*
X118012969Y-165832200D02*
X117870112Y-165879819D01*
X117870112Y-165879819D02*
X117774874Y-165879819D01*
X117774874Y-165879819D02*
X117632017Y-165832200D01*
X117632017Y-165832200D02*
X117536779Y-165736961D01*
X117536779Y-165736961D02*
X117489160Y-165641723D01*
X117489160Y-165641723D02*
X117441541Y-165451247D01*
X117441541Y-165451247D02*
X117441541Y-165308390D01*
X117441541Y-165308390D02*
X117489160Y-165117914D01*
X117489160Y-165117914D02*
X117536779Y-165022676D01*
X117536779Y-165022676D02*
X117632017Y-164927438D01*
X117632017Y-164927438D02*
X117774874Y-164879819D01*
X117774874Y-164879819D02*
X117870112Y-164879819D01*
X117870112Y-164879819D02*
X118012969Y-164927438D01*
X118012969Y-164927438D02*
X118060588Y-164975057D01*
X118965350Y-165879819D02*
X118489160Y-165879819D01*
X118489160Y-165879819D02*
X118489160Y-164879819D01*
X115256779Y-200759819D02*
X115256779Y-199759819D01*
X115256779Y-199759819D02*
X115590112Y-200474104D01*
X115590112Y-200474104D02*
X115923445Y-199759819D01*
X115923445Y-199759819D02*
X115923445Y-200759819D01*
X116590112Y-199759819D02*
X116780588Y-199759819D01*
X116780588Y-199759819D02*
X116875826Y-199807438D01*
X116875826Y-199807438D02*
X116971064Y-199902676D01*
X116971064Y-199902676D02*
X117018683Y-200093152D01*
X117018683Y-200093152D02*
X117018683Y-200426485D01*
X117018683Y-200426485D02*
X116971064Y-200616961D01*
X116971064Y-200616961D02*
X116875826Y-200712200D01*
X116875826Y-200712200D02*
X116780588Y-200759819D01*
X116780588Y-200759819D02*
X116590112Y-200759819D01*
X116590112Y-200759819D02*
X116494874Y-200712200D01*
X116494874Y-200712200D02*
X116399636Y-200616961D01*
X116399636Y-200616961D02*
X116352017Y-200426485D01*
X116352017Y-200426485D02*
X116352017Y-200093152D01*
X116352017Y-200093152D02*
X116399636Y-199902676D01*
X116399636Y-199902676D02*
X116494874Y-199807438D01*
X116494874Y-199807438D02*
X116590112Y-199759819D01*
X117399636Y-200712200D02*
X117542493Y-200759819D01*
X117542493Y-200759819D02*
X117780588Y-200759819D01*
X117780588Y-200759819D02*
X117875826Y-200712200D01*
X117875826Y-200712200D02*
X117923445Y-200664580D01*
X117923445Y-200664580D02*
X117971064Y-200569342D01*
X117971064Y-200569342D02*
X117971064Y-200474104D01*
X117971064Y-200474104D02*
X117923445Y-200378866D01*
X117923445Y-200378866D02*
X117875826Y-200331247D01*
X117875826Y-200331247D02*
X117780588Y-200283628D01*
X117780588Y-200283628D02*
X117590112Y-200236009D01*
X117590112Y-200236009D02*
X117494874Y-200188390D01*
X117494874Y-200188390D02*
X117447255Y-200140771D01*
X117447255Y-200140771D02*
X117399636Y-200045533D01*
X117399636Y-200045533D02*
X117399636Y-199950295D01*
X117399636Y-199950295D02*
X117447255Y-199855057D01*
X117447255Y-199855057D02*
X117494874Y-199807438D01*
X117494874Y-199807438D02*
X117590112Y-199759819D01*
X117590112Y-199759819D02*
X117828207Y-199759819D01*
X117828207Y-199759819D02*
X117971064Y-199807438D01*
X118399636Y-200759819D02*
X118399636Y-199759819D01*
X117632969Y-210029819D02*
X117156779Y-210029819D01*
X117156779Y-210029819D02*
X117109160Y-210506009D01*
X117109160Y-210506009D02*
X117156779Y-210458390D01*
X117156779Y-210458390D02*
X117252017Y-210410771D01*
X117252017Y-210410771D02*
X117490112Y-210410771D01*
X117490112Y-210410771D02*
X117585350Y-210458390D01*
X117585350Y-210458390D02*
X117632969Y-210506009D01*
X117632969Y-210506009D02*
X117680588Y-210601247D01*
X117680588Y-210601247D02*
X117680588Y-210839342D01*
X117680588Y-210839342D02*
X117632969Y-210934580D01*
X117632969Y-210934580D02*
X117585350Y-210982200D01*
X117585350Y-210982200D02*
X117490112Y-211029819D01*
X117490112Y-211029819D02*
X117252017Y-211029819D01*
X117252017Y-211029819D02*
X117156779Y-210982200D01*
X117156779Y-210982200D02*
X117109160Y-210934580D01*
X117966303Y-210029819D02*
X118299636Y-211029819D01*
X118299636Y-211029819D02*
X118632969Y-210029819D01*
X120379160Y-201972200D02*
X120522017Y-202019819D01*
X120522017Y-202019819D02*
X120760112Y-202019819D01*
X120760112Y-202019819D02*
X120855350Y-201972200D01*
X120855350Y-201972200D02*
X120902969Y-201924580D01*
X120902969Y-201924580D02*
X120950588Y-201829342D01*
X120950588Y-201829342D02*
X120950588Y-201734104D01*
X120950588Y-201734104D02*
X120902969Y-201638866D01*
X120902969Y-201638866D02*
X120855350Y-201591247D01*
X120855350Y-201591247D02*
X120760112Y-201543628D01*
X120760112Y-201543628D02*
X120569636Y-201496009D01*
X120569636Y-201496009D02*
X120474398Y-201448390D01*
X120474398Y-201448390D02*
X120426779Y-201400771D01*
X120426779Y-201400771D02*
X120379160Y-201305533D01*
X120379160Y-201305533D02*
X120379160Y-201210295D01*
X120379160Y-201210295D02*
X120426779Y-201115057D01*
X120426779Y-201115057D02*
X120474398Y-201067438D01*
X120474398Y-201067438D02*
X120569636Y-201019819D01*
X120569636Y-201019819D02*
X120807731Y-201019819D01*
X120807731Y-201019819D02*
X120950588Y-201067438D01*
X121950588Y-201924580D02*
X121902969Y-201972200D01*
X121902969Y-201972200D02*
X121760112Y-202019819D01*
X121760112Y-202019819D02*
X121664874Y-202019819D01*
X121664874Y-202019819D02*
X121522017Y-201972200D01*
X121522017Y-201972200D02*
X121426779Y-201876961D01*
X121426779Y-201876961D02*
X121379160Y-201781723D01*
X121379160Y-201781723D02*
X121331541Y-201591247D01*
X121331541Y-201591247D02*
X121331541Y-201448390D01*
X121331541Y-201448390D02*
X121379160Y-201257914D01*
X121379160Y-201257914D02*
X121426779Y-201162676D01*
X121426779Y-201162676D02*
X121522017Y-201067438D01*
X121522017Y-201067438D02*
X121664874Y-201019819D01*
X121664874Y-201019819D02*
X121760112Y-201019819D01*
X121760112Y-201019819D02*
X121902969Y-201067438D01*
X121902969Y-201067438D02*
X121950588Y-201115057D01*
X122379160Y-202019819D02*
X122379160Y-201019819D01*
X122950588Y-202019819D02*
X122522017Y-201448390D01*
X122950588Y-201019819D02*
X122379160Y-201591247D01*
X123439160Y-165962200D02*
X123582017Y-166009819D01*
X123582017Y-166009819D02*
X123820112Y-166009819D01*
X123820112Y-166009819D02*
X123915350Y-165962200D01*
X123915350Y-165962200D02*
X123962969Y-165914580D01*
X123962969Y-165914580D02*
X124010588Y-165819342D01*
X124010588Y-165819342D02*
X124010588Y-165724104D01*
X124010588Y-165724104D02*
X123962969Y-165628866D01*
X123962969Y-165628866D02*
X123915350Y-165581247D01*
X123915350Y-165581247D02*
X123820112Y-165533628D01*
X123820112Y-165533628D02*
X123629636Y-165486009D01*
X123629636Y-165486009D02*
X123534398Y-165438390D01*
X123534398Y-165438390D02*
X123486779Y-165390771D01*
X123486779Y-165390771D02*
X123439160Y-165295533D01*
X123439160Y-165295533D02*
X123439160Y-165200295D01*
X123439160Y-165200295D02*
X123486779Y-165105057D01*
X123486779Y-165105057D02*
X123534398Y-165057438D01*
X123534398Y-165057438D02*
X123629636Y-165009819D01*
X123629636Y-165009819D02*
X123867731Y-165009819D01*
X123867731Y-165009819D02*
X124010588Y-165057438D01*
X125010588Y-165914580D02*
X124962969Y-165962200D01*
X124962969Y-165962200D02*
X124820112Y-166009819D01*
X124820112Y-166009819D02*
X124724874Y-166009819D01*
X124724874Y-166009819D02*
X124582017Y-165962200D01*
X124582017Y-165962200D02*
X124486779Y-165866961D01*
X124486779Y-165866961D02*
X124439160Y-165771723D01*
X124439160Y-165771723D02*
X124391541Y-165581247D01*
X124391541Y-165581247D02*
X124391541Y-165438390D01*
X124391541Y-165438390D02*
X124439160Y-165247914D01*
X124439160Y-165247914D02*
X124486779Y-165152676D01*
X124486779Y-165152676D02*
X124582017Y-165057438D01*
X124582017Y-165057438D02*
X124724874Y-165009819D01*
X124724874Y-165009819D02*
X124820112Y-165009819D01*
X124820112Y-165009819D02*
X124962969Y-165057438D01*
X124962969Y-165057438D02*
X125010588Y-165105057D01*
X125439160Y-166009819D02*
X125439160Y-165009819D01*
X126010588Y-166009819D02*
X125582017Y-165438390D01*
X126010588Y-165009819D02*
X125439160Y-165581247D01*
X123061541Y-158329819D02*
X123680588Y-158329819D01*
X123680588Y-158329819D02*
X123347255Y-158710771D01*
X123347255Y-158710771D02*
X123490112Y-158710771D01*
X123490112Y-158710771D02*
X123585350Y-158758390D01*
X123585350Y-158758390D02*
X123632969Y-158806009D01*
X123632969Y-158806009D02*
X123680588Y-158901247D01*
X123680588Y-158901247D02*
X123680588Y-159139342D01*
X123680588Y-159139342D02*
X123632969Y-159234580D01*
X123632969Y-159234580D02*
X123585350Y-159282200D01*
X123585350Y-159282200D02*
X123490112Y-159329819D01*
X123490112Y-159329819D02*
X123204398Y-159329819D01*
X123204398Y-159329819D02*
X123109160Y-159282200D01*
X123109160Y-159282200D02*
X123061541Y-159234580D01*
X124109160Y-159234580D02*
X124156779Y-159282200D01*
X124156779Y-159282200D02*
X124109160Y-159329819D01*
X124109160Y-159329819D02*
X124061541Y-159282200D01*
X124061541Y-159282200D02*
X124109160Y-159234580D01*
X124109160Y-159234580D02*
X124109160Y-159329819D01*
X124490112Y-158329819D02*
X125109159Y-158329819D01*
X125109159Y-158329819D02*
X124775826Y-158710771D01*
X124775826Y-158710771D02*
X124918683Y-158710771D01*
X124918683Y-158710771D02*
X125013921Y-158758390D01*
X125013921Y-158758390D02*
X125061540Y-158806009D01*
X125061540Y-158806009D02*
X125109159Y-158901247D01*
X125109159Y-158901247D02*
X125109159Y-159139342D01*
X125109159Y-159139342D02*
X125061540Y-159234580D01*
X125061540Y-159234580D02*
X125013921Y-159282200D01*
X125013921Y-159282200D02*
X124918683Y-159329819D01*
X124918683Y-159329819D02*
X124632969Y-159329819D01*
X124632969Y-159329819D02*
X124537731Y-159282200D01*
X124537731Y-159282200D02*
X124490112Y-159234580D01*
X125394874Y-158329819D02*
X125728207Y-159329819D01*
X125728207Y-159329819D02*
X126061540Y-158329819D01*
X114985714Y-159147342D02*
X114985714Y-160118771D01*
X114985714Y-160118771D02*
X115042857Y-160233057D01*
X115042857Y-160233057D02*
X115100000Y-160290200D01*
X115100000Y-160290200D02*
X115214285Y-160347342D01*
X115214285Y-160347342D02*
X115442857Y-160347342D01*
X115442857Y-160347342D02*
X115557142Y-160290200D01*
X115557142Y-160290200D02*
X115614285Y-160233057D01*
X115614285Y-160233057D02*
X115671428Y-160118771D01*
X115671428Y-160118771D02*
X115671428Y-159147342D01*
X116871428Y-160347342D02*
X116185714Y-160347342D01*
X116528571Y-160347342D02*
X116528571Y-159147342D01*
X116528571Y-159147342D02*
X116414285Y-159318771D01*
X116414285Y-159318771D02*
X116300000Y-159433057D01*
X116300000Y-159433057D02*
X116185714Y-159490200D01*
X111705714Y-163574485D02*
X111591429Y-163517342D01*
X111591429Y-163517342D02*
X111420000Y-163517342D01*
X111420000Y-163517342D02*
X111248571Y-163574485D01*
X111248571Y-163574485D02*
X111134286Y-163688771D01*
X111134286Y-163688771D02*
X111077143Y-163803057D01*
X111077143Y-163803057D02*
X111020000Y-164031628D01*
X111020000Y-164031628D02*
X111020000Y-164203057D01*
X111020000Y-164203057D02*
X111077143Y-164431628D01*
X111077143Y-164431628D02*
X111134286Y-164545914D01*
X111134286Y-164545914D02*
X111248571Y-164660200D01*
X111248571Y-164660200D02*
X111420000Y-164717342D01*
X111420000Y-164717342D02*
X111534286Y-164717342D01*
X111534286Y-164717342D02*
X111705714Y-164660200D01*
X111705714Y-164660200D02*
X111762857Y-164603057D01*
X111762857Y-164603057D02*
X111762857Y-164203057D01*
X111762857Y-164203057D02*
X111534286Y-164203057D01*
X112277143Y-164717342D02*
X112277143Y-163517342D01*
X112277143Y-163517342D02*
X112962857Y-164717342D01*
X112962857Y-164717342D02*
X112962857Y-163517342D01*
X113534286Y-164717342D02*
X113534286Y-163517342D01*
X113534286Y-163517342D02*
X113820000Y-163517342D01*
X113820000Y-163517342D02*
X113991429Y-163574485D01*
X113991429Y-163574485D02*
X114105714Y-163688771D01*
X114105714Y-163688771D02*
X114162857Y-163803057D01*
X114162857Y-163803057D02*
X114220000Y-164031628D01*
X114220000Y-164031628D02*
X114220000Y-164203057D01*
X114220000Y-164203057D02*
X114162857Y-164431628D01*
X114162857Y-164431628D02*
X114105714Y-164545914D01*
X114105714Y-164545914D02*
X113991429Y-164660200D01*
X113991429Y-164660200D02*
X113820000Y-164717342D01*
X113820000Y-164717342D02*
X113534286Y-164717342D01*
X130365714Y-202797342D02*
X131051429Y-202797342D01*
X130708571Y-203997342D02*
X130708571Y-202797342D01*
X131451429Y-203997342D02*
X131451429Y-202797342D01*
X131451429Y-202797342D02*
X131908572Y-202797342D01*
X131908572Y-202797342D02*
X132022857Y-202854485D01*
X132022857Y-202854485D02*
X132080000Y-202911628D01*
X132080000Y-202911628D02*
X132137143Y-203025914D01*
X132137143Y-203025914D02*
X132137143Y-203197342D01*
X132137143Y-203197342D02*
X132080000Y-203311628D01*
X132080000Y-203311628D02*
X132022857Y-203368771D01*
X132022857Y-203368771D02*
X131908572Y-203425914D01*
X131908572Y-203425914D02*
X131451429Y-203425914D01*
X132594286Y-202911628D02*
X132651429Y-202854485D01*
X132651429Y-202854485D02*
X132765715Y-202797342D01*
X132765715Y-202797342D02*
X133051429Y-202797342D01*
X133051429Y-202797342D02*
X133165715Y-202854485D01*
X133165715Y-202854485D02*
X133222857Y-202911628D01*
X133222857Y-202911628D02*
X133280000Y-203025914D01*
X133280000Y-203025914D02*
X133280000Y-203140200D01*
X133280000Y-203140200D02*
X133222857Y-203311628D01*
X133222857Y-203311628D02*
X132537143Y-203997342D01*
X132537143Y-203997342D02*
X133280000Y-203997342D01*
X121163333Y-187475180D02*
X121163333Y-186760895D01*
X121163333Y-186760895D02*
X121210952Y-186618038D01*
X121210952Y-186618038D02*
X121306190Y-186522800D01*
X121306190Y-186522800D02*
X121449047Y-186475180D01*
X121449047Y-186475180D02*
X121544285Y-186475180D01*
X120258571Y-187475180D02*
X120449047Y-187475180D01*
X120449047Y-187475180D02*
X120544285Y-187427561D01*
X120544285Y-187427561D02*
X120591904Y-187379942D01*
X120591904Y-187379942D02*
X120687142Y-187237085D01*
X120687142Y-187237085D02*
X120734761Y-187046609D01*
X120734761Y-187046609D02*
X120734761Y-186665657D01*
X120734761Y-186665657D02*
X120687142Y-186570419D01*
X120687142Y-186570419D02*
X120639523Y-186522800D01*
X120639523Y-186522800D02*
X120544285Y-186475180D01*
X120544285Y-186475180D02*
X120353809Y-186475180D01*
X120353809Y-186475180D02*
X120258571Y-186522800D01*
X120258571Y-186522800D02*
X120210952Y-186570419D01*
X120210952Y-186570419D02*
X120163333Y-186665657D01*
X120163333Y-186665657D02*
X120163333Y-186903752D01*
X120163333Y-186903752D02*
X120210952Y-186998990D01*
X120210952Y-186998990D02*
X120258571Y-187046609D01*
X120258571Y-187046609D02*
X120353809Y-187094228D01*
X120353809Y-187094228D02*
X120544285Y-187094228D01*
X120544285Y-187094228D02*
X120639523Y-187046609D01*
X120639523Y-187046609D02*
X120687142Y-186998990D01*
X120687142Y-186998990D02*
X120734761Y-186903752D01*
X118600000Y-151343057D02*
X118542857Y-151400200D01*
X118542857Y-151400200D02*
X118371429Y-151457342D01*
X118371429Y-151457342D02*
X118257143Y-151457342D01*
X118257143Y-151457342D02*
X118085714Y-151400200D01*
X118085714Y-151400200D02*
X117971429Y-151285914D01*
X117971429Y-151285914D02*
X117914286Y-151171628D01*
X117914286Y-151171628D02*
X117857143Y-150943057D01*
X117857143Y-150943057D02*
X117857143Y-150771628D01*
X117857143Y-150771628D02*
X117914286Y-150543057D01*
X117914286Y-150543057D02*
X117971429Y-150428771D01*
X117971429Y-150428771D02*
X118085714Y-150314485D01*
X118085714Y-150314485D02*
X118257143Y-150257342D01*
X118257143Y-150257342D02*
X118371429Y-150257342D01*
X118371429Y-150257342D02*
X118542857Y-150314485D01*
X118542857Y-150314485D02*
X118600000Y-150371628D01*
X119742857Y-151457342D02*
X119057143Y-151457342D01*
X119400000Y-151457342D02*
X119400000Y-150257342D01*
X119400000Y-150257342D02*
X119285714Y-150428771D01*
X119285714Y-150428771D02*
X119171429Y-150543057D01*
X119171429Y-150543057D02*
X119057143Y-150600200D01*
X120485714Y-140097342D02*
X121171429Y-140097342D01*
X120828571Y-141297342D02*
X120828571Y-140097342D01*
X121571429Y-141297342D02*
X121571429Y-140097342D01*
X121571429Y-140097342D02*
X122028572Y-140097342D01*
X122028572Y-140097342D02*
X122142857Y-140154485D01*
X122142857Y-140154485D02*
X122200000Y-140211628D01*
X122200000Y-140211628D02*
X122257143Y-140325914D01*
X122257143Y-140325914D02*
X122257143Y-140497342D01*
X122257143Y-140497342D02*
X122200000Y-140611628D01*
X122200000Y-140611628D02*
X122142857Y-140668771D01*
X122142857Y-140668771D02*
X122028572Y-140725914D01*
X122028572Y-140725914D02*
X121571429Y-140725914D01*
X122828572Y-141297342D02*
X123057143Y-141297342D01*
X123057143Y-141297342D02*
X123171429Y-141240200D01*
X123171429Y-141240200D02*
X123228572Y-141183057D01*
X123228572Y-141183057D02*
X123342857Y-141011628D01*
X123342857Y-141011628D02*
X123400000Y-140783057D01*
X123400000Y-140783057D02*
X123400000Y-140325914D01*
X123400000Y-140325914D02*
X123342857Y-140211628D01*
X123342857Y-140211628D02*
X123285715Y-140154485D01*
X123285715Y-140154485D02*
X123171429Y-140097342D01*
X123171429Y-140097342D02*
X122942857Y-140097342D01*
X122942857Y-140097342D02*
X122828572Y-140154485D01*
X122828572Y-140154485D02*
X122771429Y-140211628D01*
X122771429Y-140211628D02*
X122714286Y-140325914D01*
X122714286Y-140325914D02*
X122714286Y-140611628D01*
X122714286Y-140611628D02*
X122771429Y-140725914D01*
X122771429Y-140725914D02*
X122828572Y-140783057D01*
X122828572Y-140783057D02*
X122942857Y-140840200D01*
X122942857Y-140840200D02*
X123171429Y-140840200D01*
X123171429Y-140840200D02*
X123285715Y-140783057D01*
X123285715Y-140783057D02*
X123342857Y-140725914D01*
X123342857Y-140725914D02*
X123400000Y-140611628D01*
X122775714Y-156297342D02*
X123461429Y-156297342D01*
X123118571Y-157497342D02*
X123118571Y-156297342D01*
X123861429Y-157497342D02*
X123861429Y-156297342D01*
X123861429Y-156297342D02*
X124318572Y-156297342D01*
X124318572Y-156297342D02*
X124432857Y-156354485D01*
X124432857Y-156354485D02*
X124490000Y-156411628D01*
X124490000Y-156411628D02*
X124547143Y-156525914D01*
X124547143Y-156525914D02*
X124547143Y-156697342D01*
X124547143Y-156697342D02*
X124490000Y-156811628D01*
X124490000Y-156811628D02*
X124432857Y-156868771D01*
X124432857Y-156868771D02*
X124318572Y-156925914D01*
X124318572Y-156925914D02*
X123861429Y-156925914D01*
X124947143Y-156297342D02*
X125690000Y-156297342D01*
X125690000Y-156297342D02*
X125290000Y-156754485D01*
X125290000Y-156754485D02*
X125461429Y-156754485D01*
X125461429Y-156754485D02*
X125575715Y-156811628D01*
X125575715Y-156811628D02*
X125632857Y-156868771D01*
X125632857Y-156868771D02*
X125690000Y-156983057D01*
X125690000Y-156983057D02*
X125690000Y-157268771D01*
X125690000Y-157268771D02*
X125632857Y-157383057D01*
X125632857Y-157383057D02*
X125575715Y-157440200D01*
X125575715Y-157440200D02*
X125461429Y-157497342D01*
X125461429Y-157497342D02*
X125118572Y-157497342D01*
X125118572Y-157497342D02*
X125004286Y-157440200D01*
X125004286Y-157440200D02*
X124947143Y-157383057D01*
X116005714Y-163317342D02*
X116691429Y-163317342D01*
X116348571Y-164517342D02*
X116348571Y-163317342D01*
X117091429Y-164517342D02*
X117091429Y-163317342D01*
X117091429Y-163317342D02*
X117548572Y-163317342D01*
X117548572Y-163317342D02*
X117662857Y-163374485D01*
X117662857Y-163374485D02*
X117720000Y-163431628D01*
X117720000Y-163431628D02*
X117777143Y-163545914D01*
X117777143Y-163545914D02*
X117777143Y-163717342D01*
X117777143Y-163717342D02*
X117720000Y-163831628D01*
X117720000Y-163831628D02*
X117662857Y-163888771D01*
X117662857Y-163888771D02*
X117548572Y-163945914D01*
X117548572Y-163945914D02*
X117091429Y-163945914D01*
X118862857Y-163317342D02*
X118291429Y-163317342D01*
X118291429Y-163317342D02*
X118234286Y-163888771D01*
X118234286Y-163888771D02*
X118291429Y-163831628D01*
X118291429Y-163831628D02*
X118405715Y-163774485D01*
X118405715Y-163774485D02*
X118691429Y-163774485D01*
X118691429Y-163774485D02*
X118805715Y-163831628D01*
X118805715Y-163831628D02*
X118862857Y-163888771D01*
X118862857Y-163888771D02*
X118920000Y-164003057D01*
X118920000Y-164003057D02*
X118920000Y-164288771D01*
X118920000Y-164288771D02*
X118862857Y-164403057D01*
X118862857Y-164403057D02*
X118805715Y-164460200D01*
X118805715Y-164460200D02*
X118691429Y-164517342D01*
X118691429Y-164517342D02*
X118405715Y-164517342D01*
X118405715Y-164517342D02*
X118291429Y-164460200D01*
X118291429Y-164460200D02*
X118234286Y-164403057D01*
D11*
X58768095Y-95197419D02*
X58768095Y-96006942D01*
X58768095Y-96006942D02*
X58815714Y-96102180D01*
X58815714Y-96102180D02*
X58863333Y-96149800D01*
X58863333Y-96149800D02*
X58958571Y-96197419D01*
X58958571Y-96197419D02*
X59149047Y-96197419D01*
X59149047Y-96197419D02*
X59244285Y-96149800D01*
X59244285Y-96149800D02*
X59291904Y-96102180D01*
X59291904Y-96102180D02*
X59339523Y-96006942D01*
X59339523Y-96006942D02*
X59339523Y-95197419D01*
X59768095Y-95292657D02*
X59815714Y-95245038D01*
X59815714Y-95245038D02*
X59910952Y-95197419D01*
X59910952Y-95197419D02*
X60149047Y-95197419D01*
X60149047Y-95197419D02*
X60244285Y-95245038D01*
X60244285Y-95245038D02*
X60291904Y-95292657D01*
X60291904Y-95292657D02*
X60339523Y-95387895D01*
X60339523Y-95387895D02*
X60339523Y-95483133D01*
X60339523Y-95483133D02*
X60291904Y-95625990D01*
X60291904Y-95625990D02*
X59720476Y-96197419D01*
X59720476Y-96197419D02*
X60339523Y-96197419D01*
D10*
X104546893Y-192221062D02*
X104041817Y-191715986D01*
X104041817Y-191715986D02*
X103974473Y-191581299D01*
X103974473Y-191581299D02*
X103974473Y-191446612D01*
X103974473Y-191446612D02*
X104041817Y-191311925D01*
X104041817Y-191311925D02*
X104109160Y-191244581D01*
X103873458Y-192894497D02*
X104210175Y-192557780D01*
X104210175Y-192557780D02*
X103907130Y-192187391D01*
X103907130Y-192187391D02*
X103907130Y-192254734D01*
X103907130Y-192254734D02*
X103873458Y-192355749D01*
X103873458Y-192355749D02*
X103705099Y-192524108D01*
X103705099Y-192524108D02*
X103604084Y-192557780D01*
X103604084Y-192557780D02*
X103536740Y-192557780D01*
X103536740Y-192557780D02*
X103435725Y-192524108D01*
X103435725Y-192524108D02*
X103267366Y-192355749D01*
X103267366Y-192355749D02*
X103233695Y-192254734D01*
X103233695Y-192254734D02*
X103233695Y-192187391D01*
X103233695Y-192187391D02*
X103267366Y-192086375D01*
X103267366Y-192086375D02*
X103435725Y-191918017D01*
X103435725Y-191918017D02*
X103536740Y-191884345D01*
X103536740Y-191884345D02*
X103604084Y-191884345D01*
X120125714Y-202447342D02*
X120811429Y-202447342D01*
X120468571Y-203647342D02*
X120468571Y-202447342D01*
X121211429Y-203647342D02*
X121211429Y-202447342D01*
X121211429Y-202447342D02*
X121668572Y-202447342D01*
X121668572Y-202447342D02*
X121782857Y-202504485D01*
X121782857Y-202504485D02*
X121840000Y-202561628D01*
X121840000Y-202561628D02*
X121897143Y-202675914D01*
X121897143Y-202675914D02*
X121897143Y-202847342D01*
X121897143Y-202847342D02*
X121840000Y-202961628D01*
X121840000Y-202961628D02*
X121782857Y-203018771D01*
X121782857Y-203018771D02*
X121668572Y-203075914D01*
X121668572Y-203075914D02*
X121211429Y-203075914D01*
X122297143Y-202447342D02*
X123097143Y-202447342D01*
X123097143Y-202447342D02*
X122582857Y-203647342D01*
X105605180Y-205006666D02*
X104890895Y-205006666D01*
X104890895Y-205006666D02*
X104748038Y-204959047D01*
X104748038Y-204959047D02*
X104652800Y-204863809D01*
X104652800Y-204863809D02*
X104605180Y-204720952D01*
X104605180Y-204720952D02*
X104605180Y-204625714D01*
X105271847Y-205911428D02*
X104605180Y-205911428D01*
X105652800Y-205673333D02*
X104938514Y-205435238D01*
X104938514Y-205435238D02*
X104938514Y-206054285D01*
X50735714Y-179847342D02*
X51421429Y-179847342D01*
X51078571Y-181047342D02*
X51078571Y-179847342D01*
X51821429Y-181047342D02*
X51821429Y-179847342D01*
X51821429Y-179847342D02*
X52278572Y-179847342D01*
X52278572Y-179847342D02*
X52392857Y-179904485D01*
X52392857Y-179904485D02*
X52450000Y-179961628D01*
X52450000Y-179961628D02*
X52507143Y-180075914D01*
X52507143Y-180075914D02*
X52507143Y-180247342D01*
X52507143Y-180247342D02*
X52450000Y-180361628D01*
X52450000Y-180361628D02*
X52392857Y-180418771D01*
X52392857Y-180418771D02*
X52278572Y-180475914D01*
X52278572Y-180475914D02*
X51821429Y-180475914D01*
X53192857Y-180361628D02*
X53078572Y-180304485D01*
X53078572Y-180304485D02*
X53021429Y-180247342D01*
X53021429Y-180247342D02*
X52964286Y-180133057D01*
X52964286Y-180133057D02*
X52964286Y-180075914D01*
X52964286Y-180075914D02*
X53021429Y-179961628D01*
X53021429Y-179961628D02*
X53078572Y-179904485D01*
X53078572Y-179904485D02*
X53192857Y-179847342D01*
X53192857Y-179847342D02*
X53421429Y-179847342D01*
X53421429Y-179847342D02*
X53535715Y-179904485D01*
X53535715Y-179904485D02*
X53592857Y-179961628D01*
X53592857Y-179961628D02*
X53650000Y-180075914D01*
X53650000Y-180075914D02*
X53650000Y-180133057D01*
X53650000Y-180133057D02*
X53592857Y-180247342D01*
X53592857Y-180247342D02*
X53535715Y-180304485D01*
X53535715Y-180304485D02*
X53421429Y-180361628D01*
X53421429Y-180361628D02*
X53192857Y-180361628D01*
X53192857Y-180361628D02*
X53078572Y-180418771D01*
X53078572Y-180418771D02*
X53021429Y-180475914D01*
X53021429Y-180475914D02*
X52964286Y-180590200D01*
X52964286Y-180590200D02*
X52964286Y-180818771D01*
X52964286Y-180818771D02*
X53021429Y-180933057D01*
X53021429Y-180933057D02*
X53078572Y-180990200D01*
X53078572Y-180990200D02*
X53192857Y-181047342D01*
X53192857Y-181047342D02*
X53421429Y-181047342D01*
X53421429Y-181047342D02*
X53535715Y-180990200D01*
X53535715Y-180990200D02*
X53592857Y-180933057D01*
X53592857Y-180933057D02*
X53650000Y-180818771D01*
X53650000Y-180818771D02*
X53650000Y-180590200D01*
X53650000Y-180590200D02*
X53592857Y-180475914D01*
X53592857Y-180475914D02*
X53535715Y-180418771D01*
X53535715Y-180418771D02*
X53421429Y-180361628D01*
X116455714Y-208327342D02*
X117141429Y-208327342D01*
X116798571Y-209527342D02*
X116798571Y-208327342D01*
X117541429Y-209527342D02*
X117541429Y-208327342D01*
X117541429Y-208327342D02*
X117998572Y-208327342D01*
X117998572Y-208327342D02*
X118112857Y-208384485D01*
X118112857Y-208384485D02*
X118170000Y-208441628D01*
X118170000Y-208441628D02*
X118227143Y-208555914D01*
X118227143Y-208555914D02*
X118227143Y-208727342D01*
X118227143Y-208727342D02*
X118170000Y-208841628D01*
X118170000Y-208841628D02*
X118112857Y-208898771D01*
X118112857Y-208898771D02*
X117998572Y-208955914D01*
X117998572Y-208955914D02*
X117541429Y-208955914D01*
X119370000Y-209527342D02*
X118684286Y-209527342D01*
X119027143Y-209527342D02*
X119027143Y-208327342D01*
X119027143Y-208327342D02*
X118912857Y-208498771D01*
X118912857Y-208498771D02*
X118798572Y-208613057D01*
X118798572Y-208613057D02*
X118684286Y-208670200D01*
X97985714Y-199097342D02*
X98671429Y-199097342D01*
X98328571Y-200297342D02*
X98328571Y-199097342D01*
X99071429Y-200297342D02*
X99071429Y-199097342D01*
X99071429Y-199097342D02*
X99528572Y-199097342D01*
X99528572Y-199097342D02*
X99642857Y-199154485D01*
X99642857Y-199154485D02*
X99700000Y-199211628D01*
X99700000Y-199211628D02*
X99757143Y-199325914D01*
X99757143Y-199325914D02*
X99757143Y-199497342D01*
X99757143Y-199497342D02*
X99700000Y-199611628D01*
X99700000Y-199611628D02*
X99642857Y-199668771D01*
X99642857Y-199668771D02*
X99528572Y-199725914D01*
X99528572Y-199725914D02*
X99071429Y-199725914D01*
X100785715Y-199097342D02*
X100557143Y-199097342D01*
X100557143Y-199097342D02*
X100442857Y-199154485D01*
X100442857Y-199154485D02*
X100385715Y-199211628D01*
X100385715Y-199211628D02*
X100271429Y-199383057D01*
X100271429Y-199383057D02*
X100214286Y-199611628D01*
X100214286Y-199611628D02*
X100214286Y-200068771D01*
X100214286Y-200068771D02*
X100271429Y-200183057D01*
X100271429Y-200183057D02*
X100328572Y-200240200D01*
X100328572Y-200240200D02*
X100442857Y-200297342D01*
X100442857Y-200297342D02*
X100671429Y-200297342D01*
X100671429Y-200297342D02*
X100785715Y-200240200D01*
X100785715Y-200240200D02*
X100842857Y-200183057D01*
X100842857Y-200183057D02*
X100900000Y-200068771D01*
X100900000Y-200068771D02*
X100900000Y-199783057D01*
X100900000Y-199783057D02*
X100842857Y-199668771D01*
X100842857Y-199668771D02*
X100785715Y-199611628D01*
X100785715Y-199611628D02*
X100671429Y-199554485D01*
X100671429Y-199554485D02*
X100442857Y-199554485D01*
X100442857Y-199554485D02*
X100328572Y-199611628D01*
X100328572Y-199611628D02*
X100271429Y-199668771D01*
X100271429Y-199668771D02*
X100214286Y-199783057D01*
X56610000Y-89173057D02*
X56552857Y-89230200D01*
X56552857Y-89230200D02*
X56381429Y-89287342D01*
X56381429Y-89287342D02*
X56267143Y-89287342D01*
X56267143Y-89287342D02*
X56095714Y-89230200D01*
X56095714Y-89230200D02*
X55981429Y-89115914D01*
X55981429Y-89115914D02*
X55924286Y-89001628D01*
X55924286Y-89001628D02*
X55867143Y-88773057D01*
X55867143Y-88773057D02*
X55867143Y-88601628D01*
X55867143Y-88601628D02*
X55924286Y-88373057D01*
X55924286Y-88373057D02*
X55981429Y-88258771D01*
X55981429Y-88258771D02*
X56095714Y-88144485D01*
X56095714Y-88144485D02*
X56267143Y-88087342D01*
X56267143Y-88087342D02*
X56381429Y-88087342D01*
X56381429Y-88087342D02*
X56552857Y-88144485D01*
X56552857Y-88144485D02*
X56610000Y-88201628D01*
X57638572Y-88487342D02*
X57638572Y-89287342D01*
X57352857Y-88030200D02*
X57067143Y-88887342D01*
X57067143Y-88887342D02*
X57810000Y-88887342D01*
X147476395Y-196214349D02*
X147981471Y-195709273D01*
X147981471Y-195709273D02*
X148116158Y-195641929D01*
X148116158Y-195641929D02*
X148250845Y-195641929D01*
X148250845Y-195641929D02*
X148385532Y-195709273D01*
X148385532Y-195709273D02*
X148452876Y-195776616D01*
X147240692Y-195843960D02*
X147173349Y-195843960D01*
X147173349Y-195843960D02*
X147072334Y-195810288D01*
X147072334Y-195810288D02*
X146903975Y-195641929D01*
X146903975Y-195641929D02*
X146870303Y-195540914D01*
X146870303Y-195540914D02*
X146870303Y-195473570D01*
X146870303Y-195473570D02*
X146903975Y-195372555D01*
X146903975Y-195372555D02*
X146971318Y-195305212D01*
X146971318Y-195305212D02*
X147106005Y-195237868D01*
X147106005Y-195237868D02*
X147914127Y-195237868D01*
X147914127Y-195237868D02*
X147476395Y-194800135D01*
X133593333Y-188035180D02*
X133593333Y-187320895D01*
X133593333Y-187320895D02*
X133640952Y-187178038D01*
X133640952Y-187178038D02*
X133736190Y-187082800D01*
X133736190Y-187082800D02*
X133879047Y-187035180D01*
X133879047Y-187035180D02*
X133974285Y-187035180D01*
X133212380Y-188035180D02*
X132593333Y-188035180D01*
X132593333Y-188035180D02*
X132926666Y-187654228D01*
X132926666Y-187654228D02*
X132783809Y-187654228D01*
X132783809Y-187654228D02*
X132688571Y-187606609D01*
X132688571Y-187606609D02*
X132640952Y-187558990D01*
X132640952Y-187558990D02*
X132593333Y-187463752D01*
X132593333Y-187463752D02*
X132593333Y-187225657D01*
X132593333Y-187225657D02*
X132640952Y-187130419D01*
X132640952Y-187130419D02*
X132688571Y-187082800D01*
X132688571Y-187082800D02*
X132783809Y-187035180D01*
X132783809Y-187035180D02*
X133069523Y-187035180D01*
X133069523Y-187035180D02*
X133164761Y-187082800D01*
X133164761Y-187082800D02*
X133212380Y-187130419D01*
X122534285Y-163477342D02*
X123220000Y-163477342D01*
X122877142Y-164677342D02*
X122877142Y-163477342D01*
X123620000Y-164677342D02*
X123620000Y-163477342D01*
X123620000Y-163477342D02*
X124077143Y-163477342D01*
X124077143Y-163477342D02*
X124191428Y-163534485D01*
X124191428Y-163534485D02*
X124248571Y-163591628D01*
X124248571Y-163591628D02*
X124305714Y-163705914D01*
X124305714Y-163705914D02*
X124305714Y-163877342D01*
X124305714Y-163877342D02*
X124248571Y-163991628D01*
X124248571Y-163991628D02*
X124191428Y-164048771D01*
X124191428Y-164048771D02*
X124077143Y-164105914D01*
X124077143Y-164105914D02*
X123620000Y-164105914D01*
X125448571Y-164677342D02*
X124762857Y-164677342D01*
X125105714Y-164677342D02*
X125105714Y-163477342D01*
X125105714Y-163477342D02*
X124991428Y-163648771D01*
X124991428Y-163648771D02*
X124877143Y-163763057D01*
X124877143Y-163763057D02*
X124762857Y-163820200D01*
X126191428Y-163477342D02*
X126305714Y-163477342D01*
X126305714Y-163477342D02*
X126420000Y-163534485D01*
X126420000Y-163534485D02*
X126477143Y-163591628D01*
X126477143Y-163591628D02*
X126534285Y-163705914D01*
X126534285Y-163705914D02*
X126591428Y-163934485D01*
X126591428Y-163934485D02*
X126591428Y-164220200D01*
X126591428Y-164220200D02*
X126534285Y-164448771D01*
X126534285Y-164448771D02*
X126477143Y-164563057D01*
X126477143Y-164563057D02*
X126420000Y-164620200D01*
X126420000Y-164620200D02*
X126305714Y-164677342D01*
X126305714Y-164677342D02*
X126191428Y-164677342D01*
X126191428Y-164677342D02*
X126077143Y-164620200D01*
X126077143Y-164620200D02*
X126020000Y-164563057D01*
X126020000Y-164563057D02*
X125962857Y-164448771D01*
X125962857Y-164448771D02*
X125905714Y-164220200D01*
X125905714Y-164220200D02*
X125905714Y-163934485D01*
X125905714Y-163934485D02*
X125962857Y-163705914D01*
X125962857Y-163705914D02*
X126020000Y-163591628D01*
X126020000Y-163591628D02*
X126077143Y-163534485D01*
X126077143Y-163534485D02*
X126191428Y-163477342D01*
X111570000Y-152293057D02*
X111512857Y-152350200D01*
X111512857Y-152350200D02*
X111341429Y-152407342D01*
X111341429Y-152407342D02*
X111227143Y-152407342D01*
X111227143Y-152407342D02*
X111055714Y-152350200D01*
X111055714Y-152350200D02*
X110941429Y-152235914D01*
X110941429Y-152235914D02*
X110884286Y-152121628D01*
X110884286Y-152121628D02*
X110827143Y-151893057D01*
X110827143Y-151893057D02*
X110827143Y-151721628D01*
X110827143Y-151721628D02*
X110884286Y-151493057D01*
X110884286Y-151493057D02*
X110941429Y-151378771D01*
X110941429Y-151378771D02*
X111055714Y-151264485D01*
X111055714Y-151264485D02*
X111227143Y-151207342D01*
X111227143Y-151207342D02*
X111341429Y-151207342D01*
X111341429Y-151207342D02*
X111512857Y-151264485D01*
X111512857Y-151264485D02*
X111570000Y-151321628D01*
X112027143Y-151321628D02*
X112084286Y-151264485D01*
X112084286Y-151264485D02*
X112198572Y-151207342D01*
X112198572Y-151207342D02*
X112484286Y-151207342D01*
X112484286Y-151207342D02*
X112598572Y-151264485D01*
X112598572Y-151264485D02*
X112655714Y-151321628D01*
X112655714Y-151321628D02*
X112712857Y-151435914D01*
X112712857Y-151435914D02*
X112712857Y-151550200D01*
X112712857Y-151550200D02*
X112655714Y-151721628D01*
X112655714Y-151721628D02*
X111970000Y-152407342D01*
X111970000Y-152407342D02*
X112712857Y-152407342D01*
X113777164Y-153018252D02*
X113720021Y-153075395D01*
X113720021Y-153075395D02*
X113548593Y-153132537D01*
X113548593Y-153132537D02*
X113434307Y-153132537D01*
X113434307Y-153132537D02*
X113262878Y-153075395D01*
X113262878Y-153075395D02*
X113148593Y-152961109D01*
X113148593Y-152961109D02*
X113091450Y-152846823D01*
X113091450Y-152846823D02*
X113034307Y-152618252D01*
X113034307Y-152618252D02*
X113034307Y-152446823D01*
X113034307Y-152446823D02*
X113091450Y-152218252D01*
X113091450Y-152218252D02*
X113148593Y-152103966D01*
X113148593Y-152103966D02*
X113262878Y-151989680D01*
X113262878Y-151989680D02*
X113434307Y-151932537D01*
X113434307Y-151932537D02*
X113548593Y-151932537D01*
X113548593Y-151932537D02*
X113720021Y-151989680D01*
X113720021Y-151989680D02*
X113777164Y-152046823D01*
X114177164Y-151932537D02*
X114920021Y-151932537D01*
X114920021Y-151932537D02*
X114520021Y-152389680D01*
X114520021Y-152389680D02*
X114691450Y-152389680D01*
X114691450Y-152389680D02*
X114805736Y-152446823D01*
X114805736Y-152446823D02*
X114862878Y-152503966D01*
X114862878Y-152503966D02*
X114920021Y-152618252D01*
X114920021Y-152618252D02*
X114920021Y-152903966D01*
X114920021Y-152903966D02*
X114862878Y-153018252D01*
X114862878Y-153018252D02*
X114805736Y-153075395D01*
X114805736Y-153075395D02*
X114691450Y-153132537D01*
X114691450Y-153132537D02*
X114348593Y-153132537D01*
X114348593Y-153132537D02*
X114234307Y-153075395D01*
X114234307Y-153075395D02*
X114177164Y-153018252D01*
X114715714Y-201067342D02*
X115401429Y-201067342D01*
X115058571Y-202267342D02*
X115058571Y-201067342D01*
X115801429Y-202267342D02*
X115801429Y-201067342D01*
X115801429Y-201067342D02*
X116258572Y-201067342D01*
X116258572Y-201067342D02*
X116372857Y-201124485D01*
X116372857Y-201124485D02*
X116430000Y-201181628D01*
X116430000Y-201181628D02*
X116487143Y-201295914D01*
X116487143Y-201295914D02*
X116487143Y-201467342D01*
X116487143Y-201467342D02*
X116430000Y-201581628D01*
X116430000Y-201581628D02*
X116372857Y-201638771D01*
X116372857Y-201638771D02*
X116258572Y-201695914D01*
X116258572Y-201695914D02*
X115801429Y-201695914D01*
X117515715Y-201467342D02*
X117515715Y-202267342D01*
X117230000Y-201010200D02*
X116944286Y-201867342D01*
X116944286Y-201867342D02*
X117687143Y-201867342D01*
%TO.C,U1*%
X118254406Y-158511804D02*
X118704406Y-158511804D01*
X118254406Y-156111804D02*
X118704406Y-156111804D01*
X116354406Y-158511804D02*
X115904406Y-158511804D01*
X116354406Y-156111804D02*
X115904406Y-156111804D01*
D12*
X119141906Y-158511804D02*
G75*
G02*
X118966906Y-158511804I-87500J0D01*
G01*
X118966906Y-158511804D02*
G75*
G02*
X119141906Y-158511804I87500J0D01*
G01*
%TO.C,GND*%
D10*
X113470000Y-162020000D02*
G75*
G02*
X111870000Y-162020000I-800000J0D01*
G01*
X111870000Y-162020000D02*
G75*
G02*
X113470000Y-162020000I800000J0D01*
G01*
%TO.C,J1*%
D13*
X120595710Y-221817500D02*
G75*
G02*
X120404290Y-221817500I-95710J0D01*
G01*
X120404290Y-221817500D02*
G75*
G02*
X120595710Y-221817500I95710J0D01*
G01*
%TO.C,TP2*%
D10*
X132300000Y-206750000D02*
G75*
G02*
X130700000Y-206750000I-800000J0D01*
G01*
X130700000Y-206750000D02*
G75*
G02*
X132300000Y-206750000I800000J0D01*
G01*
%TO.C,J6*%
X124080000Y-193880000D02*
X124080000Y-191455000D01*
X124080000Y-193880000D02*
X123230000Y-193880000D01*
X121080000Y-189655000D02*
X122130000Y-189655000D01*
X121080000Y-189655000D02*
X120130000Y-189655000D01*
X118080000Y-193905000D02*
X118830000Y-193905000D01*
X118080000Y-193905000D02*
X118080000Y-191480000D01*
%TO.C,J9*%
D14*
X108940000Y-33430000D02*
X108940000Y-31015000D01*
X108940000Y-31015000D02*
X107890000Y-31015000D01*
X106030000Y-35485000D02*
X107630000Y-35485000D01*
X105480000Y-31015000D02*
X105480000Y-30025000D01*
X104720000Y-33430000D02*
X104720000Y-31015000D01*
X104720000Y-31015000D02*
X105480000Y-31015000D01*
%TO.C,C1*%
D10*
X119275000Y-153800000D02*
X119275000Y-154000000D01*
X118325000Y-154000000D02*
X118325000Y-153800000D01*
%TO.C,TP9*%
X122300000Y-142750000D02*
G75*
G02*
X120700000Y-142750000I-800000J0D01*
G01*
X120700000Y-142750000D02*
G75*
G02*
X122300000Y-142750000I800000J0D01*
G01*
%TO.C,TP3*%
X125140000Y-154800000D02*
G75*
G02*
X123540000Y-154800000I-800000J0D01*
G01*
X123540000Y-154800000D02*
G75*
G02*
X125140000Y-154800000I800000J0D01*
G01*
%TO.C,TP5*%
X118800000Y-161750000D02*
G75*
G02*
X117200000Y-161750000I-800000J0D01*
G01*
X117200000Y-161750000D02*
G75*
G02*
X118800000Y-161750000I800000J0D01*
G01*
%TO.C,J11*%
D14*
X163730000Y-55850000D02*
X163730000Y-53435000D01*
X163730000Y-53435000D02*
X162680000Y-53435000D01*
X160820000Y-57905000D02*
X162420000Y-57905000D01*
X160270000Y-53435000D02*
X160270000Y-52445000D01*
X159510000Y-55850000D02*
X159510000Y-53435000D01*
X159510000Y-53435000D02*
X160270000Y-53435000D01*
%TO.C,J8*%
X76730000Y-43065000D02*
X76730000Y-40650000D01*
X76730000Y-40650000D02*
X75680000Y-40650000D01*
X73820000Y-45120000D02*
X75420000Y-45120000D01*
X73270000Y-40650000D02*
X73270000Y-39660000D01*
X72510000Y-43065000D02*
X72510000Y-40650000D01*
X72510000Y-40650000D02*
X73270000Y-40650000D01*
%TO.C,U2*%
X57140000Y-92500000D02*
X56810000Y-92740000D01*
X56810000Y-92260000D01*
X57140000Y-92500000D01*
G36*
X57140000Y-92500000D02*
G01*
X56810000Y-92740000D01*
X56810000Y-92260000D01*
X57140000Y-92500000D01*
G37*
X58320000Y-94860000D02*
X57320000Y-94860000D01*
X58320000Y-93500000D02*
X58320000Y-94860000D01*
X58122500Y-93292500D02*
X58317500Y-93487500D01*
X56370000Y-93040000D02*
X57150000Y-93040000D01*
X56200000Y-94860000D02*
X55200000Y-94860000D01*
X55200000Y-94860000D02*
X55200000Y-93040000D01*
X55200000Y-93040000D02*
X55290000Y-93040000D01*
%TO.C,J5*%
D10*
X111138179Y-194687559D02*
X110537139Y-195288599D01*
X111138179Y-194687559D02*
X109423445Y-192972825D01*
X106913216Y-198947877D02*
X107443546Y-198417547D01*
X106913216Y-198947877D02*
X105198482Y-197233143D01*
X106029333Y-193821353D02*
X106771795Y-193078891D01*
X106029333Y-193821353D02*
X105357581Y-194493104D01*
%TO.C,TP7*%
X121940000Y-205100000D02*
G75*
G02*
X120340000Y-205100000I-800000J0D01*
G01*
X120340000Y-205100000D02*
G75*
G02*
X121940000Y-205100000I800000J0D01*
G01*
%TO.C,J4*%
X112035000Y-208090000D02*
X112035000Y-207340000D01*
X112035000Y-208090000D02*
X109610000Y-208090000D01*
X112010000Y-202090000D02*
X112010000Y-202940000D01*
X112010000Y-202090000D02*
X109585000Y-202090000D01*
X107785000Y-205090000D02*
X107785000Y-206040000D01*
X107785000Y-205090000D02*
X107785000Y-204040000D01*
%TO.C,TP8*%
X52550000Y-182500000D02*
G75*
G02*
X50950000Y-182500000I-800000J0D01*
G01*
X50950000Y-182500000D02*
G75*
G02*
X52550000Y-182500000I800000J0D01*
G01*
%TO.C,J7*%
D14*
X39370000Y-106080000D02*
X39370000Y-103665000D01*
X39370000Y-103665000D02*
X38320000Y-103665000D01*
X36460000Y-108135000D02*
X38060000Y-108135000D01*
X35910000Y-103665000D02*
X35910000Y-102675000D01*
X35150000Y-106080000D02*
X35150000Y-103665000D01*
X35150000Y-103665000D02*
X35910000Y-103665000D01*
%TO.C,TP1*%
D10*
X118720000Y-206870000D02*
G75*
G02*
X117120000Y-206870000I-800000J0D01*
G01*
X117120000Y-206870000D02*
G75*
G02*
X118720000Y-206870000I800000J0D01*
G01*
%TO.C,TP6*%
X99800000Y-201750000D02*
G75*
G02*
X98200000Y-201750000I-800000J0D01*
G01*
X98200000Y-201750000D02*
G75*
G02*
X99800000Y-201750000I800000J0D01*
G01*
%TO.C,C4*%
X56940000Y-91105000D02*
X56740000Y-91105000D01*
X56740000Y-90155000D02*
X56940000Y-90155000D01*
%TO.C,J2*%
X145876105Y-197696789D02*
X146618567Y-198439251D01*
X145876105Y-197696789D02*
X145204354Y-197025037D01*
X145009899Y-202805635D02*
X146724633Y-201090901D01*
X145009899Y-202805635D02*
X144408859Y-202204595D01*
X140749581Y-198580672D02*
X142464315Y-196865938D01*
X140749581Y-198580672D02*
X141279911Y-199111002D01*
%TO.C,J3*%
X136510000Y-194440000D02*
X136510000Y-192015000D01*
X136510000Y-194440000D02*
X135660000Y-194440000D01*
X133510000Y-190215000D02*
X134560000Y-190215000D01*
X133510000Y-190215000D02*
X132560000Y-190215000D01*
X130510000Y-194465000D02*
X131260000Y-194465000D01*
X130510000Y-194465000D02*
X130510000Y-192040000D01*
%TO.C,TP10*%
X122800000Y-162250000D02*
G75*
G02*
X121200000Y-162250000I-800000J0D01*
G01*
X121200000Y-162250000D02*
G75*
G02*
X122800000Y-162250000I800000J0D01*
G01*
%TO.C,C2*%
X112575000Y-154300000D02*
X112575000Y-154500000D01*
X111625000Y-154500000D02*
X111625000Y-154300000D01*
%TO.C,C3*%
X114575000Y-155000000D02*
X114575000Y-155200000D01*
X113625000Y-155200000D02*
X113625000Y-155000000D01*
%TO.C,J10*%
D14*
X140140000Y-41150000D02*
X140140000Y-38735000D01*
X140140000Y-38735000D02*
X139090000Y-38735000D01*
X137230000Y-43205000D02*
X138830000Y-43205000D01*
X136680000Y-38735000D02*
X136680000Y-37745000D01*
X135920000Y-41150000D02*
X135920000Y-38735000D01*
X135920000Y-38735000D02*
X136680000Y-38735000D01*
%TO.C,TP4*%
D10*
X117120000Y-203480000D02*
G75*
G02*
X115520000Y-203480000I-800000J0D01*
G01*
X115520000Y-203480000D02*
G75*
G02*
X117120000Y-203480000I800000J0D01*
G01*
D15*
%TO.C,G\u002A\u002A\u002A*%
G36*
X127983049Y-203535047D02*
G01*
X127984712Y-203551537D01*
X127983049Y-203553574D01*
X127974788Y-203551666D01*
X127973785Y-203544310D01*
X127978869Y-203532873D01*
X127983049Y-203535047D01*
G37*
G36*
X130734252Y-210816010D02*
G01*
X130735915Y-210832500D01*
X130734252Y-210834537D01*
X130725992Y-210832629D01*
X130724989Y-210825273D01*
X130730073Y-210813836D01*
X130734252Y-210816010D01*
G37*
%TD*%
M02*
