M48
; DRILL file KiCad 10.0.2 date 2026-09-22T16:59:30
; FORMAT={-:-/ absolute / metric / decimal}
; #@! TF.CreationDate,2026-09-22T16:59:30+02:00
; #@! TF.GenerationSoftware,Kicad,Pcbnew,10.0.2
; #@! TF.FileFunction,NonPlated,1,2,NPTH
FMAT,2
METRIC
; #@! TA.AperFunction,NonPlated,NPTH,ComponentDrill
T1C1.000
%
G90
G05
T1
X30.93Y-117.91
X31.33Y-121.89
X31.43Y-113.0
X44.82Y-108.55
X51.95Y-92.01
X60.071Y-88.299
X68.32Y-46.15
X73.72Y-108.85
X81.75Y-43.94
X84.51Y-48.81
X91.46Y-105.39
X97.74Y-40.99
X97.82Y-46.1
X99.4Y-35.42
X100.3Y-141.38
X102.97Y-102.61
X112.6Y-188.38
X114.55Y-211.44
X116.09Y-36.18
X120.82Y-99.9
X127.518Y-54.315
X128.32Y-47.09
X131.09Y-100.28
X131.43Y-41.08
X136.13Y-204.94
X143.36Y-163.59
X145.32Y-45.19
X146.89Y-106.78
X154.56Y-106.75
X155.59Y-63.98
X155.79Y-57.01
X164.46Y-153.28
X167.13Y-59.56
X168.25Y-113.6
M30
