%TF.GenerationSoftware,KiCad,Pcbnew,10.0.2*%
%TF.CreationDate,2026-09-22T16:59:26+02:00*%
%TF.ProjectId,HandFPC,48616e64-4650-4432-9e6b-696361645f70,rev?*%
%TF.SameCoordinates,Original*%
%TF.FileFunction,Other,User*%
%FSLAX46Y46*%
G04 Gerber Fmt 4.6, Leading zero omitted, Abs format (unit mm)*
G04 Created by KiCad (PCBNEW 10.0.2) date 2026-09-22 16:59:26*
%MOMM*%
%LPD*%
G01*
G04 APERTURE LIST*
%ADD10C,0.150000*%
%ADD11C,0.100000*%
G04 APERTURE END LIST*
D10*
X110829160Y-217652200D02*
X110972017Y-217699819D01*
X110972017Y-217699819D02*
X111210112Y-217699819D01*
X111210112Y-217699819D02*
X111305350Y-217652200D01*
X111305350Y-217652200D02*
X111352969Y-217604580D01*
X111352969Y-217604580D02*
X111400588Y-217509342D01*
X111400588Y-217509342D02*
X111400588Y-217414104D01*
X111400588Y-217414104D02*
X111352969Y-217318866D01*
X111352969Y-217318866D02*
X111305350Y-217271247D01*
X111305350Y-217271247D02*
X111210112Y-217223628D01*
X111210112Y-217223628D02*
X111019636Y-217176009D01*
X111019636Y-217176009D02*
X110924398Y-217128390D01*
X110924398Y-217128390D02*
X110876779Y-217080771D01*
X110876779Y-217080771D02*
X110829160Y-216985533D01*
X110829160Y-216985533D02*
X110829160Y-216890295D01*
X110829160Y-216890295D02*
X110876779Y-216795057D01*
X110876779Y-216795057D02*
X110924398Y-216747438D01*
X110924398Y-216747438D02*
X111019636Y-216699819D01*
X111019636Y-216699819D02*
X111257731Y-216699819D01*
X111257731Y-216699819D02*
X111400588Y-216747438D01*
X111686303Y-216699819D02*
X112257731Y-216699819D01*
X111972017Y-217699819D02*
X111972017Y-216699819D01*
X112591065Y-217699819D02*
X112591065Y-216699819D01*
X113400588Y-217176009D02*
X113067255Y-217176009D01*
X113067255Y-217699819D02*
X113067255Y-216699819D01*
X113067255Y-216699819D02*
X113543445Y-216699819D01*
X114257731Y-217176009D02*
X113924398Y-217176009D01*
X113924398Y-217699819D02*
X113924398Y-216699819D01*
X113924398Y-216699819D02*
X114400588Y-216699819D01*
X114781541Y-217176009D02*
X115114874Y-217176009D01*
X115257731Y-217699819D02*
X114781541Y-217699819D01*
X114781541Y-217699819D02*
X114781541Y-216699819D01*
X114781541Y-216699819D02*
X115257731Y-216699819D01*
X115686303Y-217699819D02*
X115686303Y-216699819D01*
X115686303Y-216699819D02*
X116257731Y-217699819D01*
X116257731Y-217699819D02*
X116257731Y-216699819D01*
X116733922Y-217176009D02*
X117067255Y-217176009D01*
X117210112Y-217699819D02*
X116733922Y-217699819D01*
X116733922Y-217699819D02*
X116733922Y-216699819D01*
X116733922Y-216699819D02*
X117210112Y-216699819D01*
X118210112Y-217699819D02*
X117876779Y-217223628D01*
X117638684Y-217699819D02*
X117638684Y-216699819D01*
X117638684Y-216699819D02*
X118019636Y-216699819D01*
X118019636Y-216699819D02*
X118114874Y-216747438D01*
X118114874Y-216747438D02*
X118162493Y-216795057D01*
X118162493Y-216795057D02*
X118210112Y-216890295D01*
X118210112Y-216890295D02*
X118210112Y-217033152D01*
X118210112Y-217033152D02*
X118162493Y-217128390D01*
X118162493Y-217128390D02*
X118114874Y-217176009D01*
X118114874Y-217176009D02*
X118019636Y-217223628D01*
X118019636Y-217223628D02*
X117638684Y-217223628D01*
X120705245Y-153939604D02*
X120562388Y-153891984D01*
X120562388Y-153891984D02*
X120324293Y-153891984D01*
X120324293Y-153891984D02*
X120229055Y-153939604D01*
X120229055Y-153939604D02*
X120181436Y-153987223D01*
X120181436Y-153987223D02*
X120133817Y-154082461D01*
X120133817Y-154082461D02*
X120133817Y-154177699D01*
X120133817Y-154177699D02*
X120181436Y-154272937D01*
X120181436Y-154272937D02*
X120229055Y-154320556D01*
X120229055Y-154320556D02*
X120324293Y-154368175D01*
X120324293Y-154368175D02*
X120514769Y-154415794D01*
X120514769Y-154415794D02*
X120610007Y-154463413D01*
X120610007Y-154463413D02*
X120657626Y-154511032D01*
X120657626Y-154511032D02*
X120705245Y-154606270D01*
X120705245Y-154606270D02*
X120705245Y-154701508D01*
X120705245Y-154701508D02*
X120657626Y-154796746D01*
X120657626Y-154796746D02*
X120610007Y-154844365D01*
X120610007Y-154844365D02*
X120514769Y-154891984D01*
X120514769Y-154891984D02*
X120276674Y-154891984D01*
X120276674Y-154891984D02*
X120133817Y-154844365D01*
X119848102Y-154891984D02*
X119276674Y-154891984D01*
X119562388Y-153891984D02*
X119562388Y-154891984D01*
X118943340Y-153891984D02*
X118943340Y-154891984D01*
X118133817Y-154415794D02*
X118467150Y-154415794D01*
X118467150Y-153891984D02*
X118467150Y-154891984D01*
X118467150Y-154891984D02*
X117990960Y-154891984D01*
X117276674Y-154415794D02*
X117610007Y-154415794D01*
X117610007Y-153891984D02*
X117610007Y-154891984D01*
X117610007Y-154891984D02*
X117133817Y-154891984D01*
X116752864Y-154415794D02*
X116419531Y-154415794D01*
X116276674Y-153891984D02*
X116752864Y-153891984D01*
X116752864Y-153891984D02*
X116752864Y-154891984D01*
X116752864Y-154891984D02*
X116276674Y-154891984D01*
X115848102Y-153891984D02*
X115848102Y-154891984D01*
X115848102Y-154891984D02*
X115276674Y-153891984D01*
X115276674Y-153891984D02*
X115276674Y-154891984D01*
X114800483Y-154415794D02*
X114467150Y-154415794D01*
X114324293Y-153891984D02*
X114800483Y-153891984D01*
X114800483Y-153891984D02*
X114800483Y-154891984D01*
X114800483Y-154891984D02*
X114324293Y-154891984D01*
X113324293Y-153891984D02*
X113657626Y-154368175D01*
X113895721Y-153891984D02*
X113895721Y-154891984D01*
X113895721Y-154891984D02*
X113514769Y-154891984D01*
X113514769Y-154891984D02*
X113419531Y-154844365D01*
X113419531Y-154844365D02*
X113371912Y-154796746D01*
X113371912Y-154796746D02*
X113324293Y-154701508D01*
X113324293Y-154701508D02*
X113324293Y-154558651D01*
X113324293Y-154558651D02*
X113371912Y-154463413D01*
X113371912Y-154463413D02*
X113419531Y-154415794D01*
X113419531Y-154415794D02*
X113514769Y-154368175D01*
X113514769Y-154368175D02*
X113895721Y-154368175D01*
X129830839Y-219175300D02*
X129687982Y-219127680D01*
X129687982Y-219127680D02*
X129449887Y-219127680D01*
X129449887Y-219127680D02*
X129354649Y-219175300D01*
X129354649Y-219175300D02*
X129307030Y-219222919D01*
X129307030Y-219222919D02*
X129259411Y-219318157D01*
X129259411Y-219318157D02*
X129259411Y-219413395D01*
X129259411Y-219413395D02*
X129307030Y-219508633D01*
X129307030Y-219508633D02*
X129354649Y-219556252D01*
X129354649Y-219556252D02*
X129449887Y-219603871D01*
X129449887Y-219603871D02*
X129640363Y-219651490D01*
X129640363Y-219651490D02*
X129735601Y-219699109D01*
X129735601Y-219699109D02*
X129783220Y-219746728D01*
X129783220Y-219746728D02*
X129830839Y-219841966D01*
X129830839Y-219841966D02*
X129830839Y-219937204D01*
X129830839Y-219937204D02*
X129783220Y-220032442D01*
X129783220Y-220032442D02*
X129735601Y-220080061D01*
X129735601Y-220080061D02*
X129640363Y-220127680D01*
X129640363Y-220127680D02*
X129402268Y-220127680D01*
X129402268Y-220127680D02*
X129259411Y-220080061D01*
X128973696Y-220127680D02*
X128402268Y-220127680D01*
X128687982Y-219127680D02*
X128687982Y-220127680D01*
X128068934Y-219127680D02*
X128068934Y-220127680D01*
X127259411Y-219651490D02*
X127592744Y-219651490D01*
X127592744Y-219127680D02*
X127592744Y-220127680D01*
X127592744Y-220127680D02*
X127116554Y-220127680D01*
X126402268Y-219651490D02*
X126735601Y-219651490D01*
X126735601Y-219127680D02*
X126735601Y-220127680D01*
X126735601Y-220127680D02*
X126259411Y-220127680D01*
X125878458Y-219651490D02*
X125545125Y-219651490D01*
X125402268Y-219127680D02*
X125878458Y-219127680D01*
X125878458Y-219127680D02*
X125878458Y-220127680D01*
X125878458Y-220127680D02*
X125402268Y-220127680D01*
X124973696Y-219127680D02*
X124973696Y-220127680D01*
X124973696Y-220127680D02*
X124402268Y-219127680D01*
X124402268Y-219127680D02*
X124402268Y-220127680D01*
X123926077Y-219651490D02*
X123592744Y-219651490D01*
X123449887Y-219127680D02*
X123926077Y-219127680D01*
X123926077Y-219127680D02*
X123926077Y-220127680D01*
X123926077Y-220127680D02*
X123449887Y-220127680D01*
X122449887Y-219127680D02*
X122783220Y-219603871D01*
X123021315Y-219127680D02*
X123021315Y-220127680D01*
X123021315Y-220127680D02*
X122640363Y-220127680D01*
X122640363Y-220127680D02*
X122545125Y-220080061D01*
X122545125Y-220080061D02*
X122497506Y-220032442D01*
X122497506Y-220032442D02*
X122449887Y-219937204D01*
X122449887Y-219937204D02*
X122449887Y-219794347D01*
X122449887Y-219794347D02*
X122497506Y-219699109D01*
X122497506Y-219699109D02*
X122545125Y-219651490D01*
X122545125Y-219651490D02*
X122640363Y-219603871D01*
X122640363Y-219603871D02*
X123021315Y-219603871D01*
X159954742Y-63015154D02*
X159887398Y-62880467D01*
X159887398Y-62880467D02*
X159719040Y-62712108D01*
X159719040Y-62712108D02*
X159618024Y-62678436D01*
X159618024Y-62678436D02*
X159550681Y-62678436D01*
X159550681Y-62678436D02*
X159449666Y-62712108D01*
X159449666Y-62712108D02*
X159382322Y-62779452D01*
X159382322Y-62779452D02*
X159348650Y-62880467D01*
X159348650Y-62880467D02*
X159348650Y-62947810D01*
X159348650Y-62947810D02*
X159382322Y-63048826D01*
X159382322Y-63048826D02*
X159483337Y-63217184D01*
X159483337Y-63217184D02*
X159517009Y-63318200D01*
X159517009Y-63318200D02*
X159517009Y-63385543D01*
X159517009Y-63385543D02*
X159483337Y-63486558D01*
X159483337Y-63486558D02*
X159415994Y-63553902D01*
X159415994Y-63553902D02*
X159314979Y-63587574D01*
X159314979Y-63587574D02*
X159247635Y-63587574D01*
X159247635Y-63587574D02*
X159146620Y-63553902D01*
X159146620Y-63553902D02*
X158978261Y-63385543D01*
X158978261Y-63385543D02*
X158910917Y-63250856D01*
X158675215Y-63082497D02*
X158271154Y-62678436D01*
X159180291Y-62173360D02*
X158473185Y-62880467D01*
X158742559Y-61735627D02*
X158035452Y-62442734D01*
X157799750Y-61533597D02*
X158035452Y-61769299D01*
X158405841Y-61398910D02*
X157698735Y-62106017D01*
X157698735Y-62106017D02*
X157362017Y-61769299D01*
X157193658Y-60927505D02*
X157429360Y-61163208D01*
X157799750Y-60792818D02*
X157092643Y-61499925D01*
X157092643Y-61499925D02*
X156755925Y-61163208D01*
X156823269Y-60557116D02*
X156587567Y-60321414D01*
X156856941Y-59850009D02*
X157193658Y-60186727D01*
X157193658Y-60186727D02*
X156486551Y-60893834D01*
X156486551Y-60893834D02*
X156149834Y-60557116D01*
X156553895Y-59546963D02*
X155846788Y-60254070D01*
X155846788Y-60254070D02*
X156149834Y-59142902D01*
X156149834Y-59142902D02*
X155442727Y-59850009D01*
X155442727Y-59176574D02*
X155207025Y-58940872D01*
X155476399Y-58469467D02*
X155813116Y-58806185D01*
X155813116Y-58806185D02*
X155106009Y-59513292D01*
X155106009Y-59513292D02*
X154769292Y-59176574D01*
X154769292Y-57762361D02*
X154668277Y-58334780D01*
X155173353Y-58166422D02*
X154466246Y-58873528D01*
X154466246Y-58873528D02*
X154196872Y-58604154D01*
X154196872Y-58604154D02*
X154163200Y-58503139D01*
X154163200Y-58503139D02*
X154163200Y-58435796D01*
X154163200Y-58435796D02*
X154196872Y-58334780D01*
X154196872Y-58334780D02*
X154297887Y-58233765D01*
X154297887Y-58233765D02*
X154398903Y-58200093D01*
X154398903Y-58200093D02*
X154466246Y-58200093D01*
X154466246Y-58200093D02*
X154567261Y-58233765D01*
X154567261Y-58233765D02*
X154836635Y-58503139D01*
D11*
X124823734Y-196355200D02*
X124680877Y-196307580D01*
X124680877Y-196307580D02*
X124442782Y-196307580D01*
X124442782Y-196307580D02*
X124347544Y-196355200D01*
X124347544Y-196355200D02*
X124299925Y-196402819D01*
X124299925Y-196402819D02*
X124252306Y-196498057D01*
X124252306Y-196498057D02*
X124252306Y-196593295D01*
X124252306Y-196593295D02*
X124299925Y-196688533D01*
X124299925Y-196688533D02*
X124347544Y-196736152D01*
X124347544Y-196736152D02*
X124442782Y-196783771D01*
X124442782Y-196783771D02*
X124633258Y-196831390D01*
X124633258Y-196831390D02*
X124728496Y-196879009D01*
X124728496Y-196879009D02*
X124776115Y-196926628D01*
X124776115Y-196926628D02*
X124823734Y-197021866D01*
X124823734Y-197021866D02*
X124823734Y-197117104D01*
X124823734Y-197117104D02*
X124776115Y-197212342D01*
X124776115Y-197212342D02*
X124728496Y-197259961D01*
X124728496Y-197259961D02*
X124633258Y-197307580D01*
X124633258Y-197307580D02*
X124395163Y-197307580D01*
X124395163Y-197307580D02*
X124252306Y-197259961D01*
X123966591Y-197307580D02*
X123395163Y-197307580D01*
X123680877Y-196307580D02*
X123680877Y-197307580D01*
X123061829Y-196307580D02*
X123061829Y-197307580D01*
X122252306Y-196831390D02*
X122585639Y-196831390D01*
X122585639Y-196307580D02*
X122585639Y-197307580D01*
X122585639Y-197307580D02*
X122109449Y-197307580D01*
X121395163Y-196831390D02*
X121728496Y-196831390D01*
X121728496Y-196307580D02*
X121728496Y-197307580D01*
X121728496Y-197307580D02*
X121252306Y-197307580D01*
X120871353Y-196831390D02*
X120538020Y-196831390D01*
X120395163Y-196307580D02*
X120871353Y-196307580D01*
X120871353Y-196307580D02*
X120871353Y-197307580D01*
X120871353Y-197307580D02*
X120395163Y-197307580D01*
X119966591Y-196307580D02*
X119966591Y-197307580D01*
X119966591Y-197307580D02*
X119395163Y-196307580D01*
X119395163Y-196307580D02*
X119395163Y-197307580D01*
X118918972Y-196831390D02*
X118585639Y-196831390D01*
X118442782Y-196307580D02*
X118918972Y-196307580D01*
X118918972Y-196307580D02*
X118918972Y-197307580D01*
X118918972Y-197307580D02*
X118442782Y-197307580D01*
X117442782Y-196307580D02*
X117776115Y-196783771D01*
X118014210Y-196307580D02*
X118014210Y-197307580D01*
X118014210Y-197307580D02*
X117633258Y-197307580D01*
X117633258Y-197307580D02*
X117538020Y-197259961D01*
X117538020Y-197259961D02*
X117490401Y-197212342D01*
X117490401Y-197212342D02*
X117442782Y-197117104D01*
X117442782Y-197117104D02*
X117442782Y-196974247D01*
X117442782Y-196974247D02*
X117490401Y-196879009D01*
X117490401Y-196879009D02*
X117538020Y-196831390D01*
X117538020Y-196831390D02*
X117633258Y-196783771D01*
X117633258Y-196783771D02*
X118014210Y-196783771D01*
X102736265Y-28154800D02*
X102879122Y-28202419D01*
X102879122Y-28202419D02*
X103117217Y-28202419D01*
X103117217Y-28202419D02*
X103212455Y-28154800D01*
X103212455Y-28154800D02*
X103260074Y-28107180D01*
X103260074Y-28107180D02*
X103307693Y-28011942D01*
X103307693Y-28011942D02*
X103307693Y-27916704D01*
X103307693Y-27916704D02*
X103260074Y-27821466D01*
X103260074Y-27821466D02*
X103212455Y-27773847D01*
X103212455Y-27773847D02*
X103117217Y-27726228D01*
X103117217Y-27726228D02*
X102926741Y-27678609D01*
X102926741Y-27678609D02*
X102831503Y-27630990D01*
X102831503Y-27630990D02*
X102783884Y-27583371D01*
X102783884Y-27583371D02*
X102736265Y-27488133D01*
X102736265Y-27488133D02*
X102736265Y-27392895D01*
X102736265Y-27392895D02*
X102783884Y-27297657D01*
X102783884Y-27297657D02*
X102831503Y-27250038D01*
X102831503Y-27250038D02*
X102926741Y-27202419D01*
X102926741Y-27202419D02*
X103164836Y-27202419D01*
X103164836Y-27202419D02*
X103307693Y-27250038D01*
X103593408Y-27202419D02*
X104164836Y-27202419D01*
X103879122Y-28202419D02*
X103879122Y-27202419D01*
X104498170Y-28202419D02*
X104498170Y-27202419D01*
X105307693Y-27678609D02*
X104974360Y-27678609D01*
X104974360Y-28202419D02*
X104974360Y-27202419D01*
X104974360Y-27202419D02*
X105450550Y-27202419D01*
X106164836Y-27678609D02*
X105831503Y-27678609D01*
X105831503Y-28202419D02*
X105831503Y-27202419D01*
X105831503Y-27202419D02*
X106307693Y-27202419D01*
X106688646Y-27678609D02*
X107021979Y-27678609D01*
X107164836Y-28202419D02*
X106688646Y-28202419D01*
X106688646Y-28202419D02*
X106688646Y-27202419D01*
X106688646Y-27202419D02*
X107164836Y-27202419D01*
X107593408Y-28202419D02*
X107593408Y-27202419D01*
X107593408Y-27202419D02*
X108164836Y-28202419D01*
X108164836Y-28202419D02*
X108164836Y-27202419D01*
X108641027Y-27678609D02*
X108974360Y-27678609D01*
X109117217Y-28202419D02*
X108641027Y-28202419D01*
X108641027Y-28202419D02*
X108641027Y-27202419D01*
X108641027Y-27202419D02*
X109117217Y-27202419D01*
X110117217Y-28202419D02*
X109783884Y-27726228D01*
X109545789Y-28202419D02*
X109545789Y-27202419D01*
X109545789Y-27202419D02*
X109926741Y-27202419D01*
X109926741Y-27202419D02*
X110021979Y-27250038D01*
X110021979Y-27250038D02*
X110069598Y-27297657D01*
X110069598Y-27297657D02*
X110117217Y-27392895D01*
X110117217Y-27392895D02*
X110117217Y-27535752D01*
X110117217Y-27535752D02*
X110069598Y-27630990D01*
X110069598Y-27630990D02*
X110021979Y-27678609D01*
X110021979Y-27678609D02*
X109926741Y-27726228D01*
X109926741Y-27726228D02*
X109545789Y-27726228D01*
D10*
X121497800Y-152919160D02*
X121450180Y-153062017D01*
X121450180Y-153062017D02*
X121450180Y-153300112D01*
X121450180Y-153300112D02*
X121497800Y-153395350D01*
X121497800Y-153395350D02*
X121545419Y-153442969D01*
X121545419Y-153442969D02*
X121640657Y-153490588D01*
X121640657Y-153490588D02*
X121735895Y-153490588D01*
X121735895Y-153490588D02*
X121831133Y-153442969D01*
X121831133Y-153442969D02*
X121878752Y-153395350D01*
X121878752Y-153395350D02*
X121926371Y-153300112D01*
X121926371Y-153300112D02*
X121973990Y-153109636D01*
X121973990Y-153109636D02*
X122021609Y-153014398D01*
X122021609Y-153014398D02*
X122069228Y-152966779D01*
X122069228Y-152966779D02*
X122164466Y-152919160D01*
X122164466Y-152919160D02*
X122259704Y-152919160D01*
X122259704Y-152919160D02*
X122354942Y-152966779D01*
X122354942Y-152966779D02*
X122402561Y-153014398D01*
X122402561Y-153014398D02*
X122450180Y-153109636D01*
X122450180Y-153109636D02*
X122450180Y-153347731D01*
X122450180Y-153347731D02*
X122402561Y-153490588D01*
X122450180Y-153776303D02*
X122450180Y-154347731D01*
X121450180Y-154062017D02*
X122450180Y-154062017D01*
X121450180Y-154681065D02*
X122450180Y-154681065D01*
X121973990Y-155490588D02*
X121973990Y-155157255D01*
X121450180Y-155157255D02*
X122450180Y-155157255D01*
X122450180Y-155157255D02*
X122450180Y-155633445D01*
X121973990Y-156347731D02*
X121973990Y-156014398D01*
X121450180Y-156014398D02*
X122450180Y-156014398D01*
X122450180Y-156014398D02*
X122450180Y-156490588D01*
X121973990Y-156871541D02*
X121973990Y-157204874D01*
X121450180Y-157347731D02*
X121450180Y-156871541D01*
X121450180Y-156871541D02*
X122450180Y-156871541D01*
X122450180Y-156871541D02*
X122450180Y-157347731D01*
X121450180Y-157776303D02*
X122450180Y-157776303D01*
X122450180Y-157776303D02*
X121450180Y-158347731D01*
X121450180Y-158347731D02*
X122450180Y-158347731D01*
X121973990Y-158823922D02*
X121973990Y-159157255D01*
X121450180Y-159300112D02*
X121450180Y-158823922D01*
X121450180Y-158823922D02*
X122450180Y-158823922D01*
X122450180Y-158823922D02*
X122450180Y-159300112D01*
X121450180Y-160300112D02*
X121926371Y-159966779D01*
X121450180Y-159728684D02*
X122450180Y-159728684D01*
X122450180Y-159728684D02*
X122450180Y-160109636D01*
X122450180Y-160109636D02*
X122402561Y-160204874D01*
X122402561Y-160204874D02*
X122354942Y-160252493D01*
X122354942Y-160252493D02*
X122259704Y-160300112D01*
X122259704Y-160300112D02*
X122116847Y-160300112D01*
X122116847Y-160300112D02*
X122021609Y-160252493D01*
X122021609Y-160252493D02*
X121973990Y-160204874D01*
X121973990Y-160204874D02*
X121926371Y-160109636D01*
X121926371Y-160109636D02*
X121926371Y-159728684D01*
D11*
X157526265Y-50574800D02*
X157669122Y-50622419D01*
X157669122Y-50622419D02*
X157907217Y-50622419D01*
X157907217Y-50622419D02*
X158002455Y-50574800D01*
X158002455Y-50574800D02*
X158050074Y-50527180D01*
X158050074Y-50527180D02*
X158097693Y-50431942D01*
X158097693Y-50431942D02*
X158097693Y-50336704D01*
X158097693Y-50336704D02*
X158050074Y-50241466D01*
X158050074Y-50241466D02*
X158002455Y-50193847D01*
X158002455Y-50193847D02*
X157907217Y-50146228D01*
X157907217Y-50146228D02*
X157716741Y-50098609D01*
X157716741Y-50098609D02*
X157621503Y-50050990D01*
X157621503Y-50050990D02*
X157573884Y-50003371D01*
X157573884Y-50003371D02*
X157526265Y-49908133D01*
X157526265Y-49908133D02*
X157526265Y-49812895D01*
X157526265Y-49812895D02*
X157573884Y-49717657D01*
X157573884Y-49717657D02*
X157621503Y-49670038D01*
X157621503Y-49670038D02*
X157716741Y-49622419D01*
X157716741Y-49622419D02*
X157954836Y-49622419D01*
X157954836Y-49622419D02*
X158097693Y-49670038D01*
X158383408Y-49622419D02*
X158954836Y-49622419D01*
X158669122Y-50622419D02*
X158669122Y-49622419D01*
X159288170Y-50622419D02*
X159288170Y-49622419D01*
X160097693Y-50098609D02*
X159764360Y-50098609D01*
X159764360Y-50622419D02*
X159764360Y-49622419D01*
X159764360Y-49622419D02*
X160240550Y-49622419D01*
X160954836Y-50098609D02*
X160621503Y-50098609D01*
X160621503Y-50622419D02*
X160621503Y-49622419D01*
X160621503Y-49622419D02*
X161097693Y-49622419D01*
X161478646Y-50098609D02*
X161811979Y-50098609D01*
X161954836Y-50622419D02*
X161478646Y-50622419D01*
X161478646Y-50622419D02*
X161478646Y-49622419D01*
X161478646Y-49622419D02*
X161954836Y-49622419D01*
X162383408Y-50622419D02*
X162383408Y-49622419D01*
X162383408Y-49622419D02*
X162954836Y-50622419D01*
X162954836Y-50622419D02*
X162954836Y-49622419D01*
X163431027Y-50098609D02*
X163764360Y-50098609D01*
X163907217Y-50622419D02*
X163431027Y-50622419D01*
X163431027Y-50622419D02*
X163431027Y-49622419D01*
X163431027Y-49622419D02*
X163907217Y-49622419D01*
X164907217Y-50622419D02*
X164573884Y-50146228D01*
X164335789Y-50622419D02*
X164335789Y-49622419D01*
X164335789Y-49622419D02*
X164716741Y-49622419D01*
X164716741Y-49622419D02*
X164811979Y-49670038D01*
X164811979Y-49670038D02*
X164859598Y-49717657D01*
X164859598Y-49717657D02*
X164907217Y-49812895D01*
X164907217Y-49812895D02*
X164907217Y-49955752D01*
X164907217Y-49955752D02*
X164859598Y-50050990D01*
X164859598Y-50050990D02*
X164811979Y-50098609D01*
X164811979Y-50098609D02*
X164716741Y-50146228D01*
X164716741Y-50146228D02*
X164335789Y-50146228D01*
X70526265Y-37789800D02*
X70669122Y-37837419D01*
X70669122Y-37837419D02*
X70907217Y-37837419D01*
X70907217Y-37837419D02*
X71002455Y-37789800D01*
X71002455Y-37789800D02*
X71050074Y-37742180D01*
X71050074Y-37742180D02*
X71097693Y-37646942D01*
X71097693Y-37646942D02*
X71097693Y-37551704D01*
X71097693Y-37551704D02*
X71050074Y-37456466D01*
X71050074Y-37456466D02*
X71002455Y-37408847D01*
X71002455Y-37408847D02*
X70907217Y-37361228D01*
X70907217Y-37361228D02*
X70716741Y-37313609D01*
X70716741Y-37313609D02*
X70621503Y-37265990D01*
X70621503Y-37265990D02*
X70573884Y-37218371D01*
X70573884Y-37218371D02*
X70526265Y-37123133D01*
X70526265Y-37123133D02*
X70526265Y-37027895D01*
X70526265Y-37027895D02*
X70573884Y-36932657D01*
X70573884Y-36932657D02*
X70621503Y-36885038D01*
X70621503Y-36885038D02*
X70716741Y-36837419D01*
X70716741Y-36837419D02*
X70954836Y-36837419D01*
X70954836Y-36837419D02*
X71097693Y-36885038D01*
X71383408Y-36837419D02*
X71954836Y-36837419D01*
X71669122Y-37837419D02*
X71669122Y-36837419D01*
X72288170Y-37837419D02*
X72288170Y-36837419D01*
X73097693Y-37313609D02*
X72764360Y-37313609D01*
X72764360Y-37837419D02*
X72764360Y-36837419D01*
X72764360Y-36837419D02*
X73240550Y-36837419D01*
X73954836Y-37313609D02*
X73621503Y-37313609D01*
X73621503Y-37837419D02*
X73621503Y-36837419D01*
X73621503Y-36837419D02*
X74097693Y-36837419D01*
X74478646Y-37313609D02*
X74811979Y-37313609D01*
X74954836Y-37837419D02*
X74478646Y-37837419D01*
X74478646Y-37837419D02*
X74478646Y-36837419D01*
X74478646Y-36837419D02*
X74954836Y-36837419D01*
X75383408Y-37837419D02*
X75383408Y-36837419D01*
X75383408Y-36837419D02*
X75954836Y-37837419D01*
X75954836Y-37837419D02*
X75954836Y-36837419D01*
X76431027Y-37313609D02*
X76764360Y-37313609D01*
X76907217Y-37837419D02*
X76431027Y-37837419D01*
X76431027Y-37837419D02*
X76431027Y-36837419D01*
X76431027Y-36837419D02*
X76907217Y-36837419D01*
X77907217Y-37837419D02*
X77573884Y-37361228D01*
X77335789Y-37837419D02*
X77335789Y-36837419D01*
X77335789Y-36837419D02*
X77716741Y-36837419D01*
X77716741Y-36837419D02*
X77811979Y-36885038D01*
X77811979Y-36885038D02*
X77859598Y-36932657D01*
X77859598Y-36932657D02*
X77907217Y-37027895D01*
X77907217Y-37027895D02*
X77907217Y-37170752D01*
X77907217Y-37170752D02*
X77859598Y-37265990D01*
X77859598Y-37265990D02*
X77811979Y-37313609D01*
X77811979Y-37313609D02*
X77716741Y-37361228D01*
X77716741Y-37361228D02*
X77335789Y-37361228D01*
D10*
X52767800Y-90869160D02*
X52720180Y-91012017D01*
X52720180Y-91012017D02*
X52720180Y-91250112D01*
X52720180Y-91250112D02*
X52767800Y-91345350D01*
X52767800Y-91345350D02*
X52815419Y-91392969D01*
X52815419Y-91392969D02*
X52910657Y-91440588D01*
X52910657Y-91440588D02*
X53005895Y-91440588D01*
X53005895Y-91440588D02*
X53101133Y-91392969D01*
X53101133Y-91392969D02*
X53148752Y-91345350D01*
X53148752Y-91345350D02*
X53196371Y-91250112D01*
X53196371Y-91250112D02*
X53243990Y-91059636D01*
X53243990Y-91059636D02*
X53291609Y-90964398D01*
X53291609Y-90964398D02*
X53339228Y-90916779D01*
X53339228Y-90916779D02*
X53434466Y-90869160D01*
X53434466Y-90869160D02*
X53529704Y-90869160D01*
X53529704Y-90869160D02*
X53624942Y-90916779D01*
X53624942Y-90916779D02*
X53672561Y-90964398D01*
X53672561Y-90964398D02*
X53720180Y-91059636D01*
X53720180Y-91059636D02*
X53720180Y-91297731D01*
X53720180Y-91297731D02*
X53672561Y-91440588D01*
X53720180Y-91726303D02*
X53720180Y-92297731D01*
X52720180Y-92012017D02*
X53720180Y-92012017D01*
X52720180Y-92631065D02*
X53720180Y-92631065D01*
X53243990Y-93440588D02*
X53243990Y-93107255D01*
X52720180Y-93107255D02*
X53720180Y-93107255D01*
X53720180Y-93107255D02*
X53720180Y-93583445D01*
X53243990Y-94297731D02*
X53243990Y-93964398D01*
X52720180Y-93964398D02*
X53720180Y-93964398D01*
X53720180Y-93964398D02*
X53720180Y-94440588D01*
X53243990Y-94821541D02*
X53243990Y-95154874D01*
X52720180Y-95297731D02*
X52720180Y-94821541D01*
X52720180Y-94821541D02*
X53720180Y-94821541D01*
X53720180Y-94821541D02*
X53720180Y-95297731D01*
X52720180Y-95726303D02*
X53720180Y-95726303D01*
X53720180Y-95726303D02*
X52720180Y-96297731D01*
X52720180Y-96297731D02*
X53720180Y-96297731D01*
X53243990Y-96773922D02*
X53243990Y-97107255D01*
X52720180Y-97250112D02*
X52720180Y-96773922D01*
X52720180Y-96773922D02*
X53720180Y-96773922D01*
X53720180Y-96773922D02*
X53720180Y-97250112D01*
X52720180Y-98250112D02*
X53196371Y-97916779D01*
X52720180Y-97678684D02*
X53720180Y-97678684D01*
X53720180Y-97678684D02*
X53720180Y-98059636D01*
X53720180Y-98059636D02*
X53672561Y-98154874D01*
X53672561Y-98154874D02*
X53624942Y-98202493D01*
X53624942Y-98202493D02*
X53529704Y-98250112D01*
X53529704Y-98250112D02*
X53386847Y-98250112D01*
X53386847Y-98250112D02*
X53291609Y-98202493D01*
X53291609Y-98202493D02*
X53243990Y-98154874D01*
X53243990Y-98154874D02*
X53196371Y-98059636D01*
X53196371Y-98059636D02*
X53196371Y-97678684D01*
D11*
X113414310Y-195911888D02*
X113279623Y-195979232D01*
X113279623Y-195979232D02*
X113111264Y-196147591D01*
X113111264Y-196147591D02*
X113077592Y-196248606D01*
X113077592Y-196248606D02*
X113077592Y-196315949D01*
X113077592Y-196315949D02*
X113111264Y-196416965D01*
X113111264Y-196416965D02*
X113178607Y-196484308D01*
X113178607Y-196484308D02*
X113279623Y-196517980D01*
X113279623Y-196517980D02*
X113346966Y-196517980D01*
X113346966Y-196517980D02*
X113447982Y-196484308D01*
X113447982Y-196484308D02*
X113616340Y-196383293D01*
X113616340Y-196383293D02*
X113717356Y-196349621D01*
X113717356Y-196349621D02*
X113784699Y-196349621D01*
X113784699Y-196349621D02*
X113885714Y-196383293D01*
X113885714Y-196383293D02*
X113953058Y-196450636D01*
X113953058Y-196450636D02*
X113986730Y-196551652D01*
X113986730Y-196551652D02*
X113986730Y-196618995D01*
X113986730Y-196618995D02*
X113953058Y-196720010D01*
X113953058Y-196720010D02*
X113784699Y-196888369D01*
X113784699Y-196888369D02*
X113650012Y-196955713D01*
X113481653Y-197191415D02*
X113077592Y-197595476D01*
X112572516Y-196686339D02*
X113279623Y-197393446D01*
X112134783Y-197124072D02*
X112841890Y-197831178D01*
X111932753Y-198066880D02*
X112168455Y-197831178D01*
X111798066Y-197460789D02*
X112505173Y-198167896D01*
X112505173Y-198167896D02*
X112168455Y-198504613D01*
X111326661Y-198672972D02*
X111562363Y-198437270D01*
X111191974Y-198066881D02*
X111899081Y-198773987D01*
X111899081Y-198773987D02*
X111562363Y-199110705D01*
X110956272Y-199043361D02*
X110720570Y-199279064D01*
X110249165Y-199009690D02*
X110585883Y-198672972D01*
X110585883Y-198672972D02*
X111292989Y-199380079D01*
X111292989Y-199380079D02*
X110956272Y-199716796D01*
X109946119Y-199312735D02*
X110653226Y-200019842D01*
X110653226Y-200019842D02*
X109542058Y-199716797D01*
X109542058Y-199716797D02*
X110249165Y-200423903D01*
X109575730Y-200423903D02*
X109340028Y-200659606D01*
X108868623Y-200390232D02*
X109205341Y-200053514D01*
X109205341Y-200053514D02*
X109912447Y-200760621D01*
X109912447Y-200760621D02*
X109575730Y-201097338D01*
X108161516Y-201097338D02*
X108733936Y-201198354D01*
X108565577Y-200693277D02*
X109272684Y-201400384D01*
X109272684Y-201400384D02*
X109003310Y-201669758D01*
X109003310Y-201669758D02*
X108902295Y-201703430D01*
X108902295Y-201703430D02*
X108834951Y-201703430D01*
X108834951Y-201703430D02*
X108733936Y-201669758D01*
X108733936Y-201669758D02*
X108632921Y-201568743D01*
X108632921Y-201568743D02*
X108599249Y-201467728D01*
X108599249Y-201467728D02*
X108599249Y-201400384D01*
X108599249Y-201400384D02*
X108632921Y-201299369D01*
X108632921Y-201299369D02*
X108902295Y-201029995D01*
X114485200Y-201346265D02*
X114437580Y-201489122D01*
X114437580Y-201489122D02*
X114437580Y-201727217D01*
X114437580Y-201727217D02*
X114485200Y-201822455D01*
X114485200Y-201822455D02*
X114532819Y-201870074D01*
X114532819Y-201870074D02*
X114628057Y-201917693D01*
X114628057Y-201917693D02*
X114723295Y-201917693D01*
X114723295Y-201917693D02*
X114818533Y-201870074D01*
X114818533Y-201870074D02*
X114866152Y-201822455D01*
X114866152Y-201822455D02*
X114913771Y-201727217D01*
X114913771Y-201727217D02*
X114961390Y-201536741D01*
X114961390Y-201536741D02*
X115009009Y-201441503D01*
X115009009Y-201441503D02*
X115056628Y-201393884D01*
X115056628Y-201393884D02*
X115151866Y-201346265D01*
X115151866Y-201346265D02*
X115247104Y-201346265D01*
X115247104Y-201346265D02*
X115342342Y-201393884D01*
X115342342Y-201393884D02*
X115389961Y-201441503D01*
X115389961Y-201441503D02*
X115437580Y-201536741D01*
X115437580Y-201536741D02*
X115437580Y-201774836D01*
X115437580Y-201774836D02*
X115389961Y-201917693D01*
X115437580Y-202203408D02*
X115437580Y-202774836D01*
X114437580Y-202489122D02*
X115437580Y-202489122D01*
X114437580Y-203108170D02*
X115437580Y-203108170D01*
X114961390Y-203917693D02*
X114961390Y-203584360D01*
X114437580Y-203584360D02*
X115437580Y-203584360D01*
X115437580Y-203584360D02*
X115437580Y-204060550D01*
X114961390Y-204774836D02*
X114961390Y-204441503D01*
X114437580Y-204441503D02*
X115437580Y-204441503D01*
X115437580Y-204441503D02*
X115437580Y-204917693D01*
X114961390Y-205298646D02*
X114961390Y-205631979D01*
X114437580Y-205774836D02*
X114437580Y-205298646D01*
X114437580Y-205298646D02*
X115437580Y-205298646D01*
X115437580Y-205298646D02*
X115437580Y-205774836D01*
X114437580Y-206203408D02*
X115437580Y-206203408D01*
X115437580Y-206203408D02*
X114437580Y-206774836D01*
X114437580Y-206774836D02*
X115437580Y-206774836D01*
X114961390Y-207251027D02*
X114961390Y-207584360D01*
X114437580Y-207727217D02*
X114437580Y-207251027D01*
X114437580Y-207251027D02*
X115437580Y-207251027D01*
X115437580Y-207251027D02*
X115437580Y-207727217D01*
X114437580Y-208727217D02*
X114913771Y-208393884D01*
X114437580Y-208155789D02*
X115437580Y-208155789D01*
X115437580Y-208155789D02*
X115437580Y-208536741D01*
X115437580Y-208536741D02*
X115389961Y-208631979D01*
X115389961Y-208631979D02*
X115342342Y-208679598D01*
X115342342Y-208679598D02*
X115247104Y-208727217D01*
X115247104Y-208727217D02*
X115104247Y-208727217D01*
X115104247Y-208727217D02*
X115009009Y-208679598D01*
X115009009Y-208679598D02*
X114961390Y-208631979D01*
X114961390Y-208631979D02*
X114913771Y-208536741D01*
X114913771Y-208536741D02*
X114913771Y-208155789D01*
X33166265Y-100804800D02*
X33309122Y-100852419D01*
X33309122Y-100852419D02*
X33547217Y-100852419D01*
X33547217Y-100852419D02*
X33642455Y-100804800D01*
X33642455Y-100804800D02*
X33690074Y-100757180D01*
X33690074Y-100757180D02*
X33737693Y-100661942D01*
X33737693Y-100661942D02*
X33737693Y-100566704D01*
X33737693Y-100566704D02*
X33690074Y-100471466D01*
X33690074Y-100471466D02*
X33642455Y-100423847D01*
X33642455Y-100423847D02*
X33547217Y-100376228D01*
X33547217Y-100376228D02*
X33356741Y-100328609D01*
X33356741Y-100328609D02*
X33261503Y-100280990D01*
X33261503Y-100280990D02*
X33213884Y-100233371D01*
X33213884Y-100233371D02*
X33166265Y-100138133D01*
X33166265Y-100138133D02*
X33166265Y-100042895D01*
X33166265Y-100042895D02*
X33213884Y-99947657D01*
X33213884Y-99947657D02*
X33261503Y-99900038D01*
X33261503Y-99900038D02*
X33356741Y-99852419D01*
X33356741Y-99852419D02*
X33594836Y-99852419D01*
X33594836Y-99852419D02*
X33737693Y-99900038D01*
X34023408Y-99852419D02*
X34594836Y-99852419D01*
X34309122Y-100852419D02*
X34309122Y-99852419D01*
X34928170Y-100852419D02*
X34928170Y-99852419D01*
X35737693Y-100328609D02*
X35404360Y-100328609D01*
X35404360Y-100852419D02*
X35404360Y-99852419D01*
X35404360Y-99852419D02*
X35880550Y-99852419D01*
X36594836Y-100328609D02*
X36261503Y-100328609D01*
X36261503Y-100852419D02*
X36261503Y-99852419D01*
X36261503Y-99852419D02*
X36737693Y-99852419D01*
X37118646Y-100328609D02*
X37451979Y-100328609D01*
X37594836Y-100852419D02*
X37118646Y-100852419D01*
X37118646Y-100852419D02*
X37118646Y-99852419D01*
X37118646Y-99852419D02*
X37594836Y-99852419D01*
X38023408Y-100852419D02*
X38023408Y-99852419D01*
X38023408Y-99852419D02*
X38594836Y-100852419D01*
X38594836Y-100852419D02*
X38594836Y-99852419D01*
X39071027Y-100328609D02*
X39404360Y-100328609D01*
X39547217Y-100852419D02*
X39071027Y-100852419D01*
X39071027Y-100852419D02*
X39071027Y-99852419D01*
X39071027Y-99852419D02*
X39547217Y-99852419D01*
X40547217Y-100852419D02*
X40213884Y-100376228D01*
X39975789Y-100852419D02*
X39975789Y-99852419D01*
X39975789Y-99852419D02*
X40356741Y-99852419D01*
X40356741Y-99852419D02*
X40451979Y-99900038D01*
X40451979Y-99900038D02*
X40499598Y-99947657D01*
X40499598Y-99947657D02*
X40547217Y-100042895D01*
X40547217Y-100042895D02*
X40547217Y-100185752D01*
X40547217Y-100185752D02*
X40499598Y-100280990D01*
X40499598Y-100280990D02*
X40451979Y-100328609D01*
X40451979Y-100328609D02*
X40356741Y-100376228D01*
X40356741Y-100376228D02*
X39975789Y-100376228D01*
D10*
X55539160Y-101072200D02*
X55682017Y-101119819D01*
X55682017Y-101119819D02*
X55920112Y-101119819D01*
X55920112Y-101119819D02*
X56015350Y-101072200D01*
X56015350Y-101072200D02*
X56062969Y-101024580D01*
X56062969Y-101024580D02*
X56110588Y-100929342D01*
X56110588Y-100929342D02*
X56110588Y-100834104D01*
X56110588Y-100834104D02*
X56062969Y-100738866D01*
X56062969Y-100738866D02*
X56015350Y-100691247D01*
X56015350Y-100691247D02*
X55920112Y-100643628D01*
X55920112Y-100643628D02*
X55729636Y-100596009D01*
X55729636Y-100596009D02*
X55634398Y-100548390D01*
X55634398Y-100548390D02*
X55586779Y-100500771D01*
X55586779Y-100500771D02*
X55539160Y-100405533D01*
X55539160Y-100405533D02*
X55539160Y-100310295D01*
X55539160Y-100310295D02*
X55586779Y-100215057D01*
X55586779Y-100215057D02*
X55634398Y-100167438D01*
X55634398Y-100167438D02*
X55729636Y-100119819D01*
X55729636Y-100119819D02*
X55967731Y-100119819D01*
X55967731Y-100119819D02*
X56110588Y-100167438D01*
X56396303Y-100119819D02*
X56967731Y-100119819D01*
X56682017Y-101119819D02*
X56682017Y-100119819D01*
X57301065Y-101119819D02*
X57301065Y-100119819D01*
X58110588Y-100596009D02*
X57777255Y-100596009D01*
X57777255Y-101119819D02*
X57777255Y-100119819D01*
X57777255Y-100119819D02*
X58253445Y-100119819D01*
X58967731Y-100596009D02*
X58634398Y-100596009D01*
X58634398Y-101119819D02*
X58634398Y-100119819D01*
X58634398Y-100119819D02*
X59110588Y-100119819D01*
X59491541Y-100596009D02*
X59824874Y-100596009D01*
X59967731Y-101119819D02*
X59491541Y-101119819D01*
X59491541Y-101119819D02*
X59491541Y-100119819D01*
X59491541Y-100119819D02*
X59967731Y-100119819D01*
X60396303Y-101119819D02*
X60396303Y-100119819D01*
X60396303Y-100119819D02*
X60967731Y-101119819D01*
X60967731Y-101119819D02*
X60967731Y-100119819D01*
X61443922Y-100596009D02*
X61777255Y-100596009D01*
X61920112Y-101119819D02*
X61443922Y-101119819D01*
X61443922Y-101119819D02*
X61443922Y-100119819D01*
X61443922Y-100119819D02*
X61920112Y-100119819D01*
X62920112Y-101119819D02*
X62586779Y-100643628D01*
X62348684Y-101119819D02*
X62348684Y-100119819D01*
X62348684Y-100119819D02*
X62729636Y-100119819D01*
X62729636Y-100119819D02*
X62824874Y-100167438D01*
X62824874Y-100167438D02*
X62872493Y-100215057D01*
X62872493Y-100215057D02*
X62920112Y-100310295D01*
X62920112Y-100310295D02*
X62920112Y-100453152D01*
X62920112Y-100453152D02*
X62872493Y-100548390D01*
X62872493Y-100548390D02*
X62824874Y-100596009D01*
X62824874Y-100596009D02*
X62729636Y-100643628D01*
X62729636Y-100643628D02*
X62348684Y-100643628D01*
D11*
X143785569Y-205081766D02*
X143718225Y-204947079D01*
X143718225Y-204947079D02*
X143549866Y-204778720D01*
X143549866Y-204778720D02*
X143448851Y-204745048D01*
X143448851Y-204745048D02*
X143381508Y-204745048D01*
X143381508Y-204745048D02*
X143280492Y-204778720D01*
X143280492Y-204778720D02*
X143213149Y-204846063D01*
X143213149Y-204846063D02*
X143179477Y-204947079D01*
X143179477Y-204947079D02*
X143179477Y-205014422D01*
X143179477Y-205014422D02*
X143213149Y-205115438D01*
X143213149Y-205115438D02*
X143314164Y-205283796D01*
X143314164Y-205283796D02*
X143347836Y-205384812D01*
X143347836Y-205384812D02*
X143347836Y-205452155D01*
X143347836Y-205452155D02*
X143314164Y-205553170D01*
X143314164Y-205553170D02*
X143246821Y-205620514D01*
X143246821Y-205620514D02*
X143145805Y-205654186D01*
X143145805Y-205654186D02*
X143078462Y-205654186D01*
X143078462Y-205654186D02*
X142977447Y-205620514D01*
X142977447Y-205620514D02*
X142809088Y-205452155D01*
X142809088Y-205452155D02*
X142741744Y-205317468D01*
X142506042Y-205149109D02*
X142101981Y-204745048D01*
X143011118Y-204239972D02*
X142304011Y-204947079D01*
X142573385Y-203802239D02*
X141866279Y-204509346D01*
X141630577Y-203600209D02*
X141866279Y-203835911D01*
X142236668Y-203465522D02*
X141529561Y-204172629D01*
X141529561Y-204172629D02*
X141192844Y-203835911D01*
X141024485Y-202994117D02*
X141260187Y-203229819D01*
X141630576Y-202859430D02*
X140923470Y-203566537D01*
X140923470Y-203566537D02*
X140586752Y-203229819D01*
X140654096Y-202623728D02*
X140418393Y-202388026D01*
X140687767Y-201916621D02*
X141024485Y-202253339D01*
X141024485Y-202253339D02*
X140317378Y-202960445D01*
X140317378Y-202960445D02*
X139980661Y-202623728D01*
X140384722Y-201613575D02*
X139677615Y-202320682D01*
X139677615Y-202320682D02*
X139980660Y-201209514D01*
X139980660Y-201209514D02*
X139273554Y-201916621D01*
X139273554Y-201243186D02*
X139037851Y-201007484D01*
X139307225Y-200536079D02*
X139643943Y-200872797D01*
X139643943Y-200872797D02*
X138936836Y-201579903D01*
X138936836Y-201579903D02*
X138600119Y-201243186D01*
X138600119Y-199828972D02*
X138499103Y-200401392D01*
X139004180Y-200233033D02*
X138297073Y-200940140D01*
X138297073Y-200940140D02*
X138027699Y-200670766D01*
X138027699Y-200670766D02*
X137994027Y-200569751D01*
X137994027Y-200569751D02*
X137994027Y-200502407D01*
X137994027Y-200502407D02*
X138027699Y-200401392D01*
X138027699Y-200401392D02*
X138128714Y-200300377D01*
X138128714Y-200300377D02*
X138229729Y-200266705D01*
X138229729Y-200266705D02*
X138297073Y-200266705D01*
X138297073Y-200266705D02*
X138398088Y-200300377D01*
X138398088Y-200300377D02*
X138667462Y-200569751D01*
X137253734Y-196915200D02*
X137110877Y-196867580D01*
X137110877Y-196867580D02*
X136872782Y-196867580D01*
X136872782Y-196867580D02*
X136777544Y-196915200D01*
X136777544Y-196915200D02*
X136729925Y-196962819D01*
X136729925Y-196962819D02*
X136682306Y-197058057D01*
X136682306Y-197058057D02*
X136682306Y-197153295D01*
X136682306Y-197153295D02*
X136729925Y-197248533D01*
X136729925Y-197248533D02*
X136777544Y-197296152D01*
X136777544Y-197296152D02*
X136872782Y-197343771D01*
X136872782Y-197343771D02*
X137063258Y-197391390D01*
X137063258Y-197391390D02*
X137158496Y-197439009D01*
X137158496Y-197439009D02*
X137206115Y-197486628D01*
X137206115Y-197486628D02*
X137253734Y-197581866D01*
X137253734Y-197581866D02*
X137253734Y-197677104D01*
X137253734Y-197677104D02*
X137206115Y-197772342D01*
X137206115Y-197772342D02*
X137158496Y-197819961D01*
X137158496Y-197819961D02*
X137063258Y-197867580D01*
X137063258Y-197867580D02*
X136825163Y-197867580D01*
X136825163Y-197867580D02*
X136682306Y-197819961D01*
X136396591Y-197867580D02*
X135825163Y-197867580D01*
X136110877Y-196867580D02*
X136110877Y-197867580D01*
X135491829Y-196867580D02*
X135491829Y-197867580D01*
X134682306Y-197391390D02*
X135015639Y-197391390D01*
X135015639Y-196867580D02*
X135015639Y-197867580D01*
X135015639Y-197867580D02*
X134539449Y-197867580D01*
X133825163Y-197391390D02*
X134158496Y-197391390D01*
X134158496Y-196867580D02*
X134158496Y-197867580D01*
X134158496Y-197867580D02*
X133682306Y-197867580D01*
X133301353Y-197391390D02*
X132968020Y-197391390D01*
X132825163Y-196867580D02*
X133301353Y-196867580D01*
X133301353Y-196867580D02*
X133301353Y-197867580D01*
X133301353Y-197867580D02*
X132825163Y-197867580D01*
X132396591Y-196867580D02*
X132396591Y-197867580D01*
X132396591Y-197867580D02*
X131825163Y-196867580D01*
X131825163Y-196867580D02*
X131825163Y-197867580D01*
X131348972Y-197391390D02*
X131015639Y-197391390D01*
X130872782Y-196867580D02*
X131348972Y-196867580D01*
X131348972Y-196867580D02*
X131348972Y-197867580D01*
X131348972Y-197867580D02*
X130872782Y-197867580D01*
X129872782Y-196867580D02*
X130206115Y-197343771D01*
X130444210Y-196867580D02*
X130444210Y-197867580D01*
X130444210Y-197867580D02*
X130063258Y-197867580D01*
X130063258Y-197867580D02*
X129968020Y-197819961D01*
X129968020Y-197819961D02*
X129920401Y-197772342D01*
X129920401Y-197772342D02*
X129872782Y-197677104D01*
X129872782Y-197677104D02*
X129872782Y-197534247D01*
X129872782Y-197534247D02*
X129920401Y-197439009D01*
X129920401Y-197439009D02*
X129968020Y-197391390D01*
X129968020Y-197391390D02*
X130063258Y-197343771D01*
X130063258Y-197343771D02*
X130444210Y-197343771D01*
D10*
X114282200Y-156900839D02*
X114329819Y-156757982D01*
X114329819Y-156757982D02*
X114329819Y-156519887D01*
X114329819Y-156519887D02*
X114282200Y-156424649D01*
X114282200Y-156424649D02*
X114234580Y-156377030D01*
X114234580Y-156377030D02*
X114139342Y-156329411D01*
X114139342Y-156329411D02*
X114044104Y-156329411D01*
X114044104Y-156329411D02*
X113948866Y-156377030D01*
X113948866Y-156377030D02*
X113901247Y-156424649D01*
X113901247Y-156424649D02*
X113853628Y-156519887D01*
X113853628Y-156519887D02*
X113806009Y-156710363D01*
X113806009Y-156710363D02*
X113758390Y-156805601D01*
X113758390Y-156805601D02*
X113710771Y-156853220D01*
X113710771Y-156853220D02*
X113615533Y-156900839D01*
X113615533Y-156900839D02*
X113520295Y-156900839D01*
X113520295Y-156900839D02*
X113425057Y-156853220D01*
X113425057Y-156853220D02*
X113377438Y-156805601D01*
X113377438Y-156805601D02*
X113329819Y-156710363D01*
X113329819Y-156710363D02*
X113329819Y-156472268D01*
X113329819Y-156472268D02*
X113377438Y-156329411D01*
X113329819Y-156043696D02*
X113329819Y-155472268D01*
X114329819Y-155757982D02*
X113329819Y-155757982D01*
X114329819Y-155138934D02*
X113329819Y-155138934D01*
X113806009Y-154329411D02*
X113806009Y-154662744D01*
X114329819Y-154662744D02*
X113329819Y-154662744D01*
X113329819Y-154662744D02*
X113329819Y-154186554D01*
X113806009Y-153472268D02*
X113806009Y-153805601D01*
X114329819Y-153805601D02*
X113329819Y-153805601D01*
X113329819Y-153805601D02*
X113329819Y-153329411D01*
X113806009Y-152948458D02*
X113806009Y-152615125D01*
X114329819Y-152472268D02*
X114329819Y-152948458D01*
X114329819Y-152948458D02*
X113329819Y-152948458D01*
X113329819Y-152948458D02*
X113329819Y-152472268D01*
X114329819Y-152043696D02*
X113329819Y-152043696D01*
X113329819Y-152043696D02*
X114329819Y-151472268D01*
X114329819Y-151472268D02*
X113329819Y-151472268D01*
X113806009Y-150996077D02*
X113806009Y-150662744D01*
X114329819Y-150519887D02*
X114329819Y-150996077D01*
X114329819Y-150996077D02*
X113329819Y-150996077D01*
X113329819Y-150996077D02*
X113329819Y-150519887D01*
X114329819Y-149519887D02*
X113853628Y-149853220D01*
X114329819Y-150091315D02*
X113329819Y-150091315D01*
X113329819Y-150091315D02*
X113329819Y-149710363D01*
X113329819Y-149710363D02*
X113377438Y-149615125D01*
X113377438Y-149615125D02*
X113425057Y-149567506D01*
X113425057Y-149567506D02*
X113520295Y-149519887D01*
X113520295Y-149519887D02*
X113663152Y-149519887D01*
X113663152Y-149519887D02*
X113758390Y-149567506D01*
X113758390Y-149567506D02*
X113806009Y-149615125D01*
X113806009Y-149615125D02*
X113853628Y-149710363D01*
X113853628Y-149710363D02*
X113853628Y-150091315D01*
X115289160Y-166822200D02*
X115432017Y-166869819D01*
X115432017Y-166869819D02*
X115670112Y-166869819D01*
X115670112Y-166869819D02*
X115765350Y-166822200D01*
X115765350Y-166822200D02*
X115812969Y-166774580D01*
X115812969Y-166774580D02*
X115860588Y-166679342D01*
X115860588Y-166679342D02*
X115860588Y-166584104D01*
X115860588Y-166584104D02*
X115812969Y-166488866D01*
X115812969Y-166488866D02*
X115765350Y-166441247D01*
X115765350Y-166441247D02*
X115670112Y-166393628D01*
X115670112Y-166393628D02*
X115479636Y-166346009D01*
X115479636Y-166346009D02*
X115384398Y-166298390D01*
X115384398Y-166298390D02*
X115336779Y-166250771D01*
X115336779Y-166250771D02*
X115289160Y-166155533D01*
X115289160Y-166155533D02*
X115289160Y-166060295D01*
X115289160Y-166060295D02*
X115336779Y-165965057D01*
X115336779Y-165965057D02*
X115384398Y-165917438D01*
X115384398Y-165917438D02*
X115479636Y-165869819D01*
X115479636Y-165869819D02*
X115717731Y-165869819D01*
X115717731Y-165869819D02*
X115860588Y-165917438D01*
X116146303Y-165869819D02*
X116717731Y-165869819D01*
X116432017Y-166869819D02*
X116432017Y-165869819D01*
X117051065Y-166869819D02*
X117051065Y-165869819D01*
X117860588Y-166346009D02*
X117527255Y-166346009D01*
X117527255Y-166869819D02*
X117527255Y-165869819D01*
X117527255Y-165869819D02*
X118003445Y-165869819D01*
X118717731Y-166346009D02*
X118384398Y-166346009D01*
X118384398Y-166869819D02*
X118384398Y-165869819D01*
X118384398Y-165869819D02*
X118860588Y-165869819D01*
X119241541Y-166346009D02*
X119574874Y-166346009D01*
X119717731Y-166869819D02*
X119241541Y-166869819D01*
X119241541Y-166869819D02*
X119241541Y-165869819D01*
X119241541Y-165869819D02*
X119717731Y-165869819D01*
X120146303Y-166869819D02*
X120146303Y-165869819D01*
X120146303Y-165869819D02*
X120717731Y-166869819D01*
X120717731Y-166869819D02*
X120717731Y-165869819D01*
X121193922Y-166346009D02*
X121527255Y-166346009D01*
X121670112Y-166869819D02*
X121193922Y-166869819D01*
X121193922Y-166869819D02*
X121193922Y-165869819D01*
X121193922Y-165869819D02*
X121670112Y-165869819D01*
X122670112Y-166869819D02*
X122336779Y-166393628D01*
X122098684Y-166869819D02*
X122098684Y-165869819D01*
X122098684Y-165869819D02*
X122479636Y-165869819D01*
X122479636Y-165869819D02*
X122574874Y-165917438D01*
X122574874Y-165917438D02*
X122622493Y-165965057D01*
X122622493Y-165965057D02*
X122670112Y-166060295D01*
X122670112Y-166060295D02*
X122670112Y-166203152D01*
X122670112Y-166203152D02*
X122622493Y-166298390D01*
X122622493Y-166298390D02*
X122574874Y-166346009D01*
X122574874Y-166346009D02*
X122479636Y-166393628D01*
X122479636Y-166393628D02*
X122098684Y-166393628D01*
D11*
X133936265Y-35874800D02*
X134079122Y-35922419D01*
X134079122Y-35922419D02*
X134317217Y-35922419D01*
X134317217Y-35922419D02*
X134412455Y-35874800D01*
X134412455Y-35874800D02*
X134460074Y-35827180D01*
X134460074Y-35827180D02*
X134507693Y-35731942D01*
X134507693Y-35731942D02*
X134507693Y-35636704D01*
X134507693Y-35636704D02*
X134460074Y-35541466D01*
X134460074Y-35541466D02*
X134412455Y-35493847D01*
X134412455Y-35493847D02*
X134317217Y-35446228D01*
X134317217Y-35446228D02*
X134126741Y-35398609D01*
X134126741Y-35398609D02*
X134031503Y-35350990D01*
X134031503Y-35350990D02*
X133983884Y-35303371D01*
X133983884Y-35303371D02*
X133936265Y-35208133D01*
X133936265Y-35208133D02*
X133936265Y-35112895D01*
X133936265Y-35112895D02*
X133983884Y-35017657D01*
X133983884Y-35017657D02*
X134031503Y-34970038D01*
X134031503Y-34970038D02*
X134126741Y-34922419D01*
X134126741Y-34922419D02*
X134364836Y-34922419D01*
X134364836Y-34922419D02*
X134507693Y-34970038D01*
X134793408Y-34922419D02*
X135364836Y-34922419D01*
X135079122Y-35922419D02*
X135079122Y-34922419D01*
X135698170Y-35922419D02*
X135698170Y-34922419D01*
X136507693Y-35398609D02*
X136174360Y-35398609D01*
X136174360Y-35922419D02*
X136174360Y-34922419D01*
X136174360Y-34922419D02*
X136650550Y-34922419D01*
X137364836Y-35398609D02*
X137031503Y-35398609D01*
X137031503Y-35922419D02*
X137031503Y-34922419D01*
X137031503Y-34922419D02*
X137507693Y-34922419D01*
X137888646Y-35398609D02*
X138221979Y-35398609D01*
X138364836Y-35922419D02*
X137888646Y-35922419D01*
X137888646Y-35922419D02*
X137888646Y-34922419D01*
X137888646Y-34922419D02*
X138364836Y-34922419D01*
X138793408Y-35922419D02*
X138793408Y-34922419D01*
X138793408Y-34922419D02*
X139364836Y-35922419D01*
X139364836Y-35922419D02*
X139364836Y-34922419D01*
X139841027Y-35398609D02*
X140174360Y-35398609D01*
X140317217Y-35922419D02*
X139841027Y-35922419D01*
X139841027Y-35922419D02*
X139841027Y-34922419D01*
X139841027Y-34922419D02*
X140317217Y-34922419D01*
X141317217Y-35922419D02*
X140983884Y-35446228D01*
X140745789Y-35922419D02*
X140745789Y-34922419D01*
X140745789Y-34922419D02*
X141126741Y-34922419D01*
X141126741Y-34922419D02*
X141221979Y-34970038D01*
X141221979Y-34970038D02*
X141269598Y-35017657D01*
X141269598Y-35017657D02*
X141317217Y-35112895D01*
X141317217Y-35112895D02*
X141317217Y-35255752D01*
X141317217Y-35255752D02*
X141269598Y-35350990D01*
X141269598Y-35350990D02*
X141221979Y-35398609D01*
X141221979Y-35398609D02*
X141126741Y-35446228D01*
X141126741Y-35446228D02*
X140745789Y-35446228D01*
D10*
X79289160Y-120322200D02*
X79432017Y-120369819D01*
X79432017Y-120369819D02*
X79670112Y-120369819D01*
X79670112Y-120369819D02*
X79765350Y-120322200D01*
X79765350Y-120322200D02*
X79812969Y-120274580D01*
X79812969Y-120274580D02*
X79860588Y-120179342D01*
X79860588Y-120179342D02*
X79860588Y-120084104D01*
X79860588Y-120084104D02*
X79812969Y-119988866D01*
X79812969Y-119988866D02*
X79765350Y-119941247D01*
X79765350Y-119941247D02*
X79670112Y-119893628D01*
X79670112Y-119893628D02*
X79479636Y-119846009D01*
X79479636Y-119846009D02*
X79384398Y-119798390D01*
X79384398Y-119798390D02*
X79336779Y-119750771D01*
X79336779Y-119750771D02*
X79289160Y-119655533D01*
X79289160Y-119655533D02*
X79289160Y-119560295D01*
X79289160Y-119560295D02*
X79336779Y-119465057D01*
X79336779Y-119465057D02*
X79384398Y-119417438D01*
X79384398Y-119417438D02*
X79479636Y-119369819D01*
X79479636Y-119369819D02*
X79717731Y-119369819D01*
X79717731Y-119369819D02*
X79860588Y-119417438D01*
X80146303Y-119369819D02*
X80717731Y-119369819D01*
X80432017Y-120369819D02*
X80432017Y-119369819D01*
X81051065Y-120369819D02*
X81051065Y-119369819D01*
X81860588Y-119846009D02*
X81527255Y-119846009D01*
X81527255Y-120369819D02*
X81527255Y-119369819D01*
X81527255Y-119369819D02*
X82003445Y-119369819D01*
X82717731Y-119846009D02*
X82384398Y-119846009D01*
X82384398Y-120369819D02*
X82384398Y-119369819D01*
X82384398Y-119369819D02*
X82860588Y-119369819D01*
X83241541Y-119846009D02*
X83574874Y-119846009D01*
X83717731Y-120369819D02*
X83241541Y-120369819D01*
X83241541Y-120369819D02*
X83241541Y-119369819D01*
X83241541Y-119369819D02*
X83717731Y-119369819D01*
X84146303Y-120369819D02*
X84146303Y-119369819D01*
X84146303Y-119369819D02*
X84717731Y-120369819D01*
X84717731Y-120369819D02*
X84717731Y-119369819D01*
X85193922Y-119846009D02*
X85527255Y-119846009D01*
X85670112Y-120369819D02*
X85193922Y-120369819D01*
X85193922Y-120369819D02*
X85193922Y-119369819D01*
X85193922Y-119369819D02*
X85670112Y-119369819D01*
X86670112Y-120369819D02*
X86336779Y-119893628D01*
X86098684Y-120369819D02*
X86098684Y-119369819D01*
X86098684Y-119369819D02*
X86479636Y-119369819D01*
X86479636Y-119369819D02*
X86574874Y-119417438D01*
X86574874Y-119417438D02*
X86622493Y-119465057D01*
X86622493Y-119465057D02*
X86670112Y-119560295D01*
X86670112Y-119560295D02*
X86670112Y-119703152D01*
X86670112Y-119703152D02*
X86622493Y-119798390D01*
X86622493Y-119798390D02*
X86574874Y-119846009D01*
X86574874Y-119846009D02*
X86479636Y-119893628D01*
X86479636Y-119893628D02*
X86098684Y-119893628D01*
X58240600Y-189160679D02*
X58353268Y-189060771D01*
X58353268Y-189060771D02*
X58472316Y-188854575D01*
X58472316Y-188854575D02*
X58478696Y-188748286D01*
X58478696Y-188748286D02*
X58461266Y-188683238D01*
X58461266Y-188683238D02*
X58402597Y-188594379D01*
X58402597Y-188594379D02*
X58320118Y-188546760D01*
X58320118Y-188546760D02*
X58213830Y-188540380D01*
X58213830Y-188540380D02*
X58148781Y-188557810D01*
X58148781Y-188557810D02*
X58059923Y-188616479D01*
X58059923Y-188616479D02*
X57923445Y-188757627D01*
X57923445Y-188757627D02*
X57834587Y-188816296D01*
X57834587Y-188816296D02*
X57769538Y-188833726D01*
X57769538Y-188833726D02*
X57663250Y-188827346D01*
X57663250Y-188827346D02*
X57580771Y-188779727D01*
X57580771Y-188779727D02*
X57522102Y-188690869D01*
X57522102Y-188690869D02*
X57504673Y-188625820D01*
X57504673Y-188625820D02*
X57511052Y-188519532D01*
X57511052Y-188519532D02*
X57630100Y-188313335D01*
X57630100Y-188313335D02*
X57742768Y-188213427D01*
X57844386Y-187942181D02*
X58130100Y-187447310D01*
X58853268Y-188194746D02*
X57987243Y-187694746D01*
X59162792Y-187658634D02*
X58296767Y-187158634D01*
X59113921Y-186695662D02*
X58947255Y-186984337D01*
X59400887Y-187246242D02*
X58534862Y-186746242D01*
X58534862Y-186746242D02*
X58772957Y-186333849D01*
X59542493Y-185953354D02*
X59375826Y-186242029D01*
X59829459Y-186503934D02*
X58963433Y-186003934D01*
X58963433Y-186003934D02*
X59201528Y-185591541D01*
X59804398Y-185499722D02*
X59971064Y-185211047D01*
X60496125Y-185349234D02*
X60258030Y-185761627D01*
X60258030Y-185761627D02*
X59392005Y-185261627D01*
X59392005Y-185261627D02*
X59630100Y-184849234D01*
X60710411Y-184978080D02*
X59844386Y-184478080D01*
X59844386Y-184478080D02*
X60996125Y-184483208D01*
X60996125Y-184483208D02*
X60130100Y-183983208D01*
X60780588Y-183808910D02*
X60947255Y-183520235D01*
X61472316Y-183658422D02*
X61234221Y-184070815D01*
X61234221Y-184070815D02*
X60368195Y-183570815D01*
X60368195Y-183570815D02*
X60606290Y-183158422D01*
X61972316Y-182792396D02*
X61393256Y-182842976D01*
X61686602Y-183287268D02*
X60820576Y-182787268D01*
X60820576Y-182787268D02*
X61011052Y-182457354D01*
X61011052Y-182457354D02*
X61099911Y-182398685D01*
X61099911Y-182398685D02*
X61164960Y-182381255D01*
X61164960Y-182381255D02*
X61271248Y-182387635D01*
X61271248Y-182387635D02*
X61394966Y-182459063D01*
X61394966Y-182459063D02*
X61453635Y-182547922D01*
X61453635Y-182547922D02*
X61471064Y-182612970D01*
X61471064Y-182612970D02*
X61464685Y-182719258D01*
X61464685Y-182719258D02*
X61274209Y-183049173D01*
X104539160Y-91822200D02*
X104682017Y-91869819D01*
X104682017Y-91869819D02*
X104920112Y-91869819D01*
X104920112Y-91869819D02*
X105015350Y-91822200D01*
X105015350Y-91822200D02*
X105062969Y-91774580D01*
X105062969Y-91774580D02*
X105110588Y-91679342D01*
X105110588Y-91679342D02*
X105110588Y-91584104D01*
X105110588Y-91584104D02*
X105062969Y-91488866D01*
X105062969Y-91488866D02*
X105015350Y-91441247D01*
X105015350Y-91441247D02*
X104920112Y-91393628D01*
X104920112Y-91393628D02*
X104729636Y-91346009D01*
X104729636Y-91346009D02*
X104634398Y-91298390D01*
X104634398Y-91298390D02*
X104586779Y-91250771D01*
X104586779Y-91250771D02*
X104539160Y-91155533D01*
X104539160Y-91155533D02*
X104539160Y-91060295D01*
X104539160Y-91060295D02*
X104586779Y-90965057D01*
X104586779Y-90965057D02*
X104634398Y-90917438D01*
X104634398Y-90917438D02*
X104729636Y-90869819D01*
X104729636Y-90869819D02*
X104967731Y-90869819D01*
X104967731Y-90869819D02*
X105110588Y-90917438D01*
X105396303Y-90869819D02*
X105967731Y-90869819D01*
X105682017Y-91869819D02*
X105682017Y-90869819D01*
X106301065Y-91869819D02*
X106301065Y-90869819D01*
X107110588Y-91346009D02*
X106777255Y-91346009D01*
X106777255Y-91869819D02*
X106777255Y-90869819D01*
X106777255Y-90869819D02*
X107253445Y-90869819D01*
X107967731Y-91346009D02*
X107634398Y-91346009D01*
X107634398Y-91869819D02*
X107634398Y-90869819D01*
X107634398Y-90869819D02*
X108110588Y-90869819D01*
X108491541Y-91346009D02*
X108824874Y-91346009D01*
X108967731Y-91869819D02*
X108491541Y-91869819D01*
X108491541Y-91869819D02*
X108491541Y-90869819D01*
X108491541Y-90869819D02*
X108967731Y-90869819D01*
X109396303Y-91869819D02*
X109396303Y-90869819D01*
X109396303Y-90869819D02*
X109967731Y-91869819D01*
X109967731Y-91869819D02*
X109967731Y-90869819D01*
X110443922Y-91346009D02*
X110777255Y-91346009D01*
X110920112Y-91869819D02*
X110443922Y-91869819D01*
X110443922Y-91869819D02*
X110443922Y-90869819D01*
X110443922Y-90869819D02*
X110920112Y-90869819D01*
X111920112Y-91869819D02*
X111586779Y-91393628D01*
X111348684Y-91869819D02*
X111348684Y-90869819D01*
X111348684Y-90869819D02*
X111729636Y-90869819D01*
X111729636Y-90869819D02*
X111824874Y-90917438D01*
X111824874Y-90917438D02*
X111872493Y-90965057D01*
X111872493Y-90965057D02*
X111920112Y-91060295D01*
X111920112Y-91060295D02*
X111920112Y-91203152D01*
X111920112Y-91203152D02*
X111872493Y-91298390D01*
X111872493Y-91298390D02*
X111824874Y-91346009D01*
X111824874Y-91346009D02*
X111729636Y-91393628D01*
X111729636Y-91393628D02*
X111348684Y-91393628D01*
X109846537Y-40236024D02*
X109981224Y-40168680D01*
X109981224Y-40168680D02*
X110149583Y-40000322D01*
X110149583Y-40000322D02*
X110183255Y-39899306D01*
X110183255Y-39899306D02*
X110183255Y-39831963D01*
X110183255Y-39831963D02*
X110149583Y-39730948D01*
X110149583Y-39730948D02*
X110082239Y-39663604D01*
X110082239Y-39663604D02*
X109981224Y-39629932D01*
X109981224Y-39629932D02*
X109913881Y-39629932D01*
X109913881Y-39629932D02*
X109812865Y-39663604D01*
X109812865Y-39663604D02*
X109644507Y-39764619D01*
X109644507Y-39764619D02*
X109543491Y-39798291D01*
X109543491Y-39798291D02*
X109476148Y-39798291D01*
X109476148Y-39798291D02*
X109375133Y-39764619D01*
X109375133Y-39764619D02*
X109307789Y-39697276D01*
X109307789Y-39697276D02*
X109274117Y-39596261D01*
X109274117Y-39596261D02*
X109274117Y-39528917D01*
X109274117Y-39528917D02*
X109307789Y-39427902D01*
X109307789Y-39427902D02*
X109476148Y-39259543D01*
X109476148Y-39259543D02*
X109610835Y-39192199D01*
X109779194Y-38956497D02*
X110183255Y-38552436D01*
X110688331Y-39461573D02*
X109981224Y-38754467D01*
X111126064Y-39023841D02*
X110418957Y-38316734D01*
X111328094Y-38081032D02*
X111092392Y-38316734D01*
X111462781Y-38687123D02*
X110755674Y-37980017D01*
X110755674Y-37980017D02*
X111092392Y-37643299D01*
X111934186Y-37474940D02*
X111698483Y-37710642D01*
X112068873Y-38081032D02*
X111361766Y-37373925D01*
X111361766Y-37373925D02*
X111698483Y-37037207D01*
X112304575Y-37104551D02*
X112540277Y-36868849D01*
X113011682Y-37138223D02*
X112674964Y-37474940D01*
X112674964Y-37474940D02*
X111967857Y-36767833D01*
X111967857Y-36767833D02*
X112304575Y-36431116D01*
X113314728Y-36835177D02*
X112607621Y-36128070D01*
X112607621Y-36128070D02*
X113718789Y-36431116D01*
X113718789Y-36431116D02*
X113011682Y-35724009D01*
X113685117Y-35724009D02*
X113920819Y-35488307D01*
X114392224Y-35757681D02*
X114055506Y-36094398D01*
X114055506Y-36094398D02*
X113348399Y-35387291D01*
X113348399Y-35387291D02*
X113685117Y-35050574D01*
X115099330Y-35050574D02*
X114526911Y-34949559D01*
X114695269Y-35454635D02*
X113988163Y-34747528D01*
X113988163Y-34747528D02*
X114257537Y-34478154D01*
X114257537Y-34478154D02*
X114358552Y-34444482D01*
X114358552Y-34444482D02*
X114425895Y-34444482D01*
X114425895Y-34444482D02*
X114526911Y-34478154D01*
X114526911Y-34478154D02*
X114627926Y-34579169D01*
X114627926Y-34579169D02*
X114661598Y-34680185D01*
X114661598Y-34680185D02*
X114661598Y-34747528D01*
X114661598Y-34747528D02*
X114627926Y-34848543D01*
X114627926Y-34848543D02*
X114358552Y-35117917D01*
X34536083Y-119054982D02*
X34468739Y-118920295D01*
X34468739Y-118920295D02*
X34300381Y-118751936D01*
X34300381Y-118751936D02*
X34199365Y-118718264D01*
X34199365Y-118718264D02*
X34132022Y-118718264D01*
X34132022Y-118718264D02*
X34031007Y-118751936D01*
X34031007Y-118751936D02*
X33963663Y-118819280D01*
X33963663Y-118819280D02*
X33929991Y-118920295D01*
X33929991Y-118920295D02*
X33929991Y-118987638D01*
X33929991Y-118987638D02*
X33963663Y-119088654D01*
X33963663Y-119088654D02*
X34064678Y-119257012D01*
X34064678Y-119257012D02*
X34098350Y-119358028D01*
X34098350Y-119358028D02*
X34098350Y-119425371D01*
X34098350Y-119425371D02*
X34064678Y-119526386D01*
X34064678Y-119526386D02*
X33997335Y-119593730D01*
X33997335Y-119593730D02*
X33896320Y-119627402D01*
X33896320Y-119627402D02*
X33828976Y-119627402D01*
X33828976Y-119627402D02*
X33727961Y-119593730D01*
X33727961Y-119593730D02*
X33559602Y-119425371D01*
X33559602Y-119425371D02*
X33492258Y-119290684D01*
X33256556Y-119122325D02*
X32852495Y-118718264D01*
X33761632Y-118213188D02*
X33054526Y-118920295D01*
X33323900Y-117775455D02*
X32616793Y-118482562D01*
X32381091Y-117573425D02*
X32616793Y-117809127D01*
X32987182Y-117438738D02*
X32280076Y-118145845D01*
X32280076Y-118145845D02*
X31943358Y-117809127D01*
X31774999Y-116967333D02*
X32010701Y-117203036D01*
X32381091Y-116832646D02*
X31673984Y-117539753D01*
X31673984Y-117539753D02*
X31337266Y-117203036D01*
X31404610Y-116596944D02*
X31168908Y-116361242D01*
X31438282Y-115889837D02*
X31774999Y-116226555D01*
X31774999Y-116226555D02*
X31067892Y-116933662D01*
X31067892Y-116933662D02*
X30731175Y-116596944D01*
X31135236Y-115586791D02*
X30428129Y-116293898D01*
X30428129Y-116293898D02*
X30731175Y-115182730D01*
X30731175Y-115182730D02*
X30024068Y-115889837D01*
X30024068Y-115216402D02*
X29788366Y-114980700D01*
X30057740Y-114509295D02*
X30394457Y-114846013D01*
X30394457Y-114846013D02*
X29687350Y-115553120D01*
X29687350Y-115553120D02*
X29350633Y-115216402D01*
X29350633Y-113802189D02*
X29249618Y-114374608D01*
X29754694Y-114206250D02*
X29047587Y-114913356D01*
X29047587Y-114913356D02*
X28778213Y-114643982D01*
X28778213Y-114643982D02*
X28744541Y-114542967D01*
X28744541Y-114542967D02*
X28744541Y-114475624D01*
X28744541Y-114475624D02*
X28778213Y-114374608D01*
X28778213Y-114374608D02*
X28879228Y-114273593D01*
X28879228Y-114273593D02*
X28980244Y-114239921D01*
X28980244Y-114239921D02*
X29047587Y-114239921D01*
X29047587Y-114239921D02*
X29148602Y-114273593D01*
X29148602Y-114273593D02*
X29417976Y-114542967D01*
X144862641Y-54105955D02*
X144929985Y-54240642D01*
X144929985Y-54240642D02*
X145098343Y-54409001D01*
X145098343Y-54409001D02*
X145199359Y-54442673D01*
X145199359Y-54442673D02*
X145266702Y-54442673D01*
X145266702Y-54442673D02*
X145367717Y-54409001D01*
X145367717Y-54409001D02*
X145435061Y-54341657D01*
X145435061Y-54341657D02*
X145468733Y-54240642D01*
X145468733Y-54240642D02*
X145468733Y-54173299D01*
X145468733Y-54173299D02*
X145435061Y-54072283D01*
X145435061Y-54072283D02*
X145334046Y-53903925D01*
X145334046Y-53903925D02*
X145300374Y-53802909D01*
X145300374Y-53802909D02*
X145300374Y-53735566D01*
X145300374Y-53735566D02*
X145334046Y-53634551D01*
X145334046Y-53634551D02*
X145401389Y-53567207D01*
X145401389Y-53567207D02*
X145502404Y-53533535D01*
X145502404Y-53533535D02*
X145569748Y-53533535D01*
X145569748Y-53533535D02*
X145670763Y-53567207D01*
X145670763Y-53567207D02*
X145839122Y-53735566D01*
X145839122Y-53735566D02*
X145906466Y-53870253D01*
X146142168Y-54038612D02*
X146546229Y-54442673D01*
X145637092Y-54947749D02*
X146344198Y-54240642D01*
X146074824Y-55385482D02*
X146781931Y-54678375D01*
X147017633Y-55587512D02*
X146781931Y-55351810D01*
X146411542Y-55722199D02*
X147118648Y-55015092D01*
X147118648Y-55015092D02*
X147455366Y-55351810D01*
X147623725Y-56193604D02*
X147388023Y-55957901D01*
X147017633Y-56328291D02*
X147724740Y-55621184D01*
X147724740Y-55621184D02*
X148061458Y-55957901D01*
X147994114Y-56563993D02*
X148229816Y-56799695D01*
X147960442Y-57271100D02*
X147623725Y-56934382D01*
X147623725Y-56934382D02*
X148330832Y-56227275D01*
X148330832Y-56227275D02*
X148667549Y-56563993D01*
X148263488Y-57574146D02*
X148970595Y-56867039D01*
X148970595Y-56867039D02*
X148667549Y-57978207D01*
X148667549Y-57978207D02*
X149374656Y-57271100D01*
X149374656Y-57944535D02*
X149610358Y-58180237D01*
X149340984Y-58651642D02*
X149004267Y-58314924D01*
X149004267Y-58314924D02*
X149711374Y-57607817D01*
X149711374Y-57607817D02*
X150048091Y-57944535D01*
X150048091Y-59358748D02*
X150149106Y-58786329D01*
X149644030Y-58954687D02*
X150351137Y-58247581D01*
X150351137Y-58247581D02*
X150620511Y-58516955D01*
X150620511Y-58516955D02*
X150654183Y-58617970D01*
X150654183Y-58617970D02*
X150654183Y-58685313D01*
X150654183Y-58685313D02*
X150620511Y-58786329D01*
X150620511Y-58786329D02*
X150519496Y-58887344D01*
X150519496Y-58887344D02*
X150418480Y-58921016D01*
X150418480Y-58921016D02*
X150351137Y-58921016D01*
X150351137Y-58921016D02*
X150250122Y-58887344D01*
X150250122Y-58887344D02*
X149980748Y-58617970D01*
X75383924Y-52975078D02*
X75316580Y-52840391D01*
X75316580Y-52840391D02*
X75148222Y-52672032D01*
X75148222Y-52672032D02*
X75047206Y-52638360D01*
X75047206Y-52638360D02*
X74979863Y-52638360D01*
X74979863Y-52638360D02*
X74878848Y-52672032D01*
X74878848Y-52672032D02*
X74811504Y-52739376D01*
X74811504Y-52739376D02*
X74777832Y-52840391D01*
X74777832Y-52840391D02*
X74777832Y-52907734D01*
X74777832Y-52907734D02*
X74811504Y-53008750D01*
X74811504Y-53008750D02*
X74912519Y-53177108D01*
X74912519Y-53177108D02*
X74946191Y-53278124D01*
X74946191Y-53278124D02*
X74946191Y-53345467D01*
X74946191Y-53345467D02*
X74912519Y-53446482D01*
X74912519Y-53446482D02*
X74845176Y-53513826D01*
X74845176Y-53513826D02*
X74744161Y-53547498D01*
X74744161Y-53547498D02*
X74676817Y-53547498D01*
X74676817Y-53547498D02*
X74575802Y-53513826D01*
X74575802Y-53513826D02*
X74407443Y-53345467D01*
X74407443Y-53345467D02*
X74340099Y-53210780D01*
X74104397Y-53042421D02*
X73700336Y-52638360D01*
X74609473Y-52133284D02*
X73902367Y-52840391D01*
X74171741Y-51695551D02*
X73464634Y-52402658D01*
X73228932Y-51493521D02*
X73464634Y-51729223D01*
X73835023Y-51358834D02*
X73127917Y-52065941D01*
X73127917Y-52065941D02*
X72791199Y-51729223D01*
X72622840Y-50887429D02*
X72858542Y-51123132D01*
X73228932Y-50752742D02*
X72521825Y-51459849D01*
X72521825Y-51459849D02*
X72185107Y-51123132D01*
X72252451Y-50517040D02*
X72016749Y-50281338D01*
X72286123Y-49809933D02*
X72622840Y-50146651D01*
X72622840Y-50146651D02*
X71915733Y-50853758D01*
X71915733Y-50853758D02*
X71579016Y-50517040D01*
X71983077Y-49506887D02*
X71275970Y-50213994D01*
X71275970Y-50213994D02*
X71579016Y-49102826D01*
X71579016Y-49102826D02*
X70871909Y-49809933D01*
X70871909Y-49136498D02*
X70636207Y-48900796D01*
X70905581Y-48429391D02*
X71242298Y-48766109D01*
X71242298Y-48766109D02*
X70535191Y-49473216D01*
X70535191Y-49473216D02*
X70198474Y-49136498D01*
X70198474Y-47722285D02*
X70097459Y-48294704D01*
X70602535Y-48126346D02*
X69895428Y-48833452D01*
X69895428Y-48833452D02*
X69626054Y-48564078D01*
X69626054Y-48564078D02*
X69592382Y-48463063D01*
X69592382Y-48463063D02*
X69592382Y-48395720D01*
X69592382Y-48395720D02*
X69626054Y-48294704D01*
X69626054Y-48294704D02*
X69727069Y-48193689D01*
X69727069Y-48193689D02*
X69828085Y-48160017D01*
X69828085Y-48160017D02*
X69895428Y-48160017D01*
X69895428Y-48160017D02*
X69996443Y-48193689D01*
X69996443Y-48193689D02*
X70265817Y-48463063D01*
X157039160Y-102572200D02*
X157182017Y-102619819D01*
X157182017Y-102619819D02*
X157420112Y-102619819D01*
X157420112Y-102619819D02*
X157515350Y-102572200D01*
X157515350Y-102572200D02*
X157562969Y-102524580D01*
X157562969Y-102524580D02*
X157610588Y-102429342D01*
X157610588Y-102429342D02*
X157610588Y-102334104D01*
X157610588Y-102334104D02*
X157562969Y-102238866D01*
X157562969Y-102238866D02*
X157515350Y-102191247D01*
X157515350Y-102191247D02*
X157420112Y-102143628D01*
X157420112Y-102143628D02*
X157229636Y-102096009D01*
X157229636Y-102096009D02*
X157134398Y-102048390D01*
X157134398Y-102048390D02*
X157086779Y-102000771D01*
X157086779Y-102000771D02*
X157039160Y-101905533D01*
X157039160Y-101905533D02*
X157039160Y-101810295D01*
X157039160Y-101810295D02*
X157086779Y-101715057D01*
X157086779Y-101715057D02*
X157134398Y-101667438D01*
X157134398Y-101667438D02*
X157229636Y-101619819D01*
X157229636Y-101619819D02*
X157467731Y-101619819D01*
X157467731Y-101619819D02*
X157610588Y-101667438D01*
X157896303Y-101619819D02*
X158467731Y-101619819D01*
X158182017Y-102619819D02*
X158182017Y-101619819D01*
X158801065Y-102619819D02*
X158801065Y-101619819D01*
X159610588Y-102096009D02*
X159277255Y-102096009D01*
X159277255Y-102619819D02*
X159277255Y-101619819D01*
X159277255Y-101619819D02*
X159753445Y-101619819D01*
X160467731Y-102096009D02*
X160134398Y-102096009D01*
X160134398Y-102619819D02*
X160134398Y-101619819D01*
X160134398Y-101619819D02*
X160610588Y-101619819D01*
X160991541Y-102096009D02*
X161324874Y-102096009D01*
X161467731Y-102619819D02*
X160991541Y-102619819D01*
X160991541Y-102619819D02*
X160991541Y-101619819D01*
X160991541Y-101619819D02*
X161467731Y-101619819D01*
X161896303Y-102619819D02*
X161896303Y-101619819D01*
X161896303Y-101619819D02*
X162467731Y-102619819D01*
X162467731Y-102619819D02*
X162467731Y-101619819D01*
X162943922Y-102096009D02*
X163277255Y-102096009D01*
X163420112Y-102619819D02*
X162943922Y-102619819D01*
X162943922Y-102619819D02*
X162943922Y-101619819D01*
X162943922Y-101619819D02*
X163420112Y-101619819D01*
X164420112Y-102619819D02*
X164086779Y-102143628D01*
X163848684Y-102619819D02*
X163848684Y-101619819D01*
X163848684Y-101619819D02*
X164229636Y-101619819D01*
X164229636Y-101619819D02*
X164324874Y-101667438D01*
X164324874Y-101667438D02*
X164372493Y-101715057D01*
X164372493Y-101715057D02*
X164420112Y-101810295D01*
X164420112Y-101810295D02*
X164420112Y-101953152D01*
X164420112Y-101953152D02*
X164372493Y-102048390D01*
X164372493Y-102048390D02*
X164324874Y-102096009D01*
X164324874Y-102096009D02*
X164229636Y-102143628D01*
X164229636Y-102143628D02*
X163848684Y-102143628D01*
X133789160Y-94322200D02*
X133932017Y-94369819D01*
X133932017Y-94369819D02*
X134170112Y-94369819D01*
X134170112Y-94369819D02*
X134265350Y-94322200D01*
X134265350Y-94322200D02*
X134312969Y-94274580D01*
X134312969Y-94274580D02*
X134360588Y-94179342D01*
X134360588Y-94179342D02*
X134360588Y-94084104D01*
X134360588Y-94084104D02*
X134312969Y-93988866D01*
X134312969Y-93988866D02*
X134265350Y-93941247D01*
X134265350Y-93941247D02*
X134170112Y-93893628D01*
X134170112Y-93893628D02*
X133979636Y-93846009D01*
X133979636Y-93846009D02*
X133884398Y-93798390D01*
X133884398Y-93798390D02*
X133836779Y-93750771D01*
X133836779Y-93750771D02*
X133789160Y-93655533D01*
X133789160Y-93655533D02*
X133789160Y-93560295D01*
X133789160Y-93560295D02*
X133836779Y-93465057D01*
X133836779Y-93465057D02*
X133884398Y-93417438D01*
X133884398Y-93417438D02*
X133979636Y-93369819D01*
X133979636Y-93369819D02*
X134217731Y-93369819D01*
X134217731Y-93369819D02*
X134360588Y-93417438D01*
X134646303Y-93369819D02*
X135217731Y-93369819D01*
X134932017Y-94369819D02*
X134932017Y-93369819D01*
X135551065Y-94369819D02*
X135551065Y-93369819D01*
X136360588Y-93846009D02*
X136027255Y-93846009D01*
X136027255Y-94369819D02*
X136027255Y-93369819D01*
X136027255Y-93369819D02*
X136503445Y-93369819D01*
X137217731Y-93846009D02*
X136884398Y-93846009D01*
X136884398Y-94369819D02*
X136884398Y-93369819D01*
X136884398Y-93369819D02*
X137360588Y-93369819D01*
X137741541Y-93846009D02*
X138074874Y-93846009D01*
X138217731Y-94369819D02*
X137741541Y-94369819D01*
X137741541Y-94369819D02*
X137741541Y-93369819D01*
X137741541Y-93369819D02*
X138217731Y-93369819D01*
X138646303Y-94369819D02*
X138646303Y-93369819D01*
X138646303Y-93369819D02*
X139217731Y-94369819D01*
X139217731Y-94369819D02*
X139217731Y-93369819D01*
X139693922Y-93846009D02*
X140027255Y-93846009D01*
X140170112Y-94369819D02*
X139693922Y-94369819D01*
X139693922Y-94369819D02*
X139693922Y-93369819D01*
X139693922Y-93369819D02*
X140170112Y-93369819D01*
X141170112Y-94369819D02*
X140836779Y-93893628D01*
X140598684Y-94369819D02*
X140598684Y-93369819D01*
X140598684Y-93369819D02*
X140979636Y-93369819D01*
X140979636Y-93369819D02*
X141074874Y-93417438D01*
X141074874Y-93417438D02*
X141122493Y-93465057D01*
X141122493Y-93465057D02*
X141170112Y-93560295D01*
X141170112Y-93560295D02*
X141170112Y-93703152D01*
X141170112Y-93703152D02*
X141122493Y-93798390D01*
X141122493Y-93798390D02*
X141074874Y-93846009D01*
X141074874Y-93846009D02*
X140979636Y-93893628D01*
X140979636Y-93893628D02*
X140598684Y-93893628D01*
%TO.C,U1*%
D11*
X115041589Y-155271804D02*
X119547222Y-155271804D01*
X119547222Y-159352348D01*
X115041589Y-159352348D01*
X115041589Y-155271804D01*
G36*
X115041589Y-155271804D02*
G01*
X119547222Y-155271804D01*
X119547222Y-159352348D01*
X115041589Y-159352348D01*
X115041589Y-155271804D01*
G37*
%TO.C,J1*%
X120030000Y-221517500D02*
X132430000Y-221517500D01*
X132430000Y-226737500D01*
X120030000Y-226737500D01*
X120030000Y-221517500D01*
G36*
X120030000Y-221517500D02*
G01*
X132430000Y-221517500D01*
X132430000Y-226737500D01*
X120030000Y-226737500D01*
X120030000Y-221517500D01*
G37*
%TO.C,FSR5*%
X164640711Y-67039554D02*
X161281953Y-63680797D01*
X164577071Y-60385679D01*
X167935828Y-63744437D01*
X164640711Y-67039554D01*
G36*
X167935828Y-63744437D02*
G01*
X164640711Y-67039554D01*
X161281953Y-63680797D01*
X164577071Y-60385679D01*
X167935828Y-63744437D01*
G37*
%TO.C,J6*%
X116593357Y-188180000D02*
X125580000Y-188180000D01*
X125580000Y-195945151D01*
X116593357Y-195945151D01*
X116593357Y-188180000D01*
G36*
X116593357Y-188180000D02*
G01*
X125580000Y-188180000D01*
X125580000Y-195945151D01*
X116593357Y-195945151D01*
X116593357Y-188180000D01*
G37*
%TO.C,J9*%
X103230000Y-28947425D02*
X110230001Y-28947425D01*
X110230001Y-36712576D01*
X103230000Y-36712576D01*
X103230000Y-28947425D01*
G36*
X103230000Y-28947425D02*
G01*
X110230001Y-28947425D01*
X110230001Y-36712576D01*
X103230000Y-36712576D01*
X103230000Y-28947425D01*
G37*
%TO.C,C1*%
X117910000Y-151875000D02*
X119790000Y-151875000D01*
X119790000Y-155680000D01*
X117910000Y-155680000D01*
X117910000Y-151875000D01*
G36*
X117910000Y-151875000D02*
G01*
X119790000Y-151875000D01*
X119790000Y-155680000D01*
X117910000Y-155680000D01*
X117910000Y-151875000D01*
G37*
%TO.C,J11*%
X158020000Y-51367425D02*
X165020001Y-51367425D01*
X165020001Y-59132576D01*
X158020000Y-59132576D01*
X158020000Y-51367425D01*
G36*
X158020000Y-51367425D02*
G01*
X165020001Y-51367425D01*
X165020001Y-59132576D01*
X158020000Y-59132576D01*
X158020000Y-51367425D01*
G37*
%TO.C,J8*%
X71020000Y-38582425D02*
X78020001Y-38582425D01*
X78020001Y-46347576D01*
X71020000Y-46347576D01*
X71020000Y-38582425D01*
G36*
X71020000Y-38582425D02*
G01*
X78020001Y-38582425D01*
X78020001Y-46347576D01*
X71020000Y-46347576D01*
X71020000Y-38582425D01*
G37*
%TO.C,U2*%
X54140000Y-91700000D02*
X58800000Y-91700000D01*
X58800000Y-96450000D01*
X54140000Y-96450000D01*
X54140000Y-91700000D01*
G36*
X54140000Y-91700000D02*
G01*
X58800000Y-91700000D01*
X58800000Y-96450000D01*
X54140000Y-96450000D01*
X54140000Y-91700000D01*
G37*
%TO.C,J5*%
X113659122Y-195087181D02*
X107304606Y-201441697D01*
X101813815Y-195950906D01*
X108168331Y-189596390D01*
X113659122Y-195087181D01*
G36*
X113659122Y-195087181D02*
G01*
X107304606Y-201441697D01*
X101813815Y-195950906D01*
X108168331Y-189596390D01*
X113659122Y-195087181D01*
G37*
%TO.C,J4*%
X106310000Y-200590000D02*
X114075151Y-200590000D01*
X114075151Y-209576643D01*
X106310000Y-209576643D01*
X106310000Y-200590000D01*
G36*
X106310000Y-200590000D02*
G01*
X114075151Y-200590000D01*
X114075151Y-209576643D01*
X106310000Y-209576643D01*
X106310000Y-200590000D01*
G37*
%TO.C,J7*%
X33660000Y-101597425D02*
X40660001Y-101597425D01*
X40660001Y-109362576D01*
X33660000Y-109362576D01*
X33660000Y-101597425D01*
G36*
X33660000Y-101597425D02*
G01*
X40660001Y-101597425D01*
X40660001Y-109362576D01*
X33660000Y-109362576D01*
X33660000Y-101597425D01*
G37*
%TO.C,C4*%
X55060000Y-89740000D02*
X58865000Y-89740000D01*
X58865000Y-91620000D01*
X55060000Y-91620000D01*
X55060000Y-89740000D01*
G36*
X55060000Y-89740000D02*
G01*
X58865000Y-89740000D01*
X58865000Y-91620000D01*
X55060000Y-91620000D01*
X55060000Y-89740000D01*
G37*
%TO.C,J2*%
X144610277Y-205326578D02*
X138255761Y-198972062D01*
X143746552Y-193481271D01*
X150101068Y-199835787D01*
X144610277Y-205326578D01*
G36*
X150101068Y-199835787D02*
G01*
X144610277Y-205326578D01*
X138255761Y-198972062D01*
X143746552Y-193481271D01*
X150101068Y-199835787D01*
G37*
%TO.C,J3*%
X129023357Y-188740000D02*
X138010000Y-188740000D01*
X138010000Y-196505151D01*
X129023357Y-196505151D01*
X129023357Y-188740000D01*
G36*
X129023357Y-188740000D02*
G01*
X138010000Y-188740000D01*
X138010000Y-196505151D01*
X129023357Y-196505151D01*
X129023357Y-188740000D01*
G37*
%TO.C,C2*%
X111110000Y-152620000D02*
X112990000Y-152620000D01*
X112990000Y-156425000D01*
X111110000Y-156425000D01*
X111110000Y-152620000D01*
G36*
X111110000Y-152620000D02*
G01*
X112990000Y-152620000D01*
X112990000Y-156425000D01*
X111110000Y-156425000D01*
X111110000Y-152620000D01*
G37*
%TO.C,C3*%
X113110000Y-153320000D02*
X114990000Y-153320000D01*
X114990000Y-157125000D01*
X113110000Y-157125000D01*
X113110000Y-153320000D01*
G36*
X113110000Y-153320000D02*
G01*
X114990000Y-153320000D01*
X114990000Y-157125000D01*
X113110000Y-157125000D01*
X113110000Y-153320000D01*
G37*
%TO.C,J10*%
X134430000Y-36667425D02*
X141430001Y-36667425D01*
X141430001Y-44432576D01*
X134430000Y-44432576D01*
X134430000Y-36667425D01*
G36*
X134430000Y-36667425D02*
G01*
X141430001Y-36667425D01*
X141430001Y-44432576D01*
X134430000Y-44432576D01*
X134430000Y-36667425D01*
G37*
%TO.C,FS2*%
X80930000Y-109310000D02*
X85680000Y-109310000D01*
X85680000Y-113970000D01*
X80930000Y-113970000D01*
X80930000Y-109310000D01*
G36*
X80930000Y-109310000D02*
G01*
X85680000Y-109310000D01*
X85680000Y-113970000D01*
X80930000Y-113970000D01*
X80930000Y-109310000D01*
G37*
%TO.C,FS1*%
X49650461Y-177886980D02*
X52025462Y-173773360D01*
X56061141Y-176103360D01*
X53686141Y-180216980D01*
X49650461Y-177886980D01*
G36*
X56061141Y-176103360D02*
G01*
X53686141Y-180216980D01*
X49650461Y-177886980D01*
X52025462Y-173773360D01*
X56061141Y-176103360D01*
G37*
%TO.C,FS3*%
X111100000Y-101040000D02*
X115850000Y-101040000D01*
X115850000Y-105700000D01*
X111100000Y-105700000D01*
X111100000Y-101040000D01*
G36*
X111100000Y-101040000D02*
G01*
X115850000Y-101040000D01*
X115850000Y-105700000D01*
X111100000Y-105700000D01*
X111100000Y-101040000D01*
G37*
%TO.C,FSR3*%
X105505263Y-45245528D02*
X108864020Y-41886770D01*
X112159138Y-45181888D01*
X108800380Y-48540645D01*
X105505263Y-45245528D01*
G36*
X112159138Y-45181888D02*
G01*
X108800380Y-48540645D01*
X105505263Y-45245528D01*
X108864020Y-41886770D01*
X112159138Y-45181888D01*
G37*
%TO.C,FSR1*%
X39776673Y-116591556D02*
X43135431Y-119950313D01*
X39840313Y-123245431D01*
X36481556Y-119886673D01*
X39776673Y-116591556D01*
G36*
X43135431Y-119950313D02*
G01*
X39840313Y-123245431D01*
X36481556Y-119886673D01*
X39776673Y-116591556D01*
X43135431Y-119950313D01*
G37*
%TO.C,FSR4*%
X140176673Y-50081556D02*
X143535431Y-53440313D01*
X140240313Y-56735431D01*
X136881556Y-53376673D01*
X140176673Y-50081556D01*
G36*
X143535431Y-53440313D02*
G01*
X140240313Y-56735431D01*
X136881556Y-53376673D01*
X140176673Y-50081556D01*
X143535431Y-53440313D01*
G37*
%TO.C,FSR2*%
X80069893Y-56999478D02*
X76711135Y-53640721D01*
X80006253Y-50345603D01*
X83365010Y-53704361D01*
X80069893Y-56999478D01*
G36*
X83365010Y-53704361D02*
G01*
X80069893Y-56999478D01*
X76711135Y-53640721D01*
X80006253Y-50345603D01*
X83365010Y-53704361D01*
G37*
%TO.C,FS5*%
X160075000Y-116700000D02*
X164825000Y-116700000D01*
X164825000Y-121360000D01*
X160075000Y-121360000D01*
X160075000Y-116700000D01*
G36*
X160075000Y-116700000D02*
G01*
X164825000Y-116700000D01*
X164825000Y-121360000D01*
X160075000Y-121360000D01*
X160075000Y-116700000D01*
G37*
%TO.C,FS4*%
X136520000Y-105890000D02*
X141270000Y-105890000D01*
X141270000Y-110550000D01*
X136520000Y-110550000D01*
X136520000Y-105890000D01*
G36*
X136520000Y-105890000D02*
G01*
X141270000Y-105890000D01*
X141270000Y-110550000D01*
X136520000Y-110550000D01*
X136520000Y-105890000D01*
G37*
%TD*%
G36*
X135406361Y-36392057D02*
G01*
X135413312Y-36392309D01*
X140028831Y-36689596D01*
X140035906Y-36690256D01*
X140366452Y-36730661D01*
X140380431Y-36733190D01*
X140700718Y-36810300D01*
X140714315Y-36814410D01*
X141023696Y-36927648D01*
X141036734Y-36933287D01*
X141331124Y-37081163D01*
X141343432Y-37088256D01*
X141618980Y-37268832D01*
X141630396Y-37277286D01*
X141883483Y-37488193D01*
X141893857Y-37497897D01*
X142121161Y-37736364D01*
X142130357Y-37747190D01*
X142331048Y-38012937D01*
X142335166Y-38018728D01*
X146456658Y-44180884D01*
X146460597Y-44187173D01*
X146636307Y-44487301D01*
X146643023Y-44500530D01*
X146780146Y-44816079D01*
X146785234Y-44830014D01*
X146883692Y-45159682D01*
X146887080Y-45174126D01*
X146946094Y-45516860D01*
X146947134Y-45524207D01*
X147851711Y-53665393D01*
X147852284Y-53672318D01*
X147870058Y-53997407D01*
X147870039Y-54011294D01*
X147851548Y-54332881D01*
X147849975Y-54346681D01*
X147795638Y-54664169D01*
X147792532Y-54677706D01*
X147703030Y-54987126D01*
X147698430Y-55000231D01*
X147574885Y-55297709D01*
X147568848Y-55310217D01*
X147412814Y-55592006D01*
X147405416Y-55603761D01*
X147218843Y-55866339D01*
X147210177Y-55877192D01*
X146995412Y-56117258D01*
X146985586Y-56127074D01*
X146745330Y-56341609D01*
X146734469Y-56350266D01*
X146471720Y-56536592D01*
X146459959Y-56543978D01*
X146178025Y-56699752D01*
X146165510Y-56705778D01*
X145864687Y-56830385D01*
X145858197Y-56832862D01*
X138895887Y-59269671D01*
X138889564Y-59271696D01*
X138590737Y-59358635D01*
X138577810Y-59361656D01*
X138274683Y-59415567D01*
X138261506Y-59417189D01*
X137954341Y-59438384D01*
X137941068Y-59438587D01*
X137633418Y-59426825D01*
X137620198Y-59425609D01*
X137312264Y-59380540D01*
X137305722Y-59379403D01*
X127910759Y-57485880D01*
X127903854Y-57484282D01*
X127582521Y-57400160D01*
X127569042Y-57395794D01*
X127262729Y-57276855D01*
X127249835Y-57270980D01*
X126959086Y-57117873D01*
X126946947Y-57110566D01*
X126675561Y-56925289D01*
X126664335Y-56916645D01*
X126415853Y-56701617D01*
X126405686Y-56691748D01*
X126183362Y-56449782D01*
X126174388Y-56438818D01*
X125981114Y-56173065D01*
X125973448Y-56161149D01*
X125811754Y-55875086D01*
X125805498Y-55862373D01*
X125677492Y-55559731D01*
X125672727Y-55546387D01*
X125580081Y-55231114D01*
X125576870Y-55217315D01*
X125520794Y-54893535D01*
X125519178Y-54879458D01*
X125500203Y-54547862D01*
X125500000Y-54540778D01*
X125500000Y-50361638D01*
X125500219Y-50354279D01*
X125520693Y-50009886D01*
X125522436Y-49995273D01*
X125583573Y-49655710D01*
X125585092Y-49648506D01*
X127141881Y-43217852D01*
X127143892Y-43210533D01*
X127248577Y-42870593D01*
X127253922Y-42856392D01*
X127397788Y-42535255D01*
X127404827Y-42521814D01*
X127586831Y-42220662D01*
X127595459Y-42208180D01*
X127812896Y-41931494D01*
X127822983Y-41920160D01*
X128075275Y-41669428D01*
X128080820Y-41664245D01*
X133233825Y-37134886D01*
X133239176Y-37130442D01*
X133495687Y-36929310D01*
X133507093Y-36921357D01*
X133781569Y-36752023D01*
X133793795Y-36745397D01*
X134085493Y-36607865D01*
X134098383Y-36602650D01*
X134403640Y-36498646D01*
X134417033Y-36494906D01*
X134732030Y-36425729D01*
X134745758Y-36423513D01*
X135066503Y-36390043D01*
X135080392Y-36389377D01*
X135406361Y-36392057D01*
G37*
G36*
X155749268Y-103840886D02*
G01*
X166651365Y-104171253D01*
X166658722Y-104171695D01*
X167002735Y-104202650D01*
X167017305Y-104204840D01*
X167351604Y-104275615D01*
X167365812Y-104279518D01*
X167689352Y-104389445D01*
X167702996Y-104395005D01*
X168011219Y-104542534D01*
X168024108Y-104549674D01*
X168312646Y-104732714D01*
X168324597Y-104741331D01*
X168589403Y-104957316D01*
X168600247Y-104967291D01*
X168837554Y-105213151D01*
X168847139Y-105224342D01*
X169053613Y-105496618D01*
X169061802Y-105508866D01*
X169234520Y-105803705D01*
X169241199Y-105816838D01*
X169377728Y-106130087D01*
X169382802Y-106143920D01*
X169481210Y-106471145D01*
X169484608Y-106485482D01*
X169544147Y-106825718D01*
X169545201Y-106833012D01*
X170230396Y-112828468D01*
X170230747Y-112831978D01*
X170244845Y-112996762D01*
X170245246Y-113003805D01*
X170249950Y-113169114D01*
X170250000Y-113172641D01*
X170250000Y-120718349D01*
X170249795Y-120725471D01*
X170230619Y-121058800D01*
X170228986Y-121072948D01*
X170172325Y-121398372D01*
X170169080Y-121412240D01*
X170075475Y-121729022D01*
X170070661Y-121742428D01*
X169941349Y-122046380D01*
X169935030Y-122059143D01*
X169771718Y-122346261D01*
X169763977Y-122358217D01*
X169568809Y-122624724D01*
X169559748Y-122635713D01*
X169335317Y-122878071D01*
X169325055Y-122887948D01*
X169074307Y-123102977D01*
X169062980Y-123111613D01*
X168789229Y-123296468D01*
X168776988Y-123303747D01*
X168483852Y-123455988D01*
X168470856Y-123461816D01*
X168162183Y-123579443D01*
X168148604Y-123583742D01*
X167828491Y-123665194D01*
X167814509Y-123667908D01*
X167483616Y-123712593D01*
X167476531Y-123713343D01*
X164443240Y-123946673D01*
X164436224Y-123947013D01*
X164107076Y-123953635D01*
X164093042Y-123953122D01*
X163768755Y-123922810D01*
X163754868Y-123920713D01*
X163436093Y-123853928D01*
X163422534Y-123850275D01*
X163110008Y-123746766D01*
X163103404Y-123744369D01*
X153702981Y-120027923D01*
X153691827Y-120022863D01*
X153512971Y-119930813D01*
X153492429Y-119917527D01*
X153339935Y-119795987D01*
X153322401Y-119778925D01*
X153196745Y-119629818D01*
X153182902Y-119609647D01*
X153088964Y-119438769D01*
X153079350Y-119416271D01*
X153020791Y-119230272D01*
X153015782Y-119206326D01*
X152994219Y-119006318D01*
X152993510Y-118994090D01*
X152987980Y-118349849D01*
X152985482Y-118250534D01*
X152979698Y-118151346D01*
X152512019Y-111910394D01*
X152511817Y-111907114D01*
X152504379Y-111753208D01*
X152504235Y-111746635D01*
X152504965Y-111592482D01*
X152505025Y-111589196D01*
X152656274Y-106749190D01*
X152656685Y-106742251D01*
X152685094Y-106417691D01*
X152687080Y-106403936D01*
X152750933Y-106088028D01*
X152754445Y-106074582D01*
X152853249Y-105767793D01*
X152858244Y-105754825D01*
X152990752Y-105461031D01*
X152997166Y-105448703D01*
X153161722Y-105171569D01*
X153169476Y-105160036D01*
X153364007Y-104903061D01*
X153373003Y-104892468D01*
X153595062Y-104658879D01*
X153605186Y-104649359D01*
X153851997Y-104442078D01*
X153863123Y-104433751D01*
X154131573Y-104255392D01*
X154143561Y-104248362D01*
X154430286Y-104101160D01*
X154442985Y-104095516D01*
X154744378Y-103981324D01*
X154757630Y-103977136D01*
X155069905Y-103897387D01*
X155083541Y-103894708D01*
X155402785Y-103850402D01*
X155416635Y-103849266D01*
X155742316Y-103840870D01*
X155749268Y-103840886D01*
G37*
G36*
X55376682Y-171826253D02*
G01*
X55595558Y-171852290D01*
X55614269Y-171855993D01*
X55826569Y-171915291D01*
X55844492Y-171921821D01*
X56045174Y-172012975D01*
X56061882Y-172022175D01*
X56246223Y-172143037D01*
X56261323Y-172154692D01*
X56424939Y-172302390D01*
X56438074Y-172316223D01*
X56577100Y-172487268D01*
X56587956Y-172502951D01*
X56701522Y-172697434D01*
X56706015Y-172705855D01*
X57342844Y-174019040D01*
X57343247Y-174019880D01*
X57361993Y-174059287D01*
X57362781Y-174060977D01*
X57380932Y-174100661D01*
X57381317Y-174101509D01*
X59552184Y-178943548D01*
X59554905Y-178950116D01*
X59673566Y-179261462D01*
X59677858Y-179275012D01*
X59759232Y-179594447D01*
X59761946Y-179608400D01*
X59806230Y-179935054D01*
X59807329Y-179949224D01*
X59813942Y-180278800D01*
X59813412Y-180293005D01*
X59782265Y-180621169D01*
X59780113Y-180635218D01*
X59711617Y-180957658D01*
X59707872Y-180971369D01*
X59602926Y-181283861D01*
X59597636Y-181297054D01*
X59457618Y-181595482D01*
X59450853Y-181607983D01*
X59275737Y-181891447D01*
X59271829Y-181897385D01*
X57854651Y-183921927D01*
X57850435Y-183927599D01*
X57645366Y-184187655D01*
X57636001Y-184198232D01*
X57405175Y-184430765D01*
X57394667Y-184440208D01*
X57138890Y-184644976D01*
X57127376Y-184653162D01*
X56849978Y-184827501D01*
X56837608Y-184834325D01*
X56542175Y-184975982D01*
X56529109Y-184981355D01*
X56219471Y-185088491D01*
X56205879Y-185092342D01*
X55886072Y-185163561D01*
X55872130Y-185165841D01*
X55546302Y-185200222D01*
X55532191Y-185200902D01*
X55204558Y-185197997D01*
X55190461Y-185197067D01*
X54861787Y-185156483D01*
X54854801Y-185155418D01*
X52729334Y-184768969D01*
X52722305Y-184767479D01*
X52395036Y-184688150D01*
X52381295Y-184683963D01*
X52068770Y-184568563D01*
X52055604Y-184562815D01*
X51758522Y-184412044D01*
X51746111Y-184404812D01*
X51468457Y-184220694D01*
X51456965Y-184212075D01*
X51202470Y-183997082D01*
X51192052Y-183987192D01*
X50964130Y-183744210D01*
X50954925Y-183733181D01*
X50756629Y-183465463D01*
X50748762Y-183453444D01*
X50580968Y-183161472D01*
X50577570Y-183155140D01*
X48152370Y-178304740D01*
X48149360Y-178298259D01*
X48017088Y-177990573D01*
X48012211Y-177977145D01*
X47917232Y-177659710D01*
X47913932Y-177645809D01*
X47856099Y-177319568D01*
X47854419Y-177305380D01*
X47834495Y-176974634D01*
X47834459Y-176960348D01*
X47852710Y-176629511D01*
X47854318Y-176615315D01*
X47910499Y-176288787D01*
X47913728Y-176274870D01*
X48007101Y-175956955D01*
X48011910Y-175943502D01*
X48141229Y-175638441D01*
X48147554Y-175625630D01*
X48311102Y-175337473D01*
X48318858Y-175325475D01*
X48514469Y-175058037D01*
X48523554Y-175047011D01*
X48748622Y-174803856D01*
X48758914Y-174793947D01*
X49010461Y-174578291D01*
X49021825Y-174569633D01*
X49296513Y-174384339D01*
X49308798Y-174377045D01*
X49606152Y-174222931D01*
X49612589Y-174219827D01*
X54662604Y-171961420D01*
X54671460Y-171957862D01*
X54883508Y-171882007D01*
X54901908Y-171876982D01*
X55118384Y-171835447D01*
X55137339Y-171833304D01*
X55357624Y-171825463D01*
X55376682Y-171826253D01*
G37*
G36*
X109711050Y-28692950D02*
G01*
X110045317Y-28712233D01*
X110059506Y-28713875D01*
X110385822Y-28770855D01*
X110399727Y-28774119D01*
X110717327Y-28868247D01*
X110730765Y-28873087D01*
X111035428Y-29003110D01*
X111048220Y-29009463D01*
X111335909Y-29173656D01*
X111347885Y-29181439D01*
X111614789Y-29377630D01*
X111625791Y-29386738D01*
X111870977Y-29614750D01*
X111876067Y-29619764D01*
X117077499Y-35048154D01*
X117082677Y-35053908D01*
X117316799Y-35330959D01*
X117326030Y-35343378D01*
X117521715Y-35644187D01*
X117529327Y-35657658D01*
X117686028Y-35980501D01*
X117691903Y-35994817D01*
X117807172Y-36334657D01*
X117811218Y-36349591D01*
X117884043Y-36704933D01*
X117885360Y-36712561D01*
X119595079Y-48870563D01*
X119595885Y-48877855D01*
X119623543Y-49220513D01*
X119623856Y-49235174D01*
X119611008Y-49575020D01*
X119609589Y-49589616D01*
X119556706Y-49925588D01*
X119553573Y-49939913D01*
X119461402Y-50267275D01*
X119456600Y-50281131D01*
X119326423Y-50595331D01*
X119320019Y-50608524D01*
X119153659Y-50905159D01*
X119145742Y-50917503D01*
X118945525Y-51192423D01*
X118936206Y-51203745D01*
X118704931Y-51453110D01*
X118694340Y-51463254D01*
X118435259Y-51683557D01*
X118423546Y-51692380D01*
X118140242Y-51880575D01*
X118127568Y-51887952D01*
X117824057Y-52041371D01*
X117810601Y-52047202D01*
X117491074Y-52163725D01*
X117477024Y-52167925D01*
X117142412Y-52246751D01*
X117135225Y-52248221D01*
X109038966Y-53656266D01*
X109031637Y-53657317D01*
X108686802Y-53696264D01*
X108672019Y-53697044D01*
X108328728Y-53694647D01*
X108313959Y-53693660D01*
X107969731Y-53649907D01*
X107962416Y-53648755D01*
X97645431Y-51705735D01*
X97638578Y-51704242D01*
X97319527Y-51625244D01*
X97306129Y-51621110D01*
X97001319Y-51507819D01*
X96988474Y-51502199D01*
X96698408Y-51355224D01*
X96686279Y-51348190D01*
X96414655Y-51169404D01*
X96403397Y-51161045D01*
X96153691Y-50952735D01*
X96143450Y-50943159D01*
X95918863Y-50707998D01*
X95909767Y-50697326D01*
X95713164Y-50438311D01*
X95705332Y-50426682D01*
X95539221Y-50147121D01*
X95532752Y-50134681D01*
X95399272Y-49838168D01*
X95394248Y-49825078D01*
X95295089Y-49515373D01*
X95291576Y-49501799D01*
X95228018Y-49182897D01*
X95226059Y-49169013D01*
X95198617Y-48841469D01*
X95198229Y-48834466D01*
X95014133Y-42022944D01*
X95014144Y-42015856D01*
X95024156Y-41683839D01*
X95025392Y-41669725D01*
X95072702Y-41344542D01*
X95075540Y-41330659D01*
X95160549Y-41009559D01*
X95162558Y-41002762D01*
X97297370Y-34472750D01*
X97300201Y-34464977D01*
X97444957Y-34105374D01*
X97452141Y-34090480D01*
X97641413Y-33756942D01*
X97650515Y-33743136D01*
X97884995Y-33434443D01*
X97890216Y-33428026D01*
X101113491Y-29725712D01*
X101118632Y-29720159D01*
X101367355Y-29467411D01*
X101378603Y-29457297D01*
X101653275Y-29239079D01*
X101665670Y-29230409D01*
X101964883Y-29047250D01*
X101978243Y-29040154D01*
X102297524Y-28894795D01*
X102311647Y-28889379D01*
X102646254Y-28783976D01*
X102660932Y-28780320D01*
X103005879Y-28716445D01*
X103020894Y-28714603D01*
X103374839Y-28692975D01*
X103382402Y-28692744D01*
X109703909Y-28692744D01*
X109711050Y-28692950D01*
G37*
G36*
X56445837Y-84297324D02*
G01*
X56460973Y-84298611D01*
X56745203Y-84340441D01*
X56760067Y-84343570D01*
X57037033Y-84419835D01*
X57051404Y-84424757D01*
X57316975Y-84534318D01*
X57330637Y-84540960D01*
X57580819Y-84682173D01*
X57593565Y-84690436D01*
X57827672Y-84863448D01*
X57833642Y-84868150D01*
X60381352Y-87004195D01*
X60386601Y-87008855D01*
X60626332Y-87234142D01*
X60635998Y-87244315D01*
X60846456Y-87492552D01*
X60854910Y-87503752D01*
X61035979Y-87774190D01*
X61043114Y-87786274D01*
X61192465Y-88075434D01*
X61198189Y-88088247D01*
X61315162Y-88395716D01*
X61317471Y-88402344D01*
X63108851Y-94054636D01*
X63110612Y-94060729D01*
X63185813Y-94348318D01*
X63188390Y-94360734D01*
X63233343Y-94651367D01*
X63234638Y-94663981D01*
X63249838Y-94960856D01*
X63250000Y-94967196D01*
X63250000Y-96746110D01*
X63249756Y-96753884D01*
X63231609Y-97042762D01*
X63229663Y-97058189D01*
X63176237Y-97338691D01*
X63172376Y-97353752D01*
X63084266Y-97625368D01*
X63078551Y-97639827D01*
X62957146Y-97898276D01*
X62949666Y-97911908D01*
X62796865Y-98153141D01*
X62787738Y-98165728D01*
X62605952Y-98385940D01*
X62595321Y-98397286D01*
X62387417Y-98593009D01*
X62375450Y-98602937D01*
X62144672Y-98771113D01*
X62131557Y-98779464D01*
X61881552Y-98917434D01*
X61867495Y-98924078D01*
X61602190Y-99029677D01*
X61587411Y-99034510D01*
X61310983Y-99106076D01*
X61295717Y-99109022D01*
X61008623Y-99145932D01*
X61000881Y-99146681D01*
X54375431Y-99578776D01*
X54368004Y-99579037D01*
X54019753Y-99580843D01*
X54004919Y-99580030D01*
X53662652Y-99540602D01*
X53648023Y-99538021D01*
X53312921Y-99457943D01*
X53298705Y-99453631D01*
X52975592Y-99334056D01*
X52961993Y-99328075D01*
X52655492Y-99170712D01*
X52642706Y-99163147D01*
X52357228Y-98970262D01*
X52345439Y-98961223D01*
X52085073Y-98735580D01*
X52074449Y-98725195D01*
X51842939Y-98470036D01*
X51833634Y-98458456D01*
X51634302Y-98177444D01*
X51626448Y-98164834D01*
X51462147Y-97861992D01*
X51455858Y-97848532D01*
X51328960Y-97528227D01*
X51324325Y-97514114D01*
X51235689Y-97177316D01*
X51234014Y-97170075D01*
X50342789Y-92713945D01*
X50341693Y-92707618D01*
X50298025Y-92409828D01*
X50296822Y-92397046D01*
X50284313Y-92099541D01*
X50284439Y-92086703D01*
X50302957Y-91786302D01*
X50303518Y-91779905D01*
X50630358Y-88909013D01*
X50631338Y-88902127D01*
X50686315Y-88580810D01*
X50689425Y-88567256D01*
X50779061Y-88257472D01*
X50783669Y-88244352D01*
X50907430Y-87946545D01*
X50913478Y-87934024D01*
X51069803Y-87651947D01*
X51077215Y-87640182D01*
X51264133Y-87377391D01*
X51272815Y-87366529D01*
X51487991Y-87126307D01*
X51497835Y-87116486D01*
X51741148Y-86899555D01*
X51746468Y-86895073D01*
X53328963Y-85636073D01*
X53332504Y-85633359D01*
X53500814Y-85509074D01*
X53508180Y-85504034D01*
X53684952Y-85392205D01*
X53688765Y-85389887D01*
X54996715Y-84626915D01*
X55003393Y-84623289D01*
X55263347Y-84492292D01*
X55277305Y-84486300D01*
X55547739Y-84389356D01*
X55562326Y-84385116D01*
X55842582Y-84321968D01*
X55857577Y-84319543D01*
X56143446Y-84291136D01*
X56158627Y-84290562D01*
X56445837Y-84297324D01*
G37*
G36*
X78288229Y-39052700D02*
G01*
X78617705Y-39071432D01*
X78631691Y-39073027D01*
X78953433Y-39128382D01*
X78967149Y-39131553D01*
X79280562Y-39223025D01*
X79293829Y-39227730D01*
X79594836Y-39354127D01*
X79607485Y-39360305D01*
X79892241Y-39520012D01*
X79904109Y-39527584D01*
X80168922Y-39718534D01*
X80179854Y-39727402D01*
X80421316Y-39947134D01*
X80431174Y-39957185D01*
X80648505Y-40205533D01*
X80652989Y-40210961D01*
X85226087Y-46077863D01*
X85230140Y-46083369D01*
X85412904Y-46346568D01*
X85420070Y-46358208D01*
X85571127Y-46636920D01*
X85576968Y-46649278D01*
X85696426Y-46942912D01*
X85700871Y-46955838D01*
X85787286Y-47260839D01*
X85790282Y-47274176D01*
X85843167Y-47590216D01*
X85844109Y-47596987D01*
X86735857Y-55622710D01*
X86736430Y-55629635D01*
X86754204Y-55954724D01*
X86754185Y-55968611D01*
X86735694Y-56290198D01*
X86734121Y-56303998D01*
X86679784Y-56621486D01*
X86676678Y-56635023D01*
X86587176Y-56944443D01*
X86582576Y-56957548D01*
X86459031Y-57255026D01*
X86452994Y-57267534D01*
X86296960Y-57549323D01*
X86289562Y-57561078D01*
X86102989Y-57823656D01*
X86094323Y-57834509D01*
X85879558Y-58074575D01*
X85869732Y-58084391D01*
X85629476Y-58298926D01*
X85618615Y-58307583D01*
X85355866Y-58493909D01*
X85344105Y-58501295D01*
X85062171Y-58657069D01*
X85049656Y-58663095D01*
X84748833Y-58787702D01*
X84742343Y-58790179D01*
X77751793Y-61236871D01*
X77744157Y-61239271D01*
X77382836Y-61340091D01*
X77367178Y-61343388D01*
X76999871Y-61396266D01*
X76983918Y-61397519D01*
X76612866Y-61402655D01*
X76596886Y-61401844D01*
X76224270Y-61358695D01*
X76216352Y-61357518D01*
X68314363Y-59920793D01*
X68307647Y-59919379D01*
X67994841Y-59844416D01*
X67981696Y-59840485D01*
X67682326Y-59732590D01*
X67669694Y-59727230D01*
X67384078Y-59586919D01*
X67372117Y-59580197D01*
X67103758Y-59409193D01*
X67092612Y-59401191D01*
X66844778Y-59201575D01*
X66834584Y-59192390D01*
X66610332Y-58966625D01*
X66601216Y-58956370D01*
X66403273Y-58707201D01*
X66395346Y-58696002D01*
X66226147Y-58426495D01*
X66219505Y-58414488D01*
X66081116Y-58127931D01*
X66075842Y-58115264D01*
X65969961Y-57815175D01*
X65966119Y-57802003D01*
X65894045Y-57492062D01*
X65891681Y-57478547D01*
X65853885Y-57159120D01*
X65853267Y-57152284D01*
X65515680Y-51750893D01*
X65515466Y-51745767D01*
X65510406Y-51505335D01*
X65510615Y-51495079D01*
X65525444Y-51255067D01*
X65525866Y-51249955D01*
X66151870Y-45198582D01*
X66152884Y-45191046D01*
X66211201Y-44839544D01*
X66214603Y-44824731D01*
X66314406Y-44486658D01*
X66319595Y-44472372D01*
X66460004Y-44149060D01*
X66466901Y-44135515D01*
X66645824Y-43831791D01*
X66654327Y-43819193D01*
X66871372Y-43536635D01*
X66876186Y-43530750D01*
X69875686Y-40085468D01*
X69880827Y-40079915D01*
X70129550Y-39827167D01*
X70140798Y-39817053D01*
X70415470Y-39598835D01*
X70427865Y-39590165D01*
X70727078Y-39407006D01*
X70740438Y-39399910D01*
X71059719Y-39254551D01*
X71073842Y-39249135D01*
X71408449Y-39143732D01*
X71423127Y-39140076D01*
X71768074Y-39076201D01*
X71783089Y-39074359D01*
X72137034Y-39052731D01*
X72144597Y-39052500D01*
X78281190Y-39052500D01*
X78288229Y-39052700D01*
G37*
G36*
X142753227Y-132313986D02*
G01*
X143380744Y-132341216D01*
X143388608Y-132341808D01*
X144013145Y-132408876D01*
X144020956Y-132409967D01*
X144639960Y-132516600D01*
X144647686Y-132518185D01*
X145258674Y-132663956D01*
X145266283Y-132666030D01*
X145866739Y-132850337D01*
X145874201Y-132852889D01*
X146461759Y-133075005D01*
X146469043Y-133078027D01*
X147041275Y-133337037D01*
X147048353Y-133340516D01*
X147604725Y-133636316D01*
X147608177Y-133638223D01*
X163943299Y-143001037D01*
X163946727Y-143003075D01*
X164489103Y-143337570D01*
X164495754Y-143341973D01*
X165013868Y-143709481D01*
X165020221Y-143714302D01*
X165513629Y-144114353D01*
X165519659Y-144119573D01*
X165986333Y-144550517D01*
X165992016Y-144556113D01*
X166430026Y-145016172D01*
X166435337Y-145022123D01*
X166842857Y-145509380D01*
X166847774Y-145515659D01*
X167223123Y-146028100D01*
X167227627Y-146034682D01*
X167569272Y-146570216D01*
X167573343Y-146577075D01*
X167879839Y-147133437D01*
X167883461Y-147140542D01*
X168153572Y-147715489D01*
X168156729Y-147722813D01*
X168389307Y-148313902D01*
X168391987Y-148321414D01*
X168586089Y-148926246D01*
X168588281Y-148933915D01*
X168743100Y-149549977D01*
X168744794Y-149557770D01*
X168859691Y-150182517D01*
X168860880Y-150190404D01*
X168935373Y-150821227D01*
X168936053Y-150829174D01*
X168969944Y-151465450D01*
X168970093Y-151469435D01*
X169089923Y-157161354D01*
X169089942Y-157165348D01*
X169082820Y-157803391D01*
X169082474Y-157811370D01*
X169034442Y-158445665D01*
X169033583Y-158453606D01*
X168944813Y-159083502D01*
X168943444Y-159091370D01*
X168814313Y-159714228D01*
X168812441Y-159721993D01*
X168643472Y-160335271D01*
X168641103Y-160342898D01*
X168433018Y-160943988D01*
X168430164Y-160951448D01*
X168183798Y-161537930D01*
X168180469Y-161545190D01*
X167896871Y-162114573D01*
X167893082Y-162121604D01*
X167573407Y-162671564D01*
X167569173Y-162678336D01*
X167214766Y-163206563D01*
X167210104Y-163213049D01*
X166822417Y-163717375D01*
X166817349Y-163723547D01*
X166398004Y-164201866D01*
X166392548Y-164207699D01*
X165943277Y-164658032D01*
X165937457Y-164663501D01*
X165460132Y-165083972D01*
X165453972Y-165089056D01*
X164950570Y-165477926D01*
X164944095Y-165482602D01*
X164416706Y-165838255D01*
X164409943Y-165842506D01*
X163860734Y-166163479D01*
X163853713Y-166167284D01*
X163284999Y-166452227D01*
X163277747Y-166455573D01*
X162691856Y-166703319D01*
X162684403Y-166706191D01*
X162083796Y-166915697D01*
X162076174Y-166918084D01*
X161463294Y-167088501D01*
X161455534Y-167090391D01*
X160832997Y-167220990D01*
X160825132Y-167222378D01*
X160195442Y-167312634D01*
X160187503Y-167313512D01*
X159553322Y-167363042D01*
X159545344Y-167363407D01*
X158907272Y-167372035D01*
X158903278Y-167372024D01*
X139471121Y-167008805D01*
X139468212Y-167008717D01*
X139003623Y-166989120D01*
X138997816Y-166988738D01*
X138534696Y-166947366D01*
X138531800Y-166947073D01*
X112027701Y-163950957D01*
X112024076Y-163950493D01*
X111446026Y-163867829D01*
X111438824Y-163866582D01*
X110868415Y-163750365D01*
X110861300Y-163748695D01*
X110298752Y-163599080D01*
X110291747Y-163596994D01*
X109738986Y-163414494D01*
X109732116Y-163411999D01*
X109191072Y-163197250D01*
X109184361Y-163194355D01*
X108655226Y-162947317D01*
X108651938Y-162945722D01*
X86504096Y-151799085D01*
X86498227Y-151795931D01*
X86177349Y-151612206D01*
X86166162Y-151604976D01*
X85869555Y-151389858D01*
X85859207Y-151381470D01*
X85587371Y-151135762D01*
X85577984Y-151126312D01*
X85334085Y-150852880D01*
X85325765Y-150842478D01*
X85112597Y-150544450D01*
X85105441Y-150533215D01*
X84925477Y-150214052D01*
X84919567Y-150202115D01*
X84774871Y-149865476D01*
X84770276Y-149852973D01*
X84662530Y-149502769D01*
X84659302Y-149489846D01*
X84589740Y-149130096D01*
X84587917Y-149116901D01*
X84557345Y-148751757D01*
X84556949Y-148738442D01*
X84565802Y-148368813D01*
X84566140Y-148362160D01*
X84705960Y-146565787D01*
X84733913Y-145999679D01*
X84733914Y-145999653D01*
X84729744Y-145432850D01*
X84625110Y-142503082D01*
X84625043Y-142496921D01*
X84630188Y-142129267D01*
X84630972Y-142116972D01*
X84672224Y-141754711D01*
X84674224Y-141742556D01*
X84751218Y-141386171D01*
X84754415Y-141374273D01*
X84866390Y-141027294D01*
X84870751Y-141015773D01*
X85016603Y-140681614D01*
X85022085Y-140670583D01*
X85200373Y-140352547D01*
X85206924Y-140342113D01*
X85415890Y-140043337D01*
X85423443Y-140033605D01*
X85661031Y-139757031D01*
X85669513Y-139748097D01*
X85933358Y-139496474D01*
X85942684Y-139488425D01*
X86230209Y-139264213D01*
X86240288Y-139257130D01*
X86548626Y-139062564D01*
X86559358Y-139056515D01*
X86885490Y-138893499D01*
X86896770Y-138888545D01*
X87237472Y-138758693D01*
X87249187Y-138754883D01*
X87601081Y-138659481D01*
X87613116Y-138656852D01*
X87975810Y-138596324D01*
X87981911Y-138595462D01*
X141477641Y-132380191D01*
X141481565Y-132379798D01*
X142109446Y-132327021D01*
X142117322Y-132326610D01*
X142745341Y-132313894D01*
X142753227Y-132313986D01*
G37*
G36*
X119252292Y-91438632D02*
G01*
X119266774Y-91439981D01*
X119600229Y-91490895D01*
X119614454Y-91493930D01*
X119939652Y-91583540D01*
X119953424Y-91588219D01*
X120265902Y-91715298D01*
X120279031Y-91721558D01*
X120574483Y-91884353D01*
X120586788Y-91892108D01*
X120861131Y-92088371D01*
X120872444Y-92097513D01*
X121121923Y-92324553D01*
X121132088Y-92334957D01*
X121353267Y-92589652D01*
X121362143Y-92601174D01*
X121551977Y-92880016D01*
X121559443Y-92892499D01*
X121715317Y-93191648D01*
X121721270Y-93204919D01*
X121841043Y-93520264D01*
X121845401Y-93534140D01*
X121927424Y-93861335D01*
X121930128Y-93875627D01*
X121973741Y-94213811D01*
X121974459Y-94221051D01*
X122403277Y-100374701D01*
X122403344Y-100375716D01*
X122406270Y-100423337D01*
X122406377Y-100425364D01*
X122408523Y-100473023D01*
X122408565Y-100474040D01*
X122660395Y-107315665D01*
X122660454Y-107322704D01*
X122653862Y-107652534D01*
X122652783Y-107666565D01*
X122609330Y-107990034D01*
X122606668Y-108003853D01*
X122526843Y-108320319D01*
X122522633Y-108333746D01*
X122407467Y-108639124D01*
X122401761Y-108651990D01*
X122252736Y-108942346D01*
X122245611Y-108954480D01*
X122064638Y-109226097D01*
X122056183Y-109237347D01*
X121845609Y-109486697D01*
X121835933Y-109496916D01*
X121598456Y-109720805D01*
X121587685Y-109729862D01*
X121326380Y-109925394D01*
X121314653Y-109933173D01*
X121032855Y-110097851D01*
X121020321Y-110104250D01*
X120721695Y-110235930D01*
X120708517Y-110240868D01*
X120393533Y-110338909D01*
X120386755Y-110340810D01*
X115017173Y-111683206D01*
X115011694Y-111684444D01*
X114753610Y-111736671D01*
X114742511Y-111738398D01*
X114480751Y-111767058D01*
X114475154Y-111767543D01*
X105641347Y-112331403D01*
X105634463Y-112331651D01*
X105311628Y-112334293D01*
X105297872Y-112333641D01*
X104980167Y-112300823D01*
X104966568Y-112298649D01*
X104654471Y-112230804D01*
X104641197Y-112227136D01*
X104338541Y-112125099D01*
X104325755Y-112119981D01*
X104036289Y-111985016D01*
X104024150Y-111978513D01*
X103751423Y-111812275D01*
X103740080Y-111804465D01*
X103487479Y-111609015D01*
X103477072Y-111599996D01*
X103247699Y-111377738D01*
X103238356Y-111367620D01*
X103035040Y-111121295D01*
X103026877Y-111110203D01*
X102852137Y-110842860D01*
X102845254Y-110830932D01*
X102701234Y-110545856D01*
X102695716Y-110533238D01*
X102584194Y-110233943D01*
X102580110Y-110220792D01*
X102501627Y-109907636D01*
X102500139Y-109900910D01*
X101761784Y-106061737D01*
X101761549Y-106060484D01*
X101750850Y-106001597D01*
X101750420Y-105999081D01*
X101740945Y-105940046D01*
X101740750Y-105938789D01*
X101025471Y-101169826D01*
X101024999Y-101166349D01*
X101005209Y-101003030D01*
X101004563Y-100996044D01*
X100994046Y-100831918D01*
X100993871Y-100828414D01*
X100846391Y-96698979D01*
X100846338Y-96691995D01*
X100853091Y-96364734D01*
X100854165Y-96350812D01*
X100897200Y-96029868D01*
X100899832Y-96016156D01*
X100978676Y-95702085D01*
X100982832Y-95688756D01*
X101096487Y-95385531D01*
X101102116Y-95372753D01*
X101249139Y-95084231D01*
X101256169Y-95072167D01*
X101434698Y-94802001D01*
X101443040Y-94790804D01*
X101650805Y-94542429D01*
X101660352Y-94532241D01*
X101894723Y-94308797D01*
X101905355Y-94299746D01*
X102163365Y-94104064D01*
X102174947Y-94096266D01*
X102453325Y-93930828D01*
X102465711Y-93924382D01*
X102760912Y-93791295D01*
X102773943Y-93786282D01*
X103082244Y-93687221D01*
X103095757Y-93683705D01*
X103416668Y-93619245D01*
X103423552Y-93618063D01*
X118553599Y-91456628D01*
X118560829Y-91455811D01*
X118900615Y-91427471D01*
X118915155Y-91427114D01*
X119252292Y-91438632D01*
G37*
G36*
X89945535Y-97662534D02*
G01*
X89960128Y-97663920D01*
X90296079Y-97716007D01*
X90310408Y-97719105D01*
X90637879Y-97810479D01*
X90651741Y-97815247D01*
X90966122Y-97944620D01*
X90979324Y-97950990D01*
X91276246Y-98116562D01*
X91288605Y-98124445D01*
X91563924Y-98323908D01*
X91575266Y-98333196D01*
X91825111Y-98563746D01*
X91835278Y-98574306D01*
X92056171Y-98832732D01*
X92065020Y-98844419D01*
X92253876Y-99127111D01*
X92261284Y-99139760D01*
X92415456Y-99442758D01*
X92421320Y-99456193D01*
X92538660Y-99775275D01*
X92542897Y-99789308D01*
X92622611Y-100123565D01*
X92624101Y-100130745D01*
X93703727Y-106238230D01*
X93704554Y-106243590D01*
X93737818Y-106495630D01*
X93738765Y-106506433D01*
X93749881Y-106760398D01*
X93750000Y-106765820D01*
X93750000Y-112479652D01*
X93749783Y-112486987D01*
X93729442Y-112830264D01*
X93727710Y-112844830D01*
X93667622Y-113179691D01*
X93664181Y-113193951D01*
X93564973Y-113519359D01*
X93559873Y-113533113D01*
X93422927Y-113844540D01*
X93416238Y-113857595D01*
X93243478Y-114150660D01*
X93235295Y-114162834D01*
X93029128Y-114433459D01*
X93019563Y-114444582D01*
X92782884Y-114688960D01*
X92772073Y-114698875D01*
X92508196Y-114913589D01*
X92496291Y-114922158D01*
X92208894Y-115104216D01*
X92196059Y-115111319D01*
X91885864Y-115259746D01*
X91879154Y-115262716D01*
X85613437Y-117817162D01*
X85606654Y-117819699D01*
X85285432Y-117929261D01*
X85271480Y-117933127D01*
X84943218Y-118003739D01*
X84928910Y-118005952D01*
X84591057Y-118038164D01*
X84583831Y-118038641D01*
X74672392Y-118402022D01*
X74665455Y-118402082D01*
X74340385Y-118395806D01*
X74326555Y-118394763D01*
X74007665Y-118352677D01*
X73994038Y-118350096D01*
X73681848Y-118272665D01*
X73668594Y-118268579D01*
X73366993Y-118156763D01*
X73354279Y-118151222D01*
X73067058Y-118006429D01*
X73055042Y-117999503D01*
X72785781Y-117823537D01*
X72774614Y-117815312D01*
X72526697Y-117610385D01*
X72516517Y-117600965D01*
X72293034Y-117369630D01*
X72283971Y-117359132D01*
X72087711Y-117104279D01*
X72079877Y-117092834D01*
X71913315Y-116817669D01*
X71906808Y-116805421D01*
X71772011Y-116513369D01*
X71766912Y-116500471D01*
X71665576Y-116195203D01*
X71661949Y-116181817D01*
X71594615Y-115863727D01*
X71593369Y-115856902D01*
X71053310Y-112346522D01*
X71052428Y-112339437D01*
X71020669Y-112006366D01*
X71020134Y-111992104D01*
X71026858Y-111657586D01*
X71027207Y-111650455D01*
X71355024Y-107438782D01*
X71363410Y-107268964D01*
X71363411Y-107268939D01*
X71362160Y-107098896D01*
X71214628Y-102968028D01*
X71214575Y-102961044D01*
X71221328Y-102633783D01*
X71222402Y-102619861D01*
X71265437Y-102298917D01*
X71268069Y-102285205D01*
X71346913Y-101971134D01*
X71351069Y-101957805D01*
X71464724Y-101654580D01*
X71470353Y-101641802D01*
X71617376Y-101353280D01*
X71624406Y-101341216D01*
X71802935Y-101071050D01*
X71811277Y-101059853D01*
X72019042Y-100811478D01*
X72028589Y-100801290D01*
X72262960Y-100577846D01*
X72273592Y-100568795D01*
X72531602Y-100373113D01*
X72543184Y-100365315D01*
X72821562Y-100199877D01*
X72833948Y-100193431D01*
X73129149Y-100060344D01*
X73142180Y-100055331D01*
X73450481Y-99956270D01*
X73463994Y-99952754D01*
X73784905Y-99888294D01*
X73791789Y-99887112D01*
X89241368Y-97680030D01*
X89248654Y-97679208D01*
X89591125Y-97650802D01*
X89605780Y-97650456D01*
X89945535Y-97662534D01*
G37*
G36*
X93577264Y-184399848D02*
G01*
X113341125Y-185243220D01*
X113344369Y-185243401D01*
X113496366Y-185253883D01*
X113502836Y-185254500D01*
X113654060Y-185272930D01*
X113657280Y-185273365D01*
X141593693Y-189423546D01*
X141600730Y-189424800D01*
X141928700Y-189493037D01*
X141942500Y-189496749D01*
X142257048Y-189601141D01*
X142270329Y-189606416D01*
X142570786Y-189746309D01*
X142583372Y-189753078D01*
X142865723Y-189926600D01*
X142877447Y-189934771D01*
X143137973Y-190139638D01*
X143148678Y-190149104D01*
X143383898Y-190382579D01*
X143393444Y-190393214D01*
X143602466Y-190654989D01*
X143606763Y-190660701D01*
X153604607Y-204779455D01*
X153608486Y-204785275D01*
X153782548Y-205063066D01*
X153789294Y-205075316D01*
X153929455Y-205367775D01*
X153934777Y-205380705D01*
X154041118Y-205687082D01*
X154044951Y-205700530D01*
X154116118Y-206016924D01*
X154118413Y-206030718D01*
X154153506Y-206353126D01*
X154154233Y-206367092D01*
X154152801Y-206691398D01*
X154151951Y-206705355D01*
X154114015Y-207027436D01*
X154111599Y-207041209D01*
X154037640Y-207356974D01*
X154033688Y-207370388D01*
X153924647Y-207675817D01*
X153919210Y-207688701D01*
X153776476Y-207979904D01*
X153769623Y-207992093D01*
X153595008Y-208265377D01*
X153586827Y-208276717D01*
X153380343Y-208531329D01*
X153375786Y-208536635D01*
X150769309Y-211403759D01*
X150764096Y-211409156D01*
X150512269Y-211654550D01*
X150500912Y-211664350D01*
X150224268Y-211875276D01*
X150211812Y-211883632D01*
X149911734Y-212059606D01*
X149898359Y-212066398D01*
X149579219Y-212204855D01*
X149565122Y-212209982D01*
X149231615Y-212308886D01*
X149217004Y-212312273D01*
X148870260Y-212370816D01*
X148862826Y-212371840D01*
X144356029Y-212854710D01*
X143995660Y-212915712D01*
X143645385Y-213020084D01*
X143310413Y-213166270D01*
X143310409Y-213166272D01*
X142995697Y-213352108D01*
X142705916Y-213574838D01*
X142705907Y-213574846D01*
X142445362Y-213831161D01*
X142217932Y-214117240D01*
X142217923Y-214117251D01*
X141696687Y-214861874D01*
X141692642Y-214867329D01*
X141496121Y-215117690D01*
X141487166Y-215127894D01*
X141266845Y-215352827D01*
X141256828Y-215361991D01*
X141013227Y-215561499D01*
X141002268Y-215569514D01*
X140738324Y-215741189D01*
X140726555Y-215747957D01*
X140445424Y-215889748D01*
X140432986Y-215895189D01*
X140134853Y-216006587D01*
X140128429Y-216008789D01*
X138496582Y-216518618D01*
X138171149Y-216641418D01*
X138171138Y-216641423D01*
X137862108Y-216801066D01*
X137862103Y-216801069D01*
X137573618Y-216995416D01*
X137309575Y-217221847D01*
X137309562Y-217221859D01*
X133488699Y-220903646D01*
X133483669Y-220908233D01*
X133242130Y-221116667D01*
X133231354Y-221124980D01*
X132971230Y-221303761D01*
X132959608Y-221310843D01*
X132681452Y-221460044D01*
X132669124Y-221465809D01*
X132376301Y-221583624D01*
X132363414Y-221588004D01*
X132059432Y-221673021D01*
X132046144Y-221675961D01*
X131734692Y-221727150D01*
X131721162Y-221728617D01*
X131402571Y-221745547D01*
X131395766Y-221745722D01*
X120043932Y-221725100D01*
X119976928Y-221705293D01*
X119931269Y-221652406D01*
X119929576Y-221648504D01*
X119927778Y-221644158D01*
X119923023Y-221630443D01*
X119903957Y-221562910D01*
X119847047Y-221510386D01*
X114519511Y-218803024D01*
X114519498Y-218803018D01*
X114248918Y-218681942D01*
X113967711Y-218588161D01*
X113967703Y-218588159D01*
X113678642Y-218522596D01*
X113678596Y-218522586D01*
X106955257Y-217343452D01*
X106947729Y-217341890D01*
X106597397Y-217257780D01*
X106582704Y-217253273D01*
X106249072Y-217127827D01*
X106235049Y-217121537D01*
X105919512Y-216955791D01*
X105906375Y-216947814D01*
X105610588Y-216742096D01*
X105604416Y-216737513D01*
X92335504Y-206231554D01*
X92329709Y-206226671D01*
X92065277Y-205989635D01*
X92054636Y-205978853D01*
X91823590Y-205714216D01*
X91814343Y-205702218D01*
X91617285Y-205411377D01*
X91609570Y-205398341D01*
X91449447Y-205085643D01*
X91443379Y-205071763D01*
X91322578Y-204741874D01*
X91318248Y-204727358D01*
X91238576Y-204385203D01*
X91236048Y-204370268D01*
X91198284Y-204017170D01*
X91197709Y-204009614D01*
X90448947Y-187536856D01*
X90448831Y-187529511D01*
X90453590Y-187185312D01*
X90454662Y-187170668D01*
X90499589Y-186833089D01*
X90502385Y-186818672D01*
X90586904Y-186488777D01*
X90591384Y-186474793D01*
X90714310Y-186157196D01*
X90720412Y-186143840D01*
X90880019Y-185843003D01*
X90887657Y-185830462D01*
X91081705Y-185550607D01*
X91090772Y-185539056D01*
X91316546Y-185284098D01*
X91326915Y-185273700D01*
X91581244Y-185047220D01*
X91592769Y-185038121D01*
X91872087Y-184843294D01*
X91884607Y-184835621D01*
X92185000Y-184675179D01*
X92198340Y-184669040D01*
X92515594Y-184545233D01*
X92529565Y-184540714D01*
X92859233Y-184455278D01*
X92873641Y-184452443D01*
X93211081Y-184406579D01*
X93225723Y-184405466D01*
X93569919Y-184399752D01*
X93577264Y-184399848D01*
G37*
G36*
X39778265Y-101990880D02*
G01*
X40091045Y-102007755D01*
X40104330Y-102009193D01*
X40410160Y-102059085D01*
X40423212Y-102061943D01*
X40721917Y-102144456D01*
X40734586Y-102148703D01*
X41022667Y-102262873D01*
X41034805Y-102268458D01*
X41308925Y-102412960D01*
X41320392Y-102419818D01*
X41577387Y-102592985D01*
X41588049Y-102601038D01*
X41827456Y-102802992D01*
X41832447Y-102807437D01*
X45464865Y-106223041D01*
X45470228Y-106228403D01*
X45713775Y-106487236D01*
X45723471Y-106498892D01*
X45931377Y-106782468D01*
X45939577Y-106795221D01*
X46111315Y-107102041D01*
X46117897Y-107115698D01*
X46250907Y-107441180D01*
X46255774Y-107455539D01*
X46349068Y-107798497D01*
X46350834Y-107805873D01*
X48542477Y-118376976D01*
X48543765Y-118384283D01*
X48593863Y-118728372D01*
X48595119Y-118743152D01*
X48603680Y-119087061D01*
X48603161Y-119101885D01*
X48570596Y-119444343D01*
X48568311Y-119459000D01*
X48495087Y-119795119D01*
X48491069Y-119809397D01*
X48378229Y-120134378D01*
X48372534Y-120148074D01*
X48220077Y-120460578D01*
X48216626Y-120467147D01*
X44255161Y-127487650D01*
X44251541Y-127493661D01*
X44073984Y-127770473D01*
X44065754Y-127781834D01*
X43860291Y-128034089D01*
X43850830Y-128044447D01*
X43618184Y-128271886D01*
X43607614Y-128281109D01*
X43350776Y-128480808D01*
X43339232Y-128488779D01*
X43061476Y-128658193D01*
X43049106Y-128664809D01*
X42753985Y-128801769D01*
X42740947Y-128806945D01*
X42432251Y-128909693D01*
X42418710Y-128913363D01*
X42100392Y-128980583D01*
X42086525Y-128982701D01*
X41759134Y-129013872D01*
X41752132Y-129014339D01*
X32860325Y-129355303D01*
X32853286Y-129355373D01*
X32523430Y-129349286D01*
X32509397Y-129348228D01*
X32185859Y-129305271D01*
X32172036Y-129302630D01*
X31855445Y-129223288D01*
X31842010Y-129219098D01*
X31536455Y-129104397D01*
X31523582Y-129098712D01*
X31232976Y-128950120D01*
X31220830Y-128943012D01*
X30948948Y-128762458D01*
X30937685Y-128754020D01*
X30688004Y-128543815D01*
X30677770Y-128534155D01*
X30453521Y-128297019D01*
X30444447Y-128286262D01*
X30248506Y-128025236D01*
X30240710Y-128013520D01*
X30075606Y-127731972D01*
X30069187Y-127719447D01*
X29937059Y-127421026D01*
X29932101Y-127407856D01*
X29834627Y-127096352D01*
X29831194Y-127082704D01*
X29768985Y-126758728D01*
X29767854Y-126751780D01*
X28578207Y-117855293D01*
X28577559Y-117849361D01*
X28553869Y-117570677D01*
X28553431Y-117558754D01*
X28556600Y-117282047D01*
X28557311Y-117270137D01*
X28587379Y-116992064D01*
X28588163Y-116986148D01*
X29916333Y-108532523D01*
X29917677Y-108525350D01*
X29990556Y-108191146D01*
X29994498Y-108177097D01*
X30104934Y-107857233D01*
X30110499Y-107843745D01*
X30259336Y-107535773D01*
X30262704Y-107529298D01*
X32493731Y-103531847D01*
X32497482Y-103525569D01*
X32681861Y-103236665D01*
X32690439Y-103224826D01*
X32905221Y-102962463D01*
X32915133Y-102951716D01*
X33159300Y-102716459D01*
X33170408Y-102706953D01*
X33440570Y-102502067D01*
X33452719Y-102493935D01*
X33745118Y-102322270D01*
X33758141Y-102315624D01*
X34068709Y-102179569D01*
X34082423Y-102174502D01*
X34406845Y-102075946D01*
X34421060Y-102072528D01*
X34754838Y-102012839D01*
X34769356Y-102011119D01*
X35111478Y-101990916D01*
X35118788Y-101990700D01*
X39771585Y-101990700D01*
X39778265Y-101990880D01*
G37*
G36*
X163783918Y-51512698D02*
G01*
X164112085Y-51531281D01*
X164126016Y-51532864D01*
X164446517Y-51587779D01*
X164460181Y-51590925D01*
X164772422Y-51681669D01*
X164785643Y-51686336D01*
X165085665Y-51811758D01*
X165098274Y-51817888D01*
X165382201Y-51976365D01*
X165394039Y-51983881D01*
X165658268Y-52173406D01*
X165669180Y-52182208D01*
X165910325Y-52400349D01*
X165920175Y-52410328D01*
X166135152Y-52654298D01*
X166143812Y-52665325D01*
X166329875Y-52932009D01*
X166337234Y-52943943D01*
X166493664Y-53232996D01*
X166496827Y-53239256D01*
X168322007Y-57121409D01*
X168325358Y-57129223D01*
X168469757Y-57500529D01*
X168474817Y-57516754D01*
X168567090Y-57904322D01*
X168568775Y-57912656D01*
X169891169Y-65847014D01*
X169892133Y-65854028D01*
X169927915Y-66183933D01*
X169928636Y-66198071D01*
X169926605Y-66526370D01*
X169925709Y-66540496D01*
X169886279Y-66866406D01*
X169883780Y-66880340D01*
X169807457Y-67199650D01*
X169803385Y-67213208D01*
X169691171Y-67521727D01*
X169685581Y-67534732D01*
X169538932Y-67828457D01*
X169531897Y-67840740D01*
X169352732Y-68115831D01*
X169344342Y-68127233D01*
X169134986Y-68380118D01*
X169125351Y-68390488D01*
X168888543Y-68617859D01*
X168877789Y-68627065D01*
X168616599Y-68825973D01*
X168604866Y-68833892D01*
X168319676Y-69003539D01*
X168313490Y-69006984D01*
X165152391Y-70650756D01*
X165145892Y-70653899D01*
X164837150Y-70792254D01*
X164823659Y-70797379D01*
X164504392Y-70897836D01*
X164490397Y-70901359D01*
X164161619Y-70964042D01*
X164147309Y-70965915D01*
X163813478Y-70989972D01*
X163799047Y-70990170D01*
X163464678Y-70975277D01*
X163450323Y-70973797D01*
X163119950Y-70920156D01*
X163105863Y-70917018D01*
X162780483Y-70824364D01*
X162773601Y-70822186D01*
X155265179Y-68202969D01*
X155258673Y-68200493D01*
X154957142Y-68075919D01*
X154944599Y-68069891D01*
X154662007Y-67914014D01*
X154650218Y-67906620D01*
X154386855Y-67720048D01*
X154375968Y-67711379D01*
X154135175Y-67496476D01*
X154125329Y-67486641D01*
X153910133Y-67246111D01*
X153901451Y-67235236D01*
X153714560Y-66972106D01*
X153707151Y-66960326D01*
X153550922Y-66677914D01*
X153544879Y-66665378D01*
X153421277Y-66367233D01*
X153416678Y-66354099D01*
X153327263Y-66043988D01*
X153324164Y-66030421D01*
X153270062Y-65712249D01*
X153268502Y-65698420D01*
X153250195Y-65372688D01*
X153250000Y-65365730D01*
X153250000Y-62560614D01*
X153250006Y-62559377D01*
X153250586Y-62501231D01*
X153250636Y-62498749D01*
X153252377Y-62440722D01*
X153252420Y-62439485D01*
X153454170Y-57395733D01*
X153454698Y-57388230D01*
X153490113Y-57037537D01*
X153492528Y-57022697D01*
X153569294Y-56682556D01*
X153573487Y-56668117D01*
X153690861Y-56339754D01*
X153696772Y-56325928D01*
X153853014Y-56014211D01*
X153860553Y-56001203D01*
X154053389Y-55710664D01*
X154062448Y-55698664D01*
X154291471Y-55430744D01*
X154296529Y-55425178D01*
X157187937Y-52431070D01*
X157193021Y-52426099D01*
X157437844Y-52200072D01*
X157448823Y-52191045D01*
X157715041Y-51996612D01*
X157726981Y-51988900D01*
X158013688Y-51826218D01*
X158026433Y-51819923D01*
X158329876Y-51691120D01*
X158343256Y-51686326D01*
X158659450Y-51593094D01*
X158673292Y-51589861D01*
X158998082Y-51533427D01*
X159012203Y-51531801D01*
X159344862Y-51512704D01*
X159351969Y-51512500D01*
X163776908Y-51512500D01*
X163783918Y-51512698D01*
G37*
G36*
X132249268Y-95590886D02*
G01*
X144375895Y-95958360D01*
X144383473Y-95958822D01*
X144737760Y-95991340D01*
X144752760Y-95993650D01*
X145096712Y-96068400D01*
X145111317Y-96072524D01*
X145443550Y-96188728D01*
X145457542Y-96194606D01*
X145773094Y-96350528D01*
X145786263Y-96358071D01*
X146080403Y-96551372D01*
X146092553Y-96560468D01*
X146360873Y-96788255D01*
X146371820Y-96798766D01*
X146612889Y-97060430D01*
X146617860Y-97066169D01*
X147578314Y-98246089D01*
X147582591Y-98251659D01*
X147775576Y-98518257D01*
X147783152Y-98530077D01*
X147943050Y-98813742D01*
X147949240Y-98826343D01*
X148076036Y-99126239D01*
X148080763Y-99139460D01*
X148172850Y-99451783D01*
X148176052Y-99465453D01*
X148232241Y-99786182D01*
X148233877Y-99800126D01*
X148253662Y-100128670D01*
X148253885Y-100135689D01*
X148292175Y-111058083D01*
X148291991Y-111065282D01*
X148273584Y-111402238D01*
X148271966Y-111416542D01*
X148215244Y-111745544D01*
X148211979Y-111759564D01*
X148117508Y-112079775D01*
X148112640Y-112093322D01*
X147981697Y-112400423D01*
X147975292Y-112413315D01*
X147809639Y-112703173D01*
X147801783Y-112715236D01*
X147603645Y-112983952D01*
X147594443Y-112995023D01*
X147366513Y-113238947D01*
X147356091Y-113248876D01*
X147101415Y-113464751D01*
X147089912Y-113473406D01*
X146811942Y-113658304D01*
X146799514Y-113665568D01*
X146501975Y-113817012D01*
X146488789Y-113822786D01*
X146172326Y-113939978D01*
X146165503Y-113942281D01*
X141257048Y-115442256D01*
X141250343Y-115444102D01*
X140933788Y-115521732D01*
X140920121Y-115524281D01*
X140600338Y-115565539D01*
X140586471Y-115566542D01*
X140264086Y-115571743D01*
X140250195Y-115571188D01*
X139929244Y-115540267D01*
X139915501Y-115538160D01*
X139600037Y-115471507D01*
X139586618Y-115467875D01*
X139277274Y-115365224D01*
X139270737Y-115362849D01*
X130202981Y-111777923D01*
X130191827Y-111772863D01*
X130012971Y-111680813D01*
X129992429Y-111667527D01*
X129839935Y-111545987D01*
X129822401Y-111528925D01*
X129696745Y-111379818D01*
X129682902Y-111359647D01*
X129588964Y-111188769D01*
X129579350Y-111166271D01*
X129520791Y-110980272D01*
X129515782Y-110956326D01*
X129494219Y-110756318D01*
X129493510Y-110744090D01*
X129487980Y-110099849D01*
X129485482Y-110000534D01*
X129479698Y-109901346D01*
X129012019Y-103660394D01*
X129011817Y-103657114D01*
X129004379Y-103503208D01*
X129004235Y-103496635D01*
X129004965Y-103342482D01*
X129005025Y-103339196D01*
X129156274Y-98499190D01*
X129156685Y-98492251D01*
X129185094Y-98167691D01*
X129187080Y-98153936D01*
X129250933Y-97838028D01*
X129254445Y-97824582D01*
X129353249Y-97517793D01*
X129358244Y-97504825D01*
X129490752Y-97211031D01*
X129497166Y-97198703D01*
X129661722Y-96921569D01*
X129669476Y-96910036D01*
X129864007Y-96653061D01*
X129873003Y-96642468D01*
X130095062Y-96408879D01*
X130105186Y-96399359D01*
X130351997Y-96192078D01*
X130363123Y-96183751D01*
X130631573Y-96005392D01*
X130643561Y-95998362D01*
X130930286Y-95851160D01*
X130942985Y-95845516D01*
X131244378Y-95731324D01*
X131257630Y-95727136D01*
X131569905Y-95647387D01*
X131583541Y-95644708D01*
X131902785Y-95600402D01*
X131916635Y-95599266D01*
X132242316Y-95590870D01*
X132249268Y-95590886D01*
G37*
M02*
