M48
; DRILL file KiCad 10.0.2 date 2026-09-22T16:59:30
; FORMAT={-:-/ absolute / metric / decimal}
; #@! TF.CreationDate,2026-09-22T16:59:30+02:00
; #@! TF.GenerationSoftware,Kicad,Pcbnew,10.0.2
; #@! TF.FileFunction,Plated,1,2,PTH
FMAT,2
METRIC
; #@! TA.AperFunction,Plated,PTH,ViaDrill
T1C0.300
; #@! TA.AperFunction,Plated,PTH,ViaDrill
T2C0.400
%
G90
G05
T1
X34.35Y-104.58
X36.79Y-125.22
X38.87Y-126.51
X55.02Y-183.25
X59.05Y-96.1
X77.58Y-58.01
X80.95Y-108.46
X84.7Y-58.888
X98.625Y-189.075
X98.725Y-197.1
X104.47Y-199.3
X106.5Y-203.75
X109.26Y-50.74
X109.425Y-152.025
X112.42Y-47.34
X112.55Y-109.22
X112.625Y-214.35
X113.7Y-152.7
X114.9Y-158.1
X115.29Y-207.93
X116.68Y-214.62
X119.45Y-215.38
X120.484Y-158.232
X121.77Y-219.27
X122.75Y-206.57
X123.4Y-199.62
X124.57Y-203.888
X126.17Y-216.84
X126.27Y-215.51
X127.38Y-214.65
X127.53Y-202.92
X128.12Y-144.34
X128.12Y-160.65
X128.325Y-210.575
X128.67Y-199.62
X129.13Y-141.28
X129.28Y-157.68
X129.87Y-218.48
X130.0Y-188.75
X138.02Y-111.2
X138.024Y-215.024
X140.08Y-197.79
X140.6Y-59.52
X142.8Y-56.36
X148.58Y-164.13
X148.594Y-142.39
X149.51Y-139.51
X149.57Y-167.42
X160.52Y-65.29
X162.06Y-121.08
X163.32Y-67.89
T2
X57.29Y-181.48
X84.7Y-107.76
X87.4Y-147.45
X93.81Y-147.34
X101.89Y-201.76
X105.51Y-145.72
X105.51Y-150.87
X111.425Y-200.925
X112.36Y-94.76
X117.95Y-104.125
X132.175Y-137.75
X133.03Y-201.9
X135.8Y-155.33
X136.58Y-198.21
X140.24Y-103.3
X141.123Y-137.625
X141.26Y-111.9
X144.81Y-146.2
X161.025Y-113.735
M30
