M48
; DRILL file KiCad 10.0.1 date 2026-09-15T10:25:01
; FORMAT={-:-/ absolute / metric / decimal}
; #@! TF.CreationDate,2026-09-15T10:25:01+02:00
; #@! TF.GenerationSoftware,Kicad,Pcbnew,10.0.1
; #@! TF.FileFunction,Plated,1,2,PTH
FMAT,2
METRIC
; #@! TA.AperFunction,Plated,PTH,ViaDrill
T1C0.300
; #@! TA.AperFunction,Plated,PTH,ViaDrill
T2C0.400
%
G90
G05
T1
X35.725Y-110.25
X53.55Y-180.77
X59.05Y-96.1
X80.95Y-108.46
X98.625Y-189.075
X98.725Y-197.1
X106.5Y-203.75
X109.425Y-152.025
X112.55Y-109.22
X112.625Y-214.35
X113.7Y-152.7
X114.9Y-158.1
X116.5Y-202.75
X116.68Y-214.62
X116.984Y-154.692
X119.2Y-210.13
X119.45Y-215.38
X120.484Y-158.232
X121.5Y-209.34
X121.8Y-219.75
X123.65Y-220.61
X125.62Y-197.86
X125.64Y-206.525
X126.16Y-220.35
X126.24Y-203.62
X126.27Y-194.15
X127.23Y-217.425
X128.07Y-214.65
X128.12Y-144.34
X128.12Y-157.17
X128.325Y-210.575
X129.13Y-141.28
X129.19Y-156.1
X129.97Y-220.69
X130.0Y-188.75
X134.75Y-221.0
X137.775Y-202.175
X138.02Y-111.2
X141.5Y-191.75
X148.6Y-145.37
X148.6Y-161.6
X149.57Y-141.625
X149.57Y-164.65
X162.06Y-121.08
T2
X57.29Y-181.48
X84.7Y-107.76
X87.4Y-147.45
X93.81Y-147.34
X101.89Y-201.76
X105.51Y-145.72
X105.51Y-150.87
X111.425Y-200.925
X112.36Y-94.76
X117.95Y-104.125
X132.175Y-137.75
X133.03Y-201.9
X135.8Y-155.33
X136.58Y-198.21
X139.23Y-137.625
X140.24Y-103.3
X141.26Y-111.9
X144.015Y-146.995
X161.025Y-113.735
M30
