M48
; DRILL file KiCad 10.0.1 date 2026-09-15T07:00:50
; FORMAT={-:-/ absolute / metric / decimal}
; #@! TF.CreationDate,2026-09-15T07:00:50+02:00
; #@! TF.GenerationSoftware,Kicad,Pcbnew,10.0.1
; #@! TF.FileFunction,Plated,1,2,PTH
FMAT,2
METRIC
; #@! TA.AperFunction,Plated,PTH,ViaDrill
T1C0.300
; #@! TA.AperFunction,Plated,PTH,ViaDrill
T2C0.500
; #@! TA.AperFunction,Plated,PTH,ComponentDrill
T3C0.600
; #@! TA.AperFunction,Plated,PTH,ComponentDrill
T4C1.000
; #@! TA.AperFunction,Plated,PTH,ComponentDrill
T5C1.199
; #@! TA.AperFunction,Plated,PTH,ComponentDrill
T6C1.300
; #@! TA.AperFunction,Plated,PTH,ComponentDrill
T7C1.700
%
G90
G05
T1
X112.0Y-24.0
X112.0Y-26.0
X112.0Y-39.0
X112.0Y-41.0
X112.0Y-43.0
X112.0Y-45.0
X112.0Y-47.0
X112.0Y-49.0
X112.0Y-51.0
X112.0Y-55.0
X112.0Y-57.0
X112.0Y-70.0
X112.0Y-72.0
X114.0Y-39.0
X114.0Y-41.0
X114.0Y-43.0
X114.0Y-45.0
X114.0Y-47.0
X114.0Y-49.0
X114.0Y-51.0
X114.0Y-70.0
X114.0Y-72.0
X116.0Y-24.0
X116.0Y-26.0
X116.0Y-45.0
X116.0Y-47.0
X116.0Y-49.0
X116.0Y-51.0
X116.0Y-55.0
X116.0Y-57.0
X118.0Y-41.0
X118.0Y-43.0
X118.0Y-45.0
X118.0Y-47.0
X118.0Y-49.0
X118.0Y-51.0
X120.0Y-24.0
X120.0Y-26.0
X120.0Y-28.0
X120.0Y-45.0
X120.0Y-47.0
X120.0Y-49.0
X120.0Y-51.0
X120.0Y-70.0
X120.0Y-72.0
X120.03Y-60.155
X120.09Y-67.895
X122.0Y-24.0
X122.0Y-26.0
X122.0Y-28.0
X122.0Y-36.0
X122.0Y-43.0
X122.0Y-47.0
X122.0Y-49.0
X122.0Y-59.0
X122.0Y-61.0
X122.0Y-66.0
X122.0Y-68.0
X122.0Y-70.0
X122.0Y-72.0
X124.0Y-24.0
X124.0Y-30.0
X124.0Y-36.0
X124.0Y-43.0
X124.0Y-45.0
X124.0Y-49.0
X124.0Y-53.0
X124.0Y-59.0
X124.0Y-61.0
X124.0Y-72.0
X126.0Y-24.0
X126.0Y-43.0
X126.0Y-45.0
X126.0Y-47.0
X126.0Y-51.0
X126.0Y-59.0
X126.0Y-61.0
X126.0Y-72.0
X127.37Y-65.545
X128.0Y-24.0
X128.0Y-26.0
X128.0Y-28.0
X128.0Y-30.0
X128.0Y-43.0
X128.0Y-45.0
X128.0Y-47.0
X128.0Y-49.0
X128.0Y-53.0
X128.0Y-59.0
X128.0Y-72.0
X130.0Y-24.0
X130.0Y-26.0
X130.0Y-28.0
X130.0Y-30.0
X130.0Y-43.0
X130.0Y-45.0
X130.0Y-47.0
X130.0Y-49.0
X130.0Y-53.0
X130.0Y-59.0
X130.0Y-72.0
X132.0Y-24.0
X132.0Y-26.0
X132.0Y-28.0
X132.0Y-30.0
X132.0Y-45.0
X132.0Y-47.0
X132.0Y-49.0
X132.0Y-53.0
X132.0Y-72.0
X132.93Y-59.137
X134.0Y-26.0
X134.0Y-28.0
X134.0Y-30.0
X134.155Y-63.2
X134.305Y-61.925
X134.305Y-64.5
X134.505Y-56.912
X135.0Y-82.0
X135.0Y-84.0
X135.0Y-86.0
X135.0Y-90.0
X135.0Y-92.0
X135.0Y-94.0
X135.0Y-96.0
X135.0Y-98.0
X135.0Y-100.0
X135.95Y-39.63
X136.0Y-26.0
X136.0Y-28.0
X136.0Y-34.0
X136.0Y-36.0
X136.0Y-38.0
X136.0Y-45.0
X136.0Y-47.0
X136.0Y-70.0
X136.18Y-66.8
X137.0Y-84.0
X137.0Y-98.0
X137.0Y-100.0
X137.525Y-91.325
X138.0Y-26.0
X138.0Y-45.0
X138.0Y-47.0
X138.0Y-68.0
X138.0Y-70.0
X139.0Y-53.0
X139.0Y-94.0
X139.0Y-96.0
X139.0Y-98.0
X139.0Y-100.0
X139.5Y-47.05
X139.625Y-92.8
X140.0Y-26.0
X140.0Y-68.0
X140.0Y-70.0
X141.0Y-82.0
X141.0Y-84.0
X141.0Y-94.0
X141.0Y-96.0
X141.0Y-98.0
X141.0Y-100.0
X142.0Y-26.0
X142.0Y-68.0
X142.0Y-70.0
X143.0Y-76.0
X143.0Y-78.0
X143.0Y-94.0
X143.0Y-96.0
X143.0Y-98.0
X143.0Y-100.0
X143.175Y-46.175
X144.0Y-26.0
X144.0Y-68.0
X144.0Y-70.0
X144.5Y-86.995
X145.0Y-92.0
X145.0Y-94.0
X145.0Y-96.0
X145.0Y-100.0
X145.425Y-48.025
X146.0Y-26.0
X146.0Y-68.0
X146.0Y-70.0
X147.0Y-92.0
X147.0Y-100.0
X147.275Y-87.675
X148.0Y-26.0
X148.0Y-68.0
X148.0Y-70.0
X148.625Y-46.2
X149.0Y-92.0
X149.0Y-94.0
X149.0Y-96.0
X149.0Y-98.0
X149.025Y-88.15
X149.25Y-90.5
X150.0Y-26.0
X150.0Y-68.0
X150.0Y-70.0
X150.0Y-76.0
X150.0Y-78.0
X151.005Y-58.696
X151.7Y-60.475
X151.75Y-46.225
X152.0Y-26.0
X152.0Y-66.0
X152.0Y-68.0
X152.0Y-70.0
X152.3Y-58.7
X152.38Y-62.059
X152.98Y-58.25
X152.98Y-61.5
X153.0Y-100.0
X153.58Y-62.3
X153.75Y-58.85
X154.0Y-26.0
X154.0Y-64.0
X154.0Y-66.0
X154.0Y-68.0
X154.0Y-76.0
X154.2Y-48.975
X154.375Y-37.525
X154.675Y-42.425
X155.0Y-52.0
X155.0Y-100.0
X156.0Y-26.0
X156.0Y-76.0
X156.237Y-58.125
X156.237Y-63.025
X157.0Y-42.0
X157.0Y-52.0
X157.0Y-54.0
X157.0Y-100.0
X157.1Y-35.225
X157.75Y-36.55
X158.0Y-26.0
X158.725Y-39.05
X159.0Y-42.0
X159.0Y-52.0
X159.0Y-54.0
X159.0Y-66.0
X159.0Y-76.0
X159.0Y-100.0
X160.0Y-26.0
X161.0Y-42.0
X161.0Y-72.0
X161.0Y-76.0
X161.0Y-78.0
X161.0Y-80.0
X161.0Y-82.0
X161.0Y-84.0
X161.0Y-88.0
X161.0Y-90.0
X161.0Y-92.0
X161.0Y-94.0
X161.0Y-96.0
X161.0Y-98.0
X161.0Y-100.0
X161.05Y-49.525
X161.65Y-51.275
X161.75Y-53.7
X162.0Y-26.0
X162.462Y-63.375
X162.562Y-58.05
X162.771Y-51.518
X162.875Y-46.5
X162.95Y-48.8
X163.0Y-32.0
X163.0Y-34.0
X163.0Y-36.0
X163.0Y-38.0
X163.0Y-42.0
X163.0Y-56.0
X163.0Y-72.0
X163.0Y-76.0
X163.0Y-78.0
X163.0Y-80.0
X163.0Y-82.0
X163.0Y-84.0
X163.0Y-88.0
X163.0Y-90.0
X163.0Y-92.0
X163.0Y-94.0
X163.0Y-96.0
X163.0Y-98.0
X163.0Y-100.0
X163.4Y-49.525
X164.0Y-26.0
X164.0Y-54.0
X164.75Y-33.49
X165.0Y-58.0
X165.0Y-62.0
X165.0Y-64.0
X165.0Y-66.0
X165.0Y-72.0
X165.0Y-76.0
X165.0Y-78.0
X165.0Y-80.0
X165.0Y-82.0
X165.0Y-84.0
X165.0Y-88.0
X165.0Y-90.0
X165.0Y-92.0
X165.0Y-94.0
X165.0Y-96.0
X165.0Y-98.0
X165.0Y-100.0
X165.23Y-38.59
X165.963Y-34.812
X166.0Y-24.0
X166.0Y-26.0
X166.0Y-28.0
X166.0Y-30.0
X166.0Y-32.0
X166.563Y-37.05
X167.0Y-76.0
X167.0Y-78.0
X167.0Y-80.0
X167.0Y-82.0
X167.0Y-84.0
X167.0Y-88.0
X167.0Y-90.0
X167.0Y-92.0
X167.0Y-94.0
X167.0Y-96.0
X167.0Y-98.0
X167.0Y-100.0
X168.0Y-24.0
X168.0Y-26.0
X168.0Y-28.0
X168.0Y-30.0
X168.0Y-32.0
X168.0Y-34.0
X168.2Y-38.75
X169.0Y-76.0
X169.0Y-78.0
X169.0Y-80.0
X169.0Y-82.0
X169.0Y-84.0
X169.0Y-88.0
X169.0Y-90.0
X169.0Y-92.0
X169.0Y-94.0
X169.0Y-96.0
X169.0Y-98.0
X169.0Y-100.0
X170.0Y-24.0
X170.0Y-26.0
X170.0Y-28.0
X170.0Y-30.0
X170.0Y-32.0
X170.0Y-34.0
X170.0Y-36.0
X170.0Y-38.0
T2
X120.83Y-62.262
X120.83Y-65.987
X132.925Y-68.275
X133.535Y-58.3
X133.685Y-53.137
X133.727Y-54.795
X134.75Y-50.55
X136.0Y-71.75
X137.05Y-49.9
X144.58Y-57.787
X144.58Y-61.412
X147.975Y-49.95
X149.0Y-51.15
X154.975Y-71.75
X157.5Y-71.75
X163.0Y-40.0
X170.1Y-39.792
T4
X123.705Y-56.325
X126.245Y-56.325
X128.785Y-56.325
X131.325Y-56.325
X144.115Y-79.45
X146.655Y-79.45
X149.195Y-79.45
X151.735Y-79.45
X168.425Y-57.85
X168.425Y-60.39
X168.425Y-62.93
X168.425Y-65.47
X168.425Y-68.01
X168.425Y-70.55
T5
X127.825Y-81.315
T6
X121.475Y-96.555
X127.825Y-88.3
X131.635Y-88.3
T7
X118.3Y-92.11
X123.38Y-84.49
X131.635Y-84.49
X131.635Y-92.11
T3
G00X114.14Y-28.26
M15
G01X113.34Y-28.26
M16
G05
G00X114.14Y-36.9
M15
G01X113.34Y-36.9
M16
G05
G00X114.367Y-59.695
M15
G01X113.567Y-59.695
M16
G05
G00X114.367Y-68.335
M15
G01X113.567Y-68.335
M16
G05
G00X118.47Y-28.26
M15
G01X117.37Y-28.26
M16
G05
G00X118.47Y-36.9
M15
G01X117.37Y-36.9
M16
G05
G00X118.697Y-59.695
M15
G01X117.597Y-59.695
M16
G05
G00X118.697Y-68.335
M15
G01X117.597Y-68.335
M16
G05
M30
