%TF.GenerationSoftware,KiCad,Pcbnew,10.0.2*%
%TF.CreationDate,2026-09-18T18:58:37+02:00*%
%TF.ProjectId,HandFPC,48616e64-4650-4432-9e6b-696361645f70,rev?*%
%TF.SameCoordinates,Original*%
%TF.FileFunction,Soldermask,Top*%
%TF.FilePolarity,Negative*%
%FSLAX46Y46*%
G04 Gerber Fmt 4.6, Leading zero omitted, Abs format (unit mm)*
G04 Created by KiCad (PCBNEW 10.0.2) date 2026-09-18 18:58:37*
%MOMM*%
%LPD*%
G01*
G04 APERTURE LIST*
G04 Aperture macros list*
%AMRoundRect*
0 Rectangle with rounded corners*
0 $1 Rounding radius*
0 $2 $3 $4 $5 $6 $7 $8 $9 X,Y pos of 4 corners*
0 Add a 4 corners polygon primitive as box body*
4,1,4,$2,$3,$4,$5,$6,$7,$8,$9,$2,$3,0*
0 Add four circle primitives for the rounded corners*
1,1,$1+$1,$2,$3*
1,1,$1+$1,$4,$5*
1,1,$1+$1,$6,$7*
1,1,$1+$1,$8,$9*
0 Add four rect primitives between the rounded corners*
20,1,$1+$1,$2,$3,$4,$5,0*
20,1,$1+$1,$4,$5,$6,$7,0*
20,1,$1+$1,$6,$7,$8,$9,0*
20,1,$1+$1,$8,$9,$2,$3,0*%
G04 Aperture macros list end*
%ADD10RoundRect,0.180000X0.420000X0.720000X-0.420000X0.720000X-0.420000X-0.720000X0.420000X-0.720000X0*%
%ADD11RoundRect,0.090000X0.210000X0.685000X-0.210000X0.685000X-0.210000X-0.685000X0.210000X-0.685000X0*%
%ADD12RoundRect,0.250000X-0.350000X-0.650000X0.350000X-0.650000X0.350000X0.650000X-0.350000X0.650000X0*%
%ADD13RoundRect,0.150000X-0.150000X-0.625000X0.150000X-0.625000X0.150000X0.625000X-0.150000X0.625000X0*%
%ADD14RoundRect,0.189612X-0.284417X0.310623X-0.284417X-0.310623X0.284417X-0.310623X0.284417X0.310623X0*%
%ADD15RoundRect,0.194158X-0.291238X0.333110X-0.291238X-0.333110X0.291238X-0.333110X0.291238X0.333110X0*%
%ADD16C,1.020000*%
%ADD17RoundRect,0.150000X-0.150000X0.512500X-0.150000X-0.512500X0.150000X-0.512500X0.150000X0.512500X0*%
%ADD18RoundRect,0.180000X-0.212132X0.806102X-0.806102X0.212132X0.212132X-0.806102X0.806102X-0.212132X0*%
%ADD19RoundRect,0.090000X-0.335876X0.632861X-0.632861X0.335876X0.335876X-0.632861X0.632861X-0.335876X0*%
%ADD20RoundRect,0.180000X-0.720000X0.420000X-0.720000X-0.420000X0.720000X-0.420000X0.720000X0.420000X0*%
%ADD21RoundRect,0.090000X-0.685000X0.210000X-0.685000X-0.210000X0.685000X-0.210000X0.685000X0.210000X0*%
%ADD22RoundRect,0.086243X0.358757X0.086242X-0.358757X0.086242X-0.358757X-0.086242X0.358757X-0.086242X0*%
%ADD23RoundRect,0.087500X0.352500X0.087499X-0.352500X0.087499X-0.352500X-0.087499X0.352500X-0.087499X0*%
%ADD24RoundRect,0.086228X0.354767X0.086227X-0.354767X0.086227X-0.354767X-0.086227X0.354767X-0.086227X0*%
%ADD25RoundRect,0.089233X0.344340X0.089233X-0.344340X0.089233X-0.344340X-0.089233X0.344340X-0.089233X0*%
%ADD26RoundRect,0.091177X0.091177X0.350789X-0.091177X0.350789X-0.091177X-0.350789X0.091177X-0.350789X0*%
%ADD27RoundRect,0.085012X0.085011X0.355909X-0.085011X0.355909X-0.085011X-0.355909X0.085011X-0.355909X0*%
%ADD28RoundRect,0.089508X0.089507X0.353871X-0.089507X0.353871X-0.089507X-0.353871X0.089507X-0.353871X0*%
%ADD29RoundRect,0.091827X0.374766X0.091827X-0.374766X0.091827X-0.374766X-0.091827X0.374766X-0.091827X0*%
%ADD30RoundRect,0.085013X0.386780X0.085012X-0.386780X0.085012X-0.386780X-0.085012X0.386780X-0.085012X0*%
%ADD31RoundRect,0.085817X0.380422X0.085817X-0.380422X0.085817X-0.380422X-0.085817X0.380422X-0.085817X0*%
%ADD32RoundRect,0.087497X0.377503X0.087496X-0.377503X0.087496X-0.377503X-0.087496X0.377503X-0.087496X0*%
%ADD33RoundRect,0.089703X0.089703X0.348493X-0.089703X0.348493X-0.089703X-0.348493X0.089703X-0.348493X0*%
%ADD34RoundRect,0.092364X0.092364X0.348560X-0.092364X0.348560X-0.092364X-0.348560X0.092364X-0.348560X0*%
%ADD35RoundRect,0.090264X0.090263X0.352482X-0.090263X0.352482X-0.090263X-0.352482X0.090263X-0.352482X0*%
%ADD36RoundRect,0.189612X0.310623X0.284417X-0.310623X0.284417X-0.310623X-0.284417X0.310623X-0.284417X0*%
%ADD37RoundRect,0.194158X0.333110X0.291238X-0.333110X0.291238X-0.333110X-0.291238X0.333110X-0.291238X0*%
%ADD38RoundRect,0.180000X0.806102X0.212132X0.212132X0.806102X-0.806102X-0.212132X-0.212132X-0.806102X0*%
%ADD39RoundRect,0.090000X0.632861X0.335876X0.335876X0.632861X-0.632861X-0.335876X-0.335876X-0.632861X0*%
%ADD40RoundRect,0.189612X0.284417X-0.310623X0.284417X0.310623X-0.284417X0.310623X-0.284417X-0.310623X0*%
%ADD41RoundRect,0.194158X0.291238X-0.333110X0.291238X0.333110X-0.291238X0.333110X-0.291238X-0.333110X0*%
G04 APERTURE END LIST*
%TO.C,J1*%
G36*
X120180000Y-221877500D02*
G01*
X132330000Y-221877500D01*
X132330000Y-226737500D01*
X120180000Y-226737500D01*
X120180000Y-221877500D01*
G37*
%TD*%
D10*
%TO.C,J6*%
X123880000Y-190280000D03*
D11*
X122580000Y-194180000D03*
X120580000Y-194180000D03*
X119580000Y-194180000D03*
D10*
X118280000Y-190305000D03*
%TD*%
D12*
%TO.C,J9*%
X105030000Y-34680000D03*
D13*
X106330000Y-30805000D03*
X107330000Y-30805000D03*
D12*
X108630000Y-34675000D03*
X108630000Y-34680000D03*
%TD*%
D14*
%TO.C,C1*%
X118794029Y-153030000D03*
D15*
X118800000Y-154750000D03*
%TD*%
D16*
%TO.C,TP9*%
X121500000Y-142750000D03*
%TD*%
%TO.C,TP3*%
X136000000Y-160500000D03*
%TD*%
%TO.C,TP5*%
X118000000Y-161750000D03*
%TD*%
D12*
%TO.C,J11*%
X159820000Y-57100000D03*
D13*
X161120000Y-53225000D03*
X162120000Y-53225000D03*
D12*
X163420000Y-57095000D03*
X163420000Y-57100000D03*
%TD*%
%TO.C,J8*%
X72820000Y-44315000D03*
D13*
X74120000Y-40440000D03*
X75120000Y-40440000D03*
D12*
X76420000Y-44310000D03*
X76420000Y-44315000D03*
%TD*%
D17*
%TO.C,U2*%
X57710000Y-92812500D03*
X55810000Y-92812500D03*
X56760000Y-95087500D03*
%TD*%
D18*
%TO.C,J5*%
X108451174Y-192283396D03*
D19*
X110289651Y-195960351D03*
X108875438Y-197374564D03*
X108168331Y-198081671D03*
D18*
X104509053Y-196260871D03*
%TD*%
D16*
%TO.C,TP2*%
X131500000Y-206750000D03*
%TD*%
%TO.C,TP7*%
X121140000Y-205100000D03*
%TD*%
D20*
%TO.C,J4*%
X108410000Y-202290000D03*
D21*
X112310000Y-203590000D03*
X112310000Y-205590000D03*
X112310000Y-206590000D03*
D20*
X108435000Y-207890000D03*
%TD*%
D16*
%TO.C,TP8*%
X51750000Y-182500000D03*
%TD*%
D12*
%TO.C,J7*%
X35460000Y-107330000D03*
D13*
X36760000Y-103455000D03*
X37760000Y-103455000D03*
D12*
X39060000Y-107325000D03*
X39060000Y-107330000D03*
%TD*%
D16*
%TO.C,TP1*%
X117920000Y-206870000D03*
%TD*%
D22*
%TO.C,U1*%
X118619406Y-158064314D03*
D23*
X118614406Y-157561803D03*
D24*
X118615401Y-157064349D03*
D25*
X118607979Y-156558338D03*
D26*
X117797052Y-156249838D03*
D27*
X117309381Y-156250883D03*
D28*
X116800391Y-156248425D03*
D29*
X115967813Y-156553150D03*
D30*
X115962613Y-157066779D03*
D31*
X115968167Y-157565168D03*
D32*
X115969406Y-158061797D03*
D33*
X116800000Y-158370000D03*
D34*
X117294678Y-158372728D03*
D35*
X117798876Y-158374550D03*
%TD*%
D16*
%TO.C,TP6*%
X99000000Y-201750000D03*
%TD*%
D36*
%TO.C,C4*%
X57710000Y-90624029D03*
D37*
X55990000Y-90630000D03*
%TD*%
D38*
%TO.C,J2*%
X147414062Y-200118630D03*
D39*
X143737107Y-201957107D03*
X142322894Y-200542894D03*
X141615787Y-199835787D03*
D38*
X143436587Y-196176509D03*
%TD*%
D10*
%TO.C,J3*%
X136310000Y-190840000D03*
D11*
X135010000Y-194740000D03*
X133010000Y-194740000D03*
X132010000Y-194740000D03*
D10*
X130710000Y-190865000D03*
%TD*%
D16*
%TO.C,TP10*%
X122000000Y-162250000D03*
%TD*%
D40*
%TO.C,C2*%
X112105971Y-155270000D03*
D41*
X112100000Y-153550000D03*
%TD*%
D40*
%TO.C,C3*%
X114105971Y-155970000D03*
D41*
X114100000Y-154250000D03*
%TD*%
D12*
%TO.C,J10*%
X136230000Y-42400000D03*
D13*
X137530000Y-38525000D03*
X138530000Y-38525000D03*
D12*
X139830000Y-42395000D03*
X139830000Y-42400000D03*
%TD*%
D16*
%TO.C,TP4*%
X116320000Y-203480000D03*
%TD*%
M02*
