%TF.GenerationSoftware,KiCad,Pcbnew,10.0.1*%
%TF.CreationDate,2026-09-15T10:36:35+02:00*%
%TF.ProjectId,HandFPC,48616e64-4650-4432-9e6b-696361645f70,rev?*%
%TF.SameCoordinates,Original*%
%TF.FileFunction,Legend,Top*%
%TF.FilePolarity,Positive*%
%FSLAX46Y46*%
G04 Gerber Fmt 4.6, Leading zero omitted, Abs format (unit mm)*
G04 Created by KiCad (PCBNEW 10.0.1) date 2026-09-15 10:36:35*
%MOMM*%
%LPD*%
G01*
G04 APERTURE LIST*
%ADD10C,0.150000*%
%ADD11C,0.100000*%
%ADD12C,0.000000*%
%ADD13C,0.120000*%
%ADD14C,0.123807*%
%ADD15C,0.191421*%
%ADD16C,0.175000*%
G04 APERTURE END LIST*
D10*
X120664285Y-159597342D02*
X121350000Y-159597342D01*
X121007142Y-160797342D02*
X121007142Y-159597342D01*
X121750000Y-160797342D02*
X121750000Y-159597342D01*
X121750000Y-159597342D02*
X122207143Y-159597342D01*
X122207143Y-159597342D02*
X122321428Y-159654485D01*
X122321428Y-159654485D02*
X122378571Y-159711628D01*
X122378571Y-159711628D02*
X122435714Y-159825914D01*
X122435714Y-159825914D02*
X122435714Y-159997342D01*
X122435714Y-159997342D02*
X122378571Y-160111628D01*
X122378571Y-160111628D02*
X122321428Y-160168771D01*
X122321428Y-160168771D02*
X122207143Y-160225914D01*
X122207143Y-160225914D02*
X121750000Y-160225914D01*
X123578571Y-160797342D02*
X122892857Y-160797342D01*
X123235714Y-160797342D02*
X123235714Y-159597342D01*
X123235714Y-159597342D02*
X123121428Y-159768771D01*
X123121428Y-159768771D02*
X123007143Y-159883057D01*
X123007143Y-159883057D02*
X122892857Y-159940200D01*
X124321428Y-159597342D02*
X124435714Y-159597342D01*
X124435714Y-159597342D02*
X124550000Y-159654485D01*
X124550000Y-159654485D02*
X124607143Y-159711628D01*
X124607143Y-159711628D02*
X124664285Y-159825914D01*
X124664285Y-159825914D02*
X124721428Y-160054485D01*
X124721428Y-160054485D02*
X124721428Y-160340200D01*
X124721428Y-160340200D02*
X124664285Y-160568771D01*
X124664285Y-160568771D02*
X124607143Y-160683057D01*
X124607143Y-160683057D02*
X124550000Y-160740200D01*
X124550000Y-160740200D02*
X124435714Y-160797342D01*
X124435714Y-160797342D02*
X124321428Y-160797342D01*
X124321428Y-160797342D02*
X124207143Y-160740200D01*
X124207143Y-160740200D02*
X124150000Y-160683057D01*
X124150000Y-160683057D02*
X124092857Y-160568771D01*
X124092857Y-160568771D02*
X124035714Y-160340200D01*
X124035714Y-160340200D02*
X124035714Y-160054485D01*
X124035714Y-160054485D02*
X124092857Y-159825914D01*
X124092857Y-159825914D02*
X124150000Y-159711628D01*
X124150000Y-159711628D02*
X124207143Y-159654485D01*
X124207143Y-159654485D02*
X124321428Y-159597342D01*
X120485714Y-140097342D02*
X121171429Y-140097342D01*
X120828571Y-141297342D02*
X120828571Y-140097342D01*
X121571429Y-141297342D02*
X121571429Y-140097342D01*
X121571429Y-140097342D02*
X122028572Y-140097342D01*
X122028572Y-140097342D02*
X122142857Y-140154485D01*
X122142857Y-140154485D02*
X122200000Y-140211628D01*
X122200000Y-140211628D02*
X122257143Y-140325914D01*
X122257143Y-140325914D02*
X122257143Y-140497342D01*
X122257143Y-140497342D02*
X122200000Y-140611628D01*
X122200000Y-140611628D02*
X122142857Y-140668771D01*
X122142857Y-140668771D02*
X122028572Y-140725914D01*
X122028572Y-140725914D02*
X121571429Y-140725914D01*
X122828572Y-141297342D02*
X123057143Y-141297342D01*
X123057143Y-141297342D02*
X123171429Y-141240200D01*
X123171429Y-141240200D02*
X123228572Y-141183057D01*
X123228572Y-141183057D02*
X123342857Y-141011628D01*
X123342857Y-141011628D02*
X123400000Y-140783057D01*
X123400000Y-140783057D02*
X123400000Y-140325914D01*
X123400000Y-140325914D02*
X123342857Y-140211628D01*
X123342857Y-140211628D02*
X123285715Y-140154485D01*
X123285715Y-140154485D02*
X123171429Y-140097342D01*
X123171429Y-140097342D02*
X122942857Y-140097342D01*
X122942857Y-140097342D02*
X122828572Y-140154485D01*
X122828572Y-140154485D02*
X122771429Y-140211628D01*
X122771429Y-140211628D02*
X122714286Y-140325914D01*
X122714286Y-140325914D02*
X122714286Y-140611628D01*
X122714286Y-140611628D02*
X122771429Y-140725914D01*
X122771429Y-140725914D02*
X122828572Y-140783057D01*
X122828572Y-140783057D02*
X122942857Y-140840200D01*
X122942857Y-140840200D02*
X123171429Y-140840200D01*
X123171429Y-140840200D02*
X123285715Y-140783057D01*
X123285715Y-140783057D02*
X123342857Y-140725914D01*
X123342857Y-140725914D02*
X123400000Y-140611628D01*
X50735714Y-179847342D02*
X51421429Y-179847342D01*
X51078571Y-181047342D02*
X51078571Y-179847342D01*
X51821429Y-181047342D02*
X51821429Y-179847342D01*
X51821429Y-179847342D02*
X52278572Y-179847342D01*
X52278572Y-179847342D02*
X52392857Y-179904485D01*
X52392857Y-179904485D02*
X52450000Y-179961628D01*
X52450000Y-179961628D02*
X52507143Y-180075914D01*
X52507143Y-180075914D02*
X52507143Y-180247342D01*
X52507143Y-180247342D02*
X52450000Y-180361628D01*
X52450000Y-180361628D02*
X52392857Y-180418771D01*
X52392857Y-180418771D02*
X52278572Y-180475914D01*
X52278572Y-180475914D02*
X51821429Y-180475914D01*
X53192857Y-180361628D02*
X53078572Y-180304485D01*
X53078572Y-180304485D02*
X53021429Y-180247342D01*
X53021429Y-180247342D02*
X52964286Y-180133057D01*
X52964286Y-180133057D02*
X52964286Y-180075914D01*
X52964286Y-180075914D02*
X53021429Y-179961628D01*
X53021429Y-179961628D02*
X53078572Y-179904485D01*
X53078572Y-179904485D02*
X53192857Y-179847342D01*
X53192857Y-179847342D02*
X53421429Y-179847342D01*
X53421429Y-179847342D02*
X53535715Y-179904485D01*
X53535715Y-179904485D02*
X53592857Y-179961628D01*
X53592857Y-179961628D02*
X53650000Y-180075914D01*
X53650000Y-180075914D02*
X53650000Y-180133057D01*
X53650000Y-180133057D02*
X53592857Y-180247342D01*
X53592857Y-180247342D02*
X53535715Y-180304485D01*
X53535715Y-180304485D02*
X53421429Y-180361628D01*
X53421429Y-180361628D02*
X53192857Y-180361628D01*
X53192857Y-180361628D02*
X53078572Y-180418771D01*
X53078572Y-180418771D02*
X53021429Y-180475914D01*
X53021429Y-180475914D02*
X52964286Y-180590200D01*
X52964286Y-180590200D02*
X52964286Y-180818771D01*
X52964286Y-180818771D02*
X53021429Y-180933057D01*
X53021429Y-180933057D02*
X53078572Y-180990200D01*
X53078572Y-180990200D02*
X53192857Y-181047342D01*
X53192857Y-181047342D02*
X53421429Y-181047342D01*
X53421429Y-181047342D02*
X53535715Y-180990200D01*
X53535715Y-180990200D02*
X53592857Y-180933057D01*
X53592857Y-180933057D02*
X53650000Y-180818771D01*
X53650000Y-180818771D02*
X53650000Y-180590200D01*
X53650000Y-180590200D02*
X53592857Y-180475914D01*
X53592857Y-180475914D02*
X53535715Y-180418771D01*
X53535715Y-180418771D02*
X53421429Y-180361628D01*
X120235714Y-204347342D02*
X120921429Y-204347342D01*
X120578571Y-205547342D02*
X120578571Y-204347342D01*
X121321429Y-205547342D02*
X121321429Y-204347342D01*
X121321429Y-204347342D02*
X121778572Y-204347342D01*
X121778572Y-204347342D02*
X121892857Y-204404485D01*
X121892857Y-204404485D02*
X121950000Y-204461628D01*
X121950000Y-204461628D02*
X122007143Y-204575914D01*
X122007143Y-204575914D02*
X122007143Y-204747342D01*
X122007143Y-204747342D02*
X121950000Y-204861628D01*
X121950000Y-204861628D02*
X121892857Y-204918771D01*
X121892857Y-204918771D02*
X121778572Y-204975914D01*
X121778572Y-204975914D02*
X121321429Y-204975914D01*
X122407143Y-204347342D02*
X123207143Y-204347342D01*
X123207143Y-204347342D02*
X122692857Y-205547342D01*
X97985714Y-199097342D02*
X98671429Y-199097342D01*
X98328571Y-200297342D02*
X98328571Y-199097342D01*
X99071429Y-200297342D02*
X99071429Y-199097342D01*
X99071429Y-199097342D02*
X99528572Y-199097342D01*
X99528572Y-199097342D02*
X99642857Y-199154485D01*
X99642857Y-199154485D02*
X99700000Y-199211628D01*
X99700000Y-199211628D02*
X99757143Y-199325914D01*
X99757143Y-199325914D02*
X99757143Y-199497342D01*
X99757143Y-199497342D02*
X99700000Y-199611628D01*
X99700000Y-199611628D02*
X99642857Y-199668771D01*
X99642857Y-199668771D02*
X99528572Y-199725914D01*
X99528572Y-199725914D02*
X99071429Y-199725914D01*
X100785715Y-199097342D02*
X100557143Y-199097342D01*
X100557143Y-199097342D02*
X100442857Y-199154485D01*
X100442857Y-199154485D02*
X100385715Y-199211628D01*
X100385715Y-199211628D02*
X100271429Y-199383057D01*
X100271429Y-199383057D02*
X100214286Y-199611628D01*
X100214286Y-199611628D02*
X100214286Y-200068771D01*
X100214286Y-200068771D02*
X100271429Y-200183057D01*
X100271429Y-200183057D02*
X100328572Y-200240200D01*
X100328572Y-200240200D02*
X100442857Y-200297342D01*
X100442857Y-200297342D02*
X100671429Y-200297342D01*
X100671429Y-200297342D02*
X100785715Y-200240200D01*
X100785715Y-200240200D02*
X100842857Y-200183057D01*
X100842857Y-200183057D02*
X100900000Y-200068771D01*
X100900000Y-200068771D02*
X100900000Y-199783057D01*
X100900000Y-199783057D02*
X100842857Y-199668771D01*
X100842857Y-199668771D02*
X100785715Y-199611628D01*
X100785715Y-199611628D02*
X100671429Y-199554485D01*
X100671429Y-199554485D02*
X100442857Y-199554485D01*
X100442857Y-199554485D02*
X100328572Y-199611628D01*
X100328572Y-199611628D02*
X100271429Y-199668771D01*
X100271429Y-199668771D02*
X100214286Y-199783057D01*
X116235714Y-163097342D02*
X116921429Y-163097342D01*
X116578571Y-164297342D02*
X116578571Y-163097342D01*
X117321429Y-164297342D02*
X117321429Y-163097342D01*
X117321429Y-163097342D02*
X117778572Y-163097342D01*
X117778572Y-163097342D02*
X117892857Y-163154485D01*
X117892857Y-163154485D02*
X117950000Y-163211628D01*
X117950000Y-163211628D02*
X118007143Y-163325914D01*
X118007143Y-163325914D02*
X118007143Y-163497342D01*
X118007143Y-163497342D02*
X117950000Y-163611628D01*
X117950000Y-163611628D02*
X117892857Y-163668771D01*
X117892857Y-163668771D02*
X117778572Y-163725914D01*
X117778572Y-163725914D02*
X117321429Y-163725914D01*
X119092857Y-163097342D02*
X118521429Y-163097342D01*
X118521429Y-163097342D02*
X118464286Y-163668771D01*
X118464286Y-163668771D02*
X118521429Y-163611628D01*
X118521429Y-163611628D02*
X118635715Y-163554485D01*
X118635715Y-163554485D02*
X118921429Y-163554485D01*
X118921429Y-163554485D02*
X119035715Y-163611628D01*
X119035715Y-163611628D02*
X119092857Y-163668771D01*
X119092857Y-163668771D02*
X119150000Y-163783057D01*
X119150000Y-163783057D02*
X119150000Y-164068771D01*
X119150000Y-164068771D02*
X119092857Y-164183057D01*
X119092857Y-164183057D02*
X119035715Y-164240200D01*
X119035715Y-164240200D02*
X118921429Y-164297342D01*
X118921429Y-164297342D02*
X118635715Y-164297342D01*
X118635715Y-164297342D02*
X118521429Y-164240200D01*
X118521429Y-164240200D02*
X118464286Y-164183057D01*
X117735714Y-202097342D02*
X118421429Y-202097342D01*
X118078571Y-203297342D02*
X118078571Y-202097342D01*
X118821429Y-203297342D02*
X118821429Y-202097342D01*
X118821429Y-202097342D02*
X119278572Y-202097342D01*
X119278572Y-202097342D02*
X119392857Y-202154485D01*
X119392857Y-202154485D02*
X119450000Y-202211628D01*
X119450000Y-202211628D02*
X119507143Y-202325914D01*
X119507143Y-202325914D02*
X119507143Y-202497342D01*
X119507143Y-202497342D02*
X119450000Y-202611628D01*
X119450000Y-202611628D02*
X119392857Y-202668771D01*
X119392857Y-202668771D02*
X119278572Y-202725914D01*
X119278572Y-202725914D02*
X118821429Y-202725914D01*
X120535715Y-202497342D02*
X120535715Y-203297342D01*
X120250000Y-202040200D02*
X119964286Y-202897342D01*
X119964286Y-202897342D02*
X120707143Y-202897342D01*
X134985714Y-157847342D02*
X135671429Y-157847342D01*
X135328571Y-159047342D02*
X135328571Y-157847342D01*
X136071429Y-159047342D02*
X136071429Y-157847342D01*
X136071429Y-157847342D02*
X136528572Y-157847342D01*
X136528572Y-157847342D02*
X136642857Y-157904485D01*
X136642857Y-157904485D02*
X136700000Y-157961628D01*
X136700000Y-157961628D02*
X136757143Y-158075914D01*
X136757143Y-158075914D02*
X136757143Y-158247342D01*
X136757143Y-158247342D02*
X136700000Y-158361628D01*
X136700000Y-158361628D02*
X136642857Y-158418771D01*
X136642857Y-158418771D02*
X136528572Y-158475914D01*
X136528572Y-158475914D02*
X136071429Y-158475914D01*
X137157143Y-157847342D02*
X137900000Y-157847342D01*
X137900000Y-157847342D02*
X137500000Y-158304485D01*
X137500000Y-158304485D02*
X137671429Y-158304485D01*
X137671429Y-158304485D02*
X137785715Y-158361628D01*
X137785715Y-158361628D02*
X137842857Y-158418771D01*
X137842857Y-158418771D02*
X137900000Y-158533057D01*
X137900000Y-158533057D02*
X137900000Y-158818771D01*
X137900000Y-158818771D02*
X137842857Y-158933057D01*
X137842857Y-158933057D02*
X137785715Y-158990200D01*
X137785715Y-158990200D02*
X137671429Y-159047342D01*
X137671429Y-159047342D02*
X137328572Y-159047342D01*
X137328572Y-159047342D02*
X137214286Y-158990200D01*
X137214286Y-158990200D02*
X137157143Y-158933057D01*
X130485714Y-204097342D02*
X131171429Y-204097342D01*
X130828571Y-205297342D02*
X130828571Y-204097342D01*
X131571429Y-205297342D02*
X131571429Y-204097342D01*
X131571429Y-204097342D02*
X132028572Y-204097342D01*
X132028572Y-204097342D02*
X132142857Y-204154485D01*
X132142857Y-204154485D02*
X132200000Y-204211628D01*
X132200000Y-204211628D02*
X132257143Y-204325914D01*
X132257143Y-204325914D02*
X132257143Y-204497342D01*
X132257143Y-204497342D02*
X132200000Y-204611628D01*
X132200000Y-204611628D02*
X132142857Y-204668771D01*
X132142857Y-204668771D02*
X132028572Y-204725914D01*
X132028572Y-204725914D02*
X131571429Y-204725914D01*
X132714286Y-204211628D02*
X132771429Y-204154485D01*
X132771429Y-204154485D02*
X132885715Y-204097342D01*
X132885715Y-204097342D02*
X133171429Y-204097342D01*
X133171429Y-204097342D02*
X133285715Y-204154485D01*
X133285715Y-204154485D02*
X133342857Y-204211628D01*
X133342857Y-204211628D02*
X133400000Y-204325914D01*
X133400000Y-204325914D02*
X133400000Y-204440200D01*
X133400000Y-204440200D02*
X133342857Y-204611628D01*
X133342857Y-204611628D02*
X132657143Y-205297342D01*
X132657143Y-205297342D02*
X133400000Y-205297342D01*
X126985714Y-197597342D02*
X127671429Y-197597342D01*
X127328571Y-198797342D02*
X127328571Y-197597342D01*
X128071429Y-198797342D02*
X128071429Y-197597342D01*
X128071429Y-197597342D02*
X128528572Y-197597342D01*
X128528572Y-197597342D02*
X128642857Y-197654485D01*
X128642857Y-197654485D02*
X128700000Y-197711628D01*
X128700000Y-197711628D02*
X128757143Y-197825914D01*
X128757143Y-197825914D02*
X128757143Y-197997342D01*
X128757143Y-197997342D02*
X128700000Y-198111628D01*
X128700000Y-198111628D02*
X128642857Y-198168771D01*
X128642857Y-198168771D02*
X128528572Y-198225914D01*
X128528572Y-198225914D02*
X128071429Y-198225914D01*
X129900000Y-198797342D02*
X129214286Y-198797342D01*
X129557143Y-198797342D02*
X129557143Y-197597342D01*
X129557143Y-197597342D02*
X129442857Y-197768771D01*
X129442857Y-197768771D02*
X129328572Y-197883057D01*
X129328572Y-197883057D02*
X129214286Y-197940200D01*
D11*
X58768095Y-95197419D02*
X58768095Y-96006942D01*
X58768095Y-96006942D02*
X58815714Y-96102180D01*
X58815714Y-96102180D02*
X58863333Y-96149800D01*
X58863333Y-96149800D02*
X58958571Y-96197419D01*
X58958571Y-96197419D02*
X59149047Y-96197419D01*
X59149047Y-96197419D02*
X59244285Y-96149800D01*
X59244285Y-96149800D02*
X59291904Y-96102180D01*
X59291904Y-96102180D02*
X59339523Y-96006942D01*
X59339523Y-96006942D02*
X59339523Y-95197419D01*
X59768095Y-95292657D02*
X59815714Y-95245038D01*
X59815714Y-95245038D02*
X59910952Y-95197419D01*
X59910952Y-95197419D02*
X60149047Y-95197419D01*
X60149047Y-95197419D02*
X60244285Y-95245038D01*
X60244285Y-95245038D02*
X60291904Y-95292657D01*
X60291904Y-95292657D02*
X60339523Y-95387895D01*
X60339523Y-95387895D02*
X60339523Y-95483133D01*
X60339523Y-95483133D02*
X60291904Y-95625990D01*
X60291904Y-95625990D02*
X59720476Y-96197419D01*
X59720476Y-96197419D02*
X60339523Y-96197419D01*
X108880081Y-206889166D02*
X108165796Y-206889166D01*
X108165796Y-206889166D02*
X108022939Y-206841547D01*
X108022939Y-206841547D02*
X107927701Y-206746309D01*
X107927701Y-206746309D02*
X107880081Y-206603452D01*
X107880081Y-206603452D02*
X107880081Y-206508214D01*
X108546748Y-207793928D02*
X107880081Y-207793928D01*
X108927701Y-207555833D02*
X108213415Y-207317738D01*
X108213415Y-207317738D02*
X108213415Y-207936785D01*
X126383333Y-221467328D02*
X126383333Y-220753043D01*
X126383333Y-220753043D02*
X126430952Y-220610186D01*
X126430952Y-220610186D02*
X126526190Y-220514948D01*
X126526190Y-220514948D02*
X126669047Y-220467328D01*
X126669047Y-220467328D02*
X126764285Y-220467328D01*
X125383333Y-220467328D02*
X125954761Y-220467328D01*
X125669047Y-220467328D02*
X125669047Y-221467328D01*
X125669047Y-221467328D02*
X125764285Y-221324471D01*
X125764285Y-221324471D02*
X125859523Y-221229233D01*
X125859523Y-221229233D02*
X125954761Y-221181614D01*
X82400476Y-114143609D02*
X82067143Y-114143609D01*
X82067143Y-114667419D02*
X82067143Y-113667419D01*
X82067143Y-113667419D02*
X82543333Y-113667419D01*
X82876667Y-114619800D02*
X83019524Y-114667419D01*
X83019524Y-114667419D02*
X83257619Y-114667419D01*
X83257619Y-114667419D02*
X83352857Y-114619800D01*
X83352857Y-114619800D02*
X83400476Y-114572180D01*
X83400476Y-114572180D02*
X83448095Y-114476942D01*
X83448095Y-114476942D02*
X83448095Y-114381704D01*
X83448095Y-114381704D02*
X83400476Y-114286466D01*
X83400476Y-114286466D02*
X83352857Y-114238847D01*
X83352857Y-114238847D02*
X83257619Y-114191228D01*
X83257619Y-114191228D02*
X83067143Y-114143609D01*
X83067143Y-114143609D02*
X82971905Y-114095990D01*
X82971905Y-114095990D02*
X82924286Y-114048371D01*
X82924286Y-114048371D02*
X82876667Y-113953133D01*
X82876667Y-113953133D02*
X82876667Y-113857895D01*
X82876667Y-113857895D02*
X82924286Y-113762657D01*
X82924286Y-113762657D02*
X82971905Y-113715038D01*
X82971905Y-113715038D02*
X83067143Y-113667419D01*
X83067143Y-113667419D02*
X83305238Y-113667419D01*
X83305238Y-113667419D02*
X83448095Y-113715038D01*
X83829048Y-113762657D02*
X83876667Y-113715038D01*
X83876667Y-113715038D02*
X83971905Y-113667419D01*
X83971905Y-113667419D02*
X84210000Y-113667419D01*
X84210000Y-113667419D02*
X84305238Y-113715038D01*
X84305238Y-113715038D02*
X84352857Y-113762657D01*
X84352857Y-113762657D02*
X84400476Y-113857895D01*
X84400476Y-113857895D02*
X84400476Y-113953133D01*
X84400476Y-113953133D02*
X84352857Y-114095990D01*
X84352857Y-114095990D02*
X83781429Y-114667419D01*
X83781429Y-114667419D02*
X84400476Y-114667419D01*
X120970833Y-188410080D02*
X120970833Y-187695795D01*
X120970833Y-187695795D02*
X121018452Y-187552938D01*
X121018452Y-187552938D02*
X121113690Y-187457700D01*
X121113690Y-187457700D02*
X121256547Y-187410080D01*
X121256547Y-187410080D02*
X121351785Y-187410080D01*
X120066071Y-188410080D02*
X120256547Y-188410080D01*
X120256547Y-188410080D02*
X120351785Y-188362461D01*
X120351785Y-188362461D02*
X120399404Y-188314842D01*
X120399404Y-188314842D02*
X120494642Y-188171985D01*
X120494642Y-188171985D02*
X120542261Y-187981509D01*
X120542261Y-187981509D02*
X120542261Y-187600557D01*
X120542261Y-187600557D02*
X120494642Y-187505319D01*
X120494642Y-187505319D02*
X120447023Y-187457700D01*
X120447023Y-187457700D02*
X120351785Y-187410080D01*
X120351785Y-187410080D02*
X120161309Y-187410080D01*
X120161309Y-187410080D02*
X120066071Y-187457700D01*
X120066071Y-187457700D02*
X120018452Y-187505319D01*
X120018452Y-187505319D02*
X119970833Y-187600557D01*
X119970833Y-187600557D02*
X119970833Y-187838652D01*
X119970833Y-187838652D02*
X120018452Y-187933890D01*
X120018452Y-187933890D02*
X120066071Y-187981509D01*
X120066071Y-187981509D02*
X120161309Y-188029128D01*
X120161309Y-188029128D02*
X120351785Y-188029128D01*
X120351785Y-188029128D02*
X120447023Y-187981509D01*
X120447023Y-187981509D02*
X120494642Y-187933890D01*
X120494642Y-187933890D02*
X120542261Y-187838652D01*
X55455736Y-178798228D02*
X55167061Y-178964895D01*
X55428966Y-179418527D02*
X54928966Y-178552502D01*
X54928966Y-178552502D02*
X55341359Y-178314407D01*
X56106225Y-178972526D02*
X56253752Y-178942337D01*
X56253752Y-178942337D02*
X56459949Y-178823289D01*
X56459949Y-178823289D02*
X56518618Y-178734431D01*
X56518618Y-178734431D02*
X56536048Y-178669382D01*
X56536048Y-178669382D02*
X56529668Y-178563094D01*
X56529668Y-178563094D02*
X56482049Y-178480615D01*
X56482049Y-178480615D02*
X56393191Y-178421946D01*
X56393191Y-178421946D02*
X56328142Y-178404516D01*
X56328142Y-178404516D02*
X56221854Y-178410896D01*
X56221854Y-178410896D02*
X56033087Y-178464895D01*
X56033087Y-178464895D02*
X55926799Y-178471275D01*
X55926799Y-178471275D02*
X55861750Y-178453845D01*
X55861750Y-178453845D02*
X55772891Y-178395176D01*
X55772891Y-178395176D02*
X55725272Y-178312697D01*
X55725272Y-178312697D02*
X55718893Y-178206409D01*
X55718893Y-178206409D02*
X55736322Y-178141360D01*
X55736322Y-178141360D02*
X55794992Y-178052502D01*
X55794992Y-178052502D02*
X56001188Y-177933454D01*
X56001188Y-177933454D02*
X56148716Y-177903265D01*
X57449692Y-178251861D02*
X56954820Y-178537575D01*
X57202256Y-178394718D02*
X56702256Y-177528692D01*
X56702256Y-177528692D02*
X56691206Y-177700029D01*
X56691206Y-177700029D02*
X56656347Y-177830127D01*
X56656347Y-177830127D02*
X56597678Y-177918985D01*
X112570476Y-105873609D02*
X112237143Y-105873609D01*
X112237143Y-106397419D02*
X112237143Y-105397419D01*
X112237143Y-105397419D02*
X112713333Y-105397419D01*
X113046667Y-106349800D02*
X113189524Y-106397419D01*
X113189524Y-106397419D02*
X113427619Y-106397419D01*
X113427619Y-106397419D02*
X113522857Y-106349800D01*
X113522857Y-106349800D02*
X113570476Y-106302180D01*
X113570476Y-106302180D02*
X113618095Y-106206942D01*
X113618095Y-106206942D02*
X113618095Y-106111704D01*
X113618095Y-106111704D02*
X113570476Y-106016466D01*
X113570476Y-106016466D02*
X113522857Y-105968847D01*
X113522857Y-105968847D02*
X113427619Y-105921228D01*
X113427619Y-105921228D02*
X113237143Y-105873609D01*
X113237143Y-105873609D02*
X113141905Y-105825990D01*
X113141905Y-105825990D02*
X113094286Y-105778371D01*
X113094286Y-105778371D02*
X113046667Y-105683133D01*
X113046667Y-105683133D02*
X113046667Y-105587895D01*
X113046667Y-105587895D02*
X113094286Y-105492657D01*
X113094286Y-105492657D02*
X113141905Y-105445038D01*
X113141905Y-105445038D02*
X113237143Y-105397419D01*
X113237143Y-105397419D02*
X113475238Y-105397419D01*
X113475238Y-105397419D02*
X113618095Y-105445038D01*
X113951429Y-105397419D02*
X114570476Y-105397419D01*
X114570476Y-105397419D02*
X114237143Y-105778371D01*
X114237143Y-105778371D02*
X114380000Y-105778371D01*
X114380000Y-105778371D02*
X114475238Y-105825990D01*
X114475238Y-105825990D02*
X114522857Y-105873609D01*
X114522857Y-105873609D02*
X114570476Y-105968847D01*
X114570476Y-105968847D02*
X114570476Y-106206942D01*
X114570476Y-106206942D02*
X114522857Y-106302180D01*
X114522857Y-106302180D02*
X114475238Y-106349800D01*
X114475238Y-106349800D02*
X114380000Y-106397419D01*
X114380000Y-106397419D02*
X114094286Y-106397419D01*
X114094286Y-106397419D02*
X113999048Y-106349800D01*
X113999048Y-106349800D02*
X113951429Y-106302180D01*
X107196666Y-37614919D02*
X107196666Y-38329204D01*
X107196666Y-38329204D02*
X107149047Y-38472061D01*
X107149047Y-38472061D02*
X107053809Y-38567300D01*
X107053809Y-38567300D02*
X106910952Y-38614919D01*
X106910952Y-38614919D02*
X106815714Y-38614919D01*
X107720476Y-38614919D02*
X107910952Y-38614919D01*
X107910952Y-38614919D02*
X108006190Y-38567300D01*
X108006190Y-38567300D02*
X108053809Y-38519680D01*
X108053809Y-38519680D02*
X108149047Y-38376823D01*
X108149047Y-38376823D02*
X108196666Y-38186347D01*
X108196666Y-38186347D02*
X108196666Y-37805395D01*
X108196666Y-37805395D02*
X108149047Y-37710157D01*
X108149047Y-37710157D02*
X108101428Y-37662538D01*
X108101428Y-37662538D02*
X108006190Y-37614919D01*
X108006190Y-37614919D02*
X107815714Y-37614919D01*
X107815714Y-37614919D02*
X107720476Y-37662538D01*
X107720476Y-37662538D02*
X107672857Y-37710157D01*
X107672857Y-37710157D02*
X107625238Y-37805395D01*
X107625238Y-37805395D02*
X107625238Y-38043490D01*
X107625238Y-38043490D02*
X107672857Y-38138728D01*
X107672857Y-38138728D02*
X107720476Y-38186347D01*
X107720476Y-38186347D02*
X107815714Y-38233966D01*
X107815714Y-38233966D02*
X108006190Y-38233966D01*
X108006190Y-38233966D02*
X108101428Y-38186347D01*
X108101428Y-38186347D02*
X108149047Y-38138728D01*
X108149047Y-38138728D02*
X108196666Y-38043490D01*
D10*
X119233057Y-151109999D02*
X119290200Y-151167142D01*
X119290200Y-151167142D02*
X119347342Y-151338570D01*
X119347342Y-151338570D02*
X119347342Y-151452856D01*
X119347342Y-151452856D02*
X119290200Y-151624285D01*
X119290200Y-151624285D02*
X119175914Y-151738570D01*
X119175914Y-151738570D02*
X119061628Y-151795713D01*
X119061628Y-151795713D02*
X118833057Y-151852856D01*
X118833057Y-151852856D02*
X118661628Y-151852856D01*
X118661628Y-151852856D02*
X118433057Y-151795713D01*
X118433057Y-151795713D02*
X118318771Y-151738570D01*
X118318771Y-151738570D02*
X118204485Y-151624285D01*
X118204485Y-151624285D02*
X118147342Y-151452856D01*
X118147342Y-151452856D02*
X118147342Y-151338570D01*
X118147342Y-151338570D02*
X118204485Y-151167142D01*
X118204485Y-151167142D02*
X118261628Y-151109999D01*
X119347342Y-149967142D02*
X119347342Y-150652856D01*
X119347342Y-150309999D02*
X118147342Y-150309999D01*
X118147342Y-150309999D02*
X118318771Y-150424285D01*
X118318771Y-150424285D02*
X118433057Y-150538570D01*
X118433057Y-150538570D02*
X118490200Y-150652856D01*
D11*
X106259652Y-45524188D02*
X106023949Y-45288486D01*
X105653560Y-45658875D02*
X106360667Y-44951769D01*
X106360667Y-44951769D02*
X106697385Y-45288486D01*
X106259652Y-46197624D02*
X106326995Y-46332311D01*
X106326995Y-46332311D02*
X106495354Y-46500669D01*
X106495354Y-46500669D02*
X106596369Y-46534341D01*
X106596369Y-46534341D02*
X106663713Y-46534341D01*
X106663713Y-46534341D02*
X106764728Y-46500669D01*
X106764728Y-46500669D02*
X106832072Y-46433326D01*
X106832072Y-46433326D02*
X106865743Y-46332311D01*
X106865743Y-46332311D02*
X106865743Y-46264967D01*
X106865743Y-46264967D02*
X106832072Y-46163952D01*
X106832072Y-46163952D02*
X106731056Y-45995593D01*
X106731056Y-45995593D02*
X106697385Y-45894578D01*
X106697385Y-45894578D02*
X106697385Y-45827234D01*
X106697385Y-45827234D02*
X106731056Y-45726219D01*
X106731056Y-45726219D02*
X106798400Y-45658876D01*
X106798400Y-45658876D02*
X106899415Y-45625204D01*
X106899415Y-45625204D02*
X106966759Y-45625204D01*
X106966759Y-45625204D02*
X107067774Y-45658876D01*
X107067774Y-45658876D02*
X107236133Y-45827234D01*
X107236133Y-45827234D02*
X107303476Y-45961921D01*
X107337148Y-47342463D02*
X107438163Y-46770043D01*
X106933087Y-46938402D02*
X107640194Y-46231295D01*
X107640194Y-46231295D02*
X107909568Y-46500669D01*
X107909568Y-46500669D02*
X107943239Y-46601685D01*
X107943239Y-46601685D02*
X107943239Y-46669028D01*
X107943239Y-46669028D02*
X107909568Y-46770043D01*
X107909568Y-46770043D02*
X107808552Y-46871059D01*
X107808552Y-46871059D02*
X107707537Y-46904730D01*
X107707537Y-46904730D02*
X107640194Y-46904730D01*
X107640194Y-46904730D02*
X107539178Y-46871059D01*
X107539178Y-46871059D02*
X107269804Y-46601685D01*
X108279957Y-46871059D02*
X108717690Y-47308791D01*
X108717690Y-47308791D02*
X108212613Y-47342463D01*
X108212613Y-47342463D02*
X108313629Y-47443478D01*
X108313629Y-47443478D02*
X108347300Y-47544494D01*
X108347300Y-47544494D02*
X108347300Y-47611837D01*
X108347300Y-47611837D02*
X108313629Y-47712852D01*
X108313629Y-47712852D02*
X108145270Y-47881211D01*
X108145270Y-47881211D02*
X108044255Y-47914883D01*
X108044255Y-47914883D02*
X107976911Y-47914883D01*
X107976911Y-47914883D02*
X107875896Y-47881211D01*
X107875896Y-47881211D02*
X107673865Y-47679181D01*
X107673865Y-47679181D02*
X107640194Y-47578165D01*
X107640194Y-47578165D02*
X107640194Y-47510822D01*
X161760476Y-59484919D02*
X161760476Y-60199204D01*
X161760476Y-60199204D02*
X161712857Y-60342061D01*
X161712857Y-60342061D02*
X161617619Y-60437300D01*
X161617619Y-60437300D02*
X161474762Y-60484919D01*
X161474762Y-60484919D02*
X161379524Y-60484919D01*
X162760476Y-60484919D02*
X162189048Y-60484919D01*
X162474762Y-60484919D02*
X162474762Y-59484919D01*
X162474762Y-59484919D02*
X162379524Y-59627776D01*
X162379524Y-59627776D02*
X162284286Y-59723014D01*
X162284286Y-59723014D02*
X162189048Y-59770633D01*
X163712857Y-60484919D02*
X163141429Y-60484919D01*
X163427143Y-60484919D02*
X163427143Y-59484919D01*
X163427143Y-59484919D02*
X163331905Y-59627776D01*
X163331905Y-59627776D02*
X163236667Y-59723014D01*
X163236667Y-59723014D02*
X163141429Y-59770633D01*
X74936666Y-47024919D02*
X74936666Y-47739204D01*
X74936666Y-47739204D02*
X74889047Y-47882061D01*
X74889047Y-47882061D02*
X74793809Y-47977300D01*
X74793809Y-47977300D02*
X74650952Y-48024919D01*
X74650952Y-48024919D02*
X74555714Y-48024919D01*
X75555714Y-47453490D02*
X75460476Y-47405871D01*
X75460476Y-47405871D02*
X75412857Y-47358252D01*
X75412857Y-47358252D02*
X75365238Y-47263014D01*
X75365238Y-47263014D02*
X75365238Y-47215395D01*
X75365238Y-47215395D02*
X75412857Y-47120157D01*
X75412857Y-47120157D02*
X75460476Y-47072538D01*
X75460476Y-47072538D02*
X75555714Y-47024919D01*
X75555714Y-47024919D02*
X75746190Y-47024919D01*
X75746190Y-47024919D02*
X75841428Y-47072538D01*
X75841428Y-47072538D02*
X75889047Y-47120157D01*
X75889047Y-47120157D02*
X75936666Y-47215395D01*
X75936666Y-47215395D02*
X75936666Y-47263014D01*
X75936666Y-47263014D02*
X75889047Y-47358252D01*
X75889047Y-47358252D02*
X75841428Y-47405871D01*
X75841428Y-47405871D02*
X75746190Y-47453490D01*
X75746190Y-47453490D02*
X75555714Y-47453490D01*
X75555714Y-47453490D02*
X75460476Y-47501109D01*
X75460476Y-47501109D02*
X75412857Y-47548728D01*
X75412857Y-47548728D02*
X75365238Y-47643966D01*
X75365238Y-47643966D02*
X75365238Y-47834442D01*
X75365238Y-47834442D02*
X75412857Y-47929680D01*
X75412857Y-47929680D02*
X75460476Y-47977300D01*
X75460476Y-47977300D02*
X75555714Y-48024919D01*
X75555714Y-48024919D02*
X75746190Y-48024919D01*
X75746190Y-48024919D02*
X75841428Y-47977300D01*
X75841428Y-47977300D02*
X75889047Y-47929680D01*
X75889047Y-47929680D02*
X75936666Y-47834442D01*
X75936666Y-47834442D02*
X75936666Y-47643966D01*
X75936666Y-47643966D02*
X75889047Y-47548728D01*
X75889047Y-47548728D02*
X75841428Y-47501109D01*
X75841428Y-47501109D02*
X75746190Y-47453490D01*
X104940700Y-193848739D02*
X104435623Y-193343663D01*
X104435623Y-193343663D02*
X104368280Y-193208976D01*
X104368280Y-193208976D02*
X104368280Y-193074289D01*
X104368280Y-193074289D02*
X104435623Y-192939602D01*
X104435623Y-192939602D02*
X104502967Y-192872258D01*
X104267264Y-194522174D02*
X104603982Y-194185456D01*
X104603982Y-194185456D02*
X104300936Y-193815067D01*
X104300936Y-193815067D02*
X104300936Y-193882411D01*
X104300936Y-193882411D02*
X104267264Y-193983426D01*
X104267264Y-193983426D02*
X104098906Y-194151785D01*
X104098906Y-194151785D02*
X103997890Y-194185456D01*
X103997890Y-194185456D02*
X103930547Y-194185456D01*
X103930547Y-194185456D02*
X103829532Y-194151785D01*
X103829532Y-194151785D02*
X103661173Y-193983426D01*
X103661173Y-193983426D02*
X103627501Y-193882411D01*
X103627501Y-193882411D02*
X103627501Y-193815067D01*
X103627501Y-193815067D02*
X103661173Y-193714052D01*
X103661173Y-193714052D02*
X103829532Y-193545693D01*
X103829532Y-193545693D02*
X103930547Y-193512021D01*
X103930547Y-193512021D02*
X103997890Y-193512021D01*
X42522462Y-118780698D02*
X42758165Y-119016400D01*
X43128554Y-118646011D02*
X42421447Y-119353117D01*
X42421447Y-119353117D02*
X42084729Y-119016400D01*
X42522462Y-118107262D02*
X42455119Y-117972575D01*
X42455119Y-117972575D02*
X42286760Y-117804217D01*
X42286760Y-117804217D02*
X42185745Y-117770545D01*
X42185745Y-117770545D02*
X42118401Y-117770545D01*
X42118401Y-117770545D02*
X42017386Y-117804217D01*
X42017386Y-117804217D02*
X41950042Y-117871560D01*
X41950042Y-117871560D02*
X41916371Y-117972575D01*
X41916371Y-117972575D02*
X41916371Y-118039919D01*
X41916371Y-118039919D02*
X41950042Y-118140934D01*
X41950042Y-118140934D02*
X42051058Y-118309293D01*
X42051058Y-118309293D02*
X42084729Y-118410308D01*
X42084729Y-118410308D02*
X42084729Y-118477652D01*
X42084729Y-118477652D02*
X42051058Y-118578667D01*
X42051058Y-118578667D02*
X41983714Y-118646010D01*
X41983714Y-118646010D02*
X41882699Y-118679682D01*
X41882699Y-118679682D02*
X41815355Y-118679682D01*
X41815355Y-118679682D02*
X41714340Y-118646010D01*
X41714340Y-118646010D02*
X41545981Y-118477652D01*
X41545981Y-118477652D02*
X41478638Y-118342965D01*
X41444966Y-116962423D02*
X41343951Y-117534843D01*
X41849027Y-117366484D02*
X41141920Y-118073591D01*
X41141920Y-118073591D02*
X40872546Y-117804217D01*
X40872546Y-117804217D02*
X40838875Y-117703201D01*
X40838875Y-117703201D02*
X40838875Y-117635858D01*
X40838875Y-117635858D02*
X40872546Y-117534843D01*
X40872546Y-117534843D02*
X40973562Y-117433827D01*
X40973562Y-117433827D02*
X41074577Y-117400156D01*
X41074577Y-117400156D02*
X41141920Y-117400156D01*
X41141920Y-117400156D02*
X41242936Y-117433827D01*
X41242936Y-117433827D02*
X41512310Y-117703201D01*
X40771531Y-116288988D02*
X41175592Y-116693049D01*
X40973562Y-116491018D02*
X40266455Y-117198125D01*
X40266455Y-117198125D02*
X40434814Y-117164453D01*
X40434814Y-117164453D02*
X40569501Y-117164453D01*
X40569501Y-117164453D02*
X40670516Y-117198125D01*
X37515531Y-109963119D02*
X37515531Y-110677404D01*
X37515531Y-110677404D02*
X37467912Y-110820261D01*
X37467912Y-110820261D02*
X37372674Y-110915500D01*
X37372674Y-110915500D02*
X37229817Y-110963119D01*
X37229817Y-110963119D02*
X37134579Y-110963119D01*
X37896484Y-109963119D02*
X38563150Y-109963119D01*
X38563150Y-109963119D02*
X38134579Y-110963119D01*
X137572305Y-54171521D02*
X137336602Y-53935819D01*
X136966213Y-54306208D02*
X137673320Y-53599102D01*
X137673320Y-53599102D02*
X138010038Y-53935819D01*
X137572305Y-54844957D02*
X137639648Y-54979644D01*
X137639648Y-54979644D02*
X137808007Y-55148002D01*
X137808007Y-55148002D02*
X137909022Y-55181674D01*
X137909022Y-55181674D02*
X137976366Y-55181674D01*
X137976366Y-55181674D02*
X138077381Y-55148002D01*
X138077381Y-55148002D02*
X138144725Y-55080659D01*
X138144725Y-55080659D02*
X138178396Y-54979644D01*
X138178396Y-54979644D02*
X138178396Y-54912300D01*
X138178396Y-54912300D02*
X138144725Y-54811285D01*
X138144725Y-54811285D02*
X138043709Y-54642926D01*
X138043709Y-54642926D02*
X138010038Y-54541911D01*
X138010038Y-54541911D02*
X138010038Y-54474567D01*
X138010038Y-54474567D02*
X138043709Y-54373552D01*
X138043709Y-54373552D02*
X138111053Y-54306209D01*
X138111053Y-54306209D02*
X138212068Y-54272537D01*
X138212068Y-54272537D02*
X138279412Y-54272537D01*
X138279412Y-54272537D02*
X138380427Y-54306209D01*
X138380427Y-54306209D02*
X138548786Y-54474567D01*
X138548786Y-54474567D02*
X138616129Y-54609254D01*
X138649801Y-55989796D02*
X138750816Y-55417376D01*
X138245740Y-55585735D02*
X138952847Y-54878628D01*
X138952847Y-54878628D02*
X139222221Y-55148002D01*
X139222221Y-55148002D02*
X139255892Y-55249018D01*
X139255892Y-55249018D02*
X139255892Y-55316361D01*
X139255892Y-55316361D02*
X139222221Y-55417376D01*
X139222221Y-55417376D02*
X139121205Y-55518392D01*
X139121205Y-55518392D02*
X139020190Y-55552063D01*
X139020190Y-55552063D02*
X138952847Y-55552063D01*
X138952847Y-55552063D02*
X138851831Y-55518392D01*
X138851831Y-55518392D02*
X138582457Y-55249018D01*
X139727297Y-56124483D02*
X139255892Y-56595888D01*
X139828312Y-55686750D02*
X139154877Y-56023468D01*
X139154877Y-56023468D02*
X139592610Y-56461201D01*
X161962305Y-68271521D02*
X161726602Y-68035819D01*
X161356213Y-68406208D02*
X162063320Y-67699102D01*
X162063320Y-67699102D02*
X162400038Y-68035819D01*
X161962305Y-68944957D02*
X162029648Y-69079644D01*
X162029648Y-69079644D02*
X162198007Y-69248002D01*
X162198007Y-69248002D02*
X162299022Y-69281674D01*
X162299022Y-69281674D02*
X162366366Y-69281674D01*
X162366366Y-69281674D02*
X162467381Y-69248002D01*
X162467381Y-69248002D02*
X162534725Y-69180659D01*
X162534725Y-69180659D02*
X162568396Y-69079644D01*
X162568396Y-69079644D02*
X162568396Y-69012300D01*
X162568396Y-69012300D02*
X162534725Y-68911285D01*
X162534725Y-68911285D02*
X162433709Y-68742926D01*
X162433709Y-68742926D02*
X162400038Y-68641911D01*
X162400038Y-68641911D02*
X162400038Y-68574567D01*
X162400038Y-68574567D02*
X162433709Y-68473552D01*
X162433709Y-68473552D02*
X162501053Y-68406209D01*
X162501053Y-68406209D02*
X162602068Y-68372537D01*
X162602068Y-68372537D02*
X162669412Y-68372537D01*
X162669412Y-68372537D02*
X162770427Y-68406209D01*
X162770427Y-68406209D02*
X162938786Y-68574567D01*
X162938786Y-68574567D02*
X163006129Y-68709254D01*
X163039801Y-70089796D02*
X163140816Y-69517376D01*
X162635740Y-69685735D02*
X163342847Y-68978628D01*
X163342847Y-68978628D02*
X163612221Y-69248002D01*
X163612221Y-69248002D02*
X163645892Y-69349018D01*
X163645892Y-69349018D02*
X163645892Y-69416361D01*
X163645892Y-69416361D02*
X163612221Y-69517376D01*
X163612221Y-69517376D02*
X163511205Y-69618392D01*
X163511205Y-69618392D02*
X163410190Y-69652063D01*
X163410190Y-69652063D02*
X163342847Y-69652063D01*
X163342847Y-69652063D02*
X163241831Y-69618392D01*
X163241831Y-69618392D02*
X162972457Y-69349018D01*
X164386671Y-70022453D02*
X164049953Y-69685735D01*
X164049953Y-69685735D02*
X163679564Y-69988781D01*
X163679564Y-69988781D02*
X163746908Y-69988781D01*
X163746908Y-69988781D02*
X163847923Y-70022453D01*
X163847923Y-70022453D02*
X164016282Y-70190811D01*
X164016282Y-70190811D02*
X164049953Y-70291827D01*
X164049953Y-70291827D02*
X164049953Y-70359170D01*
X164049953Y-70359170D02*
X164016282Y-70460185D01*
X164016282Y-70460185D02*
X163847923Y-70628544D01*
X163847923Y-70628544D02*
X163746908Y-70662216D01*
X163746908Y-70662216D02*
X163679564Y-70662216D01*
X163679564Y-70662216D02*
X163578549Y-70628544D01*
X163578549Y-70628544D02*
X163410190Y-70460185D01*
X163410190Y-70460185D02*
X163376518Y-70359170D01*
X163376518Y-70359170D02*
X163376518Y-70291827D01*
D10*
X114985714Y-159147342D02*
X114985714Y-160118771D01*
X114985714Y-160118771D02*
X115042857Y-160233057D01*
X115042857Y-160233057D02*
X115100000Y-160290200D01*
X115100000Y-160290200D02*
X115214285Y-160347342D01*
X115214285Y-160347342D02*
X115442857Y-160347342D01*
X115442857Y-160347342D02*
X115557142Y-160290200D01*
X115557142Y-160290200D02*
X115614285Y-160233057D01*
X115614285Y-160233057D02*
X115671428Y-160118771D01*
X115671428Y-160118771D02*
X115671428Y-159147342D01*
X116871428Y-160347342D02*
X116185714Y-160347342D01*
X116528571Y-160347342D02*
X116528571Y-159147342D01*
X116528571Y-159147342D02*
X116414285Y-159318771D01*
X116414285Y-159318771D02*
X116300000Y-159433057D01*
X116300000Y-159433057D02*
X116185714Y-159490200D01*
D11*
X77379738Y-58165228D02*
X77144035Y-57929526D01*
X76773646Y-58299915D02*
X77480753Y-57592809D01*
X77480753Y-57592809D02*
X77817471Y-57929526D01*
X77379738Y-58838664D02*
X77447081Y-58973351D01*
X77447081Y-58973351D02*
X77615440Y-59141709D01*
X77615440Y-59141709D02*
X77716455Y-59175381D01*
X77716455Y-59175381D02*
X77783799Y-59175381D01*
X77783799Y-59175381D02*
X77884814Y-59141709D01*
X77884814Y-59141709D02*
X77952158Y-59074366D01*
X77952158Y-59074366D02*
X77985829Y-58973351D01*
X77985829Y-58973351D02*
X77985829Y-58906007D01*
X77985829Y-58906007D02*
X77952158Y-58804992D01*
X77952158Y-58804992D02*
X77851142Y-58636633D01*
X77851142Y-58636633D02*
X77817471Y-58535618D01*
X77817471Y-58535618D02*
X77817471Y-58468274D01*
X77817471Y-58468274D02*
X77851142Y-58367259D01*
X77851142Y-58367259D02*
X77918486Y-58299916D01*
X77918486Y-58299916D02*
X78019501Y-58266244D01*
X78019501Y-58266244D02*
X78086845Y-58266244D01*
X78086845Y-58266244D02*
X78187860Y-58299916D01*
X78187860Y-58299916D02*
X78356219Y-58468274D01*
X78356219Y-58468274D02*
X78423562Y-58602961D01*
X78457234Y-59983503D02*
X78558249Y-59411083D01*
X78053173Y-59579442D02*
X78760280Y-58872335D01*
X78760280Y-58872335D02*
X79029654Y-59141709D01*
X79029654Y-59141709D02*
X79063325Y-59242725D01*
X79063325Y-59242725D02*
X79063325Y-59310068D01*
X79063325Y-59310068D02*
X79029654Y-59411083D01*
X79029654Y-59411083D02*
X78928638Y-59512099D01*
X78928638Y-59512099D02*
X78827623Y-59545770D01*
X78827623Y-59545770D02*
X78760280Y-59545770D01*
X78760280Y-59545770D02*
X78659264Y-59512099D01*
X78659264Y-59512099D02*
X78389890Y-59242725D01*
X79366371Y-59613114D02*
X79433715Y-59613114D01*
X79433715Y-59613114D02*
X79534730Y-59646786D01*
X79534730Y-59646786D02*
X79703089Y-59815144D01*
X79703089Y-59815144D02*
X79736760Y-59916160D01*
X79736760Y-59916160D02*
X79736760Y-59983503D01*
X79736760Y-59983503D02*
X79703089Y-60084518D01*
X79703089Y-60084518D02*
X79635745Y-60151862D01*
X79635745Y-60151862D02*
X79501058Y-60219205D01*
X79501058Y-60219205D02*
X78692936Y-60219205D01*
X78692936Y-60219205D02*
X79130669Y-60656938D01*
D10*
X56610000Y-89173057D02*
X56552857Y-89230200D01*
X56552857Y-89230200D02*
X56381429Y-89287342D01*
X56381429Y-89287342D02*
X56267143Y-89287342D01*
X56267143Y-89287342D02*
X56095714Y-89230200D01*
X56095714Y-89230200D02*
X55981429Y-89115914D01*
X55981429Y-89115914D02*
X55924286Y-89001628D01*
X55924286Y-89001628D02*
X55867143Y-88773057D01*
X55867143Y-88773057D02*
X55867143Y-88601628D01*
X55867143Y-88601628D02*
X55924286Y-88373057D01*
X55924286Y-88373057D02*
X55981429Y-88258771D01*
X55981429Y-88258771D02*
X56095714Y-88144485D01*
X56095714Y-88144485D02*
X56267143Y-88087342D01*
X56267143Y-88087342D02*
X56381429Y-88087342D01*
X56381429Y-88087342D02*
X56552857Y-88144485D01*
X56552857Y-88144485D02*
X56610000Y-88201628D01*
X57638572Y-88487342D02*
X57638572Y-89287342D01*
X57352857Y-88030200D02*
X57067143Y-88887342D01*
X57067143Y-88887342D02*
X57810000Y-88887342D01*
D11*
X148121261Y-196450700D02*
X148626337Y-195945623D01*
X148626337Y-195945623D02*
X148761024Y-195878280D01*
X148761024Y-195878280D02*
X148895711Y-195878280D01*
X148895711Y-195878280D02*
X149030398Y-195945623D01*
X149030398Y-195945623D02*
X149097742Y-196012967D01*
X147885559Y-196080310D02*
X147818215Y-196080310D01*
X147818215Y-196080310D02*
X147717200Y-196046638D01*
X147717200Y-196046638D02*
X147548841Y-195878280D01*
X147548841Y-195878280D02*
X147515169Y-195777264D01*
X147515169Y-195777264D02*
X147515169Y-195709921D01*
X147515169Y-195709921D02*
X147548841Y-195608906D01*
X147548841Y-195608906D02*
X147616185Y-195541562D01*
X147616185Y-195541562D02*
X147750872Y-195474219D01*
X147750872Y-195474219D02*
X148558994Y-195474219D01*
X148558994Y-195474219D02*
X148121261Y-195036486D01*
X133400833Y-188630080D02*
X133400833Y-187915795D01*
X133400833Y-187915795D02*
X133448452Y-187772938D01*
X133448452Y-187772938D02*
X133543690Y-187677700D01*
X133543690Y-187677700D02*
X133686547Y-187630080D01*
X133686547Y-187630080D02*
X133781785Y-187630080D01*
X133019880Y-188630080D02*
X132400833Y-188630080D01*
X132400833Y-188630080D02*
X132734166Y-188249128D01*
X132734166Y-188249128D02*
X132591309Y-188249128D01*
X132591309Y-188249128D02*
X132496071Y-188201509D01*
X132496071Y-188201509D02*
X132448452Y-188153890D01*
X132448452Y-188153890D02*
X132400833Y-188058652D01*
X132400833Y-188058652D02*
X132400833Y-187820557D01*
X132400833Y-187820557D02*
X132448452Y-187725319D01*
X132448452Y-187725319D02*
X132496071Y-187677700D01*
X132496071Y-187677700D02*
X132591309Y-187630080D01*
X132591309Y-187630080D02*
X132877023Y-187630080D01*
X132877023Y-187630080D02*
X132972261Y-187677700D01*
X132972261Y-187677700D02*
X133019880Y-187725319D01*
X161545476Y-121533609D02*
X161212143Y-121533609D01*
X161212143Y-122057419D02*
X161212143Y-121057419D01*
X161212143Y-121057419D02*
X161688333Y-121057419D01*
X162021667Y-122009800D02*
X162164524Y-122057419D01*
X162164524Y-122057419D02*
X162402619Y-122057419D01*
X162402619Y-122057419D02*
X162497857Y-122009800D01*
X162497857Y-122009800D02*
X162545476Y-121962180D01*
X162545476Y-121962180D02*
X162593095Y-121866942D01*
X162593095Y-121866942D02*
X162593095Y-121771704D01*
X162593095Y-121771704D02*
X162545476Y-121676466D01*
X162545476Y-121676466D02*
X162497857Y-121628847D01*
X162497857Y-121628847D02*
X162402619Y-121581228D01*
X162402619Y-121581228D02*
X162212143Y-121533609D01*
X162212143Y-121533609D02*
X162116905Y-121485990D01*
X162116905Y-121485990D02*
X162069286Y-121438371D01*
X162069286Y-121438371D02*
X162021667Y-121343133D01*
X162021667Y-121343133D02*
X162021667Y-121247895D01*
X162021667Y-121247895D02*
X162069286Y-121152657D01*
X162069286Y-121152657D02*
X162116905Y-121105038D01*
X162116905Y-121105038D02*
X162212143Y-121057419D01*
X162212143Y-121057419D02*
X162450238Y-121057419D01*
X162450238Y-121057419D02*
X162593095Y-121105038D01*
X163497857Y-121057419D02*
X163021667Y-121057419D01*
X163021667Y-121057419D02*
X162974048Y-121533609D01*
X162974048Y-121533609D02*
X163021667Y-121485990D01*
X163021667Y-121485990D02*
X163116905Y-121438371D01*
X163116905Y-121438371D02*
X163355000Y-121438371D01*
X163355000Y-121438371D02*
X163450238Y-121485990D01*
X163450238Y-121485990D02*
X163497857Y-121533609D01*
X163497857Y-121533609D02*
X163545476Y-121628847D01*
X163545476Y-121628847D02*
X163545476Y-121866942D01*
X163545476Y-121866942D02*
X163497857Y-121962180D01*
X163497857Y-121962180D02*
X163450238Y-122009800D01*
X163450238Y-122009800D02*
X163355000Y-122057419D01*
X163355000Y-122057419D02*
X163116905Y-122057419D01*
X163116905Y-122057419D02*
X163021667Y-122009800D01*
X163021667Y-122009800D02*
X162974048Y-121962180D01*
X137990476Y-110723609D02*
X137657143Y-110723609D01*
X137657143Y-111247419D02*
X137657143Y-110247419D01*
X137657143Y-110247419D02*
X138133333Y-110247419D01*
X138466667Y-111199800D02*
X138609524Y-111247419D01*
X138609524Y-111247419D02*
X138847619Y-111247419D01*
X138847619Y-111247419D02*
X138942857Y-111199800D01*
X138942857Y-111199800D02*
X138990476Y-111152180D01*
X138990476Y-111152180D02*
X139038095Y-111056942D01*
X139038095Y-111056942D02*
X139038095Y-110961704D01*
X139038095Y-110961704D02*
X138990476Y-110866466D01*
X138990476Y-110866466D02*
X138942857Y-110818847D01*
X138942857Y-110818847D02*
X138847619Y-110771228D01*
X138847619Y-110771228D02*
X138657143Y-110723609D01*
X138657143Y-110723609D02*
X138561905Y-110675990D01*
X138561905Y-110675990D02*
X138514286Y-110628371D01*
X138514286Y-110628371D02*
X138466667Y-110533133D01*
X138466667Y-110533133D02*
X138466667Y-110437895D01*
X138466667Y-110437895D02*
X138514286Y-110342657D01*
X138514286Y-110342657D02*
X138561905Y-110295038D01*
X138561905Y-110295038D02*
X138657143Y-110247419D01*
X138657143Y-110247419D02*
X138895238Y-110247419D01*
X138895238Y-110247419D02*
X139038095Y-110295038D01*
X139895238Y-110580752D02*
X139895238Y-111247419D01*
X139657143Y-110199800D02*
X139419048Y-110914085D01*
X139419048Y-110914085D02*
X140038095Y-110914085D01*
D10*
X111812876Y-151310000D02*
X111755734Y-151252857D01*
X111755734Y-151252857D02*
X111698591Y-151081429D01*
X111698591Y-151081429D02*
X111698591Y-150967143D01*
X111698591Y-150967143D02*
X111755734Y-150795714D01*
X111755734Y-150795714D02*
X111870019Y-150681429D01*
X111870019Y-150681429D02*
X111984305Y-150624286D01*
X111984305Y-150624286D02*
X112212876Y-150567143D01*
X112212876Y-150567143D02*
X112384305Y-150567143D01*
X112384305Y-150567143D02*
X112612876Y-150624286D01*
X112612876Y-150624286D02*
X112727162Y-150681429D01*
X112727162Y-150681429D02*
X112841448Y-150795714D01*
X112841448Y-150795714D02*
X112898591Y-150967143D01*
X112898591Y-150967143D02*
X112898591Y-151081429D01*
X112898591Y-151081429D02*
X112841448Y-151252857D01*
X112841448Y-151252857D02*
X112784305Y-151310000D01*
X112784305Y-151767143D02*
X112841448Y-151824286D01*
X112841448Y-151824286D02*
X112898591Y-151938572D01*
X112898591Y-151938572D02*
X112898591Y-152224286D01*
X112898591Y-152224286D02*
X112841448Y-152338572D01*
X112841448Y-152338572D02*
X112784305Y-152395714D01*
X112784305Y-152395714D02*
X112670019Y-152452857D01*
X112670019Y-152452857D02*
X112555734Y-152452857D01*
X112555734Y-152452857D02*
X112384305Y-152395714D01*
X112384305Y-152395714D02*
X111698591Y-151710000D01*
X111698591Y-151710000D02*
X111698591Y-152452857D01*
X113416942Y-151952500D02*
X113359800Y-151895357D01*
X113359800Y-151895357D02*
X113302657Y-151723929D01*
X113302657Y-151723929D02*
X113302657Y-151609643D01*
X113302657Y-151609643D02*
X113359800Y-151438214D01*
X113359800Y-151438214D02*
X113474085Y-151323929D01*
X113474085Y-151323929D02*
X113588371Y-151266786D01*
X113588371Y-151266786D02*
X113816942Y-151209643D01*
X113816942Y-151209643D02*
X113988371Y-151209643D01*
X113988371Y-151209643D02*
X114216942Y-151266786D01*
X114216942Y-151266786D02*
X114331228Y-151323929D01*
X114331228Y-151323929D02*
X114445514Y-151438214D01*
X114445514Y-151438214D02*
X114502657Y-151609643D01*
X114502657Y-151609643D02*
X114502657Y-151723929D01*
X114502657Y-151723929D02*
X114445514Y-151895357D01*
X114445514Y-151895357D02*
X114388371Y-151952500D01*
X114502657Y-152352500D02*
X114502657Y-153095357D01*
X114502657Y-153095357D02*
X114045514Y-152695357D01*
X114045514Y-152695357D02*
X114045514Y-152866786D01*
X114045514Y-152866786D02*
X113988371Y-152981072D01*
X113988371Y-152981072D02*
X113931228Y-153038214D01*
X113931228Y-153038214D02*
X113816942Y-153095357D01*
X113816942Y-153095357D02*
X113531228Y-153095357D01*
X113531228Y-153095357D02*
X113416942Y-153038214D01*
X113416942Y-153038214D02*
X113359800Y-152981072D01*
X113359800Y-152981072D02*
X113302657Y-152866786D01*
X113302657Y-152866786D02*
X113302657Y-152523929D01*
X113302657Y-152523929D02*
X113359800Y-152409643D01*
X113359800Y-152409643D02*
X113416942Y-152352500D01*
D11*
X137835476Y-45007419D02*
X137835476Y-45721704D01*
X137835476Y-45721704D02*
X137787857Y-45864561D01*
X137787857Y-45864561D02*
X137692619Y-45959800D01*
X137692619Y-45959800D02*
X137549762Y-46007419D01*
X137549762Y-46007419D02*
X137454524Y-46007419D01*
X138835476Y-46007419D02*
X138264048Y-46007419D01*
X138549762Y-46007419D02*
X138549762Y-45007419D01*
X138549762Y-45007419D02*
X138454524Y-45150276D01*
X138454524Y-45150276D02*
X138359286Y-45245514D01*
X138359286Y-45245514D02*
X138264048Y-45293133D01*
X139454524Y-45007419D02*
X139549762Y-45007419D01*
X139549762Y-45007419D02*
X139645000Y-45055038D01*
X139645000Y-45055038D02*
X139692619Y-45102657D01*
X139692619Y-45102657D02*
X139740238Y-45197895D01*
X139740238Y-45197895D02*
X139787857Y-45388371D01*
X139787857Y-45388371D02*
X139787857Y-45626466D01*
X139787857Y-45626466D02*
X139740238Y-45816942D01*
X139740238Y-45816942D02*
X139692619Y-45912180D01*
X139692619Y-45912180D02*
X139645000Y-45959800D01*
X139645000Y-45959800D02*
X139549762Y-46007419D01*
X139549762Y-46007419D02*
X139454524Y-46007419D01*
X139454524Y-46007419D02*
X139359286Y-45959800D01*
X139359286Y-45959800D02*
X139311667Y-45912180D01*
X139311667Y-45912180D02*
X139264048Y-45816942D01*
X139264048Y-45816942D02*
X139216429Y-45626466D01*
X139216429Y-45626466D02*
X139216429Y-45388371D01*
X139216429Y-45388371D02*
X139264048Y-45197895D01*
X139264048Y-45197895D02*
X139311667Y-45102657D01*
X139311667Y-45102657D02*
X139359286Y-45055038D01*
X139359286Y-45055038D02*
X139454524Y-45007419D01*
D12*
%TO.C,G\u002A\u002A\u002A*%
G36*
X136023049Y-200835047D02*
G01*
X136024712Y-200851537D01*
X136023049Y-200853574D01*
X136014788Y-200851666D01*
X136013785Y-200844310D01*
X136018869Y-200832873D01*
X136023049Y-200835047D01*
G37*
G36*
X138774252Y-208116010D02*
G01*
X138775915Y-208132500D01*
X138774252Y-208134537D01*
X138765992Y-208132629D01*
X138764989Y-208125273D01*
X138770073Y-208113836D01*
X138774252Y-208116010D01*
G37*
%TO.C,TP10*%
D10*
X122800000Y-162250000D02*
G75*
G02*
X121200000Y-162250000I-800000J0D01*
G01*
X121200000Y-162250000D02*
G75*
G02*
X122800000Y-162250000I800000J0D01*
G01*
%TO.C,TP9*%
X122300000Y-142750000D02*
G75*
G02*
X120700000Y-142750000I-800000J0D01*
G01*
X120700000Y-142750000D02*
G75*
G02*
X122300000Y-142750000I800000J0D01*
G01*
%TO.C,TP8*%
X52550000Y-182500000D02*
G75*
G02*
X50950000Y-182500000I-800000J0D01*
G01*
X50950000Y-182500000D02*
G75*
G02*
X52550000Y-182500000I800000J0D01*
G01*
%TO.C,TP7*%
X122050000Y-207000000D02*
G75*
G02*
X120450000Y-207000000I-800000J0D01*
G01*
X120450000Y-207000000D02*
G75*
G02*
X122050000Y-207000000I800000J0D01*
G01*
%TO.C,TP6*%
X99800000Y-201750000D02*
G75*
G02*
X98200000Y-201750000I-800000J0D01*
G01*
X98200000Y-201750000D02*
G75*
G02*
X99800000Y-201750000I800000J0D01*
G01*
%TO.C,TP5*%
X118800000Y-161750000D02*
G75*
G02*
X117200000Y-161750000I-800000J0D01*
G01*
X117200000Y-161750000D02*
G75*
G02*
X118800000Y-161750000I800000J0D01*
G01*
%TO.C,TP4*%
X119550000Y-204750000D02*
G75*
G02*
X117950000Y-204750000I-800000J0D01*
G01*
X117950000Y-204750000D02*
G75*
G02*
X119550000Y-204750000I800000J0D01*
G01*
%TO.C,TP3*%
X136800000Y-160500000D02*
G75*
G02*
X135200000Y-160500000I-800000J0D01*
G01*
X135200000Y-160500000D02*
G75*
G02*
X136800000Y-160500000I800000J0D01*
G01*
%TO.C,TP2*%
X132300000Y-206750000D02*
G75*
G02*
X130700000Y-206750000I-800000J0D01*
G01*
X130700000Y-206750000D02*
G75*
G02*
X132300000Y-206750000I800000J0D01*
G01*
%TO.C,TP1*%
X129300000Y-200000000D02*
G75*
G02*
X127700000Y-200000000I-800000J0D01*
G01*
X127700000Y-200000000D02*
G75*
G02*
X129300000Y-200000000I800000J0D01*
G01*
%TO.C,U2*%
D13*
X56370000Y-93040000D02*
X57150000Y-93040000D01*
X55200000Y-93040000D02*
X55290000Y-93040000D01*
X58122500Y-93292500D02*
X58317500Y-93487500D01*
X58320000Y-93500000D02*
X58320000Y-94860000D01*
X58320000Y-94860000D02*
X57320000Y-94860000D01*
X56200000Y-94860000D02*
X55200000Y-94860000D01*
X55200000Y-94860000D02*
X55200000Y-93040000D01*
X57140000Y-92500000D02*
X56810000Y-92740000D01*
X56810000Y-92260000D01*
X57140000Y-92500000D01*
G36*
X57140000Y-92500000D02*
G01*
X56810000Y-92740000D01*
X56810000Y-92260000D01*
X57140000Y-92500000D01*
G37*
%TO.C,J4*%
X115017500Y-203587500D02*
X115017500Y-205172500D01*
X113737500Y-203587500D02*
X115017500Y-203587500D01*
X110747500Y-205132500D02*
X110747500Y-210572500D01*
D14*
X115048278Y-212136847D02*
X115048278Y-210553153D01*
X113696722Y-212136847D02*
X115048278Y-212136847D01*
D11*
X115827500Y-205052500D02*
X115497500Y-205056911D01*
X115497500Y-205052500D01*
X115497500Y-204722500D01*
X115827500Y-205052500D01*
G36*
X115827500Y-205052500D02*
G01*
X115497500Y-205056911D01*
X115497500Y-205052500D01*
X115497500Y-204722500D01*
X115827500Y-205052500D01*
G37*
%TO.C,J1*%
D15*
X120645710Y-222124748D02*
G75*
G02*
X120454290Y-222124748I-95710J0D01*
G01*
X120454290Y-222124748D02*
G75*
G02*
X120645710Y-222124748I95710J0D01*
G01*
D11*
%TO.C,J6*%
X122807500Y-195357500D02*
X122803089Y-195027500D01*
X122807500Y-195027500D01*
X123137500Y-195027500D01*
X122807500Y-195357500D01*
G36*
X122807500Y-195357500D02*
G01*
X122803089Y-195027500D01*
X122807500Y-195027500D01*
X123137500Y-195027500D01*
X122807500Y-195357500D01*
G37*
D13*
X124272500Y-194547500D02*
X122687500Y-194547500D01*
X124272500Y-193267500D02*
X124272500Y-194547500D01*
X122727500Y-190277500D02*
X117287500Y-190277500D01*
D14*
X115723153Y-194578278D02*
X117306847Y-194578278D01*
X115723153Y-193226722D02*
X115723153Y-194578278D01*
D11*
%TO.C,J9*%
X105364411Y-30997500D02*
X105360000Y-30997500D01*
X105030000Y-30997500D01*
X105360000Y-30667500D01*
X105364411Y-30997500D01*
G36*
X105364411Y-30997500D02*
G01*
X105360000Y-30997500D01*
X105030000Y-30997500D01*
X105360000Y-30667500D01*
X105364411Y-30997500D01*
G37*
D13*
X109865000Y-32787500D02*
X109865000Y-31477500D01*
X109865000Y-31477500D02*
X108330000Y-31477500D01*
X105440000Y-35747500D02*
X108180000Y-35747500D01*
X103895000Y-32757500D02*
X103895000Y-31477500D01*
X103895000Y-31477500D02*
X105480000Y-31477500D01*
%TO.C,C1*%
D10*
X119275000Y-153800000D02*
X119275000Y-154000000D01*
X118325000Y-154000000D02*
X118325000Y-153800000D01*
D11*
%TO.C,J11*%
X160404411Y-52867500D02*
X160400000Y-52867500D01*
X160070000Y-52867500D01*
X160400000Y-52537500D01*
X160404411Y-52867500D01*
G36*
X160404411Y-52867500D02*
G01*
X160400000Y-52867500D01*
X160070000Y-52867500D01*
X160400000Y-52537500D01*
X160404411Y-52867500D01*
G37*
D13*
X164905000Y-54657500D02*
X164905000Y-53347500D01*
X164905000Y-53347500D02*
X163370000Y-53347500D01*
X160480000Y-57617500D02*
X163220000Y-57617500D01*
X158935000Y-54627500D02*
X158935000Y-53347500D01*
X158935000Y-53347500D02*
X160520000Y-53347500D01*
D11*
%TO.C,J8*%
X73104411Y-40407500D02*
X73100000Y-40407500D01*
X72770000Y-40407500D01*
X73100000Y-40077500D01*
X73104411Y-40407500D01*
G36*
X73104411Y-40407500D02*
G01*
X73100000Y-40407500D01*
X72770000Y-40407500D01*
X73100000Y-40077500D01*
X73104411Y-40407500D01*
G37*
D13*
X77605000Y-42197500D02*
X77605000Y-40887500D01*
X77605000Y-40887500D02*
X76070000Y-40887500D01*
X73180000Y-45157500D02*
X75920000Y-45157500D01*
X71635000Y-42167500D02*
X71635000Y-40887500D01*
X71635000Y-40887500D02*
X73220000Y-40887500D01*
D11*
%TO.C,J5*%
X111151986Y-197462587D02*
X110915522Y-197232360D01*
X110918641Y-197229241D01*
X111151986Y-196995896D01*
X111151986Y-197462587D01*
G36*
X111151986Y-197462587D02*
G01*
X110915522Y-197232360D01*
X110918641Y-197229241D01*
X111151986Y-196995896D01*
X111151986Y-197462587D01*
G37*
D13*
X111615141Y-195853919D02*
X110494377Y-196974683D01*
X110710044Y-194948822D02*
X111615141Y-195853919D01*
X107503315Y-193927053D02*
X103656654Y-197773714D01*
D14*
X105591603Y-201920983D02*
X106711444Y-200801142D01*
X104635909Y-200965289D02*
X105591603Y-201920983D01*
D11*
%TO.C,J7*%
X35683276Y-103345700D02*
X35678865Y-103345700D01*
X35348865Y-103345700D01*
X35678865Y-103015700D01*
X35683276Y-103345700D01*
G36*
X35683276Y-103345700D02*
G01*
X35678865Y-103345700D01*
X35348865Y-103345700D01*
X35678865Y-103015700D01*
X35683276Y-103345700D01*
G37*
D13*
X40183865Y-105135700D02*
X40183865Y-103825700D01*
X40183865Y-103825700D02*
X38648865Y-103825700D01*
X35758865Y-108095700D02*
X38498865Y-108095700D01*
X34213865Y-105105700D02*
X34213865Y-103825700D01*
X34213865Y-103825700D02*
X35798865Y-103825700D01*
%TO.C,U1*%
D16*
X119141906Y-158511804D02*
G75*
G02*
X118966906Y-158511804I-87500J0D01*
G01*
X118966906Y-158511804D02*
G75*
G02*
X119141906Y-158511804I87500J0D01*
G01*
D10*
X118254406Y-158511804D02*
X118704406Y-158511804D01*
X118254406Y-156111804D02*
X118704406Y-156111804D01*
X116354406Y-158511804D02*
X115904406Y-158511804D01*
X116354406Y-156111804D02*
X115904406Y-156111804D01*
%TO.C,C4*%
X56940000Y-91105000D02*
X56740000Y-91105000D01*
X56740000Y-90155000D02*
X56940000Y-90155000D01*
D11*
%TO.C,J2*%
X144740760Y-202428641D02*
X144974105Y-202661986D01*
X144507414Y-202661986D01*
X144737641Y-202425522D01*
X144740760Y-202428641D01*
G36*
X144740760Y-202428641D02*
G01*
X144974105Y-202661986D01*
X144507414Y-202661986D01*
X144737641Y-202425522D01*
X144740760Y-202428641D01*
G37*
D13*
X148042948Y-199013315D02*
X144196287Y-195166654D01*
X147021179Y-202220044D02*
X146116082Y-203125141D01*
X146116082Y-203125141D02*
X144995318Y-202004377D01*
D14*
X141004712Y-196145909D02*
X140049018Y-197101603D01*
X140049018Y-197101603D02*
X141168859Y-198221444D01*
D11*
%TO.C,J3*%
X135237500Y-195577500D02*
X135233089Y-195247500D01*
X135237500Y-195247500D01*
X135567500Y-195247500D01*
X135237500Y-195577500D01*
G36*
X135237500Y-195577500D02*
G01*
X135233089Y-195247500D01*
X135237500Y-195247500D01*
X135567500Y-195247500D01*
X135237500Y-195577500D01*
G37*
D13*
X136702500Y-194767500D02*
X135117500Y-194767500D01*
X136702500Y-193487500D02*
X136702500Y-194767500D01*
X135157500Y-190497500D02*
X129717500Y-190497500D01*
D14*
X128153153Y-194798278D02*
X129736847Y-194798278D01*
X128153153Y-193446722D02*
X128153153Y-194798278D01*
%TO.C,C2*%
D10*
X112575000Y-154300000D02*
X112575000Y-154500000D01*
X111625000Y-154500000D02*
X111625000Y-154300000D01*
%TO.C,C3*%
X114575000Y-155000000D02*
X114575000Y-155200000D01*
X113625000Y-155200000D02*
X113625000Y-155000000D01*
D11*
%TO.C,J10*%
X136479411Y-38390000D02*
X136475000Y-38390000D01*
X136145000Y-38390000D01*
X136475000Y-38060000D01*
X136479411Y-38390000D01*
G36*
X136479411Y-38390000D02*
G01*
X136475000Y-38390000D01*
X136145000Y-38390000D01*
X136475000Y-38060000D01*
X136479411Y-38390000D01*
G37*
D13*
X140980000Y-40180000D02*
X140980000Y-38870000D01*
X140980000Y-38870000D02*
X139445000Y-38870000D01*
X136555000Y-43140000D02*
X139295000Y-43140000D01*
X135010000Y-40150000D02*
X135010000Y-38870000D01*
X135010000Y-38870000D02*
X136595000Y-38870000D01*
%TD*%
M02*
