%TF.GenerationSoftware,KiCad,Pcbnew,10.0.2*%
%TF.CreationDate,2026-09-18T19:38:27+02:00*%
%TF.ProjectId,HandFPC,48616e64-4650-4432-9e6b-696361645f70,rev?*%
%TF.SameCoordinates,Original*%
%TF.FileFunction,Legend,Bot*%
%TF.FilePolarity,Positive*%
%FSLAX46Y46*%
G04 Gerber Fmt 4.6, Leading zero omitted, Abs format (unit mm)*
G04 Created by KiCad (PCBNEW 10.0.2) date 2026-09-18 19:38:27*
%MOMM*%
%LPD*%
G01*
G04 APERTURE LIST*
%ADD10C,0.100000*%
%ADD11C,0.000000*%
G04 APERTURE END LIST*
D10*
X133672306Y-218420038D02*
X133767544Y-218372419D01*
X133767544Y-218372419D02*
X133910401Y-218372419D01*
X133910401Y-218372419D02*
X134053258Y-218420038D01*
X134053258Y-218420038D02*
X134148496Y-218515276D01*
X134148496Y-218515276D02*
X134196115Y-218610514D01*
X134196115Y-218610514D02*
X134243734Y-218800990D01*
X134243734Y-218800990D02*
X134243734Y-218943847D01*
X134243734Y-218943847D02*
X134196115Y-219134323D01*
X134196115Y-219134323D02*
X134148496Y-219229561D01*
X134148496Y-219229561D02*
X134053258Y-219324800D01*
X134053258Y-219324800D02*
X133910401Y-219372419D01*
X133910401Y-219372419D02*
X133815163Y-219372419D01*
X133815163Y-219372419D02*
X133672306Y-219324800D01*
X133672306Y-219324800D02*
X133624687Y-219277180D01*
X133624687Y-219277180D02*
X133624687Y-218943847D01*
X133624687Y-218943847D02*
X133815163Y-218943847D01*
X133196115Y-218991466D02*
X132434211Y-218991466D01*
X131481830Y-219372419D02*
X131958020Y-219372419D01*
X131958020Y-219372419D02*
X131958020Y-218372419D01*
X131005639Y-219372419D02*
X131100877Y-219324800D01*
X131100877Y-219324800D02*
X131148496Y-219277180D01*
X131148496Y-219277180D02*
X131196115Y-219181942D01*
X131196115Y-219181942D02*
X131196115Y-218896228D01*
X131196115Y-218896228D02*
X131148496Y-218800990D01*
X131148496Y-218800990D02*
X131100877Y-218753371D01*
X131100877Y-218753371D02*
X131005639Y-218705752D01*
X131005639Y-218705752D02*
X130862782Y-218705752D01*
X130862782Y-218705752D02*
X130767544Y-218753371D01*
X130767544Y-218753371D02*
X130719925Y-218800990D01*
X130719925Y-218800990D02*
X130672306Y-218896228D01*
X130672306Y-218896228D02*
X130672306Y-219181942D01*
X130672306Y-219181942D02*
X130719925Y-219277180D01*
X130719925Y-219277180D02*
X130767544Y-219324800D01*
X130767544Y-219324800D02*
X130862782Y-219372419D01*
X130862782Y-219372419D02*
X131005639Y-219372419D01*
X130338972Y-218705752D02*
X130100877Y-219372419D01*
X130100877Y-219372419D02*
X129862782Y-218705752D01*
X129100877Y-219324800D02*
X129196115Y-219372419D01*
X129196115Y-219372419D02*
X129386591Y-219372419D01*
X129386591Y-219372419D02*
X129481829Y-219324800D01*
X129481829Y-219324800D02*
X129529448Y-219229561D01*
X129529448Y-219229561D02*
X129529448Y-218848609D01*
X129529448Y-218848609D02*
X129481829Y-218753371D01*
X129481829Y-218753371D02*
X129386591Y-218705752D01*
X129386591Y-218705752D02*
X129196115Y-218705752D01*
X129196115Y-218705752D02*
X129100877Y-218753371D01*
X129100877Y-218753371D02*
X129053258Y-218848609D01*
X129053258Y-218848609D02*
X129053258Y-218943847D01*
X129053258Y-218943847D02*
X129529448Y-219039085D01*
X127862781Y-218991466D02*
X127100877Y-218991466D01*
X125862781Y-219372419D02*
X125862781Y-218372419D01*
X125862781Y-218848609D02*
X125291353Y-218848609D01*
X125291353Y-219372419D02*
X125291353Y-218372419D01*
X124386591Y-219372419D02*
X124386591Y-218848609D01*
X124386591Y-218848609D02*
X124434210Y-218753371D01*
X124434210Y-218753371D02*
X124529448Y-218705752D01*
X124529448Y-218705752D02*
X124719924Y-218705752D01*
X124719924Y-218705752D02*
X124815162Y-218753371D01*
X124386591Y-219324800D02*
X124481829Y-219372419D01*
X124481829Y-219372419D02*
X124719924Y-219372419D01*
X124719924Y-219372419D02*
X124815162Y-219324800D01*
X124815162Y-219324800D02*
X124862781Y-219229561D01*
X124862781Y-219229561D02*
X124862781Y-219134323D01*
X124862781Y-219134323D02*
X124815162Y-219039085D01*
X124815162Y-219039085D02*
X124719924Y-218991466D01*
X124719924Y-218991466D02*
X124481829Y-218991466D01*
X124481829Y-218991466D02*
X124386591Y-218943847D01*
X123910400Y-218705752D02*
X123910400Y-219372419D01*
X123910400Y-218800990D02*
X123862781Y-218753371D01*
X123862781Y-218753371D02*
X123767543Y-218705752D01*
X123767543Y-218705752D02*
X123624686Y-218705752D01*
X123624686Y-218705752D02*
X123529448Y-218753371D01*
X123529448Y-218753371D02*
X123481829Y-218848609D01*
X123481829Y-218848609D02*
X123481829Y-219372419D01*
X122577067Y-219372419D02*
X122577067Y-218372419D01*
X122577067Y-219324800D02*
X122672305Y-219372419D01*
X122672305Y-219372419D02*
X122862781Y-219372419D01*
X122862781Y-219372419D02*
X122958019Y-219324800D01*
X122958019Y-219324800D02*
X123005638Y-219277180D01*
X123005638Y-219277180D02*
X123053257Y-219181942D01*
X123053257Y-219181942D02*
X123053257Y-218896228D01*
X123053257Y-218896228D02*
X123005638Y-218800990D01*
X123005638Y-218800990D02*
X122958019Y-218753371D01*
X122958019Y-218753371D02*
X122862781Y-218705752D01*
X122862781Y-218705752D02*
X122672305Y-218705752D01*
X122672305Y-218705752D02*
X122577067Y-218753371D01*
X121767543Y-218848609D02*
X122100876Y-218848609D01*
X122100876Y-219372419D02*
X122100876Y-218372419D01*
X122100876Y-218372419D02*
X121624686Y-218372419D01*
X121243733Y-219372419D02*
X121243733Y-218372419D01*
X121243733Y-218372419D02*
X120862781Y-218372419D01*
X120862781Y-218372419D02*
X120767543Y-218420038D01*
X120767543Y-218420038D02*
X120719924Y-218467657D01*
X120719924Y-218467657D02*
X120672305Y-218562895D01*
X120672305Y-218562895D02*
X120672305Y-218705752D01*
X120672305Y-218705752D02*
X120719924Y-218800990D01*
X120719924Y-218800990D02*
X120767543Y-218848609D01*
X120767543Y-218848609D02*
X120862781Y-218896228D01*
X120862781Y-218896228D02*
X121243733Y-218896228D01*
X119672305Y-219277180D02*
X119719924Y-219324800D01*
X119719924Y-219324800D02*
X119862781Y-219372419D01*
X119862781Y-219372419D02*
X119958019Y-219372419D01*
X119958019Y-219372419D02*
X120100876Y-219324800D01*
X120100876Y-219324800D02*
X120196114Y-219229561D01*
X120196114Y-219229561D02*
X120243733Y-219134323D01*
X120243733Y-219134323D02*
X120291352Y-218943847D01*
X120291352Y-218943847D02*
X120291352Y-218800990D01*
X120291352Y-218800990D02*
X120243733Y-218610514D01*
X120243733Y-218610514D02*
X120196114Y-218515276D01*
X120196114Y-218515276D02*
X120100876Y-218420038D01*
X120100876Y-218420038D02*
X119958019Y-218372419D01*
X119958019Y-218372419D02*
X119862781Y-218372419D01*
X119862781Y-218372419D02*
X119719924Y-218420038D01*
X119719924Y-218420038D02*
X119672305Y-218467657D01*
X118624685Y-218372419D02*
X118291352Y-219372419D01*
X118291352Y-219372419D02*
X117958019Y-218372419D01*
X117100876Y-219372419D02*
X117672304Y-219372419D01*
X117386590Y-219372419D02*
X117386590Y-218372419D01*
X117386590Y-218372419D02*
X117481828Y-218515276D01*
X117481828Y-218515276D02*
X117577066Y-218610514D01*
X117577066Y-218610514D02*
X117672304Y-218658133D01*
X84029523Y-115013609D02*
X84362856Y-115013609D01*
X84362856Y-115537419D02*
X84362856Y-114537419D01*
X84362856Y-114537419D02*
X83886666Y-114537419D01*
X83553332Y-115489800D02*
X83410475Y-115537419D01*
X83410475Y-115537419D02*
X83172380Y-115537419D01*
X83172380Y-115537419D02*
X83077142Y-115489800D01*
X83077142Y-115489800D02*
X83029523Y-115442180D01*
X83029523Y-115442180D02*
X82981904Y-115346942D01*
X82981904Y-115346942D02*
X82981904Y-115251704D01*
X82981904Y-115251704D02*
X83029523Y-115156466D01*
X83029523Y-115156466D02*
X83077142Y-115108847D01*
X83077142Y-115108847D02*
X83172380Y-115061228D01*
X83172380Y-115061228D02*
X83362856Y-115013609D01*
X83362856Y-115013609D02*
X83458094Y-114965990D01*
X83458094Y-114965990D02*
X83505713Y-114918371D01*
X83505713Y-114918371D02*
X83553332Y-114823133D01*
X83553332Y-114823133D02*
X83553332Y-114727895D01*
X83553332Y-114727895D02*
X83505713Y-114632657D01*
X83505713Y-114632657D02*
X83458094Y-114585038D01*
X83458094Y-114585038D02*
X83362856Y-114537419D01*
X83362856Y-114537419D02*
X83124761Y-114537419D01*
X83124761Y-114537419D02*
X82981904Y-114585038D01*
X82600951Y-114632657D02*
X82553332Y-114585038D01*
X82553332Y-114585038D02*
X82458094Y-114537419D01*
X82458094Y-114537419D02*
X82219999Y-114537419D01*
X82219999Y-114537419D02*
X82124761Y-114585038D01*
X82124761Y-114585038D02*
X82077142Y-114632657D01*
X82077142Y-114632657D02*
X82029523Y-114727895D01*
X82029523Y-114727895D02*
X82029523Y-114823133D01*
X82029523Y-114823133D02*
X82077142Y-114965990D01*
X82077142Y-114965990D02*
X82648570Y-115537419D01*
X82648570Y-115537419D02*
X82029523Y-115537419D01*
X56537265Y-177716699D02*
X56703932Y-177428024D01*
X57157564Y-177689929D02*
X56291539Y-177189929D01*
X56291539Y-177189929D02*
X56053444Y-177602322D01*
X56711563Y-178367188D02*
X56681374Y-178514715D01*
X56681374Y-178514715D02*
X56562326Y-178720912D01*
X56562326Y-178720912D02*
X56473468Y-178779581D01*
X56473468Y-178779581D02*
X56408419Y-178797011D01*
X56408419Y-178797011D02*
X56302131Y-178790631D01*
X56302131Y-178790631D02*
X56219652Y-178743012D01*
X56219652Y-178743012D02*
X56160983Y-178654154D01*
X56160983Y-178654154D02*
X56143553Y-178589105D01*
X56143553Y-178589105D02*
X56149933Y-178482817D01*
X56149933Y-178482817D02*
X56203932Y-178294050D01*
X56203932Y-178294050D02*
X56210312Y-178187762D01*
X56210312Y-178187762D02*
X56192882Y-178122713D01*
X56192882Y-178122713D02*
X56134213Y-178033854D01*
X56134213Y-178033854D02*
X56051734Y-177986235D01*
X56051734Y-177986235D02*
X55945446Y-177979856D01*
X55945446Y-177979856D02*
X55880397Y-177997285D01*
X55880397Y-177997285D02*
X55791539Y-178055955D01*
X55791539Y-178055955D02*
X55672491Y-178262151D01*
X55672491Y-178262151D02*
X55642302Y-178409679D01*
X55990898Y-179710655D02*
X56276612Y-179215783D01*
X56133755Y-179463219D02*
X55267729Y-178963219D01*
X55267729Y-178963219D02*
X55439066Y-178952169D01*
X55439066Y-178952169D02*
X55569164Y-178917310D01*
X55569164Y-178917310D02*
X55658022Y-178858641D01*
X114199523Y-106233609D02*
X114532856Y-106233609D01*
X114532856Y-106757419D02*
X114532856Y-105757419D01*
X114532856Y-105757419D02*
X114056666Y-105757419D01*
X113723332Y-106709800D02*
X113580475Y-106757419D01*
X113580475Y-106757419D02*
X113342380Y-106757419D01*
X113342380Y-106757419D02*
X113247142Y-106709800D01*
X113247142Y-106709800D02*
X113199523Y-106662180D01*
X113199523Y-106662180D02*
X113151904Y-106566942D01*
X113151904Y-106566942D02*
X113151904Y-106471704D01*
X113151904Y-106471704D02*
X113199523Y-106376466D01*
X113199523Y-106376466D02*
X113247142Y-106328847D01*
X113247142Y-106328847D02*
X113342380Y-106281228D01*
X113342380Y-106281228D02*
X113532856Y-106233609D01*
X113532856Y-106233609D02*
X113628094Y-106185990D01*
X113628094Y-106185990D02*
X113675713Y-106138371D01*
X113675713Y-106138371D02*
X113723332Y-106043133D01*
X113723332Y-106043133D02*
X113723332Y-105947895D01*
X113723332Y-105947895D02*
X113675713Y-105852657D01*
X113675713Y-105852657D02*
X113628094Y-105805038D01*
X113628094Y-105805038D02*
X113532856Y-105757419D01*
X113532856Y-105757419D02*
X113294761Y-105757419D01*
X113294761Y-105757419D02*
X113151904Y-105805038D01*
X112818570Y-105757419D02*
X112199523Y-105757419D01*
X112199523Y-105757419D02*
X112532856Y-106138371D01*
X112532856Y-106138371D02*
X112389999Y-106138371D01*
X112389999Y-106138371D02*
X112294761Y-106185990D01*
X112294761Y-106185990D02*
X112247142Y-106233609D01*
X112247142Y-106233609D02*
X112199523Y-106328847D01*
X112199523Y-106328847D02*
X112199523Y-106566942D01*
X112199523Y-106566942D02*
X112247142Y-106662180D01*
X112247142Y-106662180D02*
X112294761Y-106709800D01*
X112294761Y-106709800D02*
X112389999Y-106757419D01*
X112389999Y-106757419D02*
X112675713Y-106757419D01*
X112675713Y-106757419D02*
X112770951Y-106709800D01*
X112770951Y-106709800D02*
X112818570Y-106662180D01*
X111029981Y-45524188D02*
X111265684Y-45288486D01*
X111636073Y-45658875D02*
X110928966Y-44951769D01*
X110928966Y-44951769D02*
X110592248Y-45288486D01*
X111029981Y-46197624D02*
X110962638Y-46332311D01*
X110962638Y-46332311D02*
X110794279Y-46500669D01*
X110794279Y-46500669D02*
X110693264Y-46534341D01*
X110693264Y-46534341D02*
X110625920Y-46534341D01*
X110625920Y-46534341D02*
X110524905Y-46500669D01*
X110524905Y-46500669D02*
X110457561Y-46433326D01*
X110457561Y-46433326D02*
X110423890Y-46332311D01*
X110423890Y-46332311D02*
X110423890Y-46264967D01*
X110423890Y-46264967D02*
X110457561Y-46163952D01*
X110457561Y-46163952D02*
X110558577Y-45995593D01*
X110558577Y-45995593D02*
X110592248Y-45894578D01*
X110592248Y-45894578D02*
X110592248Y-45827234D01*
X110592248Y-45827234D02*
X110558577Y-45726219D01*
X110558577Y-45726219D02*
X110491233Y-45658876D01*
X110491233Y-45658876D02*
X110390218Y-45625204D01*
X110390218Y-45625204D02*
X110322874Y-45625204D01*
X110322874Y-45625204D02*
X110221859Y-45658876D01*
X110221859Y-45658876D02*
X110053500Y-45827234D01*
X110053500Y-45827234D02*
X109986157Y-45961921D01*
X109952485Y-47342463D02*
X109851470Y-46770043D01*
X110356546Y-46938402D02*
X109649439Y-46231295D01*
X109649439Y-46231295D02*
X109380065Y-46500669D01*
X109380065Y-46500669D02*
X109346394Y-46601685D01*
X109346394Y-46601685D02*
X109346394Y-46669028D01*
X109346394Y-46669028D02*
X109380065Y-46770043D01*
X109380065Y-46770043D02*
X109481081Y-46871059D01*
X109481081Y-46871059D02*
X109582096Y-46904730D01*
X109582096Y-46904730D02*
X109649439Y-46904730D01*
X109649439Y-46904730D02*
X109750455Y-46871059D01*
X109750455Y-46871059D02*
X110019829Y-46601685D01*
X109009676Y-46871059D02*
X108571943Y-47308791D01*
X108571943Y-47308791D02*
X109077020Y-47342463D01*
X109077020Y-47342463D02*
X108976004Y-47443478D01*
X108976004Y-47443478D02*
X108942333Y-47544494D01*
X108942333Y-47544494D02*
X108942333Y-47611837D01*
X108942333Y-47611837D02*
X108976004Y-47712852D01*
X108976004Y-47712852D02*
X109144363Y-47881211D01*
X109144363Y-47881211D02*
X109245378Y-47914883D01*
X109245378Y-47914883D02*
X109312722Y-47914883D01*
X109312722Y-47914883D02*
X109413737Y-47881211D01*
X109413737Y-47881211D02*
X109615768Y-47679181D01*
X109615768Y-47679181D02*
X109649439Y-47578165D01*
X109649439Y-47578165D02*
X109649439Y-47510822D01*
X38896972Y-122406188D02*
X39132674Y-122641891D01*
X38762285Y-123012280D02*
X39469391Y-122305173D01*
X39469391Y-122305173D02*
X39132674Y-121968455D01*
X38223536Y-122406188D02*
X38088849Y-122338845D01*
X38088849Y-122338845D02*
X37920491Y-122170486D01*
X37920491Y-122170486D02*
X37886819Y-122069471D01*
X37886819Y-122069471D02*
X37886819Y-122002127D01*
X37886819Y-122002127D02*
X37920491Y-121901112D01*
X37920491Y-121901112D02*
X37987834Y-121833768D01*
X37987834Y-121833768D02*
X38088849Y-121800097D01*
X38088849Y-121800097D02*
X38156193Y-121800097D01*
X38156193Y-121800097D02*
X38257208Y-121833768D01*
X38257208Y-121833768D02*
X38425567Y-121934784D01*
X38425567Y-121934784D02*
X38526582Y-121968455D01*
X38526582Y-121968455D02*
X38593926Y-121968455D01*
X38593926Y-121968455D02*
X38694941Y-121934784D01*
X38694941Y-121934784D02*
X38762284Y-121867440D01*
X38762284Y-121867440D02*
X38795956Y-121766425D01*
X38795956Y-121766425D02*
X38795956Y-121699081D01*
X38795956Y-121699081D02*
X38762284Y-121598066D01*
X38762284Y-121598066D02*
X38593926Y-121429707D01*
X38593926Y-121429707D02*
X38459239Y-121362364D01*
X37078697Y-121328692D02*
X37651117Y-121227677D01*
X37482758Y-121732753D02*
X38189865Y-121025646D01*
X38189865Y-121025646D02*
X37920491Y-120756272D01*
X37920491Y-120756272D02*
X37819475Y-120722601D01*
X37819475Y-120722601D02*
X37752132Y-120722601D01*
X37752132Y-120722601D02*
X37651117Y-120756272D01*
X37651117Y-120756272D02*
X37550101Y-120857288D01*
X37550101Y-120857288D02*
X37516430Y-120958303D01*
X37516430Y-120958303D02*
X37516430Y-121025646D01*
X37516430Y-121025646D02*
X37550101Y-121126662D01*
X37550101Y-121126662D02*
X37819475Y-121396036D01*
X36405262Y-120655257D02*
X36809323Y-121059318D01*
X36607292Y-120857288D02*
X37314399Y-120150181D01*
X37314399Y-120150181D02*
X37280727Y-120318540D01*
X37280727Y-120318540D02*
X37280727Y-120453227D01*
X37280727Y-120453227D02*
X37314399Y-120554242D01*
X139296972Y-55896188D02*
X139532674Y-56131891D01*
X139162285Y-56502280D02*
X139869391Y-55795173D01*
X139869391Y-55795173D02*
X139532674Y-55458455D01*
X138623536Y-55896188D02*
X138488849Y-55828845D01*
X138488849Y-55828845D02*
X138320491Y-55660486D01*
X138320491Y-55660486D02*
X138286819Y-55559471D01*
X138286819Y-55559471D02*
X138286819Y-55492127D01*
X138286819Y-55492127D02*
X138320491Y-55391112D01*
X138320491Y-55391112D02*
X138387834Y-55323768D01*
X138387834Y-55323768D02*
X138488849Y-55290097D01*
X138488849Y-55290097D02*
X138556193Y-55290097D01*
X138556193Y-55290097D02*
X138657208Y-55323768D01*
X138657208Y-55323768D02*
X138825567Y-55424784D01*
X138825567Y-55424784D02*
X138926582Y-55458455D01*
X138926582Y-55458455D02*
X138993926Y-55458455D01*
X138993926Y-55458455D02*
X139094941Y-55424784D01*
X139094941Y-55424784D02*
X139162284Y-55357440D01*
X139162284Y-55357440D02*
X139195956Y-55256425D01*
X139195956Y-55256425D02*
X139195956Y-55189081D01*
X139195956Y-55189081D02*
X139162284Y-55088066D01*
X139162284Y-55088066D02*
X138993926Y-54919707D01*
X138993926Y-54919707D02*
X138859239Y-54852364D01*
X137478697Y-54818692D02*
X138051117Y-54717677D01*
X137882758Y-55222753D02*
X138589865Y-54515646D01*
X138589865Y-54515646D02*
X138320491Y-54246272D01*
X138320491Y-54246272D02*
X138219475Y-54212601D01*
X138219475Y-54212601D02*
X138152132Y-54212601D01*
X138152132Y-54212601D02*
X138051117Y-54246272D01*
X138051117Y-54246272D02*
X137950101Y-54347288D01*
X137950101Y-54347288D02*
X137916430Y-54448303D01*
X137916430Y-54448303D02*
X137916430Y-54515646D01*
X137916430Y-54515646D02*
X137950101Y-54616662D01*
X137950101Y-54616662D02*
X138219475Y-54886036D01*
X137344010Y-53741196D02*
X136872605Y-54212601D01*
X137781743Y-53640181D02*
X137445025Y-54313616D01*
X137445025Y-54313616D02*
X137007292Y-53875883D01*
X165587795Y-64646031D02*
X165352093Y-64410328D01*
X165722482Y-64039939D02*
X165015376Y-64747046D01*
X165015376Y-64747046D02*
X165352093Y-65083764D01*
X166261231Y-64646031D02*
X166395918Y-64713374D01*
X166395918Y-64713374D02*
X166564276Y-64881733D01*
X166564276Y-64881733D02*
X166597948Y-64982748D01*
X166597948Y-64982748D02*
X166597948Y-65050092D01*
X166597948Y-65050092D02*
X166564276Y-65151107D01*
X166564276Y-65151107D02*
X166496933Y-65218451D01*
X166496933Y-65218451D02*
X166395918Y-65252122D01*
X166395918Y-65252122D02*
X166328574Y-65252122D01*
X166328574Y-65252122D02*
X166227559Y-65218451D01*
X166227559Y-65218451D02*
X166059200Y-65117435D01*
X166059200Y-65117435D02*
X165958185Y-65083764D01*
X165958185Y-65083764D02*
X165890841Y-65083764D01*
X165890841Y-65083764D02*
X165789826Y-65117435D01*
X165789826Y-65117435D02*
X165722483Y-65184779D01*
X165722483Y-65184779D02*
X165688811Y-65285794D01*
X165688811Y-65285794D02*
X165688811Y-65353138D01*
X165688811Y-65353138D02*
X165722483Y-65454153D01*
X165722483Y-65454153D02*
X165890841Y-65622512D01*
X165890841Y-65622512D02*
X166025528Y-65689855D01*
X167406070Y-65723527D02*
X166833650Y-65824542D01*
X167002009Y-65319466D02*
X166294902Y-66026573D01*
X166294902Y-66026573D02*
X166564276Y-66295947D01*
X166564276Y-66295947D02*
X166665292Y-66329618D01*
X166665292Y-66329618D02*
X166732635Y-66329618D01*
X166732635Y-66329618D02*
X166833650Y-66295947D01*
X166833650Y-66295947D02*
X166934666Y-66194931D01*
X166934666Y-66194931D02*
X166968337Y-66093916D01*
X166968337Y-66093916D02*
X166968337Y-66026573D01*
X166968337Y-66026573D02*
X166934666Y-65925557D01*
X166934666Y-65925557D02*
X166665292Y-65656183D01*
X167338727Y-67070397D02*
X167002009Y-66733679D01*
X167002009Y-66733679D02*
X167305055Y-66363290D01*
X167305055Y-66363290D02*
X167305055Y-66430634D01*
X167305055Y-66430634D02*
X167338727Y-66531649D01*
X167338727Y-66531649D02*
X167507085Y-66700008D01*
X167507085Y-66700008D02*
X167608101Y-66733679D01*
X167608101Y-66733679D02*
X167675444Y-66733679D01*
X167675444Y-66733679D02*
X167776459Y-66700008D01*
X167776459Y-66700008D02*
X167944818Y-66531649D01*
X167944818Y-66531649D02*
X167978490Y-66430634D01*
X167978490Y-66430634D02*
X167978490Y-66363290D01*
X167978490Y-66363290D02*
X167944818Y-66262275D01*
X167944818Y-66262275D02*
X167776459Y-66093916D01*
X167776459Y-66093916D02*
X167675444Y-66060244D01*
X167675444Y-66060244D02*
X167608101Y-66060244D01*
X80949593Y-51184845D02*
X80713891Y-50949142D01*
X81084280Y-50578753D02*
X80377174Y-51285860D01*
X80377174Y-51285860D02*
X80713891Y-51622578D01*
X81623029Y-51184845D02*
X81757716Y-51252188D01*
X81757716Y-51252188D02*
X81926074Y-51420547D01*
X81926074Y-51420547D02*
X81959746Y-51521562D01*
X81959746Y-51521562D02*
X81959746Y-51588906D01*
X81959746Y-51588906D02*
X81926074Y-51689921D01*
X81926074Y-51689921D02*
X81858731Y-51757265D01*
X81858731Y-51757265D02*
X81757716Y-51790936D01*
X81757716Y-51790936D02*
X81690372Y-51790936D01*
X81690372Y-51790936D02*
X81589357Y-51757265D01*
X81589357Y-51757265D02*
X81420998Y-51656249D01*
X81420998Y-51656249D02*
X81319983Y-51622578D01*
X81319983Y-51622578D02*
X81252639Y-51622578D01*
X81252639Y-51622578D02*
X81151624Y-51656249D01*
X81151624Y-51656249D02*
X81084281Y-51723593D01*
X81084281Y-51723593D02*
X81050609Y-51824608D01*
X81050609Y-51824608D02*
X81050609Y-51891952D01*
X81050609Y-51891952D02*
X81084281Y-51992967D01*
X81084281Y-51992967D02*
X81252639Y-52161326D01*
X81252639Y-52161326D02*
X81387326Y-52228669D01*
X82767868Y-52262341D02*
X82195448Y-52363356D01*
X82363807Y-51858280D02*
X81656700Y-52565387D01*
X81656700Y-52565387D02*
X81926074Y-52834761D01*
X81926074Y-52834761D02*
X82027090Y-52868432D01*
X82027090Y-52868432D02*
X82094433Y-52868432D01*
X82094433Y-52868432D02*
X82195448Y-52834761D01*
X82195448Y-52834761D02*
X82296464Y-52733745D01*
X82296464Y-52733745D02*
X82330135Y-52632730D01*
X82330135Y-52632730D02*
X82330135Y-52565387D01*
X82330135Y-52565387D02*
X82296464Y-52464371D01*
X82296464Y-52464371D02*
X82027090Y-52194997D01*
X82397479Y-53171478D02*
X82397479Y-53238822D01*
X82397479Y-53238822D02*
X82431151Y-53339837D01*
X82431151Y-53339837D02*
X82599509Y-53508196D01*
X82599509Y-53508196D02*
X82700525Y-53541867D01*
X82700525Y-53541867D02*
X82767868Y-53541867D01*
X82767868Y-53541867D02*
X82868883Y-53508196D01*
X82868883Y-53508196D02*
X82936227Y-53440852D01*
X82936227Y-53440852D02*
X83003570Y-53306165D01*
X83003570Y-53306165D02*
X83003570Y-52498043D01*
X83003570Y-52498043D02*
X83441303Y-52935776D01*
X163239523Y-122153609D02*
X163572856Y-122153609D01*
X163572856Y-122677419D02*
X163572856Y-121677419D01*
X163572856Y-121677419D02*
X163096666Y-121677419D01*
X162763332Y-122629800D02*
X162620475Y-122677419D01*
X162620475Y-122677419D02*
X162382380Y-122677419D01*
X162382380Y-122677419D02*
X162287142Y-122629800D01*
X162287142Y-122629800D02*
X162239523Y-122582180D01*
X162239523Y-122582180D02*
X162191904Y-122486942D01*
X162191904Y-122486942D02*
X162191904Y-122391704D01*
X162191904Y-122391704D02*
X162239523Y-122296466D01*
X162239523Y-122296466D02*
X162287142Y-122248847D01*
X162287142Y-122248847D02*
X162382380Y-122201228D01*
X162382380Y-122201228D02*
X162572856Y-122153609D01*
X162572856Y-122153609D02*
X162668094Y-122105990D01*
X162668094Y-122105990D02*
X162715713Y-122058371D01*
X162715713Y-122058371D02*
X162763332Y-121963133D01*
X162763332Y-121963133D02*
X162763332Y-121867895D01*
X162763332Y-121867895D02*
X162715713Y-121772657D01*
X162715713Y-121772657D02*
X162668094Y-121725038D01*
X162668094Y-121725038D02*
X162572856Y-121677419D01*
X162572856Y-121677419D02*
X162334761Y-121677419D01*
X162334761Y-121677419D02*
X162191904Y-121725038D01*
X161287142Y-121677419D02*
X161763332Y-121677419D01*
X161763332Y-121677419D02*
X161810951Y-122153609D01*
X161810951Y-122153609D02*
X161763332Y-122105990D01*
X161763332Y-122105990D02*
X161668094Y-122058371D01*
X161668094Y-122058371D02*
X161429999Y-122058371D01*
X161429999Y-122058371D02*
X161334761Y-122105990D01*
X161334761Y-122105990D02*
X161287142Y-122153609D01*
X161287142Y-122153609D02*
X161239523Y-122248847D01*
X161239523Y-122248847D02*
X161239523Y-122486942D01*
X161239523Y-122486942D02*
X161287142Y-122582180D01*
X161287142Y-122582180D02*
X161334761Y-122629800D01*
X161334761Y-122629800D02*
X161429999Y-122677419D01*
X161429999Y-122677419D02*
X161668094Y-122677419D01*
X161668094Y-122677419D02*
X161763332Y-122629800D01*
X161763332Y-122629800D02*
X161810951Y-122582180D01*
X139569523Y-111483609D02*
X139902856Y-111483609D01*
X139902856Y-112007419D02*
X139902856Y-111007419D01*
X139902856Y-111007419D02*
X139426666Y-111007419D01*
X139093332Y-111959800D02*
X138950475Y-112007419D01*
X138950475Y-112007419D02*
X138712380Y-112007419D01*
X138712380Y-112007419D02*
X138617142Y-111959800D01*
X138617142Y-111959800D02*
X138569523Y-111912180D01*
X138569523Y-111912180D02*
X138521904Y-111816942D01*
X138521904Y-111816942D02*
X138521904Y-111721704D01*
X138521904Y-111721704D02*
X138569523Y-111626466D01*
X138569523Y-111626466D02*
X138617142Y-111578847D01*
X138617142Y-111578847D02*
X138712380Y-111531228D01*
X138712380Y-111531228D02*
X138902856Y-111483609D01*
X138902856Y-111483609D02*
X138998094Y-111435990D01*
X138998094Y-111435990D02*
X139045713Y-111388371D01*
X139045713Y-111388371D02*
X139093332Y-111293133D01*
X139093332Y-111293133D02*
X139093332Y-111197895D01*
X139093332Y-111197895D02*
X139045713Y-111102657D01*
X139045713Y-111102657D02*
X138998094Y-111055038D01*
X138998094Y-111055038D02*
X138902856Y-111007419D01*
X138902856Y-111007419D02*
X138664761Y-111007419D01*
X138664761Y-111007419D02*
X138521904Y-111055038D01*
X137664761Y-111340752D02*
X137664761Y-112007419D01*
X137902856Y-110959800D02*
X138140951Y-111674085D01*
X138140951Y-111674085D02*
X137521904Y-111674085D01*
D11*
%TO.C,G\u002A\u002A\u002A*%
G36*
X136402845Y-196989178D02*
G01*
X136557211Y-196989827D01*
X136689934Y-196991985D01*
X136807142Y-196996160D01*
X136914966Y-197002856D01*
X137019532Y-197012580D01*
X137126970Y-197025839D01*
X137243409Y-197043137D01*
X137374977Y-197064982D01*
X137424125Y-197073514D01*
X137812552Y-197155467D01*
X138193563Y-197263626D01*
X138565888Y-197397098D01*
X138928259Y-197554988D01*
X139279405Y-197736401D01*
X139618058Y-197940443D01*
X139942949Y-198166220D01*
X140252807Y-198412836D01*
X140546365Y-198679397D01*
X140822353Y-198965009D01*
X141079501Y-199268777D01*
X141316541Y-199589806D01*
X141532203Y-199927203D01*
X141573444Y-199997936D01*
X141659058Y-200153109D01*
X141742768Y-200316117D01*
X141822375Y-200482007D01*
X141895681Y-200645827D01*
X141960487Y-200802621D01*
X142014595Y-200947438D01*
X142055808Y-201075323D01*
X142063109Y-201101367D01*
X142084061Y-201177619D01*
X142108081Y-201263542D01*
X142130414Y-201342142D01*
X142133101Y-201351477D01*
X142149344Y-201412934D01*
X142169120Y-201496008D01*
X142191539Y-201596197D01*
X142215708Y-201709003D01*
X142240735Y-201829926D01*
X142265728Y-201954466D01*
X142289796Y-202078123D01*
X142312048Y-202196399D01*
X142331590Y-202304793D01*
X142347532Y-202398805D01*
X142358982Y-202473937D01*
X142364426Y-202518654D01*
X142376357Y-202640986D01*
X142387009Y-202743619D01*
X142397374Y-202834551D01*
X142408445Y-202921781D01*
X142421215Y-203013305D01*
X142436675Y-203117122D01*
X142447187Y-203185612D01*
X142480287Y-203400149D01*
X142509548Y-203590853D01*
X142535483Y-203761339D01*
X142558611Y-203915222D01*
X142579446Y-204056114D01*
X142598503Y-204187632D01*
X142616300Y-204313388D01*
X142633351Y-204436998D01*
X142650172Y-204562075D01*
X142667280Y-204692234D01*
X142685190Y-204831088D01*
X142704417Y-204982253D01*
X142710910Y-205033643D01*
X142743427Y-205286241D01*
X142774557Y-205516136D01*
X142805189Y-205728046D01*
X142836215Y-205926690D01*
X142868525Y-206116789D01*
X142903009Y-206303061D01*
X142940558Y-206490225D01*
X142982061Y-206683001D01*
X143028410Y-206886109D01*
X143080494Y-207104266D01*
X143139205Y-207342194D01*
X143168363Y-207458315D01*
X143245502Y-207756442D01*
X143320688Y-208030074D01*
X143395203Y-208282314D01*
X143470328Y-208516269D01*
X143547344Y-208735043D01*
X143627533Y-208941741D01*
X143712175Y-209139468D01*
X143802553Y-209331330D01*
X143899947Y-209520431D01*
X144005639Y-209709877D01*
X144120910Y-209902772D01*
X144247041Y-210102222D01*
X144280726Y-210153938D01*
X144322999Y-210218767D01*
X144374744Y-210298538D01*
X144430475Y-210384772D01*
X144484707Y-210468990D01*
X144505456Y-210501313D01*
X144613859Y-210668039D01*
X144711488Y-210812843D01*
X144800498Y-210938404D01*
X144883042Y-211047400D01*
X144961276Y-211142509D01*
X145037354Y-211226410D01*
X145113429Y-211301779D01*
X145191656Y-211371296D01*
X145231987Y-211404485D01*
X145300820Y-211459928D01*
X145350754Y-211501141D01*
X145384508Y-211531361D01*
X145404801Y-211553821D01*
X145414350Y-211571757D01*
X145415875Y-211588402D01*
X145412094Y-211606992D01*
X145409656Y-211615874D01*
X145390016Y-211657765D01*
X145358493Y-211699250D01*
X145349145Y-211708422D01*
X145315971Y-211732788D01*
X145279895Y-211744780D01*
X145233584Y-211745323D01*
X145169707Y-211735341D01*
X145156674Y-211732685D01*
X145096465Y-211723633D01*
X145017530Y-211716660D01*
X144928291Y-211712019D01*
X144837168Y-211709960D01*
X144752581Y-211710735D01*
X144682950Y-211714595D01*
X144656455Y-211717748D01*
X144612054Y-211723562D01*
X144558089Y-211729305D01*
X144538348Y-211731084D01*
X144489746Y-211735995D01*
X144447318Y-211741636D01*
X144434136Y-211743936D01*
X144395354Y-211750850D01*
X144350832Y-211757653D01*
X144350766Y-211757662D01*
X144306244Y-211764633D01*
X144267432Y-211771956D01*
X144267396Y-211771964D01*
X144233918Y-211778774D01*
X144186291Y-211787907D01*
X144156162Y-211793485D01*
X144102605Y-211804337D01*
X144051839Y-211816364D01*
X144031107Y-211822091D01*
X143986175Y-211834122D01*
X143945129Y-211842809D01*
X143944338Y-211842938D01*
X143885540Y-211852530D01*
X143846512Y-211859136D01*
X143819572Y-211864103D01*
X143797331Y-211868713D01*
X143761176Y-211877505D01*
X143741751Y-211883011D01*
X143712791Y-211889560D01*
X143672182Y-211896102D01*
X143666063Y-211896902D01*
X143629061Y-211902920D01*
X143604708Y-211909318D01*
X143602366Y-211910460D01*
X143582005Y-211917236D01*
X143547417Y-211924461D01*
X143543688Y-211925080D01*
X143498998Y-211933115D01*
X143446806Y-211943548D01*
X143433698Y-211946344D01*
X143387033Y-211956260D01*
X143346087Y-211964614D01*
X143336433Y-211966486D01*
X143303704Y-211973430D01*
X143256404Y-211984315D01*
X143221800Y-211992635D01*
X143179474Y-212002150D01*
X143150508Y-212007021D01*
X143141904Y-212006604D01*
X143131601Y-212007840D01*
X143112834Y-212016549D01*
X143077550Y-212030103D01*
X143039885Y-212038919D01*
X142998052Y-212045371D01*
X142965537Y-212050329D01*
X142934339Y-212057959D01*
X142920430Y-212063974D01*
X142895156Y-212074463D01*
X142877951Y-212079179D01*
X142803610Y-212097024D01*
X142770213Y-212105772D01*
X142744624Y-212113682D01*
X142702771Y-212127611D01*
X142662527Y-212141477D01*
X142615453Y-212157560D01*
X142577061Y-212169986D01*
X142558315Y-212175377D01*
X142534096Y-212183393D01*
X142495275Y-212198631D01*
X142470319Y-212209147D01*
X142429177Y-212225735D01*
X142397424Y-212236391D01*
X142386950Y-212238489D01*
X142365040Y-212244087D01*
X142329464Y-212257764D01*
X142315153Y-212264044D01*
X142279899Y-212279279D01*
X142256561Y-212287917D01*
X142252626Y-212288691D01*
X142236890Y-212294219D01*
X142207721Y-212308515D01*
X142203993Y-212310502D01*
X142168397Y-212328552D01*
X142123705Y-212349759D01*
X142077354Y-212370790D01*
X142036782Y-212388314D01*
X142009425Y-212399000D01*
X142002516Y-212400751D01*
X141986600Y-212406391D01*
X141960831Y-212419451D01*
X141933416Y-212433724D01*
X141919146Y-212439661D01*
X141903250Y-212446528D01*
X141877462Y-212460327D01*
X141846197Y-212475829D01*
X141825857Y-212482848D01*
X141804013Y-212492323D01*
X141772262Y-212511912D01*
X141766803Y-212515726D01*
X141739858Y-212532710D01*
X141725398Y-212537534D01*
X141724617Y-212536273D01*
X141714757Y-212536126D01*
X141690927Y-212548861D01*
X141689880Y-212549543D01*
X141665659Y-212563073D01*
X141655155Y-212564303D01*
X141655142Y-212564089D01*
X141645333Y-212565796D01*
X141621007Y-212580318D01*
X141613457Y-212585558D01*
X141586680Y-212602612D01*
X141572467Y-212607740D01*
X141571772Y-212606679D01*
X141561557Y-212609032D01*
X141535192Y-212624062D01*
X141509245Y-212641138D01*
X141475102Y-212663220D01*
X141452391Y-212675210D01*
X141446718Y-212675534D01*
X141437353Y-212677155D01*
X141414384Y-212692403D01*
X141410106Y-212695709D01*
X141381307Y-212715479D01*
X141360992Y-212724458D01*
X141360145Y-212724507D01*
X141341040Y-212731963D01*
X141310603Y-212750417D01*
X141302965Y-212755717D01*
X141274013Y-212774364D01*
X141256225Y-212782131D01*
X141254402Y-212781720D01*
X141241618Y-212786307D01*
X141213393Y-212803546D01*
X141184927Y-212823235D01*
X141136743Y-212855471D01*
X141089822Y-212882637D01*
X141052142Y-212900351D01*
X141036655Y-212904694D01*
X141022406Y-212911977D01*
X140991761Y-212930298D01*
X140955197Y-212953254D01*
X140915588Y-212976753D01*
X140885654Y-212991100D01*
X140872549Y-212993300D01*
X140857192Y-212995070D01*
X140829887Y-213009697D01*
X140825718Y-213012513D01*
X140801821Y-213027120D01*
X140757695Y-213052249D01*
X140697707Y-213085486D01*
X140626224Y-213124417D01*
X140547612Y-213166627D01*
X140529650Y-213176191D01*
X140437574Y-213225530D01*
X140339934Y-213278526D01*
X140244486Y-213330925D01*
X140158983Y-213378472D01*
X140097441Y-213413314D01*
X140036591Y-213448977D01*
X139961280Y-213494307D01*
X139875095Y-213547037D01*
X139781620Y-213604901D01*
X139684441Y-213665632D01*
X139587144Y-213726964D01*
X139493314Y-213786630D01*
X139406538Y-213842364D01*
X139330400Y-213891899D01*
X139268486Y-213932968D01*
X139224382Y-213963306D01*
X139206969Y-213976193D01*
X139174933Y-214000171D01*
X139152208Y-214014721D01*
X139146937Y-214016739D01*
X139131136Y-214024984D01*
X139096616Y-214048202D01*
X139046446Y-214084115D01*
X138983696Y-214130446D01*
X138911435Y-214184920D01*
X138832733Y-214245259D01*
X138750659Y-214309186D01*
X138718264Y-214334705D01*
X138622505Y-214409728D01*
X138521217Y-214487898D01*
X138417370Y-214567022D01*
X138313931Y-214644909D01*
X138213867Y-214719368D01*
X138120149Y-214788207D01*
X138035743Y-214849235D01*
X137963618Y-214900260D01*
X137906741Y-214939091D01*
X137868082Y-214963537D01*
X137861816Y-214967035D01*
X137824456Y-214991250D01*
X137775068Y-215030838D01*
X137712111Y-215087179D01*
X137634043Y-215161657D01*
X137539322Y-215255652D01*
X137535284Y-215259717D01*
X137457800Y-215336780D01*
X137377786Y-215414615D01*
X137300070Y-215488649D01*
X137229482Y-215554308D01*
X137170849Y-215607021D01*
X137146225Y-215628186D01*
X137079514Y-215684733D01*
X137007022Y-215747144D01*
X136938519Y-215806963D01*
X136893865Y-215846628D01*
X136848012Y-215886178D01*
X136810104Y-215915762D01*
X136784440Y-215932229D01*
X136775428Y-215933450D01*
X136763425Y-215935695D01*
X136734430Y-215952912D01*
X136692769Y-215982248D01*
X136642767Y-216020848D01*
X136641835Y-216021596D01*
X136578275Y-216069881D01*
X136509430Y-216117746D01*
X136445113Y-216158562D01*
X136408977Y-216178905D01*
X136349494Y-216212657D01*
X136290080Y-216251123D01*
X136242717Y-216286500D01*
X136239132Y-216289544D01*
X136195141Y-216323363D01*
X136137217Y-216362371D01*
X136076271Y-216399313D01*
X136062418Y-216407059D01*
X135986686Y-216449547D01*
X135895253Y-216502342D01*
X135795881Y-216560860D01*
X135696334Y-216620516D01*
X135604372Y-216676726D01*
X135576094Y-216694311D01*
X135535790Y-216718256D01*
X135484675Y-216746876D01*
X135429105Y-216776830D01*
X135375436Y-216804779D01*
X135330025Y-216827384D01*
X135299225Y-216841305D01*
X135291247Y-216843975D01*
X135275115Y-216851056D01*
X135253036Y-216862715D01*
X135229957Y-216872996D01*
X135221772Y-216872324D01*
X135211884Y-216873348D01*
X135188074Y-216886647D01*
X135187767Y-216886848D01*
X135160947Y-216902424D01*
X135145937Y-216907729D01*
X135129466Y-216912543D01*
X135099819Y-216926147D01*
X135096572Y-216927810D01*
X135068849Y-216940188D01*
X135055300Y-216942393D01*
X135055033Y-216941666D01*
X135045141Y-216942785D01*
X135021323Y-216956130D01*
X135021028Y-216956323D01*
X134992911Y-216972666D01*
X134975869Y-216979254D01*
X134953029Y-216984348D01*
X134950820Y-216985140D01*
X134909628Y-217000319D01*
X134857566Y-217019041D01*
X134801719Y-217038817D01*
X134749169Y-217057161D01*
X134706998Y-217071585D01*
X134682291Y-217079604D01*
X134679869Y-217080270D01*
X134656311Y-217086925D01*
X134615596Y-217099237D01*
X134572183Y-217112768D01*
X134528197Y-217125829D01*
X134496956Y-217133523D01*
X134485339Y-217134214D01*
X134475082Y-217135096D01*
X134457188Y-217143300D01*
X134423890Y-217155479D01*
X134381624Y-217164424D01*
X134379266Y-217164738D01*
X134341560Y-217171650D01*
X134315362Y-217180096D01*
X134313626Y-217181073D01*
X134288087Y-217190505D01*
X134263020Y-217195385D01*
X134224171Y-217202918D01*
X134184182Y-217213833D01*
X134139381Y-217226223D01*
X134100813Y-217234437D01*
X134056238Y-217242470D01*
X134019858Y-217249687D01*
X133978782Y-217257368D01*
X133947997Y-217261954D01*
X133911027Y-217267683D01*
X133878522Y-217274046D01*
X133834805Y-217282542D01*
X133794064Y-217289284D01*
X133745194Y-217296678D01*
X133703747Y-217303149D01*
X133658327Y-217309567D01*
X133607817Y-217315613D01*
X133603009Y-217316121D01*
X133549185Y-217322189D01*
X133494563Y-217329020D01*
X133491849Y-217329384D01*
X133445858Y-217335134D01*
X133388194Y-217341759D01*
X133352899Y-217345562D01*
X133319708Y-217347801D01*
X133265871Y-217350001D01*
X133195478Y-217352109D01*
X133112617Y-217354072D01*
X133021377Y-217355837D01*
X132925848Y-217357352D01*
X132830119Y-217358563D01*
X132738278Y-217359419D01*
X132654416Y-217359866D01*
X132582621Y-217359851D01*
X132526983Y-217359322D01*
X132491590Y-217358225D01*
X132480491Y-217356822D01*
X132465145Y-217353587D01*
X132429066Y-217349647D01*
X132379273Y-217345734D01*
X132365241Y-217344829D01*
X132307910Y-217340672D01*
X132257471Y-217335921D01*
X132223604Y-217331507D01*
X132220459Y-217330912D01*
X132182216Y-217324739D01*
X132125150Y-217317522D01*
X132058151Y-217310291D01*
X131990110Y-217304073D01*
X131984245Y-217303599D01*
X131938593Y-217298353D01*
X131885806Y-217290164D01*
X131873085Y-217287847D01*
X131832425Y-217280393D01*
X131803011Y-217275472D01*
X131796663Y-217274624D01*
X131774061Y-217270697D01*
X131741083Y-217263532D01*
X131655094Y-217245067D01*
X131581291Y-217232501D01*
X131542202Y-217225041D01*
X131513143Y-217216901D01*
X131511816Y-217216366D01*
X131479673Y-217206121D01*
X131470131Y-217204129D01*
X131439108Y-217197497D01*
X131421499Y-217192961D01*
X131392735Y-217185191D01*
X131348763Y-217173520D01*
X131317287Y-217165242D01*
X131265174Y-217151197D01*
X131216500Y-217137443D01*
X131195706Y-217131239D01*
X131165606Y-217123576D01*
X131150850Y-217123069D01*
X131150547Y-217123723D01*
X131140285Y-217123177D01*
X131121855Y-217114834D01*
X131086442Y-217099556D01*
X131066275Y-217093503D01*
X131024817Y-217083826D01*
X130983212Y-217073455D01*
X130962965Y-217068007D01*
X130941332Y-217059966D01*
X130908358Y-217046095D01*
X130907385Y-217045668D01*
X130876765Y-217032531D01*
X130859179Y-217025604D01*
X130858753Y-217025481D01*
X130817330Y-217013095D01*
X130773224Y-216998084D01*
X130754540Y-216990924D01*
X130678827Y-216959939D01*
X130609816Y-216932277D01*
X130552172Y-216909758D01*
X130510560Y-216894203D01*
X130489644Y-216887432D01*
X130489149Y-216887345D01*
X130467396Y-216878573D01*
X130437532Y-216861225D01*
X130407454Y-216844348D01*
X130386624Y-216837418D01*
X130362943Y-216831304D01*
X130347924Y-216824409D01*
X130323015Y-216812005D01*
X130282186Y-216792665D01*
X130240427Y-216773394D01*
X130193926Y-216751022D01*
X130155766Y-216730566D01*
X130136214Y-216717919D01*
X130114044Y-216702532D01*
X130105204Y-216698892D01*
X130084672Y-216691681D01*
X130048796Y-216675921D01*
X130006856Y-216655942D01*
X129968133Y-216636074D01*
X129955580Y-216629102D01*
X129928287Y-216614452D01*
X129913895Y-216608475D01*
X129899588Y-216600832D01*
X129869866Y-216581775D01*
X129841916Y-216562824D01*
X129805054Y-216538320D01*
X129777707Y-216521979D01*
X129767998Y-216517833D01*
X129752594Y-216510526D01*
X129722087Y-216491653D01*
X129694079Y-216472843D01*
X129657585Y-216448251D01*
X129631061Y-216431593D01*
X129622101Y-216427093D01*
X129605068Y-216418869D01*
X129571684Y-216398433D01*
X129528080Y-216369906D01*
X129480389Y-216337409D01*
X129434742Y-216305064D01*
X129397272Y-216276991D01*
X129389360Y-216270684D01*
X129357215Y-216246232D01*
X129335766Y-216233121D01*
X129330306Y-216233001D01*
X129320765Y-216229965D01*
X129295657Y-216212285D01*
X129260254Y-216183701D01*
X129257358Y-216181245D01*
X129218346Y-216149155D01*
X129186354Y-216124820D01*
X129168394Y-216113556D01*
X129148814Y-216101108D01*
X129113259Y-216073337D01*
X129066047Y-216033909D01*
X129011496Y-215986489D01*
X128953922Y-215934742D01*
X128912251Y-215896137D01*
X128874632Y-215862459D01*
X128844989Y-215839041D01*
X128828675Y-215830034D01*
X128827419Y-215830385D01*
X128816205Y-215822917D01*
X128788950Y-215797950D01*
X128748542Y-215758333D01*
X128697864Y-215706914D01*
X128639805Y-215646543D01*
X128619749Y-215625386D01*
X128531539Y-215531955D01*
X128460320Y-215456348D01*
X128403957Y-215396228D01*
X128360314Y-215349259D01*
X128327255Y-215313104D01*
X128302645Y-215285426D01*
X128284347Y-215263890D01*
X128270227Y-215246158D01*
X128258148Y-215229895D01*
X128257800Y-215229413D01*
X128234588Y-215198451D01*
X128199890Y-215153635D01*
X128159722Y-215102699D01*
X128142287Y-215080868D01*
X128082108Y-215005170D01*
X128030524Y-214938970D01*
X127989643Y-214885062D01*
X127961576Y-214846243D01*
X127948431Y-214825309D01*
X127947712Y-214823004D01*
X127939984Y-214808541D01*
X127920519Y-214780485D01*
X127909500Y-214765756D01*
X127886511Y-214733671D01*
X127872915Y-214710829D01*
X127871335Y-214705960D01*
X127863382Y-214689995D01*
X127843367Y-214661419D01*
X127833123Y-214648219D01*
X127809802Y-214616863D01*
X127796178Y-214594430D01*
X127794744Y-214589908D01*
X127787318Y-214573620D01*
X127768321Y-214542465D01*
X127749585Y-214514455D01*
X127725073Y-214477520D01*
X127708732Y-214450019D01*
X127704595Y-214440177D01*
X127697259Y-214423719D01*
X127679258Y-214395413D01*
X127675859Y-214390575D01*
X127659615Y-214364358D01*
X127655921Y-214350753D01*
X127657170Y-214350219D01*
X127657509Y-214341543D01*
X127646647Y-214325902D01*
X127633754Y-214305349D01*
X127611570Y-214264580D01*
X127582536Y-214208572D01*
X127549094Y-214142300D01*
X127513685Y-214070740D01*
X127478749Y-213998869D01*
X127446730Y-213931663D01*
X127420068Y-213874098D01*
X127401204Y-213831150D01*
X127392704Y-213808315D01*
X127385347Y-213792169D01*
X127373608Y-213770104D01*
X127363754Y-213747060D01*
X127365278Y-213738840D01*
X127365102Y-213728967D01*
X127352208Y-213705111D01*
X127351551Y-213704103D01*
X127337846Y-213679865D01*
X127336227Y-213669376D01*
X127336415Y-213669365D01*
X127335660Y-213658676D01*
X127324210Y-213632188D01*
X127320098Y-213624206D01*
X127303822Y-213590714D01*
X127295004Y-213567220D01*
X127294631Y-213565153D01*
X127288047Y-213540729D01*
X127283974Y-213530415D01*
X127260998Y-213471357D01*
X127237299Y-213400027D01*
X127217710Y-213331382D01*
X127212111Y-213308044D01*
X127203001Y-213278265D01*
X127197429Y-213266411D01*
X127187419Y-213241975D01*
X127182746Y-213224778D01*
X127171989Y-213177995D01*
X127163162Y-213145965D01*
X127152718Y-213116195D01*
X127149653Y-213108197D01*
X127136421Y-213065343D01*
X127126245Y-213018253D01*
X127126185Y-213017879D01*
X127117562Y-212977762D01*
X127107196Y-212947141D01*
X127106208Y-212945180D01*
X127099256Y-212923040D01*
X127101042Y-212915843D01*
X127101542Y-212899445D01*
X127093302Y-212870630D01*
X127081026Y-212828657D01*
X127072504Y-212783746D01*
X127066393Y-212743958D01*
X127060049Y-212713663D01*
X127059721Y-212712499D01*
X127053105Y-212683428D01*
X127045982Y-212643786D01*
X127045564Y-212641138D01*
X127038394Y-212596702D01*
X127031771Y-212557914D01*
X127031745Y-212557768D01*
X127019839Y-212488964D01*
X127010441Y-212427584D01*
X127002170Y-212363432D01*
X126993645Y-212286314D01*
X126989405Y-212245131D01*
X126980179Y-212137049D01*
X126972660Y-212014667D01*
X126966975Y-211884071D01*
X126963256Y-211751347D01*
X126961630Y-211622582D01*
X126962228Y-211503862D01*
X126965179Y-211401273D01*
X126969925Y-211328063D01*
X126981179Y-211206854D01*
X126992023Y-211092463D01*
X127001473Y-210995283D01*
X127001542Y-210994584D01*
X127006712Y-210953163D01*
X127014240Y-210903787D01*
X127015933Y-210893808D01*
X127023622Y-210848784D01*
X127029942Y-210810516D01*
X127031054Y-210803491D01*
X127036986Y-210766924D01*
X127043721Y-210727106D01*
X127051476Y-210681650D01*
X127057810Y-210643736D01*
X127069408Y-210581913D01*
X127084951Y-210518213D01*
X127090706Y-210497034D01*
X127097981Y-210463138D01*
X127098527Y-210442530D01*
X127097659Y-210440912D01*
X127097884Y-210424965D01*
X127104609Y-210408712D01*
X127117162Y-210376056D01*
X127125661Y-210341521D01*
X127135416Y-210298173D01*
X127148596Y-210251824D01*
X127148796Y-210251203D01*
X127161972Y-210205057D01*
X127171812Y-210161606D01*
X127171912Y-210161047D01*
X127179082Y-210135342D01*
X128929106Y-210135342D01*
X128935493Y-210176464D01*
X128953244Y-210209384D01*
X128985335Y-210236257D01*
X129034742Y-210259237D01*
X129104440Y-210280477D01*
X129197406Y-210302131D01*
X129246936Y-210312444D01*
X129371341Y-210339334D01*
X129506405Y-210371275D01*
X129647751Y-210407017D01*
X129791005Y-210445309D01*
X129931788Y-210484899D01*
X130065725Y-210524538D01*
X130188440Y-210562973D01*
X130295556Y-210598955D01*
X130382697Y-210631232D01*
X130426411Y-210649569D01*
X130486212Y-210674657D01*
X130553079Y-210700115D01*
X130587801Y-210712196D01*
X130658805Y-210739133D01*
X130748244Y-210778514D01*
X130851159Y-210827784D01*
X130962591Y-210884388D01*
X131077579Y-210945772D01*
X131191165Y-211009379D01*
X131298388Y-211072656D01*
X131352024Y-211105869D01*
X131442119Y-211162374D01*
X131547103Y-211227597D01*
X131658004Y-211296003D01*
X131765855Y-211362058D01*
X131852243Y-211414526D01*
X132306296Y-211699066D01*
X132752373Y-211998857D01*
X133186225Y-212310774D01*
X133603603Y-212631695D01*
X134000260Y-212958497D01*
X134249125Y-213176328D01*
X134362325Y-213278892D01*
X134457990Y-213368072D01*
X134540064Y-213448112D01*
X134612494Y-213523256D01*
X134679228Y-213597749D01*
X134744210Y-213675835D01*
X134811388Y-213761758D01*
X134884708Y-213859764D01*
X134885160Y-213860377D01*
X134920424Y-213906189D01*
X134956750Y-213948217D01*
X134997726Y-213989656D01*
X135046939Y-214033699D01*
X135107977Y-214083541D01*
X135184429Y-214142376D01*
X135279882Y-214213399D01*
X135290251Y-214221030D01*
X135332134Y-214249882D01*
X135364721Y-214268662D01*
X135382512Y-214274325D01*
X135384136Y-214273029D01*
X135397486Y-214273798D01*
X135430953Y-214285378D01*
X135479916Y-214305921D01*
X135539751Y-214333581D01*
X135559131Y-214342990D01*
X135643328Y-214384044D01*
X135739068Y-214430302D01*
X135833320Y-214475486D01*
X135898600Y-214506505D01*
X135995474Y-214556328D01*
X136085821Y-214610452D01*
X136165511Y-214665841D01*
X136230419Y-214719461D01*
X136276416Y-214768279D01*
X136295211Y-214798095D01*
X136308583Y-214829308D01*
X136328919Y-214879209D01*
X136353285Y-214940519D01*
X136375042Y-214996335D01*
X136402321Y-215064705D01*
X136437393Y-215149273D01*
X136476433Y-215240989D01*
X136515618Y-215330805D01*
X136530646Y-215364551D01*
X136566494Y-215444920D01*
X136601812Y-215524871D01*
X136633518Y-215597373D01*
X136658530Y-215655396D01*
X136668203Y-215678316D01*
X136692934Y-215732942D01*
X136715108Y-215763882D01*
X136740257Y-215772402D01*
X136773913Y-215759766D01*
X136821607Y-215727241D01*
X136835729Y-215716638D01*
X136883022Y-215679174D01*
X136939430Y-215632071D01*
X136993783Y-215584684D01*
X137000675Y-215578486D01*
X137048354Y-215535771D01*
X137094077Y-215495439D01*
X137129621Y-215464730D01*
X137136136Y-215459251D01*
X137180934Y-215421949D01*
X137138027Y-215306407D01*
X137068719Y-215115512D01*
X137009221Y-214942678D01*
X136959958Y-214789292D01*
X136921355Y-214656739D01*
X136893836Y-214546405D01*
X136877825Y-214459677D01*
X136877176Y-214454757D01*
X136869569Y-214411877D01*
X136857984Y-214388797D01*
X136837987Y-214377534D01*
X136833588Y-214376263D01*
X136767081Y-214357319D01*
X136682210Y-214331526D01*
X136583086Y-214300272D01*
X136473820Y-214264945D01*
X136358521Y-214226935D01*
X136241301Y-214187630D01*
X136126268Y-214148418D01*
X136017534Y-214110688D01*
X135919208Y-214075830D01*
X135835401Y-214045230D01*
X135770223Y-214020278D01*
X135730270Y-214003516D01*
X135652526Y-213966987D01*
X135561033Y-213922584D01*
X135460710Y-213872826D01*
X135356476Y-213820233D01*
X135253249Y-213767323D01*
X135155950Y-213716615D01*
X135069496Y-213670629D01*
X134998807Y-213631884D01*
X134953119Y-213605520D01*
X134891429Y-213570441D01*
X134841909Y-213546503D01*
X134808855Y-213535673D01*
X134800377Y-213535630D01*
X134783581Y-213531767D01*
X134754607Y-213513319D01*
X134711675Y-213478865D01*
X134653004Y-213426987D01*
X134584164Y-213363182D01*
X134458585Y-213247395D01*
X134346195Y-213148961D01*
X134242270Y-213063990D01*
X134142087Y-212988588D01*
X134061543Y-212932598D01*
X134008475Y-212894961D01*
X133942307Y-212845059D01*
X133870850Y-212788928D01*
X133801913Y-212732608D01*
X133790591Y-212723099D01*
X133627028Y-212586395D01*
X133478651Y-212465408D01*
X133340706Y-212356494D01*
X133208444Y-212256009D01*
X133077113Y-212160309D01*
X132941960Y-212065750D01*
X132866575Y-212014459D01*
X132742523Y-211930611D01*
X132638594Y-211859901D01*
X132551731Y-211800146D01*
X132478874Y-211749159D01*
X132416964Y-211704757D01*
X132362942Y-211664754D01*
X132313749Y-211626966D01*
X132266326Y-211589207D01*
X132232702Y-211561754D01*
X132179364Y-211520561D01*
X132110561Y-211471334D01*
X132034851Y-211420015D01*
X131960791Y-211372543D01*
X131954803Y-211368849D01*
X131875014Y-211318631D01*
X131783806Y-211259376D01*
X131692250Y-211198371D01*
X131611415Y-211142903D01*
X131609081Y-211141267D01*
X131527466Y-211084238D01*
X131462022Y-211039386D01*
X131406280Y-211002773D01*
X131353770Y-210970462D01*
X131298024Y-210938513D01*
X131232573Y-210902990D01*
X131150947Y-210859953D01*
X131122757Y-210845207D01*
X130926705Y-210745965D01*
X130721496Y-210648033D01*
X130513400Y-210554149D01*
X130308686Y-210467048D01*
X130113626Y-210389468D01*
X129934488Y-210324146D01*
X129909462Y-210315602D01*
X129741806Y-210266670D01*
X129548070Y-210224312D01*
X129329220Y-210188725D01*
X129216235Y-210174190D01*
X129168134Y-210165981D01*
X129128833Y-210154888D01*
X129112795Y-210147145D01*
X129097565Y-210133177D01*
X129098046Y-210117779D01*
X129113856Y-210091106D01*
X129189612Y-210000661D01*
X129287508Y-209926058D01*
X129406308Y-209868110D01*
X129497046Y-209838990D01*
X129546387Y-209830084D01*
X129616463Y-209822855D01*
X129700332Y-209817479D01*
X129791052Y-209814130D01*
X129881681Y-209812983D01*
X129965277Y-209814212D01*
X130034897Y-209817993D01*
X130082446Y-209824251D01*
X130155574Y-209851230D01*
X130231316Y-209899058D01*
X130302767Y-209962477D01*
X130363026Y-210036225D01*
X130365565Y-210040005D01*
X130398694Y-210092344D01*
X130418934Y-210133604D01*
X130430315Y-210174752D01*
X130436869Y-210226755D01*
X130437691Y-210236250D01*
X130446951Y-210305285D01*
X130463083Y-210351586D01*
X130489242Y-210379959D01*
X130528583Y-210395212D01*
X130543865Y-210398015D01*
X130589386Y-210409683D01*
X130654306Y-210432742D01*
X130733816Y-210464941D01*
X130823108Y-210504024D01*
X130917371Y-210547738D01*
X131011797Y-210593829D01*
X131101576Y-210640044D01*
X131181899Y-210684129D01*
X131247956Y-210723829D01*
X131269328Y-210737991D01*
X131319883Y-210766898D01*
X131360900Y-210778837D01*
X131387863Y-210772725D01*
X131392334Y-210767541D01*
X131396994Y-210749407D01*
X131403536Y-210710390D01*
X131410895Y-210657239D01*
X131414824Y-210625118D01*
X131431262Y-210528992D01*
X131455791Y-210445440D01*
X131486597Y-210379079D01*
X131521863Y-210334527D01*
X131532182Y-210326660D01*
X131569109Y-210314789D01*
X131621030Y-210318891D01*
X131689853Y-210339436D01*
X131777486Y-210376896D01*
X131820396Y-210397805D01*
X131922340Y-210450400D01*
X132000751Y-210495500D01*
X132057791Y-210536193D01*
X132095620Y-210575571D01*
X132116399Y-210616726D01*
X132122291Y-210662748D01*
X132115455Y-210716727D01*
X132098053Y-210781756D01*
X132095225Y-210790871D01*
X132076693Y-210870754D01*
X132067823Y-210955886D01*
X132068634Y-211038012D01*
X132079149Y-211108880D01*
X132094318Y-211151456D01*
X132106804Y-211171758D01*
X132126156Y-211196788D01*
X132153756Y-211227838D01*
X132190987Y-211266198D01*
X132239233Y-211313157D01*
X132299875Y-211370007D01*
X132374298Y-211438037D01*
X132463884Y-211518537D01*
X132570015Y-211612799D01*
X132694075Y-211722112D01*
X132837447Y-211847766D01*
X132887475Y-211891501D01*
X133001827Y-211989890D01*
X133115401Y-212084261D01*
X133231488Y-212177080D01*
X133353381Y-212270808D01*
X133484371Y-212367909D01*
X133627750Y-212470847D01*
X133786810Y-212582084D01*
X133964842Y-212704085D01*
X134054595Y-212764891D01*
X134211165Y-212870533D01*
X134347444Y-212962160D01*
X134466098Y-213041419D01*
X134569792Y-213109960D01*
X134661190Y-213169429D01*
X134742958Y-213221477D01*
X134817760Y-213267750D01*
X134888260Y-213309897D01*
X134957125Y-213349566D01*
X135027018Y-213388406D01*
X135100605Y-213428065D01*
X135180550Y-213470191D01*
X135269518Y-213516432D01*
X135270405Y-213516891D01*
X135348299Y-213557253D01*
X135423397Y-213596245D01*
X135489850Y-213630825D01*
X135541810Y-213657950D01*
X135567564Y-213671473D01*
X135625586Y-213699207D01*
X135706182Y-213733548D01*
X135805315Y-213773089D01*
X135918949Y-213816423D01*
X136043048Y-213862142D01*
X136173576Y-213908841D01*
X136306498Y-213955111D01*
X136437776Y-213999546D01*
X136563376Y-214040739D01*
X136679260Y-214077283D01*
X136781394Y-214107770D01*
X136865740Y-214130795D01*
X136922734Y-214143900D01*
X136994675Y-214166034D01*
X137049473Y-214199459D01*
X137083824Y-214241183D01*
X137094421Y-214288217D01*
X137093355Y-214298276D01*
X137093872Y-214326991D01*
X137102390Y-214373941D01*
X137119424Y-214441218D01*
X137145486Y-214530918D01*
X137169095Y-214607275D01*
X137211719Y-214742504D01*
X137247014Y-214853929D01*
X137275878Y-214944290D01*
X137299212Y-215016327D01*
X137317918Y-215072778D01*
X137332896Y-215116384D01*
X137345046Y-215149884D01*
X137355269Y-215176017D01*
X137359104Y-215185217D01*
X137383203Y-215241961D01*
X137493981Y-215146842D01*
X137529880Y-215116130D01*
X137578614Y-215074598D01*
X137636467Y-215025395D01*
X137699724Y-214971672D01*
X137764668Y-214916577D01*
X137827585Y-214863263D01*
X137884757Y-214814878D01*
X137932471Y-214774573D01*
X137967010Y-214745498D01*
X137984658Y-214730804D01*
X137985623Y-214730031D01*
X137986170Y-214713776D01*
X137977355Y-214678511D01*
X137961282Y-214630538D01*
X137940056Y-214576163D01*
X137916837Y-214523906D01*
X137887843Y-214470877D01*
X137854081Y-214420379D01*
X137830618Y-214391903D01*
X137774571Y-214328955D01*
X137719876Y-214259785D01*
X137672002Y-214191880D01*
X137636417Y-214132723D01*
X137626664Y-214112768D01*
X137609358Y-214064629D01*
X137592615Y-214003395D01*
X137581719Y-213951201D01*
X137577228Y-213903679D01*
X137781441Y-213903679D01*
X137783240Y-213948444D01*
X137784376Y-213958882D01*
X137799307Y-214033366D01*
X137824009Y-214090546D01*
X137856348Y-214125577D01*
X137858342Y-214126786D01*
X137901454Y-214139784D01*
X137956260Y-214141018D01*
X138009753Y-214131387D01*
X138046532Y-214113776D01*
X138087029Y-214072304D01*
X138119914Y-214021419D01*
X138138390Y-213972224D01*
X138139989Y-213961159D01*
X138141965Y-213902094D01*
X138133918Y-213859285D01*
X138112019Y-213821898D01*
X138077425Y-213784053D01*
X138041808Y-213750036D01*
X138016424Y-213732521D01*
X137992707Y-213727546D01*
X137962792Y-213731024D01*
X137894242Y-213754771D01*
X137836728Y-213801304D01*
X137808430Y-213837382D01*
X137788997Y-213870904D01*
X137781441Y-213903679D01*
X137577228Y-213903679D01*
X137574009Y-213869615D01*
X137583721Y-213801820D01*
X137613426Y-213740946D01*
X137665694Y-213680125D01*
X137692482Y-213655174D01*
X137780419Y-213592955D01*
X137873350Y-213556073D01*
X137967690Y-213543934D01*
X138059855Y-213555943D01*
X138146260Y-213591503D01*
X138223322Y-213650021D01*
X138287455Y-213730901D01*
X138302037Y-213756396D01*
X138319396Y-213813315D01*
X138322970Y-213886992D01*
X138313778Y-213970667D01*
X138292841Y-214057580D01*
X138261177Y-214140971D01*
X138237101Y-214187102D01*
X138222482Y-214215356D01*
X138213856Y-214244333D01*
X138210132Y-214281764D01*
X138210219Y-214335382D01*
X138211321Y-214369877D01*
X138214480Y-214427873D01*
X138218970Y-214475143D01*
X138224058Y-214504956D01*
X138226767Y-214511401D01*
X138242151Y-214509202D01*
X138268737Y-214491378D01*
X138282347Y-214479378D01*
X138306806Y-214458489D01*
X138349652Y-214424302D01*
X138406848Y-214379938D01*
X138474358Y-214328518D01*
X138548146Y-214273160D01*
X138573030Y-214254676D01*
X138818762Y-214072601D01*
X138758876Y-213927675D01*
X138731753Y-213864629D01*
X138705165Y-213807294D01*
X138682596Y-213762952D01*
X138670181Y-213742290D01*
X138648542Y-213705894D01*
X138624603Y-213656902D01*
X138611767Y-213626545D01*
X138587900Y-213572274D01*
X138560636Y-213526557D01*
X138525426Y-213484339D01*
X138477719Y-213440564D01*
X138412966Y-213390177D01*
X138372554Y-213360766D01*
X138311401Y-213315672D01*
X138236493Y-213258586D01*
X138155377Y-213195363D01*
X138075601Y-213131857D01*
X138035503Y-213099317D01*
X137895014Y-212984585D01*
X137772498Y-212885126D01*
X137664599Y-212798399D01*
X137567963Y-212721861D01*
X137479234Y-212652972D01*
X137395057Y-212589189D01*
X137312077Y-212527971D01*
X137226938Y-212466775D01*
X137136285Y-212403060D01*
X137036762Y-212334284D01*
X136925016Y-212257905D01*
X136922998Y-212256531D01*
X136847090Y-212203929D01*
X136767697Y-212147366D01*
X136692839Y-212092651D01*
X136630538Y-212045595D01*
X136614426Y-212032995D01*
X136549725Y-211982288D01*
X136478285Y-211927097D01*
X136411567Y-211876248D01*
X136384635Y-211856013D01*
X136335393Y-211817021D01*
X136293524Y-211779760D01*
X136265143Y-211749866D01*
X136257755Y-211739122D01*
X136247300Y-211713641D01*
X136230629Y-211667169D01*
X136209656Y-211605286D01*
X136186294Y-211533577D01*
X136174009Y-211494803D01*
X136054135Y-211116453D01*
X135935381Y-210748950D01*
X135818979Y-210396022D01*
X135706163Y-210061394D01*
X135598167Y-209748794D01*
X135562655Y-209647878D01*
X135527326Y-209545960D01*
X135487523Y-209427810D01*
X135446684Y-209303837D01*
X135408244Y-209184447D01*
X135381465Y-209099027D01*
X135353051Y-209007275D01*
X135325181Y-208917928D01*
X135299672Y-208836762D01*
X135278340Y-208769555D01*
X135263004Y-208722082D01*
X135260987Y-208715978D01*
X135228720Y-208618883D01*
X135155441Y-208608359D01*
X135075683Y-208587460D01*
X134989138Y-208549329D01*
X134905268Y-208499281D01*
X134833538Y-208442626D01*
X134802316Y-208410133D01*
X134779106Y-208370876D01*
X134756436Y-208312681D01*
X134736782Y-208244332D01*
X134722623Y-208174614D01*
X134716433Y-208112310D01*
X134716343Y-208105213D01*
X134718726Y-208079338D01*
X135049236Y-208079338D01*
X135057322Y-208091951D01*
X135063335Y-208109371D01*
X135061750Y-208141985D01*
X135060817Y-208147431D01*
X135060346Y-208202588D01*
X135077302Y-208251674D01*
X135108194Y-208285557D01*
X135115075Y-208289390D01*
X135171815Y-208303614D01*
X135237764Y-208300157D01*
X135301444Y-208279895D01*
X135312090Y-208274358D01*
X135361706Y-208233908D01*
X135398870Y-208178917D01*
X135421779Y-208116215D01*
X135428632Y-208052632D01*
X135417629Y-207994999D01*
X135395403Y-207958471D01*
X135350782Y-207928357D01*
X135291989Y-207915062D01*
X135226575Y-207918070D01*
X135162087Y-207936867D01*
X135106076Y-207970935D01*
X135097285Y-207978833D01*
X135069131Y-208013626D01*
X135052171Y-208049800D01*
X135049236Y-208079338D01*
X134718726Y-208079338D01*
X134723546Y-208026987D01*
X134748051Y-207953681D01*
X134752201Y-207944631D01*
X134791005Y-207877079D01*
X134841881Y-207809668D01*
X134898186Y-207749943D01*
X134953275Y-207705446D01*
X134973163Y-207693764D01*
X135006307Y-207672188D01*
X135025405Y-207650717D01*
X135027243Y-207644075D01*
X135024902Y-207622817D01*
X135018484Y-207579928D01*
X135008898Y-207521118D01*
X134997051Y-207452094D01*
X134993585Y-207432459D01*
X134979058Y-207341406D01*
X134964816Y-207236049D01*
X134952552Y-207129841D01*
X134944357Y-207041466D01*
X134938899Y-206971934D01*
X134933600Y-206907372D01*
X134928051Y-206843486D01*
X134921840Y-206775984D01*
X134914557Y-206700573D01*
X134905790Y-206612960D01*
X134895129Y-206508854D01*
X134882162Y-206383960D01*
X134873191Y-206298085D01*
X134862655Y-206187625D01*
X134852823Y-206063633D01*
X134843562Y-205923717D01*
X134834737Y-205765487D01*
X134826215Y-205586553D01*
X134817863Y-205384524D01*
X134809846Y-205165645D01*
X134808796Y-205089933D01*
X134810014Y-204998210D01*
X134813186Y-204895966D01*
X134817997Y-204788695D01*
X134824131Y-204681890D01*
X134831276Y-204581043D01*
X134839115Y-204491647D01*
X134847335Y-204419195D01*
X134855411Y-204370129D01*
X134857713Y-204343707D01*
X134845602Y-204326815D01*
X134813943Y-204311075D01*
X134765503Y-204298632D01*
X134695426Y-204291602D01*
X134641286Y-204290262D01*
X134568427Y-204288914D01*
X134518994Y-204282515D01*
X134488664Y-204267536D01*
X134473115Y-204240446D01*
X134468025Y-204197715D01*
X134468599Y-204149231D01*
X134472750Y-204055927D01*
X134478705Y-203986391D01*
X134487226Y-203936622D01*
X134499075Y-203902617D01*
X134515016Y-203880375D01*
X134520760Y-203875358D01*
X134548476Y-203861638D01*
X134595541Y-203846254D01*
X134653828Y-203831694D01*
X134682390Y-203825916D01*
X134754880Y-203812274D01*
X134804433Y-203801988D01*
X134835412Y-203793221D01*
X134852180Y-203784137D01*
X134859098Y-203772898D01*
X134860532Y-203757666D01*
X134860545Y-203750896D01*
X134863141Y-203721517D01*
X134870089Y-203672845D01*
X134880187Y-203612813D01*
X134887251Y-203574671D01*
X134899114Y-203506411D01*
X134912131Y-203421009D01*
X134924784Y-203328988D01*
X134935559Y-203240866D01*
X134936301Y-203234245D01*
X134947801Y-203141949D01*
X134963082Y-203035013D01*
X134980248Y-202926001D01*
X134997398Y-202827478D01*
X134999282Y-202817396D01*
X135032504Y-202638724D01*
X135060037Y-202485272D01*
X135082207Y-202355127D01*
X135099342Y-202246377D01*
X135110841Y-202164332D01*
X135119224Y-202106387D01*
X135131923Y-202027255D01*
X135147854Y-201933009D01*
X135165929Y-201829720D01*
X135185063Y-201723461D01*
X135204171Y-201620306D01*
X135222166Y-201526325D01*
X135237964Y-201447593D01*
X135244582Y-201416378D01*
X135254593Y-201358805D01*
X135259720Y-201304910D01*
X135258883Y-201266162D01*
X135258786Y-201265546D01*
X135260809Y-201209255D01*
X135272547Y-201183418D01*
X135286281Y-201159114D01*
X135282514Y-201147325D01*
X135268436Y-201141082D01*
X135234951Y-201123746D01*
X135221499Y-201113893D01*
X135199097Y-201100163D01*
X135158742Y-201079975D01*
X135108278Y-201057199D01*
X135096444Y-201052160D01*
X135034095Y-201025389D01*
X134993924Y-201004459D01*
X134972552Y-200984299D01*
X134966598Y-200959837D01*
X134972684Y-200926001D01*
X134985114Y-200885086D01*
X135001961Y-200823786D01*
X135015976Y-200759094D01*
X135022257Y-200719256D01*
X135034388Y-200661610D01*
X135058192Y-200585972D01*
X135091223Y-200498283D01*
X135131034Y-200404488D01*
X135175179Y-200310528D01*
X135221212Y-200222348D01*
X135241287Y-200187161D01*
X135310320Y-200082287D01*
X135384487Y-199995645D01*
X135414596Y-199966427D01*
X135480641Y-199911024D01*
X135555489Y-199857551D01*
X135632827Y-199809736D01*
X135706344Y-199771309D01*
X135769728Y-199745997D01*
X135800139Y-199738676D01*
X135870812Y-199738953D01*
X135942707Y-199757739D01*
X136009692Y-199791364D01*
X136065635Y-199836157D01*
X136104404Y-199888450D01*
X136118310Y-199929090D01*
X136120247Y-199979466D01*
X136113746Y-200050807D01*
X136099679Y-200137895D01*
X136078916Y-200235510D01*
X136052328Y-200338432D01*
X136046739Y-200357987D01*
X136031155Y-200416339D01*
X136012636Y-200492942D01*
X135993282Y-200578717D01*
X135975196Y-200664586D01*
X135971626Y-200682433D01*
X135952618Y-200772875D01*
X135931350Y-200864663D01*
X135909095Y-200953157D01*
X135887127Y-201033719D01*
X135866718Y-201101713D01*
X135849143Y-201152498D01*
X135835674Y-201181438D01*
X135833991Y-201183724D01*
X135811240Y-201192339D01*
X135761109Y-201196369D01*
X135687128Y-201195919D01*
X135624943Y-201194471D01*
X135583958Y-201195432D01*
X135557604Y-201200085D01*
X135539313Y-201209711D01*
X135522517Y-201225591D01*
X135519724Y-201228588D01*
X135492514Y-201273069D01*
X135485574Y-201308347D01*
X135480735Y-201348839D01*
X135468884Y-201397712D01*
X135464028Y-201412771D01*
X135454483Y-201446353D01*
X135441240Y-201501503D01*
X135425579Y-201572449D01*
X135408781Y-201653420D01*
X135394643Y-201725408D01*
X135376971Y-201815894D01*
X135358602Y-201906541D01*
X135341081Y-201989950D01*
X135325954Y-202058725D01*
X135317455Y-202094857D01*
X135275627Y-202287791D01*
X135242663Y-202493342D01*
X135217484Y-202718353D01*
X135215331Y-202742436D01*
X135207611Y-202827895D01*
X135197744Y-202932907D01*
X135186513Y-203049391D01*
X135174699Y-203169266D01*
X135163085Y-203284450D01*
X135159681Y-203317615D01*
X135144466Y-203473035D01*
X135133655Y-203601936D01*
X135127222Y-203705232D01*
X135125136Y-203783836D01*
X135127369Y-203838663D01*
X135133892Y-203870627D01*
X135141876Y-203880254D01*
X135162794Y-203884318D01*
X135204040Y-203890132D01*
X135258289Y-203896706D01*
X135284867Y-203899634D01*
X135372007Y-203911044D01*
X135434417Y-203925976D01*
X135475155Y-203947674D01*
X135497282Y-203979384D01*
X135503854Y-204024351D01*
X135497930Y-204085822D01*
X135492052Y-204119475D01*
X135476330Y-204195578D01*
X135461459Y-204248961D01*
X135445522Y-204284554D01*
X135426601Y-204307288D01*
X135416009Y-204315011D01*
X135391054Y-204323668D01*
X135345757Y-204333297D01*
X135287463Y-204342488D01*
X135246225Y-204347545D01*
X135166793Y-204356220D01*
X135110936Y-204364337D01*
X135074716Y-204375232D01*
X135054193Y-204392242D01*
X135045427Y-204418704D01*
X135044479Y-204457954D01*
X135047410Y-204513330D01*
X135047546Y-204515824D01*
X135049260Y-204558021D01*
X135051204Y-204624227D01*
X135053298Y-204710666D01*
X135055466Y-204813560D01*
X135057629Y-204929131D01*
X135059710Y-205053600D01*
X135061630Y-205183191D01*
X135062238Y-205228173D01*
X135064228Y-205358466D01*
X135066671Y-205484778D01*
X135069458Y-205603359D01*
X135072479Y-205710458D01*
X135075626Y-205802325D01*
X135078789Y-205875211D01*
X135081859Y-205925365D01*
X135082888Y-205936816D01*
X135104036Y-206142628D01*
X135122135Y-206322541D01*
X135137352Y-206478258D01*
X135149856Y-206611485D01*
X135152937Y-206645459D01*
X135159336Y-206713425D01*
X135165305Y-206770967D01*
X135170239Y-206812649D01*
X135173535Y-206833034D01*
X135173900Y-206834011D01*
X135177132Y-206850259D01*
X135182247Y-206888188D01*
X135188493Y-206941814D01*
X135193982Y-206993803D01*
X135202667Y-207068951D01*
X135213388Y-207146042D01*
X135224462Y-207213513D01*
X135230224Y-207242943D01*
X135253653Y-207351296D01*
X135272303Y-207435469D01*
X135286982Y-207498504D01*
X135298503Y-207543444D01*
X135307674Y-207573331D01*
X135315306Y-207591206D01*
X135322209Y-207600113D01*
X135325925Y-207602266D01*
X135349303Y-207607664D01*
X135390446Y-207614186D01*
X135429653Y-207619150D01*
X135514245Y-207637197D01*
X135581926Y-207672253D01*
X135637336Y-207727800D01*
X135685116Y-207807319D01*
X135687771Y-207812781D01*
X135711942Y-207867261D01*
X135728793Y-207918033D01*
X135740806Y-207974842D01*
X135750461Y-208047435D01*
X135752620Y-208067487D01*
X135759853Y-208162506D01*
X135758350Y-208236041D01*
X135747025Y-208293323D01*
X135724795Y-208339583D01*
X135690575Y-208380054D01*
X135687172Y-208383307D01*
X135627237Y-208455339D01*
X135593489Y-208532984D01*
X135586672Y-208614487D01*
X135587137Y-208619479D01*
X135593435Y-208650467D01*
X135607716Y-208703806D01*
X135628794Y-208775609D01*
X135655486Y-208861992D01*
X135686606Y-208959071D01*
X135720969Y-209062961D01*
X135735702Y-209106567D01*
X135805566Y-209312151D01*
X135867163Y-209493627D01*
X135921218Y-209653180D01*
X135968455Y-209792998D01*
X136009598Y-209915268D01*
X136045373Y-210022174D01*
X136076504Y-210115906D01*
X136103715Y-210198648D01*
X136127731Y-210272587D01*
X136149276Y-210339911D01*
X136169075Y-210402805D01*
X136187852Y-210463457D01*
X136206332Y-210524052D01*
X136216253Y-210556892D01*
X136286392Y-210779116D01*
X136356552Y-210979237D01*
X136428893Y-211162860D01*
X136505573Y-211335590D01*
X136556493Y-211440172D01*
X136653938Y-211633752D01*
X136795870Y-211756541D01*
X136858023Y-211808587D01*
X136934951Y-211870388D01*
X137018706Y-211935703D01*
X137101341Y-211998288D01*
X137139278Y-212026258D01*
X137216617Y-212082905D01*
X137297633Y-212142668D01*
X137374953Y-212200081D01*
X137441202Y-212249675D01*
X137470310Y-212271686D01*
X137592353Y-212364057D01*
X137709987Y-212452294D01*
X137819250Y-212533459D01*
X137916180Y-212604616D01*
X137996814Y-212662829D01*
X138024588Y-212682514D01*
X138086906Y-212727654D01*
X138157976Y-212781103D01*
X138225221Y-212833353D01*
X138243928Y-212848308D01*
X138308096Y-212897790D01*
X138383158Y-212952250D01*
X138456167Y-213002384D01*
X138480142Y-213018022D01*
X138543620Y-213059313D01*
X138609131Y-213103023D01*
X138666419Y-213142269D01*
X138688567Y-213157918D01*
X138732491Y-213188585D01*
X138769813Y-213213089D01*
X138792941Y-213226462D01*
X138793924Y-213226891D01*
X138808336Y-213244725D01*
X138826738Y-213285708D01*
X138847419Y-213345787D01*
X138855521Y-213372788D01*
X138870576Y-213417693D01*
X138893566Y-213477691D01*
X138922158Y-213547516D01*
X138954015Y-213621899D01*
X138986806Y-213695574D01*
X139018194Y-213763274D01*
X139045847Y-213819730D01*
X139067430Y-213859676D01*
X139078471Y-213875899D01*
X139090158Y-213869589D01*
X139120056Y-213850366D01*
X139163660Y-213821326D01*
X139216465Y-213785566D01*
X139273967Y-213746181D01*
X139331660Y-213706269D01*
X139385040Y-213668925D01*
X139429603Y-213637245D01*
X139460843Y-213614326D01*
X139472349Y-213605174D01*
X139468725Y-213591553D01*
X139454924Y-213557510D01*
X139432922Y-213507613D01*
X139427416Y-213495678D01*
X139640372Y-213495678D01*
X139647319Y-213502626D01*
X139654267Y-213495678D01*
X139647319Y-213488731D01*
X139640372Y-213495678D01*
X139427416Y-213495678D01*
X139404699Y-213446432D01*
X139392095Y-213419789D01*
X139353611Y-213336400D01*
X139312929Y-213243908D01*
X139274980Y-213153759D01*
X139245532Y-213079608D01*
X139218443Y-213010048D01*
X139196406Y-212960085D01*
X139175406Y-212923047D01*
X139151429Y-212892260D01*
X139120459Y-212861054D01*
X139105913Y-212847599D01*
X139053164Y-212801907D01*
X138994326Y-212754690D01*
X138948069Y-212720426D01*
X138896818Y-212682787D01*
X138845410Y-212642015D01*
X138813621Y-212614657D01*
X138777554Y-212584808D01*
X138726222Y-212546246D01*
X138667883Y-212505056D01*
X138634616Y-212482707D01*
X138567442Y-212437522D01*
X138494203Y-212386671D01*
X138427232Y-212338762D01*
X138405349Y-212322640D01*
X138353869Y-212284922D01*
X138287276Y-212237075D01*
X138213386Y-212184670D01*
X138140014Y-212133277D01*
X138124251Y-212122335D01*
X138062821Y-212078445D01*
X137985474Y-212021120D01*
X137897748Y-211954585D01*
X137805180Y-211883065D01*
X137713311Y-211810785D01*
X137660698Y-211768705D01*
X137581970Y-211705484D01*
X137508690Y-211647003D01*
X137444142Y-211595853D01*
X137391609Y-211554626D01*
X137354372Y-211525912D01*
X137336451Y-211512777D01*
X137309818Y-211485593D01*
X137284091Y-211444317D01*
X137275076Y-211424345D01*
X137256580Y-211370862D01*
X137233645Y-211294273D01*
X137207313Y-211198716D01*
X137178630Y-211088326D01*
X137148639Y-210967242D01*
X137118384Y-210839601D01*
X137088908Y-210709539D01*
X137061257Y-210581195D01*
X137056202Y-210556892D01*
X137034686Y-210452992D01*
X137012651Y-210346920D01*
X136991503Y-210245421D01*
X136972648Y-210155239D01*
X136957493Y-210083120D01*
X136953241Y-210063009D01*
X136938410Y-209988271D01*
X136921592Y-209895855D01*
X136904503Y-209795625D01*
X136888855Y-209697447D01*
X136883251Y-209660055D01*
X136868989Y-209563157D01*
X136853377Y-209457779D01*
X136838007Y-209354619D01*
X136824468Y-209264375D01*
X136820313Y-209236871D01*
X136808942Y-209153293D01*
X136797271Y-209052894D01*
X136786463Y-208946601D01*
X136777680Y-208845343D01*
X136775440Y-208815126D01*
X136768781Y-208726521D01*
X136762746Y-208662065D01*
X136756763Y-208618145D01*
X136750259Y-208591147D01*
X136742661Y-208577455D01*
X136737230Y-208574090D01*
X136642457Y-208539183D01*
X136569670Y-208499538D01*
X136513064Y-208450640D01*
X136466834Y-208387975D01*
X136443553Y-208345659D01*
X136407407Y-208258731D01*
X136392681Y-208178873D01*
X136397266Y-208111852D01*
X136650249Y-208111852D01*
X136650682Y-208173893D01*
X136672728Y-208232545D01*
X136715626Y-208281951D01*
X136757166Y-208307674D01*
X136821287Y-208325982D01*
X136878205Y-208317604D01*
X136929156Y-208282330D01*
X136933582Y-208277732D01*
X136961418Y-208237474D01*
X136979378Y-208192680D01*
X136980305Y-208188322D01*
X136984363Y-208138990D01*
X136980919Y-208085731D01*
X136971396Y-208038172D01*
X136957216Y-208005940D01*
X136952615Y-208000981D01*
X136929643Y-207991689D01*
X136888485Y-207982959D01*
X136845610Y-207977482D01*
X136794596Y-207974162D01*
X136761271Y-207976953D01*
X136735869Y-207987645D01*
X136717271Y-208001030D01*
X136672191Y-208052279D01*
X136650249Y-208111852D01*
X136397266Y-208111852D01*
X136398292Y-208096849D01*
X136408866Y-208050352D01*
X136448538Y-207954638D01*
X136510336Y-207874233D01*
X136591679Y-207811730D01*
X136687691Y-207770398D01*
X136743271Y-207753876D01*
X136746467Y-207533147D01*
X136747037Y-207484631D01*
X136747723Y-207410911D01*
X136748506Y-207314571D01*
X136749370Y-207198198D01*
X136750297Y-207064377D01*
X136751270Y-206915691D01*
X136752272Y-206754728D01*
X136753285Y-206584072D01*
X136754293Y-206406308D01*
X136755278Y-206224022D01*
X136755653Y-206152188D01*
X136756712Y-205926246D01*
X136757399Y-205725931D01*
X136757696Y-205549079D01*
X136757580Y-205393530D01*
X136757030Y-205257120D01*
X136756026Y-205137689D01*
X136754546Y-205033075D01*
X136752570Y-204941115D01*
X136750077Y-204859648D01*
X136747045Y-204786512D01*
X136743453Y-204719545D01*
X136741423Y-204687423D01*
X136735103Y-204597746D01*
X136728730Y-204517145D01*
X136722694Y-204449846D01*
X136717386Y-204400079D01*
X136713197Y-204372071D01*
X136711881Y-204367838D01*
X136704151Y-204345158D01*
X136696641Y-204307731D01*
X136695126Y-204297349D01*
X136687691Y-204241909D01*
X136604322Y-204240031D01*
X136546139Y-204241751D01*
X136488312Y-204248203D01*
X136460457Y-204253772D01*
X136412042Y-204275799D01*
X136372973Y-204316102D01*
X136341292Y-204377638D01*
X136315042Y-204463366D01*
X136311324Y-204479051D01*
X136297024Y-204538784D01*
X136282728Y-204591324D01*
X136266199Y-204643199D01*
X136245202Y-204700941D01*
X136217501Y-204771080D01*
X136180941Y-204859956D01*
X136119015Y-205022991D01*
X136070868Y-205183171D01*
X136035459Y-205346372D01*
X136011747Y-205518473D01*
X135998693Y-205705350D01*
X135995239Y-205909026D01*
X135996485Y-206008495D01*
X135999254Y-206111829D01*
X136003225Y-206210779D01*
X136008074Y-206297097D01*
X136012579Y-206353665D01*
X136016627Y-206404917D01*
X136020817Y-206475287D01*
X136025049Y-206561221D01*
X136029223Y-206659166D01*
X136033239Y-206765571D01*
X136036998Y-206876882D01*
X136040400Y-206989548D01*
X136043345Y-207100014D01*
X136045733Y-207204729D01*
X136047465Y-207300140D01*
X136048440Y-207382694D01*
X136048558Y-207448838D01*
X136047721Y-207495021D01*
X136045827Y-207517689D01*
X136045323Y-207519072D01*
X136037450Y-207513335D01*
X136023700Y-207486264D01*
X136006539Y-207443031D01*
X135999347Y-207422593D01*
X135976435Y-207355382D01*
X135949590Y-207276753D01*
X135923887Y-207201575D01*
X135919002Y-207187302D01*
X135896712Y-207118557D01*
X135878490Y-207052658D01*
X135863860Y-206985576D01*
X135852349Y-206913283D01*
X135843481Y-206831748D01*
X135836781Y-206736943D01*
X135831774Y-206624839D01*
X135827986Y-206491406D01*
X135826092Y-206398979D01*
X135823550Y-206271381D01*
X135820305Y-206124525D01*
X135816565Y-205966927D01*
X135812540Y-205807103D01*
X135808438Y-205653570D01*
X135804467Y-205514845D01*
X135804367Y-205511492D01*
X135799496Y-205268038D01*
X135798612Y-205000700D01*
X135801621Y-204713082D01*
X135808435Y-204408790D01*
X135815622Y-204192089D01*
X136986433Y-204192089D01*
X136989129Y-204211248D01*
X136996235Y-204249655D01*
X137006279Y-204299398D01*
X137007459Y-204305030D01*
X137015028Y-204358226D01*
X137020997Y-204436558D01*
X137025351Y-204537421D01*
X137028072Y-204658206D01*
X137029144Y-204796305D01*
X137028551Y-204949112D01*
X137026277Y-205114019D01*
X137022305Y-205288418D01*
X137016619Y-205469701D01*
X137015033Y-205513019D01*
X137012845Y-205584409D01*
X137010864Y-205675251D01*
X137009091Y-205783024D01*
X137007529Y-205905206D01*
X137006181Y-206039272D01*
X137005049Y-206182701D01*
X137004135Y-206332970D01*
X137003443Y-206487556D01*
X137002975Y-206643937D01*
X137002734Y-206799590D01*
X137002721Y-206951991D01*
X137002941Y-207098620D01*
X137003394Y-207236952D01*
X137004085Y-207364465D01*
X137005015Y-207478637D01*
X137006187Y-207576944D01*
X137007603Y-207656865D01*
X137009267Y-207715876D01*
X137011180Y-207751455D01*
X137012730Y-207761171D01*
X137029384Y-207773628D01*
X137063301Y-207791649D01*
X137092486Y-207804953D01*
X137174916Y-207853625D01*
X137236244Y-207920114D01*
X137276608Y-208004658D01*
X137296149Y-208107494D01*
X137298160Y-208153063D01*
X137296942Y-208213163D01*
X137290001Y-208259418D01*
X137274279Y-208305130D01*
X137252420Y-208352095D01*
X137204692Y-208434801D01*
X137153591Y-208497428D01*
X137101762Y-208537109D01*
X137070784Y-208548854D01*
X137039526Y-208558093D01*
X137023237Y-208567389D01*
X137023167Y-208567507D01*
X137020238Y-208589376D01*
X137021193Y-208633883D01*
X137025520Y-208696229D01*
X137032708Y-208771612D01*
X137042244Y-208855232D01*
X137053616Y-208942288D01*
X137066312Y-209027979D01*
X137079820Y-209107505D01*
X137082021Y-209119328D01*
X137098222Y-209209991D01*
X137113816Y-209305881D01*
X137127306Y-209397210D01*
X137137195Y-209474188D01*
X137139327Y-209493928D01*
X137155366Y-209627498D01*
X137178192Y-209781381D01*
X137206651Y-209949257D01*
X137239585Y-210124809D01*
X137275841Y-210301718D01*
X137314261Y-210473666D01*
X137332487Y-210549945D01*
X137357317Y-210652380D01*
X137381858Y-210755161D01*
X137404686Y-210852204D01*
X137424374Y-210937424D01*
X137439496Y-211004736D01*
X137444804Y-211029321D01*
X137461977Y-211106736D01*
X137479441Y-211171710D01*
X137499778Y-211227472D01*
X137525574Y-211277252D01*
X137559412Y-211324280D01*
X137603876Y-211371784D01*
X137661550Y-211422993D01*
X137735017Y-211481139D01*
X137826862Y-211549448D01*
X137908150Y-211608421D01*
X137982670Y-211662933D01*
X138054337Y-211716666D01*
X138118179Y-211765792D01*
X138169223Y-211806485D01*
X138202243Y-211834686D01*
X138248166Y-211874265D01*
X138295939Y-211911093D01*
X138327297Y-211932207D01*
X138374559Y-211963473D01*
X138423332Y-211999904D01*
X138434767Y-212009254D01*
X138477953Y-212041514D01*
X138530852Y-212075633D01*
X138559822Y-212092203D01*
X138596266Y-212114162D01*
X138649069Y-212149099D01*
X138712526Y-212193093D01*
X138780936Y-212242222D01*
X138820569Y-212271476D01*
X138892046Y-212324404D01*
X138964363Y-212377250D01*
X139030934Y-212425246D01*
X139085170Y-212463625D01*
X139105416Y-212477591D01*
X139192016Y-212536619D01*
X139258642Y-212582745D01*
X139308324Y-212618653D01*
X139344095Y-212647028D01*
X139368985Y-212670556D01*
X139386026Y-212691923D01*
X139398251Y-212713812D01*
X139408689Y-212738909D01*
X139412837Y-212749898D01*
X139427395Y-212784958D01*
X139452112Y-212840268D01*
X139484824Y-212911170D01*
X139523368Y-212993004D01*
X139565580Y-213081112D01*
X139590112Y-213131655D01*
X139737864Y-213434590D01*
X139796804Y-213398822D01*
X139831600Y-213378272D01*
X139883837Y-213348117D01*
X139946676Y-213312276D01*
X140013283Y-213274668D01*
X140019010Y-213271453D01*
X140078801Y-213237667D01*
X140128762Y-213208980D01*
X140164461Y-213187971D01*
X140181464Y-213177220D01*
X140182276Y-213176423D01*
X140176030Y-213163568D01*
X140159458Y-213132520D01*
X140135806Y-213089335D01*
X140129127Y-213077280D01*
X140103432Y-213030997D01*
X140068119Y-212967380D01*
X140027055Y-212893395D01*
X139984106Y-212816007D01*
X139964173Y-212780087D01*
X139925825Y-212710044D01*
X139891830Y-212646188D01*
X139864741Y-212593452D01*
X139847111Y-212556770D01*
X139841933Y-212543873D01*
X139829489Y-212511526D01*
X139819544Y-212494104D01*
X139816570Y-212474398D01*
X139818734Y-212435384D01*
X139824845Y-212384813D01*
X139833712Y-212330438D01*
X139844145Y-212280009D01*
X139854953Y-212241279D01*
X139860392Y-212228209D01*
X139869506Y-212202968D01*
X139881463Y-212159312D01*
X139893860Y-212106116D01*
X139895321Y-212099234D01*
X139904974Y-212054227D01*
X139919474Y-211987879D01*
X139937546Y-211905955D01*
X139957918Y-211814223D01*
X139979317Y-211718448D01*
X139985849Y-211689332D01*
X140008297Y-211586856D01*
X140030633Y-211480382D01*
X140051354Y-211377399D01*
X140068961Y-211285394D01*
X140081949Y-211211852D01*
X140083386Y-211203008D01*
X140111222Y-211028410D01*
X140134945Y-210878355D01*
X140154986Y-210749971D01*
X140171778Y-210640385D01*
X140185755Y-210546725D01*
X140197349Y-210466120D01*
X140206994Y-210395696D01*
X140215122Y-210332581D01*
X140217441Y-210313731D01*
X140223942Y-210262303D01*
X140230911Y-210212339D01*
X140238988Y-210160390D01*
X140248816Y-210103008D01*
X140261036Y-210036744D01*
X140276290Y-209958148D01*
X140295220Y-209863774D01*
X140318468Y-209750171D01*
X140346676Y-209613892D01*
X140356378Y-209567220D01*
X140368958Y-209500581D01*
X140383391Y-209414056D01*
X140398490Y-209315381D01*
X140413072Y-209212291D01*
X140425572Y-209115633D01*
X140438176Y-209015822D01*
X140451849Y-208913084D01*
X140465519Y-208815106D01*
X140478114Y-208729573D01*
X140488313Y-208665633D01*
X140502043Y-208583379D01*
X140510751Y-208524560D01*
X140514332Y-208485259D01*
X140512681Y-208461561D01*
X140505693Y-208449548D01*
X140493263Y-208445305D01*
X140482397Y-208444857D01*
X140445365Y-208437648D01*
X140394183Y-208418612D01*
X140337622Y-208391636D01*
X140284453Y-208360605D01*
X140269977Y-208350731D01*
X140239660Y-208320786D01*
X140207317Y-208276209D01*
X140186607Y-208239571D01*
X140167167Y-208196515D01*
X140155554Y-208158371D01*
X140149935Y-208115274D01*
X140148475Y-208057354D01*
X140148565Y-208037908D01*
X140366545Y-208037908D01*
X140375708Y-208064057D01*
X140400141Y-208096651D01*
X140413601Y-208111877D01*
X140451306Y-208148803D01*
X140489614Y-208178839D01*
X140508807Y-208190006D01*
X140563967Y-208202174D01*
X140626043Y-208197017D01*
X140681497Y-208176022D01*
X140690608Y-208170049D01*
X140726304Y-208131616D01*
X140757245Y-208075963D01*
X140778552Y-208013660D01*
X140785421Y-207964648D01*
X140775187Y-207905279D01*
X140743674Y-207860733D01*
X140693969Y-207832469D01*
X140629158Y-207821945D01*
X140552327Y-207830621D01*
X140520294Y-207839358D01*
X140450412Y-207874703D01*
X140399803Y-207929641D01*
X140370265Y-208002154D01*
X140368744Y-208009260D01*
X140366545Y-208037908D01*
X140148565Y-208037908D01*
X140148579Y-208034956D01*
X140158003Y-207917638D01*
X140185074Y-207818560D01*
X140231186Y-207733422D01*
X140257018Y-207700258D01*
X140307824Y-207652893D01*
X140368327Y-207614359D01*
X140429291Y-207589708D01*
X140470612Y-207583370D01*
X140487856Y-207582759D01*
X140501239Y-207578693D01*
X140511601Y-207567817D01*
X140519783Y-207546777D01*
X140526627Y-207512220D01*
X140532973Y-207460791D01*
X140539663Y-207389137D01*
X140547538Y-207293903D01*
X140549596Y-207268424D01*
X140560044Y-207137238D01*
X140568200Y-207028827D01*
X140574205Y-206938279D01*
X140578199Y-206860686D01*
X140580320Y-206791137D01*
X140580710Y-206724723D01*
X140579507Y-206656534D01*
X140576851Y-206581660D01*
X140572882Y-206495192D01*
X140572074Y-206478720D01*
X140566927Y-206373095D01*
X140561517Y-206259782D01*
X140556275Y-206147923D01*
X140551628Y-206046662D01*
X140548384Y-205973837D01*
X140544657Y-205887376D01*
X140539940Y-205824768D01*
X140530894Y-205782176D01*
X140514180Y-205755764D01*
X140486459Y-205741693D01*
X140444394Y-205736129D01*
X140384644Y-205735232D01*
X140340865Y-205735339D01*
X140287388Y-205735354D01*
X140247945Y-205732939D01*
X140220080Y-205724403D01*
X140201335Y-205706055D01*
X140189252Y-205674204D01*
X140181373Y-205625161D01*
X140175241Y-205555234D01*
X140169687Y-205478282D01*
X140163436Y-205363489D01*
X140162121Y-205262278D01*
X140165605Y-205178182D01*
X140173752Y-205114736D01*
X140185255Y-205077625D01*
X140216154Y-205046674D01*
X140271985Y-205025744D01*
X140353168Y-205014716D01*
X140417224Y-205012801D01*
X140473210Y-205011661D01*
X140517806Y-205008612D01*
X140544345Y-205004207D01*
X140548655Y-205001879D01*
X140550185Y-204985024D01*
X140550172Y-204945216D01*
X140548727Y-204887241D01*
X140545958Y-204815887D01*
X140543014Y-204755243D01*
X140538177Y-204667438D01*
X140533195Y-204587518D01*
X140527586Y-204509656D01*
X140520867Y-204428030D01*
X140512556Y-204336814D01*
X140502171Y-204230185D01*
X140489231Y-204102318D01*
X140487844Y-204088785D01*
X140467309Y-203886990D01*
X140449756Y-203710928D01*
X140435012Y-203558719D01*
X140422906Y-203428486D01*
X140413265Y-203318351D01*
X140405920Y-203226435D01*
X140400697Y-203150860D01*
X140398339Y-203109190D01*
X140393949Y-203020254D01*
X140389836Y-202955281D01*
X140384119Y-202910528D01*
X140374917Y-202882252D01*
X140360348Y-202866710D01*
X140338534Y-202860159D01*
X140307593Y-202858857D01*
X140272674Y-202859081D01*
X140170752Y-202859081D01*
X140159784Y-202751395D01*
X140156777Y-202707932D01*
X140154036Y-202641765D01*
X140151681Y-202557982D01*
X140149835Y-202461669D01*
X140148620Y-202357912D01*
X140148177Y-202268545D01*
X140148211Y-202144608D01*
X140149261Y-202045159D01*
X140152046Y-201966899D01*
X140157284Y-201906527D01*
X140165695Y-201860742D01*
X140177999Y-201826245D01*
X140194913Y-201799735D01*
X140217158Y-201777913D01*
X140245452Y-201757478D01*
X140261846Y-201746906D01*
X140312377Y-201719662D01*
X140358463Y-201707800D01*
X140405725Y-201712191D01*
X140459782Y-201733708D01*
X140526253Y-201773225D01*
X140554883Y-201792421D01*
X140577976Y-201809892D01*
X140598628Y-201830597D01*
X140619472Y-201858672D01*
X140643139Y-201898251D01*
X140672259Y-201953472D01*
X140709465Y-202028470D01*
X140723811Y-202057945D01*
X140792561Y-202204319D01*
X140846564Y-202330253D01*
X140886688Y-202438294D01*
X140913802Y-202530991D01*
X140928774Y-202610890D01*
X140932604Y-202670159D01*
X140932604Y-202770342D01*
X140835439Y-202817348D01*
X140782908Y-202845803D01*
X140745732Y-202872116D01*
X140729575Y-202891758D01*
X140726750Y-202917536D01*
X140726273Y-202965281D01*
X140727868Y-203029298D01*
X140731255Y-203103889D01*
X140736158Y-203183358D01*
X140742299Y-203262006D01*
X140749399Y-203334137D01*
X140752372Y-203359299D01*
X140758395Y-203411432D01*
X140764823Y-203475435D01*
X140771862Y-203553807D01*
X140779713Y-203649049D01*
X140788580Y-203763658D01*
X140798667Y-203900133D01*
X140810177Y-204060974D01*
X140814575Y-204123424D01*
X140822854Y-204232990D01*
X140832911Y-204352987D01*
X140843857Y-204473564D01*
X140854802Y-204584874D01*
X140863684Y-204666969D01*
X140872757Y-204751257D01*
X140880144Y-204830362D01*
X140885374Y-204898326D01*
X140887975Y-204949196D01*
X140887903Y-204972757D01*
X140883971Y-205033643D01*
X141015974Y-205029772D01*
X141075422Y-205028620D01*
X141122158Y-205031028D01*
X141157825Y-205039955D01*
X141184063Y-205058363D01*
X141202513Y-205089210D01*
X141214818Y-205135456D01*
X141222617Y-205200062D01*
X141227553Y-205285986D01*
X141231267Y-205396189D01*
X141231944Y-205419235D01*
X141234506Y-205521291D01*
X141235370Y-205599130D01*
X141234421Y-205656279D01*
X141231544Y-205696266D01*
X141226623Y-205722619D01*
X141221641Y-205735339D01*
X141190068Y-205767405D01*
X141135558Y-205792738D01*
X141062435Y-205809985D01*
X140975028Y-205817794D01*
X140956920Y-205818100D01*
X140849234Y-205818709D01*
X140850340Y-205947237D01*
X140851463Y-206010197D01*
X140853748Y-206091241D01*
X140856884Y-206180705D01*
X140860556Y-206268921D01*
X140861262Y-206284190D01*
X140864130Y-206374798D01*
X140865383Y-206485055D01*
X140865150Y-206609497D01*
X140863558Y-206742661D01*
X140860738Y-206879084D01*
X140856817Y-207013301D01*
X140851924Y-207139851D01*
X140846188Y-207253268D01*
X140839738Y-207348089D01*
X140834995Y-207399296D01*
X140827696Y-207477621D01*
X140826188Y-207532524D01*
X140831439Y-207567954D01*
X140844419Y-207587858D01*
X140866096Y-207596184D01*
X140883588Y-207597264D01*
X140927310Y-207609175D01*
X140975362Y-207641188D01*
X141021454Y-207687727D01*
X141059293Y-207743216D01*
X141068127Y-207760843D01*
X141101587Y-207859103D01*
X141111177Y-207959441D01*
X141099783Y-208059198D01*
X141064613Y-208181635D01*
X141011272Y-208287383D01*
X140941483Y-208373081D01*
X140935975Y-208378290D01*
X140890974Y-208417307D01*
X140853310Y-208440918D01*
X140812101Y-208454702D01*
X140772914Y-208461856D01*
X140753440Y-208472155D01*
X140741031Y-208499969D01*
X140735378Y-208528398D01*
X140711499Y-208680141D01*
X140691706Y-208807321D01*
X140675589Y-208912798D01*
X140662739Y-208999433D01*
X140652748Y-209070086D01*
X140645206Y-209127618D01*
X140639705Y-209174890D01*
X140635835Y-209214763D01*
X140634087Y-209236871D01*
X140628148Y-209308054D01*
X140620555Y-209383939D01*
X140612891Y-209448811D01*
X140612432Y-209452243D01*
X140605568Y-209507995D01*
X140597571Y-209580525D01*
X140589610Y-209658913D01*
X140584876Y-209709299D01*
X140576399Y-209790500D01*
X140564625Y-209885618D01*
X140550499Y-209988459D01*
X140534968Y-210092828D01*
X140518978Y-210192531D01*
X140503476Y-210281373D01*
X140489408Y-210353160D01*
X140480856Y-210390196D01*
X140470952Y-210434007D01*
X140458485Y-210496921D01*
X140445043Y-210570562D01*
X140432214Y-210646554D01*
X140432101Y-210647253D01*
X140419313Y-210723220D01*
X140405943Y-210796908D01*
X140393566Y-210859946D01*
X140383762Y-210903962D01*
X140383685Y-210904267D01*
X140373622Y-210948746D01*
X140360860Y-211011942D01*
X140347100Y-211085133D01*
X140335090Y-211153395D01*
X140323401Y-211217692D01*
X140306797Y-211302566D01*
X140286615Y-211401517D01*
X140264191Y-211508045D01*
X140240863Y-211615650D01*
X140229349Y-211667509D01*
X140207110Y-211766873D01*
X140185751Y-211862446D01*
X140166390Y-211949220D01*
X140150144Y-212022184D01*
X140138129Y-212076331D01*
X140133080Y-212099234D01*
X140124911Y-212151814D01*
X140118813Y-212221195D01*
X140114897Y-212300296D01*
X140113276Y-212382038D01*
X140114062Y-212459342D01*
X140117367Y-212525126D01*
X140123304Y-212572311D01*
X140125442Y-212581185D01*
X140135212Y-212602002D01*
X140156940Y-212641537D01*
X140187740Y-212695014D01*
X140224726Y-212757657D01*
X140265011Y-212824690D01*
X140305711Y-212891337D01*
X140343939Y-212952823D01*
X140376810Y-213004372D01*
X140401437Y-213041207D01*
X140411995Y-213055405D01*
X140424698Y-213050663D01*
X140456375Y-213034473D01*
X140502045Y-213009474D01*
X140549090Y-212982727D01*
X140610180Y-212947811D01*
X140668700Y-212914977D01*
X140716678Y-212888668D01*
X140739394Y-212876679D01*
X140773226Y-212858055D01*
X140785766Y-212844935D01*
X140781024Y-212831323D01*
X140774715Y-212823875D01*
X140765188Y-212810119D01*
X140762382Y-212792654D01*
X140767116Y-212765367D01*
X140780206Y-212722145D01*
X140793659Y-212682397D01*
X140822517Y-212590803D01*
X140844803Y-212500634D01*
X140861316Y-212406139D01*
X140872854Y-212301569D01*
X140880218Y-212181173D01*
X140884207Y-212039201D01*
X140884358Y-212029759D01*
X140887007Y-211925957D01*
X140891623Y-211815225D01*
X140897707Y-211706631D01*
X140904763Y-211609240D01*
X140910999Y-211543435D01*
X140920269Y-211448440D01*
X140929008Y-211339233D01*
X140936226Y-211229388D01*
X140940894Y-211133534D01*
X140945018Y-211051217D01*
X140951008Y-210970401D01*
X140958144Y-210899104D01*
X140965703Y-210845346D01*
X140967781Y-210834608D01*
X140981892Y-210762058D01*
X140998542Y-210666084D01*
X141017115Y-210550873D01*
X141036994Y-210420613D01*
X141057564Y-210279489D01*
X141078208Y-210131688D01*
X141098311Y-209981398D01*
X141117256Y-209832805D01*
X141127238Y-209750984D01*
X141138727Y-209659222D01*
X141153292Y-209549107D01*
X141169684Y-209429738D01*
X141186653Y-209310215D01*
X141202948Y-209199636D01*
X141203619Y-209195186D01*
X141228165Y-209019666D01*
X141252088Y-208823906D01*
X141274659Y-208615458D01*
X141295148Y-208401871D01*
X141312826Y-208190695D01*
X141326961Y-207989482D01*
X141335898Y-207826531D01*
X141345082Y-207622743D01*
X141352662Y-207444084D01*
X141358695Y-207287946D01*
X141363239Y-207151717D01*
X141366351Y-207032788D01*
X141368089Y-206928549D01*
X141368510Y-206836390D01*
X141367671Y-206753701D01*
X141365630Y-206677870D01*
X141362669Y-206610550D01*
X141358753Y-206528919D01*
X141354222Y-206422400D01*
X141349067Y-206290698D01*
X141343278Y-206133516D01*
X141336844Y-205950558D01*
X141329756Y-205741526D01*
X141322003Y-205506125D01*
X141313575Y-205244058D01*
X141304463Y-204955027D01*
X141294655Y-204638737D01*
X141286750Y-204380580D01*
X141282216Y-204238932D01*
X141277437Y-204102581D01*
X141272552Y-203974667D01*
X141267698Y-203858328D01*
X141263015Y-203756704D01*
X141258640Y-203672934D01*
X141254713Y-203610155D01*
X141251372Y-203571508D01*
X141250894Y-203567724D01*
X141243448Y-203507497D01*
X141235196Y-203431577D01*
X141227408Y-203351983D01*
X141223755Y-203310667D01*
X141198173Y-203061591D01*
X141164149Y-202828138D01*
X141119879Y-202598945D01*
X141090374Y-202470022D01*
X141071485Y-202397363D01*
X141047298Y-202312947D01*
X141019731Y-202222653D01*
X140990701Y-202132360D01*
X140962125Y-202047949D01*
X140935920Y-201975301D01*
X140914003Y-201920294D01*
X140904307Y-201899365D01*
X140867485Y-201838544D01*
X140816780Y-201770373D01*
X140757028Y-201699960D01*
X140693067Y-201632414D01*
X140629734Y-201572843D01*
X140571867Y-201526355D01*
X140524302Y-201498060D01*
X140524283Y-201498051D01*
X140434670Y-201472934D01*
X140347800Y-201475320D01*
X140264139Y-201505019D01*
X140184155Y-201561836D01*
X140108314Y-201645580D01*
X140083916Y-201679621D01*
X139989244Y-201840890D01*
X139911583Y-202018411D01*
X139853595Y-202204637D01*
X139817945Y-202392020D01*
X139811698Y-202450891D01*
X139810648Y-202479174D01*
X139809940Y-202534896D01*
X139809571Y-202617708D01*
X139809539Y-202727261D01*
X139809841Y-202863205D01*
X139810475Y-203025192D01*
X139811438Y-203212873D01*
X139812728Y-203425898D01*
X139814343Y-203663919D01*
X139816280Y-203926586D01*
X139818537Y-204213551D01*
X139821111Y-204524465D01*
X139823999Y-204858978D01*
X139827200Y-205216742D01*
X139830711Y-205597407D01*
X139834530Y-206000624D01*
X139838654Y-206426045D01*
X139841135Y-206677846D01*
X139842459Y-206815467D01*
X139843366Y-206927991D01*
X139843749Y-207018113D01*
X139843503Y-207088524D01*
X139842521Y-207141916D01*
X139840697Y-207180981D01*
X139837923Y-207208414D01*
X139834095Y-207226905D01*
X139829105Y-207239147D01*
X139822847Y-207247832D01*
X139818436Y-207252461D01*
X139780086Y-207273576D01*
X139734331Y-207268503D01*
X139682188Y-207237536D01*
X139643846Y-207202091D01*
X139609846Y-207163725D01*
X139592008Y-207133208D01*
X139585412Y-207100280D01*
X139584792Y-207078909D01*
X139581941Y-207025422D01*
X139574817Y-206966442D01*
X139571918Y-206949571D01*
X139566095Y-206914636D01*
X139557529Y-206857696D01*
X139547015Y-206784312D01*
X139535349Y-206700042D01*
X139523326Y-206610446D01*
X139522446Y-206603774D01*
X139499171Y-206432380D01*
X139477424Y-206284846D01*
X139456387Y-206157340D01*
X139435240Y-206046030D01*
X139413165Y-205947086D01*
X139389345Y-205856676D01*
X139362959Y-205770968D01*
X139333191Y-205686133D01*
X139317624Y-205645022D01*
X139292241Y-205575633D01*
X139263956Y-205492489D01*
X139237141Y-205408654D01*
X139224643Y-205367122D01*
X139198594Y-205287483D01*
X139164636Y-205196884D01*
X139128007Y-205108850D01*
X139106228Y-205061433D01*
X139048574Y-204942234D01*
X139001309Y-204845295D01*
X138962911Y-204767765D01*
X138931857Y-204706798D01*
X138906626Y-204659543D01*
X138885695Y-204623151D01*
X138867544Y-204594775D01*
X138850649Y-204571564D01*
X138833489Y-204550670D01*
X138833184Y-204550316D01*
X138780564Y-204495500D01*
X138729362Y-204458548D01*
X138672203Y-204436457D01*
X138601713Y-204426225D01*
X138524444Y-204424626D01*
X138465500Y-204426173D01*
X138417474Y-204428982D01*
X138386823Y-204432593D01*
X138379400Y-204435005D01*
X138380133Y-204451258D01*
X138391387Y-204483603D01*
X138403139Y-204509413D01*
X138442489Y-204592438D01*
X138479043Y-204675775D01*
X138510443Y-204753518D01*
X138534326Y-204819758D01*
X138548332Y-204868585D01*
X138549906Y-204876721D01*
X138555772Y-204904137D01*
X138567923Y-204954800D01*
X138585448Y-205025116D01*
X138607433Y-205111489D01*
X138632966Y-205210327D01*
X138661133Y-205318034D01*
X138683276Y-205401860D01*
X138727638Y-205572314D01*
X138763987Y-205719690D01*
X138792945Y-205847322D01*
X138815134Y-205958547D01*
X138831178Y-206056700D01*
X138841699Y-206145117D01*
X138847318Y-206227133D01*
X138848698Y-206288375D01*
X138850679Y-206349729D01*
X138855552Y-206408679D01*
X138862275Y-206452687D01*
X138862448Y-206453446D01*
X138876028Y-206528747D01*
X138887763Y-206629247D01*
X138897687Y-206755464D01*
X138905836Y-206907918D01*
X138912244Y-207087128D01*
X138916532Y-207270733D01*
X138924781Y-207715372D01*
X138987934Y-207715748D01*
X139048377Y-207725365D01*
X139116825Y-207750175D01*
X139182355Y-207785057D01*
X139234043Y-207824888D01*
X139244305Y-207835942D01*
X139269493Y-207879629D01*
X139290145Y-207940899D01*
X139303442Y-208009601D01*
X139306893Y-208061207D01*
X139301108Y-208117452D01*
X139285540Y-208189305D01*
X139262864Y-208267534D01*
X139235758Y-208342907D01*
X139206898Y-208406191D01*
X139206833Y-208406313D01*
X139151835Y-208487515D01*
X139096123Y-208540901D01*
X139030576Y-208590755D01*
X139027569Y-208757494D01*
X139027008Y-208804696D01*
X139026550Y-208876227D01*
X139026201Y-208968624D01*
X139025966Y-209078426D01*
X139025849Y-209202171D01*
X139025855Y-209336399D01*
X139025990Y-209477647D01*
X139026258Y-209622454D01*
X139026299Y-209639825D01*
X139026493Y-209826246D01*
X139026071Y-209987454D01*
X139024981Y-210126019D01*
X139023172Y-210244509D01*
X139020592Y-210345497D01*
X139017189Y-210431552D01*
X139012912Y-210505245D01*
X139007711Y-210569145D01*
X139007673Y-210569545D01*
X138997291Y-210685173D01*
X138990705Y-210777468D01*
X138988035Y-210850644D01*
X138989398Y-210908915D01*
X138994915Y-210956494D01*
X139004705Y-210997595D01*
X139018887Y-211036431D01*
X139021037Y-211041479D01*
X139038739Y-211087528D01*
X139060355Y-211151222D01*
X139082850Y-211223299D01*
X139099003Y-211279211D01*
X139118948Y-211354532D01*
X139131391Y-211412610D01*
X139137587Y-211462577D01*
X139138792Y-211513567D01*
X139137220Y-211557111D01*
X139122182Y-211670905D01*
X139089222Y-211764450D01*
X139037574Y-211839358D01*
X138979734Y-211888690D01*
X138936822Y-211915393D01*
X138904156Y-211927788D01*
X138870528Y-211929231D01*
X138851412Y-211927109D01*
X138771158Y-211906390D01*
X138690399Y-211868528D01*
X138615946Y-211818231D01*
X138554609Y-211760207D01*
X138513196Y-211699164D01*
X138509368Y-211690625D01*
X138496878Y-211653631D01*
X138482291Y-211599954D01*
X138468466Y-211540255D01*
X138466569Y-211531118D01*
X138445011Y-211425420D01*
X138658188Y-211425420D01*
X138659171Y-211495272D01*
X138684018Y-211570270D01*
X138690562Y-211583902D01*
X138732543Y-211645399D01*
X138783327Y-211681606D01*
X138840650Y-211691799D01*
X138902249Y-211675252D01*
X138928689Y-211660260D01*
X138960732Y-211626784D01*
X138986669Y-211577986D01*
X139000378Y-211526332D01*
X139001192Y-211512618D01*
X138994833Y-211481739D01*
X138978525Y-211436915D01*
X138956402Y-211387096D01*
X138932598Y-211341229D01*
X138911248Y-211308264D01*
X138902665Y-211299326D01*
X138877150Y-211286025D01*
X138838356Y-211271613D01*
X138827977Y-211268438D01*
X138775848Y-211261839D01*
X138734216Y-211277561D01*
X138699434Y-211317709D01*
X138680760Y-211353463D01*
X138658188Y-211425420D01*
X138445011Y-211425420D01*
X138443826Y-211419611D01*
X138486714Y-211259986D01*
X138510792Y-211176230D01*
X138540156Y-211082681D01*
X138570192Y-210993740D01*
X138585492Y-210951565D01*
X138614904Y-210867665D01*
X138634463Y-210795525D01*
X138647163Y-210722262D01*
X138654280Y-210655515D01*
X138662425Y-210573742D01*
X138673262Y-210480042D01*
X138684953Y-210389905D01*
X138689887Y-210355415D01*
X138697460Y-210298335D01*
X138702809Y-210241214D01*
X138706078Y-210178896D01*
X138707410Y-210106224D01*
X138706949Y-210018041D01*
X138704840Y-209909191D01*
X138703657Y-209862144D01*
X138697870Y-209647366D01*
X138692461Y-209458792D01*
X138687360Y-209294838D01*
X138682502Y-209153923D01*
X138677817Y-209034464D01*
X138673239Y-208934878D01*
X138668700Y-208853582D01*
X138664131Y-208788994D01*
X138659466Y-208739531D01*
X138654636Y-208703611D01*
X138653917Y-208699426D01*
X138636187Y-208599672D01*
X138549758Y-208557123D01*
X138453918Y-208497780D01*
X138380177Y-208423661D01*
X138325595Y-208331324D01*
X138300704Y-208265380D01*
X138277076Y-208171237D01*
X138275477Y-208158432D01*
X138549645Y-208158432D01*
X138560756Y-208201707D01*
X138594250Y-208246534D01*
X138636119Y-208284628D01*
X138680227Y-208318894D01*
X138713749Y-208337999D01*
X138746054Y-208346129D01*
X138777006Y-208347541D01*
X138843183Y-208338216D01*
X138887378Y-208319464D01*
X138928381Y-208281429D01*
X138962247Y-208226626D01*
X138983129Y-208166045D01*
X138986991Y-208132221D01*
X138975759Y-208094246D01*
X138946001Y-208051493D01*
X138904320Y-208011044D01*
X138857323Y-207979982D01*
X138836778Y-207971153D01*
X138778460Y-207964248D01*
X138714301Y-207977831D01*
X138651885Y-208008057D01*
X138598793Y-208051082D01*
X138562609Y-208103059D01*
X138558846Y-208112082D01*
X138549645Y-208158432D01*
X138275477Y-208158432D01*
X138265843Y-208081308D01*
X138267473Y-208002563D01*
X138279549Y-207949017D01*
X138316932Y-207886305D01*
X138374171Y-207833659D01*
X138443797Y-207796079D01*
X138518341Y-207778564D01*
X138535168Y-207777899D01*
X138598249Y-207777899D01*
X138598046Y-207635476D01*
X138595410Y-207502855D01*
X138588160Y-207348384D01*
X138576770Y-207177534D01*
X138561716Y-206995773D01*
X138543470Y-206808572D01*
X138522508Y-206621401D01*
X138499303Y-206439730D01*
X138486543Y-206349488D01*
X138468066Y-206226942D01*
X138447596Y-206097271D01*
X138425697Y-205963572D01*
X138402935Y-205828943D01*
X138379873Y-205696482D01*
X138357079Y-205569285D01*
X138335115Y-205450452D01*
X138314547Y-205343079D01*
X138295941Y-205250263D01*
X138279860Y-205175103D01*
X138266871Y-205120695D01*
X138257537Y-205090138D01*
X138256400Y-205087628D01*
X138245990Y-205062218D01*
X138228725Y-205014676D01*
X138206108Y-204949377D01*
X138179639Y-204870691D01*
X138150819Y-204782994D01*
X138134768Y-204733306D01*
X138106028Y-204644475D01*
X138079586Y-204564042D01*
X138056770Y-204495946D01*
X138038908Y-204444121D01*
X138027329Y-204412505D01*
X138023964Y-204404896D01*
X138004070Y-204393686D01*
X137968576Y-204387791D01*
X137959036Y-204387527D01*
X137918964Y-204391453D01*
X137884968Y-204405047D01*
X137855506Y-204431031D01*
X137829033Y-204472129D01*
X137804005Y-204531061D01*
X137778878Y-204610553D01*
X137752108Y-204713325D01*
X137736184Y-204780502D01*
X137715220Y-204876551D01*
X137702290Y-204952252D01*
X137697150Y-205013785D01*
X137699555Y-205067330D01*
X137709263Y-205119069D01*
X137721174Y-205160361D01*
X137734903Y-205209375D01*
X137750870Y-205275604D01*
X137766706Y-205348859D01*
X137775713Y-205394912D01*
X137789543Y-205472253D01*
X137801312Y-205545993D01*
X137811178Y-205619147D01*
X137819302Y-205694730D01*
X137825843Y-205775756D01*
X137830960Y-205865239D01*
X137834812Y-205966195D01*
X137837560Y-206081637D01*
X137839361Y-206214581D01*
X137840377Y-206368040D01*
X137840765Y-206545030D01*
X137840780Y-206625516D01*
X137840688Y-206787353D01*
X137840450Y-206923722D01*
X137839990Y-207036944D01*
X137839232Y-207129342D01*
X137838099Y-207203236D01*
X137836516Y-207260949D01*
X137834406Y-207304802D01*
X137831693Y-207337117D01*
X137828302Y-207360216D01*
X137824157Y-207376420D01*
X137819180Y-207388050D01*
X137815591Y-207394063D01*
X137790769Y-207420323D01*
X137767148Y-207427721D01*
X137762250Y-207425123D01*
X137758032Y-207417980D01*
X137754414Y-207404235D01*
X137751321Y-207381830D01*
X137748675Y-207348706D01*
X137746397Y-207302807D01*
X137744412Y-207242074D01*
X137742641Y-207164449D01*
X137741007Y-207067876D01*
X137739432Y-206950295D01*
X137737840Y-206809650D01*
X137736152Y-206643883D01*
X137735623Y-206589699D01*
X137733787Y-206408772D01*
X137731951Y-206252816D01*
X137729967Y-206119011D01*
X137727690Y-206004537D01*
X137724972Y-205906576D01*
X137721665Y-205822308D01*
X137717623Y-205748914D01*
X137712698Y-205683575D01*
X137706744Y-205623471D01*
X137699613Y-205565784D01*
X137691159Y-205507693D01*
X137681234Y-205446380D01*
X137673647Y-205401860D01*
X137662759Y-205342018D01*
X137651488Y-205289498D01*
X137638060Y-205238548D01*
X137620698Y-205183418D01*
X137597628Y-205118358D01*
X137567074Y-205037617D01*
X137538514Y-204964168D01*
X137508479Y-204886783D01*
X137479142Y-204810110D01*
X137453417Y-204741833D01*
X137434217Y-204689641D01*
X137430536Y-204679321D01*
X137411650Y-204630115D01*
X137393326Y-204589472D01*
X137380132Y-204567068D01*
X137364398Y-204535633D01*
X137361597Y-204518043D01*
X137354125Y-204484198D01*
X137334449Y-204435600D01*
X137306679Y-204379992D01*
X137274928Y-204325120D01*
X137243305Y-204278725D01*
X137220845Y-204252903D01*
X137182972Y-204221979D01*
X137145071Y-204198390D01*
X137134899Y-204193850D01*
X137098403Y-204184539D01*
X137056607Y-204179976D01*
X137018348Y-204180267D01*
X136992461Y-204185515D01*
X136986433Y-204192089D01*
X135815622Y-204192089D01*
X135818961Y-204091429D01*
X135833109Y-203764603D01*
X135850788Y-203431917D01*
X135861079Y-203262035D01*
X135867011Y-203167179D01*
X135873836Y-203056664D01*
X135880814Y-202942572D01*
X135887202Y-202836985D01*
X135888793Y-202810448D01*
X135935708Y-202212602D01*
X136005406Y-201604332D01*
X136097325Y-200990297D01*
X136131751Y-200791051D01*
X136155480Y-200660884D01*
X136181299Y-200524184D01*
X136208242Y-200385710D01*
X136235342Y-200250217D01*
X136261632Y-200122462D01*
X136286147Y-200007202D01*
X136307919Y-199909195D01*
X136325982Y-199833195D01*
X136327972Y-199825321D01*
X136339801Y-199750616D01*
X136331349Y-199691254D01*
X136301030Y-199642020D01*
X136261823Y-199607755D01*
X136186083Y-199562541D01*
X136092735Y-199521508D01*
X135991959Y-199488476D01*
X135893933Y-199467269D01*
X135883763Y-199465823D01*
X135821875Y-199458699D01*
X135776535Y-199457424D01*
X135737013Y-199462542D01*
X135692577Y-199474597D01*
X135689052Y-199475699D01*
X135576525Y-199525347D01*
X135467367Y-199602219D01*
X135361719Y-199705942D01*
X135259722Y-199836138D01*
X135161519Y-199992431D01*
X135067250Y-200174446D01*
X134977058Y-200381806D01*
X134891084Y-200614134D01*
X134809470Y-200871055D01*
X134732358Y-201152193D01*
X134659888Y-201457171D01*
X134592204Y-201785613D01*
X134529446Y-202137144D01*
X134471757Y-202511386D01*
X134430548Y-202817396D01*
X134408635Y-202997043D01*
X134388618Y-203175953D01*
X134370171Y-203357993D01*
X134352969Y-203547025D01*
X134336686Y-203746916D01*
X134320997Y-203961528D01*
X134305574Y-204194728D01*
X134290093Y-204450379D01*
X134284124Y-204554267D01*
X134274032Y-204760817D01*
X134265754Y-204990181D01*
X134259368Y-205237437D01*
X134254954Y-205497663D01*
X134252591Y-205765937D01*
X134252359Y-206037338D01*
X134254337Y-206306942D01*
X134255010Y-206360612D01*
X134256983Y-206501498D01*
X134259016Y-206635892D01*
X134261054Y-206760855D01*
X134263042Y-206873450D01*
X134264926Y-206970739D01*
X134266650Y-207049783D01*
X134268160Y-207107644D01*
X134269400Y-207141384D01*
X134269660Y-207145678D01*
X134271869Y-207183233D01*
X134274725Y-207242107D01*
X134277941Y-207315841D01*
X134281230Y-207397981D01*
X134283219Y-207451367D01*
X134287018Y-207540869D01*
X134291841Y-207631199D01*
X134297186Y-207714213D01*
X134302554Y-207781766D01*
X134305151Y-207807751D01*
X134309360Y-207857912D01*
X134310074Y-207907811D01*
X134306653Y-207961130D01*
X134298461Y-208021549D01*
X134284857Y-208092748D01*
X134265205Y-208178409D01*
X134238866Y-208282212D01*
X134205202Y-208407838D01*
X134194001Y-208448791D01*
X134169735Y-208540547D01*
X134146476Y-208634512D01*
X134126027Y-208722962D01*
X134110191Y-208798177D01*
X134102487Y-208840864D01*
X134093388Y-208918619D01*
X134086753Y-209017719D01*
X134082637Y-209131826D01*
X134081091Y-209254600D01*
X134082172Y-209379701D01*
X134085931Y-209500790D01*
X134092424Y-209611528D01*
X134095619Y-209649579D01*
X134105578Y-209769673D01*
X134110767Y-209865509D01*
X134111140Y-209940214D01*
X134106651Y-209996914D01*
X134097255Y-210038737D01*
X134089589Y-210057309D01*
X134066171Y-210091709D01*
X134026065Y-210138615D01*
X133974294Y-210193186D01*
X133915886Y-210250585D01*
X133855865Y-210305974D01*
X133799256Y-210354513D01*
X133751085Y-210391364D01*
X133726609Y-210406796D01*
X133667831Y-210432422D01*
X133595667Y-210454803D01*
X133519356Y-210471934D01*
X133448141Y-210481806D01*
X133391261Y-210482412D01*
X133383269Y-210481383D01*
X133344217Y-210471192D01*
X133296942Y-210453333D01*
X133248431Y-210431233D01*
X133205676Y-210408318D01*
X133175664Y-210388017D01*
X133165317Y-210374513D01*
X133155119Y-210357707D01*
X133126584Y-210326104D01*
X133082807Y-210282601D01*
X133026880Y-210230096D01*
X132961894Y-210171487D01*
X132890944Y-210109673D01*
X132817120Y-210047550D01*
X132810995Y-210042499D01*
X132717763Y-209969607D01*
X132607309Y-209889472D01*
X132487300Y-209807218D01*
X132365402Y-209727972D01*
X132249281Y-209656855D01*
X132150985Y-209601324D01*
X131881917Y-209470337D01*
X131608202Y-209361600D01*
X131332035Y-209275454D01*
X131055609Y-209212243D01*
X130781116Y-209172309D01*
X130510751Y-209155996D01*
X130246706Y-209163646D01*
X129991175Y-209195602D01*
X129808456Y-209235202D01*
X129675747Y-209279764D01*
X129539096Y-209344073D01*
X129405617Y-209423673D01*
X129282424Y-209514111D01*
X129176630Y-209610932D01*
X129135709Y-209656455D01*
X129081177Y-209730466D01*
X129030173Y-209815654D01*
X128986226Y-209904646D01*
X128952865Y-209990072D01*
X128933618Y-210064560D01*
X128931106Y-210083866D01*
X128929106Y-210135342D01*
X127179082Y-210135342D01*
X127184381Y-210116347D01*
X127199142Y-210081151D01*
X127211138Y-210054702D01*
X127213200Y-210042828D01*
X127212919Y-210042779D01*
X127214350Y-210030877D01*
X127223745Y-209999483D01*
X127239145Y-209955058D01*
X127241366Y-209948988D01*
X127259249Y-209899056D01*
X127273367Y-209857191D01*
X127280747Y-209832216D01*
X127280841Y-209831782D01*
X127291316Y-209801519D01*
X127303475Y-209776202D01*
X127318112Y-209746790D01*
X127324477Y-209730142D01*
X127330034Y-209706106D01*
X127334570Y-209686015D01*
X127347287Y-209651875D01*
X127364770Y-209620014D01*
X127378415Y-209595373D01*
X127379609Y-209584292D01*
X127379173Y-209584245D01*
X127378174Y-209574054D01*
X127387503Y-209552981D01*
X127401010Y-209526922D01*
X127405943Y-209514770D01*
X127412703Y-209499262D01*
X127428204Y-209469230D01*
X127433643Y-209459190D01*
X127450773Y-209426763D01*
X127460567Y-209406042D01*
X127461343Y-209403610D01*
X127468191Y-209387490D01*
X127479783Y-209365399D01*
X127490113Y-209342316D01*
X127489538Y-209334135D01*
X127491687Y-209323728D01*
X127505669Y-209297229D01*
X127517013Y-209278556D01*
X127535876Y-209246283D01*
X127544690Y-209226232D01*
X127544031Y-209222976D01*
X127545833Y-209213163D01*
X127560410Y-209188829D01*
X127565645Y-209181291D01*
X127582700Y-209154513D01*
X127587828Y-209140300D01*
X127586766Y-209139606D01*
X127589281Y-209129372D01*
X127604536Y-209102830D01*
X127623863Y-209073605D01*
X127648638Y-209036835D01*
X127665489Y-209010001D01*
X127670182Y-209000656D01*
X127676850Y-208984798D01*
X127690700Y-208958971D01*
X127705335Y-208930176D01*
X127711050Y-208913306D01*
X127721243Y-208895946D01*
X127725438Y-208892463D01*
X127742334Y-208873578D01*
X127758008Y-208849382D01*
X127777334Y-208815001D01*
X127800802Y-208773182D01*
X127804822Y-208766012D01*
X127832417Y-208721697D01*
X127865456Y-208674938D01*
X127872990Y-208665177D01*
X127896842Y-208632934D01*
X127911166Y-208609566D01*
X127913020Y-208604081D01*
X127921174Y-208588396D01*
X127942209Y-208558925D01*
X127962582Y-208533132D01*
X127987859Y-208500553D01*
X128002179Y-208478595D01*
X128003193Y-208472647D01*
X128007056Y-208462978D01*
X128025812Y-208436884D01*
X128055923Y-208398740D01*
X128093849Y-208352919D01*
X128136052Y-208303797D01*
X128176288Y-208258708D01*
X128199701Y-208231194D01*
X128208966Y-208216290D01*
X128204814Y-208216012D01*
X128199344Y-208218195D01*
X128199831Y-208214745D01*
X128208104Y-208203582D01*
X128225990Y-208182628D01*
X128255320Y-208149803D01*
X128297921Y-208103028D01*
X128355623Y-208040225D01*
X128430253Y-207959314D01*
X128437388Y-207951586D01*
X128479468Y-207907074D01*
X128530105Y-207855176D01*
X128586378Y-207798699D01*
X128645367Y-207740452D01*
X128704154Y-207683240D01*
X128759817Y-207629871D01*
X128809438Y-207583154D01*
X128850096Y-207545894D01*
X128878871Y-207520899D01*
X128892844Y-207510977D01*
X128892632Y-207513895D01*
X128896860Y-207513785D01*
X128917913Y-207497632D01*
X128952263Y-207468314D01*
X128990538Y-207434046D01*
X129036720Y-207392917D01*
X129075792Y-207359891D01*
X129103015Y-207338867D01*
X129113006Y-207333308D01*
X129129203Y-207324975D01*
X129159356Y-207303339D01*
X129191357Y-207277680D01*
X129227590Y-207248590D01*
X129255495Y-207228471D01*
X129267737Y-207222100D01*
X129282553Y-207214007D01*
X129313074Y-207192503D01*
X129353480Y-207161749D01*
X129365964Y-207151893D01*
X129407780Y-207119473D01*
X129441016Y-207095297D01*
X129460017Y-207083425D01*
X129462066Y-207082865D01*
X129476994Y-207075940D01*
X129504888Y-207057181D01*
X129516067Y-207048860D01*
X129547357Y-207026889D01*
X129569666Y-207014610D01*
X129573468Y-207013676D01*
X129590653Y-207005920D01*
X129620038Y-206986514D01*
X129631210Y-206978231D01*
X129659502Y-206958383D01*
X129675972Y-206950180D01*
X129677680Y-206951109D01*
X129688010Y-206949014D01*
X129714505Y-206934657D01*
X129736963Y-206920552D01*
X129789598Y-206886218D01*
X129826673Y-206862804D01*
X129855777Y-206845852D01*
X129884499Y-206830905D01*
X129913895Y-206816632D01*
X129951234Y-206799058D01*
X129977093Y-206787470D01*
X129983370Y-206785052D01*
X129999244Y-206777641D01*
X130025055Y-206763458D01*
X130062359Y-206743441D01*
X130103214Y-206723570D01*
X130139061Y-206707769D01*
X130161342Y-206699962D01*
X130164004Y-206699746D01*
X130178642Y-206693201D01*
X130206563Y-206675439D01*
X130216110Y-206668775D01*
X130244178Y-206650859D01*
X130259989Y-206644781D01*
X130261269Y-206646111D01*
X130271129Y-206646259D01*
X130294959Y-206633524D01*
X130296006Y-206632842D01*
X130320222Y-206619367D01*
X130330731Y-206618260D01*
X130330744Y-206618482D01*
X130341093Y-206617252D01*
X130367074Y-206604156D01*
X130379376Y-206596827D01*
X130409248Y-206580420D01*
X130426400Y-206574978D01*
X130428009Y-206576449D01*
X130437864Y-206576729D01*
X130461683Y-206564059D01*
X130462746Y-206563367D01*
X130487008Y-206549408D01*
X130497474Y-206547227D01*
X130497483Y-206547380D01*
X130508894Y-206546241D01*
X130538186Y-206536032D01*
X130563485Y-206525612D01*
X130605549Y-206508192D01*
X130639243Y-206495588D01*
X130650328Y-206492212D01*
X130673847Y-206485133D01*
X130714043Y-206471610D01*
X130754540Y-206457314D01*
X130801533Y-206440824D01*
X130839892Y-206428156D01*
X130858753Y-206422708D01*
X130882288Y-206415824D01*
X130922512Y-206402515D01*
X130962965Y-206388405D01*
X131013543Y-206371641D01*
X131059024Y-206358726D01*
X131083769Y-206353450D01*
X131122850Y-206343180D01*
X131164734Y-206325723D01*
X131165195Y-206325486D01*
X131191636Y-206314340D01*
X131200258Y-206316415D01*
X131199032Y-206319166D01*
X131196936Y-206328826D01*
X131214787Y-206321751D01*
X131214871Y-206321706D01*
X131246383Y-206310005D01*
X131287697Y-206300407D01*
X131290694Y-206299914D01*
X131329639Y-206292712D01*
X131358283Y-206285663D01*
X131360169Y-206285029D01*
X131396967Y-206275166D01*
X131454711Y-206263621D01*
X131511816Y-206254040D01*
X131552880Y-206244896D01*
X131585444Y-206233188D01*
X131586441Y-206232672D01*
X131604339Y-206225627D01*
X131602297Y-206235292D01*
X131602133Y-206235558D01*
X131599568Y-206245180D01*
X131615717Y-206239356D01*
X131622556Y-206235782D01*
X131659335Y-206222237D01*
X131697181Y-206214818D01*
X131780624Y-206205868D01*
X131846714Y-206198049D01*
X131892160Y-206191781D01*
X131913674Y-206187484D01*
X131914588Y-206187064D01*
X131932171Y-206183205D01*
X131969421Y-206178343D01*
X132018270Y-206173227D01*
X132070651Y-206168608D01*
X132118498Y-206165234D01*
X132153741Y-206163855D01*
X132162518Y-206164031D01*
X132175354Y-206165243D01*
X132183816Y-206165135D01*
X132186041Y-206160664D01*
X132180166Y-206148786D01*
X132164325Y-206126458D01*
X132136656Y-206090634D01*
X132095294Y-206038271D01*
X132052084Y-205983681D01*
X131843615Y-205699733D01*
X131650054Y-205395390D01*
X131473387Y-205074864D01*
X131315602Y-204742363D01*
X131178688Y-204402098D01*
X131064631Y-204058279D01*
X130975419Y-203715115D01*
X130970494Y-203692779D01*
X130901334Y-203314097D01*
X130857653Y-202931230D01*
X130839475Y-202547076D01*
X130846823Y-202164528D01*
X130879722Y-201786485D01*
X130938196Y-201415841D01*
X130951160Y-201351477D01*
X131043927Y-200972698D01*
X131161964Y-200604580D01*
X131304494Y-200248142D01*
X131470737Y-199904400D01*
X131659917Y-199574373D01*
X131871256Y-199259076D01*
X132103975Y-198959529D01*
X132357297Y-198676748D01*
X132630443Y-198411751D01*
X132922637Y-198165555D01*
X133233100Y-197939177D01*
X133561055Y-197733636D01*
X133827806Y-197588786D01*
X134108939Y-197456939D01*
X134407473Y-197337387D01*
X134714586Y-197233236D01*
X135021452Y-197147591D01*
X135193982Y-197108011D01*
X135356043Y-197075228D01*
X135502275Y-197048782D01*
X135638854Y-197028065D01*
X135771957Y-197012471D01*
X135907760Y-197001393D01*
X136052439Y-196994222D01*
X136212171Y-196990353D01*
X136393131Y-196989177D01*
X136402845Y-196989178D01*
G37*
%TD*%
M02*
